<svg width="100%" height="100%" viewBox="0 0 120 124" fill="none" xmlns="http://www.w3.org/2000/svg">
<path fill-rule="evenodd" clip-rule="evenodd" d="M67.6062 21.8325C66.8183 25.5697 67.2123 29.2087 67.6062 33.0443C65.932 32.7493 64.7502 31.7658 63.1745 32.3559C61.7958 32.8476 60.8109 33.6344 59.9246 35.1097C59.6291 34.5196 59.4322 34.2245 59.4322 33.9295C59.3337 31.1757 59.3337 28.4219 59.3337 25.6681C59.2352 22.1275 59.2352 18.4886 59.1367 14.948C59.1367 14.1612 59.2352 13.3744 59.3337 12.3909C59.9246 12.3909 60.417 12.2925 60.7125 12.3909C61.8942 12.8826 63.1745 12.8826 64.4548 12.981C66.9168 13.0793 69.3788 13.0793 71.8409 13.0793C72.6287 13.0793 73.5151 13.0793 74.3029 13.0793C82.7724 13.8661 91.1433 13.5711 99.6128 13.5711C102.37 13.5711 105.128 13.6694 107.787 14.1612C108.279 14.2595 108.673 14.3579 109.165 14.4562C111.726 15.3414 114.385 16.3249 116.946 17.21C117.536 17.8001 117.536 18.5869 117.339 19.2754C116.65 22.1275 116.847 25.078 116.552 28.0285C116.256 30.5856 116.158 33.1427 115.862 35.6998C115.271 39.8304 114.582 44.0595 114.287 48.1902C114.287 48.6819 114.287 49.0753 114.188 49.5671C113.203 53.5994 113.302 57.7301 112.809 61.8608C112.415 64.7129 112.514 67.5651 112.021 70.3189C111.529 72.9743 111.824 75.6297 111.431 78.2852C110.938 81.4324 111.234 84.4812 110.84 87.6284C110.15 92.4475 110.347 97.365 110.347 102.184C110.347 103.758 109.559 104.741 108.673 105.921C105.62 106.315 102.469 106.02 99.4158 106.118C96.2644 106.216 93.2114 106.118 90.06 106.118C87.0071 106.118 83.9541 106.118 80.9997 106.118C77.8483 106.118 74.7953 106.216 71.6439 106.118C68.4925 106.02 65.4396 105.823 62.1897 105.626C61.6973 105.036 61.8942 104.151 61.8942 103.364C61.7957 92.3492 61.7958 81.334 61.6973 70.3189C61.6973 65.4997 61.5988 60.5822 61.1064 55.7631C61.0079 54.1895 60.9094 52.6159 60.8109 51.1407C60.7124 50.2555 60.9094 49.5671 61.4018 48.7803C62.879 46.5182 64.0608 43.9611 66.3259 42.2892C66.8183 41.8958 67.1138 41.404 67.7046 40.7156C68.1971 46.3215 68.7879 51.6324 69.2803 57.0416C72.1363 57.8284 74.6968 59.107 77.5528 59.3037C79.227 59.402 80.8027 59.8938 82.3785 60.1888C84.1511 60.5822 86.0223 60.7789 87.7949 60.9756C89.5676 61.074 91.4388 61.5657 93.2114 61.9591C95.0826 62.4509 97.0522 62.6476 98.9234 62.5492C99.5143 62.5492 100.204 62.3525 100.794 62.2542C103.158 61.5657 103.65 60.9756 103.65 58.6152C103.749 55.2713 104.241 52.1242 104.635 48.7803C104.832 46.3215 105.128 43.8628 105.128 41.404C105.128 36.5849 105.029 31.6674 105.029 26.8483C105.029 24.5862 104.241 23.7994 102.075 23.3077C99.4158 22.8159 96.7568 22.1275 93.9993 21.8325C91.0448 21.4391 87.9919 21.2424 84.939 21.144C81.6891 21.0457 78.5376 21.144 75.2878 21.144C74.6969 21.144 74.106 21.3407 73.6136 21.144C71.6439 20.3572 69.7728 21.0457 67.6062 21.8325ZM76.962 67.9585C76.8635 66.975 77.1589 65.8931 76.1741 65.1063C75.2877 64.4179 74.4014 63.8278 73.4166 63.336C72.7272 63.041 71.8409 63.041 71.3485 63.6311C70.4621 64.6146 69.4773 65.6964 68.7879 66.8766C68.0001 68.2535 69.6743 71.6958 71.25 72.1875C73.515 72.6792 77.5528 71.3024 76.962 67.9585Z" fill="#FFB63B"/>
<path fill-rule="evenodd" clip-rule="evenodd" d="M5.75781 62.1554C6.54567 60.1885 8.0229 59.0083 9.30316 58.0248C11.7652 56.0578 14.3257 54.2875 16.8862 52.5172C17.9695 51.8287 19.1513 51.2386 20.2346 50.6485C21.6134 49.8617 22.9921 49.8617 24.4693 50.3535C24.5678 50.3535 24.6663 50.4518 24.7648 50.4518C29.098 52.3205 33.4312 51.632 37.5674 50.0584C39.2416 49.4683 40.8173 49.5667 42.393 49.8617C43.9687 50.1568 45.5445 50.6485 47.2186 51.0419C48.0065 51.2386 48.7943 51.337 49.6807 51.4353C51.1579 51.632 52.4382 51.0419 53.423 50.0584C54.4078 49.1733 55.2941 48.0914 56.082 47.0096C57.5592 45.0426 59.0364 43.0756 60.6121 41.0103C61.1045 41.0103 61.6955 40.9119 62.1879 41.0103C63.2712 41.3053 63.7636 42.5839 63.0742 43.3707C61.203 45.731 59.2334 47.9931 57.2638 50.2551C56.8699 50.7469 56.279 51.0419 55.7866 51.4353C55.1957 51.8287 54.5063 52.2221 54.0138 52.7139C51.9457 54.5825 49.6807 56.1561 47.4156 57.533C46.4308 58.1231 45.5445 58.7132 44.4612 58.9099C42.9839 59.205 42.393 60.1885 42.393 61.467C42.393 66.1878 41.8021 71.0069 42.6884 75.7277C42.7869 76.1211 42.787 76.4162 42.787 76.8096C42.787 81.0386 42.787 85.2676 42.787 89.4967C42.787 89.7917 42.6885 89.9884 42.59 90.3818C41.2112 91.0703 39.734 90.9719 38.3553 90.6769C36.0902 90.1851 33.8251 90.1851 31.56 90.2835C29.2949 90.3818 27.2268 89.9884 25.0602 89.595C23.8785 89.3983 23.0906 88.6115 22.8936 87.4313C22.6967 86.0544 22.4997 84.6775 22.6967 83.3006C23.0906 79.2683 22.7952 75.236 22.8936 71.2036C22.9921 68.9416 22.8936 66.6795 23.386 64.4175C23.78 62.6472 23.4845 60.7786 23.386 58.9099C23.386 57.7297 23.1891 56.5495 22.9921 55.3693C22.7951 53.8941 21.7119 53.304 20.4316 53.9924C20.0377 54.1891 19.7422 54.5825 19.3483 54.7792C16.9847 56.4512 14.8181 58.4182 12.2576 59.8934C11.3713 60.3852 10.7804 61.2703 9.99252 62.0571C8.71225 62.1554 7.432 62.1554 5.75781 62.1554Z" fill="#507178"/>
<path fill-rule="evenodd" clip-rule="evenodd" d="M102.764 25.8643C102.764 26.8478 102.863 27.7329 102.863 28.6181C102.863 32.7488 102.863 36.8795 102.764 41.0102C102.764 41.797 102.567 42.6821 102.469 43.4689C102.37 43.8623 102.272 44.1573 102.272 44.5507C102.075 47.2062 101.878 49.8616 101.582 52.4187C101.385 54.5824 101.09 56.7461 100.794 59.0082C100.302 59.5983 99.5142 59.8933 98.7263 59.8933C97.84 59.8933 96.8552 59.9917 95.9688 59.795C93.1129 59.2049 90.2569 58.5164 87.3024 57.828C87.204 57.5329 87.1055 57.1395 87.1055 56.8445C87.1055 45.8293 87.1055 34.7158 87.1055 23.5039C92.4235 23.6023 97.5445 24.1924 102.764 25.8643Z" fill="#DFE7EB"/>
<path fill-rule="evenodd" clip-rule="evenodd" d="M84.5459 57.7294C83.758 57.6311 83.2656 57.6311 82.8717 57.5327C80.9021 57.1393 78.9324 56.6476 76.9628 56.4509C75.2886 56.2542 73.6144 55.6641 72.0387 54.7789C71.8418 52.8119 71.5463 50.9433 71.3493 48.9763C71.0539 44.6489 70.8569 40.4199 70.5615 36.0925C70.3645 33.6337 69.8721 31.175 69.5767 28.8146C69.5767 28.5195 69.4782 28.3228 69.4782 28.0278C69.1827 25.274 69.2812 25.0773 71.6448 23.012C75.781 23.2087 80.2127 23.1103 84.6444 23.2087C84.7429 23.7988 84.8413 24.1922 84.8413 24.4872C84.6444 35.5024 84.5459 46.4192 84.5459 57.7294Z" fill="#DFE7EB"/>
<path fill-rule="evenodd" clip-rule="evenodd" d="M43.7762 28.5212C44.5641 29.9965 44.8595 31.1767 44.8595 32.3569C44.958 34.8156 44.7611 37.2744 44.2687 39.7331C44.1702 40.1265 44.1702 40.5199 43.9732 40.815C42.2006 43.077 40.7233 45.6341 37.8673 46.9126C36.3901 47.6011 35.0114 48.4862 33.4357 48.8796C30.8751 49.5681 28.6101 48.5846 26.2465 47.8961C24.9662 46.6176 23.5875 45.339 22.7011 43.6671C21.6178 41.5034 20.7315 39.3397 20.2391 36.9793C20.1406 36.3892 20.2391 35.7008 20.2391 35.0123C21.0269 35.0123 21.6178 34.914 22.2087 34.914C24.0799 34.914 25.8526 35.0123 27.7237 35.0123C31.5645 35.0123 35.2083 34.4222 38.5567 32.4552C39.5415 31.8651 40.5264 31.1767 41.5112 30.4882C42.2006 29.7998 42.8899 29.2097 43.7762 28.5212Z" fill="#F2DECD"/>
<path fill-rule="evenodd" clip-rule="evenodd" d="M49.1902 119.101C48.2054 120.084 48.2053 120.084 42.5919 120.871C42.4934 120.379 42.3949 119.888 42.2965 119.396C41.5086 116.15 40.8192 113.003 40.0314 109.758C39.145 106.02 38.3572 102.283 37.4708 98.5457C37.2739 97.7589 37.3723 96.8738 37.2738 96.087C35.6981 95.1035 34.1224 95.7919 32.5467 96.087C32.2513 96.087 31.8574 96.7754 31.7589 97.0705C31.6604 99.0375 30.8725 101.004 31.0695 103.07C31.168 104.348 31.168 105.627 30.6756 106.905C30.4787 107.594 30.4786 108.381 30.4786 109.069C30.4786 110.938 30.4786 112.708 30.4786 114.577C30.4786 115.954 30.3801 117.331 30.2817 118.707C31.4634 120.183 33.7285 119.494 35.4027 121.068C33.1376 121.363 31.2665 122.15 29.1984 121.756C29.0014 121.166 28.7059 120.674 28.6075 120.183C27.8196 116.839 27.0317 113.397 26.9333 109.954C26.8348 107.987 26.2439 106.02 25.9484 104.053C25.3576 100.316 24.7667 96.6771 24.1758 92.7431C24.5697 92.6447 24.9636 92.5464 25.3576 92.5464C26.4409 92.6447 27.5242 92.8414 28.6075 92.8414C31.7589 92.8414 34.8118 92.5464 37.9632 93.2348C38.8496 93.4315 39.8344 93.2348 40.7207 93.3332C41.4101 93.3332 42.198 93.4315 42.9858 93.5299C43.0843 94.12 43.1828 94.7101 43.1828 95.2018C43.1828 96.9721 43.1828 98.6441 43.1828 100.414C43.1828 101.103 43.0843 101.89 43.2813 102.578C43.8722 105.135 43.6752 107.692 43.7737 110.249C43.7737 111.43 44.0691 112.61 44.1676 113.79C44.2661 114.577 44.2661 115.462 44.3645 116.249C44.463 117.724 44.9554 118.117 46.5312 118.511C47.4175 118.511 48.2054 118.806 49.1902 119.101Z" fill="#507178"/>
<path fill-rule="evenodd" clip-rule="evenodd" d="M16.3955 65.1065C17.7743 65.1065 18.7591 65.1065 19.8424 65.1065C19.9409 65.6966 20.0394 66.1883 20.0394 66.7784C20.0394 69.6306 20.0394 72.4827 20.0394 75.3348C20.0394 77.6952 19.9409 80.0556 20.5318 82.416C20.7287 83.2028 20.5318 84.088 20.5318 84.9731C20.0394 85.0715 19.4485 85.1698 18.9561 85.2682C18.4637 85.2682 18.0698 85.2682 17.5773 85.2682C13.5396 85.0715 9.6003 85.3665 5.46407 86.35C5.2671 85.7599 5.07014 85.2682 4.97166 84.7764C4.28228 81.8259 4.57774 78.7771 4.18382 75.8266C3.78989 72.7777 3.78989 69.8273 3.69141 66.7784C3.69141 66.2867 3.78989 65.6966 3.78989 65.0081C5.3656 64.8114 6.74435 64.8114 8.32006 65.0081C8.41854 65.6966 8.41852 66.2867 8.41852 66.8768C8.517 68.6471 8.6155 70.319 8.71398 72.0893C8.81246 73.2695 9.20638 73.6629 10.4866 73.6629C11.8654 73.7612 13.2441 73.7612 14.6229 73.6629C15.8047 73.6629 16.1986 73.1711 16.2971 71.8926C16.3955 70.6141 16.2971 69.3355 16.2971 68.057C16.3955 67.2702 16.3955 66.385 16.3955 65.1065Z" fill="#FFB63B"/>
<path fill-rule="evenodd" clip-rule="evenodd" d="M42.7867 25.7658C38.552 30.2899 33.4309 32.5519 27.325 32.5519C25.1584 32.5519 22.8933 32.6502 20.7268 32.6502C18.7571 32.6502 18.5602 32.4535 18.4617 30.4865C18.3632 29.208 18.5602 27.9295 19.1511 26.7493C19.4465 26.1592 19.742 25.5691 19.8405 24.979C20.6283 21.5367 23.2873 19.9631 26.1432 18.5862C26.3402 18.4879 26.6356 18.3895 26.9311 18.3895C29.8855 18.2912 32.7416 18.5862 35.5975 19.2747C36.0899 19.373 36.6808 19.5697 37.0748 19.9631C38.9459 21.4384 40.9155 22.9136 42.1958 24.8806C42.5897 25.0773 42.6882 25.4707 42.7867 25.7658Z" fill="#507178"/>
<path fill-rule="evenodd" clip-rule="evenodd" d="M40.3281 19.1768C43.1841 17.0131 46.237 15.7345 49.6839 15.5378C50.4717 17.8982 49.9793 19.9636 48.3051 21.6355C48.0097 21.9306 47.6158 22.2256 47.2218 22.4223C46.5325 22.8157 45.7446 23.2091 44.8583 23.6025C43.381 22.2256 41.8054 20.7504 40.3281 19.1768Z" fill="#507178"/>
<path fill-rule="evenodd" clip-rule="evenodd" d="M14.1284 65.2052C14.1284 67.4673 14.1284 69.3359 14.1284 71.3029C13.1436 71.7947 12.1588 71.598 11.0755 71.4996C9.99219 69.5326 10.2876 67.3689 9.99219 65.0085C10.78 65.0085 11.4694 65.0085 12.0603 65.0085C12.6512 65.0085 13.2421 65.1069 14.1284 65.2052Z" fill="#1CBB6F"/>
<path fill-rule="evenodd" clip-rule="evenodd" d="M61.2031 38.2567C61.4986 35.8963 62.4833 34.5194 64.8469 34.2244C65.5363 34.8145 66.0287 35.6013 66.0287 36.5848C66.1272 38.06 65.9302 38.7485 64.8469 40.8138C63.6651 39.9286 62.4834 39.1419 61.2031 38.2567Z" fill="#F2DECD"/>
<path fill-rule="evenodd" clip-rule="evenodd" d="M71.1523 67.8598C71.5463 66.9747 71.9402 65.9912 72.4326 64.7126C73.2204 65.2044 73.8114 65.4994 74.3038 65.8928C74.9931 66.4829 74.9931 68.5483 74.4022 69.1384C73.6144 69.9252 72.3341 69.8268 71.6448 68.8433C71.4478 68.745 71.3493 68.3516 71.1523 67.8598Z" fill="#1CBB6F"/>
<path fill-rule="evenodd" clip-rule="evenodd" d="M33.0387 117.233C34.7129 118.118 35.9931 118.708 37.2734 119.396C38.1597 119.888 38.3568 120.97 37.5689 121.659C36.781 122.445 35.8947 123.035 34.7129 123.232C33.8266 123.33 32.9402 123.429 32.0539 123.724C30.0842 124.412 28.41 123.724 26.9328 122.642C26.6374 122.445 26.342 121.954 26.2435 121.56C25.5541 117.823 24.3723 114.086 24.4708 110.25C24.4708 109.758 24.3723 109.365 24.2739 108.873C24.0769 107.398 23.7814 106.021 23.5845 104.546C23.1905 101.595 22.7966 98.5463 22.4027 95.5959C22.1072 93.7272 21.9103 91.7602 21.6148 89.8916C21.5164 89.3015 21.4179 88.613 21.2209 87.9246C20.63 87.8262 20.1376 87.8262 19.6452 87.7279C18.6604 87.7279 17.5771 87.7279 16.5923 87.7279C13.2439 87.5312 9.99398 88.0229 6.74408 88.613C3.78963 89.2031 3.00178 88.8097 2.41089 85.3675C1.91848 82.6137 1.91848 79.9583 1.91848 77.2045C1.91848 76.9094 1.91848 76.6144 1.91848 76.4177C1.03215 73.0738 1.62301 69.6315 1.52453 66.2876C1.52453 64.8124 1.32759 63.3372 2.80481 62.3537C3.19874 60.19 4.87293 58.9114 6.25168 57.5345C7.13801 56.6494 8.22132 55.9609 9.30462 55.1741C10.9788 53.9939 12.5545 52.8137 14.2287 51.6335C16.7892 49.8632 19.3497 48.0929 22.8951 48.1913C22.4027 47.2078 22.0088 46.421 21.6148 45.6342C21.3194 44.8474 21.0239 44.0606 20.7285 43.3722C20.3346 42.5854 19.8422 41.7986 19.4482 41.0118C18.9558 39.8316 18.5619 38.6514 18.2664 37.3728C17.971 36.3893 17.8725 35.4058 16.9862 34.7174C16.3953 34.2256 16.1983 33.4388 16.2968 32.7504C16.3953 30.685 16.4938 28.5214 16.6907 26.456C16.6907 25.9643 17.0847 25.3742 17.2816 24.9808C17.6755 24.0956 18.2665 23.2105 18.6604 22.3253C19.2513 20.9484 20.2361 19.9649 21.6148 19.2765C22.3042 18.8831 22.9936 18.3913 23.6829 17.8996C24.9632 16.8177 26.342 16.326 28.0162 16.4243C31.2661 16.5227 34.6144 16.5227 37.8643 17.9979C39.2431 17.3095 40.6218 16.8177 41.9021 15.8342C42.5914 15.3425 43.5762 15.0474 44.3641 14.7524C45.5459 14.359 46.8261 14.0639 48.1064 13.7689C48.7958 13.6705 49.5836 13.6705 50.273 13.7689C51.2578 13.8672 51.9472 14.654 51.9472 15.6375C52.0457 17.1128 52.0457 18.588 51.9472 20.0633C51.9472 20.555 51.6518 21.0468 51.3563 21.5385C50.1746 23.4072 48.6973 24.9808 46.7277 26.161C46.5307 26.2593 46.3338 26.456 45.9398 26.7511C46.0383 27.3412 46.1368 27.9313 46.3337 28.5214C47.0231 30.39 47.3185 32.2586 47.1216 34.2256C47.0231 35.2091 47.0231 36.291 47.0231 37.2745C47.1216 40.0283 46.1368 42.2903 44.5611 44.3557C43.7732 45.3392 43.0838 46.421 42.1975 47.6012C42.6899 47.8963 43.0839 48.1913 43.4778 48.2896C44.955 48.683 46.5307 48.9781 48.0079 49.2731C49.6821 49.6665 50.8639 49.2731 52.1442 47.9946C54.1138 46.0276 55.4926 43.6672 56.8713 41.3068C57.1667 40.8151 57.2652 40.0283 57.1667 39.4382C56.5758 32.652 56.9698 25.8659 57.1667 19.0798C57.2652 16.7194 57.1668 14.359 57.0683 11.9003C57.0683 11.0151 57.4622 10.425 58.2501 10.425C59.8258 10.3267 61.4014 10.2283 62.8787 10.5234C64.1589 10.7201 65.4392 10.8184 66.7195 10.8184C71.2496 10.8184 75.6813 10.7201 80.2115 11.3102C81.0978 11.4085 82.0826 11.4085 82.969 11.4085C89.5672 11.4085 96.1655 11.4085 102.764 11.4085C105.127 11.4085 107.294 11.8019 109.559 12.392C112.415 13.1788 115.173 14.1623 117.93 15.1458C119.9 15.8342 119.998 16.0309 119.998 18.0963C119.998 18.9814 119.998 19.9649 119.9 20.8501C119.604 23.3088 119.21 25.7676 118.915 28.2263C118.619 30.8818 118.225 33.5372 118.028 36.0943C117.733 38.7497 117.536 41.4052 117.339 44.0606C117.241 45.3392 117.044 46.6177 116.945 47.8962C116.256 53.7972 115.369 59.6982 115.173 65.5992C115.173 66.2876 115.074 67.0744 114.976 67.7629C114.877 68.353 114.68 69.0414 114.68 69.6315C114.877 73.3688 114.089 77.1061 113.991 80.8434C113.991 81.5318 113.892 82.3186 113.794 83.0071C113.794 83.4005 113.597 83.6955 113.597 84.0889C113.4 87.4328 113.104 90.8751 113.006 94.219C112.907 98.153 113.006 102.087 112.907 106.021C112.907 106.611 112.907 107.103 112.907 107.693C112.809 109.365 112.12 109.857 110.445 109.66C109.264 109.463 108.082 109.365 106.9 109.365C95.7716 109.266 84.6432 109.266 73.6132 109.266C70.8557 109.266 68.0982 109.168 65.4392 108.578C64.4544 108.381 63.4696 108.381 62.3863 108.283C61.0075 108.185 61.0076 108.185 59.2349 107.201C58.7425 106.316 58.9394 105.234 58.9394 104.251C58.9394 92.8421 58.9394 81.3352 59.0379 69.9266C59.0379 65.0091 58.5455 60.0916 58.3485 55.0758C58.3485 54.4857 58.1515 53.8956 57.9546 53.0104C57.2652 53.3055 56.7728 53.5022 56.3789 53.7972C55.1971 54.8791 53.8184 55.8626 52.8336 57.1411C51.6518 58.6164 50.273 59.6982 48.3034 60.0916C47.0231 60.3867 45.7428 61.0751 44.3641 61.5669C44.3641 62.2553 44.2656 63.0421 44.2656 63.7306C44.2656 65.4025 44.1672 66.9761 44.2656 68.648C44.2656 69.3365 44.2657 70.1233 44.4626 70.8117C44.955 72.7787 44.955 74.8441 44.955 76.8111C44.955 79.8599 44.955 82.9087 45.0535 85.8592C45.0535 87.5312 44.955 89.1048 45.4474 90.7767C45.6444 91.4652 45.5459 92.252 45.5459 92.9404C45.5459 95.0058 45.5459 97.1695 45.5459 99.2348C45.5459 100.612 45.7428 101.989 45.8413 103.365C45.9398 104.644 46.0383 105.923 46.0383 107.201C46.0383 110.152 46.0383 113.102 46.0383 115.954C46.9246 116.839 47.9095 117.036 48.8943 117.134C49.7806 117.233 50.3715 117.823 50.8639 118.511C51.6518 119.692 51.3563 121.068 50.076 121.757C49.8791 121.855 49.5836 121.954 49.2882 122.052C47.1216 122.642 44.8565 123.33 42.6899 123.822C41.6066 124.117 40.8188 123.626 40.4248 122.347C40.1294 121.363 39.9324 120.38 39.637 119.396C39.0461 116.741 38.5537 113.987 37.4704 111.43C37.3719 111.135 37.1749 110.742 37.1749 110.348C36.8795 106.808 35.2053 103.464 35.3038 99.8249C35.3038 99.5298 35.1068 99.1364 35.0083 98.8414C34.9099 98.743 34.7129 98.5463 34.5159 98.5463C34.319 98.5463 34.122 98.6447 34.0235 98.743C33.7281 99.8249 33.2357 100.808 33.2357 101.89C33.1372 106.414 32.2509 110.84 32.6448 115.266C33.1372 115.856 33.0387 116.643 33.0387 117.233ZM67.6058 21.8336C69.7724 20.9484 71.6435 20.3583 73.7117 21.0468C74.2041 21.2435 74.795 21.0468 75.3859 21.0468C78.6358 21.0468 81.7872 20.9484 85.0371 21.0468C88.09 21.1451 91.0445 21.3418 94.0974 21.7352C96.8549 22.1286 99.5139 22.7187 102.173 23.2105C104.438 23.6039 105.127 24.489 105.127 26.7511C105.226 31.5702 105.324 36.4877 105.226 41.3068C105.226 43.7656 104.93 46.2243 104.733 48.683C104.438 51.9286 103.847 55.1741 103.749 58.518C103.749 60.8784 103.256 61.4685 100.893 62.157C100.302 62.3537 99.6124 62.452 99.0215 62.452C97.0518 62.5504 95.1807 62.3537 93.3096 61.8619C91.5369 61.4685 89.7642 60.9768 87.8931 60.8784C86.0219 60.7801 84.2492 60.485 82.4766 60.0916C80.9008 59.7966 79.2266 59.3048 77.6509 59.2065C74.795 59.0098 72.2345 57.7312 69.3785 56.9444C68.8861 51.5352 68.3936 46.2243 67.8027 40.6184C67.2119 41.3068 66.9165 41.8969 66.424 42.192C64.159 43.8639 62.9772 46.421 61.5 48.683C61.0075 49.4698 60.8105 50.1583 60.909 51.0434C61.0075 52.617 61.0076 54.1906 61.2045 55.6659C61.6969 60.485 61.7954 65.4025 61.7954 70.2216C61.7954 81.2368 61.8939 92.252 61.9924 103.267C61.9924 104.054 61.7954 104.939 62.2878 105.529C65.5377 105.726 68.5906 105.923 71.742 106.021C74.8934 106.119 77.9464 106.021 81.0978 106.021C84.1507 106.021 87.2037 106.021 90.1581 106.021C93.3095 106.021 96.3625 106.021 99.5139 106.021C102.567 105.923 105.718 106.218 108.771 105.824C109.559 104.546 110.445 103.562 110.445 102.087C110.445 97.2678 110.248 92.3503 110.938 87.5312C111.332 84.4823 111.036 81.3352 111.529 78.188C111.923 75.6309 111.726 72.8771 112.12 70.2216C112.612 67.4678 112.612 64.6157 112.907 61.7636C113.4 57.6329 113.301 53.5022 114.286 49.4698C114.385 49.0764 114.385 48.5847 114.385 48.0929C114.68 43.8639 115.369 39.7332 115.96 35.6025C116.354 33.0454 116.453 30.4884 116.65 27.9313C116.945 24.9808 116.65 22.0303 117.438 19.1781C117.635 18.4897 117.635 17.7029 117.044 17.1128C114.483 16.2276 111.824 15.2441 109.264 14.359C108.87 14.1623 108.377 14.1623 107.885 14.0639C105.127 13.5722 102.468 13.4739 99.7109 13.4739C91.2414 13.4739 82.8705 13.7689 74.401 12.9821C73.6132 12.8838 72.7269 12.9821 71.939 12.9821C69.477 12.9821 67.0149 12.8838 64.5529 12.8838C63.2726 12.8838 61.9924 12.7854 60.8106 12.2937C60.4166 12.097 59.9242 12.2937 59.4318 12.2937C59.3333 13.2772 59.2349 14.0639 59.2349 14.8507C59.2349 18.3913 59.3333 22.0303 59.4318 25.5709C59.4318 28.3247 59.4318 31.0784 59.5303 33.8322C59.5303 34.1273 59.7273 34.4223 60.0227 35.0124C60.9091 33.5372 61.8939 32.7504 63.2726 32.2586C64.8483 31.6685 66.0301 32.652 67.7043 32.9471C67.2119 29.2098 66.7195 25.5709 67.6058 21.8336ZM5.75927 62.157C7.43346 62.157 8.71373 62.157 9.79703 62.157C10.5849 61.3702 11.1758 60.3867 12.0621 59.9933C14.6226 58.518 16.7892 56.551 19.1528 54.8791C19.5467 54.584 19.8421 54.289 20.2361 54.0923C21.5163 53.4038 22.5997 53.9939 22.7966 55.4692C22.8951 56.6494 23.092 57.8296 23.1905 59.0098C23.289 60.8784 23.486 62.7471 23.1905 64.5173C22.6981 66.7794 22.7966 69.0414 22.6981 71.3035C22.5996 75.3358 22.8951 79.3682 22.5011 83.4005C22.4027 84.7774 22.5996 86.1543 22.6981 87.5312C22.8951 88.7114 23.6829 89.4982 24.8647 89.6949C27.0313 90.0883 29.1979 90.4817 31.3645 90.3833C33.6296 90.285 35.8947 90.285 38.1598 90.7767C39.5385 91.0718 41.0157 91.1701 42.3945 90.4817C42.4929 90.0883 42.5914 89.7932 42.5914 89.5965C42.5914 85.3675 42.5914 81.1385 42.5914 76.9094C42.5914 76.516 42.5915 76.221 42.493 75.8276C41.6066 71.1068 42.1975 66.2876 42.1975 61.5669C42.1975 60.2883 42.7884 59.3048 44.2656 59.0098C45.3489 58.8131 46.2353 58.1246 47.2201 57.6329C49.5837 56.1576 51.8488 54.6824 53.8184 52.8137C54.3108 52.322 55.0002 51.9286 55.591 51.5352C56.0835 51.1418 56.6743 50.8467 57.0683 50.355C59.0379 48.0929 61.0075 45.7326 62.8787 43.4705C63.568 42.6837 62.9772 41.3068 61.9924 41.1101C61.5 41.0118 60.909 41.1101 60.4166 41.1101C58.8409 43.1755 57.4622 45.1425 55.8865 47.1095C55.0986 48.1913 54.2123 49.2731 53.2275 50.1583C52.2426 51.1418 50.9624 51.7319 49.4852 51.5352C48.6973 51.4368 47.811 51.3385 47.0231 51.1418C45.4474 50.7484 43.8717 50.2566 42.1975 49.9616C40.6218 49.6665 39.0461 49.5682 37.3719 50.1583C33.1372 51.7319 28.9025 52.4203 24.5693 50.5517C24.4708 50.5517 24.3723 50.4533 24.2739 50.4533C22.7966 50.0599 21.4178 49.9616 20.0391 50.7484C18.9558 51.3385 17.774 51.9286 16.6907 52.617C14.1302 54.3873 11.5697 56.1576 9.10764 58.1246C8.02434 59.0098 6.6456 60.19 5.75927 62.157ZM102.764 25.8659C97.5442 24.194 92.4232 23.6039 87.1052 23.5055C87.1052 34.7174 87.1052 45.8309 87.1052 56.8461C87.1052 57.2395 87.2037 57.5345 87.3022 57.8296C90.2566 58.518 93.1126 59.2065 95.9686 59.7966C96.8549 59.9933 97.8397 59.8949 98.7261 59.8949C99.6124 59.8949 100.302 59.5999 100.794 59.0098C101.09 56.7477 101.385 54.584 101.582 52.4203C101.877 49.7649 101.976 47.1095 102.271 44.5524C102.271 44.159 102.468 43.8639 102.468 43.4705C102.567 42.6837 102.764 41.8969 102.764 41.0118C102.862 36.8811 102.862 32.7504 102.862 28.6197C102.862 27.7346 102.764 26.8494 102.764 25.8659ZM84.5447 57.7312C84.6431 46.421 84.6431 35.5042 84.7416 24.489C84.7416 24.0956 84.6431 23.8006 84.5447 23.2105C80.113 23.1121 75.7798 23.2105 71.5451 23.0138C69.1815 25.0791 68.9846 25.3742 69.3785 28.0296C69.3785 28.3247 69.477 28.5214 69.477 28.8164C69.8709 31.2751 70.2648 33.7339 70.4618 36.0943C70.8557 40.3233 70.9542 44.6507 71.2496 48.9781C71.3481 50.8467 71.6436 52.8137 71.939 54.7807C73.5147 55.6659 75.1889 56.256 76.8631 56.4527C78.9312 56.6494 80.8024 57.1411 82.772 57.5345C83.2644 57.6329 83.6583 57.6329 84.5447 57.7312ZM43.7732 28.5214C42.8869 29.2098 42.1975 29.7999 41.4096 30.2917C40.4248 30.9801 39.5385 31.6685 38.4552 32.2586C35.1068 34.2256 31.463 34.8157 27.6222 34.8157C25.751 34.8157 23.9784 34.7174 22.1072 34.7174C21.5164 34.7174 20.827 34.8157 20.1376 34.8157C20.1376 35.6025 20.0391 36.1926 20.1376 36.7827C20.63 39.1431 21.5164 41.3068 22.5997 43.4705C23.3875 45.1425 24.7662 46.3227 26.145 47.6996C28.5085 48.4863 30.7736 49.3715 33.3341 48.683C34.9098 48.2896 36.2886 47.4045 37.7658 46.7161C40.6218 45.4375 42.099 42.9788 43.8717 40.6184C44.0687 40.3233 44.0686 39.9299 44.1671 39.5365C44.6595 37.0778 44.8565 34.619 44.7581 32.1603C44.8565 31.1768 44.5611 29.9966 43.7732 28.5214ZM49.1897 119.101C48.3034 118.806 47.417 118.511 46.5307 118.315C44.955 117.921 44.5611 117.528 44.3641 116.053C44.2656 115.266 44.2656 114.381 44.1671 113.594C44.0686 112.414 43.8717 111.233 43.7732 110.053C43.6748 107.496 43.8717 104.939 43.2808 102.382C43.0839 101.694 43.1823 100.907 43.1823 100.218C43.1823 98.448 43.1823 96.7761 43.1823 95.0058C43.1823 94.514 43.0839 93.9239 42.9854 93.3338C42.0991 93.2355 41.4096 93.2355 40.7203 93.1371C39.8339 93.1371 38.8491 93.2355 37.9628 93.0388C34.9099 92.3503 31.7584 92.6454 28.607 92.6454C27.5237 92.6454 26.4404 92.4487 25.3571 92.3503C24.9632 92.3503 24.5693 92.4487 24.1753 92.547C24.7662 96.3827 25.3571 100.12 25.948 103.857C26.2434 105.824 26.8343 107.791 26.9328 109.758C27.0313 113.299 27.8192 116.643 28.607 119.987C28.7055 120.478 29.001 120.97 29.1979 121.56C31.2661 121.954 33.1372 121.068 35.4023 120.872C33.7281 119.396 31.463 120.085 30.2812 118.511C30.3797 117.134 30.4782 115.758 30.4782 114.381C30.4782 112.512 30.4782 110.742 30.4782 108.873C30.4782 108.185 30.3797 107.398 30.6752 106.709C31.0691 105.431 31.1675 104.152 31.0691 102.874C30.8721 100.808 31.66 98.9398 31.7584 96.8744C31.7584 96.481 32.1524 95.8909 32.5463 95.8909C34.122 95.6942 35.6977 94.9074 37.2734 95.8909C37.3719 96.7761 37.2734 97.5629 37.4704 98.3496C38.2582 102.087 39.1446 105.824 40.0309 109.562C40.7203 112.807 41.5082 115.954 42.296 119.2C42.3945 119.692 42.493 120.183 42.5914 120.675C48.2049 120.085 48.2049 120.085 49.1897 119.101ZM16.3953 65.1074C16.3953 66.2876 16.3953 67.2711 16.3953 68.1563C16.3953 69.4348 16.3953 70.7134 16.3953 71.9919C16.2968 73.2705 15.9029 73.6639 14.7211 73.7622C13.3424 73.8606 11.9636 73.8606 10.5849 73.7622C9.3046 73.7622 8.91069 73.3688 8.81221 72.1886C8.61524 70.4183 8.61523 68.7464 8.51674 66.9761C8.51674 66.386 8.41826 65.6975 8.41826 65.1074C6.84255 64.9107 5.46383 64.9107 3.88812 65.1074C3.88812 65.7959 3.78963 66.2876 3.78963 66.8777C3.88811 69.9266 3.88811 72.8771 4.28204 75.9259C4.67597 78.8764 4.38051 81.9252 5.06988 84.8757C5.16836 85.3675 5.36533 85.8592 5.56229 86.4493C9.69853 85.5642 13.6378 85.2691 17.6756 85.3675C18.168 85.3675 18.5619 85.3675 19.0543 85.3675C19.5467 85.2691 20.1376 85.1708 20.63 85.0724C20.63 84.0889 20.827 83.3021 20.63 82.5154C20.0391 80.155 20.1376 77.7946 20.1376 75.4342C20.1376 72.582 20.1376 69.7299 20.1376 66.8777C20.1376 66.386 20.0391 65.7959 19.9406 65.2058C18.7589 65.1075 17.774 65.1074 16.3953 65.1074ZM42.7884 25.7676C42.6899 25.4725 42.493 25.1775 42.296 24.8824C40.9173 22.8171 39.0461 21.4402 37.1749 19.9649C36.781 19.6699 36.1901 19.4732 35.6977 19.2765C32.8417 18.4897 29.9858 18.1946 27.0313 18.3913C26.7359 18.3913 26.4405 18.4897 26.2435 18.588C23.3875 19.9649 20.7285 21.5385 19.9406 24.9808C19.8422 25.5709 19.5467 26.161 19.2513 26.7511C18.6604 27.9313 18.4634 29.2098 18.5619 30.4883C18.6604 32.4553 18.8574 32.7504 20.827 32.652C22.9936 32.652 25.2586 32.5537 27.4252 32.5537C33.4326 32.4553 38.5537 30.1933 42.7884 25.7676ZM40.3264 19.1781C41.9021 20.6534 43.3793 22.227 44.8565 23.6039C45.7428 23.1121 46.4322 22.8171 47.2201 22.4237C47.614 22.227 48.0079 21.9319 48.3034 21.6369C49.9776 19.9649 50.47 17.8996 49.6821 15.5392C46.1368 15.7359 43.1823 17.0144 40.3264 19.1781ZM12.5545 62.6487C15.0165 62.8454 17.4786 62.8454 20.0391 62.6487C20.3345 60.5834 21.3194 58.7147 20.433 56.4527C17.8725 58.223 15.4105 59.8949 12.9484 61.5669C12.7515 61.6652 12.5545 61.9603 12.456 62.157C12.456 62.2553 12.5545 62.3537 12.5545 62.6487ZM14.1302 65.2058C13.2439 65.1075 12.653 65.1074 12.0621 65.0091C11.4712 65.0091 10.8803 65.0091 9.99397 65.0091C10.1909 67.3695 9.99398 69.5332 11.0773 71.5002C12.1606 71.5985 13.1454 71.7952 14.1302 71.3035C14.1302 69.3365 14.1302 67.3695 14.1302 65.2058ZM61.2045 38.258C62.4848 39.1431 63.6665 39.9299 64.8483 40.8151C65.9316 38.7497 66.1286 38.0613 66.0301 36.586C65.9316 35.6025 65.5377 34.9141 64.8483 34.2256C62.4847 34.5207 61.5 35.8976 61.2045 38.258Z" fill="#192C32"/>
<path fill-rule="evenodd" clip-rule="evenodd" d="M6.84449 24.7839C4.77638 24.8822 3.10218 23.702 1.32951 23.1119C0.837098 23.0136 0.541647 22.4235 0.246201 21.9317C-0.0492439 21.44 -0.14772 20.8499 0.344689 20.4565C0.640135 20.2598 1.23101 20.1614 1.52645 20.2598C2.51127 20.5548 3.39763 20.8499 4.38245 21.3416C5.36727 21.8334 6.45055 22.0301 7.53385 22.0301C8.02626 22.0301 8.51868 22.0301 8.81413 22.2268C9.20805 22.4235 9.50349 22.9152 9.60197 23.2103C9.60197 23.6037 9.20803 24.0954 8.91259 24.2921C8.32169 24.4888 7.63235 24.5872 6.84449 24.7839Z" fill="#192C32"/>
<path fill-rule="evenodd" clip-rule="evenodd" d="M13.4436 15.1468C13.1481 15.4418 12.8527 15.9336 12.5572 15.9336C12.0648 16.0319 11.4739 15.9336 11.08 15.6385C10.4891 15.2451 10.0952 14.5567 9.60279 13.9666C8.81494 12.8847 8.22404 11.6062 7.04226 10.721C6.45137 10.2293 6.45136 9.54084 6.94377 9.04909C7.53466 8.45899 8.32252 8.26229 8.91341 8.85239C9.40582 9.34414 9.89825 9.93424 10.2922 10.5243C11.277 11.7045 12.1633 12.9831 13.0497 14.2616C13.2466 14.4583 13.2466 14.7534 13.4436 15.1468Z" fill="#192C32"/>
<path fill-rule="evenodd" clip-rule="evenodd" d="M16.6914 2.85214C16.7899 2.06534 16.8884 1.27855 17.1838 0.491749C17.2823 0.295049 17.7747 0 18.0701 0C18.3656 0 18.7595 0.196699 18.9565 0.491749C19.1534 0.786798 19.2519 1.1802 19.2519 1.47525C19.2519 3.24554 19.4489 4.91749 20.0398 6.58943C20.1382 6.78613 20.0398 7.08118 20.0398 7.37623C19.9413 7.86798 19.2519 8.26137 18.7595 8.16302C18.0701 7.96633 17.6762 7.57293 17.4792 6.88448C16.9868 5.50758 16.6914 4.22904 16.6914 2.85214Z" fill="#192C32"/>
<path fill-rule="evenodd" clip-rule="evenodd" d="M76.9642 67.9602C77.5551 71.3041 73.5173 72.681 71.3507 72.0909C69.775 71.6975 68.1008 68.2553 68.8887 66.78C69.578 65.5999 70.4643 64.518 71.4492 63.5345C71.9416 62.9444 72.8279 62.9444 73.5173 63.2395C74.5021 63.7312 75.3885 64.3213 76.2748 65.0098C77.1611 65.8949 76.8657 66.9767 76.9642 67.9602ZM71.1537 67.8619C71.3507 68.3536 71.4492 68.6487 71.6461 68.9437C72.3355 69.9272 73.6158 70.0256 74.4036 69.2388C74.9945 68.6487 74.9945 66.5833 74.3052 65.9932C73.8127 65.5015 73.1233 65.2065 72.434 64.8131C71.9416 65.9933 71.5476 66.9767 71.1537 67.8619Z" fill="#192C32"/>
</svg>
