<svg width="100%" height="100%" viewBox="0 0 144 76" fill="none" xmlns="http://www.w3.org/2000/svg">
<path fill-rule="evenodd" clip-rule="evenodd" d="M47.4472 50.4969C47.343 48.0917 47.0303 45.6866 46.8218 43.2813C46.7176 41.9694 46.6133 40.6575 46.5091 39.3456C46.4048 37.7057 46.4048 36.1751 46.0921 34.5352C45.4667 30.0528 44.737 25.5703 44.0073 21.0879C43.7988 19.8853 43.6946 18.6827 43.1733 17.5894C42.2352 15.5122 42.0267 13.2163 41.7139 11.0298C41.5055 9.28056 42.5479 7.64066 44.2158 6.98469C45.0497 6.65671 45.9879 6.54738 46.8218 6.43806C50.6788 5.78209 54.6399 4.90747 58.4969 4.47017C62.5623 3.92353 66.6278 3.48622 70.6932 3.37689C79.658 3.15824 88.5185 3.26757 97.4833 3.26757C98.9427 3.26757 99.3597 3.59555 99.6724 4.90748C100.298 8.40595 100.819 12.0137 100.506 15.6215C100.089 20.7599 100.089 26.0076 100.194 31.2554C100.298 34.4258 100.298 37.7057 99.9851 40.8761C99.7767 42.9534 99.7766 45.1399 99.6724 47.2171C99.5682 48.9664 99.7767 50.7156 98.9427 52.2462C94.4603 53.0115 90.0821 53.7768 86.121 54.4327C83.3064 52.6835 81.0131 51.1529 78.6156 49.6223C78.0944 49.2943 77.4689 49.0757 76.8434 49.0757C73.2992 49.0757 70.2762 50.169 68.6083 53.6674C68.3999 54.1048 68.1914 54.6514 67.7744 55.3074C66.732 54.7607 65.6896 54.3234 64.7514 53.6674C60.0605 50.8249 53.806 52.2462 50.783 56.8379C50.2618 57.6032 50.1575 58.5872 48.8024 58.9151C48.2812 56.182 47.6557 53.4488 47.4472 50.4969ZM79.1368 12.8884C78.8241 13.8723 78.4071 14.8563 78.5113 15.9495C78.5113 22.2905 78.6155 28.7408 78.7198 35.0818C78.824 38.0336 79.0325 40.8762 79.241 43.828C79.241 44.5933 79.7622 45.0306 80.4919 45.1399C81.2216 45.2492 82.1598 44.8119 82.264 44.0466C82.3683 43.3907 82.4725 42.7347 82.3682 42.0787C81.4301 35.6284 81.5343 29.0688 81.4301 22.5092C81.4301 19.3387 81.1174 16.1682 80.9089 12.9977C80.9089 12.779 80.7004 12.5604 80.3877 12.1231C79.8665 12.3417 79.241 12.5604 79.1368 12.8884ZM68.3999 14.5283C68.9211 18.2454 68.3999 21.9625 68.7126 25.6797C69.0253 30.4901 68.8168 35.3005 69.5465 40.0015C69.6508 40.8762 69.5465 41.8601 69.5465 42.7347C69.5465 43.3907 69.5465 44.0466 69.755 44.7026C69.9635 45.1399 70.3804 45.5772 70.9016 45.6865C71.6313 45.9052 72.2568 45.3586 72.3611 44.7026C72.5695 43.172 72.778 41.5321 72.6738 39.8922C72.361 34.9725 71.7356 30.0527 71.3186 25.133C71.2144 23.7118 71.2144 22.1812 71.3186 20.7599C71.4229 17.9174 70.7974 15.1842 69.8592 12.5604C69.755 12.3417 69.4423 12.2324 68.7126 11.7951C68.5041 12.9977 68.2956 13.763 68.3999 14.5283ZM57.663 25.133C57.8714 27.4289 57.8714 29.6154 57.9757 31.9113C58.0799 33.6605 58.1841 35.4098 58.3926 37.0497C58.7054 39.4549 59.0181 41.7508 59.435 44.156C59.5393 44.8119 59.7478 45.4679 59.9563 46.0145C60.0605 46.3425 60.5817 46.6705 60.8945 46.5612C61.3114 46.4518 61.8326 46.1239 62.0411 45.6865C62.2496 45.1399 62.3538 44.3746 62.2496 43.7187C61.9369 41.3135 61.4156 39.0176 61.1029 36.6124C60.7902 34.6445 60.7902 32.6766 60.4775 30.7087C59.7478 26.3356 59.0181 22.0719 58.1842 17.6988C58.0799 17.3708 57.7672 17.1521 57.5587 16.8241C57.3502 16.9335 57.1417 16.9335 56.9332 17.0428C57.0375 19.8853 57.4545 22.5092 57.663 25.133ZM48.9066 16.8241C50.0533 26.0076 51.3042 35.3005 52.5551 44.4839C52.6594 45.3586 52.8678 46.3425 53.0763 47.2171C53.2848 47.8731 53.806 48.4197 54.5357 48.0917C54.9527 47.8731 55.3696 47.4358 55.3696 46.9985C55.4739 46.1239 55.3696 45.1399 55.1612 44.2653C53.5975 35.5191 52.0339 26.7729 50.366 18.0267C50.1575 17.0428 50.1575 15.9495 48.8024 14.6376C48.9066 15.7309 48.9066 16.2775 48.9066 16.8241ZM89.8737 45.2492C90.1864 43.9373 90.3949 42.6254 90.3949 41.3135C90.4991 38.0336 90.6034 34.6445 90.7076 31.3647C90.7076 30.7087 90.7076 30.0527 90.9161 29.3968C91.6458 26.5543 91.4373 23.6024 91.3331 20.6506C91.2288 19.0107 91.333 17.4801 91.2288 15.8402C91.1246 14.7469 91.2288 13.435 90.2906 12.6697C90.0821 12.6697 89.8737 12.6697 89.7694 12.779C89.6652 12.8884 89.6652 12.9977 89.6652 13.107C89.5609 15.8402 89.3525 18.6827 89.4567 21.4159C89.561 23.9304 89.2482 26.4449 88.9355 28.9595C88.5185 32.4579 88.5185 36.0657 88.31 39.6735C88.2058 41.0948 88.2058 42.6254 88.2058 44.0466C88.2058 44.7026 88.4143 45.2492 88.5185 46.3425C89.2482 45.9052 89.7694 45.6865 89.8737 45.2492Z" fill="#507178"/>
<path fill-rule="evenodd" clip-rule="evenodd" d="M104.049 18.9013C104.049 24.5863 104.153 30.162 104.049 35.7376C103.945 41.204 103.006 46.561 103.528 51.9181C105.508 53.23 107.593 52.574 109.574 52.7927C111.45 53.0114 113.326 53.6673 115.411 52.7927C115.62 52.574 116.037 52.2461 116.245 51.8088C118.017 48.5289 120.936 47.9823 124.063 47.873C126.252 47.7636 127.92 49.1849 129.484 50.6062C130.005 51.0435 130.422 51.5901 130.735 52.1367C131.881 54.3233 133.654 54.8699 135.947 54.4326C137.928 53.9953 138.032 53.9953 138.344 51.0435C137.511 50.7155 136.781 50.4968 135.947 50.1688C134.592 49.6222 133.862 48.6383 133.758 47.217C133.654 45.5771 133.758 43.8279 133.758 41.86C131.777 40.6574 129.171 40.4387 126.774 39.7828C125.314 39.4548 123.751 39.2361 123.125 37.2682C121.77 37.4869 120.623 37.5962 119.477 37.9242C116.454 38.7988 113.431 38.3615 110.408 38.4708C109.261 38.5802 108.427 37.8149 108.219 36.6123C108.114 35.847 108.219 34.9724 108.114 34.2071C108.114 33.0045 108.01 31.8019 108.01 30.5993C108.01 29.9433 107.802 29.2873 107.697 28.6314C107.176 23.6023 108.948 21.6344 113.535 21.7438C116.141 21.8531 118.851 21.9624 121.457 22.0717C121.978 22.0717 122.395 22.0717 122.917 22.0717C122.917 19.7759 122.708 19.4479 121.457 19.3386C120.936 19.2292 120.415 19.2292 119.894 19.3386C117.288 19.5572 114.786 19.2292 112.284 18.6826C109.991 18.136 107.697 18.136 105.404 18.5733C104.987 18.4639 104.57 18.6826 104.049 18.9013Z" fill="#1CBB6F"/>
<path fill-rule="evenodd" clip-rule="evenodd" d="M51.826 65.8036C51.826 65.5849 51.7218 65.2569 51.7218 65.0383C51.4091 61.7585 52.4515 58.916 55.0575 57.0574C57.5593 55.1988 60.2696 55.3082 62.9799 56.7294C66.0029 58.3693 67.1496 61.2118 67.6708 64.4917C67.8793 65.9129 67.4623 67.1155 66.3156 67.9901C65.3775 68.8647 64.5435 69.8487 63.5011 70.7233C60.4781 73.4565 53.4939 73.4565 52.0345 67.0062C52.0345 66.5689 51.9303 66.1316 51.826 65.8036ZM60.9993 66.3502C61.2078 66.2409 61.4163 66.0222 61.5205 65.8036C62.2502 64.273 61.4163 61.7585 59.8527 60.9932C58.8102 60.5559 57.872 60.5559 56.9339 61.3212C56.0999 61.9771 56.1 62.8517 56.2042 63.8357C56.2042 64.0543 56.3084 64.3823 56.3084 64.3823C56.8296 67.0062 59.0187 67.7715 60.9993 66.3502Z" fill="#FFB63B"/>
<path fill-rule="evenodd" clip-rule="evenodd" d="M70.9021 55.6368C71.6318 53.7782 72.8827 52.9036 74.8633 52.5756C77.2609 52.1383 79.033 53.3409 80.9093 54.3248C82.1602 54.9808 82.8899 56.0741 83.2027 57.386C83.6196 59.6819 84.0366 62.0871 84.2451 64.4923C84.4536 67.1161 83.0984 68.9747 80.7009 69.412C78.616 69.74 76.4269 69.74 74.2379 69.74C73.9251 69.74 73.5082 69.5213 73.1954 69.3027C71.1106 68.3187 70.2767 66.4602 70.2767 64.4923C69.7555 61.3218 69.7554 58.4793 70.9021 55.6368ZM79.6584 59.5726C79.2415 57.714 78.616 57.058 77.2609 57.1674C75.2803 57.386 74.2379 58.4793 74.3421 60.5565C74.4463 62.8524 76.4269 64.2736 78.5118 63.6177C79.3457 63.399 79.7627 62.743 79.8669 61.8684C79.8669 61.3218 79.8669 60.7752 79.8669 60.8845C79.7627 60.1192 79.7627 59.9005 79.6584 59.5726Z" fill="#FFB63B"/>
<path fill-rule="evenodd" clip-rule="evenodd" d="M120.105 51.8091C120.105 51.6998 120.313 51.6998 120.418 51.5904C123.024 50.1692 126.359 50.8251 128.027 53.2303C129.07 54.7609 129.904 56.4008 130.633 58.0407C131.155 59.134 131.467 60.4459 130.842 61.5392C130.216 62.6325 129.383 63.6164 128.549 64.6004C127.193 66.131 125.421 66.8962 123.336 66.131C122.398 65.803 121.356 65.475 120.418 65.147C118.437 64.4911 117.082 63.1791 117.186 60.8833C116.04 57.1661 118.75 54.7609 120.105 51.8091ZM124.379 60.6646C125.421 60.4459 126.151 59.462 125.943 58.3687C125.734 57.1661 124.692 56.2915 123.545 56.2915C122.607 56.2915 121.981 57.3848 122.19 58.5874C122.294 60.118 123.128 60.8832 124.379 60.6646Z" fill="#FFB63B"/>
<path fill-rule="evenodd" clip-rule="evenodd" d="M122.815 24.5852C121.043 24.3666 119.375 23.9293 117.812 24.1479C115.414 24.5852 113.016 23.3826 110.619 24.6946C109.055 28.0837 111.036 31.3635 110.619 34.862C114.893 35.9553 118.854 34.862 122.919 33.8781C123.336 30.8169 123.232 27.8651 122.815 24.5852Z" fill="#DFE7EB"/>
<path fill-rule="evenodd" clip-rule="evenodd" d="M87.2702 61.7598C89.6678 61.6505 91.9611 61.8692 94.1502 61.4319C100.196 60.3386 106.242 60.3386 112.392 60.4479C112.601 60.4479 112.914 60.3386 113.435 60.1199C113.539 59.2453 113.748 58.2614 113.956 57.0588C109.891 56.7308 106.242 54.8722 102.177 55.9655C101.551 56.0748 100.926 56.1841 100.3 56.0748C96.4435 55.5282 92.6908 56.5121 88.9381 57.0588C86.749 57.3867 86.1235 58.3707 86.8532 60.6666C86.8532 60.8852 86.9575 61.1039 87.2702 61.7598Z" fill="#DFE7EB"/>
<path fill-rule="evenodd" clip-rule="evenodd" d="M139.805 57.385C137.72 57.385 135.948 57.9316 133.864 58.2596C133.759 59.2436 133.655 60.2275 133.551 61.4301C135.323 61.5395 136.782 61.6488 138.242 61.7581C139.493 60.5555 140.222 59.2436 139.805 57.385Z" fill="#DFE7EB"/>
<path fill-rule="evenodd" clip-rule="evenodd" d="M140.64 44.0476C139.076 43.3916 137.825 42.845 136.366 42.2983C135.115 43.6103 135.845 45.0315 136.157 46.3434C136.366 47.2181 136.991 47.546 137.825 47.7647C138.868 47.9834 139.493 47.7647 139.91 46.6714C140.223 45.9061 140.327 45.1408 140.64 44.0476Z" fill="#FFB63B"/>
<path fill-rule="evenodd" clip-rule="evenodd" d="M67.7755 72.6896C65.8991 75.3134 63.0846 75.7507 60.2701 75.9694C59.0192 76.0787 57.7683 75.8601 56.4131 75.8601C54.1198 75.8601 52.5562 74.5481 51.3053 72.7989C50.5756 71.815 49.9501 70.831 49.6374 69.7377C48.9077 67.4419 48.3865 65.146 46.3017 63.7247C45.6762 63.2874 45.572 62.0848 45.4677 61.1009C44.738 56.6185 44.1126 52.136 43.9041 47.5443C43.7999 43.7178 43.5914 39.7821 43.1744 35.9556C42.549 30.9266 41.715 25.8975 40.8811 20.8684C40.7769 19.9938 40.2556 19.1192 40.1514 18.2446C39.6302 15.5114 39.0047 12.7782 38.5878 10.045C38.4835 9.60774 38.5878 8.95178 38.7963 8.51447C39.9429 6.21859 41.4023 4.2507 44.1126 3.70407C49.8459 2.72012 55.6834 1.40819 61.521 0.861558C72.9876 -0.341042 84.4542 -0.122387 95.8166 0.533577C98.3184 0.642904 100.82 1.18954 103.113 2.06416C105.407 6.32792 103.635 10.5917 103.843 14.9648C104.573 14.9648 105.407 14.8554 106.137 14.8554C108.43 14.8554 110.723 14.7461 113.016 15.0741C115.518 15.4021 118.02 15.6207 120.626 15.7301C126.151 15.8394 125.63 16.058 126.464 20.8684C126.568 21.3058 126.568 21.6337 126.568 22.071C126.568 26.1162 126.464 30.0519 126.359 34.097C126.359 34.753 126.568 35.2996 126.672 35.9556C127.298 36.1743 127.819 36.2836 128.34 36.3929C132.718 37.7048 137.096 39.0168 141.579 40.2194C142.934 40.6567 143.872 41.422 143.976 42.9526C143.976 43.8272 144.081 44.8111 143.872 45.6857C143.664 46.8883 143.142 47.9816 142.725 49.0749C141.996 51.3708 141.37 53.6666 142.413 56.0718C142.621 56.6185 142.725 57.3838 142.725 58.0397C142.725 60.0076 142.1 61.7568 140.849 63.1781C139.702 64.49 138.139 64.3807 136.575 64.162C135.637 64.0527 134.595 64.2714 133.656 64.3807C133.239 65.0367 132.927 65.474 132.718 65.9113C132.093 67.3325 131.05 68.2072 129.591 68.5351C128.757 68.6445 127.923 69.0818 126.985 69.3004C122.711 70.2844 116.769 69.0818 114.059 63.0688C110.619 63.0688 107.075 63.0688 103.53 63.1781C101.654 63.1781 99.7777 63.1781 97.7972 63.3968C94.7741 63.7247 91.8554 64.7087 88.7281 64.162C88.5196 65.0367 88.4154 65.6926 88.2069 66.3486C86.539 71.159 83.4118 73.2362 78.9294 73.1269C77.3657 73.0176 75.8021 73.4549 74.3427 73.1269C72.7791 72.7989 71.2155 72.0336 69.6519 71.3776C68.9222 71.7056 68.1925 72.0336 67.7755 72.6896ZM50.6798 57.0558C53.7028 52.464 59.9573 51.0428 64.6482 53.8853C65.5864 54.4319 66.6289 54.9786 67.6713 55.5252C67.984 54.8692 68.2967 54.3226 68.5052 53.8853C70.1731 50.2775 73.1961 49.2935 76.7403 49.2935C77.3657 49.2935 77.9912 49.5122 78.5124 49.8402C80.91 51.2614 83.3075 52.9013 86.0178 54.6506C89.979 53.9946 94.3572 53.2293 98.8396 52.464C99.6735 50.8241 99.465 49.0749 99.5692 47.435C99.6735 45.3578 99.6735 43.1712 99.882 41.094C100.195 37.9235 100.195 34.753 100.09 31.4732C99.9862 26.2255 100.09 21.0871 100.403 15.8394C100.612 12.1223 100.195 8.6238 99.5692 5.12532C99.3608 3.8134 98.8396 3.48541 97.3802 3.48541C88.4154 3.48541 79.5548 3.37609 70.59 3.59474C66.5246 3.70407 62.4592 4.14138 58.3937 4.68801C54.4325 5.23465 50.5756 5.99994 46.7187 6.6559C45.8847 6.76523 44.9465 6.87456 44.1126 7.20254C42.4447 7.74918 41.4023 9.38908 41.6108 11.2476C41.9235 13.4342 42.0278 15.7301 43.0702 17.8073C43.5914 18.9006 43.6956 20.1032 43.9041 21.3058C44.6338 25.7882 45.3635 30.2706 45.9889 34.753C46.1974 36.2836 46.1974 37.9235 46.4059 39.5634C46.5101 40.8753 46.6144 42.1873 46.7187 43.4992C46.9271 45.9044 47.2399 48.3096 47.3441 50.7148C47.4483 53.6666 48.178 56.5091 48.4907 59.3516C49.9501 58.9143 50.1586 57.8211 50.6798 57.0558ZM104.052 35.8463C103.947 41.3126 103.009 46.6697 103.53 52.0267C105.511 53.3387 107.596 52.6827 109.576 52.9013C111.453 53.12 113.329 53.776 115.414 52.9013C115.623 52.6827 116.039 52.3547 116.248 51.9174C118.02 48.6376 120.939 48.0909 124.066 47.9816C126.255 47.8723 127.923 49.2935 129.487 50.7148C130.008 51.1521 130.425 51.6987 130.738 52.2454C131.884 54.4319 133.656 54.9786 135.95 54.5412C137.93 54.1039 138.035 54.1039 138.347 51.1521C137.513 50.8241 136.784 50.6055 135.95 50.2775C134.595 49.7308 133.865 48.7469 133.761 47.3256C133.656 45.6857 133.761 43.9365 133.761 41.9686C131.78 40.766 129.174 40.5474 126.776 39.8914C125.317 39.5634 123.753 39.3448 123.128 37.3769C121.773 37.5955 120.626 37.7048 119.479 38.0328C116.456 38.9074 113.433 38.4701 110.41 38.5795C109.264 38.6888 108.43 37.9235 108.221 36.7209C108.117 35.9556 108.221 35.081 108.117 34.3157C108.117 33.1131 108.013 31.9105 108.013 30.7079C108.013 30.0519 107.804 29.396 107.7 28.74C107.179 23.711 108.951 21.7431 113.538 21.8524C116.144 21.9617 118.854 22.071 121.46 22.1804C121.981 22.1804 122.398 22.1804 122.919 22.1804C122.919 19.8845 122.711 19.5565 121.46 19.4472C120.939 19.3379 120.418 19.3379 119.896 19.4472C117.29 19.6658 114.789 19.3379 112.287 18.7912C109.993 18.2446 107.7 18.2446 105.407 18.6819C104.886 18.7912 104.469 19.0099 103.947 19.2285C104.052 24.5856 104.156 30.2706 104.052 35.8463ZM52.035 66.8952C53.4944 73.4549 60.4786 73.4549 63.5016 70.6124C64.4398 69.7377 65.2737 68.7538 66.3161 67.8792C67.4628 66.8952 67.8798 65.6926 67.6713 64.3807C67.1501 61.1009 65.8992 58.2584 62.9804 56.6185C60.2701 55.0879 57.5598 55.0879 55.058 56.9465C52.452 58.9143 51.4095 61.6475 51.7222 64.9273C51.7222 65.146 51.8265 65.474 51.8265 65.6926C51.8265 65.6926 51.8265 65.6926 51.9307 65.6926C51.9307 66.1299 52.035 66.5673 52.035 66.8952ZM73.0918 69.4098C73.4045 69.6284 73.8215 69.8471 74.1342 69.8471C76.3233 69.7377 78.5124 69.8471 80.5972 69.5191C82.8906 69.0818 84.2457 67.2232 84.1415 64.5994C84.0372 62.1942 83.6203 59.8983 83.099 57.4931C82.8906 56.1812 82.0566 55.0879 80.8057 54.4319C78.9294 53.448 77.1573 52.2454 74.7597 52.6827C72.7791 53.0107 71.5282 53.8853 70.7985 55.7438C69.6519 58.5864 69.6519 61.4289 70.1731 64.7087C70.1731 66.5673 71.1112 68.4258 73.0918 69.4098ZM120.313 65.2553C121.252 65.5833 122.294 65.9113 123.232 66.2393C125.317 67.0046 126.985 66.2393 128.444 64.7087C129.278 63.7247 130.112 62.7408 130.738 61.6475C131.363 60.5542 131.05 59.2423 130.529 58.1491C129.799 56.5091 128.861 54.8692 127.923 53.3386C126.255 50.9334 123.024 50.2775 120.313 51.6987C120.209 51.8081 120.001 51.8081 120.001 51.9174C118.75 54.8692 116.039 57.1651 116.978 61.1009C117.082 63.1781 118.333 64.49 120.313 65.2553ZM117.812 24.1483C115.414 24.5856 113.016 23.383 110.619 24.6949C109.055 28.084 111.036 31.3639 110.619 34.8623C114.893 35.9556 118.854 34.8623 122.919 33.8784C123.441 30.8172 123.336 27.7561 122.919 24.5856C121.043 24.3669 119.375 23.9296 117.812 24.1483ZM94.1487 61.4289C100.195 60.3356 106.241 60.3356 112.391 60.4449C112.6 60.4449 112.912 60.3356 113.433 60.1169C113.538 59.2423 113.746 58.2584 113.955 57.0558C109.889 56.7278 106.241 54.8692 102.175 55.9625C101.55 56.0718 100.924 56.1812 100.299 56.0718C96.442 55.5252 92.6893 56.5091 88.9366 57.0558C86.7475 57.3838 86.1221 58.3677 86.8518 60.6636C86.956 60.8822 87.0602 61.1009 87.373 61.8662C89.6663 61.7569 91.9596 61.8662 94.1487 61.4289ZM133.761 58.2584C133.656 59.2423 133.552 60.2263 133.448 61.4289C135.22 61.5382 136.679 61.6475 138.139 61.7568C139.39 60.5542 140.119 59.3516 139.702 57.3838C137.722 57.3838 135.95 57.9304 133.761 58.2584ZM136.367 42.2966C135.116 43.6085 135.845 45.0298 136.158 46.3417C136.367 47.2163 136.992 47.5443 137.826 47.763C138.868 47.9816 139.494 47.763 139.911 46.6697C140.224 45.9044 140.328 45.1391 140.641 44.0458C138.973 43.3899 137.722 42.8432 136.367 42.2966Z" fill="#192C32"/>
<path fill-rule="evenodd" clip-rule="evenodd" d="M37.6474 37.5982C37.1262 37.2702 36.8135 36.9422 36.5008 36.9422C32.3311 36.6143 28.1614 36.6143 23.9917 37.2702C20.7602 37.8169 17.5288 38.4728 14.2973 39.6754C12.0039 40.55 9.60637 41.0967 7.31305 41.7526C5.85366 42.19 4.3943 42.6273 2.93491 43.2832C1.89249 43.7205 0.954303 44.4858 0.120368 45.3604C-0.0881156 45.5791 0.0161263 46.3444 0.120368 46.7817C0.22461 47.1097 0.745813 47.3283 1.05854 47.3283C1.68399 47.3283 2.30945 47.1097 2.83066 46.7817C4.9155 45.6884 7.10459 45.0325 9.29367 44.4858C11.4827 43.9392 13.6718 43.1739 15.8609 42.4086C21.49 40.4407 27.2233 39.4568 33.0608 39.0195C34.7287 38.9101 36.188 38.4728 37.6474 37.5982Z" fill="#192C32"/>
<path fill-rule="evenodd" clip-rule="evenodd" d="M23.7823 48.9667C20.8635 49.5134 18.049 49.9507 15.1302 50.4973C13.9835 50.716 12.8369 51.0439 12.3157 52.2465C12.1072 52.6839 12.2114 53.2305 12.3157 53.6678C12.4199 53.8865 13.0454 54.2144 13.2539 54.1051C19.8211 51.8092 26.7011 51.6999 33.2683 49.9507C33.998 49.732 34.8319 49.6227 34.9361 48.6387C35.0404 47.9828 34.1022 47.6548 32.7471 47.7641C30.3495 48.0921 27.9519 48.4201 25.5544 48.7481C25.0332 48.8574 24.4077 48.9667 23.7823 48.9667C23.7823 49.0761 23.7823 49.0761 23.7823 48.9667Z" fill="#192C32"/>
<path fill-rule="evenodd" clip-rule="evenodd" d="M35.664 56.6164C34.9343 56.2884 34.6216 55.9604 34.3089 55.9604C27.5332 56.2884 20.8617 57.491 14.6072 60.1149C13.8775 60.4429 13.252 61.3175 12.7308 61.9734C12.5223 62.1921 12.6266 62.8481 12.8351 63.0667C13.0436 63.2854 13.5648 63.504 13.8775 63.3947C15.0242 62.9574 16.1708 62.3014 17.3175 61.8641C21.0702 60.3335 24.9271 59.6776 28.7841 59.0216C31.0774 58.475 33.3707 58.2563 35.664 56.6164Z" fill="#192C32"/>
<path fill-rule="evenodd" clip-rule="evenodd" d="M80.2806 12.123C79.8636 12.3417 79.2382 12.451 79.134 12.8883C78.8212 13.8723 78.4043 14.8562 78.5085 15.9495C78.5085 22.2905 78.6127 28.7408 78.717 35.0818C78.8212 38.0336 79.0297 40.8761 79.2382 43.828C79.2382 44.5933 79.7594 45.0306 80.4891 45.1399C81.2188 45.2492 82.157 44.8119 82.2612 44.0466C82.3655 43.3906 82.4697 42.7347 82.3654 42.0787C81.4273 35.6284 81.5315 29.0688 81.4273 22.5091C81.4273 19.3386 81.1145 16.1682 80.9061 12.9977C80.6976 12.779 80.4891 12.5604 80.2806 12.123Z" fill="#192C32"/>
<path fill-rule="evenodd" clip-rule="evenodd" d="M68.608 11.9038C68.5038 12.9971 68.2953 13.8717 68.3995 14.5277C68.9207 18.2448 68.3995 21.9619 68.7122 25.679C69.025 30.4894 68.8165 35.2998 69.5462 40.0009C69.6504 40.8755 69.5462 41.8595 69.5462 42.7341C69.5462 43.3901 69.5462 44.046 69.7547 44.702C69.9631 45.1393 70.3801 45.5766 70.9013 45.6859C71.631 45.9046 72.2565 45.3579 72.3607 44.702C72.5692 43.1714 72.7777 41.5315 72.6734 39.8916C72.3607 34.9719 71.7353 30.0521 71.3183 25.1324C71.2141 23.7112 71.2141 22.1806 71.3183 20.7593C71.4225 17.9168 70.7971 15.1836 69.8589 12.5598C69.6504 12.4504 69.3377 12.3411 68.608 11.9038Z" fill="#192C32"/>
<path fill-rule="evenodd" clip-rule="evenodd" d="M56.8281 17.2625C57.1409 19.8864 57.4536 22.5102 57.6621 25.1341C57.8706 27.4299 57.8705 29.6165 57.9748 31.9124C58.079 33.6616 58.1833 35.4108 58.3918 37.0507C58.7045 39.4559 59.0172 41.7518 59.4342 44.157C59.5384 44.813 59.7469 45.4689 59.9554 46.0156C60.0596 46.3436 60.5809 46.6715 60.8936 46.5622C61.3105 46.4529 61.8317 46.1249 62.0402 45.6876C62.2487 45.141 62.353 44.3757 62.2487 43.7197C61.936 41.3145 61.4148 39.0186 61.102 36.6134C60.7893 34.6455 60.7893 32.6777 60.4766 30.7098C59.7469 26.3367 59.0172 22.0729 58.1833 17.6998C58.079 17.3718 57.7663 17.1532 57.5578 16.8252C57.2451 17.1532 57.0366 17.1532 56.8281 17.2625Z" fill="#192C32"/>
<path fill-rule="evenodd" clip-rule="evenodd" d="M48.9063 14.5256C48.9063 15.7282 48.9062 16.2749 49.0105 16.7122C50.1571 25.8957 51.408 35.1885 52.6589 44.372C52.7632 45.2466 52.9717 46.2305 53.1801 47.1052C53.3886 47.7611 53.9099 48.3078 54.6396 47.9798C55.0565 47.7611 55.4735 47.3238 55.4735 46.8865C55.5777 46.0119 55.4735 45.0279 55.265 44.1533C53.7013 35.4071 52.1377 26.661 50.4699 17.9148C50.2614 16.9308 50.2614 15.8376 48.9063 14.5256Z" fill="#192C32"/>
<path fill-rule="evenodd" clip-rule="evenodd" d="M88.5159 46.4506C89.1413 45.9039 89.7668 45.576 89.871 45.248C90.1837 43.9361 90.3922 42.6241 90.3922 41.3122C90.4965 38.0324 90.6007 34.6432 90.7049 31.3634C90.7049 30.7075 90.7049 30.0515 90.9134 29.3955C91.6431 26.553 91.4346 23.6012 91.3304 20.6493C91.2261 19.0094 91.3304 17.4789 91.2261 15.8389C91.1219 14.7457 91.2261 13.4337 90.288 12.6685C90.0795 12.6685 89.871 12.6685 89.7668 12.7778C89.6625 12.8871 89.6625 12.9964 89.6625 13.1058C89.5583 15.8389 89.3498 18.6815 89.454 21.4146C89.5583 23.9292 89.2456 26.4437 88.9328 28.9582C88.5159 32.4567 88.5159 36.0645 88.3074 39.6723C88.2031 41.0935 88.2031 42.6241 88.2031 44.0454C88.2031 44.8107 88.4116 45.4666 88.5159 46.4506Z" fill="#192C32"/>
<path fill-rule="evenodd" clip-rule="evenodd" d="M56.3078 64.3809C56.829 67.0048 59.0181 67.8794 60.9987 66.3488C61.2072 66.2395 61.4157 66.0208 61.5199 65.8022C62.2496 64.2716 61.4157 61.7571 59.8521 60.9918C58.8096 60.5545 57.8714 60.5545 56.9333 61.3197C56.0993 61.9757 56.0994 62.8503 56.2036 63.8343C56.2036 64.0529 56.3078 64.2716 56.3078 64.3809Z" fill="#192C32"/>
<path fill-rule="evenodd" clip-rule="evenodd" d="M79.8679 60.8805C79.7636 60.1153 79.7636 59.7873 79.6594 59.5686C79.2424 57.71 78.617 57.0541 77.2618 57.1634C75.2812 57.3821 74.2388 58.4753 74.3431 60.5526C74.4473 62.8484 76.4279 64.2697 78.5127 63.6137C79.3467 63.3951 79.7636 62.7391 79.8679 61.8645C79.9721 61.4272 79.8679 60.8805 79.8679 60.8805Z" fill="#192C32"/>
<path fill-rule="evenodd" clip-rule="evenodd" d="M122.083 58.5871C122.291 60.0083 123.23 60.7736 124.376 60.555C125.419 60.3363 126.148 59.3524 125.94 58.2591C125.731 57.0565 124.689 56.1819 123.542 56.1819C122.5 56.2912 121.874 57.3845 122.083 58.5871Z" fill="#192C32"/>
</svg>
