<svg width="100%" height="100%" viewBox="0 0 108 128" fill="none" xmlns="http://www.w3.org/2000/svg">
<path fill-rule="evenodd" clip-rule="evenodd" d="M14.3892 78.7177C13.5843 76.6472 13.2825 74.5767 12.9806 72.5062C12.5782 69.154 12.1757 65.8017 11.8739 62.4495C11.8739 62.2523 11.7733 61.9565 11.7733 61.7593C11.4714 54.3647 10.0628 47.0686 9.8616 39.674C9.76099 34.6456 9.35853 29.7159 9.05669 24.6875C8.95608 22.617 8.95608 20.5465 8.85547 18.3774C8.85547 17.8845 8.95609 17.3915 8.95609 16.7999C10.8677 16.2083 12.88 15.6168 14.8923 15.7154C16.4015 18.3774 15.496 18.6732 19.6211 18.5746C21.0297 18.5746 22.3377 18.1803 23.7463 17.9831C24.9536 17.7859 26.161 17.6873 27.3684 17.5887C29.6825 17.4901 31.9966 17.6873 34.3107 17.4901C38.0334 17.1943 41.6555 16.9971 45.2776 16.1098C46.1831 15.9126 46.988 15.6168 47.3904 14.5322C50.107 14.7294 52.8236 13.8421 55.5402 15.1238C55.6408 15.7154 55.7414 16.4055 55.7414 16.9971C55.842 19.8564 55.9426 22.617 55.842 25.4763C55.842 30.0117 56.5463 34.4485 57.15 38.8852C57.7536 43.4206 58.3573 47.956 58.3573 52.59C58.3573 58.0127 58.8604 63.3368 59.0616 68.7596C59.1622 70.6329 59.0616 72.4076 59.0616 74.2809C57.3512 75.0697 55.6408 76.0556 53.6285 76.2528C53.1254 76.3514 52.6224 76.5486 52.2199 76.5486C49.0003 76.45 45.8813 76.943 42.6616 77.2388C42.4604 77.2388 42.1586 77.2388 41.9573 77.2388C39.1401 77.9289 36.2224 77.5345 33.4052 77.7317C29.5819 77.9289 25.6579 78.2247 21.8346 78.5205C19.923 78.6191 18.1119 78.8163 16.2003 78.9149C15.5966 78.9149 14.9929 78.8163 14.3892 78.7177ZM24.9536 58.7029C25.8592 59.2944 26.7647 59.1958 27.5696 58.8015C27.972 58.6043 28.4751 58.3085 28.8776 58.2099C30.1855 57.8155 31.5941 57.6183 33.0027 57.7169C34.5119 57.8155 36.1217 57.9141 37.6309 57.7169C39.7438 57.4211 41.7561 56.8296 43.869 56.9282C44.2714 56.9282 44.6739 56.9282 45.0763 56.8296C46.2837 56.4352 47.3905 56.4352 48.6984 56.8296C49.5033 57.0267 50.5095 56.8296 51.3144 56.6324C51.6162 56.6324 51.8174 56.3366 52.2199 56.0408C51.7168 55.745 51.5156 55.5478 51.2138 55.5478C50.2076 55.3506 49.1009 55.1534 48.0947 54.9563C47.4911 54.8577 46.7868 54.8577 46.1831 55.0548C45.0763 55.3506 43.869 55.3506 42.7622 55.3506C41.7561 55.3506 40.8506 55.4492 39.8444 55.6464C37.3291 56.1394 34.8138 56.5338 32.2984 56.4352C30.9904 56.3366 29.6825 56.6324 28.4751 57.0267C27.3684 57.3225 26.2616 57.8155 25.0543 58.3085C25.0543 58.3085 25.0542 58.4071 24.9536 58.7029ZM27.3684 48.5476C27.972 48.6462 28.4751 48.9419 28.6763 48.7448C29.4812 48.449 30.2862 48.5476 31.0911 48.5476C33.1033 48.5476 35.015 48.5476 37.0273 48.5476C37.5303 48.5476 38.0334 48.5476 38.4359 48.3504C39.5426 47.956 40.6493 47.956 41.8567 47.956C42.561 47.956 43.1647 48.0546 43.7684 47.8574C45.68 47.3644 47.5917 46.8714 49.6039 46.97C49.8052 46.97 49.9058 46.97 50.107 46.8714C50.3082 46.7729 50.6101 46.4771 50.6101 46.3785C50.5095 46.0827 50.3082 45.7869 50.107 45.6883C48.799 45.5897 47.4911 45.3925 46.1831 45.8855C44.372 46.4771 42.561 46.7729 40.6493 46.6743C40.0457 46.6743 39.442 46.5757 38.9389 46.7729C37.8322 47.1672 36.7254 47.0686 35.5181 47.0686C34.1095 47.0686 32.7009 46.97 31.2923 47.0686C30.2862 47.1672 29.1794 47.3644 28.1733 47.6602C27.972 47.8574 27.7708 48.1532 27.3684 48.5476ZM53.0248 67.2806C52.723 66.9849 52.6224 66.6891 52.4211 66.6891C50.9119 66.6891 49.3021 66.6891 47.7929 66.6891C46.988 66.6891 46.1831 66.8863 45.3782 66.9849C43.9696 67.0835 42.561 66.6891 41.253 66.6891C39.3414 66.5905 37.3291 66.8863 35.4174 67.0835C33.5058 67.3792 31.4935 67.675 29.5819 67.3792C28.8776 67.2807 28.0727 67.4778 27.3684 67.5764C27.1671 67.5764 26.9659 67.8722 26.9659 68.0694C26.9659 68.2666 27.0665 68.5624 27.2677 68.661C27.6702 68.8582 28.0727 68.8582 28.4751 68.9568C30.7892 68.9568 33.1033 68.5624 35.3168 67.9708C37.5303 67.3792 39.6432 67.3792 41.8567 68.0694C42.561 68.2666 43.2653 68.3652 44.0702 68.3652C46.7868 68.661 49.4027 67.7736 52.1193 67.7736C52.2199 67.8722 52.6224 67.4778 53.0248 67.2806ZM37.8322 28.1384C37.4297 27.8426 37.2285 27.6454 37.0273 27.6454C33.9082 27.1524 30.6886 27.0538 27.469 27.3496C26.4628 27.4482 25.5573 27.6454 24.5512 27.8426C24.35 27.9412 24.0481 28.237 24.0481 28.5327C24.0481 28.7299 24.35 29.2229 24.5512 29.2229C25.4567 29.3215 26.3622 29.4201 27.1671 29.2229C28.1733 28.9271 29.28 28.9271 30.2862 28.9271C31.7954 28.9271 33.2039 28.9271 34.7131 28.8285C35.8199 28.8285 36.7254 28.7299 37.8322 28.1384ZM51.415 71.3231C51.2138 70.6329 50.7107 70.6329 50.2076 70.6329C49.1009 70.5343 47.8935 70.7315 46.7868 70.5343C44.7745 70.0413 42.7622 70.2385 40.6493 70.4357C39.1401 70.6329 37.5303 70.6329 36.0211 70.6329C35.3168 70.6329 34.5119 70.5343 33.8076 70.6329C33.4052 70.6329 33.0027 70.8301 33.2039 71.6188C35.518 71.5202 37.9328 71.7174 40.2469 71.3231C42.2592 71.0273 44.2714 70.9287 46.3843 71.4216C47.9941 71.7174 49.7046 71.6188 51.415 71.3231ZM48.799 26.9552C47.8935 26.2651 46.988 26.1665 46.0825 26.3637C43.9696 26.758 41.9573 27.3496 39.8444 27.1524C39.7438 27.1524 39.6432 27.1524 39.6432 27.251C39.442 27.4482 39.1401 27.744 39.1401 27.9412C39.1401 28.237 39.3414 28.5327 39.6432 28.6313C40.0457 28.8285 40.5487 28.8285 41.0518 28.9271C43.5671 29.0257 45.9819 28.3356 48.3966 27.5468C48.4972 27.4482 48.5978 27.251 48.799 26.9552ZM39.1401 37.1105C39.1401 37.3077 39.1401 37.4063 39.1401 37.6035C42.1586 37.8993 45.1769 37.6035 48.0947 37.6035C48.1954 37.6035 48.3966 37.5049 48.4972 37.4063C48.6984 37.2091 48.799 37.0119 48.799 36.8147C48.799 36.6175 48.5978 36.3218 48.3966 36.3218C47.1892 35.9274 45.8812 35.9274 44.7745 36.3218C43.1647 36.9133 41.5549 36.8147 39.9451 36.9133C39.8444 36.8147 39.442 37.0119 39.1401 37.1105ZM25.2555 37.0119C25.5573 37.6035 25.6579 37.9979 25.8592 38.1951C26.0604 38.3923 26.4628 38.3923 26.7647 38.3923C29.1794 38.0965 31.5941 37.8993 34.1095 37.6035C34.3107 37.6035 34.5119 37.4063 34.9144 37.2091C34.6125 37.0119 34.3107 36.7161 34.0089 36.7161C32.9021 36.7161 31.896 36.7161 30.7892 36.7161C29.6825 36.7161 28.6763 36.9133 27.5696 36.9133C26.9659 37.1105 26.3622 37.0119 25.2555 37.0119ZM15.2947 27.8426C14.8923 29.4201 15.0935 29.8145 16.2003 29.8145C16.9046 29.8145 17.6089 29.7159 18.3131 29.5187C18.5144 29.5187 18.7156 29.1243 18.7156 29.0257C18.7156 28.8285 18.5144 28.5327 18.3131 28.5327C17.8101 28.4341 17.307 28.4341 16.9046 28.3356C16.3009 28.237 15.8984 28.0398 15.2947 27.8426ZM21.2309 58.1113C21.2309 57.9141 21.2309 57.8155 21.1303 57.7169C20.6272 57.1253 19.923 56.8296 19.118 57.1253C18.8162 57.2239 18.5144 57.6183 18.4138 58.0127C18.3131 58.2099 18.5144 58.7029 18.7156 58.8015C19.4199 59.393 20.5266 59.0972 21.1303 58.3085C21.1303 58.3085 21.2309 58.2099 21.2309 58.1113ZM16.9046 36.7161C16.7033 36.9133 16.4015 37.1105 16.4015 37.4063C16.3009 37.7021 16.4015 37.9979 16.5021 38.2937C16.8039 38.7866 17.5082 38.8852 18.2125 38.4909C18.4138 38.3923 18.7156 37.9979 18.7156 37.8007C18.7156 37.2091 18.1119 37.1105 17.7095 36.9133C17.5082 36.8147 17.2064 36.7161 16.9046 36.7161ZM19.3193 47.8574C19.2187 47.3644 18.615 46.97 18.0113 47.1672C17.6089 47.2658 17.307 47.5616 17.307 48.0546C17.307 48.5476 17.8101 48.8433 18.4138 48.8433C19.0174 48.6462 19.4199 48.2518 19.3193 47.8574Z" fill="#DFE7EB"/>
<path fill-rule="evenodd" clip-rule="evenodd" d="M47.1886 12.462C46.6855 11.2789 46.6855 11.2789 46.7861 9.89853C47.1886 9.79994 47.6916 9.70134 48.0941 9.70134C51.4143 9.60275 54.8352 9.50415 58.1554 9.50415C58.8597 9.50415 59.6646 9.50415 60.3689 9.60274C61.6769 9.79994 61.9788 10.2929 62.18 11.4761C62.3812 13.9409 62.5824 16.4058 62.7837 18.9693C63.1861 23.899 63.6892 28.9274 63.991 33.8572C64.1923 37.1108 64.8966 40.3644 64.5947 43.7167C64.5947 44.0125 64.5947 44.4068 64.5947 44.7026C65.299 47.7591 64.9972 50.8155 65.0978 53.872C65.0978 55.2523 65.299 56.6326 65.3996 57.9144C65.5002 58.9989 65.5002 59.9849 65.5002 61.0694C65.5002 63.0413 65.5002 65.1118 65.5002 67.0837C65.5002 67.6753 65.3996 68.2669 65.6008 68.7598C66.3051 71.4219 65.9027 74.1826 66.0033 76.9433C66.0033 78.1264 66.1039 79.3095 66.3051 80.4927C66.5064 82.1688 65.8021 83.2533 64.0916 83.7463C61.6769 84.3379 59.2622 84.6337 56.7469 84.7323C51.2131 85.0281 45.78 85.8168 40.3469 86.6056C40.045 86.6056 39.7432 86.7042 39.3407 86.7042C35.4168 86.9014 31.4929 87.1971 27.5689 87.3943C26.764 87.3943 25.9591 87.4929 25.1542 87.5915C21.9346 87.9859 18.6143 88.3803 15.3947 88.6761C13.5836 88.8733 11.7726 88.6761 10.0622 88.6761C9.25726 87.7887 9.15666 86.8028 8.95543 85.9154C8.65359 84.8309 8.45237 83.7463 8.25114 82.6618C8.15053 82.2674 8.0499 81.873 8.0499 81.4786C8.0499 78.0278 6.94316 74.6756 6.64132 71.2247C6.64132 70.8303 6.44009 70.436 6.5407 70.0416C6.74193 65.6048 5.7358 61.2666 5.23274 56.8298C5.23274 56.4355 5.0315 56.0411 5.0315 55.6467C5.13211 52.3931 4.42782 49.238 3.92476 46.083C3.72353 44.7026 3.62291 43.2237 3.52229 41.7448C3.52229 41.5476 3.52229 41.2518 3.52229 41.0546C2.71739 36.815 3.11984 32.5754 3.01923 28.2372C3.01923 25.6738 3.01923 23.1103 3.01923 20.5468C3.01923 19.0679 3.01923 17.4904 2.61678 16.0114C2.41555 15.2227 2.61678 14.2367 2.61678 13.3494C4.12598 12.0676 5.7358 11.4761 7.74807 11.5746C9.25728 11.6732 10.6659 11.3775 12.1751 11.1803C13.2818 11.0817 14.288 10.9831 15.2941 10.7859C15.9984 11.6732 15.4953 12.5606 15.5959 13.5466C14.9922 13.6451 14.5898 13.7437 14.0867 13.8423C12.5775 14.1381 10.9677 14.3353 9.4585 14.7297C7.64746 15.1241 7.24501 15.6171 7.24501 17.3918C7.24501 19.9552 7.34562 22.5187 7.44623 25.0822C7.54684 26.7583 7.64746 28.4344 7.74807 30.1105C8.04991 36.5192 8.45237 43.0265 8.75421 49.4352C8.75421 50.0268 8.85482 50.5197 8.95543 51.1113C9.4585 53.872 9.65972 56.7312 9.86095 59.4919C10.0622 62.2526 10.4646 64.9146 10.8671 67.6753C10.9677 68.7598 11.1689 69.7458 11.1689 70.8304C11.2695 73.6896 11.8732 76.4503 12.5775 79.1123C12.98 80.5913 13.1812 80.6899 14.791 80.8871C17.5076 81.1828 20.2241 80.7885 22.9407 80.5913C27.5689 80.0983 32.2978 79.9011 37.0266 79.9997C39.0389 79.9997 41.1518 79.8025 43.164 79.4081C45.4781 78.9152 47.8929 78.718 50.3076 78.8166C52.9235 78.9152 55.3383 78.4222 57.8536 78.1264C58.3567 78.0278 58.8597 77.9292 59.2622 77.8306C60.872 77.3376 61.7775 76.2531 61.6769 74.577C61.6769 71.5205 61.5763 68.4641 61.3751 65.4076C61.1738 61.9568 60.872 58.5059 60.872 55.0551C60.872 49.5338 60.3689 44.1111 59.564 38.6883C58.5579 31.9839 58.0548 25.2794 58.1554 18.4763C58.1554 17.4904 58.1554 16.5044 58.1554 15.6171C58.1554 14.4339 57.5518 13.6451 56.3444 13.2508C55.4389 12.955 54.4327 12.7578 53.4266 12.6592C52.3199 12.5606 51.3137 12.6592 50.207 12.6592C49.1002 12.462 48.0941 12.462 47.1886 12.462Z" fill="#FFB63B"/>
<path fill-rule="evenodd" clip-rule="evenodd" d="M18.0098 16.1099C17.9092 15.6169 17.8086 15.2225 17.8086 14.8281C18.0098 12.3633 18.1104 9.89837 18.4123 7.4335C18.6135 5.75738 19.519 4.77143 21.2294 4.17985C24.5497 2.89812 27.8699 2.60233 31.3914 2.50374C31.9951 2.50374 32.5988 2.60233 33.1018 2.40514C35.3153 1.71498 37.6295 2.01076 39.9436 2.01076C40.8491 2.01076 41.7546 2.30655 42.5595 2.50374C43.2638 2.70093 43.6663 3.1939 43.6663 3.98266C43.6663 4.47564 43.7669 4.96862 43.8675 5.363C44.773 8.02507 45.1755 10.7857 44.5718 13.8422C44.2699 13.9408 43.8675 14.3352 43.465 14.4338C42.0565 14.6309 40.7485 14.8281 39.3399 14.9267C39.038 14.9267 38.6356 14.9267 38.3337 14.9267C35.1141 15.7155 31.7939 15.3211 28.4736 15.3211C26.1595 15.3211 23.8454 15.5183 21.6319 16.0113C20.5251 16.3071 19.4184 16.3071 18.0098 16.1099Z" fill="#507178"/>
<path fill-rule="evenodd" clip-rule="evenodd" d="M1.10675 10.5898C3.62209 10.1954 6.13743 9.70243 8.65277 9.60384C11.0675 9.50524 13.4822 9.01227 16.0982 8.61789C16.4 7.63193 16.8025 6.74458 17.0037 5.85722C17.4061 3.98391 18.5129 2.89937 20.3239 2.40639C21.0282 2.2092 21.7325 1.91342 22.4368 1.61763C23.0405 1.42044 23.6442 1.12465 24.3485 1.02606C26.4614 0.828868 28.5742 0.631678 30.6871 0.434488C31.7939 0.335893 32.8 0.138702 33.9068 0.138702C36.4221 0.040107 39.0381 -0.0584881 41.5534 0.040107C42.2577 0.040107 43.0626 0.335893 43.6663 0.730273C44.773 1.32184 45.6785 2.11061 45.7792 3.49094C45.8798 4.77268 46.1816 6.05441 46.4835 7.43474C46.8859 7.53334 47.4896 7.73053 47.9927 7.73053C50.0049 7.63194 52.1178 7.53334 54.1301 7.43474C54.4319 7.43474 54.8344 7.33615 55.1362 7.33615C57.6516 7.43475 60.1669 7.53334 62.7828 7.63194C63.0847 7.63194 63.6884 7.92772 63.789 8.22351C64.2921 9.30805 64.9963 10.294 64.9963 11.5757C65.097 13.942 65.4994 16.4069 65.7006 18.7732C65.7006 18.9704 65.7006 19.1676 65.8013 19.2662C67.0086 21.2381 66.7068 23.5058 66.908 25.5763C67.1092 27.8439 67.3104 30.013 67.9141 32.2807C68.1154 33.0695 68.1154 33.8582 68.1154 34.647C68.216 37.4077 68.216 40.2669 68.719 43.0276C69.1215 44.9009 68.8196 46.8728 68.9203 48.8447C68.9203 49.9293 69.1215 51.1124 69.2221 52.197C69.3227 52.8871 69.4233 53.6759 69.4233 54.366C69.4233 56.9295 69.4233 59.493 69.5239 62.0565C69.5239 63.4368 69.4233 64.8171 69.9264 66.0989C70.1276 66.4932 70.027 67.0848 70.027 67.5778C70.027 72.7048 70.027 77.9303 70.027 83.0572C70.027 84.0432 70.027 85.0291 69.3227 85.8179C69.0209 86.2123 68.6184 86.5081 68.216 86.7053C67.4111 87.0011 66.6062 87.1982 65.8013 87.2968C63.5878 87.494 61.3743 87.8884 59.2614 88.2828C59.0601 88.2828 58.9595 88.2828 58.7583 88.2828C55.8405 88.2828 53.0233 88.6772 50.2062 89.1701C49.9043 89.2687 49.5019 89.2687 49.2 89.1701C46.7853 89.0715 44.4712 89.5645 42.1571 89.9589C41.4528 90.0575 40.6479 90.0575 39.9436 90.0575C35.8184 90.0575 31.6933 90.0575 27.5681 90.0575C26.8638 90.0575 26.2601 89.9589 25.5558 90.0575C22.135 90.7477 18.7141 90.3533 15.1926 90.7477C13.7841 90.9449 12.3755 90.8463 10.9669 90.7477C10.4638 90.7477 9.96075 90.6491 9.45768 90.5505C6.33866 89.6631 6.43927 89.4659 6.03681 86.9025C5.83558 85.2263 5.53374 83.5502 5.53374 81.8741C5.53374 78.7191 4.62823 75.6626 4.22578 72.5076C4.12517 71.7188 3.92393 70.93 4.02454 70.1413C4.12515 66.1975 3.32025 62.2537 2.81718 58.4084C2.71657 57.6197 2.51534 56.8309 2.51534 56.0422C2.71657 52.5913 1.81105 49.3377 1.30798 45.9855C1.30798 45.6897 1.10675 45.3939 1.10675 44.9995C0.905528 42.0416 0.603681 39.0838 0.503068 36.1259C0.402454 32.9709 0.402454 29.8158 0.503068 26.6608C0.603681 23.3086 0.301841 19.9563 0 16.5055C0 14.7308 6.11697e-06 12.7589 1.10675 10.5898ZM14.3877 78.7191C14.9914 78.8176 15.4945 78.9162 16.0982 78.9162C18.0098 78.8176 19.8209 78.6205 21.7325 78.5219C25.5558 78.2261 29.4798 77.9303 33.3031 77.7331C36.1203 77.6345 39.0381 77.9303 41.8552 77.2401C42.0565 77.1415 42.3583 77.2401 42.5595 77.2401C45.7792 76.9443 48.8982 76.55 52.1178 76.55C52.6209 76.55 53.124 76.3528 53.5264 76.2542C55.4381 75.9584 57.1485 75.071 58.9595 74.2823C58.9595 72.409 59.0601 70.6342 58.9595 68.7609C58.7583 63.3382 58.2552 58.0141 58.2552 52.5913C58.2552 47.9574 57.6516 43.422 57.0479 38.8866C56.4442 34.4498 55.7399 29.9144 55.7399 25.4777C55.7399 22.6184 55.6393 19.8577 55.6393 16.9985C55.6393 16.4069 55.5387 15.7167 55.4381 15.1252C52.7215 13.7448 50.0049 14.7308 47.2884 14.5336C46.8859 15.5195 46.081 15.8153 45.1755 16.1111C41.5534 16.9985 37.9313 17.2943 34.2086 17.4915C31.8945 17.6886 29.5804 17.4915 27.2663 17.59C26.0589 17.59 24.8515 17.7872 23.6442 17.9844C22.2356 18.1816 20.9276 18.4774 19.519 18.576C15.4945 18.6746 16.2994 18.3788 14.7902 15.7167C12.7779 15.6181 10.8663 16.2097 8.85399 16.8013C8.85399 17.3929 8.75339 17.8858 8.75339 18.3788C8.75339 20.4493 8.75339 22.5198 8.95461 24.6889C9.25645 29.7173 9.65891 34.647 9.75952 39.6754C9.86014 47.07 11.2687 54.366 11.6712 61.7607C11.6712 61.9579 11.7718 62.2537 11.7718 62.4508C12.1742 65.8031 12.4761 69.1553 12.8785 72.5076C13.3816 74.6767 13.5828 76.7472 14.3877 78.7191ZM47.1878 12.4631C48.0933 12.4631 49.0994 12.4631 50.1055 12.4631C51.2123 12.4631 52.2184 12.3645 53.3252 12.4631C54.3313 12.5617 55.2368 12.7589 56.243 13.0547C57.3497 13.3505 57.9534 14.2378 58.054 15.421C58.054 16.4069 58.054 17.3929 58.054 18.2802C57.9534 25.0833 58.4565 31.7878 59.4626 38.4922C60.2675 43.915 60.7706 49.3377 60.7706 54.859C60.7706 58.3099 61.173 61.7607 61.2736 65.2115C61.3743 68.268 61.4749 71.3244 61.5755 74.3809C61.5755 76.057 60.7706 77.0429 59.1608 77.6345C58.6577 77.8317 58.2552 77.9303 57.7522 77.9303C55.2368 78.2261 52.7215 78.719 50.2062 78.6205C47.7914 78.5219 45.3767 78.7191 43.0626 79.212C41.0503 79.705 39.0381 79.8036 36.9252 79.8036C32.1963 79.8036 27.5681 80.0008 22.8393 80.3952C20.1227 80.691 17.4061 80.9867 14.6896 80.691C13.0798 80.4938 12.8785 80.3952 12.4761 78.9162C11.7718 76.1556 11.1681 73.3949 11.0675 70.6342C11.0675 69.5497 10.8663 68.5638 10.7657 67.4792C10.4638 64.7185 9.96075 62.0565 9.75952 59.2958C9.5583 56.4365 9.25645 53.6759 8.85399 50.9152C8.75338 50.3236 8.65277 49.8307 8.65277 49.2391C8.25031 42.8304 7.94847 36.3231 7.64663 29.9144C7.54602 28.2383 7.34479 26.5622 7.34479 24.8861C7.24418 22.3226 7.14357 19.7591 7.14357 17.1957C7.14357 15.421 7.64663 14.928 9.35706 14.5336C10.8663 14.2378 12.3755 13.942 13.9853 13.6462C14.4884 13.5476 14.8908 13.449 15.4945 13.3505C15.3939 12.3645 15.8969 11.4771 15.1926 10.5898C14.1865 10.6884 13.0798 10.8856 12.0736 10.9842C10.5644 11.0828 9.15584 11.3786 7.64663 11.3786C5.63436 11.28 4.02454 11.8715 2.51534 13.1533C2.51534 14.0406 2.31411 15.0266 2.51534 15.8153C2.91779 17.2943 2.9178 18.8718 2.9178 20.3507C2.9178 22.9142 2.9178 25.4777 2.9178 28.0411C3.01841 32.2807 2.61596 36.6189 3.42087 40.8585C3.42087 41.0557 3.42087 41.3515 3.42087 41.5487C3.52148 43.0276 3.62209 44.4079 3.82332 45.8869C4.32638 49.0419 5.03069 52.197 4.93007 55.4506C4.93007 55.845 5.03068 56.2394 5.1313 56.6337C5.63436 61.0705 6.6405 65.4087 6.43927 69.8455C6.43927 70.2399 6.53988 70.6342 6.53988 71.0286C6.84172 74.4795 7.94848 77.8317 7.94848 81.2825C7.94848 81.6769 8.04909 82.0713 8.1497 82.4657C8.35093 83.5502 8.55215 84.6348 8.85399 85.7193C9.15583 86.6067 9.15584 87.5926 9.96075 88.48C11.6712 88.48 13.5828 88.5786 15.2933 88.48C18.5129 88.1842 21.8331 87.7898 25.0528 87.3954C25.8577 87.2968 26.6626 87.2968 27.4675 87.1982C31.3914 87.001 35.3153 86.7053 39.2393 86.5081C39.5411 86.5081 39.843 86.4095 40.2454 86.4095C45.6785 85.6207 51.1117 84.7334 56.6454 84.5362C59.0601 84.4376 61.5755 84.1418 63.9902 83.5502C65.7006 83.1558 66.4049 81.9727 66.2037 80.2966C66.1031 79.1134 66.0025 77.9303 65.9019 76.7472C65.8012 73.9865 66.2037 71.2258 65.4994 68.5638C65.3988 68.0708 65.3988 67.4792 65.3988 66.8876C65.3988 64.9157 65.3988 62.8452 65.3988 60.8733C65.3988 59.7888 65.2982 58.8028 65.2982 57.7183C65.1976 56.3379 64.9963 54.9576 64.9963 53.6759C64.8957 50.6194 65.2982 47.563 64.4933 44.5065C64.3927 44.2107 64.4933 43.8164 64.4933 43.5206C64.7951 40.1683 63.9902 36.9147 63.8896 33.6611C63.5877 28.6327 63.0847 23.7029 62.6822 18.7732C62.481 16.3083 62.2798 13.8434 62.0786 11.28C61.9779 9.99822 61.5755 9.60384 60.2675 9.40665C59.5632 9.30805 58.7583 9.30805 58.054 9.30805C54.7338 9.40665 51.3129 9.40665 47.9927 9.50524C47.4896 9.50524 47.0871 9.70243 46.6847 9.70243C46.6847 11.28 46.6847 11.28 47.1878 12.4631ZM18.0098 16.1111C19.4184 16.3083 20.5252 16.2097 21.6319 16.0125C23.8454 15.5196 26.1595 15.3224 28.4736 15.3224C31.7939 15.3224 35.0135 15.7167 38.3338 14.928C38.6356 14.8294 39.0381 14.928 39.3399 14.928C40.7485 14.7308 42.1571 14.6322 43.4651 14.435C43.8675 14.3364 44.27 14.0406 44.5718 13.8434C45.0749 10.787 44.773 8.02632 43.8675 5.36425C43.6663 4.87127 43.6663 4.37829 43.6663 3.98391C43.6663 3.19515 43.2638 2.70218 42.5595 2.50499C41.654 2.3078 40.8491 2.01201 39.9436 2.01201C37.6295 2.01201 35.3154 1.71623 33.1019 2.40639C32.5988 2.60358 31.9951 2.50499 31.3914 2.50499C27.9706 2.60358 24.5497 2.89937 21.2295 4.1811C19.519 4.87127 18.6135 5.85722 18.4123 7.43474C18.1104 9.89962 18.0098 12.3645 17.8086 14.8294C17.708 15.2238 17.9092 15.6181 18.0098 16.1111Z" fill="#192C32"/>
<path fill-rule="evenodd" clip-rule="evenodd" d="M24.9531 58.7042C25.0537 58.4084 25.0537 58.3098 25.1543 58.3098C26.2611 57.9154 27.3679 57.4225 28.5752 57.0281C29.7826 56.6337 31.0906 56.4365 32.3985 56.4365C34.9139 56.5351 37.4292 56.1407 39.9445 55.6478C40.8501 55.4506 41.8562 55.352 42.8623 55.352C43.9691 55.352 45.1764 55.352 46.2832 55.0562C46.8869 54.859 47.5912 54.859 48.1949 54.9576C49.201 55.0562 50.3077 55.2534 51.3139 55.5492C51.6157 55.6478 51.8169 55.8449 52.32 56.0421C51.9175 56.3379 51.7163 56.6337 51.4145 56.6337C50.509 56.7323 49.6034 57.0281 48.7985 56.8309C47.5912 56.4365 46.3838 56.3379 45.1764 56.8309C44.774 56.9295 44.3715 56.9295 43.9691 56.9295C41.8562 56.8309 39.7433 57.4225 37.731 57.7182C36.2218 57.9154 34.612 57.8168 33.1028 57.7182C31.6942 57.6197 30.2856 57.8168 28.9777 58.2112C28.4746 58.3098 28.0721 58.6056 27.6697 58.8028C26.6636 59.1972 25.8586 59.2958 24.9531 58.7042Z" fill="#192C32"/>
<path fill-rule="evenodd" clip-rule="evenodd" d="M27.3672 48.5486C27.7696 48.1542 27.9709 47.8584 28.1721 47.7598C29.1782 47.464 30.285 47.2668 31.2911 47.1682C32.6997 47.0696 34.1083 47.1682 35.5169 47.1682C36.6236 47.1682 37.831 47.2668 38.9377 46.8724C39.4408 46.6752 40.0445 46.7738 40.6482 46.7738C42.5598 46.8724 44.3709 46.5767 46.1819 45.9851C47.4899 45.5907 48.7979 45.6893 50.1058 45.7879C50.3071 45.7879 50.5083 46.1823 50.6089 46.4781C50.6089 46.5767 50.3071 46.8724 50.1058 46.971C50.0052 47.0696 49.804 47.0696 49.6028 47.0696C47.5905 46.971 45.6788 47.464 43.7672 47.957C43.1635 48.1542 42.4592 48.0556 41.8555 48.0556C40.7488 48.0556 39.5414 48.0556 38.4347 48.45C38.0322 48.6472 37.4285 48.6472 37.0261 48.6472C35.0138 48.6472 33.1022 48.6472 31.0899 48.6472C30.285 48.6472 29.4801 48.5486 28.6752 48.8443C28.4739 48.9429 27.9709 48.7457 27.3672 48.5486Z" fill="#192C32"/>
<path fill-rule="evenodd" clip-rule="evenodd" d="M53.0219 67.2815C52.6194 67.4787 52.2169 67.8731 51.9151 67.8731C49.1985 67.8731 46.5826 68.6619 43.866 68.4647C43.1617 68.3661 42.3568 68.3661 41.6525 68.1689C39.439 67.4787 37.3261 67.4787 35.1126 68.0703C32.8991 68.6619 30.585 69.1548 28.2709 69.0562C27.8685 69.0562 27.466 68.9576 27.0636 68.7604C26.8623 68.6619 26.7617 68.3661 26.7617 68.1689C26.7617 67.9717 26.9629 67.6759 27.1642 67.6759C27.8685 67.5773 28.6734 67.3801 29.3777 67.4787C31.3899 67.6759 33.3016 67.4787 35.2132 67.1829C37.1249 66.8871 39.1372 66.69 41.0488 66.7885C42.4574 66.8871 43.7654 67.1829 45.174 67.0843C45.9789 66.9857 46.7838 66.7885 47.5887 66.7885C49.0979 66.69 50.7077 66.69 52.2169 66.7885C52.6194 66.7885 52.72 67.0843 53.0219 67.2815Z" fill="#192C32"/>
<path fill-rule="evenodd" clip-rule="evenodd" d="M37.8319 28.14C36.8257 28.8301 35.8196 28.8301 34.8135 28.9287C33.3043 28.9287 31.8957 28.9287 30.3865 29.0273C29.2797 29.0273 28.2736 29.0273 27.2675 29.3231C26.4626 29.5203 25.4564 29.4217 24.6515 29.3231C24.4503 29.3231 24.1484 28.9287 24.1484 28.6329C24.1484 28.4357 24.4503 28.0414 24.6515 27.9428C25.557 27.7456 26.5632 27.5484 27.5693 27.4498C30.7889 27.0554 33.908 27.2526 37.1276 27.7456C37.2282 27.647 37.4294 27.8442 37.8319 28.14Z" fill="#192C32"/>
<path fill-rule="evenodd" clip-rule="evenodd" d="M51.4121 71.3252C49.7016 71.5224 47.9912 71.7196 46.2808 71.3252C44.2685 70.8322 42.2562 70.9308 40.1433 71.2266C37.8292 71.621 35.4145 71.4238 33.1004 71.5224C32.8992 70.7337 33.3016 70.5365 33.7041 70.5365C34.4084 70.5365 35.2133 70.6351 35.9176 70.5365C37.4268 70.5365 39.0366 70.5365 40.5458 70.3393C42.5581 70.1421 44.5703 69.8463 46.6832 70.4379C47.79 70.7337 48.9973 70.5365 50.1041 70.5365C50.7078 70.6351 51.2108 70.6351 51.4121 71.3252Z" fill="#192C32"/>
<path fill-rule="evenodd" clip-rule="evenodd" d="M48.7995 26.9564C48.5983 27.2522 48.4977 27.4494 48.3971 27.548C45.9823 28.3368 43.5676 29.0269 41.0523 28.9283C40.5492 28.9283 40.0461 28.8297 39.6437 28.6326C39.4425 28.534 39.1406 28.1396 39.1406 27.9424C39.1406 27.6466 39.4425 27.4494 39.6437 27.2522L39.8449 27.1536C41.9578 27.2522 44.0707 26.7592 46.083 26.3649C46.9885 26.1677 47.894 26.2663 48.7995 26.9564Z" fill="#192C32"/>
<path fill-rule="evenodd" clip-rule="evenodd" d="M39.1406 37.1119C39.4425 37.0133 39.8449 36.8161 40.1468 36.8161C41.7566 36.7175 43.3664 36.8161 44.9762 36.2245C46.083 35.8301 47.3909 35.8301 48.5983 36.2245C48.7995 36.3231 49.0008 36.6189 49.0008 36.7175C49.0008 36.9147 48.7995 37.1119 48.6989 37.309C48.5983 37.4076 48.3971 37.5062 48.2964 37.5062C45.278 37.6048 42.2596 37.9006 39.3418 37.5062C39.1406 37.4076 39.1406 37.2104 39.1406 37.1119Z" fill="#192C32"/>
<path fill-rule="evenodd" clip-rule="evenodd" d="M25.2539 37.0132C26.3607 37.0132 27.0649 37.0132 27.6686 37.0132C28.7754 36.9146 29.7815 36.816 30.8883 36.816C31.995 36.816 33.0012 36.7174 34.1079 36.816C34.4097 36.816 34.611 37.1118 35.0134 37.309C34.611 37.5062 34.5103 37.6048 34.2085 37.7034C31.7938 37.9992 29.3791 38.295 26.8637 38.4922C26.5619 38.4922 26.1594 38.4922 25.9582 38.295C25.5557 38.0978 25.5557 37.7034 25.2539 37.0132Z" fill="#192C32"/>
<path fill-rule="evenodd" clip-rule="evenodd" d="M15.292 27.8447C15.8957 28.0419 16.3987 28.2391 16.8012 28.3377C17.3043 28.4363 17.8073 28.4363 18.2098 28.5349C18.411 28.5349 18.6122 28.8307 18.6122 29.0279C18.6122 29.2251 18.411 29.5208 18.2098 29.5208C17.5055 29.6194 16.8012 29.8166 16.0969 29.8166C15.0908 29.8166 14.8895 29.4222 15.292 27.8447Z" fill="#192C32"/>
<path fill-rule="evenodd" clip-rule="evenodd" d="M21.2307 58.1132C21.2307 58.2118 21.2307 58.3104 21.13 58.3104C20.627 59.0992 19.4196 59.2964 18.7153 58.8034C18.5141 58.6062 18.3129 58.2118 18.4135 58.0146C18.5141 57.7188 18.8159 57.2259 19.1178 57.1273C19.9227 56.8315 20.5264 57.1273 21.13 57.7188C21.13 57.8174 21.13 58.0146 21.2307 58.1132Z" fill="#192C32"/>
<path fill-rule="evenodd" clip-rule="evenodd" d="M16.9051 36.7183C17.2069 36.8169 17.5088 36.8169 17.71 36.9155C18.1125 37.1126 18.7161 37.2112 18.7161 37.8028C18.7161 38 18.4143 38.3944 18.2131 38.493C17.5088 38.8874 16.8045 38.7888 16.5026 38.2958C16.3014 38.0986 16.3014 37.7042 16.402 37.4084C16.402 37.1126 16.7039 36.9155 16.9051 36.7183Z" fill="#192C32"/>
<path fill-rule="evenodd" clip-rule="evenodd" d="M19.317 47.859C19.4176 48.2533 18.9145 48.6477 18.4114 48.7463C17.8077 48.8449 17.4053 48.4505 17.3047 47.9576C17.3047 47.4646 17.5059 47.1688 18.009 47.0702C18.6127 46.9716 19.317 47.2674 19.317 47.859Z" fill="#192C32"/>
<path fill-rule="evenodd" clip-rule="evenodd" d="M81.1958 102.185C82.705 101.199 84.3148 100.114 85.824 99.0296C88.3394 97.1563 90.9553 95.3816 93.2695 93.3111C95.483 91.3392 97.7971 89.5645 100.212 87.7897C101.52 86.8038 102.727 85.8178 104.035 84.8319C104.236 84.6347 104.538 84.6347 104.941 84.4375C104.941 85.0291 105.041 85.6206 104.941 86.015C103.834 90.0574 103.13 94.1984 102.928 98.3394C102.928 98.7338 102.928 99.0296 102.828 99.424C101.52 102.678 101.319 106.128 100.413 109.481C100.312 109.875 100.212 110.368 100.111 110.861C99.5075 111.255 99.0044 111.65 98.3001 112.044C95.0805 113.622 92.2633 115.889 89.3455 118.058C87.8363 119.143 86.2265 120.228 84.7173 121.312C83.7112 122.002 82.6044 122.594 81.0952 122.791C80.9946 122.397 80.894 122.002 80.894 121.509C80.894 118.551 80.7934 115.692 81.1958 112.734C81.4977 110.861 81.2964 108.791 81.2964 106.917C81.1958 105.34 81.1958 103.861 81.1958 102.185Z" fill="#FFB63B"/>
<path fill-rule="evenodd" clip-rule="evenodd" d="M60.5719 112.243C61.578 112.637 62.3829 112.933 63.1878 113.229C64.4958 113.623 65.3007 113.327 65.8038 112.046C66.2062 111.06 66.508 110.074 66.508 108.989C66.4074 106.721 66.508 104.355 66.508 102.087C66.508 100.609 66.8099 99.3268 67.5142 97.8479C68.1179 97.9465 68.6209 98.0451 69.124 98.1437C71.3375 98.8339 73.6516 99.524 75.9657 99.7212C76.67 99.8198 77.3743 100.017 78.0786 100.214C78.4811 100.313 78.8835 100.51 79.286 100.707C78.5817 103.764 78.9841 106.623 78.8835 109.581C78.8835 110.862 78.6823 112.046 78.5817 113.327C78.4811 114.215 78.3804 115.102 78.3804 115.989C78.3804 118.159 78.3804 120.229 78.3804 122.398C78.3804 122.891 78.2798 123.384 78.1792 123.976C76.8712 123.581 75.7645 123.285 74.6577 122.891C70.5326 121.314 66.005 120.919 61.8798 119.144C61.3767 118.947 60.8737 118.651 60.3706 118.454C60.3706 116.482 60.1694 114.51 60.5719 112.243Z" fill="#FFB63B"/>
<path fill-rule="evenodd" clip-rule="evenodd" d="M81.9995 98.2409C77.7737 97.6493 73.6486 97.3535 69.5234 95.776C69.8253 95.283 70.0265 94.8886 70.3283 94.6914C72.3406 93.2125 74.2523 91.5364 76.3652 90.2547C80.5909 87.494 84.4142 84.2404 88.4388 81.1839C90.0486 80.0008 91.5578 78.8176 93.067 77.5359C96.8903 78.6204 100.915 78.6204 104.436 80.8881C103.631 81.6769 103.028 82.4656 102.323 83.0572C101.619 83.7474 100.915 84.4376 100.009 84.9305C96.8903 87.001 93.8719 89.2687 91.0547 91.7336C88.3382 94.1985 85.4204 96.4662 81.9995 98.2409Z" fill="#FFB63B"/>
<path fill-rule="evenodd" clip-rule="evenodd" d="M90.4523 76.7481C88.44 78.4242 86.8302 79.8045 85.1198 81.0863C83.1075 82.6638 80.9946 84.3399 78.9823 85.9174C78.6805 86.1146 78.3787 86.4104 78.0768 86.509C74.1529 88.9739 70.5308 91.7345 67.0093 94.8896C62.8842 93.4107 58.759 91.8331 54.332 90.4528C55.9418 89.3683 57.1492 88.4809 58.4572 87.7907C61.375 86.2132 63.7897 84.0441 66.5063 82.368C69.8265 80.2975 72.9455 77.8326 76.1652 75.5649C76.6682 75.1706 77.2719 74.8748 77.775 74.579C78.8817 73.8888 80.0891 73.7902 81.3971 74.2832C83.51 74.9734 85.7235 75.4663 87.937 76.0579C88.6413 76.2551 89.3455 76.4523 90.4523 76.7481Z" fill="#1CBB6F"/>
<path fill-rule="evenodd" clip-rule="evenodd" d="M41.9562 89.5659C44.7734 89.3687 47.3893 90.4533 50.0053 91.4392C50.1059 92.1294 50.1059 92.7209 50.2065 93.3125C50.3071 94.5943 50.3071 95.9746 50.5083 97.2563C51.0114 99.9184 51.3132 102.482 51.9169 105.144C52.2188 106.524 52.1182 108.003 52.2188 109.384C52.3194 110.961 52.6212 111.257 54.1304 111.355C55.3378 111.454 56.6458 111.355 57.9537 111.454C58.658 113.525 58.2556 115.398 58.155 117.567C55.6396 117.271 53.728 115.989 51.5145 115.299C49.301 114.609 46.9869 114.018 44.874 113.327C44.7734 112.933 44.5721 112.834 44.5721 112.637C44.3709 110.271 44.1697 107.905 43.8678 105.44C43.7672 104.158 43.566 102.975 43.3648 101.792C42.7611 97.9465 42.0568 94.1013 41.4531 90.2561C41.6544 90.0589 41.8556 89.8617 41.9562 89.5659Z" fill="#FFB63B"/>
<path fill-rule="evenodd" clip-rule="evenodd" d="M67.4117 70.9307C69.6252 71.2264 71.7381 71.5222 73.7503 71.818C74.4546 71.9166 75.0583 72.2124 75.662 72.5082C75.662 72.804 75.662 73.0998 75.5614 73.1983C74.0522 74.4801 72.543 75.6632 70.9332 76.8464C70.1283 77.5365 69.2227 78.1281 68.3172 78.7197C68.0154 78.9169 67.8141 79.2127 67.5123 79.4098C64.8964 80.7902 62.6829 82.7621 60.1675 84.4382C57.5516 86.2129 54.7344 87.7904 52.0178 89.4666C49.2007 88.6778 46.5847 87.889 43.9688 87.1003C43.9688 87.0017 43.9687 86.9031 44.0694 86.8045C46.6853 85.0298 48.9994 82.9593 51.8166 81.4803C55.3381 79.607 58.6583 77.4379 61.7773 74.9731C63.5884 73.4941 65.6006 72.311 67.4117 70.9307Z" fill="#FFB63B"/>
<path fill-rule="evenodd" clip-rule="evenodd" d="M63.4875 111.058C60.5697 109.678 57.7525 109.185 54.7341 109.185C54.5329 107.706 54.5329 106.424 54.231 105.143C53.728 102.382 53.1243 99.6212 52.5206 96.7619C52.42 96.0718 52.3194 95.3816 52.2188 94.6914C52.2188 94.0999 52.2188 93.5083 52.2188 92.8181C54.3316 92.9167 61.8776 95.4802 64.7954 97.0577C64.7954 97.2549 64.896 97.5507 64.896 97.8465C63.9905 100.804 64.2924 103.861 64.2924 106.819C64.2924 107.706 64.2924 108.593 64.1918 109.481C64.0911 109.875 63.7893 110.368 63.4875 111.058Z" fill="#1CBB6F"/>
<path fill-rule="evenodd" clip-rule="evenodd" d="M38.7344 88.4823C39.9417 86.8062 41.3503 85.4259 42.9602 84.2428C44.4694 83.2568 45.8779 82.1723 47.3871 81.0877C48.0914 80.5947 48.6951 80.2004 49.5 79.806C55.5368 77.0453 60.8694 73.2001 66.4031 69.5521C67.4092 68.8619 68.3148 68.1717 69.6227 68.9605C69.7234 69.0591 70.0252 69.0591 70.1258 69.0591C73.1442 68.8619 75.8608 69.9465 78.5773 70.8338C82.5013 72.1156 86.5258 73.2001 90.651 74.186C93.9712 74.9748 97.3921 75.7636 100.712 76.6509C102.624 77.1439 104.435 78.0313 106.347 78.7214C107.453 79.1158 107.856 79.9046 107.956 80.9891C108.057 81.5807 107.956 82.2709 107.856 82.8624C107.353 85.9189 106.749 88.9753 106.246 92.0318C105.944 93.6093 105.844 95.1868 105.642 96.7643C105.542 98.5391 105.139 100.314 104.636 101.99C103.932 104.356 103.529 106.821 103.026 109.286C102.926 109.976 103.127 110.666 103.228 111.455C102.725 112.047 102.222 112.737 101.718 113.328C101.517 113.624 101.115 113.821 100.813 113.821C98.4988 114.117 96.7884 115.399 95.0779 116.681C92.2608 118.652 89.5442 120.624 86.727 122.695C85.5197 123.582 84.3123 124.272 82.9037 124.765C81.6964 125.16 80.8914 125.751 80.489 127.033C80.2878 128.019 79.181 128.315 78.678 127.625C77.5712 126.244 75.8608 125.949 74.4522 125.456C71.7356 124.47 68.9184 123.878 66.1013 123.089C64.9945 122.793 63.7872 122.498 62.781 122.005C60.6681 121.216 58.5552 120.427 56.4424 119.54C52.8203 118.061 49.0976 116.878 45.3749 115.793C44.9724 115.695 44.4693 115.497 44.0669 115.399C42.9601 115.103 42.4571 114.511 42.3565 113.328C41.954 110.37 41.451 107.413 40.9479 104.356C40.8473 103.666 40.7467 102.976 40.646 102.286C40.3442 99.032 39.6399 95.7784 39.5393 92.5248C39.5393 91.1444 39.0362 89.9613 38.7344 88.4823ZM81.1933 102.187C81.1933 103.863 81.1933 105.342 81.1933 106.92C81.1933 108.892 81.3945 110.863 81.0927 112.737C80.6902 115.695 80.8914 118.554 80.7908 121.512C80.7908 121.906 80.8914 122.3 80.9921 122.793C82.5013 122.695 83.5074 122.103 84.6141 121.315C86.1234 120.23 87.7332 119.145 89.2424 118.061C92.1602 115.99 94.9773 113.723 98.197 112.047C98.8007 111.751 99.4043 111.258 100.008 110.863C100.109 110.37 100.209 109.976 100.31 109.483C101.215 106.131 101.417 102.68 102.725 99.4264C102.825 99.1306 102.825 98.7362 102.825 98.3419C103.026 94.2009 103.731 90.0599 104.837 86.0175C104.938 85.5245 104.837 85.0315 104.837 84.4399C104.435 84.6371 104.133 84.7357 103.932 84.8343C102.624 85.8203 101.417 86.8062 100.109 87.7922C97.6939 89.5669 95.3798 91.3416 93.1663 93.3135C90.8522 95.384 88.2362 97.1587 85.7209 99.032C84.2117 100.117 82.6019 101.103 81.1933 102.187ZM60.5675 112.244C60.1651 114.511 60.4669 116.483 60.3663 118.455C60.97 118.751 61.3724 118.948 61.8755 119.145C65.9 120.92 70.4276 121.315 74.6534 122.892C75.7602 123.286 76.8669 123.582 78.1749 123.977C78.2755 123.385 78.2755 122.892 78.3761 122.399C78.3761 120.23 78.3761 118.159 78.3761 115.99C78.3761 115.103 78.4767 114.216 78.5773 113.328C78.6779 112.047 78.7786 110.863 78.8792 109.582C78.9798 106.624 78.5773 103.765 79.2816 100.708C78.8792 100.511 78.4767 100.314 78.0743 100.215C77.37 100.018 76.6657 99.8208 75.9614 99.7222C73.5467 99.525 71.3332 98.8348 69.1197 98.1447C68.6166 98.0461 68.1135 97.9475 67.5098 97.8489C66.8056 99.2292 66.5037 100.61 66.5037 102.088C66.5037 104.356 66.5037 106.722 66.5037 108.99C66.5037 110.075 66.2019 111.061 65.7994 112.047C65.2964 113.23 64.3908 113.624 63.1835 113.23C62.3786 112.934 61.5737 112.638 60.5675 112.244ZM81.9982 98.2433C85.419 96.4686 88.3368 94.2009 91.154 91.8346C93.9712 89.2711 96.9896 87.102 100.109 85.0315C100.914 84.4399 101.618 83.8484 102.423 83.1582C103.127 82.468 103.731 81.7779 104.536 80.9891C100.914 78.7214 96.9896 78.7214 93.1663 77.6369C91.6571 78.82 90.1479 80.1018 88.5381 81.2849C84.5135 84.2428 80.6902 87.595 76.4644 90.3557C74.3516 91.736 72.4399 93.3135 70.4276 94.7924C70.1258 94.9896 69.9246 95.384 69.6227 95.877C73.6473 97.3559 77.7724 97.6517 81.9982 98.2433ZM90.4497 76.7495C89.2424 76.4537 88.6387 76.2565 87.9344 76.0594C85.7209 75.4678 83.5074 74.9748 81.3945 74.2846C80.0865 73.7917 78.9798 73.8903 77.7724 74.5804C77.2694 74.8762 76.6657 75.2706 76.1626 75.5664C72.943 77.8341 69.824 80.2989 66.5037 82.3694C63.7871 84.0456 61.3724 86.2147 58.4546 87.7922C57.1467 88.4823 55.9393 89.3697 54.3295 90.4542C58.7565 91.9332 62.8816 93.5107 67.0068 94.891C70.5283 91.736 74.1503 88.8767 78.0743 86.5104C78.3761 86.3133 78.6779 86.1161 78.9798 85.9189C80.9921 84.3413 83.1049 82.7638 85.1172 81.0877C86.8276 79.7074 88.5381 78.4256 90.4497 76.7495ZM41.954 89.5669C41.8534 89.8627 41.6522 90.0599 41.6522 90.1585C42.2559 94.0037 42.9601 97.8489 43.5638 101.694C43.7651 102.877 43.8657 104.159 44.0669 105.342C44.2681 107.708 44.4693 110.075 44.7712 112.54C44.7712 112.737 44.8718 112.835 45.073 113.23C47.1859 113.821 49.5 114.511 51.7135 115.202C53.927 115.892 55.8387 117.174 58.354 117.469C58.354 115.399 58.7565 113.427 58.1528 111.356C56.8448 111.356 55.5368 111.356 54.3295 111.258C52.8203 111.159 52.5184 110.863 52.4178 109.286C52.3172 107.906 52.4178 106.427 52.116 105.046C51.4117 102.483 51.2105 99.8208 50.7074 97.1587C50.5062 95.877 50.5062 94.4967 50.4056 93.2149C50.4056 92.6233 50.3049 92.0318 50.2043 91.3416C47.2865 90.4543 44.7712 89.3697 41.954 89.5669ZM67.4092 70.9324C65.5982 72.2141 63.5859 73.4959 61.7749 74.9748C58.6559 77.4397 55.3356 79.6088 51.8141 81.4821C48.997 82.961 46.6828 85.0315 44.0669 86.8062C43.9663 86.8062 44.0669 87.0034 43.9663 87.102C46.5822 87.8908 49.2988 88.6795 52.0154 89.4683C54.7319 87.7922 57.5491 86.2147 60.1651 84.4399C62.5798 82.7638 64.7933 80.7919 67.5098 79.4116C67.8117 79.2144 68.0129 78.9186 68.3148 78.7214C69.2203 78.1299 70.0252 77.4397 70.9307 76.8481C72.4399 75.665 74.0497 74.3832 75.5589 73.2001C75.6595 73.1015 75.5589 72.9043 75.6595 72.5099C75.0559 72.3127 74.3516 72.017 73.7479 71.8198C71.635 71.524 69.6227 71.3268 67.4092 70.9324ZM63.4853 111.061C63.7871 110.37 64.1896 109.878 64.1896 109.483C64.2902 108.596 64.2902 107.708 64.2902 106.821C64.2902 103.863 64.089 100.807 64.8939 97.8489C64.9945 97.6517 64.8939 97.3559 64.7933 97.0601C61.8755 95.4826 54.3295 92.9191 52.2166 92.8205C52.2166 93.4121 52.2166 94.1023 52.2166 94.6938C52.3172 95.384 52.3172 96.0742 52.5184 96.7643C53.0215 99.525 53.7258 102.286 54.2289 105.145C54.4301 106.427 54.5307 107.708 54.7319 109.187C57.6497 109.187 60.4669 109.582 63.4853 111.061Z" fill="#192C32"/>
<path fill-rule="evenodd" clip-rule="evenodd" d="M71.4348 20.2532C72.8434 19.9575 74.0508 19.6617 75.2581 20.0561C76.7673 20.549 78.2765 20.3518 79.7857 20.2532C81.4962 20.1546 83.2066 20.1546 84.917 20.1546C85.1182 20.1546 85.4201 20.3518 85.7219 20.4504C86.0238 21.6336 86.0238 22.9153 85.7219 24.0985C85.1183 26.4647 84.8164 28.831 84.8164 31.1973C84.8164 31.6903 84.8164 32.2819 84.7158 32.7748C83.9109 35.6341 83.7097 38.5919 83.4078 41.4512C83.2066 43.9161 83.3072 46.381 83.3072 49.043C83.8103 49.043 84.3133 49.1416 84.8164 49.043C86.0238 48.6487 87.1305 48.0571 88.3379 47.6627C88.7403 47.5641 89.1428 47.5641 89.8471 47.4655C89.5452 48.0571 89.4446 48.3529 89.2434 48.6486C88.3379 50.029 87.533 51.3107 86.9293 52.8882C86.225 54.7615 84.917 56.2405 83.7097 57.818C82.2005 59.6913 80.7919 61.6632 79.6851 63.7337C79.5845 63.8323 79.3833 63.9309 79.1821 64.1281C77.9747 63.2407 76.5661 62.3534 76.063 60.7759C75.9624 60.4801 75.8618 60.0857 75.6606 59.7899C74.1514 57.6208 72.6422 55.3531 71.133 53.184C69.825 51.3107 68.4164 49.4374 67.0078 47.3669C69.2213 47.3669 71.2336 48.5501 73.4471 48.4515C73.6483 45.9866 73.3465 43.6203 73.1452 41.254C72.944 38.9863 72.7428 36.62 72.5416 34.3523C72.3403 31.9861 72.1391 29.5212 72.0385 27.1549C72.0385 24.7886 71.133 22.6195 71.4348 20.2532Z" fill="#1CBB6F"/>
<path fill-rule="evenodd" clip-rule="evenodd" d="M63.6875 45.1979C65.1967 44.6064 66.5047 44.8036 67.8127 45.1979C68.6176 45.4937 69.4225 45.5923 70.1268 45.7895C70.328 45.8881 70.6298 45.6909 71.0323 45.6909C71.1329 45.1979 71.2335 44.705 71.3341 44.212C71.5354 40.7612 71.2335 37.3103 70.7304 33.8595C70.5292 32.1834 70.4286 30.5073 70.2274 28.8311C70.0262 26.662 69.8249 24.5915 69.6237 22.4225C69.4225 20.9435 69.4225 19.4646 69.9255 17.9857C75.3587 17.6899 80.5906 17.7885 85.8225 17.7885C87.6335 17.7885 88.4384 18.5772 88.4384 20.4506C88.539 22.1267 88.4384 23.8028 88.036 25.4789C87.6335 27.2536 87.5329 29.1269 87.3317 31.0002C87.2311 31.8876 87.2311 32.7749 87.1305 33.6623C86.728 35.8314 86.3255 38.0005 86.1243 40.2682C86.0237 41.4513 85.7219 42.5359 85.42 43.6204C85.2188 44.5078 84.917 45.3951 85.5206 46.2825C86.9292 46.1839 88.2372 45.4937 89.5452 45.0993C90.4507 44.8036 91.2556 44.5078 92.1611 44.3106C93.0667 44.1134 93.7709 45.0007 93.5697 45.7895C93.4691 46.1839 93.2679 46.6769 93.0666 46.9726C91.3562 49.8319 89.6458 52.7898 87.8347 55.649C87.1305 56.7336 86.4262 57.7195 85.6213 58.6069C83.7096 60.6774 82.2004 63.0437 80.6912 65.3113C79.7857 66.6917 79.5844 66.7903 78.0752 66.3959C77.6728 66.2973 77.1697 66.1001 76.7673 66.0015C73.9501 61.8605 71.5354 57.5223 68.517 53.4799C66.9071 51.2122 65.4986 48.846 64.09 46.4797C63.8887 46.2825 63.8887 45.7895 63.6875 45.1979ZM71.4347 20.2534C71.1329 22.6196 72.139 24.7887 72.139 27.155C72.139 29.5213 72.4409 31.9862 72.6421 34.3525C72.8433 36.6202 73.0446 38.9864 73.2458 41.2541C73.447 43.6204 73.7489 45.9867 73.5476 48.4516C71.3341 48.4516 69.4225 47.2684 67.1084 47.367C68.6176 49.4375 69.9255 51.3108 71.2335 53.1841C72.7427 55.3532 74.2519 57.6209 75.7611 59.79C75.9623 60.0858 76.063 60.3816 76.1636 60.776C76.6667 62.4521 77.9746 63.2409 79.2826 64.1282C79.5844 63.931 79.7857 63.8324 79.7857 63.7338C80.8924 61.5647 82.301 59.6914 83.8102 57.8181C85.0176 56.3392 86.4262 54.7617 87.0298 52.8884C87.5329 51.4094 88.4384 50.0291 89.3439 48.6488C89.5452 48.353 89.6458 48.0572 89.9476 47.4656C89.2433 47.5642 88.8409 47.5642 88.4384 47.6628C87.2311 48.1558 86.1243 48.6488 84.917 49.0431C84.5145 49.2403 83.9108 49.0431 83.4078 49.0431C83.4078 46.3811 83.2065 43.9162 83.5084 41.4513C83.8102 38.5921 84.0114 35.6342 84.8163 32.7749C84.917 32.282 84.917 31.6904 84.917 31.1974C84.917 28.8311 85.2188 26.4649 85.8225 24.0986C86.1243 22.9154 86.1243 21.6337 85.8225 20.4506C85.5206 20.352 85.2188 20.1548 85.0176 20.1548C83.3071 20.1548 81.5967 20.1548 79.8863 20.2534C78.3771 20.352 76.8679 20.5491 75.3587 20.0562C74.0507 19.6618 72.7427 19.9576 71.4347 20.2534Z" fill="#192C32"/>
</svg>
