<svg width="100%" height="100%" viewBox="0 0 140 108" fill="none" xmlns="http://www.w3.org/2000/svg">
<path d="M137.379 49.9268C137.272 49.0572 137.379 48.1875 137.379 47.3179C137.272 44.2741 135.679 42.3174 133.235 40.7955C132.81 40.4694 132.279 40.3606 131.748 40.1432C130.686 39.5997 129.517 39.1649 128.348 39.491C126.967 40.0345 124.949 39.3823 124.205 41.339C124.099 41.6651 123.568 41.7738 123.249 41.9912C122.505 42.4261 121.762 42.9696 121.124 43.5131C119.424 44.9263 118.468 46.9917 118.043 48.9485C117.512 51.0139 117.831 53.2967 119.531 54.9273C120.062 55.4709 120.487 56.0144 120.912 56.5579C122.824 58.7321 125.161 58.7321 127.711 58.2972C127.286 57.1015 126.861 56.1231 126.436 54.9273C125.586 54.9273 124.843 54.9273 123.993 54.9273C123.143 54.9273 122.505 54.4925 122.187 53.7316C121.974 53.188 121.974 52.6445 122.399 52.2097C122.718 51.8835 123.143 51.7748 123.674 51.8835C124.205 52.101 124.843 52.101 125.48 52.2097C125.692 52.2097 125.905 51.9922 126.117 51.8835C126.011 51.34 125.905 50.7965 125.799 50.2529C125.161 50.0355 124.736 49.7094 124.205 49.7094C123.249 49.6007 122.612 49.1659 121.868 48.7311C120.912 47.9701 120.593 47.1005 121.018 46.0134C121.655 44.2741 122.93 43.2957 124.63 42.8609C125.905 42.6435 126.436 42.1 126.436 40.9042C126.436 40.7955 126.542 40.5781 126.649 40.4694C126.755 40.2519 126.967 40.0345 127.18 40.0345C127.499 40.0345 127.817 40.2519 127.923 40.4694C128.136 41.1216 128.242 41.8825 128.348 42.6435C128.667 42.7522 128.88 42.8609 129.198 42.9696C129.836 43.187 130.367 43.2957 131.004 43.5131C131.748 43.8393 132.067 44.2741 131.96 44.9263C131.748 45.5786 131.217 45.6873 130.686 45.6873C130.048 45.796 129.517 45.6873 128.773 45.6873C128.667 46.5569 128.242 47.3179 128.773 48.1875C129.092 48.2962 129.517 48.4049 129.836 48.5136C130.792 48.9485 131.748 49.3833 132.492 49.9268C134.298 51.2313 134.085 53.2967 132.067 54.2751C131.323 54.6012 130.473 54.8186 129.623 55.036C129.411 56.0144 129.198 56.9928 128.88 58.1885C129.411 58.1885 129.942 58.2972 130.367 58.1885C131.429 57.8624 132.385 57.4276 133.342 56.884C133.979 56.5579 134.616 56.0144 135.148 55.3622C136.741 53.949 137.591 52.2097 137.379 49.9268Z" fill="#FFB63B"/>
<path d="M123.781 46.8821C124.525 47.0995 125.056 47.2082 125.587 47.4256C125.8 46.556 125.906 45.9038 125.056 45.5776C124.737 45.9038 124.419 46.2299 123.781 46.8821Z" fill="#FFB63B"/>
<path d="M130.261 52.1011C130.155 51.8837 130.155 51.8837 130.155 51.775C129.73 51.3401 129.198 51.2314 128.986 51.5575C128.88 51.6662 128.88 51.9924 128.986 51.9924C129.305 52.1011 129.623 52.2098 129.942 52.3185C129.942 52.2098 130.048 52.2098 130.261 52.1011Z" fill="#FFB63B"/>
<path fill-rule="evenodd" clip-rule="evenodd" d="M127.499 61.2308C126.543 61.2308 126.118 61.2308 125.587 61.2308C122.718 61.4482 120.487 60.2524 118.575 58.0783C118.15 57.6435 117.725 57.0999 117.407 56.5564C114.857 53.2952 114.538 49.8166 116.238 46.0119C116.557 45.4683 116.769 44.9248 117.088 44.2725C117.938 42.5332 119.319 41.2288 121.019 40.3591C121.55 40.1417 122.081 39.9243 122.4 39.4895C124.099 37.8589 126.33 37.5327 128.455 37.2066C131.642 36.7718 134.404 38.2937 136.742 40.3591C137.485 41.0113 138.123 41.881 138.654 42.7507C139.079 43.2942 139.291 44.0551 139.504 44.7074C140.035 46.8815 140.141 49.1643 139.823 51.3385C139.398 55.0345 137.379 57.8609 134.192 59.6002C134.086 59.6002 134.086 59.6002 133.98 59.7089C131.749 61.1221 129.518 61.5569 127.499 61.2308ZM129.093 58.4044C129.624 58.4044 130.155 58.5131 130.58 58.4044C131.642 58.0783 132.598 57.6435 133.555 57.0999C134.192 56.7738 134.829 56.2303 135.361 55.578C136.742 53.9474 137.592 52.0994 137.379 49.9253C137.273 49.0556 137.379 48.186 137.379 47.3163C137.273 44.2725 135.679 42.3158 133.236 40.7939C132.811 40.4678 132.28 40.3591 131.749 40.1417C130.686 39.5982 129.518 39.1633 128.349 39.4895C126.968 40.033 124.949 39.3807 124.206 41.3375C124.099 41.6636 123.568 41.7723 123.25 41.9897C122.506 42.4245 121.762 42.9681 121.125 43.5116C119.425 44.9248 118.469 46.9902 118.044 48.9469C117.513 51.0124 117.831 53.2952 119.531 54.9258C120.062 55.4693 120.487 56.0129 120.912 56.5564C122.825 58.7305 125.162 58.7305 127.712 58.2957C127.287 57.0999 126.862 56.1216 126.437 54.9258C125.587 54.9258 124.843 54.9258 123.993 54.9258C123.143 54.9258 122.506 54.491 122.187 53.73C121.975 53.1865 121.975 52.6429 122.4 52.2081C122.718 51.882 123.143 51.7733 123.675 51.882C124.206 52.0994 124.843 52.0994 125.481 52.2081C125.693 52.2081 125.905 51.9907 126.118 51.882C126.012 51.3385 125.906 50.7949 125.799 50.2514C125.162 50.034 124.737 49.7079 124.206 49.7079C123.25 49.5992 122.612 49.1643 121.868 48.7295C120.912 47.9686 120.594 47.0989 121.019 46.0119C121.656 44.2725 122.931 43.2942 124.631 42.8594C125.906 42.6419 126.437 42.0984 126.437 40.9026C126.437 40.7939 126.543 40.5765 126.649 40.4678C126.755 40.2504 126.968 40.033 127.18 40.033C127.499 40.033 127.818 40.2504 127.924 40.4678C128.136 41.1201 128.243 41.881 128.349 42.6419C128.668 42.7507 128.88 42.8594 129.199 42.9681C129.836 43.1855 130.367 43.2942 131.005 43.5116C131.749 43.8377 132.067 44.2725 131.961 44.9248C131.749 45.577 131.217 45.6857 130.686 45.6857C130.049 45.7944 129.518 45.6857 128.774 45.6857C128.668 46.5554 128.243 47.3163 128.774 48.186C129.093 48.2947 129.518 48.4034 129.836 48.5121C130.792 48.9469 131.749 49.3818 132.492 49.9253C134.298 51.2298 134.086 53.2952 132.067 54.2735C131.324 54.5997 130.474 54.8171 129.624 55.0345C129.624 56.2303 129.411 57.2086 129.093 58.4044ZM125.693 47.3163C125.906 46.4467 126.012 45.7944 125.162 45.4683C124.843 45.7944 124.418 46.2293 123.887 46.7728C124.524 47.0989 125.056 47.2076 125.693 47.3163ZM130.261 52.0994C130.155 51.882 130.155 51.882 130.155 51.7733C129.73 51.3385 129.199 51.2298 128.986 51.5559C128.88 51.6646 128.88 51.9907 128.986 51.9907C129.305 52.0994 129.624 52.2081 129.943 52.3168C129.943 52.2081 130.049 52.2081 130.261 52.0994Z" fill="#192C32"/>
<path fill-rule="evenodd" clip-rule="evenodd" d="M46.6495 72.3146C44.206 62.0961 41.8688 52.0951 39.5316 42.0941C39.4254 41.768 39.5316 41.3332 39.5316 40.8984C39.9565 40.6809 40.169 40.4635 40.594 40.3548C42.6125 39.8113 44.5248 39.2678 46.5433 38.8329C46.862 38.7242 47.0745 38.6155 47.3932 38.6155C51.8551 38.1807 56.1046 36.4414 60.3541 35.3543C61.0978 35.1369 61.8415 34.9195 62.5851 34.8108C66.3034 34.4847 69.8093 33.1802 73.5276 32.528C76.8209 31.8757 80.1143 31.5496 83.4077 30.8974C86.5948 30.2451 89.8882 30.1364 92.969 29.158C94.4564 28.6145 95.5187 28.7232 97.2185 29.158C97.0061 32.0931 96.8998 35.1369 96.5811 38.1807C96.0499 43.0725 95.4125 47.9643 94.7751 52.9648C94.3501 56.7695 93.394 60.4655 92.1191 64.0529C92.0129 64.2703 92.0129 64.4877 91.9067 64.5964C90.8443 65.5747 90.7381 66.8792 90.7381 68.2924C88.6133 68.8359 86.5948 69.5969 84.47 69.8143C75.0149 70.7927 65.5598 71.8797 56.1046 72.8581C53.7674 73.0755 51.5364 73.5103 49.1992 73.0755C48.3493 72.7494 47.6056 72.532 46.6495 72.3146ZM77.0334 53.8344C78.4145 53.7257 79.7956 53.5083 81.1767 53.3996C81.6016 53.2909 82.1328 53.2909 82.5578 53.0735C82.9827 52.9648 83.3014 52.53 83.4077 51.9864C83.4077 51.4429 82.9827 50.7907 82.4515 50.7907C81.7079 50.7907 80.9642 50.7907 80.2205 50.7907C74.9087 51.1168 69.703 52.2038 64.4974 53.2909C60.1417 54.1606 55.8922 55.5737 51.3239 55.8999C50.7928 55.8999 50.2616 56.226 49.8366 56.4434C49.6242 56.5521 49.4117 56.9869 49.5179 57.0956C49.6241 57.4218 49.9429 57.7479 50.1553 57.8566C50.3678 57.9653 50.6865 57.9653 51.0052 57.9653C53.9799 57.6392 56.9545 57.7479 59.823 56.9869C65.4535 55.6825 71.1904 54.5954 77.0334 53.8344ZM83.5139 40.7896C82.4515 40.2461 81.4954 40.5722 80.6455 40.5722C75.4399 41.1158 70.3405 41.8767 65.1348 42.6377C61.204 43.2899 57.4857 44.2683 53.7674 45.5727C51.8551 46.3337 49.9429 47.0946 47.9244 47.312C47.3932 47.4207 46.862 47.6382 46.437 47.9643C46.0121 48.1817 45.6934 48.6165 46.2246 49.0514C49.4117 48.9426 52.4926 48.2904 55.4672 47.2033C58.6543 46.0076 61.8415 45.1379 65.2411 44.9205C66.091 44.8118 66.9409 44.5944 67.6845 44.4857C70.0217 44.1596 72.2527 43.7247 74.59 43.3986C76.6085 43.0725 78.627 42.9638 80.6455 42.6377C81.9203 42.6377 82.8765 42.0941 83.5139 40.7896ZM66.9409 65.0312C69.5968 64.8138 72.2527 64.4877 75.0149 64.1616C75.6523 64.0529 76.2898 63.9441 76.9272 63.7267C77.1397 63.618 77.4584 63.1832 77.4584 62.8571C77.4584 62.531 77.1397 62.0961 76.8209 61.9874C76.2898 61.8787 75.7586 61.77 75.2274 61.8787C69.703 62.531 64.1787 63.0745 58.6543 63.7267C57.0608 63.9441 55.6797 64.7051 54.2986 65.5747C53.6612 66.0096 53.4487 66.6618 53.7674 66.9879C54.1924 67.4228 54.6173 67.3141 55.0423 67.0966C56.6358 66.1183 58.3356 65.9009 60.1417 65.7922C62.3726 65.5747 64.6036 65.2486 66.9409 65.0312Z" fill="#507178"/>
<path fill-rule="evenodd" clip-rule="evenodd" d="M54.0896 90.2534C52.4961 90.5795 51.0087 90.1447 49.4152 89.7098C47.3967 89.0576 46.3343 87.6444 45.8031 85.6877C45.4844 84.3832 45.5906 83.0787 45.4844 81.7743C45.4844 81.3394 45.6969 80.7959 45.9093 80.4698C46.653 79.4914 47.3966 78.5131 48.1403 77.5347C48.459 77.0999 49.0965 76.8825 49.6276 76.7738C52.0711 76.4476 54.4083 76.2302 56.8518 75.9041C58.0204 75.7954 58.8703 76.2302 59.5077 77.0999C59.9327 77.7521 60.3576 78.5131 60.6763 79.3827C60.8888 79.9263 60.995 80.4698 61.1013 81.0133C62.1637 85.0355 61.9512 85.579 58.7641 88.4054C57.4892 89.6011 56.0019 90.3621 54.0896 90.2534ZM55.5769 81.5568C55.5769 81.0133 55.4707 80.9046 55.4707 80.6872C55.152 78.9479 54.0896 78.4044 52.7085 79.3827C52.1773 79.7088 51.7524 80.2524 51.3274 80.7959C50.7962 81.5569 50.9025 82.8613 51.4337 83.731C51.9649 84.4919 52.921 84.8181 53.8771 84.4919C54.727 84.2745 55.3645 83.5136 55.4707 82.4265C55.5769 81.9917 55.5769 81.6656 55.5769 81.5568Z" fill="#FFB63B"/>
<path fill-rule="evenodd" clip-rule="evenodd" d="M88.2961 72.1001C89.146 72.3175 90.1021 72.5349 90.952 72.9697C93.9266 74.2742 95.0953 76.9919 95.6264 79.927C95.8389 81.1227 95.0953 82.3185 94.2454 83.2969C92.6518 85.1449 90.6333 86.232 88.2961 86.6668C87.3399 86.8842 86.2775 86.8842 85.2152 86.9929C83.1967 87.1016 81.9218 85.9058 81.6031 83.8404C81.4969 83.4056 81.4969 82.862 81.3906 82.4272C80.3282 77.8615 82.2405 76.3397 85.7464 73.622C86.49 73.0785 87.3399 72.7523 88.2961 72.1001ZM89.146 76.8832C87.1274 77.1006 86.49 77.8615 86.7025 79.4921C86.915 80.9053 87.4462 81.6663 88.6148 81.9924C89.8896 82.3185 90.7395 81.775 91.4832 80.7966C91.6957 80.5792 91.8019 80.3618 91.9081 80.1444C92.5456 78.9486 91.9081 77.318 90.527 77.1006C89.9959 76.7745 89.3584 76.8832 89.146 76.8832Z" fill="#FFB63B"/>
<path fill-rule="evenodd" clip-rule="evenodd" d="M26.9955 21.1157C28.1641 21.007 29.5452 20.7896 30.82 20.6809C31.6699 20.6809 32.2011 21.1157 32.3074 21.9854C32.4136 22.5289 32.4136 23.0725 32.5198 23.7247C32.5198 24.8118 31.9887 25.8988 30.7138 26.2249C28.9078 26.5511 27.1017 27.0946 25.2957 27.6381C22.9585 28.3991 20.515 28.2904 18.1778 28.6165C17.7528 28.6165 17.2217 28.5078 16.7967 28.3991C16.053 28.1817 15.5219 27.7468 15.3094 26.8772C15.2031 25.8988 15.0969 24.9205 16.053 24.3769C16.6905 23.9421 17.3279 23.5073 17.9653 23.2899C20.94 22.2028 23.8084 21.1157 26.9955 21.1157Z" fill="#FFB63B"/>
<path fill-rule="evenodd" clip-rule="evenodd" d="M92.9705 71.0127C93.2892 71.3388 93.5017 71.5562 93.8204 71.7737C95.9452 73.1868 97.0075 75.361 97.9637 77.7525C99.1323 80.6876 98.1761 82.9704 96.4763 85.1446C94.1391 87.9709 91.0582 89.4928 87.5524 89.8189C87.1274 89.8189 86.5963 89.9277 86.1713 89.9277C83.1967 90.4712 81.0719 89.1667 79.4784 86.8839C79.1596 86.4491 78.8409 85.9055 78.7347 85.362C78.5222 83.0791 78.3097 80.7963 78.2035 78.5135C78.0973 77.1003 78.6284 75.9045 79.7971 75.0349C80.222 74.7087 80.4345 74.1652 80.7532 73.7304C80.5407 73.513 80.3282 73.2956 80.222 73.2956C74.0602 73.9478 68.0047 74.6 61.6305 75.2523C61.9492 75.9045 62.0554 76.3393 62.3741 76.7742C63.649 79.1657 64.1802 81.7747 64.4989 84.4923C64.6051 85.4707 64.2864 86.3403 63.7552 87.21C62.4804 89.058 60.7806 90.6886 58.8683 91.8844C56.5311 93.4063 53.8751 93.6237 51.3254 93.2976C49.7319 93.0802 48.1383 92.3192 46.5447 91.667C46.0135 91.4496 45.4824 90.906 45.0574 90.3625C42.4015 87.4274 42.0828 83.8401 42.6139 80.1441C42.7202 79.4918 43.2514 78.7309 43.6763 78.1874C44.3137 77.209 45.0574 76.448 45.6948 75.5784C45.3761 74.2739 44.2075 73.9478 43.4638 73.0781C40.2767 58.0766 36.2397 43.1838 34.0087 27.8562C31.0341 28.7259 28.3781 29.5955 25.5097 30.2478C22.7475 30.7913 19.9854 31.1174 17.2232 31.3348C16.0546 31.3348 14.886 30.7913 13.8236 30.139C13.1862 29.7042 12.8674 28.8346 12.4425 28.0736C12.23 27.5301 12.3363 26.9866 12.1238 26.3343C11.4864 23.7254 13.3986 21.2251 15.8421 20.899C17.8606 20.5729 19.7729 19.5945 21.7914 19.2684C24.766 18.7249 27.7407 18.3987 30.6091 18.0726C31.3528 17.9639 32.0964 18.29 32.7339 18.5074C33.5838 18.8336 34.1149 19.4858 34.3274 20.3555C34.9648 23.1818 35.496 26.1169 36.3459 28.9433C37.0896 31.6609 37.6208 34.2699 38.0457 36.9876C38.0457 37.205 38.2582 37.5311 38.4707 37.8572C40.1705 37.6398 41.8703 37.4224 43.5701 36.6614C45.2699 36.0092 46.9697 35.6831 48.6695 35.357C51.3254 34.8134 53.8751 33.8351 56.4248 33.0741C59.0808 32.3132 61.7367 31.4435 64.6051 31.2261C65.6675 31.1174 66.8361 30.7913 67.8985 30.4652C74.2727 28.6172 80.8594 27.6388 87.4462 27.0953C88.9335 26.9866 90.4208 26.6604 91.8019 26.3343C93.7142 25.8995 95.6264 25.7908 97.645 25.5734C98.3886 25.4647 99.026 25.8995 99.1323 26.6604C99.3448 27.6388 99.5572 28.7259 99.5572 29.7042C99.7697 36.2266 98.8136 42.3142 98.1761 48.293C97.8574 50.902 97.4325 53.6197 97.1138 56.2286C96.7951 58.6202 96.2639 60.7943 95.414 62.9684C94.8828 64.4903 94.6703 66.1209 94.2454 67.6428C93.9266 68.7299 93.5017 69.7082 92.9705 71.0127ZM46.651 72.3172C47.6071 72.5346 48.3508 72.752 49.0944 72.9694C51.4317 73.4043 53.7689 72.9694 55.9999 72.752C65.455 71.8824 74.9101 70.7953 84.3653 69.7082C86.49 69.4908 88.5085 68.6212 90.6333 68.1863C90.6333 66.7732 90.8458 65.4687 91.8019 64.4903C91.9081 64.3816 92.0144 64.1642 92.0144 63.9468C93.2892 60.3595 94.2454 56.6634 94.6703 52.8587C95.3077 47.9669 95.9452 43.0751 96.4763 38.0746C96.7951 35.0308 96.9013 32.0958 97.1138 29.052C95.5202 28.6172 94.4578 28.5084 92.8643 29.052C89.7834 30.0303 86.49 30.139 83.3029 30.7913C80.0095 31.4435 76.7162 31.8784 73.4228 32.4219C69.8107 33.1828 66.1987 34.4873 62.4804 34.7047C61.7367 34.7047 60.993 35.0308 60.2494 35.2483C55.8936 36.3353 51.7504 38.0746 47.2884 38.5095C46.9697 38.5095 46.7572 38.7269 46.4385 38.7269C44.42 39.2704 42.5077 39.7052 40.4892 40.2488C40.1705 40.3575 39.8518 40.5749 39.4268 40.7923C39.4268 41.2271 39.3206 41.5532 39.4268 41.9881C41.8703 52.0978 44.2075 62.0988 46.651 72.3172ZM54.0876 90.2538C55.9999 90.3625 57.4872 89.4928 58.8683 88.2971C62.1616 85.4707 62.2679 85.0359 61.2055 80.905C61.0993 80.3615 60.993 79.7092 60.7806 79.2744C60.4618 78.5135 60.0369 77.7525 59.6119 76.9916C58.9745 76.0132 58.1246 75.6871 56.956 75.7958C54.5125 76.1219 52.1753 76.3393 49.7319 76.6655C49.2007 76.7742 48.6695 77.1003 48.2445 77.4264C47.3946 78.2961 46.651 79.2744 46.0135 80.3615C45.8011 80.6876 45.5886 81.2311 45.5886 81.666C45.5886 82.9704 45.5886 84.3836 45.9073 85.5794C46.3323 87.5361 47.5009 88.9493 49.5194 89.6015C51.0067 90.2538 52.494 90.5799 54.0876 90.2538ZM88.2961 72.0998C87.2337 72.6433 86.49 72.9694 85.8526 73.513C82.2405 76.2306 80.4345 77.7525 81.4969 82.3182C81.6031 82.753 81.6031 83.2966 81.7093 83.7314C82.028 85.7968 83.3029 86.8839 85.3214 86.8839C86.3838 86.8839 87.3399 86.7752 88.4023 86.5578C90.7395 86.1229 92.758 85.1446 94.3516 83.1879C95.2015 82.2095 95.9452 81.1224 95.7327 79.8179C95.2015 76.8829 94.0329 74.1652 91.0582 72.8607C90.1021 72.6433 89.2522 72.4259 88.2961 72.0998ZM26.997 21.1164C23.8099 21.0077 20.9415 22.2035 17.9668 23.1818C17.3294 23.3992 16.692 23.8341 16.0546 24.2689C15.0984 24.9211 15.2047 25.7908 15.3109 26.7691C15.4171 27.6388 15.9483 28.0736 16.7982 28.291C17.2232 28.3997 17.7544 28.6172 18.1793 28.5084C20.5165 28.1823 22.96 28.291 25.2972 27.5301C27.1033 26.9866 28.9093 26.443 30.7153 26.1169C31.9902 25.8995 32.6276 24.8124 32.5214 23.6167C32.5214 23.0731 32.4151 22.5296 32.3089 21.8773C32.0964 21.0077 31.6715 20.4642 30.8216 20.5729C29.4405 20.7903 28.1656 21.0077 26.997 21.1164Z" fill="#192C32"/>
<path fill-rule="evenodd" clip-rule="evenodd" d="M77.036 53.8364C71.1929 54.7061 65.4561 55.6844 59.8255 57.0976C56.9571 57.8586 53.8762 57.8586 51.0078 58.076C50.6891 58.076 50.3703 58.076 50.1579 57.9673C49.8392 57.7499 49.6267 57.5324 49.5204 57.2063C49.4142 56.9889 49.6267 56.6628 49.8392 56.5541C50.3703 56.3367 50.9015 56.0105 51.3265 56.0105C55.7885 55.6844 60.038 54.2712 64.4999 53.4016C69.7056 52.4232 74.9112 51.2275 80.2231 50.9013C80.9667 50.9013 81.7104 50.7926 82.4541 50.9013C82.9853 50.9013 83.5164 51.5536 83.4102 52.0971C83.4102 52.6406 83.0915 52.9668 82.5603 53.1842C82.1353 53.2929 81.7104 53.4016 81.1792 53.5103C79.7981 53.5103 78.417 53.619 77.036 53.8364Z" fill="#192C32"/>
<path fill-rule="evenodd" clip-rule="evenodd" d="M83.5176 40.7911C82.8802 42.0955 81.8178 42.6391 80.6492 42.7478C78.6307 42.9652 76.6122 43.1826 74.5937 43.5087C72.2564 43.8348 70.0255 44.2697 67.6882 44.5958C66.8383 44.7045 66.0947 44.9219 65.2448 45.0306C61.8452 45.248 58.658 46.1177 55.4709 47.3134C52.4963 48.5092 49.4154 49.0528 46.2283 49.1615C45.8033 48.6179 46.122 48.2918 46.4407 48.0744C46.8657 47.7483 47.3969 47.5309 47.9281 47.4222C49.9466 47.2047 51.8588 46.4438 53.7711 45.6828C57.4894 44.2697 61.2077 43.4 65.1385 42.7478C70.2379 41.8781 75.4436 41.1172 80.6492 40.6823C81.6053 40.5736 82.4552 40.2475 83.5176 40.7911Z" fill="#192C32"/>
<path fill-rule="evenodd" clip-rule="evenodd" d="M66.9417 65.0337C64.6045 65.2511 62.3735 65.5772 60.0363 65.7946C58.2303 65.9034 56.5305 66.2295 54.9369 67.0991C54.512 67.3165 54.087 67.4252 53.6621 66.9904C53.3433 66.6643 53.5558 66.0121 54.1932 65.5772C55.4681 64.5989 56.8492 63.9466 58.549 63.7292C64.0733 63.077 69.5977 62.5334 75.122 61.8812C75.6532 61.7725 76.2906 61.8812 76.7156 61.9899C77.0343 62.0986 77.353 62.5335 77.353 62.8596C77.353 63.1857 77.1405 63.6205 76.8218 63.7292C76.1844 63.9466 75.547 64.0553 74.9095 64.164C72.3598 64.4902 69.5977 64.8163 66.9417 65.0337Z" fill="#192C32"/>
<path fill-rule="evenodd" clip-rule="evenodd" d="M55.5762 81.5565C55.5762 81.6652 55.5762 81.9913 55.5762 82.3175C55.4699 83.4045 54.9387 84.1655 53.9826 84.3829C53.0265 84.709 52.0703 84.3829 51.5391 83.6219C50.9017 82.861 50.9017 81.4478 51.4329 80.6869C51.8578 80.1433 52.2828 79.7085 52.814 79.2737C54.1951 78.2953 55.2574 78.8388 55.5762 80.5781C55.4699 80.9043 55.4699 81.013 55.5762 81.5565Z" fill="#192C32"/>
<path fill-rule="evenodd" clip-rule="evenodd" d="M89.1469 76.8806C89.4656 76.8806 89.9968 76.8806 90.528 76.9893C91.9091 77.3154 92.5465 78.8373 91.9091 80.0331C91.8029 80.2505 91.5904 80.4679 91.4842 80.6853C90.7405 81.6637 89.8906 82.2072 88.6157 81.8811C87.5534 81.555 86.9159 80.794 86.7035 79.3809C86.491 77.7503 87.0222 77.098 89.1469 76.8806Z" fill="#192C32"/>
<path fill-rule="evenodd" clip-rule="evenodd" d="M89.4637 2.96078C92.0134 2.52596 94.4569 2.41725 97.0066 2.96078C97.4315 3.06949 97.9627 3.06949 98.3876 3.2869C101.681 5.13492 104.443 7.52646 105.081 11.5486C105.187 12.0921 105.187 12.7444 105.399 13.1792C106.249 15.5707 105.824 17.8536 105.081 20.1364C104.868 20.7887 104.656 21.4409 104.337 21.9844C102.531 24.5934 100.3 26.7675 97.4315 28.072C95.5192 28.9417 93.2882 29.4852 91.1635 29.4852C87.7639 29.4852 84.4705 28.6155 82.1333 25.7892C81.4959 25.0282 80.8585 24.376 80.1148 23.7237C79.0524 22.8541 78.415 21.6583 78.0963 20.3538C77.4589 17.8536 76.9277 15.3533 77.5651 12.7444C77.7776 11.9834 77.6713 11.2225 77.6713 10.4615C77.6713 8.93965 78.3087 7.74387 79.3711 6.76551C81.7083 4.70009 84.1518 2.85208 87.5514 2.85208C88.1888 3.1782 88.8263 3.06949 89.4637 2.96078ZM89.5699 14.0489C88.5076 14.9185 87.4452 14.7011 86.489 14.9185C85.5329 15.1359 84.4705 15.2446 83.5144 15.462C82.9832 15.5707 82.5583 16.1143 82.6645 16.7665C82.7707 17.4188 83.1957 17.7449 83.8331 17.8536C84.683 17.9623 85.5329 17.8536 86.3828 17.8536C87.5514 17.8536 88.72 17.4188 90.1011 17.8536C90.5261 19.5929 90.8448 21.3322 91.2697 23.0715C91.376 23.3976 91.4822 23.8324 91.5884 24.1586C91.9071 24.8108 92.6508 25.1369 93.182 25.0282C93.8194 24.9195 94.3506 24.2673 94.4569 23.615C94.4569 23.1802 94.4569 22.6367 94.4569 22.2018C94.2444 20.68 93.9257 19.0494 93.6069 17.4188C94.1381 17.3101 94.6693 17.0926 95.2005 16.9839C96.1566 16.8752 97.0065 16.7665 97.9627 16.6578C99.3438 16.6578 100.087 15.8969 100.087 14.9185C100.087 13.8314 99.1313 13.3966 97.5377 13.5053C96.5816 13.614 95.7317 13.7227 94.7756 13.8314C94.2444 13.8314 93.7132 13.7227 93.0758 13.7227C92.8633 11.9834 92.6508 10.3528 92.4383 8.72223C92.3321 8.06999 92.2259 7.41775 92.0134 6.76551C91.8009 6.11327 91.0572 5.67845 90.4198 5.78715C89.7824 5.89586 89.3574 6.33069 89.3574 6.87422C89.2512 7.63517 89.2512 8.39611 89.3574 9.15706C89.3574 11.0051 89.4637 12.6357 89.5699 14.0489Z" fill="#1CBB6F"/>
<path fill-rule="evenodd" clip-rule="evenodd" d="M89.0397 0.461691C89.9958 0.352985 90.8457 0.352985 91.8018 0.135571C93.9266 -0.190548 96.0513 0.135572 98.1761 0.461691C98.601 0.570398 99.1322 0.679104 99.4509 0.896517C103.594 3.17936 106.888 6.22314 107.737 11.3323C107.844 11.9846 107.95 12.6368 108.162 13.2891C109.225 17.0938 108.481 20.7898 106.356 23.9423C103.7 27.9645 100.195 31.1169 95.3077 32.0953C94.9889 32.204 94.564 32.204 94.2453 32.3127C89.9958 33.7259 86.1712 32.4214 82.4529 30.4647C81.603 30.0299 80.8594 29.1602 80.1157 28.508C79.4783 27.8557 78.8409 27.0948 78.2034 26.4426C76.3974 24.9207 75.335 22.964 74.8038 20.6811C74.3789 18.6157 74.1664 16.5503 74.0602 14.4848C73.9539 13.8326 74.2726 13.1804 74.4851 12.5281C74.5914 11.9846 74.9101 11.4411 75.0163 10.8975C75.8662 7.09279 78.3097 4.37513 81.2843 2.09229C82.2405 1.33134 83.1966 0.896517 84.259 0.679104C85.8525 0.461691 87.4461 0.352985 88.9334 0.135571C89.0396 0.352985 89.0397 0.461691 89.0397 0.461691ZM89.4646 2.96194C88.8272 3.07065 88.1898 3.17936 87.5523 3.17936C84.259 3.17936 81.7093 4.91866 79.372 7.09279C78.2034 8.07115 77.6722 9.26692 77.6722 10.7888C77.6722 11.5498 77.6722 12.3107 77.566 13.0717C76.9286 15.6806 77.4598 18.1809 78.0972 20.6811C78.4159 21.9856 79.1596 23.0727 80.1157 24.051C80.8594 24.7033 81.4968 25.3555 82.1342 26.1164C84.5777 28.9428 87.7648 29.8125 91.1644 29.8125C93.2892 29.8125 95.4139 29.2689 97.4324 28.3993C100.301 27.0948 102.426 24.812 104.338 22.3117C104.763 21.7682 104.869 21.1159 105.082 20.4637C105.825 18.1809 106.25 15.898 105.4 13.5065C105.188 12.9629 105.188 12.4194 105.082 11.8759C104.444 7.85374 101.682 5.46219 98.3885 3.61418C97.9636 3.39677 97.5387 3.39677 97.0075 3.28806C94.4578 2.41841 92.0143 2.63582 89.4646 2.96194Z" fill="#192C32"/>
<path fill-rule="evenodd" clip-rule="evenodd" d="M89.5718 14.0508C89.4656 12.5289 89.2531 11.007 89.1469 9.37637C89.1469 8.61542 89.1469 7.85448 89.1469 7.09353C89.2531 6.44129 89.678 6.11517 90.2092 6.00647C90.8467 5.89776 91.4841 6.22388 91.8028 6.98483C92.0153 7.63706 92.1215 8.2893 92.2277 8.94154C92.4402 10.5721 92.6527 12.094 92.8652 13.942C93.5026 13.942 94.0338 14.0508 94.565 14.0508C95.5211 13.942 96.371 13.8333 97.3271 13.7246C99.0269 13.6159 99.8768 14.0508 99.8768 15.1378C99.8768 16.1162 99.0269 16.8771 97.7521 16.8771C96.7959 16.8771 95.9461 17.0945 94.9899 17.2032C94.4587 17.3119 93.9275 17.4207 93.3964 17.6381C93.7151 19.3774 94.0338 20.8993 94.2462 22.4212C94.3525 22.856 94.3525 23.3995 94.2462 23.8343C94.14 24.4866 93.6088 25.0301 92.9714 25.2475C92.334 25.3562 91.5903 25.0301 91.3778 24.3779C91.2716 24.0518 91.1654 23.6169 91.0591 23.2908C90.6342 21.5515 90.3155 19.8122 89.8905 18.0729C88.5094 17.6381 87.3408 18.0729 86.1722 18.0729C85.3223 18.0729 84.4724 18.0729 83.6225 18.0729C83.0913 18.0729 82.5601 17.6381 82.4539 16.9858C82.3477 16.3336 82.7726 15.8988 83.3038 15.6814C84.2599 15.4639 85.3223 15.3552 86.2784 15.1378C87.447 14.8117 88.5094 15.0291 89.5718 14.0508Z" fill="#192C32"/>
<path d="M118.898 97.5842C118.792 96.0623 118.473 94.5404 118.261 93.1272C118.155 92.5837 117.836 92.0401 117.517 91.714C116.349 90.4095 115.18 89.2138 113.586 88.4528C111.78 87.5832 109.868 87.3658 107.956 87.2571C106.044 87.1483 104.238 87.4745 102.856 88.8877C102.538 89.2138 102.113 89.4312 101.688 89.7573C100.094 90.8444 99.5631 92.5837 99.6693 94.323C99.7755 95.5188 99.6693 96.7145 99.6693 97.9103C99.7755 99.7583 99.8818 101.606 101.794 102.585C102.007 102.693 102.113 102.911 102.219 103.128C103.919 104.541 105.619 105.628 107.85 105.302C108.275 105.302 108.593 105.302 109.018 105.302C109.443 105.302 109.974 105.302 110.399 105.302C112.312 105.52 114.011 104.759 115.711 103.78C118.048 102.259 119.005 100.193 118.898 97.5842Z" fill="#FFB63B"/>
<path fill-rule="evenodd" clip-rule="evenodd" d="M109.23 107.912C109.018 107.912 108.805 107.912 108.487 107.912C104.768 108.455 101.9 106.39 99.2439 104.216C97.4379 102.694 96.9067 100.52 97.0129 98.2368C97.0129 97.2584 97.2254 96.2801 97.1192 95.4104C97.1192 93.8885 97.4379 92.3666 97.9691 90.9535C98.394 89.7577 99.1377 88.6706 100.2 87.9097C100.944 87.3661 101.581 86.9313 102.219 86.2791C103.175 85.4094 104.237 84.9746 105.406 84.9746C108.912 84.7572 112.205 84.9746 115.392 86.7139C117.198 87.6923 118.473 89.1054 119.748 90.6273C120.173 91.1709 120.385 92.0405 120.598 92.8015C120.916 93.9972 121.023 95.3017 121.235 96.6062C121.66 99.2152 121.235 101.824 119.429 103.781C117.304 106.172 114.648 107.912 111.355 107.912C110.718 107.912 109.974 107.912 109.23 107.912ZM109.018 105.194C109.443 105.194 109.974 105.194 110.399 105.194C112.311 105.411 114.011 104.65 115.711 103.672C118.048 102.259 119.004 100.194 118.898 97.4759C118.792 95.954 118.473 94.4321 118.26 93.0189C118.154 92.4754 117.835 91.9318 117.517 91.6057C116.348 90.3012 115.18 89.1054 113.586 88.3445C111.78 87.4749 109.868 87.2574 107.955 87.1487C106.043 87.04 104.237 87.3661 102.856 88.7793C102.537 89.1055 102.112 89.3229 101.687 89.649C100.094 90.7361 99.5626 92.4754 99.6689 94.2147C99.7751 95.4104 99.6689 96.6062 99.6689 97.802C99.7751 99.65 99.8813 101.498 101.794 102.476C102.006 102.585 102.112 102.802 102.219 103.02C103.918 104.433 105.618 105.52 107.849 105.194C108.274 105.194 108.699 105.194 109.018 105.194Z" fill="#192C32"/>
<path fill-rule="evenodd" clip-rule="evenodd" d="M106.891 90.4102C107.954 88.4535 108.272 88.4535 109.335 90.1928C109.335 90.3015 109.441 90.3015 109.653 90.5189C109.972 90.5189 110.503 90.5189 111.035 90.6276C111.46 90.7363 111.778 90.845 112.097 91.0625C112.522 91.3886 112.947 91.7147 112.841 92.3669C112.734 92.8018 112.309 93.1279 111.566 93.0192C110.928 92.9105 110.397 92.6931 109.76 93.2366C109.76 93.5627 109.866 93.7801 109.972 94.1062C110.078 94.4324 110.291 94.8672 110.503 95.302C111.353 95.302 112.097 95.302 112.841 95.4107C113.478 95.5194 114.115 95.6281 114.647 95.9543C116.346 96.9326 116.453 98.998 115.178 100.411C114.222 101.39 112.947 101.607 111.778 102.151C111.778 102.477 111.672 102.911 111.672 103.238C111.672 103.89 111.247 104.325 110.716 104.433C110.078 104.542 109.653 104.325 109.335 103.781C109.122 103.455 109.016 103.129 108.804 102.694C108.272 102.585 107.741 102.585 107.21 102.477C106.254 102.368 105.723 101.716 105.298 100.955C105.085 100.52 105.085 99.9764 105.404 99.6503C105.723 99.2155 106.254 99.2155 106.679 99.4329C106.785 99.5416 106.891 99.5416 107.104 99.6503C107.529 99.9764 108.06 100.411 108.485 99.759C108.91 99.2155 108.485 98.0197 107.847 97.6936C107.104 97.3674 106.36 97.2587 105.616 97.0413C104.66 96.8239 103.917 96.3891 103.279 95.6281C102.748 94.9759 102.642 94.3237 102.961 93.6714C103.598 92.1495 104.554 90.9537 106.254 90.6276C106.148 90.5189 106.573 90.5189 106.891 90.4102ZM107.422 94.8672C107.422 93.9975 107.423 93.2366 106.679 93.1279C105.829 92.9105 105.404 93.5627 105.192 94.3237C105.723 94.9759 106.466 94.8672 107.422 94.8672ZM110.928 99.5416C111.991 99.2155 112.947 99.2155 113.053 98.0197C112.309 97.8023 111.672 97.6936 111.035 97.911C110.928 97.911 110.822 98.1284 110.716 98.2371C110.61 98.5632 110.716 98.8893 110.928 99.5416Z" fill="#192C32"/>
<path d="M21.7889 76.4472C21.6827 74.9253 21.364 73.4034 21.1515 71.9902C21.0452 71.4467 20.7265 70.9032 20.4078 70.5771C19.2392 69.2726 18.0706 68.0768 16.477 67.3159C14.671 66.4462 12.7587 66.2288 10.8464 66.1201C8.93417 66.0114 7.12813 66.3375 5.74704 67.7507C5.32209 68.1855 4.89714 68.4029 4.57843 68.6203C2.98487 69.7074 2.45368 71.4467 2.55992 73.186C2.66616 74.3818 2.55992 75.5776 2.55992 76.7733C2.66616 78.6213 2.77239 80.4694 4.68467 81.4477C4.89714 81.5564 5.00338 81.7738 5.10962 81.9912C6.80942 83.4044 8.50922 84.4915 10.7402 84.1654C11.1652 84.1654 11.4839 84.1654 11.9088 84.1654C12.3338 84.1654 12.865 84.1654 13.2899 84.1654C15.2022 84.3828 16.902 83.6218 18.6018 82.6435C21.0452 81.2303 22.0014 79.1649 21.7889 76.4472Z" fill="#FFB63B"/>
<path fill-rule="evenodd" clip-rule="evenodd" d="M12.2302 86.8834C12.0178 86.8834 11.8053 86.8834 11.4866 86.8834C7.76827 87.427 4.89986 85.3615 2.24392 83.1874C0.437882 81.5568 -0.0933054 79.3827 0.0129321 77.0998C0.0129321 76.1215 0.225407 75.1431 0.11917 74.2735C0.11917 72.7516 0.437882 71.2297 0.969069 69.8165C1.39402 68.6207 2.13768 67.5337 3.20006 66.7727C3.94372 66.2292 4.58114 65.7944 5.21857 65.1421C6.17471 64.2725 7.23708 63.8376 8.40569 63.8376C11.9115 63.6202 15.2049 63.8376 18.392 65.5769C20.1981 66.5553 21.4729 67.9685 22.7478 69.4904C23.1727 70.0339 23.3852 70.9036 23.5977 71.6645C23.9164 72.8603 24.0226 74.1648 24.2351 75.4692C24.66 78.0782 24.2351 80.6872 22.429 82.6439C20.3043 85.0354 17.6484 86.7747 14.355 86.7747C13.6113 86.8834 12.9739 86.8834 12.2302 86.8834ZM12.0178 84.1658C12.4427 84.1658 12.9739 84.1658 13.3989 84.1658C15.3111 84.3832 17.0109 83.6222 18.7107 82.6439C21.048 81.2307 22.0041 79.1653 21.8979 76.4476C21.7916 74.9257 21.4729 73.4038 21.2604 71.9906C21.1542 71.4471 20.8355 70.9036 20.5168 70.5774C19.3482 69.273 18.1795 68.0772 16.586 67.3162C14.7799 66.4466 12.8677 66.2292 10.9554 66.1205C9.04312 66.0118 7.23708 66.3379 5.85599 67.7511C5.32481 68.1859 4.89986 68.4033 4.58114 68.6207C2.98758 69.7078 2.45639 71.4471 2.56263 73.1864C2.66887 74.3822 2.56263 75.5779 2.56263 76.7737C2.66887 78.6217 2.77511 80.4697 4.68738 81.4481C4.89986 81.5568 5.00609 81.7742 5.11233 81.9916C6.81213 83.4048 8.51193 84.4919 10.7429 84.1658C11.1679 84.0571 11.5928 84.1658 12.0178 84.1658Z" fill="#192C32"/>
<path fill-rule="evenodd" clip-rule="evenodd" d="M9.78584 69.3819C10.8482 67.4252 11.1669 67.4252 12.2293 69.1645C12.2293 69.2732 12.3355 69.2732 12.548 69.4906C12.8667 69.4906 13.3979 69.4906 13.9291 69.5993C14.3541 69.708 14.6728 69.8167 14.9915 70.0341C15.4164 70.3603 15.8414 70.6864 15.7351 71.3386C15.6289 71.7734 15.204 72.0996 14.4603 71.9909C13.8229 71.8822 13.2917 71.6647 12.6543 72.2083C12.6543 72.5344 12.7605 72.7518 12.8667 73.0779C12.973 73.404 13.1854 73.8389 13.3979 74.2737C14.2478 74.2737 14.9915 74.2737 15.7351 74.3824C16.3726 74.4911 17.01 74.5998 17.5412 74.9259C19.241 75.9043 19.3472 77.9697 18.0724 79.3829C17.1162 80.3613 15.8414 80.5787 14.6728 81.1222C14.6728 81.4483 14.5665 81.8832 14.5665 82.2093C14.5665 82.8615 14.1416 83.2963 13.6104 83.4051C12.973 83.5138 12.548 83.2963 12.2293 82.7528C12.0168 82.4267 11.9106 82.1006 11.6981 81.6657C11.1669 81.557 10.6357 81.557 10.1046 81.4483C9.14842 81.3396 8.61723 80.6874 8.19228 79.9264C7.97981 79.4916 7.97981 78.9481 8.29852 78.622C8.61723 78.1871 9.14842 78.1871 9.57337 78.4045C9.67961 78.5133 9.78584 78.5133 9.99832 78.622C10.4233 78.9481 10.9545 79.3829 11.3794 78.7307C11.8044 78.1871 11.3794 76.9914 10.742 76.6652C9.99832 76.3391 9.25466 76.2304 8.51099 76.013C7.55486 75.7956 6.81119 75.3608 6.17377 74.5998C5.64258 73.9476 5.53634 73.2953 5.85506 72.6431C6.49248 71.1212 7.44862 69.9254 9.14842 69.5993C9.04218 69.4906 9.46713 69.3819 9.78584 69.3819ZM10.4233 73.7302C10.4233 72.8605 10.4233 72.0996 9.67961 71.9909C8.82971 71.7735 8.40476 72.4257 8.19228 73.1866C8.72347 73.9476 9.46713 73.8389 10.4233 73.7302ZM13.8229 78.4045C14.8852 78.0784 15.8414 78.0784 15.9476 76.8827C15.204 76.6652 14.5665 76.5565 13.9291 76.7739C13.8229 76.7739 13.7166 76.9914 13.6104 77.1001C13.6104 77.5349 13.7166 77.861 13.8229 78.4045Z" fill="#192C32"/>
</svg>
