<svg width="72" height="40" viewBox="0 0 72 40" fill="none"
    xmlns="http://www.w3.org/2000/svg">
    <!-- <defs>
        <filter id="shadow">
            <feDropShadow dx="2" dy="4" sdtDeviation="2" flood-color="rgba(0,0,0,1)"/>
        </filter>
    </defs>
    <g filter="url(#shadow)"> -->
        <mask id="path-1-outside-1_386_896" maskUnits="userSpaceOnUse" x="0" y="0" width="72" height="40" fill="black">
            <rect fill="white" width="72" height="40"/>
            <path fill-rule="evenodd" clip-rule="evenodd" d="M10.5 4C10.5 2.89543 11.3954 2 12.5 2H59.5C60.6046 2 61.5 2.89543 61.5 4V7.71438C61.5 8.81895 62.4128 9.68774 63.4742 9.99326C67.2166 11.0704 70 15.1419 70 20.0001C70 24.8583 67.2166 28.9298 63.4742 30.0069C62.4128 30.3124 61.5 31.1812 61.5 32.2858V36C61.5 37.1046 60.6046 38 59.5 38H12.5C11.3954 38 10.5 37.1046 10.5 36V32.2858C10.5 31.1812 9.58724 30.3124 8.52577 30.0069C4.7834 28.9298 2 24.8583 2 20.0001C2 15.1419 4.7834 11.0704 8.52576 9.99325C9.58724 9.68774 10.5 8.81895 10.5 7.71438V4Z"/>
        </mask>
        <path fill-rule="evenodd" clip-rule="evenodd" d="M10.5 4C10.5 2.89543 11.3954 2 12.5 2H59.5C60.6046 2 61.5 2.89543 61.5 4V7.71438C61.5 8.81895 62.4128 9.68774 63.4742 9.99326C67.2166 11.0704 70 15.1419 70 20.0001C70 24.8583 67.2166 28.9298 63.4742 30.0069C62.4128 30.3124 61.5 31.1812 61.5 32.2858V36C61.5 37.1046 60.6046 38 59.5 38H12.5C11.3954 38 10.5 37.1046 10.5 36V32.2858C10.5 31.1812 9.58724 30.3124 8.52577 30.0069C4.7834 28.9298 2 24.8583 2 20.0001C2 15.1419 4.7834 11.0704 8.52576 9.99325C9.58724 9.68774 10.5 8.81895 10.5 7.71438V4Z" fill="#8DA89E"/>
        <path d="M63.4742 30.0069L64.0274 31.9289L63.4742 30.0069ZM61.5 7.71438L59.5 7.71438L61.5 7.71438ZM61.5 36L59.5 36L61.5 36ZM61.5 4L63.5 4L61.5 4ZM59.5 0H12.5V4H59.5V0ZM63.5 7.71438V4L59.5 4V7.71438L63.5 7.71438ZM62.9211 11.9152C65.6189 12.6917 68 15.8215 68 20.0001H72C72 14.4622 68.8143 9.44902 64.0274 8.07128L62.9211 11.9152ZM68 20.0001C68 24.1786 65.6189 27.3085 62.9211 28.085L64.0274 31.9289C68.8143 30.5512 72 25.5379 72 20.0001H68ZM63.5 36V32.2858L59.5 32.2858V36L63.5 36ZM12.5 40H59.5V36H12.5V40ZM8.5 32.2858V36H12.5V32.2858H8.5ZM0 20.0001C0 25.5379 3.18575 30.5512 7.97259 31.9289L9.07894 28.085C6.38106 27.3085 4 24.1786 4 20.0001H0ZM7.97258 8.07128C3.18575 9.44902 0 14.4622 0 20.0001H4C4 15.8215 6.38106 12.6917 9.07894 11.9152L7.97258 8.07128ZM8.5 4V7.71438H12.5V4H8.5ZM9.07894 11.9152C10.6667 11.4583 12.5 10.0127 12.5 7.71438H8.5C8.5 7.71446 8.5 7.71387 8.50011 7.7128C8.50022 7.71174 8.50038 7.71073 8.50055 7.70993C8.50094 7.70804 8.50091 7.70936 8.49876 7.71445C8.49431 7.72496 8.47867 7.75618 8.43701 7.8016C8.34604 7.90079 8.18131 8.0112 7.97258 8.07128L9.07894 11.9152ZM12.5 32.2858C12.5 29.9874 10.6667 28.5419 9.07894 28.085L7.97259 31.9289C8.18131 31.989 8.34604 32.0994 8.43701 32.1986C8.47867 32.244 8.49431 32.2752 8.49875 32.2857C8.50091 32.2908 8.50094 32.2921 8.50055 32.2903C8.50038 32.2895 8.50022 32.2884 8.50011 32.2874C8.5 32.2863 8.5 32.2857 8.5 32.2858H12.5ZM12.5 36H8.5C8.5 38.2091 10.2909 40 12.5 40V36ZM62.9211 28.085C61.3333 28.5419 59.5 29.9874 59.5 32.2858L63.5 32.2858C63.5 32.2857 63.5 32.2863 63.4999 32.2874C63.4998 32.2885 63.4996 32.2895 63.4995 32.2903C63.4991 32.2921 63.4991 32.2908 63.5012 32.2857C63.5057 32.2752 63.5213 32.244 63.563 32.1986C63.654 32.0994 63.8187 31.989 64.0274 31.9289L62.9211 28.085ZM59.5 7.71438C59.5 10.0127 61.3333 11.4583 62.9211 11.9152L64.0274 8.07128C63.8187 8.0112 63.654 7.90079 63.563 7.8016C63.5213 7.75617 63.5057 7.72496 63.5012 7.71445C63.4991 7.70936 63.4991 7.70804 63.4995 7.70993C63.4996 7.71073 63.4998 7.71174 63.4999 7.7128C63.5 7.71387 63.5 7.71446 63.5 7.71438L59.5 7.71438ZM12.5 0C10.2909 0 8.5 1.79086 8.5 4H12.5V4V0ZM59.5 36V40C61.7091 40 63.5 38.2091 63.5 36L59.5 36ZM59.5 4L59.5 4L63.5 4C63.5 1.79086 61.7091 0 59.5 0V4Z" fill="#2A2F2D" mask="url(#path-1-outside-1_386_896)"/>
    <!-- </g> -->

</svg>
