<svg width="24" height="24" viewBox="0 0 24 24" fill="none" xmlns="http://www.w3.org/2000/svg">
<path fill-rule="evenodd" clip-rule="evenodd" d="M4.98786 2.98439C4.43462 2.43115 3.53763 2.43115 2.98439 2.98439C2.43115 3.53763 2.43115 4.43462 2.98439 4.98786L9.99654 12L2.98441 19.0121C2.43116 19.5654 2.43116 20.4624 2.98441 21.0156C3.53765 21.5689 4.43463 21.5689 4.98788 21.0156L12 14.0035L19.0121 21.0156C19.5654 21.5689 20.4624 21.5689 21.0156 21.0156C21.5689 20.4624 21.5689 19.5654 21.0156 19.0121L14.0035 12L21.0156 4.98786C21.5689 4.43462 21.5689 3.53763 21.0156 2.98439C20.4624 2.43115 19.5654 2.43115 19.0122 2.98439L12 9.99654L4.98786 2.98439Z" fill="#2A2F2D"/>
</svg>
