<svg width="124" height="26" viewBox="0 0 124 26" fill="none" xmlns="http://www.w3.org/2000/svg">
<rect width="124" height="26" fill="#192C32"/>
<path d="M36.1375 22.192C34.8575 22.192 33.6735 21.984 32.5855 21.568C31.5135 21.136 30.5775 20.536 29.7775 19.768C28.9935 18.984 28.3775 18.072 27.9295 17.032C27.4815 15.992 27.2575 14.848 27.2575 13.6C27.2575 12.352 27.4815 11.208 27.9295 10.168C28.3775 9.128 29.0015 8.224 29.8015 7.456C30.6015 6.672 31.5375 6.072 32.6095 5.656C33.6975 5.224 34.8815 5.008 36.1615 5.008C37.4575 5.008 38.6495 5.232 39.7375 5.68C40.8415 6.112 41.7775 6.76 42.5455 7.624L40.9855 9.136C40.3455 8.464 39.6255 7.968 38.8255 7.648C38.0255 7.312 37.1695 7.144 36.2575 7.144C35.3135 7.144 34.4335 7.304 33.6175 7.624C32.8175 7.944 32.1215 8.392 31.5295 8.968C30.9375 9.544 30.4735 10.232 30.1375 11.032C29.8175 11.816 29.6575 12.672 29.6575 13.6C29.6575 14.528 29.8175 15.392 30.1375 16.192C30.4735 16.976 30.9375 17.656 31.5295 18.232C32.1215 18.808 32.8175 19.256 33.6175 19.576C34.4335 19.896 35.3135 20.056 36.2575 20.056C37.1695 20.056 38.0255 19.896 38.8255 19.576C39.6255 19.24 40.3455 18.728 40.9855 18.04L42.5455 19.552C41.7775 20.416 40.8415 21.072 39.7375 21.52C38.6495 21.968 37.4495 22.192 36.1375 22.192ZM43.0268 22L50.6348 5.2H53.0108L60.6428 22H58.1228L51.3308 6.544H52.2908L45.4988 22H43.0268ZM46.2668 17.8L46.9148 15.88H56.3708L57.0668 17.8H46.2668ZM63.1489 22V5.2H69.7009C71.1729 5.2 72.4289 5.432 73.4689 5.896C74.5089 6.36 75.3089 7.032 75.8689 7.912C76.4289 8.792 76.7089 9.84 76.7089 11.056C76.7089 12.272 76.4289 13.32 75.8689 14.2C75.3089 15.064 74.5089 15.728 73.4689 16.192C72.4289 16.656 71.1729 16.888 69.7009 16.888H64.4689L65.5489 15.784V22H63.1489ZM74.3809 22L70.1089 15.904H72.6769L76.9969 22H74.3809ZM65.5489 16.024L64.4689 14.848H69.6289C71.1649 14.848 72.3249 14.52 73.1089 13.864C73.9089 13.192 74.3089 12.256 74.3089 11.056C74.3089 9.856 73.9089 8.928 73.1089 8.272C72.3249 7.616 71.1649 7.288 69.6289 7.288H64.4689L65.5489 6.088V16.024ZM80.5864 22V5.2H87.6664C89.4584 5.2 91.0344 5.552 92.3944 6.256C93.7704 6.96 94.8344 7.944 95.5864 9.208C96.3544 10.472 96.7384 11.936 96.7384 13.6C96.7384 15.264 96.3544 16.728 95.5864 17.992C94.8344 19.256 93.7704 20.24 92.3944 20.944C91.0344 21.648 89.4584 22 87.6664 22H80.5864ZM82.9864 19.912H87.5224C88.9144 19.912 90.1144 19.648 91.1224 19.12C92.1464 18.592 92.9384 17.856 93.4984 16.912C94.0584 15.952 94.3384 14.848 94.3384 13.6C94.3384 12.336 94.0584 11.232 93.4984 10.288C92.9384 9.344 92.1464 8.608 91.1224 8.08C90.1144 7.552 88.9144 7.288 87.5224 7.288H82.9864V19.912Z" fill="#DFE7EB"/>
</svg>
