<svg width="36" height="38" viewBox="0 0 36 38" fill="none" xmlns="http://www.w3.org/2000/svg">
<path d="M18 0.576172C27.9446 0.576172 36 8.82162 36 19.0009C36 29.1802 27.9446 37.4257 18 37.4257C8.05536 37.4257 0 29.1802 0 19.0009C0 8.82162 8.05536 0.576172 18 0.576172Z" fill="#0052FF"/>
<path d="M18.0211 25.4839C14.5332 25.4839 11.6889 22.5937 11.6889 19.0023C11.6889 15.4108 14.5124 12.5207 18.0211 12.5207C21.156 12.5207 23.7512 14.8583 24.2494 17.9185H30.6231C30.0833 11.2668 24.6439 6.03906 18.0003 6.03906C11.0038 6.03906 5.33594 11.8406 5.33594 19.0023C5.33594 26.1639 11.0038 31.9655 18.0003 31.9655C24.6439 31.9655 30.0833 26.7377 30.6231 20.0861H24.2494C23.7512 23.1462 21.156 25.4839 18.0211 25.4839Z" fill="white"/>
</svg>
