<svg width="70" height="32" viewBox="0 0 70 32" fill="none" xmlns="http://www.w3.org/2000/svg">
<path d="M33.0876 17.6608V25.6242H30.4634V5.92969H37.2863C38.9483 5.92969 40.5228 6.52909 41.7474 7.64226C42.972 8.6698 43.5843 10.2111 43.5843 11.8381C43.5843 13.465 42.972 14.9207 41.7474 16.0338C40.5228 17.147 39.0357 17.7464 37.2863 17.7464L33.0876 17.6608ZM33.0876 8.32728V15.1776H37.4612C38.4234 15.1776 39.3856 14.835 39.9979 14.15C41.3975 12.8656 41.3975 10.7249 40.0854 9.44045L39.9979 9.35483C39.2981 8.6698 38.4234 8.24166 37.4612 8.32728H33.0876Z" fill="#5F6267"/>
<path d="M49.6186 11.752C51.543 11.752 53.0301 12.2657 54.1672 13.2933C55.3044 14.3208 55.8292 15.6909 55.8292 17.4034V25.6238H53.38V23.7399H53.2925C52.2428 25.2812 50.7558 26.0519 49.0063 26.0519C47.5193 26.0519 46.2072 25.6238 45.1575 24.7675C44.1953 23.9112 43.583 22.7124 43.583 21.428C43.583 20.0579 44.1078 18.9447 45.1575 18.0885C46.2072 17.2322 47.6942 16.8897 49.4437 16.8897C51.0182 16.8897 52.2428 17.1465 53.205 17.7459V17.1465C53.205 16.2903 52.8551 15.434 52.1554 14.9202C51.4556 14.3208 50.5808 13.9783 49.6186 13.9783C48.1316 13.9783 46.9945 14.5777 46.2072 15.7765L43.9329 14.4064C45.3325 12.6082 47.1694 11.752 49.6186 11.752ZM46.2947 21.5136C46.2947 22.1986 46.6446 22.798 47.1694 23.1405C47.7817 23.5687 48.4815 23.8256 49.1813 23.8256C50.231 23.8256 51.2806 23.3974 52.0679 22.6268C52.9426 21.8561 53.38 20.9142 53.38 19.8867C52.5927 19.2873 51.4556 18.9447 49.9685 18.9447C48.9189 18.9447 48.0441 19.2016 47.3443 19.7154C46.6446 20.1435 46.2947 20.7429 46.2947 21.5136Z" fill="#5F6267"/>
<path d="M70.0001 12.1816L61.3403 31.6193H58.7161L61.9526 24.8547L56.2668 12.2673H59.066L63.1772 21.9433H63.2647L67.2884 12.2673H70.0001V12.1816Z" fill="#5F6267"/>
<path d="M22.6804 15.9467C22.6804 15.1761 22.5929 14.4054 22.5054 13.6348H11.5713V18.0018H17.7819C17.5194 19.3719 16.7322 20.6563 15.5076 21.427V24.2527H19.2689C21.4557 22.2832 22.6804 19.3719 22.6804 15.9467Z" fill="#4285F4"/>
<path d="M11.5696 26.9923C14.7186 26.9923 17.3428 25.9648 19.2672 24.2522L15.5059 21.4265C14.4562 22.1115 13.1441 22.5396 11.5696 22.5396C8.59553 22.5396 5.97134 20.5702 5.09661 17.8301H1.2478V20.7414C3.25968 24.5947 7.19596 26.9923 11.5696 26.9923Z" fill="#34A853"/>
<path d="M5.0953 17.8292C4.57046 16.4591 4.57046 14.9178 5.0953 13.4621V10.5508H1.24649C-0.415496 13.719 -0.415496 17.4867 1.24649 20.7406L5.0953 17.8292Z" fill="#FBBC04"/>
<path d="M11.5673 8.8401C13.2293 8.8401 14.8038 9.4395 16.0285 10.5527L19.3524 7.29879C17.2531 5.41496 14.4539 4.30179 11.6548 4.38742C7.28117 4.38742 3.25741 6.78502 1.33301 10.6383L5.18182 13.5497C5.96907 10.8096 8.59326 8.8401 11.5673 8.8401Z" fill="#EA4335"/>
</svg>
