<svg width="27" height="30" viewBox="0 0 27 30" fill="none" xmlns="http://www.w3.org/2000/svg">
<path d="M23.6023 7.54102C23.6023 7.70144 23.6023 7.86188 23.4419 8.02231C22.1585 14.4394 17.9873 16.525 12.5328 16.525H9.80546C9.16374 16.525 8.52205 17.0063 8.52205 17.648L7.07818 26.632L6.75732 29.1989C6.75732 29.6802 7.07817 30.001 7.39903 30.001H12.3723C13.014 30.001 13.4953 29.5197 13.4953 29.0384V28.7176L14.4579 22.9422V22.6213C14.6183 21.9796 15.0996 21.6587 15.5809 21.6587H16.383C21.1959 21.6587 24.8857 19.7336 25.8483 14.1186C26.3296 11.7122 26.0088 9.78702 24.8858 8.50359C24.5649 8.18273 24.0836 7.86187 23.6023 7.54102Z" fill="#2199D6"/>
<path d="M22.3186 7.05941C22.1581 7.05941 21.9977 6.89898 21.6769 6.89898C21.5164 6.89898 21.1956 6.73855 21.0351 6.73855C20.233 6.57812 19.4309 6.57813 18.6287 6.57813H11.249C11.0886 6.57813 10.9281 6.57812 10.7677 6.73855C10.4469 6.89898 10.126 7.21984 10.126 7.54069L8.52173 17.4873V17.8081C8.68216 17.1664 9.16342 16.6851 9.80514 16.6851H12.5324C17.987 16.6851 22.1581 14.4391 23.4416 8.18241C23.4416 8.02198 23.4416 7.86155 23.602 7.70113C23.2811 7.5407 22.9603 7.38027 22.6394 7.21984C22.479 7.05941 22.3186 7.05941 22.3186 7.05941Z" fill="#252C5E"/>
<path d="M10.1252 7.54013C10.1252 7.21928 10.4461 6.89842 10.7669 6.73799C10.9274 6.73799 11.0878 6.57757 11.2482 6.57757H18.6279C19.4301 6.57757 20.3926 6.57756 21.0343 6.73799C21.1948 6.73799 21.5156 6.738 21.6761 6.89842C21.8365 6.89842 21.9969 7.05885 22.3178 7.05885C22.4782 7.05885 22.4782 7.05885 22.6386 7.21928C22.9595 7.37971 23.2803 7.54014 23.6012 7.70057C23.9221 5.29414 23.6012 3.68985 22.3178 2.246C20.8739 0.64171 18.3071 0 15.0985 0H5.63322C4.99151 0 4.34979 0.481281 4.34979 1.12299L0.499512 25.829C0.499512 26.3103 0.820369 26.7916 1.30165 26.7916H7.07707L8.52094 17.4867L10.1252 7.54013Z" fill="#263577"/>
</svg>
