<svg width="18" height="16" viewBox="0 0 18 16" fill="none" xmlns="http://www.w3.org/2000/svg">
<path d="M16.7041 8.00857C17.0986 8.45143 17.0986 9.04929 16.7041 9.49143C15.4616 10.8836 12.4805 13.75 9.00013 13.75C5.51971 13.75 2.53864 10.8836 1.29611 9.49143C1.10419 9.27938 1 9.01851 1 8.75C1 8.48149 1.10419 8.22062 1.29611 8.00857C2.53864 6.61643 5.51971 3.75 9.00013 3.75C12.4805 3.75 15.4616 6.61643 16.7041 8.00857Z" stroke="#192C32" stroke-width="1.7" stroke-linecap="round" stroke-linejoin="round"/>
<line x1="16.7811" y1="3.43199" x2="2.18199" y2="13.4689" stroke="#192C32" stroke-width="1.7" stroke-linecap="round" stroke-linejoin="round"/>
<path d="M9 10.75C10.1046 10.75 11 9.85457 11 8.75C11 7.64543 10.1046 6.75 9 6.75C7.89543 6.75 7 7.64543 7 8.75C7 9.85457 7.89543 10.75 9 10.75Z" stroke="#192C32" stroke-width="1.7" stroke-linecap="round" stroke-linejoin="round"/>
</svg>
