<svg width="18" height="16" viewBox="0 0 18 16" fill="none" xmlns="http://www.w3.org/2000/svg">
<path d="M16.7041 7.25857C17.0986 7.70143 17.0986 8.29929 16.7041 8.74143C15.4616 10.1336 12.4805 13 9.00013 13C5.51971 13 2.53864 10.1336 1.29611 8.74143C1.10419 8.52938 1 8.26851 1 8C1 7.73149 1.10419 7.47062 1.29611 7.25857C2.53864 5.86643 5.51971 3 9.00013 3C12.4805 3 15.4616 5.86643 16.7041 7.25857Z" stroke="#192C32" stroke-width="1.7" stroke-linecap="round" stroke-linejoin="round"/>
<path d="M9 10C10.1046 10 11 9.10457 11 8C11 6.89543 10.1046 6 9 6C7.89543 6 7 6.89543 7 8C7 9.10457 7.89543 10 9 10Z" stroke="#192C32" stroke-width="1.7" stroke-linecap="round" stroke-linejoin="round"/>
</svg>
