<?xml version="1.0" encoding="utf-8"?>
<!-- Generator: Adobe Illustrator 22.0.0, SVG Export Plug-In . SVG Version: 6.00 Build 0)  -->
<svg version="1.1" id="Слой_1" xmlns="http://www.w3.org/2000/svg" xmlns:xlink="http://www.w3.org/1999/xlink" x="0px" y="0px"
	 viewBox="0 0 57 56" style="enable-background:new 0 0 57 56;" xml:space="preserve">
<style type="text/css">
	.st0{fill:#FFC107;}
	.st1{fill:#FF3D00;}
	.st2{fill:#4CAF50;}
	.st3{fill:#1976D2;}
</style>
<g>
	<path class="st0" d="M48.1,24.1h-1.6V24h-18v8h11.3c-1.6,4.7-6.1,8-11.3,8c-6.6,0-12-5.4-12-12s5.4-12,12-12c3.1,0,5.8,1.2,8,3
		l5.7-5.7C38.5,10.1,33.8,8,28.5,8c-11,0-20,9-20,20s9,20,20,20s20-9,20-20C48.5,26.7,48.4,25.4,48.1,24.1z"/>
	<path class="st1" d="M10.8,18.7l6.6,4.8c1.8-4.4,6.1-7.5,11.1-7.5c3.1,0,5.8,1.2,8,3l5.7-5.7C38.5,10.1,33.8,8,28.5,8
		C20.8,8,14.2,12.3,10.8,18.7z"/>
	<path class="st2" d="M28.5,48c5.2,0,9.9-2,13.4-5.2l-6.2-5.2c-2.1,1.6-4.6,2.4-7.2,2.4c-5.2,0-9.6-3.3-11.3-7.9l-6.5,5
		C14,43.6,20.7,48,28.5,48z"/>
	<path class="st3" d="M48.1,24.1h-1.6V24h-18v8h11.3c-0.8,2.2-2.2,4.2-4.1,5.6l0,0l6.2,5.2c-0.4,0.4,6.6-4.8,6.6-14.8
		C48.5,26.7,48.4,25.4,48.1,24.1z"/>
</g>
</svg>
