<svg width="320" height="192" viewBox="0 0 320 192" fill="none" xmlns="http://www.w3.org/2000/svg">
<path d="M304.676 108.459C304.676 112.966 304.751 115.745 304.902 116.797L306.254 116.571C308.207 116.271 310.535 116.271 313.24 116.571C315.944 116.872 318.197 117.022 320 117.022L318.648 149.698C316.244 150.449 313.841 150.674 311.437 150.374C309.183 149.923 307.005 149.923 304.902 150.374C304.902 150.224 304.826 151.05 304.676 152.853C304.526 154.505 304.301 156.759 304 159.613C303.85 162.317 303.625 165.322 303.324 168.627C303.174 171.782 302.949 174.862 302.648 177.867C302.498 180.871 302.348 183.5 302.197 185.754C302.047 188.007 301.897 189.434 301.747 190.035C300.845 191.087 297.766 191.538 292.507 191.388C287.399 191.388 279.662 191.463 269.296 191.613C269.146 191.463 269.146 190.336 269.296 188.233C269.447 186.129 269.597 183.575 269.747 180.571C269.897 177.416 270.048 174.036 270.198 170.43C270.498 166.824 270.724 163.444 270.874 160.289C271.174 157.134 271.4 154.43 271.55 152.177C271.7 149.923 271.775 148.646 271.775 148.346C271.174 148.196 269.597 148.045 267.043 147.895C264.489 147.745 261.409 147.67 257.804 147.67C254.348 147.67 250.592 147.745 246.536 147.895C242.63 147.895 238.949 147.895 235.494 147.895C232.189 147.895 229.41 147.895 227.156 147.895C224.903 147.745 223.701 147.519 223.55 147.219C223.25 146.167 222.724 142.712 221.973 136.853C221.222 130.994 220.997 123.557 221.297 114.543C222.799 112.44 224.602 109.435 226.705 105.529C228.809 101.473 231.663 96.2149 235.269 89.7549C239.024 83.1446 243.682 75.1823 249.24 65.8678C254.949 56.5534 262.01 45.5864 270.423 32.9668C270.423 32.8166 270.498 32.7415 270.649 32.7415C271.249 32.7415 273.202 32.7415 276.508 32.7415C279.963 32.5912 283.644 32.5161 287.55 32.5161C291.456 32.3659 295.212 32.2908 298.817 32.2908C302.423 32.1405 304.827 32.1405 306.028 32.2908H306.479C306.479 32.441 306.404 34.4691 306.254 38.3752C306.104 42.2812 305.953 47.2389 305.803 53.2483C305.653 59.1073 305.427 65.5674 305.127 72.6283C304.977 79.539 304.826 86.0742 304.676 92.2337C304.676 98.3933 304.676 103.802 304.676 108.459ZM271.325 117.473C274.63 117.473 276.808 117.398 277.86 117.248L278.536 69.0227C278.386 68.1213 277.559 68.7223 276.057 70.8255C274.705 72.7785 272.902 75.4827 270.649 78.9381C268.545 82.3935 266.217 86.2995 263.663 90.6563C261.109 94.8628 258.705 98.9191 256.451 102.825C254.198 106.581 252.245 109.811 250.592 112.515C249.09 115.219 248.264 116.722 248.114 117.022C248.114 117.022 249.466 117.097 252.17 117.248C254.874 117.248 257.954 117.323 261.409 117.473C264.865 117.473 268.17 117.473 271.325 117.473Z" fill="#ADB7B4"/>
<path d="M113.423 67.6705C115.226 62.1119 117.78 56.7786 121.085 51.6707C121.686 50.6191 122.437 49.6426 123.339 48.7412C127.846 43.6332 132.878 39.5018 138.437 36.3469C143.996 33.0418 150.606 31.239 158.268 30.9385C165.93 30.6381 172.765 31.8399 178.774 34.5441C184.784 37.2483 189.967 40.929 194.324 45.5863C198.68 50.0933 202.211 55.3514 204.915 61.3607C207.619 67.37 209.572 73.5296 210.774 79.8394C211.525 84.6468 212.051 89.3041 212.352 93.8111C212.802 98.1678 212.877 102.525 212.577 106.881C212.877 112.74 212.727 118.975 212.126 125.585C211.525 132.045 210.323 138.505 208.521 144.965C206.868 151.275 204.539 157.284 201.535 162.993C198.68 168.552 195.15 173.51 190.943 177.866C186.887 182.073 182.08 185.378 176.521 187.782C170.962 190.035 164.653 190.937 157.592 190.486C151.582 190.185 146.324 189.209 141.817 187.556C134.155 184.702 128.221 180.871 124.015 176.064C119.808 171.106 116.653 165.622 114.55 159.613C112.597 153.454 111.32 146.994 110.719 140.233C110.268 133.473 109.968 126.712 109.818 119.952C109.517 114.243 109.292 108.459 109.142 102.6C108.991 96.5904 109.217 90.6562 109.818 84.7971C110.569 78.938 111.771 73.2291 113.423 67.6705ZM150.606 151.05C151.657 151.951 153.01 152.552 154.662 152.853C156.014 153.303 157.441 153.604 158.944 153.754C160.446 153.904 161.798 153.754 163 153.303C166.005 152.402 168.108 150.975 169.31 149.022C170.512 147.069 171.488 144.89 172.239 142.487C173.441 138.731 174.117 135.125 174.267 131.67C174.418 128.214 174.643 124.534 174.944 120.628C175.094 116.722 175.169 112.44 175.169 107.783C175.319 102.975 175.169 98.318 174.718 93.8111C174.418 89.1538 173.742 84.8722 172.69 80.9661C171.789 76.9098 170.437 73.6047 168.634 71.0508C165.329 66.694 160.747 65.4921 154.887 67.4452C153.385 67.7456 151.883 68.4968 150.38 69.6987C149.028 70.9005 147.977 72.1775 147.226 73.5296C146.474 74.7315 145.798 76.8347 145.197 79.8394C144.747 82.844 144.296 86.2243 143.845 89.9801C143.094 99.4448 142.719 108.008 142.719 115.67C142.719 123.332 143.77 131.144 145.873 139.106C146.324 140.458 146.7 141.886 147 143.388C147.301 144.74 147.751 146.092 148.352 147.444C148.953 148.796 149.704 149.998 150.606 151.05Z" fill="#ADB7B4"/>
<path d="M83.5081 108.459C83.5081 112.966 83.5832 115.745 83.7334 116.797L85.0855 116.571C87.0385 116.271 89.3672 116.271 92.0714 116.571C94.7755 116.872 97.029 117.022 98.8318 117.022L97.4797 149.698C95.076 150.449 92.6723 150.674 90.2686 150.374C88.0151 149.923 85.8367 149.923 83.7334 150.374C83.7334 150.224 83.6583 151.05 83.5081 152.853C83.3578 154.505 83.1325 156.759 82.832 159.613C82.6818 162.317 82.4564 165.322 82.156 168.627C82.0057 171.782 81.7804 174.862 81.4799 177.867C81.3297 180.871 81.1795 183.5 81.0292 185.754C80.879 188.007 80.7288 189.434 80.5785 190.035C79.6771 191.087 76.5974 191.538 71.3392 191.388C66.2313 191.388 58.4943 191.463 48.1282 191.613C47.978 191.463 47.978 190.336 48.1282 188.233C48.2784 186.129 48.4287 183.575 48.5789 180.571C48.7291 177.416 48.8794 174.036 49.0296 170.43C49.3301 166.824 49.5554 163.444 49.7057 160.289C50.0061 157.134 50.2315 154.43 50.3817 152.177C50.5319 149.923 50.6071 148.646 50.6071 148.346C50.0061 148.196 48.4287 148.045 45.8747 147.895C43.3208 147.745 40.241 147.67 36.6354 147.67C33.18 147.67 29.4242 147.745 25.3679 147.895C21.4619 147.895 17.7811 147.895 14.3258 147.895C11.0207 147.895 8.24135 147.895 5.98786 147.895C3.73436 147.745 2.5325 147.519 2.38227 147.219C2.0818 146.167 1.55598 142.712 0.804819 136.853C0.0536545 130.994 -0.171695 123.557 0.128771 114.543C1.6311 112.44 3.4339 109.435 5.53716 105.529C7.64042 101.473 10.4948 96.2149 14.1004 89.7549C17.8563 83.1446 22.5135 75.1823 28.0721 65.8678C33.781 56.5534 40.8419 45.5864 49.255 32.9668C49.255 32.8166 49.3301 32.7415 49.4803 32.7415C50.0812 32.7415 52.0343 32.7415 55.3394 32.7415C58.7947 32.5912 62.4755 32.5161 66.3815 32.5161C70.2876 32.3659 74.0434 32.2908 77.649 32.2908C81.2546 32.1405 83.6583 32.1405 84.8602 32.2908H85.3109C85.3109 32.441 85.2357 34.4691 85.0855 38.3752C84.9353 42.2812 84.785 47.2389 84.6348 53.2483C84.4846 59.1073 84.2592 65.5674 83.9588 72.6283C83.8085 79.539 83.6583 86.0742 83.5081 92.2337C83.5081 98.3933 83.5081 103.802 83.5081 108.459ZM50.1564 117.473C53.4615 117.473 55.6399 117.398 56.6915 117.248L57.3675 69.0227C57.2173 68.1213 56.391 68.7223 54.8887 70.8255C53.5366 72.7785 51.7338 75.4827 49.4803 78.9381C47.377 82.3935 45.0484 86.2995 42.4945 90.6563C39.9405 94.8628 37.5368 98.9191 35.2833 102.825C33.0298 106.581 31.0768 109.811 29.4242 112.515C27.9219 115.219 27.0956 116.722 26.9454 117.022C26.9454 117.022 28.2975 117.097 31.0016 117.248C33.7058 117.248 36.7856 117.323 40.241 117.473C43.6963 117.473 47.0015 117.473 50.1564 117.473Z" fill="#ADB7B4"/>
<g clip-path="url(#clip0_317_2901)">
<path d="M225.472 75.7532C221.35 75.7532 217.229 75.7702 213.125 75.7532C213.21 75.414 213.294 75.0748 213.379 74.7356C216.11 74.3625 215.33 71.0383 214.753 69.2066C216.822 67.6801 218.739 65.6788 219.281 63.0839C220.452 56.1811 218.84 49.2613 218.315 42.3585C217.823 37.9828 218.145 33.5223 217.467 29.1635C216.669 29.9776 216.754 31.2157 216.449 32.2502C215.143 40.6286 212.175 48.8882 207.053 55.7062C204.509 59.217 204.068 64.5086 207.223 67.7819C206.833 69.5627 203.407 72.3611 206.205 73.684C206.188 74.3116 206.018 74.9391 205.985 75.5666C200.455 75.6345 194.91 75.3292 189.414 74.8543C188.719 74.8373 187.888 74.9561 187.345 74.4473C181.511 64.2542 176.016 53.7728 172.217 42.6299C169.622 34.913 167.756 25.551 172.709 18.3429C174.964 14.6795 181.002 12.4577 184.14 16.2228C186.497 18.6651 183.326 22.99 180.273 21.7179C178.882 20.9887 177.712 22.8543 178.492 24.0076C180.866 26.7042 185.09 26.9247 188.075 25.1609C191.195 23.4479 193.078 19.8354 193.044 16.3246C193.366 8.8621 186.921 2.21369 179.611 1.53528C173.133 0.704232 166.654 3.62139 162.041 8.04801C157.19 12.5425 153.917 18.3937 151.186 24.3298C143.791 41.1035 136.889 58.0976 129.426 74.8373C117.876 75.9567 106.225 75.7193 94.6237 75.7362C92.8599 75.8889 91.7405 78.6195 93.3687 79.688C102.425 85.1152 112.788 87.778 122.998 90.0846C122.252 93.341 121.438 96.5803 120.929 99.8876C120.675 100.685 120.878 101.736 120.098 102.279C116.078 105.451 111.754 108.486 108.887 112.828C107.853 114.406 106.903 116.509 107.904 118.34C108.752 119.85 110.719 120.206 112.296 119.799C115.298 118.985 117.757 116.933 119.962 114.813C119.301 126.396 122.761 139.337 132.75 146.24C131.207 147.834 129.07 148.835 127.9 150.768C127.272 151.888 127.611 153.227 128.256 154.262C123.032 154.381 117.588 153.991 112.517 155.297C118.402 156.128 124.372 155.348 130.274 155.941C133.31 157.451 136.906 157.247 139.958 155.89C152.458 155.619 164.958 155.602 177.44 155.907C180.493 157.315 184.106 157.451 187.159 155.941C193.213 155.381 199.319 156.077 205.357 155.314C200.065 153.855 194.469 154.466 189.041 154.211C190.924 151.599 188.176 149.106 186.124 147.732C185.666 147.224 183.953 146.63 185.022 145.935C194.112 138.998 197.454 126.922 197.165 115.915C197.793 115.237 198.946 115.033 199.811 114.609C198.251 123.768 196.911 132.977 195.317 142.135C195.724 145.358 201.066 146.189 202.677 143.56C204.458 132.994 205.832 122.326 207.596 111.76C212.735 109.979 213.43 102.482 209.631 99.0396C210.343 94.7317 191 122 193.044 90.0846C198.302 88.3716 222.131 82.5203 226.863 79.6201C228.457 78.5347 227.27 75.8041 225.472 75.7532Z" fill="white"/>
<path d="M151.254 0.110611C152.39 -0.415156 153.035 1.53527 151.949 1.90839C150.881 2.53592 150.033 0.449815 151.254 0.110611Z" fill="#2A2F2D"/>
<path d="M162.041 9.47265C166.654 5.04603 173.15 2.12888 179.611 2.94297C186.921 3.62138 193.366 10.2698 193.044 17.7323C193.078 21.26 191.195 24.8556 188.075 26.5686C185.073 28.3324 180.866 28.1119 178.492 25.4153C177.712 24.262 178.865 22.3963 180.273 23.1256C183.326 24.3976 186.497 20.0728 184.14 17.6305C181.002 13.8653 174.964 16.0871 172.709 19.7505C167.756 26.9417 169.622 36.3207 172.217 44.0376C176.016 55.1804 181.511 65.6619 187.345 75.855C187.888 76.3638 188.719 76.262 189.414 76.262C194.91 76.7369 200.455 77.0422 205.985 76.9743C206.018 76.3468 206.205 75.7362 206.205 75.0917C203.407 73.7689 206.833 70.9535 207.223 69.1896C204.068 65.9163 204.509 60.6247 207.053 57.1139C212.192 50.2959 215.143 42.0532 216.449 33.6579C216.754 32.6234 216.669 31.3853 217.467 30.5712C218.145 34.9299 217.823 39.3735 218.315 43.7662C218.84 50.6521 220.469 57.5718 219.281 64.4916C218.739 67.0865 216.822 69.1048 214.753 70.6143C215.33 72.446 216.11 75.7701 213.379 76.1433C213.294 76.4825 213.21 76.8217 213.125 77.1609C217.246 77.1778 221.367 77.1778 225.472 77.1609C227.27 77.2118 228.457 79.9424 226.846 81.0617C222.097 83.9619 216.822 85.8106 211.564 87.5236C211.039 91.8654 210.326 96.1733 209.614 100.481C213.43 103.924 212.735 111.404 207.579 113.201C205.798 123.768 204.424 134.436 202.66 145.002C201.032 147.631 195.69 146.8 195.3 143.577C196.911 134.419 198.234 125.209 199.794 116.051C198.929 116.475 197.793 116.678 197.148 117.357C197.437 128.364 194.095 140.439 185.005 147.376C183.936 148.072 185.666 148.665 186.107 149.174C188.159 150.531 190.907 153.041 189.024 155.653C194.452 155.907 200.065 155.297 205.34 156.755C199.302 157.535 193.18 156.823 187.142 157.383C184.106 158.892 180.476 158.757 177.424 157.349C164.941 157.044 152.424 157.06 139.941 157.332C136.906 158.689 133.293 158.909 130.257 157.383C124.355 156.789 118.385 157.569 112.5 156.738C117.554 155.432 122.998 155.805 128.239 155.704C127.594 154.669 127.255 153.346 127.883 152.21C129.053 150.276 131.207 149.276 132.733 147.681C122.744 140.779 119.267 127.838 119.945 116.254C117.741 118.357 115.281 120.409 112.279 121.241C110.702 121.665 108.735 121.291 107.887 119.782C106.886 117.967 107.836 115.847 108.87 114.27C111.737 109.928 116.061 106.892 120.081 103.721C120.861 103.195 120.658 102.126 120.912 101.329C121.421 98.022 122.235 94.7826 122.981 91.5262C112.788 89.2366 102.425 86.5738 93.3687 81.1465C91.7405 80.0611 92.8429 77.3475 94.6237 77.1948C106.225 77.1778 117.876 77.4153 129.426 76.2959C136.889 59.5562 143.791 42.562 151.186 25.7884C153.917 19.8353 157.19 13.9671 162.041 9.47265ZM207.969 60.7604C206.561 63.6436 208.223 66.8321 210.157 69.003C209.784 70.4107 208.817 71.564 208.138 72.853C209.648 72.8869 211.14 72.9717 212.616 73.294C212.65 71.8354 211.581 70.0546 212.853 68.8504C214.923 67.4596 216.788 65.3905 216.975 62.7956C217.568 57.1818 216.415 51.6188 215.957 46.0558C214.108 51.3644 210.733 55.9097 207.969 60.7604ZM156.749 63.6436C153.696 66.7134 155.816 72.3612 159.615 73.7519C161.515 74.6169 164.483 73.26 164.245 70.9535C163.177 69.9698 161.651 70.1902 160.328 70.1563C159.7 70.2242 159.327 69.2744 159.887 68.9352C161.277 67.5953 163.397 68.4433 164.958 69.003C165.009 65.17 160.328 60.9808 156.749 63.6436ZM135.905 68.1381C134.599 70.5973 133.666 73.277 132.428 75.7871C139.619 74.2946 146.878 72.8021 154.256 72.5138C152.831 69.9358 152.187 66.7643 153.374 63.9658C147.37 64.2033 141.349 65.5601 135.905 68.1381ZM166.874 65.8315C167.519 68.0702 167.722 70.4955 166.874 72.7004C172.81 73.26 178.594 74.7525 184.445 75.821C183.292 74.1929 182.444 72.3272 181.206 70.7669C176.694 68.4603 171.827 66.9 166.874 65.8315ZM127.34 85.9293C125.542 91.1361 124.355 96.5464 123.371 101.974C123.829 102.567 124.779 103.466 123.982 104.212C119.284 107.638 114.315 110.98 110.923 115.813C110.261 116.61 109.888 117.781 110.346 118.764C114.756 118.663 117.707 114.626 120.759 111.912C121.421 110.963 123.032 111.777 122.71 112.879C122.218 121.834 122.54 131.569 127.968 139.134C133.785 147.359 143.842 151.396 153.544 152.634C160.65 153.312 168.011 152.922 174.744 150.361C180.324 148.224 185.412 144.578 188.804 139.625C194.299 131.824 194.808 121.834 194.502 112.642C195.639 110.912 197.606 113.201 197.08 114.643C199.472 113.914 201.219 111.522 200.574 108.978C202.576 106.756 203.678 111.692 205.985 110.844C210.666 110.386 210.513 102.143 205.832 101.804C202.474 102.533 200.133 105.281 197.318 107.028C196.504 107.808 194.774 108.893 194.045 107.486C192.959 100.261 191.721 92.9848 189.228 86.082C168.621 86.6247 147.947 86.8791 127.34 85.9293ZM193.654 91.5092C194.638 95.885 195.571 100.278 196.232 104.704C198.251 103.28 200.167 101.736 202.219 100.362C202.83 96.6312 203.44 92.883 204.034 89.1348C200.574 89.9659 197.131 90.8139 193.654 91.5092ZM130.138 153.719C133.14 157.383 139.043 155.907 141.637 152.481C139.5 151.396 137.296 150.361 135.159 149.293C133.497 150.751 131.36 151.803 130.138 153.719ZM175.965 152.6C178.322 155.839 183.461 157.01 186.701 154.415C186.972 151.735 183.665 151.107 182.24 149.445C180.222 150.633 178.17 151.803 175.965 152.6ZM142.333 155.619C148.048 155.687 153.781 155.483 159.497 155.619C159.497 155.585 159.514 155.517 159.514 155.483C154.358 155.534 149.219 154.754 144.232 153.38C143.741 154.211 142.757 154.856 142.333 155.619ZM161.515 155.432C166.06 155.67 170.622 155.534 175.168 155.585C174.608 154.907 173.964 154.33 173.455 153.601C169.588 154.771 165.551 155.348 161.515 155.432Z" fill="#2A2F2D"/>
<path d="M202.966 9.54049C201.626 9.71009 201.829 7.67487 202.983 7.55614C204.136 7.72575 204.153 9.45569 202.966 9.54049Z" fill="#2A2F2D"/>
<path d="M129.121 12.288C131.122 11.457 132.191 14.9847 130.172 15.4766C128.171 16.3755 126.95 12.746 129.121 12.288Z" fill="#2A2F2D"/>
<path d="M208.003 24.1602C209.003 23.821 209.936 25.2457 208.986 25.8901C207.918 26.806 206.782 24.7368 208.003 24.1602Z" fill="#2A2F2D"/>
<path d="M197.148 38.1693C198.488 37.5927 199.709 39.3057 199.149 40.4929C198.759 41.29 197.64 41.6292 196.877 41.1374C195.791 40.4929 195.825 38.5425 197.148 38.1693Z" fill="#2A2F2D"/>
<path d="M214.617 55.2653C215.279 54.7395 216.11 55.6045 216.025 56.2998C215.974 59.4544 216.296 62.7786 214.923 65.7127C214.108 67.2731 212.429 69.0709 210.513 68.2398C208.308 66.9848 207.816 63.7284 209.054 61.6253C211.056 61.3709 210.394 63.8471 210.479 65.0513C210.241 66.2385 211.887 66.8321 212.497 65.8145C215.143 62.8804 212.887 58.5386 214.617 55.2653Z" fill="#2A2F2D"/>
<path d="M176.074 120.674C176.311 120.093 176.944 120.299 177.436 120.326C178.663 122.366 176.194 123.977 175.14 125.497C166.177 135.031 149.073 134.084 140.729 124.203C139.83 123.269 141.696 121.811 142.418 122.871C148.026 128.844 157.052 131.459 164.917 129.049C169.526 127.746 173.441 124.586 176.074 120.674Z" fill="#2A2F2D"/>
<path d="M172.605 83.0066C173.518 83.5571 174.224 84.271 174.722 85.1483C174.986 85.515 175.198 85.9051 175.359 86.3187C175.542 86.7004 175.7 87.1006 175.834 87.5193C176.012 88.179 176.164 88.8438 176.288 89.5137C176.435 90.1517 176.557 90.8082 176.654 91.483C176.837 92.9182 177.066 94.3032 177.342 95.6378C177.618 96.9725 177.832 98.3465 177.983 99.76L178.108 101.109C178.228 102.057 178.256 103.036 178.192 104.046C178.123 105.029 177.918 105.954 177.576 106.822C177.236 107.551 176.725 108.187 176.044 108.73C175.384 109.241 174.655 109.682 173.857 110.052C173.141 110.408 172.396 110.685 171.622 110.885C170.875 111.08 170.105 111.223 169.312 111.316C168.735 111.368 168.166 111.391 167.606 111.384C167.077 111.4 166.55 111.346 166.024 111.222C165.525 111.093 165.056 110.903 164.618 110.652C164.175 110.375 163.782 109.991 163.44 109.5C162.937 108.901 162.548 108.239 162.274 107.514C162.021 106.757 161.809 105.992 161.638 105.22C161.169 103.145 160.686 101.073 160.189 99.0033C159.715 96.9017 159.348 94.78 159.09 92.6381C158.893 91.4273 158.818 90.1938 158.864 88.9377C158.932 87.6498 159.297 86.4588 159.961 85.3648C160.181 85.0465 160.447 84.7474 160.758 84.4675C161.57 83.8725 162.472 83.3855 163.464 83.0065C164.478 82.5956 165.503 82.3212 166.54 82.1834C167.603 82.0404 168.651 82.039 169.684 82.1791C170.738 82.2874 171.712 82.5633 172.605 83.0066ZM172.567 97.6929L172.208 95.7637L171.619 93.0458C171.614 93.019 171.538 92.7561 171.389 92.2571C171.262 91.7263 171.143 91.2356 171.031 90.7852C170.838 90.045 170.495 89.4021 170.002 88.8564C169.536 88.3056 168.965 87.9408 168.289 87.762C167.709 87.6484 167.148 87.7115 166.605 87.9513C166.063 88.1911 165.605 88.5121 165.233 88.9142C164.422 89.814 163.958 90.8568 163.843 92.0426C163.816 93.1011 163.881 94.1981 164.036 95.3335C164.218 96.4639 164.44 97.5867 164.704 98.702C165.013 99.6146 165.287 100.562 165.525 101.543C165.758 102.497 166.092 103.391 166.527 104.225C166.897 104.711 167.365 105.053 167.934 105.252C168.502 105.451 169.088 105.522 169.692 105.465C170.292 105.381 170.871 105.189 171.431 104.891C171.985 104.566 172.423 104.138 172.743 103.606C172.927 103.24 173.055 102.952 173.128 102.745C173.196 102.51 173.222 102.27 173.204 102.024C173.186 101.777 173.134 101.496 173.047 101.18C172.982 100.831 172.925 100.371 172.874 99.7979C172.802 99.257 172.728 98.7856 172.653 98.3837C172.606 97.9767 172.577 97.7464 172.567 97.6929Z" fill="#2A2F2D"/>
<path fill-rule="evenodd" clip-rule="evenodd" d="M173.155 82.0033L173.195 82.0274C174.248 82.6622 175.086 83.4972 175.685 84.5301C175.979 84.9472 176.221 85.3918 176.408 85.8628C176.606 86.2818 176.777 86.718 176.922 87.1708L176.93 87.1953L176.937 87.22C177.121 87.9016 177.278 88.5885 177.407 89.2806C177.559 89.9431 177.684 90.6226 177.785 91.319L177.786 91.3285L177.788 91.338C177.967 92.7457 178.192 94.1016 178.461 95.4057C178.745 96.7783 178.964 98.1892 179.119 99.6381L179.121 99.654L179.12 99.654L179.244 100.984C179.371 102.002 179.4 103.046 179.332 104.117L179.332 104.125L179.332 104.125C179.255 105.218 179.026 106.259 178.639 107.241L178.626 107.273L178.611 107.305C178.191 108.207 177.563 108.98 176.755 109.624L176.743 109.633L176.743 109.633C176.016 110.197 175.217 110.679 174.351 111.083C173.568 111.47 172.754 111.773 171.909 111.991C171.11 112.2 170.288 112.353 169.444 112.451L169.429 112.453L169.414 112.454C168.808 112.509 168.208 112.534 167.615 112.528C166.993 112.544 166.375 112.479 165.762 112.335L165.75 112.332L165.739 112.329C165.143 112.175 164.579 111.947 164.05 111.645L164.031 111.633L164.011 111.621C163.435 111.26 162.945 110.777 162.533 110.197C161.964 109.51 161.52 108.75 161.205 107.919L161.197 107.898L161.19 107.876C160.926 107.083 160.703 106.281 160.523 105.471C160.055 103.402 159.573 101.335 159.078 99.2706L159.075 99.2557L159.075 99.2557C158.593 97.1237 158.221 94.9713 157.959 92.7987C157.752 91.5192 157.673 90.218 157.722 88.8963L157.722 88.8871L157.723 88.8778C157.801 87.4031 158.222 86.0289 158.984 84.7722L159.002 84.7426L159.022 84.7142C159.297 84.317 159.623 83.9518 159.995 83.6172L160.038 83.5791L160.084 83.5454C160.979 82.889 161.968 82.3556 163.046 81.9427C164.142 81.4997 165.256 81.201 166.389 81.0502C167.544 80.895 168.689 80.8921 169.82 81.0439C170.994 81.1666 172.095 81.4772 173.113 81.9825L173.155 82.0033ZM169.684 82.1791C168.651 82.039 167.603 82.0404 166.54 82.1834C165.503 82.3212 164.478 82.5956 163.464 83.0065C162.472 83.3855 161.57 83.8725 160.758 84.4675C160.447 84.7474 160.181 85.0465 159.961 85.3648C159.298 86.4588 158.932 87.6498 158.864 88.9377C158.818 90.1938 158.893 91.4273 159.09 92.6381C159.348 94.78 159.715 96.9017 160.189 99.0033C160.686 101.073 161.169 103.145 161.638 105.22C161.81 105.992 162.021 106.757 162.274 107.514C162.548 108.239 162.937 108.901 163.44 109.5C163.783 109.991 164.175 110.375 164.618 110.652C165.056 110.903 165.525 111.093 166.024 111.222C166.55 111.346 167.077 111.4 167.606 111.384C168.166 111.391 168.735 111.368 169.312 111.316C170.106 111.223 170.876 111.08 171.622 110.885C172.396 110.685 173.141 110.408 173.857 110.052C174.655 109.682 175.384 109.241 176.044 108.73C176.725 108.187 177.236 107.551 177.576 106.822C177.918 105.954 178.123 105.029 178.192 104.046C178.256 103.036 178.228 102.057 178.108 101.109L177.983 99.76C177.832 98.3465 177.618 96.9725 177.343 95.6378C177.067 94.3032 176.837 92.9182 176.654 91.483C176.557 90.8082 176.435 90.1517 176.288 89.5137C176.164 88.8438 176.012 88.179 175.834 87.5193C175.7 87.1006 175.542 86.7004 175.359 86.3187C175.198 85.9051 174.986 85.515 174.722 85.1483C174.224 84.271 173.518 83.5571 172.605 83.0066C171.712 82.5633 170.738 82.2874 169.684 82.1791ZM170.002 88.8564C169.536 88.3056 168.966 87.9408 168.289 87.762C167.709 87.6484 167.148 87.7115 166.605 87.9513C166.063 88.1911 165.605 88.5121 165.233 88.9142C164.422 89.814 163.959 90.8568 163.843 92.0426C163.817 93.1011 163.881 94.1981 164.036 95.3335C164.218 96.4639 164.441 97.5867 164.704 98.702C165.013 99.6146 165.287 100.562 165.525 101.543C165.758 102.497 166.092 103.391 166.527 104.225C166.897 104.711 167.366 105.053 167.934 105.252C168.502 105.451 169.088 105.522 169.692 105.465C170.292 105.381 170.871 105.189 171.431 104.891C171.985 104.566 172.423 104.138 172.743 103.606C172.927 103.24 173.055 102.952 173.128 102.745C173.197 102.51 173.222 102.27 173.204 102.024C173.186 101.777 173.134 101.496 173.047 101.18C172.982 100.831 172.925 100.371 172.874 99.7979C172.802 99.257 172.728 98.7856 172.653 98.3837C172.606 97.9767 172.577 97.7464 172.567 97.6929L172.208 95.7637L171.619 93.0458C171.614 93.019 171.538 92.7561 171.389 92.2571C171.262 91.7263 171.143 91.2356 171.032 90.7852C170.838 90.045 170.495 89.4021 170.002 88.8564ZM169.924 91.0683C169.775 90.5011 169.518 90.0256 169.154 89.623L169.142 89.6092L169.13 89.595C168.819 89.2276 168.46 88.9973 168.033 88.8772C167.697 88.818 167.385 88.8564 167.067 88.9969C166.657 89.1778 166.333 89.4094 166.076 89.6857C165.438 90.3953 165.081 91.1949 164.985 92.1135C164.962 93.0887 165.022 94.1054 165.166 95.1647C165.34 96.2457 165.553 97.3197 165.803 98.3866C166.117 99.3161 166.394 100.278 166.635 101.271C166.839 102.104 167.125 102.88 167.492 103.603C167.717 103.874 167.985 104.059 168.312 104.173C168.715 104.314 169.127 104.366 169.56 104.329C170.004 104.263 170.441 104.121 170.873 103.893C171.246 103.67 171.531 103.391 171.743 103.052C171.894 102.747 171.988 102.534 172.039 102.397C172.063 102.304 172.072 102.208 172.064 102.107C172.053 101.954 172.018 101.749 171.945 101.482L171.933 101.436L171.924 101.389C171.851 100.996 171.79 100.504 171.738 99.9252C171.669 99.4083 171.599 98.9651 171.53 98.5932L171.523 98.5554L171.519 98.5173C171.495 98.3149 171.476 98.159 171.462 98.0483C171.455 97.9928 171.45 97.951 171.446 97.9215C171.444 97.9053 171.442 97.8963 171.442 97.8928L171.088 95.9899L170.507 93.3095L170.503 93.2927C170.494 93.2615 170.48 93.2144 170.461 93.1498C170.424 93.0213 170.368 92.8331 170.294 92.5841L170.285 92.5538L170.278 92.523C170.152 91.9978 170.035 91.513 169.924 91.0683ZM170.51 93.3205C170.513 93.3291 170.512 93.3276 170.51 93.3193L170.51 93.3205Z" fill="white"/>
<path d="M171.083 86.0559C171.737 86.509 172.246 87.0882 172.613 87.7937C172.805 88.0894 172.961 88.403 173.082 88.7342C173.217 89.0406 173.336 89.3612 173.437 89.696C173.574 90.2232 173.693 90.7538 173.792 91.288C173.906 91.7973 174.003 92.3209 174.084 92.8586C174.237 94.0017 174.423 95.1057 174.64 96.1706C174.858 97.2354 175.032 98.3305 175.163 99.4558L175.274 100.529C175.375 101.284 175.412 102.062 175.384 102.864C175.352 103.643 175.223 104.375 174.997 105.058C174.77 105.631 174.421 106.127 173.95 106.547C173.494 106.941 172.987 107.279 172.431 107.56C171.932 107.83 171.412 108.037 170.87 108.182C170.347 108.324 169.807 108.425 169.249 108.485C168.843 108.516 168.442 108.525 168.047 108.51C167.675 108.513 167.302 108.461 166.929 108.354C166.575 108.243 166.242 108.084 165.929 107.877C165.612 107.649 165.328 107.337 165.078 106.941C164.713 106.457 164.428 105.924 164.222 105.343C164.031 104.738 163.868 104.127 163.734 103.511C163.368 101.855 162.992 100.2 162.606 98.5477C162.235 96.8702 161.941 95.1786 161.722 93.4729C161.562 92.5078 161.488 91.5267 161.498 90.5298C161.524 89.508 161.762 88.5683 162.21 87.7108C162.36 87.4618 162.543 87.2288 162.757 87.0119C163.319 86.5533 163.947 86.182 164.639 85.8981C165.347 85.5892 166.065 85.389 166.794 85.2974C167.541 85.2022 168.28 85.2192 169.01 85.3483C169.755 85.4525 170.446 85.6884 171.083 86.0559Z" fill="white"/>
<path d="M166.57 93.0336C168.449 92.4054 170.661 93.6469 171.208 95.4549C171.789 97.2906 170.621 99.4262 168.718 99.935C166.882 100.514 164.759 99.4177 164.183 97.6422C163.479 95.8159 164.671 93.5875 166.57 93.0336Z" fill="#2A2F2D"/>
<path d="M166.665 94.2006C167.582 93.8124 168.896 94.3036 168.98 95.3734C169.183 96.5555 167.686 97.488 166.618 96.9478C165.535 96.4239 165.47 94.625 166.665 94.2006Z" fill="white"/>
<path d="M143.363 84.485C142.434 85.0078 141.707 85.7002 141.183 86.5621C140.908 86.9207 140.684 87.3042 140.511 87.7128C140.317 88.0889 140.147 88.4841 140 88.8985C139.802 89.5526 139.631 90.2126 139.486 90.8784C139.32 91.5117 139.179 92.1642 139.061 92.8358C138.835 94.2649 138.564 95.6423 138.248 96.968C137.932 98.2938 137.677 99.6608 137.484 101.069L137.319 102.414C137.17 103.357 137.112 104.335 137.146 105.346C137.185 106.331 137.363 107.262 137.678 108.14C137.996 108.879 138.487 109.53 139.153 110.093C139.797 110.624 140.512 111.086 141.298 111.481C142.004 111.857 142.74 112.157 143.507 112.38C144.248 112.597 145.013 112.764 145.803 112.88C146.379 112.95 146.947 112.99 147.507 113C148.034 113.032 148.563 112.993 149.093 112.886C149.595 112.772 150.069 112.596 150.515 112.359C150.966 112.094 151.37 111.722 151.727 111.242C152.248 110.658 152.656 110.008 152.953 109.292C153.228 108.543 153.463 107.785 153.657 107.019C154.189 104.959 154.734 102.902 155.292 100.848C155.83 98.7617 156.26 96.6519 156.582 94.5188C156.816 93.3145 156.928 92.0838 156.92 90.8269C156.891 89.5375 156.561 88.3361 155.931 87.2226C155.72 86.8978 155.463 86.5908 155.161 86.3017C154.367 85.6826 153.48 85.1687 152.5 84.76C151.499 84.3188 150.483 84.0137 149.451 83.8446C148.392 83.6698 147.344 83.6368 146.308 83.7459C145.251 83.8224 144.269 84.0688 143.363 84.485ZM142.96 99.1658L143.376 97.2483L144.047 94.5494C144.052 94.5227 144.137 94.2623 144.301 93.768C144.443 93.2412 144.577 92.7543 144.702 92.3074C144.918 91.5734 145.28 90.9411 145.789 90.4105C146.271 89.874 146.853 89.5265 147.534 89.3681C148.117 89.272 148.677 89.352 149.212 89.608C149.747 89.864 150.194 90.1986 150.555 90.6118C151.338 91.5356 151.77 92.5918 151.849 93.7806C151.844 94.8394 151.747 95.9339 151.558 97.0642C151.342 98.1886 151.086 99.3042 150.789 100.411C150.452 101.314 150.15 102.252 149.882 103.226C149.621 104.173 149.26 105.057 148.8 105.877C148.416 106.351 147.937 106.679 147.363 106.861C146.79 107.043 146.202 107.096 145.599 107.021C145.003 106.918 144.429 106.71 143.879 106.395C143.334 106.053 142.91 105.612 142.605 105.071C142.433 104.699 142.313 104.408 142.247 104.198C142.185 103.962 142.167 103.721 142.193 103.475C142.218 103.23 142.279 102.95 142.375 102.636C142.45 102.29 142.521 101.832 142.589 101.261C142.678 100.722 142.766 100.253 142.853 99.8537C142.912 99.4484 142.948 99.2191 142.96 99.1658Z" fill="#2A2F2D"/>
<path fill-rule="evenodd" clip-rule="evenodd" d="M142.844 83.4656L142.803 83.4885C141.732 84.0914 140.869 84.9008 140.239 85.9152C139.932 86.3232 139.677 86.7604 139.476 87.2255C139.266 87.6384 139.081 88.0693 138.923 88.5175L138.915 88.5417L138.907 88.5663C138.702 89.242 138.525 89.9238 138.375 90.6118C138.203 91.2693 138.057 91.9448 137.936 92.6379L137.934 92.6473L137.933 92.6567C137.711 94.0585 137.446 95.4069 137.137 96.7023C136.812 98.0658 136.55 99.4695 136.352 100.913L136.35 100.929L136.35 100.929L136.187 102.255C136.029 103.268 135.968 104.311 136.004 105.384L136.004 105.392L136.004 105.392C136.048 106.486 136.246 107.533 136.603 108.527L136.615 108.56L136.629 108.592C137.022 109.506 137.626 110.298 138.415 110.965L138.426 110.975L138.426 110.975C139.136 111.56 139.92 112.067 140.773 112.496C141.544 112.907 142.349 113.234 143.187 113.478C143.98 113.71 144.797 113.888 145.637 114.011L145.652 114.014L145.667 114.015C146.272 114.088 146.87 114.131 147.463 114.143C148.084 114.178 148.704 114.131 149.321 114.006L149.333 114.003L149.345 114.001C149.945 113.865 150.515 113.654 151.053 113.367L151.073 113.357L151.092 113.345C151.679 113.001 152.184 112.533 152.613 111.966C153.203 111.297 153.669 110.55 154.008 109.729L154.017 109.708L154.025 109.687C154.313 108.902 154.56 108.107 154.764 107.303C155.294 105.248 155.838 103.197 156.395 101.149L156.399 101.134L156.399 101.134C156.944 99.0173 157.381 96.8771 157.709 94.7134C157.954 93.4406 158.071 92.1424 158.063 90.8199L158.062 90.8106L158.062 90.8014C158.029 89.325 157.649 87.9387 156.925 86.6597L156.908 86.6295L156.889 86.6005C156.626 86.1952 156.311 85.8204 155.949 85.4748L155.908 85.4354L155.863 85.4003C154.987 84.7173 154.015 84.1543 152.95 83.7092C151.868 83.2335 150.763 82.9013 149.636 82.7166C148.485 82.5267 147.341 82.4893 146.207 82.607C145.029 82.6943 143.919 82.9717 142.886 83.4461L142.844 83.4656ZM146.308 83.7459C147.344 83.6369 148.392 83.6698 149.451 83.8447C150.483 84.0137 151.499 84.3188 152.5 84.76C153.48 85.1687 154.367 85.6826 155.161 86.3017C155.463 86.5908 155.72 86.8978 155.931 87.2226C156.561 88.3361 156.891 89.5375 156.92 90.8269C156.928 92.0839 156.816 93.3145 156.582 94.5188C156.26 96.6519 155.83 98.7617 155.292 100.848C154.734 102.902 154.189 104.959 153.657 107.019C153.462 107.785 153.228 108.543 152.953 109.292C152.656 110.008 152.248 110.658 151.727 111.242C151.37 111.722 150.966 112.094 150.515 112.359C150.069 112.596 149.595 112.772 149.092 112.886C148.563 112.993 148.034 113.032 147.507 113C146.946 112.99 146.379 112.95 145.803 112.88C145.013 112.764 144.247 112.597 143.507 112.38C142.74 112.157 142.004 111.857 141.298 111.481C140.512 111.086 139.797 110.624 139.152 110.093C138.487 109.53 137.996 108.879 137.678 108.14C137.363 107.262 137.185 106.331 137.146 105.346C137.112 104.335 137.17 103.357 137.319 102.414L137.484 101.069C137.677 99.6608 137.932 98.2938 138.248 96.968C138.564 95.6423 138.835 94.2649 139.061 92.8358C139.179 92.1642 139.32 91.5117 139.486 90.8784C139.631 90.2126 139.802 89.5526 140 88.8985C140.147 88.4841 140.317 88.0889 140.511 87.7128C140.684 87.3042 140.908 86.9207 141.183 86.5621C141.707 85.7002 142.434 85.0078 143.363 84.485C144.269 84.0688 145.251 83.8224 146.308 83.7459ZM145.789 90.4105C146.271 89.874 146.853 89.5265 147.534 89.3681C148.117 89.272 148.677 89.352 149.212 89.608C149.747 89.864 150.194 90.1986 150.555 90.6118C151.338 91.5356 151.77 92.5918 151.849 93.7806C151.844 94.8394 151.747 95.9339 151.558 97.0642C151.342 98.1886 151.086 99.3042 150.789 100.411C150.452 101.314 150.15 102.252 149.882 103.226C149.62 104.173 149.26 105.057 148.8 105.877C148.416 106.351 147.937 106.679 147.363 106.861C146.79 107.043 146.201 107.096 145.599 107.021C145.003 106.918 144.429 106.71 143.879 106.395C143.334 106.053 142.91 105.612 142.605 105.071C142.433 104.699 142.313 104.408 142.246 104.198C142.185 103.962 142.167 103.721 142.193 103.475C142.218 103.23 142.278 102.95 142.375 102.636C142.45 102.29 142.521 101.832 142.589 101.261C142.678 100.722 142.766 100.253 142.852 99.8537C142.912 99.4484 142.948 99.2191 142.96 99.1658L143.376 97.2483L144.047 94.5494C144.052 94.5227 144.137 94.2623 144.301 93.768C144.443 93.2412 144.577 92.7543 144.702 92.3074C144.918 91.5734 145.28 90.9411 145.789 90.4105ZM145.8 92.6238C145.966 92.0612 146.238 91.5938 146.614 91.2022L146.626 91.1888L146.639 91.175C146.96 90.8171 147.326 90.5977 147.756 90.4905C148.094 90.4415 148.406 90.4893 148.719 90.6393C149.123 90.8324 149.44 91.0736 149.689 91.3575C150.305 92.0861 150.637 92.896 150.706 93.8171C150.699 94.7925 150.609 95.807 150.433 96.8614C150.226 97.9367 149.982 99.0038 149.699 100.063C149.358 100.982 149.052 101.935 148.781 102.921C148.553 103.748 148.243 104.515 147.855 105.226C147.622 105.49 147.348 105.667 147.018 105.771C146.611 105.9 146.197 105.94 145.766 105.889C145.323 105.811 144.891 105.655 144.467 105.414C144.1 105.18 143.824 104.893 143.622 104.547C143.48 104.238 143.392 104.022 143.346 103.884C143.324 103.79 143.319 103.694 143.329 103.593C143.345 103.441 143.386 103.237 143.467 102.972L143.481 102.927L143.491 102.88C143.576 102.489 143.652 101.999 143.721 101.422C143.806 100.908 143.889 100.467 143.969 100.097L143.977 100.059L143.983 100.021C144.012 99.8198 144.036 99.6646 144.053 99.5543C144.062 99.499 144.068 99.4574 144.073 99.4281C144.076 99.4119 144.078 99.403 144.078 99.3995L144.489 97.5081L145.15 94.8464L145.155 94.8298C145.165 94.7988 145.18 94.7522 145.201 94.6881C145.242 94.5608 145.304 94.3744 145.385 94.1278L145.395 94.0977L145.403 94.0671C145.544 93.546 145.677 93.0649 145.8 92.6238ZM145.147 94.8573C145.144 94.8658 145.145 94.8643 145.147 94.8561L145.147 94.8573Z" fill="white"/>
<path d="M144.793 87.5788C144.126 88.012 143.599 88.5756 143.212 89.2697C143.011 89.5595 142.845 89.8682 142.715 90.1957C142.57 90.4979 142.442 90.8148 142.33 91.1464C142.177 91.6692 142.043 92.196 141.928 92.727C141.799 93.2327 141.686 93.753 141.589 94.2881C141.401 95.4261 141.182 96.524 140.933 97.5818C140.684 98.6397 140.477 99.729 140.312 100.85L140.169 101.92C140.045 102.671 139.985 103.448 139.988 104.249C139.997 105.03 140.103 105.765 140.309 106.455C140.518 107.034 140.853 107.541 141.311 107.974C141.755 108.382 142.251 108.735 142.798 109.032C143.289 109.317 143.803 109.54 144.34 109.702C144.859 109.859 145.396 109.976 145.951 110.053C146.356 110.096 146.757 110.117 147.152 110.114C147.524 110.128 147.898 110.087 148.274 109.991C148.631 109.891 148.969 109.742 149.289 109.545C149.612 109.326 149.905 109.023 150.167 108.635C150.546 108.162 150.847 107.638 151.071 107.064C151.28 106.464 151.461 105.859 151.613 105.247C152.03 103.602 152.455 101.96 152.89 100.32C153.311 98.6544 153.657 96.9724 153.927 95.274C154.116 94.3141 154.22 93.3358 154.239 92.339C154.244 91.3169 154.035 90.3705 153.612 89.4999C153.47 89.2464 153.294 89.0081 153.086 88.7848C152.538 88.3095 151.922 87.9195 151.238 87.6149C150.54 87.2849 149.829 87.0631 149.103 86.9496C148.359 86.832 147.62 86.8267 146.887 86.9338C146.139 87.0156 145.441 87.2306 144.793 87.5788Z" fill="white"/>
<path d="M147.607 93.4737C145.729 92.8456 143.517 94.087 142.969 95.895C142.389 97.7307 143.557 99.8663 145.46 100.375C147.296 100.954 149.419 99.8578 149.995 98.0823C150.699 96.256 149.507 94.0276 147.607 93.4737Z" fill="#2A2F2D"/>
<path d="M147.513 94.6407C146.596 94.2526 145.282 94.7437 145.197 95.8135C144.995 96.9956 146.491 97.9281 147.56 97.388C148.643 96.8641 148.708 95.0652 147.513 94.6407Z" fill="white"/>
<path d="M165.91 74.3011C166.051 74.2732 166.172 74.2519 166.274 74.2374L167.501 74.0632C167.705 74.0342 167.9 74.0085 168.085 73.9862C168.29 73.9572 168.494 73.9282 168.698 73.8992C168.694 74.0083 168.752 74.235 168.873 74.5793C169.006 74.8978 169.161 75.3378 169.336 75.8993C169.312 75.951 169.197 75.9914 168.993 76.0204C168.781 76.0303 168.519 76.0475 168.206 76.0719C167.912 76.0896 167.602 76.1235 167.276 76.1738C166.944 76.205 166.637 76.2485 166.356 76.3044L166.715 77.6935C166.729 77.7317 166.729 77.7638 166.717 77.7896C166.698 77.7964 166.66 77.8098 166.602 77.83C166.545 77.8502 166.411 77.8973 166.201 77.9713C165.985 78.0262 165.666 78.1277 165.246 78.2757C164.8 78.4113 164.179 78.598 163.383 78.8356L163.354 78.8457L163.344 78.817C163.016 78.3735 162.794 77.8608 162.675 77.2792C162.531 76.6851 162.36 76.0465 162.163 75.3635L162.153 75.3348L165.488 74.2889L165.508 74.3463C165.527 74.3395 165.549 74.3424 165.575 74.3548C165.575 74.3548 165.585 74.3514 165.604 74.3447C165.68 74.3178 165.782 74.3033 165.91 74.3011Z" fill="white"/>
<path d="M149.161 74.6043C149.025 74.5591 148.907 74.523 148.808 74.4959L147.612 74.1709C147.413 74.1168 147.223 74.0671 147.042 74.022C146.843 73.9678 146.643 73.9137 146.444 73.8595C146.435 73.9683 146.349 74.1861 146.187 74.5128C146.015 74.8123 145.808 75.2297 145.564 75.7651C145.582 75.8195 145.691 75.8737 145.89 75.9279C146.098 75.9639 146.356 76.0135 146.664 76.0766C146.954 76.1306 147.257 76.2028 147.574 76.2931C147.9 76.3653 148.199 76.4465 148.471 76.5369L147.943 77.8707C147.925 77.907 147.92 77.9387 147.929 77.9659C147.947 77.9749 147.984 77.993 148.038 78.0202C148.092 78.0473 148.219 78.1106 148.418 78.2102C148.627 78.2915 148.93 78.4317 149.329 78.6307C149.755 78.8207 150.348 79.0829 151.109 79.4175L151.136 79.4311L151.149 79.4039C151.529 79.0044 151.814 78.5234 152.003 77.9609C152.22 77.3892 152.468 76.7768 152.748 76.1235L152.761 76.0962L149.582 74.6446L149.555 74.6991C149.537 74.69 149.514 74.69 149.487 74.6991C149.487 74.6991 149.478 74.6946 149.46 74.6856C149.387 74.6494 149.288 74.6223 149.161 74.6043Z" fill="white"/>
<path fill-rule="evenodd" clip-rule="evenodd" d="M172.327 114.677C179.727 114.677 185.726 108.678 185.726 101.278C185.726 93.8785 179.727 87.8798 172.327 87.8798C164.927 87.8798 158.928 93.8785 158.928 101.278C158.928 108.678 164.927 114.677 172.327 114.677ZM172.327 116.034C180.476 116.034 187.082 109.428 187.082 101.278C187.082 93.1292 180.476 86.5229 172.327 86.5229C164.178 86.5229 157.572 93.1292 157.572 101.278C157.572 109.428 164.178 116.034 172.327 116.034Z" fill="#2A2F2D"/>
<path fill-rule="evenodd" clip-rule="evenodd" d="M172.327 113.242C178.935 113.242 184.291 107.886 184.291 101.278C184.291 94.6708 178.935 89.3143 172.327 89.3143C165.72 89.3143 160.363 94.6708 160.363 101.278C160.363 107.886 165.72 113.242 172.327 113.242ZM172.327 114.599C179.684 114.599 185.648 108.635 185.648 101.278C185.648 93.9214 179.684 87.9575 172.327 87.9575C164.97 87.9575 159.006 93.9214 159.006 101.278C159.006 108.635 164.97 114.599 172.327 114.599Z" fill="white"/>
<path d="M184.213 101.278C184.213 107.843 178.892 113.165 172.327 113.165C165.762 113.165 160.441 107.843 160.441 101.278C160.441 94.7137 165.762 89.3921 172.327 89.3921C178.892 89.3921 184.213 94.7137 184.213 101.278Z" fill="#D9D9D9" fill-opacity="0.35"/>
<path fill-rule="evenodd" clip-rule="evenodd" d="M172.327 111.808C178.142 111.808 182.857 107.094 182.857 101.278C182.857 95.4631 178.142 90.7489 172.327 90.7489C166.512 90.7489 161.798 95.4631 161.798 101.278C161.798 107.094 166.512 111.808 172.327 111.808ZM172.327 113.165C178.892 113.165 184.213 107.843 184.213 101.278C184.213 94.7137 178.892 89.3921 172.327 89.3921C165.762 89.3921 160.441 94.7137 160.441 101.278C160.441 107.843 165.762 113.165 172.327 113.165Z" fill="#2A2F2D"/>
<path fill-rule="evenodd" clip-rule="evenodd" d="M142.604 114.677C150.004 114.677 156.003 108.678 156.003 101.278C156.003 93.8785 150.004 87.8798 142.604 87.8798C135.204 87.8798 129.206 93.8785 129.206 101.278C129.206 108.678 135.204 114.677 142.604 114.677ZM142.604 116.034C150.753 116.034 157.36 109.428 157.36 101.278C157.36 93.1292 150.753 86.5229 142.604 86.5229C134.455 86.5229 127.849 93.1292 127.849 101.278C127.849 109.428 134.455 116.034 142.604 116.034Z" fill="#2A2F2D"/>
<path fill-rule="evenodd" clip-rule="evenodd" d="M142.604 113.242C149.212 113.242 154.568 107.886 154.568 101.278C154.568 94.6708 149.212 89.3143 142.604 89.3143C135.996 89.3143 130.64 94.6708 130.64 101.278C130.64 107.886 135.996 113.242 142.604 113.242ZM142.604 114.599C149.961 114.599 155.925 108.635 155.925 101.278C155.925 93.9214 149.961 87.9575 142.604 87.9575C135.247 87.9575 129.283 93.9214 129.283 101.278C129.283 108.635 135.247 114.599 142.604 114.599Z" fill="white"/>
<path d="M154.49 101.278C154.49 107.843 149.169 113.165 142.604 113.165C136.039 113.165 130.718 107.843 130.718 101.278C130.718 94.7137 136.039 89.3921 142.604 89.3921C149.169 89.3921 154.49 94.7137 154.49 101.278Z" fill="#D9D9D9" fill-opacity="0.35"/>
<path fill-rule="evenodd" clip-rule="evenodd" d="M142.604 111.808C148.419 111.808 153.134 107.094 153.134 101.278C153.134 95.4631 148.419 90.7489 142.604 90.7489C136.789 90.7489 132.075 95.4631 132.075 101.278C132.075 107.094 136.789 111.808 142.604 111.808ZM142.604 113.165C149.169 113.165 154.49 107.843 154.49 101.278C154.49 94.7137 149.169 89.3921 142.604 89.3921C136.039 89.3921 130.718 94.7137 130.718 101.278C130.718 107.843 136.039 113.165 142.604 113.165Z" fill="#2A2F2D"/>
</g>
<defs>
<clipPath id="clip0_317_2901">
<rect width="135.037" height="158.459" fill="white" transform="translate(92.5715 0.0258179)"/>
</clipPath>
</defs>
</svg>
