<svg width="321" height="192" viewBox="0 0 321 192" fill="none" xmlns="http://www.w3.org/2000/svg">
<path d="M305.176 108.433C305.176 112.94 305.251 115.719 305.402 116.771L306.754 116.546C308.707 116.245 311.035 116.245 313.74 116.546C316.444 116.846 318.697 116.996 320.5 116.996L319.148 149.672C316.744 150.423 314.341 150.649 311.937 150.348C309.683 149.897 307.505 149.897 305.402 150.348C305.402 150.198 305.326 151.024 305.176 152.827C305.026 154.48 304.801 156.733 304.5 159.587C304.35 162.292 304.125 165.296 303.824 168.601C303.674 171.756 303.449 174.836 303.148 177.841C302.998 180.845 302.848 183.475 302.697 185.728C302.547 187.982 302.397 189.409 302.247 190.01C301.345 191.061 298.266 191.512 293.007 191.362C287.899 191.362 280.162 191.437 269.796 191.587C269.646 191.437 269.646 190.31 269.796 188.207C269.947 186.104 270.097 183.55 270.247 180.545C270.397 177.39 270.548 174.01 270.698 170.404C270.998 166.799 271.224 163.418 271.374 160.264C271.674 157.109 271.9 154.404 272.05 152.151C272.2 149.897 272.275 148.62 272.275 148.32C271.674 148.17 270.097 148.02 267.543 147.869C264.989 147.719 261.909 147.644 258.304 147.644C254.848 147.644 251.092 147.719 247.036 147.869C243.13 147.869 239.449 147.869 235.994 147.869C232.689 147.869 229.91 147.869 227.656 147.869C225.403 147.719 224.201 147.494 224.05 147.193C223.75 146.142 223.224 142.686 222.473 136.827C221.722 130.968 221.497 123.532 221.797 114.518C223.299 112.414 225.102 109.41 227.205 105.504C229.309 101.447 232.163 96.1892 235.769 89.7291C239.524 83.1189 244.182 75.1565 249.74 65.8421C255.449 56.5277 262.51 45.5606 270.923 32.9411C270.923 32.7908 270.998 32.7157 271.149 32.7157C271.749 32.7157 273.702 32.7157 277.008 32.7157C280.463 32.5655 284.144 32.4904 288.05 32.4904C291.956 32.3401 295.712 32.265 299.317 32.265C302.923 32.1148 305.327 32.1148 306.528 32.265H306.979C306.979 32.4153 306.904 34.4434 306.754 38.3495C306.604 42.2555 306.453 47.2132 306.303 53.2225C306.153 59.0816 305.927 65.5416 305.627 72.6026C305.477 79.5133 305.326 86.0484 305.176 92.208C305.176 98.3675 305.176 103.776 305.176 108.433ZM271.825 117.447C275.13 117.447 277.308 117.372 278.36 117.222L279.036 68.997C278.886 68.0956 278.059 68.6965 276.557 70.7998C275.205 72.7528 273.402 75.457 271.149 78.9124C269.045 82.3677 266.717 86.2738 264.163 90.6305C261.609 94.8371 259.205 98.8933 256.951 102.799C254.698 106.555 252.745 109.785 251.092 112.489C249.59 115.194 248.764 116.696 248.614 116.996C248.614 116.996 249.966 117.072 252.67 117.222C255.374 117.222 258.454 117.297 261.909 117.447C265.365 117.447 268.67 117.447 271.825 117.447Z" fill="#F2DECD"/>
<path d="M113.923 67.6447C115.726 62.0861 118.28 56.7528 121.585 51.6449C122.186 50.5933 122.937 49.6168 123.839 48.7154C128.346 43.6074 133.378 39.476 138.937 36.3211C144.496 33.016 151.106 31.2132 158.768 30.9127C166.43 30.6123 173.265 31.8141 179.274 34.5183C185.284 37.2225 190.467 40.9032 194.824 45.5605C199.18 50.0675 202.711 55.3256 205.415 61.3349C208.119 67.3442 210.072 73.5038 211.274 79.8136C212.025 84.621 212.551 89.2783 212.852 93.7852C213.302 98.142 213.377 102.499 213.077 106.856C213.377 112.715 213.227 118.949 212.626 125.56C212.025 132.02 210.823 138.48 209.021 144.94C207.368 151.249 205.039 157.259 202.035 162.968C199.18 168.526 195.65 173.484 191.443 177.841C187.387 182.047 182.58 185.352 177.021 187.756C171.462 190.009 165.153 190.911 158.092 190.46C152.082 190.16 146.824 189.183 142.317 187.531C134.655 184.676 128.721 180.845 124.515 176.038C120.308 171.08 117.153 165.597 115.05 159.587C113.097 153.428 111.82 146.968 111.219 140.207C110.768 133.447 110.468 126.686 110.318 119.926C110.017 114.217 109.792 108.433 109.642 102.574C109.491 96.5646 109.717 90.6304 110.318 84.7713C111.069 78.9122 112.271 73.2033 113.923 67.6447ZM151.106 151.024C152.157 151.925 153.51 152.526 155.162 152.827C156.514 153.278 157.941 153.578 159.444 153.728C160.946 153.878 162.298 153.728 163.5 153.278C166.505 152.376 168.608 150.949 169.81 148.996C171.012 147.043 171.988 144.864 172.739 142.461C173.941 138.705 174.617 135.099 174.767 131.644C174.918 128.189 175.143 124.508 175.444 120.602C175.594 116.696 175.669 112.414 175.669 107.757C175.819 102.949 175.669 98.2922 175.218 93.7852C174.918 89.128 174.242 84.8464 173.19 80.9403C172.289 76.884 170.937 73.5789 169.134 71.025C165.829 66.6682 161.247 65.4663 155.387 67.4194C153.885 67.7198 152.383 68.471 150.88 69.6728C149.528 70.8747 148.477 72.1517 147.726 73.5038C146.974 74.7057 146.298 76.8089 145.697 79.8136C145.247 82.8182 144.796 86.1985 144.345 89.9543C143.594 99.419 143.219 107.982 143.219 115.644C143.219 123.306 144.27 131.118 146.373 139.08C146.824 140.433 147.2 141.86 147.5 143.362C147.801 144.714 148.251 146.066 148.852 147.418C149.453 148.771 150.204 149.972 151.106 151.024Z" fill="#F2DECD"/>
<path d="M84.0081 108.433C84.0081 112.94 84.0832 115.719 84.2334 116.771L85.5855 116.546C87.5385 116.245 89.8672 116.245 92.5714 116.546C95.2755 116.846 97.529 116.996 99.3318 116.996L97.9797 149.672C95.576 150.423 93.1723 150.649 90.7686 150.348C88.5151 149.897 86.3367 149.897 84.2334 150.348C84.2334 150.198 84.1583 151.024 84.0081 152.827C83.8578 154.48 83.6325 156.733 83.332 159.587C83.1818 162.292 82.9564 165.296 82.656 168.601C82.5057 171.756 82.2804 174.836 81.9799 177.841C81.8297 180.845 81.6795 183.475 81.5292 185.728C81.379 187.982 81.2288 189.409 81.0785 190.01C80.1771 191.061 77.0974 191.512 71.8392 191.362C66.7313 191.362 58.9943 191.437 48.6282 191.587C48.478 191.437 48.478 190.31 48.6282 188.207C48.7784 186.104 48.9287 183.55 49.0789 180.545C49.2291 177.39 49.3794 174.01 49.5296 170.404C49.8301 166.799 50.0554 163.418 50.2057 160.264C50.5061 157.109 50.7315 154.404 50.8817 152.151C51.0319 149.897 51.1071 148.62 51.1071 148.32C50.5061 148.17 48.9287 148.02 46.3747 147.869C43.8208 147.719 40.741 147.644 37.1354 147.644C33.68 147.644 29.9242 147.719 25.8679 147.869C21.9619 147.869 18.2811 147.869 14.8258 147.869C11.5207 147.869 8.74135 147.869 6.48786 147.869C4.23436 147.719 3.0325 147.494 2.88227 147.193C2.5818 146.142 2.05598 142.686 1.30482 136.827C0.553654 130.968 0.328305 123.532 0.628771 114.518C2.1311 112.414 3.9339 109.41 6.03716 105.504C8.14042 101.447 10.9948 96.1892 14.6004 89.7291C18.3563 83.1189 23.0135 75.1565 28.5721 65.8421C34.281 56.5277 41.3419 45.5606 49.755 32.9411C49.755 32.7908 49.8301 32.7157 49.9803 32.7157C50.5812 32.7157 52.5343 32.7157 55.8394 32.7157C59.2947 32.5655 62.9755 32.4904 66.8815 32.4904C70.7876 32.3401 74.5434 32.265 78.149 32.265C81.7546 32.1148 84.1583 32.1148 85.3602 32.265H85.8109C85.8109 32.4153 85.7357 34.4434 85.5855 38.3495C85.4353 42.2555 85.285 47.2132 85.1348 53.2225C84.9846 59.0816 84.7592 65.5416 84.4588 72.6026C84.3085 79.5133 84.1583 86.0484 84.0081 92.208C84.0081 98.3675 84.0081 103.776 84.0081 108.433ZM50.6564 117.447C53.9615 117.447 56.1399 117.372 57.1915 117.222L57.8675 68.997C57.7173 68.0956 56.891 68.6965 55.3887 70.7998C54.0366 72.7528 52.2338 75.457 49.9803 78.9124C47.877 82.3677 45.5484 86.2738 42.9945 90.6305C40.4405 94.8371 38.0368 98.8933 35.7833 102.799C33.5298 106.555 31.5768 109.785 29.9242 112.489C28.4219 115.194 27.5956 116.696 27.4454 116.996C27.4454 116.996 28.7975 117.072 31.5016 117.222C34.2058 117.222 37.2856 117.297 40.741 117.447C44.1963 117.447 47.5015 117.447 50.6564 117.447Z" fill="#F2DECD"/>
<g clip-path="url(#clip0_317_2901)">
<path d="M225.972 75.7275C221.85 75.7275 217.729 75.7444 213.625 75.7275C213.71 75.3883 213.794 75.0491 213.879 74.7099C216.61 74.3367 215.83 71.0125 215.253 69.1808C217.322 67.6544 219.239 65.6531 219.781 63.0582C220.952 56.1554 219.34 49.2356 218.815 42.3328C218.323 37.9571 218.645 33.4965 217.967 29.1378C217.169 29.9519 217.254 31.19 216.949 32.2245C215.643 40.6029 212.675 48.8625 207.553 55.6805C205.009 59.1913 204.568 64.4829 207.723 67.7562C207.333 69.537 203.907 72.3354 206.705 73.6583C206.688 74.2859 206.518 74.9134 206.485 75.5409C200.955 75.6088 195.41 75.3035 189.914 74.8286C189.219 74.8116 188.388 74.9304 187.845 74.4215C182.011 64.2285 176.516 53.747 172.717 42.6042C170.122 34.8873 168.256 25.5252 173.209 18.3171C175.464 14.6537 181.502 12.432 184.64 16.1971C186.997 18.6394 183.826 22.9642 180.773 21.6922C179.382 20.9629 178.212 22.8286 178.992 23.9819C181.366 26.6785 185.59 26.899 188.575 25.1352C191.695 23.4222 193.578 19.8096 193.544 16.2989C193.866 8.83639 187.421 2.18798 180.111 1.50957C173.633 0.678521 167.154 3.59568 162.541 8.0223C157.69 12.5168 154.417 18.368 151.686 24.3041C144.291 41.0778 137.389 58.0719 129.926 74.8116C118.376 75.931 106.725 75.6936 95.1237 75.7105C93.3599 75.8632 92.2405 78.5938 93.8687 79.6623C102.925 85.0895 113.288 87.7523 123.498 90.0589C122.752 93.3152 121.938 96.5546 121.429 99.8619C121.175 100.659 121.378 101.711 120.598 102.253C116.578 105.425 112.254 108.461 109.387 112.803C108.353 114.38 107.403 116.483 108.404 118.315C109.252 119.824 111.219 120.18 112.796 119.773C115.798 118.959 118.257 116.907 120.462 114.787C119.801 126.371 123.261 139.311 133.25 146.214C131.707 147.808 129.57 148.809 128.4 150.743C127.772 151.862 128.111 153.202 128.756 154.236C123.532 154.355 118.088 153.965 113.017 155.271C118.902 156.102 124.872 155.322 130.774 155.915C133.81 157.425 137.406 157.221 140.458 155.865C152.958 155.593 165.458 155.576 177.94 155.881C180.993 157.289 184.606 157.425 187.659 155.915C193.713 155.356 199.819 156.051 205.857 155.288C200.565 153.829 194.969 154.44 189.541 154.185C191.424 151.574 188.676 149.08 186.624 147.707C186.166 147.198 184.453 146.604 185.522 145.909C194.612 138.972 197.954 126.896 197.665 115.889C198.293 115.211 199.446 115.007 200.311 114.583C198.751 123.742 197.411 132.951 195.817 142.11C196.224 145.332 201.566 146.163 203.177 143.534C204.958 132.968 206.332 122.3 208.096 111.734C213.235 109.953 213.93 102.457 210.131 99.0139C210.843 94.706 191.5 121.974 193.544 90.0589C198.802 88.3459 222.631 82.4946 227.363 79.5944C228.957 78.509 227.77 75.7784 225.972 75.7275Z" fill="#DFE7EB"/>
<path d="M151.754 0.0847091C152.89 -0.441058 153.535 1.50937 152.449 1.88249C151.381 2.51002 150.533 0.423913 151.754 0.0847091Z" fill="#192C32"/>
<path d="M162.541 9.4467C167.154 5.02008 173.65 2.10292 180.111 2.91701C187.421 3.59542 193.866 10.2438 193.544 17.7063C193.578 21.234 191.695 24.8296 188.575 26.5426C185.573 28.3065 181.366 28.086 178.992 25.3893C178.212 24.236 179.365 22.3704 180.773 23.0997C183.826 24.3717 186.997 20.0468 184.64 17.6046C181.502 13.8394 175.464 16.0612 173.209 19.7246C168.256 26.9157 170.122 36.2947 172.717 44.0116C176.516 55.1545 182.011 65.6359 187.845 75.829C188.388 76.3378 189.219 76.236 189.914 76.236C195.41 76.7109 200.955 77.0162 206.485 76.9484C206.518 76.3208 206.705 75.7103 206.705 75.0658C203.907 73.7429 207.333 70.9275 207.723 69.1636C204.568 65.8903 205.009 60.5987 207.553 57.088C212.692 50.27 215.643 42.0273 216.949 33.632C217.254 32.5974 217.169 31.3593 217.967 30.5452C218.645 34.904 218.323 39.3476 218.815 43.7403C219.34 50.6261 220.969 57.5459 219.781 64.4657C219.239 67.0606 217.322 69.0788 215.253 70.5883C215.83 72.42 216.61 75.7442 213.879 76.1173C213.794 76.4565 213.71 76.7957 213.625 77.1349C217.746 77.1519 221.867 77.1519 225.972 77.1349C227.77 77.1858 228.957 79.9164 227.346 81.0358C222.597 83.936 217.322 85.7847 212.064 87.4976C211.539 91.8395 210.826 96.1473 210.114 100.455C213.93 103.898 213.235 111.378 208.079 113.175C206.298 123.742 204.924 134.41 203.16 144.976C201.532 147.605 196.19 146.774 195.8 143.551C197.411 134.393 198.734 125.183 200.294 116.025C199.429 116.449 198.293 116.652 197.648 117.331C197.937 128.338 194.595 140.414 185.505 147.35C184.436 148.046 186.166 148.639 186.607 149.148C188.659 150.505 191.407 153.015 189.524 155.627C194.952 155.881 200.565 155.271 205.84 156.729C199.802 157.509 193.68 156.797 187.642 157.357C184.606 158.866 180.976 158.731 177.924 157.323C165.441 157.018 152.924 157.035 140.441 157.306C137.406 158.663 133.793 158.883 130.757 157.357C124.855 156.763 118.885 157.543 113 156.712C118.054 155.406 123.498 155.779 128.739 155.678C128.094 154.643 127.755 153.32 128.383 152.184C129.553 150.25 131.707 149.25 133.233 147.656C123.244 140.753 119.767 127.812 120.445 116.228C118.241 118.331 115.781 120.383 112.779 121.215C111.202 121.639 109.235 121.265 108.387 119.756C107.386 117.941 108.336 115.821 109.37 114.244C112.237 109.902 116.561 106.866 120.581 103.695C121.361 103.169 121.158 102.1 121.412 101.303C121.921 97.996 122.735 94.7566 123.481 91.5002C113.288 89.2106 102.925 86.5479 93.8687 81.1206C92.2405 80.0351 93.3429 77.3215 95.1237 77.1689C106.725 77.1519 118.376 77.3893 129.926 76.27C137.389 59.5302 144.291 42.5361 151.686 25.7624C154.417 19.8094 157.69 13.9412 162.541 9.4467ZM208.469 60.7344C207.061 63.6176 208.723 66.8062 210.657 68.9771C210.284 70.3848 209.317 71.5381 208.638 72.827C210.148 72.861 211.64 72.9458 213.116 73.268C213.15 71.8094 212.081 70.0286 213.353 68.8244C215.423 67.4337 217.288 65.3645 217.475 62.7696C218.068 57.1558 216.915 51.5928 216.457 46.0299C214.608 51.3384 211.233 55.8838 208.469 60.7344ZM157.249 63.6176C154.196 66.6874 156.316 72.3352 160.115 73.7259C162.015 74.5909 164.983 73.2341 164.745 70.9275C163.677 69.9438 162.151 70.1643 160.828 70.1304C160.2 70.1982 159.827 69.2484 160.387 68.9092C161.777 67.5694 163.897 68.4174 165.458 68.9771C165.509 65.1441 160.828 60.9549 157.249 63.6176ZM136.405 68.1121C135.099 70.5713 134.166 73.251 132.928 75.7612C140.119 74.2687 147.378 72.7762 154.756 72.4878C153.331 69.9099 152.687 66.7383 153.874 63.9399C147.87 64.1773 141.849 65.5341 136.405 68.1121ZM167.374 65.8055C168.019 68.0443 168.222 70.4696 167.374 72.6744C173.31 73.2341 179.094 74.7266 184.945 75.7951C183.792 74.1669 182.944 72.3013 181.706 70.7409C177.194 68.4343 172.327 66.874 167.374 65.8055ZM127.84 85.9034C126.042 91.1102 124.855 96.5205 123.871 101.948C124.329 102.541 125.279 103.44 124.482 104.186C119.784 107.612 114.815 110.954 111.423 115.787C110.761 116.584 110.388 117.755 110.846 118.738C115.256 118.637 118.207 114.6 121.259 111.886C121.921 110.937 123.532 111.751 123.21 112.853C122.718 121.808 123.04 131.543 128.468 139.108C134.285 147.333 144.342 151.37 154.044 152.608C161.15 153.286 168.511 152.896 175.244 150.335C180.824 148.198 185.912 144.552 189.304 139.599C194.799 131.798 195.308 121.808 195.002 112.616C196.139 110.886 198.106 113.175 197.58 114.617C199.972 113.888 201.719 111.496 201.074 108.952C203.076 106.731 204.178 111.666 206.485 110.818C211.166 110.36 211.013 102.117 206.332 101.778C202.974 102.507 200.633 105.255 197.818 107.002C197.004 107.782 195.274 108.868 194.545 107.46C193.459 100.235 192.221 92.9588 189.728 86.056C169.121 86.5987 148.447 86.8531 127.84 85.9034ZM194.154 91.4833C195.138 95.859 196.071 100.252 196.732 104.678C198.751 103.254 200.667 101.71 202.719 100.337C203.33 96.6053 203.94 92.8571 204.534 89.1089C201.074 89.9399 197.631 90.7879 194.154 91.4833ZM130.638 153.693C133.64 157.357 139.543 155.881 142.137 152.455C140 151.37 137.796 150.335 135.659 149.267C133.997 150.725 131.86 151.777 130.638 153.693ZM176.465 152.574C178.822 155.813 183.961 156.984 187.201 154.389C187.472 151.709 184.165 151.081 182.74 149.419C180.722 150.607 178.67 151.777 176.465 152.574ZM142.833 155.593C148.548 155.661 154.281 155.457 159.997 155.593C159.997 155.559 160.014 155.491 160.014 155.457C154.858 155.508 149.719 154.728 144.732 153.354C144.241 154.185 143.257 154.83 142.833 155.593ZM162.015 155.406C166.56 155.644 171.122 155.508 175.668 155.559C175.108 154.881 174.464 154.304 173.955 153.575C170.088 154.745 166.051 155.322 162.015 155.406Z" fill="#192C32"/>
<path d="M203.466 9.51462C202.126 9.68422 202.329 7.64899 203.483 7.53027C204.636 7.69988 204.653 9.42982 203.466 9.51462Z" fill="#192C32"/>
<path d="M129.621 12.2622C131.622 11.4311 132.69 14.9588 130.672 15.4507C128.671 16.3496 127.45 12.7201 129.621 12.2622Z" fill="#192C32"/>
<path d="M208.503 24.1342C209.503 23.795 210.436 25.2197 209.486 25.8642C208.418 26.78 207.282 24.7109 208.503 24.1342Z" fill="#192C32"/>
<path d="M197.648 38.1434C198.988 37.5667 200.209 39.2797 199.649 40.4669C199.259 41.2641 198.14 41.6033 197.377 41.1114C196.291 40.4669 196.325 38.5165 197.648 38.1434Z" fill="#192C32"/>
<path d="M215.117 55.2394C215.779 54.7136 216.61 55.5786 216.525 56.274C216.474 59.4286 216.796 62.7528 215.423 65.6869C214.608 67.2472 212.929 69.045 211.013 68.214C208.808 66.9589 208.316 63.7026 209.554 61.5995C211.556 61.3451 210.894 63.8213 210.979 65.0254C210.741 66.2127 212.387 66.8063 212.997 65.7887C215.643 62.8545 213.387 58.5127 215.117 55.2394Z" fill="#192C32"/>
<path d="M176.574 120.648C176.81 120.067 177.444 120.273 177.935 120.3C179.162 122.34 176.693 123.951 175.639 125.471C166.676 135.005 149.573 134.058 141.229 124.177C140.33 123.243 142.196 121.785 142.917 122.845C148.526 128.818 157.552 131.433 165.417 129.023C170.026 127.72 173.941 124.56 176.574 120.648Z" fill="#192C32"/>
<path d="M173.105 82.981C174.018 83.5315 174.724 84.2455 175.222 85.1228C175.486 85.4894 175.698 85.8795 175.859 86.2931C176.042 86.6749 176.2 87.0751 176.334 87.4937C176.512 88.1535 176.664 88.8183 176.788 89.4881C176.935 90.1261 177.057 90.7826 177.154 91.4575C177.337 92.8927 177.566 94.2776 177.842 95.6123C178.118 96.9469 178.332 98.321 178.483 99.7344L178.607 101.083C178.728 102.031 178.756 103.01 178.692 104.02C178.623 105.003 178.418 105.929 178.076 106.796C177.736 107.525 177.225 108.161 176.543 108.704C175.884 109.215 175.155 109.656 174.357 110.027C173.641 110.382 172.895 110.66 172.122 110.859C171.375 111.054 170.605 111.198 169.812 111.29C169.235 111.342 168.666 111.365 168.105 111.359C167.577 111.374 167.05 111.32 166.524 111.196C166.025 111.068 165.556 110.878 165.118 110.627C164.675 110.349 164.282 109.965 163.94 109.474C163.437 108.875 163.048 108.213 162.774 107.488C162.521 106.731 162.309 105.967 162.138 105.195C161.668 103.12 161.185 101.048 160.689 98.9778C160.215 96.8762 159.848 94.7544 159.59 92.6125C159.393 91.4017 159.317 90.1683 159.364 88.9122C159.432 87.6242 159.797 86.4332 160.461 85.3392C160.681 85.0209 160.947 84.7218 161.258 84.442C162.07 83.847 162.972 83.36 163.964 82.9809C164.978 82.57 166.003 82.2957 167.04 82.1578C168.103 82.0148 169.151 82.0134 170.184 82.1536C171.238 82.2619 172.212 82.5377 173.105 82.981ZM173.067 97.6673L172.708 95.7381L172.119 93.0202C172.114 92.9935 172.037 92.7306 171.889 92.2315C171.762 91.7007 171.643 91.2101 171.531 90.7596C171.338 90.0194 170.995 89.3765 170.502 88.8308C170.036 88.28 169.465 87.9152 168.789 87.7364C168.209 87.6228 167.648 87.6859 167.105 87.9257C166.563 88.1655 166.105 88.4865 165.733 88.8886C164.921 89.7884 164.458 90.8312 164.343 92.017C164.316 93.0755 164.38 94.1725 164.536 95.3079C164.718 96.4383 164.94 97.5611 165.203 98.6764C165.513 99.589 165.787 100.536 166.025 101.517C166.258 102.472 166.592 103.366 167.027 104.2C167.396 104.685 167.865 105.027 168.433 105.226C169.002 105.425 169.588 105.496 170.192 105.439C170.791 105.355 171.371 105.164 171.93 104.865C172.485 104.54 172.923 104.112 173.243 103.581C173.427 103.214 173.555 102.927 173.628 102.719C173.696 102.484 173.722 102.244 173.704 101.998C173.686 101.752 173.634 101.47 173.547 101.154C173.482 100.806 173.425 100.345 173.374 99.7723C173.301 99.2314 173.228 98.76 173.153 98.3581C173.105 97.9511 173.077 97.7209 173.067 97.6673Z" fill="#192C32"/>
<path fill-rule="evenodd" clip-rule="evenodd" d="M173.655 81.9777L173.695 82.0018C174.748 82.6367 175.586 83.4716 176.185 84.5045C176.479 84.9216 176.721 85.3662 176.908 85.8372C177.106 86.2562 177.277 86.6925 177.422 87.1452L177.43 87.1697L177.436 87.1945C177.621 87.876 177.778 88.5629 177.907 89.2551C178.058 89.9175 178.184 90.597 178.285 91.2935L178.286 91.3029L178.287 91.3124C178.467 92.7202 178.692 94.076 178.961 95.3801C179.245 96.7528 179.464 98.1636 179.619 99.6125L179.62 99.6284L179.62 99.6284L179.743 100.959C179.871 101.976 179.9 103.021 179.832 104.092L179.832 104.1L179.832 104.1C179.755 105.192 179.526 106.233 179.139 107.215L179.126 107.248L179.111 107.279C178.691 108.182 178.063 108.955 177.255 109.598L177.243 109.608L177.243 109.608C176.516 110.171 175.717 110.654 174.851 111.057C174.068 111.444 173.254 111.747 172.409 111.966C171.609 112.174 170.788 112.327 169.944 112.426L169.929 112.427L169.914 112.429C169.307 112.484 168.707 112.508 168.115 112.502C167.493 112.518 166.875 112.453 166.262 112.309L166.25 112.307L166.238 112.303C165.642 112.15 165.079 111.922 164.55 111.619L164.53 111.608L164.511 111.596C163.935 111.234 163.444 110.751 163.033 110.171C162.463 109.485 162.02 108.724 161.705 107.893L161.697 107.872L161.69 107.85C161.425 107.057 161.203 106.255 161.023 105.445C160.555 103.376 160.073 101.309 159.578 99.2451L159.575 99.2302L159.575 99.2302C159.093 97.0982 158.721 94.9458 158.459 92.7732C158.252 91.4936 158.173 90.1924 158.222 88.8708L158.222 88.8615L158.223 88.8523C158.301 87.3776 158.722 86.0034 159.484 84.7467L159.502 84.7171L159.522 84.6886C159.797 84.2914 160.123 83.9262 160.495 83.5917L160.538 83.5535L160.584 83.5198C161.479 82.8634 162.468 82.33 163.546 81.9171C164.641 81.4742 165.756 81.1754 166.889 81.0247C168.044 80.8695 169.189 80.8665 170.319 81.0183C171.494 81.141 172.595 81.4517 173.613 81.9569L173.655 81.9777ZM170.184 82.1536C169.151 82.0135 168.103 82.0149 167.04 82.1578C166.003 82.2957 164.978 82.5701 163.964 82.9809C162.972 83.36 162.07 83.847 161.258 84.442C160.947 84.7218 160.681 85.0209 160.461 85.3393C159.797 86.4332 159.432 87.6242 159.364 88.9122C159.318 90.1683 159.393 91.4017 159.59 92.6125C159.848 94.7544 160.215 96.8762 160.689 98.9778C161.186 101.048 161.669 103.12 162.138 105.195C162.309 105.967 162.521 106.731 162.774 107.488C163.048 108.213 163.437 108.875 163.94 109.474C164.282 109.965 164.675 110.349 165.118 110.627C165.556 110.878 166.025 111.068 166.524 111.196C167.05 111.32 167.577 111.374 168.106 111.359C168.666 111.365 169.235 111.342 169.812 111.29C170.605 111.198 171.375 111.054 172.122 110.859C172.896 110.66 173.641 110.382 174.357 110.027C175.155 109.656 175.884 109.215 176.544 108.704C177.225 108.161 177.736 107.525 178.076 106.796C178.418 105.929 178.623 105.003 178.692 104.02C178.756 103.01 178.728 102.031 178.608 101.083L178.483 99.7344C178.332 98.321 178.118 96.9469 177.842 95.6123C177.566 94.2776 177.337 92.8927 177.154 91.4575C177.057 90.7826 176.935 90.1261 176.788 89.4881C176.664 88.8183 176.512 88.1535 176.334 87.4937C176.2 87.0751 176.042 86.6749 175.859 86.2931C175.698 85.8795 175.486 85.4894 175.222 85.1228C174.724 84.2455 174.018 83.5316 173.105 82.981C172.212 82.5377 171.238 82.2619 170.184 82.1536ZM170.502 88.8308C170.036 88.2801 169.465 87.9153 168.789 87.7364C168.209 87.6228 167.648 87.6859 167.105 87.9257C166.563 88.1655 166.105 88.4865 165.733 88.8886C164.922 89.7884 164.458 90.8313 164.343 92.0171C164.316 93.0755 164.381 94.1725 164.536 95.3079C164.718 96.4383 164.94 97.5611 165.204 98.6764C165.513 99.589 165.787 100.536 166.025 101.517C166.258 102.472 166.592 103.366 167.027 104.2C167.396 104.685 167.865 105.027 168.434 105.226C169.002 105.425 169.588 105.496 170.192 105.439C170.792 105.355 171.371 105.164 171.931 104.865C172.485 104.54 172.923 104.112 173.243 103.581C173.427 103.214 173.555 102.927 173.628 102.719C173.696 102.484 173.722 102.244 173.704 101.998C173.686 101.752 173.634 101.47 173.547 101.154C173.482 100.806 173.425 100.345 173.374 99.7723C173.302 99.2314 173.228 98.76 173.153 98.3581C173.106 97.9512 173.077 97.7209 173.067 97.6673L172.708 95.7381L172.119 93.0203C172.114 92.9935 172.038 92.7306 171.889 92.2316C171.762 91.7007 171.643 91.2101 171.531 90.7596C171.338 90.0195 170.995 89.3765 170.502 88.8308ZM170.424 91.0428C170.275 90.4755 170.018 90.0001 169.654 89.5974L169.642 89.5836L169.63 89.5695C169.319 89.202 168.96 88.9717 168.533 88.8516C168.197 88.7924 167.884 88.8309 167.567 88.9714C167.157 89.1522 166.833 89.3838 166.576 89.6601C165.938 90.3698 165.581 91.1694 165.485 92.0879C165.462 93.0631 165.522 94.0799 165.666 95.1391C165.84 96.2201 166.053 97.2941 166.303 98.3611C166.617 99.2905 166.894 100.252 167.135 101.246C167.339 102.079 167.625 102.855 167.992 103.577C168.217 103.848 168.485 104.033 168.811 104.147C169.215 104.289 169.627 104.341 170.06 104.303C170.504 104.238 170.941 104.095 171.373 103.868C171.746 103.645 172.031 103.366 172.243 103.026C172.394 102.722 172.488 102.508 172.539 102.372C172.563 102.278 172.572 102.183 172.564 102.081C172.553 101.929 172.518 101.723 172.445 101.457L172.433 101.411L172.424 101.363C172.351 100.97 172.29 100.478 172.238 99.8997C172.169 99.3828 172.099 98.9395 172.03 98.5676L172.023 98.5299L172.018 98.4917C171.995 98.2893 171.976 98.1335 171.962 98.0228C171.955 97.9672 171.95 97.9254 171.946 97.896C171.944 97.8797 171.942 97.8708 171.942 97.8672L171.588 95.9643L171.007 93.2839L171.003 93.2672C170.994 93.2359 170.98 93.1888 170.961 93.1242C170.924 92.9957 170.868 92.8075 170.794 92.5586L170.785 92.5282L170.778 92.4974C170.652 91.9722 170.535 91.4874 170.424 91.0428ZM171.01 93.295C171.013 93.3036 171.012 93.302 171.01 93.2937L171.01 93.295Z" fill="#DFE7EB"/>
<path d="M171.583 86.0303C172.236 86.4834 172.746 87.0626 173.113 87.7681C173.305 88.0638 173.461 88.3774 173.582 88.7086C173.717 89.015 173.836 89.3356 173.937 89.6704C174.074 90.1976 174.192 90.7282 174.292 91.2624C174.406 91.7717 174.503 92.2953 174.584 92.833C174.737 93.9761 174.923 95.0801 175.14 96.145C175.358 97.2098 175.532 98.3049 175.662 99.4302L175.774 100.504C175.875 101.259 175.912 102.037 175.884 102.838C175.852 103.618 175.723 104.349 175.497 105.032C175.27 105.605 174.921 106.102 174.45 106.521C173.993 106.916 173.487 107.253 172.931 107.534C172.432 107.804 171.912 108.012 171.37 108.157C170.847 108.299 170.307 108.399 169.749 108.459C169.343 108.491 168.942 108.499 168.547 108.484C168.175 108.487 167.802 108.435 167.429 108.328C167.075 108.217 166.742 108.058 166.429 107.851C166.111 107.623 165.828 107.311 165.578 106.916C165.213 106.431 164.928 105.898 164.722 105.318C164.531 104.712 164.368 104.101 164.234 103.485C163.868 101.829 163.491 100.175 163.106 98.5221C162.735 96.8446 162.441 95.153 162.222 93.4473C162.062 92.4821 161.987 91.5011 161.998 90.5042C162.024 89.4824 162.262 88.5427 162.71 87.6852C162.86 87.4362 163.042 87.2032 163.257 86.9863C163.819 86.5277 164.447 86.1564 165.139 85.8725C165.847 85.5636 166.565 85.3634 167.293 85.2718C168.041 85.1766 168.78 85.1936 169.51 85.3227C170.255 85.4269 170.946 85.6628 171.583 86.0303Z" fill="#DFE7EB"/>
<path d="M167.07 93.0079C168.949 92.3798 171.161 93.6213 171.708 95.4293C172.289 97.265 171.121 99.4006 169.218 99.9094C167.382 100.489 165.259 99.3921 164.683 97.6166C163.979 95.7903 165.171 93.5619 167.07 93.0079Z" fill="#192C32"/>
<path d="M167.165 94.175C168.082 93.7868 169.396 94.278 169.481 95.3478C169.683 96.5299 168.187 97.4623 167.118 96.9222C166.035 96.3983 165.97 94.5994 167.165 94.175Z" fill="#DFE7EB"/>
<path d="M143.864 84.4594C142.934 84.9822 142.208 85.6746 141.683 86.5365C141.408 86.895 141.184 87.2786 141.011 87.6872C140.817 88.0632 140.647 88.4585 140.501 88.8729C140.302 89.527 140.131 90.1869 139.986 90.8527C139.821 91.4861 139.679 92.1386 139.561 92.8102C139.335 94.2393 139.064 95.6167 138.748 96.9424C138.432 98.2682 138.178 99.6352 137.984 101.043L137.819 102.388C137.67 103.332 137.612 104.309 137.646 105.321C137.685 106.306 137.863 107.237 138.178 108.114C138.496 108.853 138.987 109.504 139.653 110.067C140.297 110.598 141.012 111.061 141.798 111.455C142.504 111.832 143.24 112.132 144.007 112.355C144.748 112.572 145.513 112.738 146.303 112.855C146.879 112.924 147.447 112.964 148.007 112.975C148.534 113.006 149.063 112.968 149.593 112.86C150.095 112.746 150.569 112.571 151.015 112.333C151.466 112.069 151.87 111.697 152.228 111.217C152.748 110.633 153.156 109.983 153.453 109.266C153.728 108.517 153.963 107.759 154.157 106.993C154.689 104.933 155.234 102.876 155.792 100.822C156.33 98.7361 156.76 96.6263 157.083 94.4931C157.316 93.2888 157.428 92.0582 157.42 90.8013C157.391 89.5119 157.061 88.3104 156.431 87.197C156.22 86.8722 155.964 86.5652 155.661 86.2761C154.867 85.657 153.98 85.143 153 84.7343C151.999 84.2931 150.983 83.988 149.951 83.819C148.892 83.6442 147.844 83.6112 146.808 83.7202C145.751 83.7968 144.77 84.0432 143.864 84.4594ZM143.46 99.1402L143.876 97.2227L144.547 94.5238C144.552 94.4971 144.637 94.2366 144.801 93.7423C144.943 93.2155 145.077 92.7287 145.202 92.2818C145.418 91.5478 145.78 90.9155 146.289 90.3848C146.771 89.8484 147.353 89.5009 148.034 89.3425C148.618 89.2464 149.177 89.3264 149.712 89.5824C150.247 89.8384 150.694 90.173 151.055 90.5862C151.838 91.51 152.27 92.5662 152.349 93.755C152.344 94.8138 152.247 95.9083 152.058 97.0385C151.842 98.1629 151.586 99.2786 151.289 100.385C150.952 101.288 150.65 102.227 150.383 103.2C150.121 104.147 149.76 105.031 149.301 105.851C148.916 106.326 148.437 106.653 147.864 106.835C147.29 107.017 146.702 107.07 146.099 106.995C145.503 106.893 144.929 106.684 144.379 106.369C143.834 106.027 143.41 105.586 143.105 105.046C142.933 104.674 142.814 104.383 142.747 104.173C142.686 103.936 142.668 103.695 142.693 103.45C142.718 103.204 142.779 102.925 142.875 102.611C142.95 102.265 143.022 101.806 143.089 101.235C143.178 100.697 143.266 100.228 143.353 99.8281C143.413 99.4227 143.448 99.1934 143.46 99.1402Z" fill="#192C32"/>
<path fill-rule="evenodd" clip-rule="evenodd" d="M143.344 83.44L143.303 83.463C142.232 84.0658 141.369 84.8752 140.739 85.8896C140.432 86.2976 140.178 86.7348 139.977 87.2C139.766 87.6128 139.581 88.0437 139.423 88.4919L139.415 88.5161L139.407 88.5407C139.202 89.2164 139.025 89.8982 138.875 90.5862C138.704 91.2438 138.557 91.9192 138.436 92.6123L138.434 92.6217L138.433 92.6311C138.211 94.0329 137.946 95.3813 137.637 96.6768C137.312 98.0402 137.051 99.4439 136.852 100.887L136.85 100.903L136.85 100.903L136.687 102.229C136.529 103.242 136.469 104.286 136.504 105.358L136.504 105.366L136.504 105.366C136.548 106.461 136.746 107.508 137.103 108.501L137.115 108.534L137.129 108.566C137.522 109.481 138.126 110.272 138.915 110.94L138.927 110.95L138.927 110.95C139.637 111.535 140.42 112.041 141.273 112.47C142.044 112.881 142.849 113.208 143.687 113.452C144.48 113.684 145.297 113.862 146.138 113.986L146.152 113.988L146.167 113.99C146.772 114.063 147.371 114.106 147.964 114.117C148.584 114.152 149.204 114.106 149.821 113.98L149.833 113.978L149.845 113.975C150.445 113.84 151.016 113.629 151.553 113.342L151.573 113.331L151.593 113.32C152.179 112.976 152.684 112.507 153.113 111.941C153.703 111.271 154.169 110.524 154.509 109.704L154.517 109.682L154.525 109.661C154.813 108.876 155.06 108.081 155.264 107.277C155.794 105.223 156.338 103.172 156.895 101.123L156.899 101.108L156.899 101.108C157.444 98.9917 157.881 96.8515 158.209 94.6878C158.454 93.4151 158.572 92.1168 158.563 90.7943L158.563 90.785L158.563 90.7758C158.529 89.2994 158.149 87.9131 157.425 86.6341L157.408 86.604L157.389 86.5749C157.127 86.1697 156.811 85.7948 156.449 85.4492L156.408 85.4098L156.363 85.3747C155.488 84.6917 154.515 84.1287 153.45 83.6836C152.369 83.2079 151.263 82.8758 150.136 82.691C148.985 82.5011 147.842 82.4637 146.707 82.5814C145.529 82.6687 144.419 82.9461 143.387 83.4205L143.344 83.44ZM146.808 83.7203C147.845 83.6113 148.892 83.6442 149.951 83.8191C150.983 83.9881 151.999 84.2932 153 84.7344C153.98 85.1431 154.867 85.657 155.661 86.2762C155.964 86.5653 156.22 86.8722 156.431 87.197C157.061 88.3105 157.391 89.5119 157.42 90.8013C157.429 92.0583 157.316 93.2889 157.083 94.4932C156.76 96.6264 156.33 98.7361 155.793 100.823C155.234 102.876 154.689 104.933 154.157 106.993C153.963 107.759 153.728 108.517 153.453 109.266C153.157 109.983 152.748 110.633 152.228 111.217C151.87 111.697 151.466 112.069 151.015 112.333C150.57 112.571 150.096 112.746 149.593 112.86C149.063 112.968 148.534 113.006 148.007 112.975C147.447 112.964 146.879 112.924 146.303 112.855C145.513 112.738 144.748 112.572 144.007 112.355C143.24 112.132 142.504 111.832 141.798 111.455C141.012 111.061 140.297 110.598 139.653 110.067C138.988 109.504 138.496 108.853 138.178 108.114C137.863 107.237 137.685 106.306 137.646 105.321C137.613 104.31 137.67 103.332 137.819 102.388L137.984 101.043C138.178 99.6352 138.432 98.2682 138.748 96.9425C139.064 95.6167 139.335 94.2393 139.561 92.8103C139.679 92.1386 139.821 91.4861 139.986 90.8528C140.131 90.187 140.302 89.527 140.501 88.8729C140.647 88.4585 140.817 88.0633 141.011 87.6872C141.184 87.2786 141.408 86.8951 141.683 86.5366C142.208 85.6746 142.935 84.9823 143.864 84.4595C144.77 84.0432 145.751 83.7968 146.808 83.7203ZM146.289 90.3849C146.771 89.8484 147.353 89.501 148.034 89.3425C148.618 89.2465 149.177 89.3264 149.712 89.5824C150.247 89.8384 150.694 90.173 151.055 90.5862C151.838 91.51 152.27 92.5663 152.349 93.755C152.344 94.8138 152.247 95.9084 152.058 97.0386C151.842 98.163 151.586 99.2786 151.289 100.385C150.953 101.288 150.65 102.227 150.383 103.2C150.121 104.147 149.76 105.031 149.301 105.851C148.916 106.326 148.437 106.654 147.864 106.835C147.29 107.017 146.702 107.07 146.099 106.995C145.503 106.893 144.929 106.684 144.379 106.369C143.835 106.027 143.41 105.586 143.106 105.046C142.933 104.674 142.814 104.383 142.747 104.173C142.686 103.936 142.668 103.695 142.693 103.45C142.718 103.204 142.779 102.925 142.875 102.611C142.95 102.265 143.022 101.806 143.089 101.235C143.178 100.697 143.266 100.228 143.353 99.8281C143.413 99.4228 143.448 99.1935 143.46 99.1402L143.876 97.2227L144.547 94.5238C144.553 94.4972 144.637 94.2367 144.801 93.7424C144.943 93.2156 145.077 92.7288 145.202 92.2819C145.418 91.5479 145.78 90.9155 146.289 90.3849ZM146.3 92.5982C146.467 92.0357 146.738 91.5682 147.114 91.1767L147.127 91.1633L147.139 91.1495C147.461 90.7915 147.827 90.5721 148.257 90.465C148.594 90.4159 148.906 90.4637 149.219 90.6137C149.623 90.8068 149.94 91.048 150.189 91.332C150.805 92.0605 151.137 92.8704 151.207 93.7915C151.2 94.7669 151.109 95.7814 150.934 96.8358C150.727 97.9112 150.482 98.9782 150.199 100.037C149.858 100.957 149.552 101.91 149.281 102.895C149.053 103.722 148.743 104.489 148.355 105.2C148.122 105.465 147.848 105.641 147.518 105.745C147.111 105.875 146.697 105.914 146.266 105.864C145.824 105.785 145.392 105.629 144.967 105.389C144.6 105.155 144.324 104.867 144.122 104.521C143.98 104.213 143.893 103.996 143.846 103.858C143.825 103.764 143.819 103.669 143.829 103.567C143.845 103.415 143.886 103.211 143.967 102.947L143.981 102.901L143.991 102.854C144.076 102.463 144.152 101.973 144.221 101.397C144.306 100.882 144.389 100.441 144.469 100.071L144.477 100.034L144.483 99.9958C144.513 99.7943 144.536 99.639 144.553 99.5288C144.562 99.4734 144.569 99.4318 144.574 99.4025C144.576 99.3864 144.578 99.3774 144.578 99.3739L144.989 97.4825L145.65 94.8208L145.656 94.8042C145.665 94.7732 145.68 94.7266 145.701 94.6626C145.743 94.5352 145.804 94.3488 145.885 94.1022L145.895 94.0721L145.904 94.0416C146.045 93.5204 146.177 93.0393 146.3 92.5982ZM145.647 94.8317C145.644 94.8403 145.645 94.8387 145.647 94.8305L145.647 94.8317Z" fill="#DFE7EB"/>
<path d="M145.293 87.553C144.626 87.9862 144.099 88.5498 143.712 89.2439C143.511 89.5338 143.345 89.8425 143.215 90.17C143.07 90.4721 142.942 90.789 142.831 91.1206C142.678 91.6434 142.543 92.1703 142.428 92.7012C142.299 93.2069 142.186 93.7272 142.089 94.2623C141.901 95.4003 141.683 96.4982 141.433 97.5561C141.184 98.6139 140.977 99.7032 140.812 100.824L140.669 101.894C140.545 102.645 140.485 103.422 140.488 104.224C140.497 105.004 140.603 105.739 140.809 106.429C141.019 107.008 141.353 107.515 141.811 107.948C142.255 108.357 142.751 108.709 143.298 109.006C143.789 109.291 144.303 109.514 144.84 109.676C145.359 109.833 145.896 109.95 146.452 110.027C146.857 110.071 147.257 110.091 147.652 110.088C148.024 110.102 148.398 110.062 148.774 109.966C149.131 109.865 149.469 109.717 149.789 109.519C150.112 109.301 150.405 108.997 150.667 108.61C151.046 108.136 151.347 107.612 151.571 107.038C151.78 106.438 151.961 105.833 152.113 105.221C152.53 103.577 152.955 101.934 153.391 100.294C153.811 98.6286 154.157 96.9466 154.427 95.2482C154.616 94.2884 154.72 93.31 154.739 92.3132C154.744 91.2911 154.535 90.3447 154.112 89.4741C153.97 89.2206 153.794 88.9823 153.586 88.759C153.038 88.2837 152.422 87.8938 151.739 87.5891C151.041 87.2591 150.329 87.0373 149.604 86.9238C148.859 86.8062 148.12 86.801 147.387 86.9081C146.639 86.9898 145.941 87.2048 145.293 87.553Z" fill="#DFE7EB"/>
<path d="M148.108 93.4481C146.229 92.82 144.017 94.0615 143.47 95.8694C142.889 97.7052 144.057 99.8408 145.96 100.35C147.796 100.929 149.919 99.8323 150.495 98.0568C151.199 96.2305 150.007 94.0021 148.108 93.4481Z" fill="#192C32"/>
<path d="M148.013 94.6152C147.096 94.227 145.782 94.7182 145.697 95.788C145.495 96.9701 146.991 97.9025 148.06 97.3624C149.143 96.8385 149.208 95.0396 148.013 94.6152Z" fill="#DFE7EB"/>
<path d="M166.41 74.2754C166.551 74.2474 166.672 74.2261 166.774 74.2116L168.001 74.0374C168.205 74.0084 168.4 73.9828 168.585 73.9605C168.79 73.9314 168.994 73.9024 169.198 73.8734C169.194 73.9825 169.252 74.2092 169.373 74.5535C169.506 74.872 169.661 75.312 169.836 75.8735C169.812 75.9252 169.697 75.9656 169.493 75.9946C169.281 76.0045 169.019 76.0217 168.706 76.0461C168.412 76.0638 168.102 76.0977 167.776 76.148C167.444 76.1792 167.137 76.2227 166.856 76.2787L167.215 77.6677C167.229 77.7059 167.229 77.738 167.217 77.7639C167.198 77.7706 167.16 77.784 167.102 77.8042C167.045 77.8244 166.911 77.8715 166.701 77.9455C166.485 78.0004 166.166 78.1019 165.746 78.2499C165.3 78.3856 164.679 78.5722 163.883 78.8098L163.854 78.8199L163.844 78.7912C163.516 78.3477 163.294 77.8351 163.175 77.2534C163.031 76.6593 162.86 76.0208 162.663 75.3378L162.653 75.3091L165.988 74.2631L166.008 74.3205C166.027 74.3138 166.049 74.3166 166.075 74.329C166.075 74.329 166.085 74.3256 166.104 74.3189C166.18 74.292 166.282 74.2775 166.41 74.2754Z" fill="#DFE7EB"/>
<path d="M149.661 74.5786C149.525 74.5334 149.407 74.4973 149.308 74.4702L148.112 74.1452C147.913 74.0911 147.723 74.0414 147.542 73.9963C147.343 73.9421 147.143 73.888 146.944 73.8338C146.935 73.9426 146.849 74.1604 146.687 74.4871C146.515 74.7866 146.308 75.204 146.064 75.7394C146.082 75.7938 146.191 75.848 146.39 75.9022C146.598 75.9382 146.856 75.9878 147.164 76.0509C147.454 76.1049 147.757 76.1771 148.074 76.2674C148.4 76.3396 148.699 76.4208 148.971 76.5112L148.443 77.845C148.425 77.8813 148.42 77.913 148.429 77.9402C148.447 77.9492 148.484 77.9673 148.538 77.9945C148.592 78.0216 148.719 78.0849 148.918 78.1845C149.127 78.2658 149.43 78.406 149.829 78.605C150.255 78.795 150.848 79.0572 151.609 79.3918L151.636 79.4054L151.649 79.3782C152.029 78.9787 152.314 78.4977 152.503 77.9352C152.72 77.3635 152.968 76.7511 153.248 76.0978L153.261 76.0705L150.082 74.6189L150.055 74.6734C150.037 74.6643 150.014 74.6643 149.987 74.6734C149.987 74.6734 149.978 74.6689 149.96 74.6599C149.887 74.6237 149.788 74.5966 149.661 74.5786Z" fill="#DFE7EB"/>
<path fill-rule="evenodd" clip-rule="evenodd" d="M172.827 114.651C180.227 114.651 186.226 108.652 186.226 101.252C186.226 93.8526 180.227 87.8539 172.827 87.8539C165.427 87.8539 159.429 93.8526 159.429 101.252C159.429 108.652 165.427 114.651 172.827 114.651ZM172.827 116.008C180.976 116.008 187.583 109.402 187.583 101.252C187.583 93.1033 180.976 86.4971 172.827 86.4971C164.678 86.4971 158.072 93.1033 158.072 101.252C158.072 109.402 164.678 116.008 172.827 116.008Z" fill="#192C32"/>
<path fill-rule="evenodd" clip-rule="evenodd" d="M172.827 113.217C179.435 113.217 184.791 107.86 184.791 101.252C184.791 94.6449 179.435 89.2885 172.827 89.2885C166.22 89.2885 160.863 94.6449 160.863 101.252C160.863 107.86 166.22 113.217 172.827 113.217ZM172.827 114.573C180.184 114.573 186.148 108.609 186.148 101.252C186.148 93.8956 180.184 87.9316 172.827 87.9316C165.47 87.9316 159.506 93.8956 159.506 101.252C159.506 108.609 165.47 114.573 172.827 114.573Z" fill="#DFE7EB"/>
<path d="M184.713 101.252C184.713 107.817 179.392 113.139 172.827 113.139C166.263 113.139 160.941 107.817 160.941 101.252C160.941 94.6879 166.263 89.3662 172.827 89.3662C179.392 89.3662 184.713 94.6879 184.713 101.252Z" fill="#D9D9D9" fill-opacity="0.35"/>
<path fill-rule="evenodd" clip-rule="evenodd" d="M172.827 111.782C178.642 111.782 183.357 107.068 183.357 101.252C183.357 95.4372 178.642 90.723 172.827 90.723C167.012 90.723 162.298 95.4372 162.298 101.252C162.298 107.068 167.012 111.782 172.827 111.782ZM172.827 113.139C179.392 113.139 184.713 107.817 184.713 101.252C184.713 94.6879 179.392 89.3662 172.827 89.3662C166.263 89.3662 160.941 94.6879 160.941 101.252C160.941 107.817 166.263 113.139 172.827 113.139Z" fill="#192C32"/>
<path fill-rule="evenodd" clip-rule="evenodd" d="M143.104 114.651C150.504 114.651 156.503 108.652 156.503 101.252C156.503 93.8526 150.504 87.8539 143.104 87.8539C135.704 87.8539 129.706 93.8526 129.706 101.252C129.706 108.652 135.704 114.651 143.104 114.651ZM143.104 116.008C151.253 116.008 157.86 109.402 157.86 101.252C157.86 93.1033 151.253 86.4971 143.104 86.4971C134.955 86.4971 128.349 93.1033 128.349 101.252C128.349 109.402 134.955 116.008 143.104 116.008Z" fill="#192C32"/>
<path fill-rule="evenodd" clip-rule="evenodd" d="M143.104 113.217C149.712 113.217 155.068 107.86 155.068 101.252C155.068 94.6449 149.712 89.2885 143.104 89.2885C136.497 89.2885 131.14 94.6449 131.14 101.252C131.14 107.86 136.497 113.217 143.104 113.217ZM143.104 114.573C150.461 114.573 156.425 108.609 156.425 101.252C156.425 93.8956 150.461 87.9316 143.104 87.9316C135.747 87.9316 129.783 93.8956 129.783 101.252C129.783 108.609 135.747 114.573 143.104 114.573Z" fill="#DFE7EB"/>
<path d="M154.991 101.252C154.991 107.817 149.669 113.139 143.104 113.139C136.54 113.139 131.218 107.817 131.218 101.252C131.218 94.6879 136.54 89.3662 143.104 89.3662C149.669 89.3662 154.991 94.6879 154.991 101.252Z" fill="#D9D9D9" fill-opacity="0.35"/>
<path fill-rule="evenodd" clip-rule="evenodd" d="M143.104 111.782C148.92 111.782 153.634 107.068 153.634 101.252C153.634 95.4372 148.92 90.723 143.104 90.723C137.289 90.723 132.575 95.4372 132.575 101.252C132.575 107.068 137.289 111.782 143.104 111.782ZM143.104 113.139C149.669 113.139 154.991 107.817 154.991 101.252C154.991 94.6879 149.669 89.3662 143.104 89.3662C136.54 89.3662 131.218 94.6879 131.218 101.252C131.218 107.817 136.54 113.139 143.104 113.139Z" fill="#192C32"/>
</g>
<defs>
<clipPath id="clip0_317_2901">
<rect width="135.037" height="158.459" fill="white" transform="translate(93.0715)"/>
</clipPath>
</defs>
</svg>
