<svg width="20" height="21" viewBox="0 0 20 21" fill="none" xmlns="http://www.w3.org/2000/svg">
<path d="M5.83329 3.76823C5.83329 3.3262 6.00889 2.90228 6.32145 2.58972C6.63401 2.27716 7.05793 2.10156 7.49996 2.10156H12.5C12.942 2.10156 13.3659 2.27716 13.6785 2.58972C13.991 2.90228 14.1666 3.3262 14.1666 3.76823V5.4349H17.5C17.721 5.4349 17.9329 5.52269 18.0892 5.67897C18.2455 5.83525 18.3333 6.04721 18.3333 6.26823C18.3333 6.48924 18.2455 6.7012 18.0892 6.85748C17.9329 7.01376 17.721 7.10156 17.5 7.10156H16.6091L15.8866 17.2199C15.8567 17.6404 15.6685 18.0339 15.3601 18.3212C15.0516 18.6085 14.6457 18.7682 14.2241 18.7682H5.77496C5.35341 18.7682 4.94751 18.6085 4.63903 18.3212C4.33054 18.0339 4.14239 17.6404 4.11246 17.2199L3.39163 7.10156H2.49996C2.27895 7.10156 2.06698 7.01376 1.9107 6.85748C1.75442 6.7012 1.66663 6.48924 1.66663 6.26823C1.66663 6.04721 1.75442 5.83525 1.9107 5.67897C2.06698 5.52269 2.27895 5.4349 2.49996 5.4349H5.83329V3.76823ZM7.49996 5.4349H12.5V3.76823H7.49996V5.4349ZM5.06163 7.10156L5.77579 17.1016H14.225L14.9391 7.10156H5.06163ZM8.33329 8.76823C8.55431 8.76823 8.76627 8.85603 8.92255 9.01231C9.07883 9.16859 9.16662 9.38055 9.16662 9.60156V14.6016C9.16662 14.8226 9.07883 15.0345 8.92255 15.1908C8.76627 15.3471 8.55431 15.4349 8.33329 15.4349C8.11228 15.4349 7.90032 15.3471 7.74404 15.1908C7.58776 15.0345 7.49996 14.8226 7.49996 14.6016V9.60156C7.49996 9.38055 7.58776 9.16859 7.74404 9.01231C7.90032 8.85603 8.11228 8.76823 8.33329 8.76823ZM11.6666 8.76823C11.8876 8.76823 12.0996 8.85603 12.2559 9.01231C12.4122 9.16859 12.5 9.38055 12.5 9.60156V14.6016C12.5 14.8226 12.4122 15.0345 12.2559 15.1908C12.0996 15.3471 11.8876 15.4349 11.6666 15.4349C11.4456 15.4349 11.2336 15.3471 11.0774 15.1908C10.9211 15.0345 10.8333 14.8226 10.8333 14.6016V9.60156C10.8333 9.38055 10.9211 9.16859 11.0774 9.01231C11.2336 8.85603 11.4456 8.76823 11.6666 8.76823Z" fill="#507178"/>
</svg>
