<svg width="20" height="20" viewBox="0 0 20 20" fill="none" xmlns="http://www.w3.org/2000/svg">
<path fill-rule="evenodd" clip-rule="evenodd" d="M2.98676 0.985245C2.43352 0.432002 1.53653 0.432002 0.983291 0.985245C0.430049 1.53849 0.430049 2.43547 0.983291 2.98871L7.99596 10.0014L0.984347 17.013C0.431105 17.5662 0.431104 18.4632 0.984347 19.0165C1.53759 19.5697 2.43457 19.5697 2.98782 19.0165L9.99943 12.0049L17.011 19.0165C17.5643 19.5697 18.4613 19.5697 19.0145 19.0165C19.5678 18.4632 19.5678 17.5662 19.0145 17.013L12.0029 10.0014L19.0156 2.98871C19.5688 2.43547 19.5688 1.53849 19.0156 0.985245C18.4623 0.432002 17.5653 0.432002 17.0121 0.985245L9.99943 7.99791L2.98676 0.985245Z" fill="#192C32"/>
</svg>
