<svg width="235" height="260" viewBox="0 0 235 260" fill="none" xmlns="http://www.w3.org/2000/svg">
<path d="M203.217 184.818C203.217 184.354 203.217 183.957 203.217 183.626L203.416 179.85C203.747 177.73 204.144 175.71 204.608 173.789C205.138 171.802 206.032 169.881 207.291 168.026C208.019 166.635 209.112 165.012 210.57 163.157C212.093 161.236 213.385 159.348 214.445 157.493C215.505 155.638 216.002 153.916 215.935 152.326C215.869 150.737 214.644 149.511 212.259 148.65C210.735 147.988 209.543 147.855 208.682 148.252C207.887 148.584 207.191 149.147 206.595 149.942C205.999 150.67 205.436 151.465 204.906 152.326C204.376 153.188 203.681 153.784 202.819 154.115C200.766 154.314 198.712 154.347 196.659 154.214C194.672 154.082 192.684 153.982 190.697 153.916V153.817C190.83 151.3 191.393 148.849 192.386 146.464C193.38 144.013 194.738 141.827 196.46 139.906C198.182 137.985 200.203 136.428 202.521 135.236C204.84 133.977 207.423 133.282 210.272 133.149C213.319 132.884 216.2 133.182 218.916 134.044C221.698 134.905 224.083 136.23 226.07 138.018C228.124 139.807 229.681 141.959 230.74 144.477C231.8 146.994 232.165 149.71 231.833 152.624C231.568 154.744 231.005 156.665 230.144 158.388C229.283 160.11 228.289 161.7 227.163 163.157C226.104 164.614 225.077 165.807 224.083 166.734C223.156 167.595 222.195 168.688 221.202 170.013C219.811 171.934 218.751 173.855 218.022 175.776C217.36 177.697 216.797 179.817 216.333 182.135C216.2 182.665 216.068 183.228 215.935 183.824C215.803 184.421 215.803 184.984 215.935 185.514V185.613C213.882 185.878 211.828 185.944 209.775 185.812C207.788 185.679 205.767 185.679 203.714 185.812H203.614C203.349 185.547 203.217 185.216 203.217 184.818ZM215.041 203.399H214.842L203.614 203.3H203.316C203.184 202.571 203.084 201.644 203.018 200.517C203.018 199.391 203.018 198.265 203.018 197.139C203.084 196.013 203.118 194.953 203.118 193.959C203.184 192.966 203.217 192.237 203.217 191.773C203.879 191.509 204.807 191.31 205.999 191.177C207.258 191.045 208.516 190.979 209.775 190.979C211.033 190.979 212.193 191.045 213.253 191.177C214.379 191.244 215.174 191.376 215.637 191.575C215.637 191.641 215.604 192.204 215.538 193.264C215.472 194.258 215.405 195.417 215.339 196.742C215.273 198.066 215.207 199.358 215.14 200.617C215.074 201.875 215.041 202.737 215.041 203.2V203.3V203.399Z" fill="#2A2F2D"/>
<path d="M192.304 192.568C192.304 193.231 192.337 193.827 192.403 194.357C192.536 196.741 192.602 198.563 192.602 199.822C192.602 201.014 192.503 201.908 192.304 202.504C192.172 203.034 191.907 203.332 191.509 203.399C191.112 203.399 190.549 203.399 189.82 203.399C189.091 203.332 188.131 203.332 186.938 203.399C185.812 203.465 183.858 203.531 181.076 203.597C178.36 203.664 174.584 203.697 169.749 203.697C164.979 203.697 158.587 203.631 150.572 203.498V201.71C150.77 196.741 150.936 192.27 151.068 188.296C151.201 184.255 151.267 180.512 151.267 177.068C151.333 173.557 151.366 170.178 151.366 166.932C151.366 163.687 151.333 160.375 151.267 156.996C151.201 153.618 151.135 150.041 151.068 146.265C151.002 142.423 150.936 138.183 150.87 133.546C151.532 133.282 152.559 133.083 153.95 132.95C155.341 132.752 156.831 132.652 158.421 132.652C160.011 132.652 161.568 132.752 163.091 132.95C164.615 133.149 165.84 133.447 166.768 133.845C166.635 138.15 166.569 142.589 166.569 147.159C166.635 151.664 166.701 156.201 166.768 160.772C166.834 165.343 166.867 169.913 166.867 174.484C166.933 178.989 166.933 183.361 166.867 187.6V187.699C167.331 187.567 168.192 187.534 169.451 187.6C170.775 187.6 172.299 187.633 174.021 187.699C175.743 187.766 177.565 187.865 179.486 187.997C181.473 188.064 183.328 188.13 185.051 188.196C186.839 188.262 188.396 188.329 189.721 188.395C191.112 188.395 192.072 188.362 192.602 188.296C192.602 189.024 192.569 189.753 192.503 190.482C192.437 191.144 192.37 191.84 192.304 192.568Z" fill="#2A2F2D"/>
<path d="M138.31 138.515C140.231 140.237 141.589 142.257 142.384 144.576C142.848 145.57 143.179 146.596 143.378 147.656C143.643 148.65 143.842 149.677 143.974 150.736C144.107 152.392 144.173 154.048 144.173 155.705C144.239 157.294 144.239 158.917 144.173 160.573C143.974 164.084 143.908 167.496 143.974 170.808C144.04 174.12 143.941 177.498 143.676 180.943L143.378 184.222C143.245 186.54 142.881 188.892 142.285 191.277C141.689 193.595 140.794 195.715 139.602 197.636C138.476 199.226 136.985 200.517 135.131 201.511C133.342 202.438 131.421 203.167 129.368 203.697C127.513 204.227 125.625 204.558 123.704 204.691C121.849 204.823 119.961 204.823 118.04 204.691C116.649 204.558 115.291 204.359 113.966 204.094C112.708 203.896 111.482 203.531 110.29 203.001C109.164 202.471 108.137 201.809 107.21 201.014C106.282 200.153 105.521 199.06 104.924 197.735C103.997 196.079 103.368 194.324 103.036 192.469C102.771 190.548 102.606 188.627 102.54 186.706C102.341 181.539 102.109 176.372 101.844 171.205C101.645 165.972 101.712 160.739 102.043 155.506C102.109 152.525 102.473 149.544 103.136 146.563C103.864 143.516 105.256 140.833 107.309 138.515C107.971 137.852 108.733 137.256 109.594 136.726C111.78 135.666 114.132 134.905 116.649 134.441C119.233 133.911 121.783 133.712 124.3 133.845C126.884 133.977 129.368 134.441 131.752 135.236C134.203 135.964 136.389 137.057 138.31 138.515ZM131.752 173.59V168.82L131.554 162.064C131.554 161.998 131.487 161.335 131.355 160.077C131.289 158.752 131.222 157.526 131.156 156.4C131.024 154.545 130.494 152.856 129.566 151.333C128.705 149.809 127.513 148.683 125.989 147.954C124.664 147.424 123.307 147.325 121.915 147.656C120.524 147.987 119.299 148.55 118.239 149.345C115.921 151.134 114.364 153.419 113.569 156.201C113.039 158.719 112.708 161.368 112.575 164.15C112.509 166.933 112.542 169.715 112.675 172.497C113.006 174.815 113.238 177.2 113.37 179.651C113.503 182.036 113.9 184.321 114.563 186.507C115.225 187.832 116.185 188.859 117.444 189.587C118.703 190.316 120.061 190.747 121.518 190.879C122.975 190.945 124.433 190.747 125.89 190.283C127.347 189.753 128.573 188.925 129.566 187.799C130.163 187.004 130.593 186.375 130.858 185.911C131.123 185.381 131.289 184.818 131.355 184.222C131.421 183.626 131.421 182.93 131.355 182.135C131.355 181.274 131.421 180.148 131.554 178.757C131.62 177.432 131.653 176.273 131.653 175.279C131.719 174.285 131.752 173.722 131.752 173.59Z" fill="#2A2F2D"/>
<path d="M90.2783 138.515C92.1994 140.237 93.5573 142.257 94.3522 144.576C94.8159 145.57 95.1471 146.596 95.3459 147.656C95.6108 148.65 95.8096 149.677 95.942 150.736C96.0745 152.392 96.1408 154.048 96.1408 155.705C96.207 157.294 96.207 158.917 96.1408 160.573C95.942 164.084 95.8758 167.496 95.942 170.808C96.0083 174.12 95.9089 177.498 95.6439 180.943L95.3459 184.222C95.2134 186.54 94.849 188.892 94.2529 191.277C93.6567 193.595 92.7624 195.715 91.5701 197.636C90.444 199.226 88.9535 200.517 87.0987 201.511C85.3102 202.438 83.3892 203.167 81.3357 203.697C79.4809 204.227 77.593 204.558 75.672 204.691C73.8172 204.823 71.9293 204.823 70.0083 204.691C68.6172 204.558 67.2592 204.359 65.9344 204.094C64.6758 203.896 63.4503 203.531 62.258 203.001C61.1318 202.471 60.1051 201.809 59.1777 201.014C58.2503 200.153 57.4885 199.06 56.8924 197.735C55.965 196.079 55.3357 194.324 55.0045 192.469C54.7395 190.548 54.5739 188.627 54.5076 186.706C54.3089 181.539 54.0771 176.372 53.8121 171.205C53.6134 165.972 53.6796 160.739 54.0108 155.506C54.0771 152.525 54.4414 149.544 55.1038 146.563C55.8325 143.516 57.2236 140.833 59.2771 138.515C59.9395 137.852 60.7013 137.256 61.5624 136.726C63.7484 135.666 66.1 134.905 68.6172 134.441C71.2006 133.911 73.751 133.712 76.2682 133.845C78.8516 133.977 81.3357 134.441 83.7204 135.236C86.1713 135.964 88.3573 137.057 90.2783 138.515ZM83.7204 173.59V168.82L83.5217 162.064C83.5217 161.998 83.4554 161.335 83.3229 160.077C83.2567 158.752 83.1904 157.526 83.1242 156.4C82.9917 154.545 82.4618 152.856 81.5344 151.333C80.6733 149.809 79.4809 148.683 77.9573 147.954C76.6325 147.424 75.2745 147.325 73.8834 147.656C72.4924 147.987 71.2669 148.55 70.207 149.345C67.8885 151.134 66.3318 153.419 65.5369 156.201C65.007 158.719 64.6758 161.368 64.5433 164.15C64.4771 166.933 64.5102 169.715 64.6427 172.497C64.9739 174.815 65.2057 177.2 65.3382 179.651C65.4707 182.036 65.8682 184.321 66.5306 186.507C67.193 187.832 68.1535 188.859 69.4121 189.587C70.6707 190.316 72.0287 190.747 73.486 190.879C74.9433 190.945 76.4006 190.747 77.858 190.283C79.3153 189.753 80.5408 188.925 81.5344 187.799C82.1306 187.004 82.5611 186.375 82.8261 185.911C83.0911 185.381 83.2567 184.818 83.3229 184.222C83.3892 183.626 83.3892 182.93 83.3229 182.135C83.3229 181.274 83.3892 180.148 83.5217 178.757C83.5879 177.432 83.621 176.273 83.621 175.279C83.6873 174.285 83.7204 173.722 83.7204 173.59Z" fill="#2A2F2D"/>
<path d="M23.7765 148.451C22.8491 148.65 22.1205 149.014 21.5905 149.544C21.458 149.677 21.3256 149.908 21.1931 150.24C21.1268 150.505 21.0606 150.703 20.9944 150.836C20.8619 151.035 20.7294 152.194 20.5969 154.314C20.5307 156.433 20.4644 158.951 20.3982 161.865C20.3319 164.78 20.2988 167.827 20.2988 171.007C20.2988 174.12 20.3982 176.836 20.5969 179.154C20.7956 181.075 21.2924 182.963 22.0873 184.818C22.9485 186.607 24.3396 187.766 26.2606 188.296C27.7179 188.428 29.0759 188.229 30.3345 187.7C31.6593 187.103 32.653 186.143 33.3154 184.818C34.044 183.294 34.3421 181.705 34.2096 180.049C34.1434 178.326 34.2759 176.637 34.6071 174.981C35.5345 175.114 36.5612 175.147 37.6873 175.08C38.8797 175.014 40.0721 174.981 41.2644 174.981C42.4568 174.981 43.616 175.014 44.7421 175.08C45.9345 175.147 46.9944 175.312 47.9217 175.577C49.0479 179.022 49.3459 182.466 48.816 185.911C48.2861 189.289 47.1268 192.337 45.3383 195.052C43.5498 197.768 41.1982 200.021 38.2835 201.809C35.4351 203.531 32.1893 204.426 28.5459 204.492C26.1612 204.823 23.7103 204.823 21.1931 204.492C18.6759 204.227 16.3243 203.598 14.1383 202.604C11.9523 201.544 10.0975 200.087 8.57397 198.232C7.11664 196.377 6.2555 194.059 5.99053 191.277C5.85804 188.892 5.75868 186.408 5.69244 183.824C5.6262 181.241 5.55996 178.359 5.49371 175.18C5.49371 171.934 5.49371 168.291 5.49371 164.25C5.55996 160.143 5.6262 155.407 5.69244 150.041C5.55996 148.915 5.59308 147.789 5.7918 146.663C6.05677 145.47 6.38798 144.377 6.78543 143.384C7.38161 141.661 8.11027 140.072 8.97142 138.614C9.89881 137.157 10.9918 135.865 12.2504 134.739C12.9791 134.209 13.774 133.779 14.6351 133.447C15.4963 133.05 16.3905 132.719 17.3179 132.454C20.3651 131.46 23.3791 131.063 26.36 131.261C29.3408 131.46 32.123 132.156 34.7065 133.348C37.3561 134.474 39.7408 135.998 41.8606 137.919C43.9803 139.84 45.6695 142.059 46.9281 144.576C48.1867 147.027 48.9485 149.71 49.2135 152.624C49.4784 155.539 49.081 158.52 48.0211 161.567C45.5701 162.097 43.1523 162.296 40.7676 162.163C38.4491 161.965 36.0313 161.633 33.5141 161.17C33.3154 159.911 33.1829 158.487 33.1166 156.897C33.1166 155.307 32.951 153.85 32.6198 152.525C32.2886 151.134 31.6593 150.008 30.7319 149.147C29.8708 148.286 28.4797 147.888 26.5587 147.954C25.6975 148.087 24.7701 148.252 23.7765 148.451Z" fill="#2A2F2D"/>
<path d="M217.077 90.4296C217.077 90.7873 217.077 91.1649 217.077 91.5624V92.0989C217.077 94.1259 217.673 95.8549 218.865 97.2857C219.581 98.1601 220.535 98.6966 221.727 98.8954C222.919 99.0543 224.032 98.9749 225.066 98.6569C225.423 98.5377 225.702 98.3588 225.9 98.1203C226.099 97.8421 226.258 97.544 226.377 97.2261C226.497 96.8684 226.576 96.5107 226.616 96.1529C226.695 95.7555 226.755 95.3779 226.795 95.0202C226.795 93.4304 226.755 91.8207 226.675 90.1912C226.636 88.5219 226.417 86.9321 226.02 85.4217C225.781 84.8256 225.384 84.3685 224.827 84.0505C224.311 83.6928 223.734 83.4742 223.098 83.3947C222.462 83.3152 221.826 83.3749 221.191 83.5736C220.594 83.7326 220.058 84.0108 219.581 84.4082C218.985 85.0839 218.468 85.8391 218.031 86.6737C217.633 87.4686 217.355 88.3231 217.196 89.2373C217.117 89.6347 217.077 90.0322 217.077 90.4296ZM228.941 117.377C228.384 117.496 227.868 117.576 227.391 117.615C226.993 117.695 226.278 117.715 225.245 117.675C224.211 117.635 222.88 117.615 221.25 117.615C219.382 117.615 217.713 117.218 216.242 116.423C214.772 115.628 213.579 114.555 212.665 113.204C212.506 112.925 212.347 112.548 212.188 112.071C212.069 111.634 211.95 111.177 211.831 110.7C211.751 110.223 211.691 109.766 211.652 109.328C211.652 108.891 211.672 108.514 211.711 108.196C212.109 108.037 212.645 107.918 213.321 107.838C213.997 107.798 214.692 107.778 215.408 107.778C216.163 107.818 216.878 107.858 217.554 107.898C218.269 107.977 218.865 108.057 219.342 108.136C219.342 109.17 219.66 109.984 220.296 110.58C220.972 111.216 221.707 111.574 222.502 111.654C223.337 111.733 224.132 111.534 224.887 111.057C225.682 110.58 226.198 109.786 226.437 108.673C226.477 108.275 226.516 107.858 226.556 107.421C226.596 107.023 226.596 106.666 226.556 106.348C226.477 105.672 226.477 104.976 226.556 104.261C226.159 104.698 225.682 105.016 225.125 105.215C224.609 105.414 224.032 105.553 223.396 105.632C222.8 105.712 222.184 105.751 221.548 105.751C220.912 105.751 220.316 105.771 219.76 105.811C219.005 105.811 218.23 105.751 217.435 105.632C216.679 105.513 215.944 105.314 215.229 105.036C214.553 104.758 213.937 104.38 213.381 103.903C212.824 103.426 212.367 102.81 212.009 102.055C211.453 100.982 211.055 99.8691 210.817 98.7165C210.579 97.5242 210.42 96.3119 210.34 95.0798C210.34 93.2118 210.38 91.2047 210.459 89.0584C210.539 86.9122 210.877 84.9051 211.473 83.037C212.109 81.1293 213.102 79.5394 214.454 78.2676C215.805 76.956 217.753 76.2207 220.296 76.0617C221.568 75.9822 222.741 76.1611 223.814 76.5983C224.927 76.9958 225.721 77.7509 226.198 78.8638C226.357 78.9433 226.437 78.8837 226.437 78.6849C226.477 78.4465 226.477 78.1682 226.437 77.8503C226.437 77.4926 226.417 77.1547 226.377 76.8368C226.377 76.4791 226.437 76.2008 226.556 76.0021C227.868 75.8431 229.199 75.8034 230.551 75.8829C231.902 75.9226 233.253 75.9425 234.605 75.9425C234.764 80.9107 234.843 86.1173 234.843 91.5624C234.883 96.9677 234.783 102.532 234.545 108.255C234.505 109.209 234.505 110.143 234.545 111.057C234.585 112.011 234.406 112.806 234.008 113.442C233.452 114.317 232.876 115.012 232.279 115.529C231.723 116.045 231.167 116.443 230.61 116.721C230.054 117.039 229.497 117.258 228.941 117.377Z" fill="#2A2F2D"/>
<path d="M192.205 77.612C192.205 78.0492 192.224 78.546 192.264 79.1024C192.463 78.9832 192.701 78.8441 192.98 78.6851C193.298 78.5261 193.556 78.3671 193.755 78.2082C194.589 77.612 195.523 77.135 196.557 76.7773C197.59 76.4196 198.643 76.2209 199.716 76.1811C200.829 76.1414 201.902 76.2606 202.936 76.5389C203.969 76.8171 204.903 77.3139 205.738 78.0293C206.135 78.387 206.433 79.1422 206.632 80.2948C206.871 81.4076 207.01 82.759 207.049 84.3488C207.129 85.9386 207.149 87.6874 207.109 89.5952C207.109 91.4632 207.089 93.371 207.049 95.3185C207.01 97.2262 206.97 99.0744 206.93 100.863C206.89 102.651 206.91 104.221 206.99 105.573C205.599 105.771 204.347 105.851 203.234 105.811C202.161 105.811 200.929 105.811 199.538 105.811C199.458 104.897 199.418 103.864 199.418 102.711C199.418 101.558 199.418 100.366 199.418 99.134C199.458 97.9019 199.458 96.6698 199.418 95.4377C199.418 94.2056 199.379 93.053 199.299 91.9799C199.259 91.5029 199.22 90.9862 199.18 90.4298C199.14 89.8336 199.061 89.2573 198.941 88.7009C198.862 88.1445 198.723 87.6476 198.524 87.2104C198.365 86.7732 198.127 86.4354 197.809 86.1969C197.769 86.1572 197.729 86.1373 197.689 86.1373C197.65 86.1373 197.61 86.1174 197.57 86.0777C197.252 85.9187 196.775 85.7995 196.139 85.72C195.543 85.6008 194.947 85.6405 194.351 85.8392C193.755 85.9982 193.218 86.3559 192.741 86.9124C192.264 87.429 191.986 88.2239 191.906 89.2971C191.827 90.6881 191.807 92.0594 191.847 93.4107C191.887 94.7223 191.926 96.0538 191.966 97.4051C192.046 98.7167 192.085 100.028 192.085 101.34C192.085 102.651 192.006 103.963 191.847 105.275V105.513C191.171 105.712 190.575 105.831 190.058 105.871C189.581 105.911 189.085 105.911 188.568 105.871C188.051 105.871 187.475 105.851 186.839 105.811C186.203 105.771 185.408 105.791 184.454 105.871C184.454 100.982 184.395 96.0935 184.275 91.2048C184.196 86.3162 184.236 81.2487 184.395 76.0023C184.872 76.042 185.269 76.0818 185.587 76.1215C185.905 76.1215 186.203 76.1215 186.481 76.1215C186.759 76.1215 187.058 76.1215 187.376 76.1215C187.693 76.0818 188.091 76.042 188.568 76.0023C188.727 76.0023 189.005 75.9824 189.403 75.9427C189.8 75.8632 190.197 75.8036 190.595 75.7638C190.992 75.7241 191.35 75.7241 191.668 75.7638C191.986 75.7638 192.145 75.8234 192.145 75.9427C192.224 76.6183 192.244 77.1748 192.205 77.612Z" fill="#2A2F2D"/>
<path d="M175.987 75.7042C176.901 75.744 177.994 75.744 179.266 75.7042H180.279V75.8831C180.239 80.6922 180.14 85.6008 179.981 90.6087C179.862 95.6166 179.941 100.525 180.22 105.334C180.021 105.573 179.524 105.692 178.729 105.692C177.934 105.732 177.06 105.732 176.106 105.692C175.192 105.692 174.317 105.672 173.483 105.632C172.648 105.593 172.092 105.612 171.813 105.692C172.012 103.188 172.092 100.644 172.052 98.0609C172.052 95.4775 172.012 92.9139 171.933 90.3702C171.853 87.8265 171.813 85.3226 171.813 82.8583C171.813 80.3544 171.933 77.9299 172.171 75.585V75.5254C172.33 75.4856 172.589 75.4856 172.946 75.5254C173.344 75.5651 173.642 75.585 173.84 75.585C174.357 75.6247 175.073 75.6645 175.987 75.7042ZM171.992 67.3577C171.913 66.0859 171.893 64.5358 171.933 62.7075L180.041 62.8864C180.041 63.1248 180.041 63.562 180.041 64.198C180.08 64.7941 180.1 65.4698 180.1 66.225C180.14 66.9404 180.16 67.6955 180.16 68.4905C180.2 69.2456 180.22 69.9213 180.22 70.5175C180.061 70.7559 179.683 70.9149 179.087 70.9944C178.53 71.0739 177.855 71.1136 177.06 71.1136C176.305 71.0739 175.49 71.0341 174.616 70.9944C173.741 70.9149 172.926 70.895 172.171 70.9348C172.171 69.7822 172.112 68.5898 171.992 67.3577Z" fill="#2A2F2D"/>
<path d="M153.079 77.6118C153.079 78.4464 153.079 78.9433 153.079 79.1022C153.278 78.983 153.516 78.8439 153.794 78.6849C154.112 78.5259 154.371 78.367 154.569 78.208C155.404 77.6118 156.338 77.1349 157.372 76.7772C158.405 76.4194 159.458 76.2207 160.531 76.181C161.644 76.1412 162.717 76.2605 163.751 76.5387C164.784 76.8169 165.718 77.3137 166.553 78.0291C166.95 78.3868 167.248 79.142 167.447 80.2946C167.685 81.4075 167.824 82.7588 167.864 84.3486C167.944 85.9384 167.964 87.6872 167.924 89.595C167.924 91.463 167.904 93.3708 167.864 95.3183C167.824 97.2261 167.785 99.0742 167.745 100.863C167.705 102.651 167.725 104.221 167.805 105.573C166.414 105.771 165.162 105.851 164.049 105.811C162.976 105.811 161.743 105.811 160.352 105.811C160.273 104.897 160.233 103.864 160.233 102.711C160.233 101.558 160.233 100.366 160.233 99.1338C160.273 97.9017 160.273 96.6696 160.233 95.4375C160.233 94.2054 160.193 93.0528 160.114 91.9797C160.074 91.5028 160.034 90.9861 159.995 90.4296C159.955 89.8335 159.875 89.2571 159.756 88.7007C159.677 88.1443 159.538 87.6475 159.339 87.2103C159.18 86.7731 158.941 86.4352 158.623 86.1968C158.584 86.157 158.544 86.1372 158.504 86.1372C158.464 86.1372 158.425 86.1173 158.385 86.0775C158.067 85.9185 157.59 85.7993 156.954 85.7198C156.358 85.6006 155.762 85.6403 155.166 85.8391C154.569 85.998 154.033 86.3557 153.556 86.9122C153.079 87.4289 152.801 88.2238 152.721 89.2969C152.642 90.688 152.622 92.0592 152.662 93.4105C152.701 94.7221 152.741 96.0536 152.781 97.4049C152.86 98.7165 152.9 100.028 152.9 101.34C152.9 102.651 152.821 103.963 152.662 105.274V105.513C151.986 105.712 151.39 105.831 150.873 105.871C150.396 105.91 149.899 105.91 149.383 105.871C148.866 105.871 148.29 105.851 147.654 105.811C147.018 105.771 146.223 105.791 145.269 105.871C145.269 104.241 145.249 102.294 145.209 100.028C145.209 97.7229 145.19 95.2587 145.15 92.6355C145.15 90.0123 145.15 87.3096 145.15 84.5275C145.15 81.7056 145.15 78.9631 145.15 76.3002C145.15 73.6373 145.15 71.1333 145.15 68.7884C145.19 66.4036 145.229 64.3369 145.269 62.5881C145.746 62.6279 146.143 62.6676 146.461 62.7073C146.779 62.7073 147.077 62.7073 147.356 62.7073C147.634 62.7073 147.932 62.7073 148.25 62.7073C148.568 62.6676 148.965 62.6279 149.442 62.5881C149.601 62.5881 149.88 62.5682 150.277 62.5285C150.674 62.449 151.072 62.3894 151.469 62.3496C151.867 62.3099 152.224 62.3099 152.542 62.3496C152.86 62.3496 153.019 62.4092 153.019 62.5285C153.059 62.7272 153.079 63.2638 153.079 64.1382C153.079 64.9728 153.079 65.9863 153.079 67.1787C153.079 68.3313 153.079 69.5833 153.079 70.9346C153.079 72.2462 153.079 73.4783 153.079 74.6309C153.079 75.7835 153.079 76.7771 153.079 77.6118Z" fill="#2A2F2D"/>
<path d="M130.858 64.9726C131.534 65.0124 132.21 64.9925 132.885 64.913V72.9018C132.885 73.4185 132.885 73.955 132.885 74.5115C132.925 75.0679 132.945 75.6442 132.945 76.2404C134.177 76.2007 135.469 76.141 136.82 76.0615C138.211 75.9821 139.92 75.8827 141.947 75.7635C142.225 76.0814 142.384 76.5584 142.424 77.1943C142.464 77.7905 142.464 78.4463 142.424 79.1617C142.384 79.8771 142.325 80.6124 142.245 81.3675C142.206 82.0829 142.225 82.699 142.305 83.2157H133.064C133.064 85.3619 133.064 87.4684 133.064 89.5352C133.064 91.5622 133.084 93.47 133.124 95.2585C133.521 95.8149 134.098 96.2521 134.853 96.5701C135.608 96.888 136.423 97.1464 137.297 97.3451C138.171 97.5041 139.046 97.6035 139.92 97.6432C140.834 97.6829 141.629 97.6829 142.305 97.6432C142.384 98.1996 142.464 98.8157 142.543 99.4913C142.623 100.167 142.682 100.863 142.722 101.578C142.762 102.293 142.742 103.009 142.663 103.724C142.623 104.44 142.504 105.095 142.305 105.692C140.715 105.771 139.066 105.771 137.357 105.692C135.648 105.572 134.038 105.334 132.528 104.976C131.017 104.618 129.666 104.082 128.474 103.367C127.321 102.651 126.486 101.677 125.97 100.445C125.453 97.3849 125.155 94.5033 125.075 91.8007C124.996 89.0582 124.976 86.2363 125.016 83.3349C124.38 83.3747 123.704 83.3945 122.989 83.3945C122.313 83.3945 121.558 83.3945 120.723 83.3945L120.902 76.1212C121.697 76.1609 122.432 76.1808 123.108 76.1808C123.823 76.1808 124.499 76.1808 125.135 76.1808C125.135 75.3064 125.115 74.3724 125.075 73.3787C125.036 72.3454 125.016 71.312 125.016 70.2786C125.016 69.2452 125.016 68.2516 125.016 67.2977C125.055 66.3438 125.115 65.4893 125.195 64.7342C125.711 64.6547 126.268 64.6348 126.864 64.6745C127.5 64.7143 128.156 64.7739 128.831 64.8534C129.507 64.8931 130.183 64.9329 130.858 64.9726Z" fill="#2A2F2D"/>
<path d="M105.018 90.9067C104.144 90.867 103.508 90.8074 103.11 90.7279V91.801C103.15 92.9933 103.19 93.9671 103.23 94.7223C103.309 95.4774 103.567 96.2127 104.005 96.9281C104.482 97.8423 105.157 98.5179 106.032 98.9551C106.906 99.3923 107.761 99.5314 108.595 99.3724C109.43 99.2135 110.125 98.7365 110.682 97.9416C111.278 97.107 111.536 95.8749 111.457 94.2453C111.854 94.2851 112.391 94.3049 113.067 94.3049C113.742 94.2652 114.438 94.2254 115.153 94.1857C115.908 94.1459 116.624 94.1459 117.299 94.1857C117.975 94.1857 118.532 94.2453 118.969 94.3645C118.889 95.3979 118.81 96.4114 118.73 97.4051C118.651 98.3987 118.551 99.3327 118.432 100.207C118.313 101.042 118.154 101.777 117.955 102.413C117.796 103.009 117.578 103.426 117.299 103.665C116.624 104.619 115.749 105.294 114.676 105.692C113.603 106.089 112.431 106.328 111.159 106.407C109.887 106.487 108.575 106.487 107.224 106.407C105.912 106.328 104.7 106.288 103.587 106.288C102.475 106.129 101.441 105.771 100.487 105.215C99.4141 104.46 98.5199 103.486 97.8044 102.294C97.089 101.062 96.5127 99.7302 96.0755 98.2993C95.6383 96.8288 95.3402 95.2787 95.1813 93.6491C95.0223 92.0196 94.9825 90.39 95.062 88.7605C95.1813 87.2899 95.3005 85.8789 95.4197 84.5276C95.5787 83.1365 95.8967 81.7852 96.3736 80.4736C96.8903 79.321 97.6852 78.3472 98.7583 77.5523C99.8314 76.7177 101.044 76.1016 102.395 75.7042C103.746 75.267 105.177 75.0285 106.688 74.9887C108.198 74.949 109.668 75.108 111.099 75.4657C112.928 75.7837 114.398 76.4196 115.511 77.3735C116.624 78.3273 117.458 79.48 118.015 80.8313C118.611 82.1826 118.969 83.6731 119.088 85.3026C119.207 86.9322 119.207 88.5816 119.088 90.2509C118.81 90.3304 118.273 90.4099 117.478 90.4894C116.723 90.5689 115.809 90.6484 114.736 90.7279C113.703 90.8074 112.59 90.867 111.397 90.9067C110.205 90.9465 109.052 90.9663 107.939 90.9663C106.866 90.9663 105.893 90.9465 105.018 90.9067ZM111.993 83.0968C111.596 82.3814 111.04 81.8448 110.324 81.4871C110.006 81.2884 109.688 81.1493 109.37 81.0698C109.052 80.9505 108.675 80.8909 108.238 80.8909C107.284 80.8909 106.509 80.9903 105.912 81.189C105.316 81.3877 104.839 81.6659 104.482 82.0237C104.124 82.3814 103.846 82.7987 103.647 83.2756C103.488 83.7526 103.369 84.2494 103.289 84.7661C103.21 85.2033 103.17 85.5212 103.17 85.72C103.21 85.8789 103.409 85.9982 103.766 86.0777C104.124 86.1174 104.68 86.1373 105.436 86.1373C106.23 86.0975 107.383 86.0777 108.893 86.0777C109.927 86.0777 110.702 86.0975 111.218 86.1373C111.735 86.177 112.093 86.1969 112.292 86.1969C112.53 86.1572 112.649 86.0975 112.649 86.018C112.649 85.8988 112.649 85.6802 112.649 85.3623C112.649 84.5673 112.431 83.8122 111.993 83.0968Z" fill="#2A2F2D"/>
<path d="M63.0119 77.612C63.0119 78.0492 63.0318 78.546 63.0715 79.1024C63.2702 78.9832 63.5087 78.8441 63.7869 78.6851C64.1049 78.5261 64.3632 78.3671 64.562 78.2082C65.3966 77.612 66.3306 77.135 67.364 76.7773C68.3974 76.4196 69.4506 76.2209 70.5237 76.1811C71.6366 76.1414 72.7097 76.2606 73.7431 76.5389C74.7765 76.8171 75.7105 77.3139 76.5451 78.0293C76.7439 78.228 76.9426 78.5659 77.1413 79.0428C77.34 78.9236 77.5785 78.8043 77.8567 78.6851C78.1349 78.5261 78.3734 78.3671 78.5721 78.2082C79.4068 77.612 80.3408 77.135 81.3742 76.7773C82.4076 76.4196 83.4608 76.2209 84.5339 76.1811C85.6468 76.1414 86.7199 76.2606 87.7533 76.5389C88.7867 76.8171 89.7207 77.3139 90.5553 78.0293C90.9528 78.387 91.2509 79.1422 91.4496 80.2948C91.6881 81.4076 91.8272 82.759 91.8669 84.3488C91.9464 85.9386 91.9663 87.6874 91.9265 89.5952C91.9265 91.4632 91.9067 93.371 91.8669 95.3185C91.8272 97.2262 91.7874 99.0744 91.7477 100.863C91.7079 102.651 91.7278 104.221 91.8073 105.573C90.4162 105.771 89.1642 105.851 88.0514 105.811C86.9783 105.811 85.7462 105.811 84.3551 105.811C84.2756 104.897 84.2358 103.864 84.2358 102.711C84.2358 101.558 84.2358 100.366 84.2358 99.134C84.2756 97.9019 84.2756 96.6698 84.2358 95.4377C84.2358 94.2056 84.1961 93.053 84.1166 91.9799C84.0769 91.5029 84.0371 90.9862 83.9974 90.4298C83.9576 89.8336 83.8781 89.2573 83.7589 88.7009C83.6794 88.1445 83.5403 87.6476 83.3416 87.2104C83.1826 86.7732 82.9441 86.4354 82.6262 86.1969C82.5864 86.1572 82.5467 86.1373 82.5069 86.1373C82.4672 86.1373 82.4274 86.1174 82.3877 86.0777C82.1492 85.9585 81.8511 85.8591 81.4934 85.7796C81.1357 85.7001 80.7383 85.6604 80.3011 85.6604C79.9036 85.6604 79.4863 85.7399 79.0491 85.8989C78.6516 86.0181 78.2741 86.2168 77.9163 86.495C77.9561 88.0451 77.9561 89.6945 77.9163 91.4433C77.8766 93.1524 77.8369 94.8614 77.7971 96.5704C77.7574 98.2397 77.7176 99.8693 77.6779 101.459C77.6779 103.009 77.7176 104.38 77.7971 105.573C76.406 105.771 75.1541 105.851 74.0412 105.811C72.9681 105.811 71.736 105.811 70.3449 105.811C70.2654 104.897 70.2256 103.864 70.2256 102.711C70.2256 101.558 70.2256 100.366 70.2256 99.134C70.2654 97.9019 70.2654 96.6698 70.2256 95.4377C70.2256 94.2056 70.1859 93.053 70.1064 91.9799C70.0667 91.5029 70.0269 90.9862 69.9872 90.4298C69.9474 89.8336 69.8679 89.2573 69.7487 88.7009C69.6692 88.1445 69.5301 87.6476 69.3314 87.2104C69.1724 86.7732 68.9339 86.4354 68.616 86.1969C68.5762 86.1572 68.5365 86.1373 68.4967 86.1373C68.457 86.1373 68.4172 86.1174 68.3775 86.0777C68.0595 85.9187 67.5826 85.7995 66.9467 85.72C66.3505 85.6008 65.7543 85.6405 65.1581 85.8392C64.5619 85.9982 64.0254 86.3559 63.5485 86.9124C63.0715 87.429 62.7933 88.2239 62.7138 89.2971C62.6343 90.6881 62.6144 92.0594 62.6542 93.4107C62.6939 94.7223 62.7337 96.0538 62.7734 97.4051C62.8529 98.7167 62.8926 100.028 62.8926 101.34C62.8926 102.651 62.8132 103.963 62.6542 105.275V105.513C61.9785 105.712 61.3823 105.831 60.8656 105.871C60.3887 105.911 59.8919 105.911 59.3752 105.871C58.8585 105.871 58.2822 105.851 57.6463 105.811C57.0104 105.771 56.2155 105.791 55.2616 105.871C55.2616 100.982 55.2019 96.0935 55.0827 91.2048C55.0032 86.3162 55.043 81.2487 55.202 76.0023C55.6789 76.042 56.0763 76.0818 56.3943 76.1215C56.7123 76.1215 57.0104 76.1215 57.2886 76.1215C57.5668 76.1215 57.8649 76.1215 58.1828 76.1215C58.5008 76.0818 58.8983 76.042 59.3752 76.0023C59.5342 76.0023 59.8124 75.9824 60.2098 75.9427C60.6073 75.8632 61.0048 75.8036 61.4022 75.7638C61.7997 75.7241 62.1574 75.7241 62.4753 75.7638C62.7933 75.7638 62.9523 75.8234 62.9523 75.9427C63.0318 76.6183 63.0516 77.1748 63.0119 77.612Z" fill="#2A2F2D"/>
<path d="M28.4787 80.2947C28.7172 79.5396 28.896 78.9434 29.0153 78.5062C29.2935 77.91 29.7307 77.3933 30.3269 76.9561C30.9628 76.5189 31.6782 76.1612 32.4731 75.883C33.3078 75.565 34.1822 75.3464 35.0963 75.2272C36.0502 75.108 37.0041 75.0483 37.958 75.0483C38.7529 75.1278 39.508 75.1477 40.2234 75.108C40.9786 75.0285 41.7735 75.0285 42.6081 75.108C43.88 75.1874 45.0922 75.4458 46.2448 75.883C47.3974 76.2804 48.3911 76.8766 49.2257 77.6715C49.7822 78.0292 50.2194 78.6055 50.5373 79.4004C50.8553 80.1954 51.0938 81.1294 51.2527 82.2025C51.4117 83.2359 51.5111 84.3885 51.5508 85.6603C51.5906 86.8924 51.6303 88.1643 51.6701 89.4759C51.6303 90.6285 51.5707 91.9401 51.4912 93.4106C51.4515 94.8812 51.3521 96.2922 51.1931 97.6435C51.0739 98.9948 50.895 100.207 50.6566 101.28C50.4578 102.353 50.1597 103.089 49.7623 103.486C49.0866 104.44 48.1923 105.116 47.0795 105.513C46.0064 105.911 44.8339 106.149 43.562 106.228C42.2902 106.348 40.9786 106.348 39.6273 106.228C38.2759 106.149 37.0438 106.109 35.931 106.109C33.9039 105.752 32.1949 104.877 30.8038 103.486C29.7307 102.532 28.9954 101.34 28.598 99.909C28.2005 98.4782 27.962 96.9877 27.8825 95.4376C27.8031 93.8478 27.7832 92.258 27.8229 90.6682C27.9024 89.0784 27.8825 87.6277 27.7633 86.3161C27.7633 85.6007 27.7832 84.9052 27.8229 84.2295C27.8627 83.5141 27.9422 82.7788 28.0614 82.0236C28.1011 81.5864 28.2402 81.0101 28.4787 80.2947ZM38.4945 84.2295C37.6599 84.468 36.9842 84.9052 36.4675 85.5411C36.229 85.7001 36.0502 86.0975 35.931 86.7334C35.772 88.0053 35.6925 89.2771 35.6925 90.549C35.6925 91.7811 35.6527 93.0927 35.5732 94.4838C35.5335 95.3979 35.772 96.1133 36.2887 96.63C36.8053 97.1069 37.4214 97.4448 38.1368 97.6435C38.892 97.8025 39.667 97.8422 40.4619 97.7627C41.2568 97.6435 41.9126 97.4448 42.4293 97.1666C43.105 96.8486 43.562 96.1928 43.8005 95.1992C43.9595 93.9273 44.0787 92.6555 44.1582 91.3836C44.2774 90.072 44.2178 88.8399 43.9794 87.6873C43.7806 86.2962 43.2043 85.2827 42.2504 84.6468C41.2966 84.0109 40.0446 83.8718 38.4945 84.2295Z" fill="#2A2F2D"/>
<path d="M24.2938 79.281C25.0887 80.99 25.4861 82.9177 25.4861 85.0639C24.2143 85.2627 22.8033 85.3819 21.2533 85.4216C19.743 85.4614 18.3121 85.3421 16.9608 85.0639C17.08 84.587 17.0204 84.11 16.7819 83.6331C16.5832 83.1562 16.2652 82.7388 15.8281 82.3811C15.4306 82.0234 14.9537 81.7651 14.3972 81.6061C13.8805 81.4074 13.3638 81.3279 12.8472 81.3676C11.933 81.5266 11.2375 81.8843 10.7605 82.4407C10.3233 82.9574 10.1047 83.5337 10.1047 84.1697C10.1047 84.8056 10.3432 85.4415 10.8202 86.0774C11.2971 86.7134 11.9926 87.1903 12.9068 87.5083C15.1325 87.8262 17.2191 88.2634 19.1666 88.8199C21.1142 89.3365 22.545 90.1911 23.4591 91.3834C24.3335 92.8143 24.8701 94.2848 25.0688 95.7951C25.2675 97.2657 24.9893 99.094 24.2342 101.28C23.32 103.227 21.8892 104.619 19.9417 105.453C17.9942 106.288 15.8678 106.685 13.5626 106.646C11.5356 106.725 9.70729 106.546 8.07773 106.109C6.44818 105.672 5.03722 105.016 3.84487 104.142C2.69225 103.267 1.77811 102.194 1.10244 100.922C0.466521 99.6504 0.14856 98.2196 0.14856 96.6298V96.4509V96.3317C1.46015 96.1727 2.9506 96.133 4.6199 96.2125C6.2892 96.2522 7.7399 96.2721 8.972 96.2721C9.01174 97.1862 9.42907 97.9414 10.224 98.5376C11.0586 99.094 11.933 99.4318 12.8472 99.5511C13.7613 99.6306 14.5959 99.4517 15.3511 99.0145C16.1063 98.5773 16.464 97.7824 16.4242 96.6298C16.5435 95.6759 16.3249 94.9605 15.7684 94.4835C15.212 94.0066 14.4767 93.6489 13.5626 93.4104C12.6484 93.1322 11.6151 92.8937 10.4624 92.695C9.30983 92.4963 8.17709 92.1585 7.06423 91.6815C4.83849 90.9264 3.20894 89.7539 2.17557 88.1641C1.18194 86.5345 0.704992 84.8652 0.744738 83.1562C0.824228 81.4074 1.38066 79.7977 2.41404 78.3271C3.48716 76.8565 4.99748 75.8629 6.94499 75.3462C7.70015 75.1475 8.61429 74.9885 9.68741 74.8693C10.8003 74.75 11.9728 74.6904 13.2049 74.6904C14.437 74.6904 15.6691 74.7699 16.9012 74.9289C18.1333 75.0481 19.266 75.227 20.2994 75.4655C22.1674 76.2604 23.4989 77.5322 24.2938 79.281Z" fill="#2A2F2D"/>
<path d="M217.332 14.4434C217.372 14.5626 217.392 14.7614 217.392 15.0396C217.551 14.9601 217.909 14.8011 218.465 14.5626C219.061 14.3242 219.638 14.1056 220.194 13.9068C220.949 13.6684 221.804 13.4895 222.758 13.3703C223.711 13.2113 224.606 13.1119 225.44 13.0722C226.275 13.0324 226.971 13.0324 227.527 13.0722C228.123 13.0722 228.421 13.0921 228.421 13.1318C228.421 14.4831 228.401 15.6755 228.362 16.7089C228.362 17.7423 228.362 18.6763 228.362 19.5109C228.362 20.3058 228.362 21.0411 228.362 21.7168C228.362 22.3924 228.382 23.0284 228.421 23.6245L227.885 23.4457C227.686 23.3662 227.467 23.3066 227.229 23.2668C227.03 23.1873 226.831 23.1079 226.633 23.0284C226.156 22.9091 225.659 22.8098 225.142 22.7303C224.665 22.6508 224.407 22.611 224.367 22.611C223.294 22.4918 222.3 22.4322 221.386 22.4322C220.512 22.4322 219.737 22.5713 219.061 22.8495C218.425 23.1277 217.929 23.5649 217.571 24.1611C217.213 24.7573 217.054 25.6118 217.094 26.7247C217.134 28.1158 217.173 29.4273 217.213 30.6594C217.253 31.8916 217.273 33.1435 217.273 34.4154C217.273 35.6475 217.273 36.9193 217.273 38.2309C217.312 39.5028 217.332 40.874 217.332 42.3445V42.583C216.657 42.7817 216.041 42.901 215.484 42.9407C214.928 42.9805 214.351 42.9805 213.755 42.9407C213.159 42.9407 212.503 42.9208 211.788 42.8811C211.112 42.8414 210.297 42.8612 209.344 42.9407C209.344 38.0521 209.284 33.1634 209.165 28.2747C209.085 23.3861 209.125 18.3186 209.284 13.0722C209.761 13.1119 210.158 13.1517 210.476 13.1914C210.794 13.1914 211.092 13.1914 211.371 13.1914C211.649 13.1914 211.947 13.1914 212.265 13.1914C212.583 13.1517 212.98 13.1119 213.457 13.0722C213.616 13.0722 213.894 13.0523 214.292 13.0126C214.729 12.9728 215.166 12.9331 215.603 12.8933C216.08 12.8536 216.478 12.8536 216.796 12.8933C217.153 12.8933 217.332 12.9331 217.332 13.0126C217.332 13.3305 217.332 13.569 217.332 13.728C217.332 13.887 217.332 14.0261 217.332 14.1453C217.332 14.2248 217.332 14.3242 217.332 14.4434Z" fill="#2A2F2D"/>
<path d="M182.501 17.3648C182.74 16.6096 182.919 16.0134 183.038 15.5762C183.316 14.9801 183.753 14.4634 184.349 14.0262C184.985 13.589 185.701 13.2313 186.496 12.9531C187.33 12.6351 188.205 12.4165 189.119 12.2973C190.073 12.178 191.027 12.1184 191.98 12.1184C192.775 12.1979 193.53 12.2178 194.246 12.178C195.001 12.0985 195.796 12.0985 196.631 12.178C197.902 12.2575 199.115 12.5159 200.267 12.9531C201.42 13.3505 202.414 13.9467 203.248 14.7416C203.805 15.0993 204.242 15.6756 204.56 16.4705C204.878 17.2654 205.116 18.1994 205.275 19.2726C205.434 20.3059 205.534 21.4585 205.573 22.7304C205.613 23.9625 205.653 25.2343 205.693 26.5459C205.653 27.6985 205.593 29.0101 205.514 30.4807C205.474 31.9513 205.375 33.3622 205.216 34.7136C205.096 36.0649 204.917 37.2771 204.679 38.3503C204.48 39.4234 204.182 40.1587 203.785 40.5561C203.109 41.51 202.215 42.1857 201.102 42.5831C200.029 42.9806 198.856 43.2191 197.584 43.2985C196.313 43.4178 195.001 43.4178 193.65 43.2985C192.298 43.2191 191.066 43.1793 189.953 43.1793C187.926 42.8216 186.217 41.9472 184.826 40.5561C183.753 39.6022 183.018 38.4099 182.62 36.979C182.223 35.5482 181.984 34.0578 181.905 32.5077C181.826 30.9179 181.806 29.3281 181.845 27.7383C181.925 26.1485 181.905 24.6978 181.786 23.3862C181.786 22.6708 181.806 21.9752 181.845 21.2996C181.885 20.5841 181.965 19.8489 182.084 19.0937C182.124 18.6565 182.263 18.0802 182.501 17.3648ZM192.517 21.2996C191.682 21.538 191.007 21.9752 190.49 22.6111C190.252 22.7701 190.073 23.1676 189.953 23.8035C189.794 25.0754 189.715 26.3472 189.715 27.619C189.715 28.8511 189.675 30.1627 189.596 31.5538C189.556 32.468 189.794 33.1834 190.311 33.7001C190.828 34.177 191.444 34.5148 192.159 34.7136C192.914 34.8725 193.689 34.9123 194.484 34.8328C195.279 34.7136 195.935 34.5148 196.452 34.2366C197.127 33.9187 197.585 33.2629 197.823 32.2692C197.982 30.9974 198.101 29.7255 198.181 28.4537C198.3 27.1421 198.24 25.91 198.002 24.7574C197.803 23.3663 197.227 22.3528 196.273 21.7169C195.319 21.081 194.067 20.9418 192.517 21.2996Z" fill="#2A2F2D"/>
<path d="M170.643 21.5378V34.5345V42.5233C169.967 42.4438 169.291 42.4239 168.616 42.4637C167.94 42.5034 167.264 42.563 166.589 42.6425C165.913 42.6823 165.257 42.722 164.621 42.7618C164.025 42.8015 163.469 42.7817 162.952 42.7022C162.873 42.2252 162.813 41.4502 162.773 40.3771C162.773 39.2642 162.753 38.0321 162.714 36.6808C162.714 35.2897 162.714 33.839 162.714 32.3287C162.714 30.8183 162.714 29.3676 162.714 27.9766C162.753 26.5457 162.773 25.2739 162.773 24.161C162.813 23.0481 162.833 22.1936 162.833 21.5974C162.197 21.5974 161.521 21.5974 160.806 21.5974C160.13 21.5974 159.395 21.6173 158.6 21.6571L158.421 14.3837C159.256 14.3837 160.011 14.3837 160.687 14.3837C161.402 14.3837 162.078 14.4036 162.714 14.4433C162.634 13.4497 162.654 12.3765 162.773 11.2239C162.892 10.0713 163.171 8.95846 163.608 7.88534C164.085 6.77247 164.741 5.77884 165.575 4.90445C166.41 3.99031 167.503 3.31464 168.854 2.87744C170.523 2.32101 172.332 1.98317 174.279 1.86394C176.267 1.70495 178.194 1.66521 180.062 1.7447C180.261 2.34088 180.38 2.99668 180.42 3.71209C180.5 4.42751 180.519 5.14292 180.48 5.85833C180.44 6.57375 180.38 7.26929 180.301 7.94496C180.221 8.62063 180.142 9.23668 180.062 9.79311C179.585 9.75337 179.029 9.75337 178.393 9.79311C177.797 9.83285 177.161 9.89247 176.485 9.97196C175.81 10.0515 175.134 10.1508 174.458 10.2701C173.783 10.3495 173.167 10.429 172.61 10.5085C171.696 10.6675 171.12 11.1444 170.881 11.9394C170.682 12.6945 170.682 13.5689 170.881 14.5625H180.003C179.923 14.9997 179.903 15.4369 179.943 15.8741C179.983 16.2716 179.983 16.7485 179.943 17.305C179.943 17.7422 179.943 18.0999 179.943 18.3781C179.943 18.6166 179.923 18.8749 179.884 19.1531C179.884 19.4313 179.864 19.789 179.824 20.2262C179.784 20.6634 179.725 21.2596 179.645 22.0148C177.618 21.8955 175.909 21.7962 174.518 21.7167C173.167 21.6372 171.875 21.5776 170.643 21.5378Z" fill="#2A2F2D"/>
<path d="M125.447 13.0721C127.037 12.9528 128.467 12.9727 129.739 13.1317C130.018 14.5625 130.335 16.2716 130.693 18.2588C131.051 20.2063 131.428 22.1936 131.826 24.2206C132.223 26.2476 132.641 28.1951 133.078 30.0632C133.515 31.8914 133.952 33.4018 134.39 34.5941C134.827 33.4018 135.184 31.8318 135.463 29.8843C135.741 27.9368 135.999 25.9098 136.238 23.8033C136.516 21.6968 136.814 19.6698 137.132 17.7223C137.45 15.7748 137.847 14.2048 138.324 13.0125C139.676 13.0522 141.047 13.0323 142.438 12.9528C143.829 12.8734 145.359 12.8932 147.028 13.0125C146.393 15.3972 145.816 17.6825 145.3 19.8685C144.823 22.0148 144.346 24.1213 143.869 26.188C143.352 28.1355 142.875 30.1824 142.438 32.3286C142.04 34.4749 141.524 36.5814 140.888 38.6481C140.292 40.7149 139.517 42.6823 138.563 44.5503C137.609 46.4183 136.337 48.028 134.747 49.3793C133.197 50.7704 131.25 51.8237 128.905 52.5391C126.599 53.2545 123.758 53.5129 120.379 53.3141C119.982 52.1218 119.783 50.7704 119.783 49.2601C119.743 47.7895 119.823 46.4978 120.022 45.3849C120.975 45.3849 121.949 45.4247 122.943 45.5042C123.976 45.5837 124.89 45.5241 125.685 45.3253C126.48 45.1664 127.076 44.7888 127.474 44.1926C127.911 43.5964 128.03 42.6425 127.832 41.3309C126.997 36.5218 125.944 31.7126 124.672 26.9034C123.4 22.0942 122.148 17.4441 120.916 12.9528C122.347 13.1118 123.857 13.1516 125.447 13.0721Z" fill="#2A2F2D"/>
<path d="M110.728 3.35438C110.767 2.91718 110.807 2.30113 110.847 1.50623V0.850433C110.847 0.810686 111.105 0.770941 111.622 0.731196C112.178 0.651707 112.834 0.611962 113.589 0.611962C114.384 0.572217 115.219 0.572217 116.093 0.611962C116.968 0.611962 117.723 0.671579 118.359 0.790813V4.72559C118.359 11.363 118.458 17.921 118.657 24.3995C118.856 30.8779 118.876 36.9788 118.717 42.7022C117.484 42.7022 116.133 42.722 114.663 42.7618C113.192 42.8413 111.86 42.8015 110.668 42.6425C110.628 42.563 110.609 42.4239 110.609 42.2252C110.609 41.8278 110.589 41.5098 110.549 41.2713C110.549 41.0329 110.549 40.695 110.549 40.2578C110.469 40.0591 110.37 39.92 110.251 39.8405C110.171 39.7213 110.072 39.7809 109.953 40.0194C109.357 41.2117 108.562 41.9867 107.568 42.3444C106.574 42.6624 105.521 42.7419 104.408 42.5829C102.143 42.4239 100.354 41.8476 99.0426 40.854C97.7311 39.8206 96.7374 38.5289 96.0618 36.9788C95.4258 35.389 94.9886 33.6204 94.7502 31.6729C94.5514 29.7253 94.4322 27.7579 94.3925 25.7707C94.3925 24.3796 94.4719 23.0283 94.6309 21.7167C94.8297 20.4051 95.1079 19.2127 95.4656 18.1396C95.863 17.0267 96.3598 16.0927 96.956 15.3376C97.5919 14.5427 98.3471 13.9862 99.2215 13.6683C100.295 13.2708 101.467 13.0323 102.739 12.9529C104.051 12.8336 105.283 12.8336 106.435 12.9529C107.588 13.0323 108.562 13.2112 109.357 13.4894C110.151 13.7676 110.589 14.0856 110.668 14.4433C110.628 12.5753 110.609 11.065 110.609 9.91234C110.609 8.75973 110.609 7.84559 110.609 7.16992C110.609 6.45451 110.609 5.91795 110.609 5.56024C110.648 5.16279 110.668 4.80508 110.668 4.48712C110.708 4.12941 110.728 3.75183 110.728 3.35438ZM103.335 20.8224C102.381 21.5378 101.805 22.5911 101.606 23.9822C101.407 24.5386 101.288 25.1149 101.249 25.7111C101.209 26.3072 101.189 26.8836 101.189 27.44C101.189 28.4336 101.308 29.4074 101.547 30.3613C101.785 31.2754 102.143 32.1101 102.62 32.8652C103.097 33.5806 103.673 34.1569 104.349 34.5941C105.024 35.0313 105.779 35.2499 106.614 35.2499C107.608 35.2499 108.383 35.0313 108.939 34.5941C109.535 34.1569 109.973 33.5608 110.251 32.8056C110.569 32.0504 110.748 31.1562 110.787 30.1228C110.867 29.0497 110.907 27.8772 110.907 26.6053C110.907 25.0553 110.867 23.843 110.787 22.9687C110.748 22.0545 110.609 21.359 110.37 20.882C110.132 20.4051 109.754 20.107 109.237 19.9878C108.76 19.8288 108.105 19.7493 107.27 19.7493C105.64 19.7493 104.329 20.107 103.335 20.8224Z" fill="#2A2F2D"/>
<path d="M87.5611 12.8933C88.5548 12.9331 89.6875 12.9927 90.9593 13.0722C90.9991 13.3106 91.019 13.5491 91.019 13.7876C91.0587 14.026 91.0786 14.2645 91.0786 14.503V15.0992C90.9593 19.3917 90.9792 23.6245 91.1382 27.7978C91.2972 31.9313 91.2376 36.1244 90.9593 40.3771C90.9593 40.8938 90.9395 41.4105 90.8997 41.9272C90.8997 42.4439 90.6613 42.742 90.1843 42.8215H89.4689C88.833 42.8215 88.1772 42.8016 87.5015 42.7618C86.8656 42.6824 86.2297 42.6426 85.5937 42.6426C85.1565 42.6426 84.7193 42.6824 84.2821 42.7618C83.8847 42.8016 83.4674 42.8215 83.0302 42.8215C82.752 42.742 82.5532 42.583 82.434 42.3445C82.3545 42.106 82.3148 41.8278 82.3148 41.5099C82.3148 41.0727 82.3545 40.715 82.434 40.4368C82.5135 40.1585 82.5532 39.8207 82.5532 39.4232C81.5993 40.3771 80.3871 41.1919 78.9165 41.8676C77.4857 42.5432 76.0748 42.8811 74.6837 42.8811C73.1336 42.8811 71.8021 42.3445 70.6893 41.2714C69.6162 40.1983 68.7219 38.8668 68.0065 37.277C67.2911 35.6872 66.7545 33.9583 66.3968 32.0903C66.0788 30.2222 65.9199 28.4933 65.9199 26.9035C65.9199 24.9162 66.1782 23.088 66.6949 21.4187C67.2116 19.7494 67.9071 18.3185 68.7815 17.1262C69.6957 15.8941 70.7688 14.9402 72.0009 14.2645C73.233 13.5491 74.5446 13.1715 75.9357 13.1318C76.6511 13.1318 77.3069 13.1517 77.903 13.1914C78.539 13.1914 79.1153 13.2908 79.632 13.4895C80.1486 13.6485 80.6057 13.9267 81.0032 14.3241C81.4006 14.6818 81.7385 15.1985 82.0167 15.8742C81.9769 15.2383 81.9968 14.7017 82.0763 14.2645C82.1955 13.7876 82.2551 13.3106 82.2551 12.8337C82.2551 12.7939 82.3744 12.7741 82.6129 12.7741C82.8911 12.7343 83.1892 12.7343 83.5071 12.7741C83.8251 12.7741 84.143 12.7741 84.461 12.7741C84.779 12.7741 84.9976 12.7741 85.1168 12.7741C85.7925 12.8138 86.6073 12.8536 87.5611 12.8933ZM75.2799 22.3129C74.3657 23.0681 73.8093 23.9425 73.6106 24.9361C73.4516 25.4528 73.3522 25.9894 73.3125 26.5458C73.2727 27.0625 73.2529 27.5792 73.2529 28.0959C73.2529 29.8844 73.7099 31.4146 74.6241 32.6864C75.5779 33.9185 76.8895 34.5346 78.5588 34.5346C79.5525 34.5346 80.2878 34.3756 80.7647 34.0576C81.2814 33.6999 81.6391 33.223 81.8378 32.6268C82.0763 31.9909 82.1955 31.2357 82.1955 30.3613C82.2353 29.4472 82.2551 28.4337 82.2551 27.3208C82.2551 25.9297 82.2353 24.8367 82.1955 24.0418C82.1955 23.2072 82.0962 22.5713 81.8974 22.1341C81.7385 21.6969 81.4404 21.4187 81.0032 21.2994C80.6057 21.1802 79.9897 21.1206 79.155 21.1206C77.5255 21.1206 76.2337 21.518 75.2799 22.3129Z" fill="#2A2F2D"/>
<path d="M49.5049 27.9768C48.6305 27.937 47.9946 27.8774 47.5971 27.7979V28.871C47.6369 30.0634 47.6766 31.0372 47.7164 31.7923C47.7959 32.5475 48.0542 33.2828 48.4914 33.9982C48.9683 34.9123 49.644 35.588 50.5184 36.0252C51.3928 36.4624 52.2473 36.6015 53.082 36.4425C53.9166 36.2835 54.6122 35.8066 55.1686 35.0117C55.7648 34.177 56.0231 32.9449 55.9436 31.3154C56.3411 31.3551 56.8776 31.375 57.5533 31.375C58.229 31.3353 58.9245 31.2955 59.6399 31.2558C60.3951 31.216 61.1105 31.216 61.7862 31.2558C62.4618 31.2558 63.0183 31.3154 63.4555 31.4346C63.376 32.468 63.2965 33.4815 63.217 34.4751C63.1375 35.4688 63.0381 36.4028 62.9189 37.2772C62.7997 38.1118 62.6407 38.8471 62.442 39.483C62.283 40.0792 62.0644 40.4965 61.7862 40.735C61.1105 41.6889 60.2361 42.3646 59.163 42.762C58.0899 43.1595 56.9174 43.3979 55.6455 43.4774C54.3737 43.5569 53.0621 43.5569 51.7108 43.4774C50.3992 43.3979 49.1869 43.3582 48.0741 43.3582C46.9612 43.1992 45.9278 42.8415 44.9739 42.2851C43.9008 41.5299 43.0066 40.5561 42.2911 39.3638C41.5757 38.1317 40.9994 36.8002 40.5622 35.3694C40.125 33.8988 39.8269 32.3488 39.668 30.7192C39.509 29.0896 39.4692 27.4601 39.5487 25.8305C39.668 24.36 39.7872 22.949 39.9064 21.5977C40.0654 20.2066 40.3834 18.8553 40.8603 17.5437C41.377 16.391 42.1719 15.4173 43.245 14.6224C44.3181 13.7877 45.5304 13.1717 46.8817 12.7742C48.233 12.337 49.6639 12.0986 51.1742 12.0588C52.6845 12.0191 54.1551 12.1781 55.5859 12.5358C57.4142 12.8537 58.8848 13.4896 59.9976 14.4435C61.1105 15.3974 61.9452 16.55 62.5016 17.9014C63.0978 19.2527 63.4555 20.7432 63.5747 22.3727C63.6939 24.0023 63.6939 25.6517 63.5747 27.321C63.2965 27.4005 62.7599 27.48 61.965 27.5595C61.2099 27.6389 60.2957 27.7184 59.2226 27.7979C58.1892 27.8774 57.0764 27.937 55.884 27.9768C54.6916 28.0165 53.539 28.0364 52.4262 28.0364C51.3531 28.0364 50.3793 28.0165 49.5049 27.9768ZM56.4802 20.1668C56.0827 19.4514 55.5263 18.9149 54.8109 18.5572C54.4929 18.3584 54.175 18.2193 53.857 18.1398C53.539 18.0206 53.1615 17.961 52.7243 17.961C51.7704 17.961 50.9953 18.0603 50.3992 18.2591C49.803 18.4578 49.326 18.736 48.9683 19.0937C48.6106 19.4514 48.3324 19.8688 48.1337 20.3457C47.9747 20.8226 47.8555 21.3195 47.776 21.8361C47.6965 22.2733 47.6567 22.5913 47.6567 22.79C47.6965 22.949 47.8952 23.0682 48.2529 23.1477C48.6106 23.1875 49.1671 23.2074 49.9222 23.2074C50.7171 23.1676 51.8697 23.1477 53.3801 23.1477C54.4134 23.1477 55.1885 23.1676 55.7052 23.2074C56.2218 23.2471 56.5795 23.267 56.7783 23.267C57.0167 23.2272 57.136 23.1676 57.136 23.0881C57.136 22.9689 57.136 22.7503 57.136 22.4323C57.136 21.6374 56.9174 20.8823 56.4802 20.1668Z" fill="#2A2F2D"/>
<path d="M36.6372 37.8732C37.5116 39.3835 38.2469 40.9535 38.8431 42.583H38.9027C37.5116 42.583 35.9616 42.6427 34.2525 42.7619C32.5435 42.8414 30.7947 42.8215 29.0061 42.7023H28.9465C28.5491 41.7881 28.0523 40.6951 27.4561 39.4233C26.8599 38.1514 26.2041 36.82 25.4887 35.4289C24.7733 34.0378 23.9982 32.6666 23.1636 31.3153C22.3289 29.9639 21.4943 28.7716 20.6596 27.7382L20.5404 27.5593C20.4212 28.4735 20.3616 29.6062 20.3616 30.9576C20.3616 32.2691 20.3814 33.6404 20.4212 35.0712C20.5007 36.4623 20.5802 37.7937 20.6596 39.0656C20.7391 40.3374 20.7988 41.3509 20.8385 42.1061C20.1628 42.3843 19.2686 42.5632 18.1557 42.6427C17.0826 42.7221 16.0095 42.7619 14.9363 42.7619C13.8632 42.8016 12.8895 42.8016 12.0151 42.7619C11.1804 42.7221 10.6637 42.7221 10.465 42.7619C10.5445 42.7619 10.6041 42.2253 10.6438 41.1522C10.6836 40.0393 10.7035 38.5886 10.7035 36.8001C10.7035 35.0116 10.7035 32.9647 10.7035 30.6595C10.7035 28.3145 10.6836 25.9099 10.6438 23.4457C10.6438 20.9418 10.6041 18.4776 10.5246 16.0531C10.4849 13.5889 10.4451 11.3433 10.4054 9.31628C10.3656 7.24953 10.306 5.50074 10.2265 4.06991C10.1868 2.59934 10.1272 1.60571 10.0477 1.08902C12.2734 0.771057 14.7177 0.472969 17.3807 0.194751C20.0436 -0.0834643 22.8258 -0.0635923 25.7272 0.254368C28.0721 0.373604 30.1786 1.04927 32.0466 2.28138C33.9147 3.51348 35.3654 5.04367 36.3988 6.87195C37.4321 8.70023 37.9687 10.7272 38.0084 12.953C38.0879 15.139 37.5116 17.2653 36.2795 19.3321C35.5244 20.7629 34.5109 21.9553 33.239 22.9091C32.0069 23.863 30.437 24.3996 28.5292 24.5188H28.2907H28.2311V24.5784C29.0658 26.049 29.9799 27.5196 30.9735 28.9902C31.9672 30.421 32.9409 31.8717 33.8948 33.3423C34.8487 34.8128 35.7628 36.3232 36.6372 37.8732ZM22.8655 8.54125C21.5142 8.581 20.143 8.87908 18.7519 9.43552C18.7916 9.9522 18.8115 10.5484 18.8115 11.224C18.8512 11.86 18.8711 12.5158 18.8711 13.1914C18.8711 13.8671 18.8711 14.5229 18.8711 15.1588C18.9109 15.7948 18.9705 16.3313 19.05 16.7685H19.1096C20.0237 16.848 21.0174 16.9076 22.0905 16.9474C23.1636 16.9871 24.1771 16.9275 25.131 16.7685C25.8861 16.6095 26.4624 16.2319 26.8599 15.6358C27.2971 14.9998 27.5554 14.3242 27.6349 13.6088C27.7144 12.8536 27.6349 12.1183 27.3965 11.4029C27.158 10.6477 26.7605 10.0516 26.2041 9.61437C25.3297 8.81946 24.2168 8.46176 22.8655 8.54125Z" fill="#2A2F2D"/>
<g clip-path="url(#clip0_71_429)">
<path d="M109.681 118.765C114.108 117.266 119.066 117.087 123.471 118.765C129.447 121.338 134.405 125.834 138.943 130.465C139.828 131.583 141.555 132.903 140.692 134.491C136.597 131.964 132.613 129.167 128.053 127.646C123.117 125.722 117.783 126.304 112.625 126.147C112.559 125.118 112.515 124.089 112.382 123.06C112.249 123.977 112.205 124.895 112.16 125.812C110.7 124.358 109.681 122.479 109.062 120.532C108.796 119.906 108.885 118.944 109.681 118.765Z" fill="#2A2F2D"/>
<path d="M67.8031 120.376C71.6988 118.586 76.1035 118.609 80.2648 119.034C82.5225 120.711 81.1723 123.977 80.2426 126.08C80.0656 125.051 79.8885 124.022 79.5122 123.06C79.3794 124.358 80.1762 126.304 78.7154 127.065C76.6569 127.736 74.4434 127.266 72.3185 127.512C64.483 127.959 57.7099 132.791 52.6854 138.608C51.8664 139.547 51.1138 140.688 49.8079 140.979C50.1399 138.831 51.4901 137.131 52.5083 135.319C56.2711 129.19 61.1628 123.373 67.8031 120.376Z" fill="#2A2F2D"/>
</g>
<g clip-path="url(#clip1_71_429)">
<path d="M104.498 215.038C112.088 214.85 119.932 215.79 126.799 219.289C129.799 220.644 132.871 223.541 132.004 227.304C130.703 235.807 127.884 244.235 123.221 251.384C115.956 262.107 99.2931 262.784 90.7269 253.453C85.6666 247.885 82.1968 240.924 79.4136 233.888C78.2931 231.028 77.1004 227.078 79.7389 224.707C86.3895 218.349 95.6064 215.64 104.498 215.038ZM84.7269 225.159C85.3775 226.175 86.1727 227.529 87.5462 227.304C98.8594 227.266 110.137 226.25 121.341 224.745C122.751 224.82 122.932 222.788 121.847 222.149C116.859 218.424 110.353 218.386 104.426 218.537C97.3413 218.349 90.7269 221.434 84.7269 225.159ZM94.6305 253.265C95.498 254.695 97.1968 254.77 98.5703 255.109C105.51 256.087 114.221 255.033 118.884 249.126C111.691 253.717 102.871 255.184 94.6305 253.265Z" fill="#2A2F2D"/>
</g>
<g clip-path="url(#clip2_71_429)">
<path d="M123.319 188.781C119.411 189.783 115.125 186.871 114.306 183.05C113.424 179.167 116.134 174.939 120.073 174.188C123.886 173.28 128.014 175.879 128.896 179.637C130.031 183.52 127.258 187.935 123.319 188.781Z" fill="#2A2F2D"/>
<path d="M123.319 186.338C121.396 186.996 118.812 185.775 118.812 183.551C118.592 181.077 121.775 179.386 123.854 180.67C125.966 181.923 125.808 185.649 123.319 186.338Z" fill="#FEFEFE"/>
</g>
<g clip-path="url(#clip3_71_429)">
<path d="M77.3187 188.781C73.4112 189.783 69.1255 186.871 68.3061 183.05C67.4238 179.167 70.1339 174.939 74.0729 174.188C77.886 173.28 82.0141 175.879 82.8965 179.637C84.0309 183.52 81.2578 187.935 77.3187 188.781Z" fill="#2A2F2D"/>
<path d="M77.3187 186.338C75.3965 186.996 72.8124 185.775 72.8124 183.551C72.5919 181.077 75.7746 179.386 77.8545 180.67C79.9658 181.923 79.8082 185.649 77.3187 186.338Z" fill="#FEFEFE"/>
</g>
<defs>
<clipPath id="clip0_71_429">
<rect width="91.0828" height="23.3546" fill="white" transform="translate(49.8301 117.58)"/>
</clipPath>
<clipPath id="clip1_71_429">
<rect width="54" height="45" fill="white" transform="translate(78.1486 215)"/>
</clipPath>
<clipPath id="clip2_71_429">
<rect width="15" height="15" fill="white" transform="translate(129.149 189) rotate(-180)"/>
</clipPath>
<clipPath id="clip3_71_429">
<rect width="15" height="15" fill="white" transform="translate(83.1486 189) rotate(-180)"/>
</clipPath>
</defs>
</svg>
