<svg width="109" height="100" viewBox="0 0 109 100" fill="none" xmlns="http://www.w3.org/2000/svg">
<path fill-rule="evenodd" clip-rule="evenodd" d="M103.835 25.6015C102.647 25.0165 102.944 23.2616 102.796 22.0916C102.351 18.5818 102.202 14.0482 100.421 11.4158C99.9762 10.6846 98.9373 10.6846 99.2341 9.36844C99.3825 9.36844 99.3826 9.2222 99.531 9.2222C100.421 8.92971 100.867 9.95341 101.609 10.0997C103.686 13.0245 103.983 18.5818 104.428 22.8228C104.428 23.7003 105.022 25.1627 103.835 25.6015Z" fill="#192C32"/>
<path fill-rule="evenodd" clip-rule="evenodd" d="M106.057 14.3374C106.503 14.4836 106.503 14.0449 106.799 14.3374C108.58 15.6536 108.729 20.1871 108.432 23.5507C108.284 24.4282 108.135 25.7443 107.541 25.7443C106.354 25.8906 106.948 24.2819 106.948 23.6969C107.096 22.2345 107.245 19.1634 106.948 17.4085C106.651 16.3848 105.315 15.5073 106.057 14.3374Z" fill="#192C32"/>
<path fill-rule="evenodd" clip-rule="evenodd" d="M11.0799 82.6327C10.0411 82.779 10.1895 81.9015 9.89268 81.4628C8.40862 80.1466 7.51818 78.2454 6.33093 76.6368C4.84687 74.7356 2.91759 73.8581 1.13672 72.2495C1.28512 72.1032 1.28512 71.957 1.28512 71.6645C2.02716 71.372 3.65962 72.3957 4.84687 73.1269C6.77615 74.5894 8.11181 77.0755 9.74428 79.1229C10.7831 80.1466 12.1188 81.7553 11.0799 82.6327Z" fill="#192C32"/>
<path fill-rule="evenodd" clip-rule="evenodd" d="M8.85333 84.0954C8.1113 86.874 5.7368 83.2179 4.84636 82.048C4.40115 81.463 3.51071 81.1705 3.06549 80.5855C2.76868 80.293 2.62027 79.7081 2.32346 79.5618C1.58143 78.8306 -0.199444 78.2456 0.690993 76.9294C0.839399 76.9294 1.13621 76.9294 1.13621 76.7832C4.10433 78.8306 5.7368 82.1942 8.85333 84.0954Z" fill="#192C32"/>
<path fill-rule="evenodd" clip-rule="evenodd" d="M93.4453 44.7564C95.9682 47.5351 98.0459 51.4836 100.717 54.9935C101.311 55.7247 102.35 56.8946 102.35 57.4796C102.35 59.3808 98.6395 61.1357 97.1554 62.1594C94.9294 63.6218 93.1485 64.938 91.2192 66.108C87.0638 68.7404 82.7601 71.0802 78.7531 73.2739C76.527 74.4438 74.1525 75.3213 72.0748 76.4912C69.8487 77.6612 67.9194 78.9774 65.8418 80.1473C61.538 82.6335 56.9374 84.3884 52.9304 86.8745C51.7432 87.6058 50.5559 88.4832 49.3687 89.2144C46.2522 90.9693 43.8777 92.578 40.7611 94.6254C38.9803 95.7954 37.1994 96.6728 35.8637 97.6965C34.6765 98.574 33.9344 100.475 31.8568 99.8902C30.5211 99.5977 28.8886 95.6491 28.295 94.3329C26.9594 92.1393 25.7721 90.3844 24.5849 88.9219C20.4295 83.5109 17.313 77.9537 12.8608 72.9814C10.0411 69.7641 7.07293 67.1317 4.25322 63.1831C3.808 62.4519 3.06597 61.4282 2.32394 60.4045C1.2851 58.942 -0.0505596 58.5033 0.691471 56.6022C0.988283 55.7247 2.47234 55.1397 3.65959 54.4085C4.84684 53.6773 5.58887 52.6536 6.47931 52.0686C8.7054 50.1674 10.6347 48.9975 12.564 47.8276C17.1646 45.0489 21.0231 42.2703 25.1785 39.7842C29.7791 37.0055 34.0829 34.6656 38.535 32.3258C42.8388 29.9859 46.549 26.476 51.4464 24.5749C51.4464 21.7962 52.1884 19.1639 53.0788 16.9702C55.0081 12.4367 60.6476 7.46438 66.7322 6.87941C70.7392 6.58692 76.3786 6.73317 79.0499 8.04936C79.0499 6.14819 78.6047 4.24703 78.9015 2.49211C79.3467 -1.45646 83.7989 0.152217 86.3218 1.46841C92.1097 4.39327 95.6714 11.5592 96.1166 19.7488C96.4134 24.1361 97.4523 28.3772 97.007 33.4957C96.7102 36.5668 95.6714 39.3454 95.9682 42.1241C95.2262 43.1478 94.3357 43.879 93.4453 44.7564ZM80.6824 8.78057C82.4632 10.0968 84.8378 12.2904 86.3218 14.9228C87.3607 16.6777 88.5479 19.1639 88.6963 21.2113C89.4383 28.3772 85.1346 34.6656 78.7531 31.5945C78.9015 33.3495 78.6047 35.5431 78.9015 37.1518C81.5728 37.4443 83.5021 36.7131 85.1346 36.2743C85.8766 35.9818 86.767 35.9818 87.2122 35.6894C90.3288 34.5194 91.2192 29.8396 91.516 25.8911C92.2581 15.8003 89.1415 5.56322 80.0888 4.53952C80.3856 5.70946 80.2372 7.46438 80.6824 8.78057ZM68.6615 15.654C71.1844 15.2153 72.8169 16.5315 74.4493 17.2627C75.4882 15.069 77.7143 15.8003 78.9015 17.1164C80.9792 19.6026 81.4244 24.8673 82.7601 27.3535C84.9862 24.4286 83.7989 19.7488 82.3148 17.2627C80.8308 14.7766 78.0111 11.8517 74.5977 11.413C72.3716 11.1205 68.9583 11.5592 66.287 11.413C66.7322 13.1679 68.0679 14.0453 68.6615 15.654ZM64.6545 11.8517C63.7641 12.4367 62.5768 12.7291 61.6864 13.3141C62.4284 14.9228 63.4673 16.0927 64.2093 17.5552C65.3965 17.1164 66.1386 16.3852 67.3258 15.9465C66.4354 14.7766 65.8418 13.0216 64.6545 11.8517ZM60.3507 14.4841C57.2342 15.9465 59.7571 18.4326 60.9444 20.3338C61.538 19.6026 62.28 19.0176 63.0221 18.4326C62.1316 17.1164 61.538 15.5078 60.3507 14.4841ZM56.789 19.7488C57.8278 20.48 57.9762 22.0887 58.8667 22.9662C59.1635 22.3812 59.6087 22.0887 59.7571 21.3575C59.1635 20.0413 58.5699 18.7251 57.6794 17.8477C57.0858 18.2864 56.9374 19.0176 56.789 19.7488ZM80.9792 27.2072C80.2372 25.1598 79.9403 22.8199 79.1983 20.7725C79.0499 23.6974 79.6435 26.0373 80.9792 27.2072ZM68.8099 20.9188C66.4354 21.7962 64.9513 24.7211 65.8418 27.9385C66.8806 25.3061 68.5131 23.2587 72.2232 23.1124C71.3328 22.0887 70.2939 21.3575 68.8099 20.9188ZM58.1246 34.5194C59.6087 37.5905 63.0221 39.4917 66.287 40.8079C68.8099 41.8316 71.1844 42.8553 72.8169 41.2466C72.6684 39.6379 72.2232 38.1755 72.0748 36.5668C62.5768 39.053 59.0151 28.6697 61.6864 21.065C58.8667 23.9899 57.6794 28.3772 58.1246 34.5194ZM55.8986 23.1124C56.9374 23.4049 56.9374 24.7211 57.6794 25.1598C57.6794 24.7211 57.8278 24.4286 57.9762 24.1361C57.0858 23.5512 56.9374 22.235 56.1954 21.5037C56.3438 22.235 55.8986 22.5275 55.8986 23.1124ZM67.4742 31.7408C71.778 34.2269 75.4882 28.3772 73.2621 24.5749C68.6615 24.1361 66.4354 27.4997 67.4742 31.7408ZM55.8986 27.061C56.1954 26.7685 56.3438 27.2072 56.6406 26.9148C56.1954 26.7685 56.4922 25.8911 55.8986 25.7448C55.8986 26.0373 55.8986 26.476 55.8986 27.061ZM44.7681 31.3021C39.1287 34.9581 33.044 38.0292 27.2562 41.5391C23.3976 43.7327 19.6875 46.3651 15.9773 48.705C12.564 50.7524 9.44743 53.0923 6.62772 55.4322C6.3309 55.7247 5.29206 56.1634 5.73728 56.3097C11.6735 56.3097 17.4614 56.3097 23.3976 56.6022C28.7402 56.8946 34.0829 56.1634 39.2771 56.6022C44.4713 57.0409 49.6655 57.4796 54.7113 57.9183C56.1954 53.8235 57.6794 49.7287 59.1635 45.6339C55.7501 40.3691 52.4852 35.1044 51.298 27.646C51.1496 27.646 51.1496 27.646 51.0012 27.646C48.7751 28.6697 46.8458 29.9859 44.7681 31.3021ZM56.6406 30.1321C56.6406 29.6934 56.789 28.9622 56.3438 28.9622C56.3438 29.4009 56.3438 29.8396 56.6406 30.1321ZM94.4842 33.9344C95.2262 34.5194 94.781 36.4206 94.9294 37.5905C94.9294 37.7368 95.0778 37.7368 95.0778 37.4443C95.0778 37.1518 95.0778 36.7131 95.0778 36.4206C95.523 34.8119 95.8198 32.1795 95.523 30.1321C95.2262 31.5945 94.781 32.7645 94.4842 33.9344ZM76.6754 38.1755C77.1206 37.0055 76.527 34.8119 76.2302 33.4957C75.3398 34.6656 76.2302 37.0055 76.6754 38.1755ZM73.4105 36.1281C74.0041 37.4443 73.8557 39.3454 74.3009 40.6616C74.7461 40.2229 75.0429 39.9304 75.4882 39.6379C74.7461 38.6142 74.8945 36.5668 74.3009 35.3969C74.0041 35.6894 73.5589 35.6894 73.4105 36.1281ZM93.1485 43.1478C93.5937 41.3928 93.4453 38.1755 93.2969 36.1281C91.8128 37.4443 93.1485 40.8079 93.1485 43.1478ZM78.7531 38.3217C76.9722 39.4917 75.9334 41.5391 73.8557 42.4165C79.1983 41.8316 83.2053 39.9304 86.1734 37.1518C83.9473 37.7368 81.8696 38.6142 78.7531 38.3217ZM90.9224 44.464C91.3676 44.6102 91.3676 44.1715 91.6644 44.1715C91.0708 42.709 91.6644 40.3691 90.9224 39.053C90.032 40.2229 91.2192 42.5628 90.9224 44.464ZM88.9931 40.8079C88.6963 41.1004 88.3995 41.3928 88.1027 41.5391C89.7352 41.8316 88.8447 44.6102 89.7352 45.6339C89.4383 44.1715 89.5868 42.1241 88.9931 40.8079ZM61.2412 45.3414C62.28 46.3651 63.0221 47.5351 64.5061 48.2663C64.9513 48.4125 65.3965 48.4125 65.8418 48.705C66.7322 49.1437 67.3258 49.7287 68.5131 49.875C70.8876 50.1674 73.5589 50.0212 75.785 49.875C80.534 49.4362 85.1346 48.5588 88.2511 46.6576C87.9543 45.3414 87.3607 43.5865 87.5091 42.1241C87.0638 41.9778 86.767 42.4165 86.4702 42.709C83.2053 44.9027 76.8238 47.6813 71.036 47.0963C65.8418 46.5114 61.6864 43.4403 58.1246 41.8316C58.8667 43.1478 60.0539 44.1715 61.2412 45.3414ZM90.774 46.5114C87.8059 49.29 81.8696 50.7524 75.6366 51.3374C73.2621 51.4836 70.5908 51.6299 68.3647 51.3374C65.3965 50.8987 63.1705 48.705 61.0928 47.8276C60.796 49.5825 60.0539 50.7524 59.6087 52.5073C66.7322 51.9224 73.1137 53.2386 78.7531 53.531C79.4951 53.531 80.3856 53.531 81.1276 53.531C83.0569 53.6773 84.8378 54.4085 86.6186 54.5547C90.4772 54.8472 95.0778 54.116 97.6007 55.5784C95.3746 52.7998 94.0389 48.705 90.774 46.5114ZM81.8696 56.1634C81.1276 56.0172 80.2372 56.1634 79.3467 56.1634C76.6754 56.0172 74.0041 55.286 71.3328 55.1397C67.3258 54.8472 62.4284 55.4322 58.7183 54.9935C57.8278 56.3097 57.6794 59.9658 56.6406 60.697C55.8986 61.1357 55.3049 60.8432 54.5629 60.697C52.04 60.4045 48.6267 59.8195 45.6585 59.9658C43.284 66.6929 40.4643 73.8589 38.8318 81.3173C38.2382 83.8034 37.6446 86.4358 36.7542 88.7757C35.8637 91.1156 34.5281 93.163 34.3797 95.6491C35.4185 94.9179 36.4574 94.1867 37.6446 93.6017C37.4962 91.2618 38.3866 88.337 38.535 85.7046C38.535 84.8271 38.0898 83.2184 39.2771 82.926C40.4643 83.9497 39.8707 86.1433 39.7223 87.752C39.5739 89.6532 38.9803 91.4081 38.9803 92.578C39.5739 91.993 40.6127 91.7006 41.0579 90.9693C40.4643 89.3607 41.2063 87.4595 41.3548 85.7046C41.5032 84.3884 40.9095 82.6335 42.0968 82.1947C43.1356 82.7797 42.8388 84.3884 42.8388 85.7046C42.6904 87.167 42.2452 88.9219 42.2452 90.2381C42.9872 89.7994 43.5808 89.2144 44.3229 88.9219C44.6197 87.0208 44.7681 84.3884 44.7681 82.0485C44.7681 80.8785 44.3229 79.1236 45.5101 78.8311C46.549 79.2699 46.2522 80.7323 46.2522 81.9023C46.2522 84.0959 46.2522 86.4358 45.9553 88.0445C46.549 87.752 47.291 87.4595 47.7362 86.8745C48.1814 84.6809 46.8458 80.5861 48.4783 79.7086C49.8139 80.7323 48.7751 84.0959 49.2203 86.1433C49.9623 85.7046 50.7043 85.2659 51.298 84.5346C51.7432 82.341 50.4075 78.0999 52.04 77.2225C53.3757 78.2462 52.3368 81.756 52.782 83.8034C53.6725 83.3647 54.5629 83.0722 55.3049 82.6335C55.7501 80.4398 54.4145 76.6375 56.047 75.6138C57.3826 76.4912 56.3438 79.7086 56.789 81.6098C57.531 81.4635 58.1246 81.0248 58.8667 80.7323C58.8667 79.4161 58.8667 77.6612 58.8667 76.0525C58.8667 74.5901 58.4215 72.6889 59.6087 72.2502C61.0928 73.5664 59.9055 77.515 60.3507 79.8548C61.0928 79.5624 61.6864 79.2699 62.4284 78.9774C62.4284 77.6612 62.4284 75.76 62.4284 74.1514C62.4284 72.5427 61.9832 70.4953 63.1705 70.0565C64.2093 70.6415 63.9125 72.2502 63.9125 73.5664C63.9125 75.0288 63.9125 76.6375 63.9125 77.9537C64.9513 77.515 65.6934 76.93 66.7322 76.345C66.8806 75.0288 66.5838 73.4201 66.4354 71.9577C66.287 70.4953 65.9902 68.4479 67.1774 67.8629C68.3647 68.5941 67.771 70.934 67.9195 72.6889C68.0679 73.7126 68.2163 74.7363 68.3647 75.4675C69.2551 74.8826 70.294 74.2976 71.3328 73.7126C71.1844 72.104 71.1844 70.0565 71.036 68.4479C71.036 67.7167 70.4424 66.4005 71.6296 66.4005C73.1137 67.5704 72.2232 71.0802 72.8169 73.1277C73.7073 72.8352 74.7461 72.5427 75.3398 71.8115C75.1914 70.7878 74.8945 68.8866 74.7461 67.4242C74.5977 66.108 74.3009 64.2068 75.4882 63.7681C76.6754 64.3531 76.0818 66.2542 76.2302 67.7167C76.3786 69.0328 76.527 70.349 76.6754 71.2265C77.5659 70.7878 78.4563 70.349 79.0499 69.6178C79.1983 67.5704 77.5658 64.2068 79.3467 63.1831C80.534 64.3531 79.9404 67.2779 80.3856 69.1791C80.9792 68.7403 82.018 68.5941 82.4633 68.0091C82.6117 66.108 80.6824 62.3056 82.6117 61.1357C83.6505 61.5744 83.2053 63.0369 83.3537 64.0606C83.5021 65.3768 83.9473 66.5467 84.0957 67.5704C84.6893 66.9854 85.8766 66.9854 86.3218 66.108C86.4702 64.0606 84.3925 60.5507 86.1734 59.3808C87.5091 60.5507 86.9154 63.7681 87.8059 65.523C89.5868 64.3531 86.767 59.2345 88.8447 58.0646C90.032 59.0883 89.4383 62.0132 89.7352 64.0606C90.3288 63.9143 90.6256 63.4756 91.0708 63.3293C90.774 61.4282 90.774 59.3808 90.3288 57.6259C87.2122 57.7721 84.6893 56.6022 81.8696 56.1634ZM92.2581 61.8669C92.8517 61.7207 93.1485 61.1357 93.7421 61.1357C93.1485 59.9658 93.8905 58.6496 93.7421 57.3334C93.0001 57.3334 92.4065 57.3334 91.6644 57.3334C91.9613 58.6496 91.9613 60.4045 92.2581 61.8669ZM95.0778 60.112C95.8198 59.527 96.8586 59.2345 97.4523 58.5033C96.5618 58.3571 96.1166 57.7721 95.2262 57.7721C95.2262 58.5033 94.6326 59.3808 95.0778 60.112ZM7.96337 63.9143C7.96337 62.4519 8.11178 60.8432 7.66656 59.8195C7.81497 59.527 7.96337 59.2345 8.40859 59.0883C7.22134 59.2345 5.58887 58.942 4.55003 59.2345C5.88569 60.697 6.77612 62.4519 7.96337 63.9143ZM9.44743 65.8155C9.89265 66.108 10.6347 67.4242 10.9315 66.9854C10.7831 65.2305 10.3379 61.8669 10.7831 60.8432C13.306 60.697 11.3767 66.108 12.7124 67.5704C12.564 68.0091 12.4156 68.1554 12.1187 68.4479C12.8608 68.8866 13.7512 70.4953 14.1964 70.349C13.8996 68.5941 14.1964 65.9617 14.048 64.0606C14.048 63.3293 13.6028 62.5981 14.1964 62.3056C16.8677 62.4519 14.7901 68.5941 15.8289 70.7878C15.9773 71.3727 15.3837 71.3727 15.3837 71.8115C15.9773 72.2502 16.5709 73.7126 17.0161 73.4201C17.4614 71.2265 16.1257 67.4242 17.7582 66.4005C19.2422 67.8629 17.9066 72.2502 18.5002 74.5901C18.6486 75.1751 18.055 75.0288 18.055 75.4675C18.6486 75.9063 19.2422 77.6612 19.8359 77.3687C20.5779 74.7363 18.3518 71.519 20.1327 70.6415C22.6556 72.8352 19.9843 80.1473 22.804 82.0485C22.9524 79.7086 22.5072 76.345 22.9524 75.0288C24.7333 74.8826 24.288 77.0762 24.288 78.6849C24.288 80.4398 23.9912 82.7797 24.288 84.0959C24.4365 84.9734 25.7721 86.4358 26.0689 86.1433C26.5141 84.0959 25.1785 80.4398 26.8109 79.5624C27.9982 80.2936 27.553 82.0485 27.553 83.6572C27.553 86.8745 27.2562 89.5069 29.037 90.5306C29.037 89.2144 29.037 87.6057 29.037 85.9971C29.037 84.5346 28.5918 82.6335 29.7791 82.1947C30.9663 83.0722 30.5211 85.4121 30.5211 87.167C30.5211 89.2144 30.6695 91.2618 30.3727 92.7243C30.8179 93.0168 30.6695 93.8942 31.2631 94.0405C35.5669 82.926 37.9414 70.0565 42.542 59.3808C31.4115 59.0883 19.6875 58.6496 8.40859 58.942C10.1895 60.2582 9.29903 63.6218 9.44743 65.8155Z" fill="#192C32"/>
</svg>
