<svg width="360" height="360" viewBox="0 0 360 360" fill="none" xmlns="http://www.w3.org/2000/svg">
<g clip-path="url(#clip0_3237_16196)">
<path d="M286.726 240.435C285.398 227.382 288.584 207.542 277.168 197.36C270.531 191.356 260.708 188.745 251.151 187.179C253.806 181.958 251.682 173.082 251.416 168.122C250.62 154.025 251.416 139.927 248.761 125.83C243.717 100.246 226.195 76.7512 196.195 73.3574C169.646 70.2247 140.974 79.1007 124.513 98.9412C101.682 126.091 101.682 159.246 104.602 191.878C97.4338 193.444 89.7347 195.794 86.0179 200.754C82.8321 204.931 83.0975 209.891 83.0975 214.59C82.832 225.816 82.0356 236.78 81.5046 248.006C80.4427 268.107 75.9294 295.518 81.5046 317.969C82.0356 322.146 82.832 326.062 84.425 329.978C90.5312 347.208 106.726 354.257 124.779 357.389C140.177 360.261 157.434 360.261 173.098 360C195.398 360.522 217.699 361.566 240 358.956C254.071 357.389 272.124 355.562 282.478 345.642C292.301 336.505 291.77 322.146 292.301 310.138C293.098 286.12 289.115 263.408 286.726 240.435ZM217.168 159.507C217.168 164.728 214.513 176.737 216.903 183.785C190.354 182.48 162.744 184.046 136.46 187.179C137.522 172.56 136.991 157.679 140.708 143.321C146.283 121.392 172.036 89.8041 199.912 107.817C218.23 119.826 217.434 141.233 217.168 159.507Z" fill="#F2DECD"/>
<path d="M286.725 240.435C285.398 227.382 288.584 207.542 277.168 197.36C270.531 191.356 260.708 188.746 251.15 187.179C253.805 181.958 251.681 173.082 251.416 168.122C250.619 154.025 251.416 139.928 248.761 125.83C243.717 100.247 226.194 76.7513 196.194 73.3576C169.646 70.2249 140.973 79.1009 124.513 98.9413C101.681 126.091 101.681 159.246 104.602 191.878C97.4334 193.184 89.7343 195.794 86.0175 200.754C82.8317 204.931 83.0971 209.891 83.0971 214.59C82.8316 225.816 82.0352 236.78 81.5042 248.006C80.4423 268.107 75.929 295.519 81.5042 317.97C82.0352 322.147 82.8316 326.062 84.4246 329.978C90.5308 347.208 106.725 354.257 124.779 357.389C140.177 360.261 157.433 360.261 173.097 360C195.398 360.522 217.699 361.566 240 358.956C254.071 357.389 272.124 355.562 282.478 345.642C292.301 336.505 291.77 322.147 292.301 310.138C293.097 286.12 289.115 263.408 286.725 240.435ZM121.062 112.516C135.398 88.76 161.416 76.2292 190.885 77.7956C224.071 79.3619 241.858 106.251 244.513 134.184C245.575 144.627 245.044 155.069 245.575 165.511C245.84 170.732 249.292 181.436 246.637 186.657C244.513 186.396 242.389 186.135 240.531 185.874C235.486 185.352 230.442 184.83 225.133 184.308C225.133 183.524 225.133 182.741 225.133 182.219C225.133 179.347 224.602 176.476 224.336 173.604C224.336 173.343 223.805 173.343 223.805 173.604C223.54 176.215 223.54 178.564 223.54 181.175C223.54 182.219 223.009 183.263 222.743 184.569C222.478 184.569 222.212 184.569 221.947 184.569C222.212 181.958 222.212 172.821 222.212 173.343C222.212 166.294 222.478 158.985 222.478 151.936C222.478 142.799 222.212 133.662 219.026 125.047C213.186 109.384 199.115 97.375 180.265 99.4634C155.044 102.335 142.832 120.348 137.256 141.233C131.947 156.113 130.619 173.082 131.947 187.962C125.575 188.746 119.469 189.529 113.363 190.573C111.504 190.834 109.38 191.095 107.256 191.617C109.115 163.423 105.664 138.1 121.062 112.516ZM140.708 143.321C146.283 121.392 172.035 89.8043 199.911 107.817C217.964 119.565 217.433 140.972 217.168 159.507C217.168 164.728 214.513 176.737 216.902 183.785C190.354 182.48 162.743 184.046 136.46 187.179C137.522 172.56 136.991 157.68 140.708 143.321ZM285.929 328.151C285.929 327.629 286.194 327.368 286.194 326.846C286.194 327.368 285.929 327.89 285.929 328.151ZM286.46 326.062C286.46 325.018 284.867 324.496 284.602 325.801C280.088 340.682 270.796 347.208 258.053 350.341C254.071 351.124 249.823 351.907 245.84 352.429C245.31 352.429 245.044 352.429 244.513 352.69C244.248 352.69 243.717 352.69 243.451 352.69C236.548 353.474 229.38 353.996 222.478 354.518C210.531 355.04 198.849 355.04 186.902 354.779C166.194 354.257 144.956 355.04 124.513 351.646C114.159 350.08 105.929 346.686 99.8228 341.465C95.044 337.027 91.5927 331.545 89.2033 325.279C87.8759 321.363 87.0794 317.186 86.5485 312.487C85.221 295.258 84.6901 277.767 84.6901 260.276C85.221 249.05 86.0175 238.086 86.8139 226.86C87.0794 221.9 86.0175 214.851 87.3449 210.152C90.2653 198.405 101.15 197.099 111.504 195.533C141.504 191.095 173.097 189.268 203.363 188.746C220.354 188.484 237.876 188.746 254.336 191.878C262.301 193.445 271.062 195.533 275.84 202.321C281.947 210.674 280.354 224.511 281.15 234.431C282.478 249.833 284.867 265.236 286.194 280.638C287.522 293.952 289.646 311.965 286.46 326.062ZM276.902 249.572C277.433 269.935 279.823 290.036 279.823 310.399C279.823 320.319 278.23 330.239 268.672 336.244C267.61 336.766 266.283 335.461 267.345 334.677C279.557 325.801 275.575 308.572 275.044 296.041C274.513 282.205 274.248 268.107 273.982 254.271C273.717 239.913 279.557 206.498 261.504 199.971C260.708 199.71 260.973 198.666 261.77 198.666C281.416 203.626 276.637 235.997 276.902 249.572ZM270.531 237.041C272.389 264.453 272.124 292.908 268.141 320.058H267.876C269.203 292.386 266.814 264.714 268.407 237.041C268.407 235.736 270.531 235.736 270.531 237.041ZM270.265 227.121C269.734 227.121 269.734 226.599 270.265 226.599C270.531 226.599 270.531 227.121 270.265 227.121ZM119.469 131.574C114.159 148.02 113.097 165.25 112.301 182.219C112.301 182.48 111.77 182.48 111.77 182.219C110.442 150.37 113.894 96.3307 156.902 87.7158C157.964 87.4547 158.495 88.76 157.699 89.2822C138.849 101.03 126.371 110.428 119.469 131.574ZM164.071 85.3663C165.663 84.061 167.522 83.0167 169.38 82.7557C169.911 82.7557 170.177 83.2778 169.646 83.5388C168.053 84.5831 166.194 85.1052 164.602 86.4105C164.336 86.6716 163.54 85.6273 164.071 85.3663ZM146.017 114.344C139.911 119.304 137.522 126.875 134.602 133.401C134.336 134.184 133.009 133.923 133.274 133.14C136.194 126.091 138.318 117.999 145.221 113.3C145.752 112.777 146.548 113.822 146.017 114.344ZM150.796 108.078C150.265 108.339 150 108.6 149.469 108.862C149.203 109.123 148.672 108.862 148.672 108.6C148.407 108.339 148.672 108.078 148.938 107.817C149.469 107.556 150 107.556 150.531 107.295C151.062 107.295 151.327 107.817 150.796 108.078ZM221.947 116.171C225.398 121.653 227.522 127.397 228.584 133.662C229.646 139.666 231.504 145.932 231.77 151.936C231.77 152.719 230.708 152.98 230.177 152.197C227.522 148.02 227.256 143.321 226.46 138.622C225.398 131.052 224.336 123.742 220.619 116.693C220.354 116.171 221.416 115.388 221.947 116.171ZM231.504 163.684C231.77 164.467 232.035 165.25 232.035 165.772C232.035 166.294 231.239 166.556 230.973 166.294C230.442 165.772 230.177 164.728 229.911 164.206C229.646 163.162 231.239 162.901 231.504 163.684ZM96.637 207.542C98.2299 209.369 97.1679 212.241 96.637 214.329C95.8405 218.767 95.044 223.466 95.8405 228.165C96.106 229.21 94.5131 229.471 94.2476 228.688C92.6547 224.772 92.6547 220.856 92.9201 216.679C93.1856 214.329 92.6547 209.369 95.044 207.803C95.8405 207.281 96.3715 207.02 96.637 207.542ZM97.4334 294.213C97.9644 295.78 95.3095 296.563 94.7786 294.996C92.3892 286.643 93.7166 278.289 93.7166 269.935C93.7166 261.842 90.7962 253.488 94.2476 245.656C94.5131 245.134 95.3095 245.395 95.044 245.917C93.1856 254.01 95.3095 261.842 95.575 269.935C95.8405 278.028 94.7786 286.12 97.4334 294.213ZM96.9024 305.178V305.961C96.9024 306.483 96.637 306.744 96.106 306.744C95.575 306.744 95.3095 306.483 95.3095 305.961V305.178C95.3095 304.656 95.8405 304.395 96.106 304.395C96.3715 304.395 96.9024 304.656 96.9024 305.178ZM206.548 85.6273C206.017 85.3663 206.283 84.5831 207.079 84.5831C209.734 85.1052 212.389 85.8884 214.779 87.1937C216.902 88.2379 219.823 89.2821 220.885 91.3706C221.416 92.1538 220.619 92.937 219.823 92.6759C217.433 92.1538 215.575 90.0653 213.717 89.0211C211.062 87.7158 208.672 86.6716 206.548 85.6273ZM216.106 93.198C216.106 93.4591 216.106 93.7201 215.84 93.9812C215.044 94.7644 213.982 93.4591 213.451 93.198C212.124 92.1538 210.531 91.6317 208.938 91.6317C208.141 91.6317 207.876 90.3264 208.672 90.3264C211.327 90.0653 215.31 90.5874 216.106 93.198ZM212.92 95.8086C213.717 96.0697 212.92 97.375 212.124 96.8528C211.062 96.3307 210.265 96.0697 209.203 95.5476C208.407 95.2865 209.203 93.9812 210 94.5033C211.062 95.0254 211.858 95.2865 212.92 95.8086ZM205.221 348.252C195.398 350.341 185.84 348.252 176.017 348.775C166.46 349.036 156.902 351.124 147.61 347.991C146.548 347.73 146.814 346.164 148.141 346.425C157.699 348.252 166.46 346.425 176.017 345.903C185.575 345.381 194.867 347.469 204.425 345.381C206.283 344.859 207.345 347.73 205.221 348.252ZM222.478 346.164C223.009 346.686 223.009 347.469 222.212 347.73C221.416 348.252 220.354 347.991 219.557 347.991C218.23 347.991 217.168 347.991 216.106 348.252C214.513 348.513 213.717 346.425 215.31 345.903C216.637 345.642 217.964 345.381 219.292 345.381C220.354 345.642 221.681 345.381 222.478 346.164ZM174.159 33.1545C175.221 38.1146 177.079 42.2916 184.248 40.7252C187.964 39.942 186.637 33.1545 186.637 30.805C186.371 23.4953 189.557 15.1415 187.699 8.09287C186.371 3.39381 182.92 -2.61054 176.814 0.522168C170.442 3.65487 172.301 11.2256 172.566 16.7078C172.566 20.3626 173.097 24.0175 173.628 27.6723C173.628 29.7607 173.894 31.5882 174.159 33.1545ZM183.186 6.52652C183.451 7.3097 183.982 8.35393 184.248 9.65923C185.044 13.053 184.248 16.4468 183.451 19.8405C183.451 15.4025 182.92 11.2256 183.186 6.52652ZM182.92 29.4997C182.92 31.5882 183.186 33.6766 182.92 35.7651C182.92 33.9377 182.92 32.1103 182.655 30.2829C182.655 30.0218 182.655 29.7607 182.92 29.4997ZM182.389 5.22123C181.858 5.22123 181.593 5.48229 181.327 5.74334C181.327 5.22123 181.327 4.69911 181.327 4.17699C181.593 4.43805 181.858 4.69911 182.389 5.22123ZM180.796 40.2031C180.796 39.942 180.531 39.942 180.531 39.681C180.265 39.1589 180 37.8536 179.469 37.0704C179.469 36.8093 179.203 36.5483 179.203 36.2872C179.734 37.3315 180.265 38.1146 181.062 38.8978C181.062 39.681 181.062 39.942 180.796 40.2031ZM180.265 4.17699V4.43805C179.734 4.17699 179.203 4.43805 179.203 4.96017V5.22123C179.203 5.48228 179.203 5.74334 179.203 6.0044C178.938 5.74334 178.672 5.48228 178.407 5.22123C178.672 4.43805 179.469 4.17699 180.265 4.17699ZM177.079 8.09287C177.345 8.09287 177.61 8.35393 177.876 8.61499C177.345 12.7919 176.548 18.0131 176.814 23.4953C176.283 20.3626 176.017 16.9689 176.283 13.8362C176.017 13.053 176.283 8.09287 177.079 8.09287ZM179.203 26.628C179.203 25.8449 179.469 25.3227 179.469 24.5396C179.469 25.3227 179.469 25.8449 179.203 26.628ZM36.106 170.732C41.4157 169.949 46.1945 168.122 44.3361 161.595C43.5396 158.202 36.106 159.246 33.7166 159.507C25.752 159.768 16.7255 156.896 9.02634 158.724C3.98209 159.768 -2.65508 163.162 0.796252 168.905C4.24758 174.648 12.4777 173.082 18.5839 172.821C22.5662 172.821 26.5485 172.299 30.5308 171.777C32.3892 171.255 34.2476 170.994 36.106 170.732ZM7.16793 162.379C7.96439 162.118 9.29183 161.856 10.6193 161.595C14.0706 160.812 18.0529 161.595 21.7697 162.379C16.9909 162.379 12.2122 162.64 7.16793 162.379ZM32.1237 162.901C34.5131 162.901 36.9024 162.64 39.0263 162.901C37.1679 162.901 35.044 162.901 33.1856 163.162C32.6547 162.901 32.3892 162.901 32.1237 162.901ZM5.57501 163.423C5.57501 163.945 5.8405 164.206 6.10599 164.467C5.57501 164.467 5.04404 164.467 4.51307 164.467C4.77855 163.945 5.30953 163.684 5.57501 163.423ZM43.8051 164.728C43.5396 164.728 43.5396 164.989 43.2741 164.989C42.7432 165.25 41.4157 165.511 40.3538 165.772C40.0883 165.772 39.8228 166.033 39.5573 166.033C40.6193 165.511 41.6812 164.989 42.4777 164.467C43.2741 164.467 43.5396 164.467 43.8051 164.728ZM4.51307 165.25H4.77855C4.51307 165.772 4.77855 166.294 5.30953 166.294H5.57501C5.8405 166.294 6.10599 166.294 6.37147 166.294C6.10599 166.556 5.57501 166.817 5.30953 167.078C4.77855 166.556 4.51307 166.033 4.51307 165.25ZM8.76085 168.122C8.76085 167.861 9.02634 167.6 9.29183 167.339C13.8051 167.861 19.6458 168.383 25.4865 168.383C22.0352 168.905 18.3184 169.166 15.1325 168.905C14.3361 169.166 9.02634 168.905 8.76085 168.122ZM28.9378 166.033C28.1414 166.033 27.3449 165.772 26.5485 165.772C27.3449 166.033 28.1414 166.033 28.9378 166.033ZM323.894 160.029C318.584 160.812 313.805 162.64 315.663 169.166C316.46 172.56 323.894 171.516 326.283 171.255C334.248 170.994 343.274 173.865 350.973 172.038C356.017 170.994 362.655 167.6 359.203 161.856C355.752 156.113 347.522 157.68 341.416 157.941C337.433 157.941 333.451 158.463 329.469 158.985C327.61 159.507 325.752 159.768 323.894 160.029ZM352.832 168.383C352.035 168.644 350.973 169.166 349.38 169.427C345.929 170.21 341.947 169.427 338.23 168.644C343.274 168.644 348.053 168.122 352.832 168.383ZM328.141 167.861C325.752 167.861 323.363 168.122 321.239 167.861C323.097 167.861 325.221 167.861 327.079 167.6C327.345 167.861 327.61 167.861 328.141 167.861ZM354.425 167.6C354.425 167.078 354.159 166.817 353.894 166.556C354.425 166.556 354.956 166.556 355.486 166.556C355.221 166.817 354.956 167.078 354.425 167.6ZM316.46 166.294C316.725 166.294 316.725 166.033 316.991 166.033C317.522 165.772 318.849 165.511 319.911 165.25C320.177 165.25 320.442 164.989 320.708 164.989C319.646 165.511 318.584 166.033 317.787 166.556C316.991 166.294 316.46 166.294 316.46 166.294ZM355.752 165.511H355.486C355.752 164.989 355.486 164.467 354.956 164.467H354.69C354.425 164.467 354.159 164.467 353.894 164.467C354.159 164.206 354.69 163.945 354.956 163.684C355.221 164.206 355.487 164.989 355.752 165.511ZM351.239 162.64C351.239 162.901 350.973 163.162 350.708 163.423C346.194 162.901 340.354 162.379 334.513 162.379C337.964 161.856 341.681 161.595 344.867 161.856C345.929 161.856 351.239 161.856 351.239 162.64ZM74.3361 75.7071C78.8493 78.5787 83.6281 80.4062 87.3449 74.6629C89.4688 71.7912 83.3626 67.8753 81.5042 66.309C75.6635 61.3489 71.4157 53.5171 64.7785 49.6012C60.2653 46.9906 53.0971 45.1632 51.2387 51.4286C49.3803 57.9551 56.283 61.871 60.7963 65.7869C63.7166 68.3974 66.9024 70.747 70.0883 72.8354C71.1502 73.6186 72.7432 74.6629 74.3361 75.7071ZM59.9998 51.1676C60.7963 51.4286 61.8582 51.9507 63.1856 52.7339C66.3715 54.5613 68.4954 57.433 70.6193 60.3046C67.1679 57.1719 63.4511 54.3003 59.9998 51.1676ZM77.2564 67.3532C78.8493 68.6585 80.7078 70.2249 82.3007 71.7912C80.9732 70.4859 79.3803 69.1806 78.0529 68.1364C77.7874 68.1364 77.5219 67.8753 77.2564 67.3532ZM58.4069 50.6454C58.1414 50.9065 57.8759 51.4286 58.1414 51.6897C57.8759 51.4286 57.3449 50.9065 57.0794 50.6454C57.3449 50.6454 57.8759 50.6454 58.4069 50.6454ZM84.1591 76.2292C83.8936 76.2292 83.8936 76.2292 83.6281 76.2292C83.0971 75.9681 81.7697 75.446 80.9732 74.9239C80.7078 74.9239 80.4423 74.6629 80.1768 74.6629C81.2387 74.9239 82.3007 75.185 83.6281 75.446C83.8936 75.9681 84.1591 76.2292 84.1591 76.2292ZM56.0175 51.1676L56.283 51.4286C55.752 51.6897 55.4865 52.2118 55.752 52.4729C55.752 52.4729 55.752 52.4729 56.0175 52.7339C56.283 52.995 56.283 53.256 56.5485 53.256C56.0175 53.256 55.752 53.256 55.221 52.995C55.221 52.4729 55.4865 51.6897 56.0175 51.1676ZM56.8139 56.1277C57.0794 55.8666 57.3449 55.8666 57.8759 55.8666C60.7962 58.9993 64.2476 63.4373 68.4954 67.0922C65.575 65.2647 62.9201 62.9152 60.7963 60.8267C59.9998 60.3046 56.283 56.6498 56.8139 56.1277ZM72.7432 67.8753C72.2122 67.3532 71.9467 66.8311 71.4157 66.309C71.6812 66.57 72.2122 67.0921 72.7432 67.8753ZM277.699 68.1364C274.513 72.3133 272.655 76.4903 279.026 80.1451C282.212 81.9725 286.46 76.4903 288.318 74.6629C293.628 69.1806 302.389 65.5258 306.637 59.2604C309.292 55.0835 311.416 48.557 304.779 46.7296C297.876 44.9022 293.363 51.4286 289.115 55.3445C286.46 57.9551 283.805 60.8267 281.416 63.9594C279.823 65.2647 278.761 66.8311 277.699 68.1364ZM304.513 55.0835C304.248 55.8666 303.717 56.9109 302.92 57.9551C301.062 60.8267 297.61 62.6541 294.69 64.7426C297.876 61.6099 300.796 58.2162 304.513 55.0835ZM286.725 71.008C285.133 72.5744 283.54 74.1407 281.947 75.446C283.274 74.1407 284.602 72.8354 285.929 71.5302C285.929 71.5302 286.46 71.2691 286.725 71.008ZM305.044 53.5171C304.779 53.256 304.248 52.995 303.982 53.256C304.248 52.995 304.779 52.4729 305.044 52.2118C305.044 52.7339 305.044 52.995 305.044 53.5171ZM277.168 77.2734C277.168 77.0124 277.168 77.0124 277.168 76.7513C277.433 76.2292 277.964 75.185 278.495 74.1407C278.495 73.8797 278.761 73.6186 279.026 73.3576C278.761 74.4018 278.495 75.446 278.23 76.4903C277.433 77.0124 277.168 77.2734 277.168 77.2734ZM304.248 51.4286L303.982 51.6897C303.717 51.1676 303.186 50.9065 302.655 51.4286C302.655 51.4286 302.655 51.4286 302.389 51.6897C302.124 51.9507 301.858 51.9507 301.593 52.2118C301.593 51.9507 301.593 51.4286 301.858 51.1676C302.92 50.9065 303.717 50.9065 304.248 51.4286ZM298.938 52.2118C299.203 52.4729 299.203 52.7339 299.203 52.995C295.752 55.6056 290.973 58.9993 286.991 62.6542C289.115 60.0436 291.504 57.433 293.894 55.3445C294.425 55.0835 298.407 51.6897 298.938 52.2118ZM286.194 66.8311C286.725 66.309 287.522 66.0479 288.053 65.5258C287.522 65.7869 286.991 66.309 286.194 66.8311Z" fill="#192C32"/>
<path d="M168.363 221.947C170.358 223.402 171.835 225.177 172.793 227.275C173.322 228.164 173.726 229.095 174.006 230.067C174.343 230.972 174.619 231.913 174.834 232.89C175.099 234.422 175.299 235.959 175.436 237.502C175.63 238.978 175.764 240.49 175.837 242.038C175.934 245.324 176.151 248.507 176.488 251.587C176.825 254.668 177.007 257.823 177.035 261.052L177.018 264.13C177.081 266.3 176.923 268.52 176.544 270.788C176.16 272.994 175.472 275.039 174.479 276.922C173.524 278.491 172.192 279.811 170.484 280.882C168.835 281.885 167.041 282.715 165.104 283.369C163.358 284.008 161.563 284.464 159.721 284.738C157.942 285.006 156.12 285.154 154.256 285.181C152.903 285.166 151.576 285.087 150.276 284.944C149.045 284.858 147.833 284.614 146.639 284.214C145.508 283.808 144.463 283.271 143.503 282.603C142.537 281.874 141.712 280.915 141.027 279.728C139.996 278.257 139.244 276.671 138.772 274.969C138.358 273.201 138.04 271.424 137.818 269.64C137.201 264.842 136.551 260.047 135.87 255.254C135.247 250.395 134.88 245.514 134.768 240.614C134.587 237.831 134.693 235.026 135.086 232.197C135.538 229.302 136.66 226.694 138.45 224.373C139.035 223.704 139.721 223.089 140.508 222.528C142.53 221.37 144.736 220.476 147.127 219.847C149.576 219.151 152.02 218.767 154.46 218.693C156.964 218.614 159.399 218.852 161.765 219.406C164.19 219.893 166.389 220.74 168.363 221.947ZM164.925 255.135L164.532 250.692L163.783 244.414C163.778 244.352 163.659 243.74 163.428 242.578C163.255 241.349 163.09 240.212 162.933 239.169C162.653 237.451 162.002 235.919 160.982 234.572C160.025 233.22 158.782 232.265 157.252 231.705C155.93 231.315 154.612 231.329 153.297 231.746C151.982 232.163 150.846 232.784 149.888 233.607C147.799 235.455 146.485 237.706 145.947 240.36C145.643 242.746 145.542 245.24 145.643 247.842C145.808 250.439 146.07 253.029 146.427 255.61C146.937 257.744 147.357 259.947 147.687 262.22C148.011 264.431 148.583 266.529 149.402 268.514C150.151 269.696 151.162 270.577 152.436 271.158C153.711 271.738 155.057 272.033 156.474 272.042C157.885 271.99 159.275 271.691 160.643 271.145C162.006 270.537 163.12 269.67 163.986 268.543C164.496 267.756 164.859 267.136 165.077 266.683C165.289 266.169 165.402 265.631 165.417 265.071C165.432 264.51 165.374 263.862 165.245 263.127C165.174 262.325 165.145 261.271 165.158 259.964C165.113 258.725 165.05 257.642 164.968 256.717C164.95 255.786 164.935 255.259 164.925 255.135Z" fill="#192C32"/>
<path d="M164.122 228.493C165.536 229.667 166.588 231.093 167.278 232.772C167.657 233.485 167.949 234.229 168.153 235.006C168.397 235.729 168.599 236.481 168.759 237.261C168.957 238.484 169.111 239.71 169.22 240.941C169.369 242.118 169.475 243.324 169.539 244.557C169.635 247.176 169.815 249.714 170.077 252.171C170.339 254.627 170.494 257.143 170.541 259.716L170.554 262.168C170.617 263.897 170.525 265.664 170.278 267.468C170.026 269.223 169.56 270.847 168.879 272.34C168.221 273.582 167.297 274.624 166.107 275.464C164.957 276.251 163.705 276.898 162.35 277.404C161.129 277.899 159.873 278.249 158.581 278.453C157.334 278.653 156.056 278.757 154.747 278.764C153.797 278.742 152.865 278.669 151.951 278.545C151.086 278.466 150.232 278.263 149.39 277.935C148.593 277.603 147.855 277.167 147.175 276.628C146.49 276.039 145.903 275.269 145.412 274.317C144.676 273.138 144.135 271.869 143.789 270.509C143.483 269.097 143.245 267.679 143.074 266.255C142.6 262.428 142.104 258.603 141.585 254.779C141.107 250.903 140.808 247.012 140.689 243.106C140.538 240.888 140.588 238.654 140.841 236.403C141.134 234.1 141.9 232.03 143.137 230.195C143.542 229.667 144.019 229.182 144.567 228.741C145.977 227.834 147.519 227.139 149.192 226.656C150.906 226.121 152.619 225.833 154.332 225.793C156.09 225.75 157.801 225.958 159.468 226.418C161.175 226.824 162.726 227.516 164.122 228.493Z" fill="#DFE7EB"/>
<path d="M171.449 271.211C167.109 278.102 156.944 280.233 150.604 276.226C144.087 272.223 142.338 262.665 147.062 256.069C151.391 249.439 160.904 247.107 167.252 250.941C174.136 254.587 176.046 264.488 171.449 271.211Z" fill="#192C32"/>
<path d="M168.237 267.993C166.325 271.604 160.919 273.614 157.925 270.609C154.272 267.578 156.627 260.784 161.383 259.573C166.143 258.275 170.933 263.535 168.237 267.993Z" fill="#DFE7EB"/>
<path d="M223.042 219.525C225.008 221.127 226.428 223.029 227.302 225.232C227.798 226.173 228.165 227.149 228.401 228.161C228.7 229.107 228.936 230.087 229.106 231.1C229.299 232.685 229.427 234.272 229.488 235.86C229.613 237.384 229.674 238.941 229.67 240.531C229.604 243.904 229.665 247.179 229.854 250.354C230.043 253.53 230.071 256.773 229.937 260.084L229.764 263.238C229.719 265.465 229.446 267.731 228.944 270.034C228.44 272.274 227.634 274.331 226.524 276.205C225.468 277.76 224.04 279.039 222.241 280.041C220.504 280.978 218.628 281.728 216.614 282.29C214.797 282.848 212.94 283.215 211.042 283.393C209.21 283.569 207.34 283.619 205.433 283.543C204.05 283.452 202.698 283.298 201.376 283.078C200.122 282.921 198.895 282.604 197.694 282.127C196.559 281.648 195.518 281.04 194.569 280.302C193.619 279.5 192.824 278.472 192.184 277.217C191.204 275.653 190.515 273.985 190.118 272.215C189.784 270.379 189.548 268.541 189.411 266.7C189.022 261.748 188.599 256.798 188.144 251.848C187.752 246.834 187.623 241.812 187.756 236.783C187.711 233.922 187.96 231.052 188.505 228.175C189.113 225.233 190.391 222.623 192.338 220.344C192.97 219.691 193.702 219.099 194.535 218.568C196.661 217.494 198.961 216.701 201.437 216.19C203.976 215.613 206.494 215.355 208.992 215.416C211.556 215.474 214.033 215.854 216.424 216.553C218.879 217.187 221.085 218.178 223.042 219.525ZM217.854 253.346L217.676 248.771L217.228 242.294C217.225 242.231 217.135 241.597 216.957 240.393C216.842 239.124 216.73 237.95 216.623 236.872C216.422 235.096 215.835 233.489 214.859 232.052C213.95 230.614 212.727 229.565 211.191 228.906C209.859 228.433 208.51 228.373 207.145 228.728C205.78 229.082 204.587 229.655 203.567 230.445C201.337 232.222 199.881 234.456 199.197 237.146C198.766 239.574 198.537 242.125 198.509 244.797C198.548 247.468 198.684 250.136 198.919 252.801C199.333 255.017 199.652 257.298 199.874 259.646C200.095 261.93 200.573 264.112 201.311 266.191C202.016 267.445 203.006 268.404 204.28 269.07C205.553 269.736 206.914 270.113 208.362 270.202C209.808 270.227 211.244 269.998 212.67 269.514C214.094 268.967 215.276 268.141 216.219 267.034C216.779 266.256 217.182 265.641 217.428 265.189C217.67 264.674 217.813 264.129 217.857 263.555C217.9 262.982 217.874 262.315 217.779 261.554C217.747 260.728 217.77 259.646 217.85 258.308C217.866 257.035 217.856 255.922 217.819 254.969C217.847 254.014 217.859 253.473 217.854 253.346Z" fill="#192C32"/>
<path d="M218.384 226.001C219.77 227.283 220.774 228.803 221.395 230.562C221.746 231.313 222.007 232.092 222.177 232.899C222.39 233.655 222.559 234.436 222.682 235.245C222.823 236.509 222.919 237.774 222.968 239.041C223.061 240.256 223.109 241.497 223.113 242.766C223.079 245.455 223.134 248.066 223.279 250.598C223.423 253.13 223.454 255.716 223.373 258.356L223.263 260.87C223.24 262.646 223.057 264.451 222.713 266.287C222.368 268.071 221.81 269.709 221.038 271.201C220.303 272.438 219.306 273.453 218.047 274.248C216.832 274.99 215.519 275.583 214.108 276.027C212.835 276.467 211.533 276.755 210.203 276.892C208.918 277.028 207.606 277.063 206.268 276.997C205.297 276.921 204.348 276.795 203.42 276.616C202.539 276.488 201.677 276.232 200.833 275.849C200.035 275.464 199.302 274.976 198.634 274.386C197.964 273.744 197.402 272.922 196.949 271.92C196.255 270.67 195.766 269.339 195.481 267.926C195.239 266.462 195.067 264.995 194.964 263.527C194.673 259.578 194.358 255.63 194.02 251.683C193.727 247.684 193.617 243.679 193.692 239.67C193.649 237.389 193.814 235.102 194.186 232.809C194.601 230.465 195.488 228.387 196.846 226.575C197.286 226.056 197.798 225.586 198.381 225.165C199.868 224.314 201.479 223.687 203.214 223.286C204.993 222.833 206.759 222.633 208.512 222.688C210.311 222.742 212.05 223.05 213.731 223.614C215.455 224.126 217.006 224.922 218.384 226.001Z" fill="#DFE7EB"/>
<path d="M196.863 274.52C190.393 269.911 189.234 260.028 193.844 254.21C198.466 248.223 208.183 247.169 214.322 252.126C220.533 256.708 221.954 265.98 217.517 271.816C213.217 278.178 203.142 279.365 196.863 274.52Z" fill="#192C32"/>
<path d="M200.439 271.601C197.013 269.532 195.523 264.218 198.814 261.542C202.194 258.237 208.758 260.938 209.511 265.578C210.351 270.226 204.635 274.476 200.439 271.601Z" fill="#DFE7EB"/>
<path d="M207.399 195.334C207.86 195.21 208.258 195.109 208.592 195.032L212.603 194.115C213.271 193.962 213.908 193.821 214.513 193.692C215.181 193.539 215.85 193.386 216.518 193.233C216.476 193.502 216.606 194.033 216.91 194.826C217.26 195.552 217.648 196.565 218.074 197.868C217.981 198.004 217.6 198.149 216.931 198.302C216.246 198.411 215.394 198.558 214.374 198.743C213.418 198.904 212.407 199.112 211.341 199.365C210.258 199.575 209.255 199.804 208.333 200.053L209.142 203.305C209.176 203.394 209.169 203.472 209.123 203.54C209.059 203.564 208.932 203.612 208.742 203.685C208.551 203.757 208.107 203.926 207.409 204.191C206.694 204.412 205.638 204.788 204.242 205.318C202.765 205.829 200.709 206.534 198.073 207.434L197.978 207.47L197.953 207.404C197.006 206.451 196.415 205.287 196.18 203.913C195.864 202.518 195.474 201.025 195.011 199.434L194.986 199.368L206.035 195.474L206.086 195.606C206.149 195.582 206.221 195.58 206.301 195.6C206.301 195.6 206.333 195.588 206.397 195.564C206.65 195.467 206.985 195.391 207.399 195.334Z" fill="#192C32"/>
<path d="M149.418 204.026C148.93 204.072 148.511 204.118 148.162 204.165L143.974 204.721C143.276 204.814 142.613 204.907 141.985 205C141.287 205.093 140.589 205.186 139.891 205.279C140.032 205.516 140.104 206.062 140.108 206.916C140.042 207.723 140.047 208.814 140.122 210.19C140.263 210.286 140.682 210.287 141.38 210.194C142.077 210.054 142.949 209.89 143.996 209.704C144.973 209.517 146.02 209.354 147.137 209.215C148.253 209.028 149.3 208.889 150.277 208.797L150.711 212.144C150.711 212.239 150.747 212.31 150.817 212.357C150.887 212.358 151.026 212.358 151.236 212.359C151.445 212.359 151.934 212.361 152.702 212.363C153.47 212.318 154.622 212.298 156.159 212.302C157.765 212.26 159.999 212.195 162.862 212.109L162.967 212.109L162.967 212.038C163.52 210.806 163.654 209.501 163.368 208.125C163.153 206.7 162.971 205.158 162.824 203.497L162.824 203.425L150.779 203.674L150.779 203.816C150.709 203.816 150.64 203.84 150.57 203.887C150.57 203.887 150.535 203.887 150.465 203.887C150.186 203.886 149.837 203.932 149.418 204.026Z" fill="#192C32"/>
<path d="M172.553 308.048C172.289 307.971 172.012 308.121 171.934 308.384C171.855 308.647 172.004 308.924 172.268 309.005C172.723 309.144 173.207 309.282 173.718 309.419C189.771 313.907 200.6 313.667 207.627 311.472C214.658 309.276 217.899 305.111 218.665 301.795C218.714 301.583 218.619 301.364 218.431 301.253C218.243 301.142 218.005 301.165 217.843 301.31C211.318 307.126 202.886 309.592 194.793 310.26C186.703 310.928 178.998 309.795 173.981 308.456C173.51 308.324 173.034 308.188 172.553 308.048Z" fill="#192C32" stroke="#192C32" stroke-linecap="round" stroke-linejoin="round"/>
</g>
<defs>
<clipPath id="clip0_3237_16196">
<rect width="360" height="360" fill="white"/>
</clipPath>
</defs>
</svg>
