<svg viewBox="0 0 24 24" fill="none" xmlns="http://www.w3.org/2000/svg">
	<path
		d="M18.0283 6.19784C16.0997 4.65705 13.6835 4.88554 11.9948 6.23543C10.304 4.88588 7.86257 4.63691 5.95294 6.20528C3.83723 7.94292 3.51782 10.8967 5.2045 12.983C5.82623 13.752 7.02942 14.8965 8.17324 15.9343C9.33436 16.9878 10.4924 17.9829 11.0633 18.4689C11.0671 18.4721 11.071 18.4754 11.075 18.4788C11.1275 18.5236 11.1996 18.585 11.2696 18.6357C11.3558 18.6981 11.4833 18.7783 11.654 18.8272C11.8762 18.8909 12.1142 18.8909 12.3365 18.8272C12.5071 18.7782 12.6346 18.6981 12.7208 18.6357C12.7908 18.585 12.8629 18.5236 12.9154 18.4788C12.9195 18.4754 12.9233 18.4721 12.9271 18.4689C13.498 17.9829 14.6561 16.9878 15.8172 15.9343C16.961 14.8965 18.1642 13.752 18.7859 12.983C20.4644 10.9068 20.1955 7.92931 18.0283 6.19784Z"
		stroke="#192C32" stroke-width="1.75" stroke-linecap="round" stroke-linejoin="round"/>
</svg>
