<svg width="213" height="212" viewBox="0 0 213 212" fill="none" xmlns="http://www.w3.org/2000/svg">
<path d="M61.6702 79.1771C59.2786 79.5663 56.1286 79.7609 52.2203 79.7609C50.237 79.7609 48.4287 79.8165 46.7954 79.9277C46.4454 77.5368 46.1829 73.3109 46.0079 67.2502C45.8912 62.5795 45.6287 58.993 45.2204 56.4909L41.8954 56.3241C40.1454 56.3241 38.8038 56.4353 37.8705 56.6577C37.6955 58.2702 37.608 59.7993 37.608 61.245C37.608 63.7471 37.6371 65.6099 37.6955 66.8331V69.0017L37.783 71.1702C37.783 74.5064 37.6371 77.0364 37.3455 78.7601C36.0038 79.4829 34.3705 79.8443 32.4455 79.8443C31.5122 79.8443 30.3456 79.7887 28.9456 79.6775L28.1581 79.5941C27.1081 79.4829 26.4081 79.4273 26.0581 79.4273L23.2581 79.5941C22.8498 74.5898 22.4415 67.0555 22.0331 56.9913C21.6248 46.9271 21.4207 37.9749 21.4207 30.1348C21.4207 25.6866 21.4498 22.5728 21.5082 20.7935L31.3955 20.6267C32.9122 20.6267 34.283 20.8213 35.508 21.2105C35.7997 23.6014 36.0038 26.3538 36.1205 29.4676L36.208 31.4693C36.3247 33.9159 36.4705 35.9732 36.6455 37.6413C36.8205 39.2538 37.1121 41.0331 37.5205 42.9792L40.8454 43.3129C41.4288 43.3129 41.9829 43.2573 42.5079 43.1461C43.0912 43.0348 43.6454 42.9514 44.1704 42.8958H44.3454C44.7537 38.67 44.9579 34.5831 44.9579 30.6353C44.9579 27.7439 44.8704 24.6301 44.6954 21.2939C46.037 20.9047 47.6704 20.5989 49.5953 20.3764C51.5203 20.154 53.387 20.0428 55.1953 20.0428C56.7703 20.0428 58.1411 20.0984 59.3077 20.2096L61.6702 79.1771Z" fill="#DFE7EB"/>
<path d="M103.934 35.2226C104.109 36.9463 104.197 38.6978 104.197 40.4771L104.109 41.9784V43.4797C103.993 45.3146 103.934 48.0114 103.934 51.57C103.934 55.5178 103.847 58.5204 103.672 60.5777L103.409 63.3301C103.118 67.834 101.922 71.6706 99.8218 74.84C98.9468 76.0077 97.6343 77.0364 95.8843 77.926C94.1344 78.8157 92.2094 79.5385 90.1094 80.0946C87.9511 80.7062 85.4136 81.012 82.497 81.012C81.1554 81.012 80.222 80.9842 79.697 80.9286C76.8387 80.7062 74.2721 80.1224 71.9971 79.1771C69.7805 78.1762 68.1472 76.7305 67.0972 74.84C65.6972 72.3379 64.9389 69.1963 64.8222 65.4152L64.6472 62.7463C64.5889 62.3015 64.5597 61.384 64.5597 59.9939C64.268 55.4344 64.1222 51.0696 64.1222 46.8993C64.1222 44.3415 64.2097 41.7838 64.3847 39.226C64.5597 36.4458 65.0555 33.7491 65.8722 31.1357C66.7472 28.4667 68.0597 26.1314 69.8097 24.1297L71.7346 23.1288C75.4679 21.4051 79.5512 20.5433 83.9845 20.5433C86.7845 20.5433 89.4094 20.9047 91.8594 21.6275C94.3677 22.2948 96.5552 23.2956 98.4218 24.6301C100.463 26.4094 101.805 28.1609 102.447 29.8846C103.147 31.6639 103.643 33.4433 103.934 35.2226ZM90.3719 44.3137L90.0219 39.9767C89.9052 38.4198 89.4969 37.0575 88.7969 35.8898C88.1553 34.6665 87.3095 33.8047 86.2595 33.3042C85.7928 33.1374 85.3261 33.054 84.8595 33.054C83.4595 33.054 82.0887 33.4989 80.747 34.3885C80.047 34.9445 79.347 35.7508 78.647 36.8073C78.0054 37.8081 77.5096 38.8368 77.1596 39.8933C76.5762 42.3398 76.2846 45.4536 76.2846 49.2346C76.2846 51.1252 76.3137 52.543 76.3721 53.4883V53.4049C76.6054 54.517 76.7804 55.9905 76.8971 57.8254L76.9846 58.993C77.2179 61.7732 77.5387 63.8305 77.9471 65.165V65.0816C78.472 66.1937 79.2304 67.0555 80.222 67.6672C81.272 68.2232 82.3803 68.5012 83.547 68.5012C84.4803 68.5012 85.4136 68.3066 86.347 67.9174C87.3386 67.4726 88.1844 66.8609 88.8844 66.0825C89.4678 65.3596 89.8178 64.748 89.9344 64.2476C90.1094 63.7471 90.1969 62.9687 90.1969 61.9122C90.1969 60.967 90.2261 60.2719 90.2844 59.8271L90.3719 58.7428L90.4594 57.1581V55.9905L90.5469 54.4058V50.4023L90.3719 44.7308V44.3137Z" fill="#DFE7EB"/>
<path d="M148.944 38.5588C148.944 39.6152 148.914 40.3659 148.856 40.8107C148.448 43.9801 147.164 46.8993 145.006 49.5683C142.848 52.2372 140.165 54.3502 136.956 55.9071C133.748 57.4083 130.365 58.159 126.806 58.159C126.631 58.159 126.398 58.1868 126.106 58.2424C125.815 58.2424 125.465 58.2146 125.056 58.159C125.115 58.8262 125.115 59.4935 125.056 60.1607C125.056 60.828 125.056 61.4396 125.056 61.9956V78.9269L124.094 79.0103C122.519 79.4551 119.777 79.6775 115.869 79.6775C112.952 79.6775 110.269 79.5385 107.819 79.2605C107.586 73.867 107.469 64.4978 107.469 51.153V41.0609C107.469 31.9976 107.382 25.4086 107.207 21.2939C111.698 20.0706 116.394 19.459 121.294 19.459C128.819 19.459 135.206 20.9881 140.456 24.0463C145.764 27.0489 148.594 31.8586 148.944 38.4754V38.5588ZM131.619 34.8055C130.685 34.0271 129.665 33.5267 128.556 33.3042C127.448 33.0818 126.311 32.9706 125.144 32.9706C124.036 32.915 123.19 32.8872 122.606 32.8872C122.665 33.7769 122.694 35.2782 122.694 37.3911V38.1417C122.694 39.8098 122.723 41.1999 122.781 42.312C122.898 43.3685 123.102 44.3137 123.394 45.1478H124.619C125.027 45.1478 125.873 45.1478 127.156 45.1478C128.498 45.1478 129.635 44.981 130.569 44.6474C131.56 44.3137 132.319 43.7577 132.844 42.9792C133.427 42.034 133.719 40.9497 133.719 39.7264C133.719 38.2252 133.252 36.8351 132.319 35.5562L131.619 34.8055Z" fill="#DFE7EB"/>
<path fill-rule="evenodd" clip-rule="evenodd" d="M68.2438 85.6663L62.8901 86.5375C59.9276 87.0197 56.3223 87.22 52.2205 87.22C50.3748 87.22 48.7418 87.2718 47.3115 87.3692L40.3487 87.8433L40.0436 85.7594C37.5997 86.8775 34.9915 87.3034 32.4457 87.3034C31.2389 87.3034 29.8555 87.2327 28.3444 87.1127L28.245 87.1048L27.3584 87.0109C26.8702 86.9592 26.5042 86.9248 26.2444 86.9042C26.2014 86.9008 26.1635 86.8979 26.1303 86.8955L16.3503 87.4782L15.756 80.1953C15.3349 75.0347 14.9218 67.3772 14.5126 57.291C14.1013 47.1534 13.894 38.0982 13.894 30.1349C13.894 25.6899 13.9228 22.4656 13.9855 20.5513L14.2181 13.4564L31.3317 13.1677H31.3957C33.5566 13.1677 35.7193 13.4446 37.8062 14.1077L40.1306 14.8462L42.5809 14.1354C44.4506 13.5929 46.5262 13.2216 48.7239 12.9676C50.9177 12.7142 53.076 12.5838 55.1955 12.5838C56.9352 12.5838 58.5572 12.6447 60.0286 12.7849L66.5681 13.4083L66.7245 17.3106L68.3951 16.442L68.5561 16.3676C73.3594 14.1499 78.5385 13.0843 83.9847 13.0843C87.408 13.0843 90.7291 13.5225 93.9094 14.4499C95.8549 14.974 97.7168 15.6704 99.4718 16.5563L99.4343 15.6752L105.212 14.1016C110.387 12.6924 115.755 12 121.294 12C129.829 12 137.589 13.7352 144.23 17.5922C151.973 21.9902 155.992 29.2322 156.46 38.0849L156.471 38.28V38.5588C156.471 39.6208 156.448 40.7957 156.321 41.7637C155.724 46.3878 153.839 50.5734 150.88 54.2328C148.004 57.789 144.434 60.5836 140.267 62.606L140.219 62.6293L140.17 62.6519C137.725 63.7961 135.191 64.6107 132.583 65.0932V85.7621L125.346 86.3893C122.749 86.9788 119.398 87.1366 115.869 87.1366C112.716 87.1366 109.743 86.9866 106.963 86.6711L100.575 85.9462L100.488 83.9288C100.102 84.1522 99.7125 84.3632 99.3201 84.5627C97.0657 85.7088 94.6543 86.6077 92.1135 87.2846C89.1341 88.1207 85.892 88.471 82.4972 88.471C81.227 88.471 79.9774 88.4502 79.0199 88.3578C75.5217 88.0777 72.1836 87.3426 69.0869 86.056L68.9811 86.012L68.8766 85.9648C68.6635 85.8686 68.4526 85.7691 68.2438 85.6663ZM69.1303 77.3603C69.9426 78.0753 70.8982 78.6809 71.9973 79.1771C74.2723 80.1224 76.8389 80.7062 79.6972 80.9286C80.2222 80.9842 81.1555 81.012 82.4972 81.012C85.4138 81.012 87.9513 80.7062 90.1096 80.0946C92.2096 79.5385 94.1346 78.8157 95.8845 77.926C97.6345 77.0364 98.947 76.0077 99.822 74.8401C99.9285 74.6793 100.033 74.5167 100.135 74.3525C102.041 71.2796 103.133 67.6055 103.409 63.3301L103.672 60.5778C103.847 58.5204 103.934 55.5178 103.934 51.57C103.934 51.4297 103.935 51.2906 103.935 51.153C103.939 47.8 103.997 45.2422 104.109 43.4797V41.9784L104.197 40.4771C104.197 38.6978 104.109 36.9463 103.934 35.2226C103.643 33.4433 103.147 31.664 102.447 29.8846C101.965 28.5907 101.089 27.281 99.8184 25.9557C99.3965 25.5156 98.931 25.0737 98.422 24.6301C96.5554 23.2956 94.3679 22.2948 91.8596 21.6275C89.4096 20.9047 86.7846 20.5433 83.9847 20.5433C79.5514 20.5433 75.4681 21.4051 71.7348 23.1288L69.8098 24.1297C68.7705 25.3186 67.8854 26.6251 67.1547 28.0494C66.6551 29.0232 66.2277 30.0519 65.8724 31.1357C65.0557 33.7491 64.5599 36.4459 64.3849 39.226C64.2099 41.7838 64.1224 44.3416 64.1224 46.8993C64.1224 51.0696 64.2682 55.4344 64.5599 59.9939C64.5599 61.384 64.5891 62.3015 64.6474 62.7463L64.8224 65.4153C64.9391 69.1963 65.6974 72.3379 67.0974 74.8401C67.6267 75.7932 68.3044 76.6333 69.1303 77.3603ZM59.3079 20.2096C58.1413 20.0984 56.7704 20.0428 55.1955 20.0428C53.3871 20.0428 51.5205 20.154 49.5955 20.3765C47.6705 20.5989 46.0372 20.9047 44.6956 21.2939C44.8706 24.6301 44.9581 27.7439 44.9581 30.6353C44.9581 33.6668 44.8377 36.7803 44.5969 39.9758C44.5576 40.4975 44.5151 41.0214 44.4694 41.5475C44.4304 41.9953 44.3892 42.4448 44.3456 42.8959H44.1706C43.6456 42.9515 43.0914 43.0349 42.5081 43.1461C41.9831 43.2573 41.4289 43.3129 40.8456 43.3129L37.5207 42.9793C37.4679 42.728 37.4172 42.4795 37.3683 42.2338C37.2382 41.5789 37.1219 40.9438 37.0193 40.3285C36.8624 39.3865 36.7379 38.4908 36.6457 37.6413C36.4707 35.9732 36.3248 33.9159 36.2082 31.4693L36.1207 29.4676C36.004 26.3538 35.7998 23.6015 35.5082 21.2105C34.2832 20.8213 32.9124 20.6267 31.3957 20.6267L21.5083 20.7935C21.45 22.5728 21.4208 25.6866 21.4208 30.1349C21.4208 37.975 21.625 46.9271 22.0333 56.9913C22.4417 67.0556 22.85 74.5898 23.2583 79.5941L26.0583 79.4273C26.4083 79.4273 27.1083 79.4829 28.1583 79.5941L28.9458 79.6776C30.3457 79.7888 31.5124 79.8444 32.4457 79.8444C34.3707 79.8444 36.004 79.4829 37.3457 78.7601C37.6373 77.0364 37.7832 74.5064 37.7832 71.1702L37.6957 69.0017V66.8332C37.6373 65.6099 37.6082 63.7472 37.6082 61.245C37.6082 59.7993 37.6957 58.2702 37.8707 56.6577C38.804 56.4353 40.1456 56.3241 41.8956 56.3241L45.2206 56.4909C45.6289 58.9931 45.8914 62.5795 46.0081 67.2502C46.1831 73.311 46.4456 77.5368 46.7956 79.9278C48.4289 79.8166 50.2372 79.761 52.2205 79.761C55.7752 79.761 58.7026 79.6 61.0026 79.278C61.2314 79.246 61.454 79.2123 61.6704 79.1771L59.3079 20.2096ZM88.7971 35.8898C88.1555 34.6665 87.3096 33.8047 86.2597 33.3043C85.793 33.1375 85.3263 33.054 84.8597 33.054C83.4597 33.054 82.0889 33.4989 80.7472 34.3885C80.0472 34.9446 79.3472 35.7508 78.6472 36.8073C78.0056 37.8081 77.5098 38.8368 77.1598 39.8933C76.5764 42.3398 76.2848 45.4536 76.2848 49.2347C76.2848 50.6265 76.3006 51.7622 76.3322 52.6417C76.3423 52.9222 76.354 53.1766 76.3673 53.4049C76.3673 53.4053 76.3672 53.4046 76.3673 53.4049C76.3689 53.4328 76.3706 53.4612 76.3723 53.4883V53.4049C76.378 53.4322 76.3837 53.4596 76.3893 53.4873C76.3894 53.4876 76.3892 53.4869 76.3893 53.4873C76.4044 53.5611 76.4194 53.6374 76.4339 53.7143C76.6367 54.7855 76.7911 56.1558 76.8973 57.8254L76.9848 58.9931C77.1369 60.8061 77.3263 62.3118 77.5529 63.51C77.6666 64.1113 77.7897 64.6352 77.9221 65.0816C77.9231 65.0851 77.9241 65.0885 77.9252 65.0919C77.9325 65.1165 77.9399 65.1409 77.9472 65.165V65.0816C77.9588 65.1061 77.9704 65.1304 77.9822 65.1546C77.9839 65.1581 77.9856 65.1615 77.9873 65.165C78.1651 65.5293 78.3686 65.8661 78.5976 66.1755C79.0425 66.7764 79.5841 67.2736 80.2222 67.6672C81.2722 68.2232 82.3805 68.5013 83.5472 68.5013C84.4805 68.5013 85.4138 68.3066 86.3471 67.9174C87.3388 67.4726 88.1846 66.8609 88.8846 66.0825C89.4679 65.3597 89.8179 64.748 89.9346 64.2476C90.1096 63.7472 90.1971 62.9687 90.1971 61.9122C90.1971 60.967 90.2263 60.2719 90.2846 59.8271L90.3721 58.7428L90.4596 57.1581V55.9905L90.5471 54.4058V50.4023L90.3721 44.7308V44.3137L90.0221 39.9767C89.9054 38.4198 89.4971 37.0575 88.7971 35.8898ZM107.384 27.9772C107.385 28.0111 107.385 28.0451 107.386 28.0792C107.416 30.0316 107.439 32.224 107.452 34.6563C107.453 34.7279 107.453 34.7997 107.454 34.8717C107.463 36.6179 107.468 38.4864 107.469 40.4771C107.469 40.5394 107.469 40.6019 107.469 40.6644C107.469 40.7961 107.469 40.9282 107.469 41.0609V51.153C107.469 51.2924 107.469 51.4314 107.469 51.57C107.47 54.935 107.478 58.044 107.494 60.897C107.494 60.9099 107.494 60.9228 107.494 60.9357C107.499 61.847 107.505 62.7321 107.511 63.591C107.512 63.6322 107.512 63.6733 107.512 63.7144C107.552 68.7894 107.618 72.9459 107.711 76.1842C107.744 77.3233 107.78 78.3487 107.819 79.2605C110.269 79.5385 112.953 79.6776 115.869 79.6776C119.777 79.6776 122.519 79.4551 124.094 79.0103L125.057 78.9269V60.1607C125.115 59.4935 125.115 58.8263 125.057 58.159C125.465 58.2146 125.815 58.2424 126.107 58.2424C126.398 58.1868 126.632 58.159 126.807 58.159C128.671 58.159 130.487 57.953 132.255 57.541C133.862 57.1665 135.429 56.6219 136.956 55.9071C140.165 54.3502 142.848 52.2372 145.006 49.5683C147.165 46.8993 148.448 43.9801 148.856 40.8107C148.915 40.3659 148.944 39.6153 148.944 38.5588V38.4754C148.594 31.8586 145.765 27.0489 140.456 24.0463C135.206 20.9881 128.819 19.459 121.294 19.459C116.394 19.459 111.698 20.0706 107.207 21.2939C107.232 21.879 107.255 22.5142 107.276 23.1994C107.319 24.5869 107.355 26.1794 107.384 27.9772ZM122.714 40.3467C122.701 39.6755 122.694 38.9405 122.694 38.1418V37.3911C122.694 35.2782 122.665 33.7769 122.607 32.8872C123.19 32.8872 124.036 32.915 125.144 32.9706C126.311 32.9706 127.448 33.0818 128.557 33.3043C129.121 33.4175 129.663 33.6029 130.182 33.8603C130.682 34.1084 131.161 34.4235 131.619 34.8056L132.319 35.5562C133.252 36.8351 133.719 38.2252 133.719 39.7265C133.719 40.9497 133.427 42.034 132.844 42.9793C132.319 43.7577 131.561 44.3137 130.569 44.6474C129.636 44.981 128.498 45.1478 127.157 45.1478H123.394C123.102 44.3137 122.898 43.3685 122.782 42.312C122.751 41.7324 122.729 41.0773 122.714 40.3467Z" fill="#192C32"/>
<path d="M90.8367 134.781C88.4451 135.17 85.2951 135.364 81.3868 135.364C79.4035 135.364 77.5952 135.42 75.9619 135.531C75.6119 133.14 75.3494 128.914 75.1744 122.854C75.0577 118.183 74.7952 114.597 74.3869 112.094L71.0619 111.928C69.3119 111.928 67.9703 112.039 67.037 112.261C66.862 113.874 66.7745 115.403 66.7745 116.849C66.7745 119.351 66.8036 121.213 66.862 122.437V124.605L66.9495 126.774C66.9495 130.11 66.8036 132.64 66.512 134.364C65.1703 135.086 63.537 135.448 61.612 135.448C60.6787 135.448 59.5121 135.392 58.1121 135.281L57.3246 135.198C56.2746 135.086 55.5746 135.031 55.2246 135.031L52.4246 135.198C52.0163 130.193 51.608 122.659 51.1997 112.595C50.7913 102.531 50.5872 93.5785 50.5872 85.7384C50.5872 81.2901 50.6163 78.1763 50.6747 76.397L60.562 76.2302C62.0787 76.2302 63.4495 76.4248 64.6745 76.814C64.9662 79.205 65.1703 81.9573 65.287 85.0711L65.3745 87.0728C65.4912 89.5194 65.637 91.5767 65.812 93.2448C65.987 94.8573 66.2786 96.6366 66.687 98.5828L70.0119 98.9164C70.5953 98.9164 71.1494 98.8608 71.6744 98.7496C72.2577 98.6384 72.8119 98.555 73.3369 98.4994H73.5119C73.9202 94.2735 74.1244 90.1866 74.1244 86.2388C74.1244 83.3474 74.0369 80.2336 73.8619 76.8974C75.2035 76.5082 76.8369 76.2024 78.7618 75.98C80.6868 75.7575 82.5535 75.6463 84.3618 75.6463C85.9368 75.6463 87.3076 75.7019 88.4742 75.8131L90.8367 134.781Z" fill="#DFE7EB"/>
<path d="M133.101 90.8261C133.276 92.5498 133.363 94.3013 133.363 96.0806L133.276 97.5819V99.0832C133.159 100.918 133.101 103.615 133.101 107.173C133.101 111.121 133.013 114.124 132.838 116.181L132.576 118.934C132.284 123.438 131.088 127.274 128.988 130.444C128.113 131.611 126.801 132.64 125.051 133.53C123.301 134.419 121.376 135.142 119.276 135.698C117.118 136.31 114.58 136.616 111.664 136.616C110.322 136.616 109.389 136.588 108.864 136.532C106.005 136.31 103.439 135.726 101.164 134.781C98.947 133.78 97.3137 132.334 96.2637 130.444C94.8637 127.941 94.1054 124.8 93.9887 121.019L93.8137 118.35C93.7554 117.905 93.7262 116.988 93.7262 115.597C93.4345 111.038 93.2887 106.673 93.2887 102.503C93.2887 99.945 93.3762 97.3873 93.5512 94.8295C93.7262 92.0494 94.222 89.3526 95.0387 86.7392C95.9137 84.0703 97.2262 81.7349 98.9762 79.7332L100.901 78.7323C104.634 77.0086 108.718 76.1468 113.151 76.1468C115.951 76.1468 118.576 76.5082 121.026 77.231C123.534 77.8983 125.722 78.8991 127.588 80.2336C129.63 82.0129 130.972 83.7644 131.613 85.4881C132.313 87.2675 132.809 89.0468 133.101 90.8261ZM119.538 99.9172L119.188 95.5802C119.072 94.0233 118.663 92.661 117.963 91.4933C117.322 90.27 116.476 89.4082 115.426 88.9078C114.959 88.7409 114.493 88.6575 114.026 88.6575C112.626 88.6575 111.255 89.1024 109.914 89.992C109.214 90.5481 108.514 91.3543 107.814 92.4108C107.172 93.4116 106.676 94.4403 106.326 95.4968C105.743 97.9433 105.451 101.057 105.451 104.838C105.451 106.729 105.48 108.147 105.539 109.092V109.008C105.772 110.12 105.947 111.594 106.064 113.429L106.151 114.597C106.384 117.377 106.705 119.434 107.114 120.769V120.685C107.639 121.797 108.397 122.659 109.389 123.271C110.439 123.827 111.547 124.105 112.713 124.105C113.647 124.105 114.58 123.91 115.513 123.521C116.505 123.076 117.351 122.464 118.051 121.686C118.634 120.963 118.984 120.352 119.101 119.851C119.276 119.351 119.363 118.572 119.363 117.516C119.363 116.57 119.393 115.875 119.451 115.431L119.538 114.346L119.626 112.762V111.594L119.713 110.009V106.006L119.538 100.334V99.9172Z" fill="#DFE7EB"/>
<path d="M178.11 94.1623C178.11 95.2188 178.081 95.9694 178.023 96.4142C177.614 99.5836 176.331 102.503 174.173 105.172C172.014 107.841 169.331 109.954 166.123 111.511C162.914 113.012 159.531 113.763 155.973 113.763C155.798 113.763 155.565 113.79 155.273 113.846C154.981 113.846 154.631 113.818 154.223 113.763C154.281 114.43 154.281 115.097 154.223 115.764C154.223 116.431 154.223 117.043 154.223 117.599V134.53L153.26 134.614C151.685 135.059 148.944 135.281 145.035 135.281C142.119 135.281 139.436 135.142 136.986 134.864C136.752 129.47 136.636 120.101 136.636 106.756V96.6644C136.636 87.6011 136.548 81.0121 136.373 76.8974C140.865 75.6741 145.56 75.0625 150.46 75.0625C157.985 75.0625 164.373 76.5916 169.623 79.6498C174.931 82.6524 177.76 87.4621 178.11 94.0789V94.1623ZM160.785 90.4091C159.852 89.6306 158.831 89.1302 157.723 88.9078C156.615 88.6853 155.477 88.5741 154.31 88.5741C153.202 88.5185 152.356 88.4907 151.773 88.4907C151.831 89.3804 151.86 90.8817 151.86 92.9946V93.7453C151.86 95.4134 151.89 96.8035 151.948 97.9155C152.065 98.972 152.269 99.9172 152.56 100.751H153.785C154.194 100.751 155.04 100.751 156.323 100.751C157.665 100.751 158.802 100.584 159.735 100.251C160.727 99.9172 161.485 99.3612 162.01 98.5828C162.594 97.6375 162.885 96.5532 162.885 95.33C162.885 93.8287 162.419 92.4386 161.485 91.1597L160.785 90.4091Z" fill="#DFE7EB"/>
<path fill-rule="evenodd" clip-rule="evenodd" d="M97.3725 141.601L92.0944 142.46C89.1138 142.945 85.4943 143.145 81.3865 143.145C79.5451 143.145 77.9175 143.197 76.4936 143.294L69.2803 143.785L68.9905 141.805C66.6 142.835 64.0721 143.229 61.6117 143.229C60.3963 143.229 59.0062 143.158 57.4915 143.037L57.389 143.029L56.4993 142.935C56.0123 142.883 55.6485 142.849 55.3915 142.829C55.3557 142.826 55.3235 142.823 55.2947 142.821L45.2626 143.419L44.6432 135.828C44.2215 130.66 43.8082 122.996 43.3989 112.909C42.9874 102.768 42.78 93.7076 42.78 85.7382C42.78 81.2933 42.8087 78.0637 42.8717 76.1427L43.1143 68.7422L60.4956 68.4489H60.5617C62.7425 68.4489 64.9303 68.7283 67.0453 69.4004L69.2997 70.1167L71.6798 69.4262C73.5667 68.8788 75.6564 68.5054 77.8625 68.2505C80.0649 67.996 82.2322 67.8651 84.3614 67.8651C86.1063 67.8651 87.7361 67.9261 89.2171 68.0672L96.0025 68.714L96.1512 72.4255L97.4528 71.7487L97.6194 71.6718C102.459 69.4373 107.673 68.3655 113.151 68.3655C116.593 68.3655 119.937 68.8061 123.14 69.7402C124.948 70.2273 126.687 70.8628 128.336 71.6606L128.309 71.027L134.315 69.3913C139.511 67.9761 144.901 67.2812 150.46 67.2812C159.025 67.2812 166.83 69.0224 173.52 72.9073C181.351 77.3561 185.431 84.7002 185.906 93.669L185.917 93.8737V94.1621C185.917 95.2245 185.894 96.4202 185.764 97.4138C185.158 102.11 183.243 106.353 180.251 110.054C177.345 113.648 173.74 116.468 169.54 118.506L169.49 118.53L169.44 118.554C167.049 119.673 164.574 120.479 162.029 120.97V141.664L154.548 142.312C151.924 142.906 148.556 143.062 145.035 143.062C141.875 143.062 138.892 142.912 136.102 142.595L129.473 141.843L129.395 140.037C129.131 140.184 128.865 140.325 128.598 140.461C126.326 141.616 123.898 142.521 121.343 143.201C118.337 144.045 115.073 144.396 111.663 144.396C110.394 144.396 109.135 144.376 108.165 144.282C104.647 144 101.284 143.261 98.1594 141.962L98.0499 141.917L97.9418 141.868C97.7504 141.782 97.5606 141.693 97.3725 141.601ZM98.5864 133.209C99.3335 133.818 100.192 134.342 101.163 134.78C103.438 135.726 106.005 136.31 108.863 136.532C109.388 136.588 110.322 136.615 111.663 136.615C114.58 136.615 117.117 136.31 119.276 135.698C121.376 135.142 123.301 134.419 125.051 133.529C126.8 132.64 128.113 131.611 128.988 130.443C129.002 130.422 129.016 130.4 129.03 130.379C131.104 127.222 132.286 123.407 132.575 118.933L132.838 116.181C133.013 114.124 133.1 111.121 133.1 107.173C133.1 107.033 133.101 106.894 133.101 106.756C133.105 103.403 133.163 100.846 133.275 99.083V97.5817L133.363 96.0804C133.363 94.3011 133.275 92.5496 133.1 90.8259C132.809 89.0466 132.313 87.2673 131.613 85.4879C131.096 84.0989 130.124 82.6918 128.698 81.2666C128.354 80.9233 127.984 80.5789 127.588 80.2334C125.721 78.8989 123.534 77.8981 121.026 77.2308C118.576 76.508 115.951 76.1466 113.151 76.1466C108.717 76.1466 104.634 77.0084 100.901 78.7321L98.9758 79.733C98.0571 80.7839 97.2589 81.9268 96.5813 83.1616C95.9683 84.2788 95.454 85.4713 95.0384 86.739C94.2217 89.3524 93.7259 92.0492 93.5509 94.8293C93.3759 97.3871 93.2884 99.9449 93.2884 102.503C93.2884 106.673 93.4342 111.038 93.7259 115.597C93.7259 116.987 93.755 117.905 93.8134 118.35L93.9884 121.019C94.105 124.8 94.8634 127.941 96.2633 130.443C96.8534 131.506 97.6278 132.428 98.5864 133.209ZM88.4739 75.8129C87.3072 75.7017 85.9364 75.6461 84.3614 75.6461C82.5531 75.6461 80.6865 75.7573 78.7615 75.9798C76.8365 76.2022 75.2032 76.508 73.8615 76.8972C74.0365 80.2334 74.124 83.3472 74.124 86.2386C74.124 88.8988 74.0313 91.6222 73.8459 94.4087C73.7859 95.3105 73.7162 96.2189 73.6368 97.1339C73.5974 97.5874 73.5557 98.0425 73.5116 98.4992H73.3366C72.8116 98.5548 72.2574 98.6382 71.6741 98.7494C71.1491 98.8606 70.5949 98.9162 70.0116 98.9162L66.6866 98.5826C66.6333 98.3286 66.5821 98.0775 66.5327 97.8293C66.3163 96.7395 66.1381 95.7044 65.9982 94.7241C65.9258 94.2163 65.8636 93.7231 65.8116 93.2446C65.6366 91.5765 65.4908 89.5192 65.3741 87.0726L65.2866 85.0709C65.17 81.9571 64.9658 79.2048 64.6742 76.8138C63.4492 76.4246 62.0783 76.23 60.5617 76.23L50.6743 76.3968C50.616 78.1761 50.5868 81.2899 50.5868 85.7382C50.5868 93.5783 50.791 102.53 51.1993 112.595C51.6076 122.659 52.016 130.193 52.4243 135.197L55.2243 135.031C55.5743 135.031 56.2742 135.086 57.3242 135.197L58.1117 135.281C59.5117 135.392 60.6784 135.448 61.6117 135.448C63.5367 135.448 65.17 135.086 66.5116 134.363C66.8033 132.64 66.9491 130.11 66.9491 126.774L66.8616 124.605V122.436C66.8033 121.213 66.7741 119.35 66.7741 116.848C66.7741 116.092 66.7981 115.313 66.8459 114.511C66.8697 114.114 66.8993 113.711 66.9348 113.302C66.9646 112.959 66.9985 112.612 67.0366 112.261C67.9699 112.039 69.3116 111.927 71.0616 111.927L74.3865 112.094C74.4369 112.403 74.485 112.728 74.5309 113.069C74.5846 113.468 74.6352 113.89 74.6828 114.334C74.9248 116.592 75.0886 119.432 75.174 122.853C75.349 128.914 75.6115 133.14 75.9615 135.531C77.5948 135.42 79.4031 135.364 81.3865 135.364C84.7797 135.364 87.6012 135.218 89.8512 134.924C90.1928 134.88 90.5211 134.832 90.8364 134.78L88.4739 75.8129ZM119.188 95.58C119.071 94.0231 118.663 92.6608 117.963 91.4931C117.321 90.2698 116.476 89.408 115.426 88.9076C114.959 88.7408 114.492 88.6573 114.026 88.6573C112.626 88.6573 111.255 89.1022 109.913 89.9918C109.213 90.5479 108.513 91.3541 107.813 92.4106C107.172 93.4114 106.676 94.4401 106.326 95.4966C105.742 97.9431 105.451 101.057 105.451 104.838C105.451 106.21 105.466 107.333 105.497 108.208C105.507 108.503 105.519 108.77 105.533 109.008C105.533 109.009 105.533 109.008 105.533 109.008C105.535 109.036 105.537 109.065 105.538 109.092V109.008C105.544 109.035 105.55 109.063 105.555 109.091C105.555 109.091 105.555 109.09 105.555 109.091C105.571 109.168 105.587 109.248 105.602 109.329C105.804 110.398 105.957 111.765 106.063 113.429L106.151 114.596C106.3 116.371 106.484 117.851 106.705 119.037C106.822 119.67 106.95 120.22 107.088 120.685C107.089 120.688 107.09 120.692 107.091 120.695C107.098 120.72 107.106 120.744 107.113 120.768V120.685C107.125 120.709 107.136 120.734 107.148 120.758C107.15 120.761 107.152 120.765 107.153 120.768C107.34 121.151 107.556 121.504 107.799 121.827C108.237 122.406 108.767 122.887 109.388 123.271C110.438 123.827 111.547 124.105 112.713 124.105C113.646 124.105 114.58 123.91 115.513 123.521C116.505 123.076 117.351 122.464 118.051 121.686C118.634 120.963 118.984 120.351 119.101 119.851C119.276 119.35 119.363 118.572 119.363 117.516C119.363 116.57 119.392 115.875 119.451 115.43L119.538 114.346L119.626 112.761V111.594L119.713 110.009V106.006L119.538 100.334V99.917L119.188 95.58ZM136.55 83.5586C136.55 83.5929 136.551 83.6273 136.551 83.6617C136.582 85.6176 136.605 87.8147 136.618 90.253C136.619 90.3254 136.619 90.3981 136.62 90.4709C136.629 92.2183 136.634 94.0882 136.635 96.0804C136.635 96.1434 136.635 96.2066 136.635 96.2699C136.635 96.4008 136.635 96.5323 136.635 96.6642V106.756C136.635 106.896 136.635 107.035 136.635 107.173C136.636 110.54 136.644 113.65 136.66 116.504C136.66 116.517 136.66 116.53 136.66 116.543C136.665 117.454 136.671 118.339 136.677 119.197C136.678 119.239 136.678 119.281 136.678 119.322C136.72 124.712 136.792 129.065 136.895 132.383C136.923 133.287 136.953 134.114 136.985 134.864C139.435 135.142 142.119 135.281 145.035 135.281C148.943 135.281 151.685 135.058 153.26 134.614L154.223 134.53V115.764C154.281 115.097 154.281 114.43 154.223 113.762C154.631 113.818 154.981 113.846 155.273 113.846C155.564 113.79 155.798 113.762 155.973 113.762C157.854 113.762 159.686 113.553 161.469 113.133C163.059 112.759 164.61 112.218 166.122 111.51C169.331 109.953 172.014 107.841 174.172 105.172C176.331 102.503 177.614 99.5834 178.022 96.414C178.081 95.9692 178.11 95.2186 178.11 94.1621V94.0787C177.76 87.4619 174.931 82.6522 169.622 79.6496C164.372 76.5914 157.985 75.0623 150.46 75.0623C145.56 75.0623 140.864 75.6739 136.373 76.8972C136.391 77.332 136.409 77.7944 136.425 78.2844C136.476 79.7838 136.517 81.5419 136.55 83.5586ZM151.887 96.2721C151.869 95.5159 151.86 94.6735 151.86 93.7451V92.9944C151.86 90.8815 151.831 89.3802 151.773 88.4905C152.356 88.4905 153.202 88.5183 154.31 88.5739C155.477 88.5739 156.614 88.6851 157.723 88.9076C158.391 89.0417 159.027 89.2768 159.632 89.613C160.03 89.8345 160.414 90.0997 160.785 90.4089L161.485 91.1595C162.418 92.4384 162.885 93.8285 162.885 95.3298C162.885 96.553 162.593 97.6373 162.01 98.5826C161.485 99.361 160.727 99.917 159.735 100.251C158.802 100.584 157.664 100.751 156.323 100.751H152.56C152.268 99.917 152.064 98.9718 151.948 97.9153C151.922 97.4222 151.902 96.8745 151.887 96.2721Z" fill="#192C32"/>
<path d="M61.2895 151.517C58.8395 151.907 56.4187 152.101 54.0271 152.101C51.1688 152.101 48.6605 151.795 46.5022 151.184C46.6188 150.628 46.6772 150.238 46.6772 150.016C46.6772 148.737 46.1813 147.681 45.1897 146.847C44.198 146.013 43.0897 145.596 41.8647 145.596C40.9897 145.596 40.2022 145.874 39.5023 146.43C38.8606 146.93 38.4814 147.708 38.3648 148.765C38.1898 149.265 38.1023 149.71 38.1023 150.099L38.1898 150.85C38.1898 150.961 38.1898 151.017 38.1898 151.017C38.5981 152.185 39.1814 152.991 39.9398 153.436C40.7564 153.88 41.7189 154.186 42.8272 154.353C45.7439 154.742 48.6896 155.771 51.6646 157.439C54.6396 159.107 57.0312 161.053 58.8395 163.277C59.9479 164.723 60.8228 166.336 61.4645 168.115C62.1062 169.839 62.427 171.535 62.427 173.203C62.427 176.094 61.7562 178.902 60.4145 181.627C58.8979 184.74 56.5646 187.159 53.4146 188.883C50.2646 190.607 46.823 191.468 43.0897 191.468C39.2981 191.468 35.594 190.773 31.9773 189.383C28.419 187.938 25.5316 185.88 23.3149 183.211C21.0983 180.542 20.1066 177.456 20.34 173.953V173.203C22.0316 172.925 23.8983 172.786 25.9399 172.786C27.6899 172.786 29.1774 172.813 30.4024 172.869C31.5107 172.925 33.494 172.952 36.3523 172.952C36.4106 174.621 36.9356 175.927 37.9273 176.872C38.9773 177.818 40.1731 178.29 41.5147 178.29C42.6814 178.29 43.6439 177.929 44.4022 177.206C45.2189 176.483 45.6272 175.455 45.6272 174.12C45.6272 173.62 45.598 173.23 45.5397 172.952C45.248 170.895 44.2272 169.449 42.4772 168.615C40.7272 167.781 38.3648 167.086 35.3898 166.53L34.0773 166.28C31.569 165.835 29.3815 164.862 27.5149 163.361C25.4149 161.415 23.8399 159.33 22.7899 157.105C21.74 154.881 21.215 152.657 21.215 150.433C21.215 146.819 22.3525 143.427 24.6274 140.258C26.9607 137.033 29.9649 134.697 33.6398 133.252C35.9148 132.362 38.7439 131.917 42.1272 131.917C46.5022 131.917 50.498 132.696 54.1146 134.252C56.7979 135.587 58.927 137.338 60.502 139.507C62.077 141.676 62.8645 144.233 62.8645 147.18C62.8645 148.292 62.6895 149.738 62.3395 151.517H61.2895Z" fill="#DFE7EB"/>
<path d="M105.42 190.384C103.028 190.773 99.8782 190.968 95.9699 190.968C93.9866 190.968 92.1783 191.024 90.5449 191.135C90.1949 188.744 89.9324 184.518 89.7574 178.457C89.6408 173.787 89.3783 170.2 88.9699 167.698L85.645 167.531C83.895 167.531 82.5534 167.642 81.62 167.865C81.445 169.477 81.3575 171.006 81.3575 172.452C81.3575 174.954 81.3867 176.817 81.445 178.04V180.209L81.5325 182.377C81.5325 185.713 81.3867 188.243 81.095 189.967C79.7534 190.69 78.1201 191.051 76.1951 191.051C75.2618 191.051 74.0951 190.996 72.6951 190.885L71.9076 190.801C70.8577 190.69 70.1577 190.634 69.8077 190.634L67.0077 190.801C66.5994 185.797 66.191 178.263 65.7827 168.198C65.3744 158.134 65.1702 149.182 65.1702 141.342C65.1702 136.894 65.1994 133.78 65.2577 132.001L75.1451 131.834C76.6618 131.834 78.0326 132.028 79.2576 132.418C79.5492 134.808 79.7534 137.561 79.8701 140.675L79.9576 142.676C80.0742 145.123 80.2201 147.18 80.395 148.848C80.57 150.461 80.8617 152.24 81.27 154.186L84.595 154.52C85.1783 154.52 85.7325 154.464 86.2575 154.353C86.8408 154.242 87.395 154.158 87.92 154.103H88.095C88.5033 149.877 88.7075 145.79 88.7075 141.842C88.7075 138.951 88.62 135.837 88.445 132.501C89.7866 132.112 91.4199 131.806 93.3449 131.583C95.2699 131.361 97.1365 131.25 98.9448 131.25C100.52 131.25 101.891 131.305 103.057 131.417L105.42 190.384Z" fill="#DFE7EB"/>
<path d="M147.684 146.43C147.859 148.153 147.946 149.905 147.946 151.684L147.859 153.185V154.687C147.742 156.522 147.684 159.218 147.684 162.777C147.684 166.725 147.596 169.727 147.421 171.785L147.159 174.537C146.867 179.041 145.671 182.878 143.571 186.047C142.696 187.215 141.384 188.243 139.634 189.133C137.884 190.023 135.959 190.746 133.859 191.302C131.701 191.913 129.163 192.219 126.247 192.219C124.905 192.219 123.972 192.191 123.447 192.136C120.588 191.913 118.022 191.329 115.747 190.384C113.53 189.383 111.897 187.938 110.847 186.047C109.447 183.545 108.688 180.403 108.572 176.622L108.397 173.953C108.338 173.508 108.309 172.591 108.309 171.201C108.018 166.641 107.872 162.277 107.872 158.106C107.872 155.549 107.959 152.991 108.134 150.433C108.309 147.653 108.805 144.956 109.622 142.343C110.497 139.674 111.809 137.338 113.559 135.337L115.484 134.336C119.217 132.612 123.301 131.75 127.734 131.75C130.534 131.75 133.159 132.112 135.609 132.835C138.117 133.502 140.305 134.503 142.171 135.837C144.213 137.616 145.555 139.368 146.196 141.092C146.896 142.871 147.392 144.65 147.684 146.43ZM134.121 155.521L133.771 151.184C133.655 149.627 133.246 148.265 132.546 147.097C131.905 145.874 131.059 145.012 130.009 144.511C129.542 144.344 129.076 144.261 128.609 144.261C127.209 144.261 125.838 144.706 124.497 145.596C123.797 146.152 123.097 146.958 122.397 148.014C121.755 149.015 121.259 150.044 120.909 151.1C120.326 153.547 120.034 156.661 120.034 160.442C120.034 162.332 120.063 163.75 120.122 164.695V164.612C120.355 165.724 120.53 167.197 120.647 169.032L120.734 170.2C120.967 172.98 121.288 175.038 121.697 176.372V176.289C122.222 177.401 122.98 178.263 123.972 178.874C125.022 179.43 126.13 179.708 127.297 179.708C128.23 179.708 129.163 179.514 130.097 179.124C131.088 178.68 131.934 178.068 132.634 177.29C133.217 176.567 133.567 175.955 133.684 175.455C133.859 174.954 133.946 174.176 133.946 173.119C133.946 172.174 133.976 171.479 134.034 171.034L134.121 169.95L134.209 168.365V167.197L134.296 165.613V161.609L134.121 155.938V155.521Z" fill="#DFE7EB"/>
<path d="M192.693 149.766C192.693 150.822 192.664 151.573 192.606 152.018C192.197 155.187 190.914 158.106 188.756 160.775C186.597 163.444 183.914 165.557 180.706 167.114C177.498 168.615 174.114 169.366 170.556 169.366C170.381 169.366 170.148 169.394 169.856 169.449C169.564 169.449 169.214 169.422 168.806 169.366C168.864 170.033 168.864 170.701 168.806 171.368C168.806 172.035 168.806 172.647 168.806 173.203V190.134L167.843 190.217C166.268 190.662 163.527 190.885 159.619 190.885C156.702 190.885 154.019 190.746 151.569 190.468C151.335 185.074 151.219 175.705 151.219 162.36V152.268C151.219 143.205 151.131 136.616 150.956 132.501C155.448 131.278 160.144 130.666 165.043 130.666C172.568 130.666 178.956 132.195 184.206 135.253C189.514 138.256 192.343 143.066 192.693 149.682V149.766ZM175.368 146.013C174.435 145.234 173.414 144.734 172.306 144.511C171.198 144.289 170.06 144.178 168.893 144.178C167.785 144.122 166.939 144.094 166.356 144.094C166.414 144.984 166.443 146.485 166.443 148.598V149.349C166.443 151.017 166.473 152.407 166.531 153.519C166.648 154.576 166.852 155.521 167.143 156.355H168.368C168.777 156.355 169.623 156.355 170.906 156.355C172.248 156.355 173.385 156.188 174.318 155.854C175.31 155.521 176.068 154.965 176.593 154.186C177.177 153.241 177.468 152.157 177.468 150.933C177.468 149.432 177.002 148.042 176.068 146.763L175.368 146.013Z" fill="#DFE7EB"/>
<path fill-rule="evenodd" clip-rule="evenodd" d="M62.3395 151.517C62.6895 149.738 62.8645 148.292 62.8645 147.18C62.8645 145.026 62.4438 143.08 61.6023 141.342C61.2926 140.702 60.9258 140.09 60.5021 139.507C59.6309 138.307 58.5901 137.235 57.3798 136.291C56.4021 135.528 55.3137 134.849 54.1146 134.252C50.498 132.695 46.5022 131.917 42.1273 131.917C38.744 131.917 35.9148 132.362 33.6399 133.251C29.9649 134.697 26.9608 137.032 24.6275 140.257C22.3525 143.427 21.215 146.819 21.215 150.433C21.215 152.657 21.74 154.881 22.79 157.105C23.84 159.329 25.415 161.415 27.5149 163.361C28.3598 164.04 29.2705 164.612 30.2469 165.075C30.4121 165.153 30.5792 165.228 30.7482 165.3C30.7601 165.305 30.772 165.311 30.7839 165.316C31.8122 165.751 32.91 166.073 34.0774 166.28L35.3898 166.53C35.7181 166.591 36.039 166.654 36.3523 166.719C38.8787 167.241 40.9204 167.873 42.4773 168.615C43.0917 168.908 43.6162 169.276 44.0508 169.72C44.8542 170.54 45.3505 171.617 45.5397 172.952C45.5981 173.23 45.6272 173.619 45.6272 174.12C45.6272 175.454 45.2189 176.483 44.4022 177.206C43.6439 177.929 42.6814 178.29 41.5148 178.29C40.1731 178.29 38.9773 177.818 37.9273 176.872C37.3323 176.305 36.9053 175.608 36.6463 174.78C36.4736 174.229 36.3757 173.619 36.3523 172.952C35.5623 172.952 34.8391 172.95 34.1828 172.946C34.1747 172.946 34.1667 172.946 34.1586 172.946C33.7033 172.943 33.2802 172.939 32.8895 172.934C32.8597 172.933 32.8301 172.933 32.8007 172.932C31.7707 172.919 30.9713 172.897 30.4024 172.869C29.8442 172.844 29.2315 172.824 28.5643 172.81C27.7673 172.794 26.8925 172.785 25.94 172.785C23.8983 172.785 22.0317 172.924 20.34 173.202V173.953C20.1824 176.32 20.5838 178.496 21.5442 180.481C21.6056 180.608 21.6692 180.734 21.7351 180.86C22.1648 181.677 22.6914 182.46 23.315 183.211L17.3013 188.173C13.8542 184.022 12.2431 179.071 12.5332 173.721V166.599L18.9325 165.548C17.6705 163.956 16.5902 162.248 15.7261 160.418C14.2389 157.268 13.4082 153.918 13.4082 150.433C13.4082 145.066 15.1336 140.111 18.2783 135.73L18.2868 135.718L18.2954 135.706C21.4933 131.286 25.6951 128.012 30.7738 126.014L30.7884 126.008C34.2482 124.655 38.1171 124.136 42.1273 124.136C47.4488 124.136 52.5132 125.087 57.2101 127.109L57.4076 127.194L57.6002 127.29C57.6005 127.29 57.5999 127.29 57.6002 127.29L57.6978 124.346L75.0791 124.052H75.1451C77.3259 124.052 79.5138 124.332 81.6287 125.004L83.8832 125.72L86.2632 125.03C88.1501 124.482 90.2398 124.109 92.446 123.854C94.6483 123.6 96.8157 123.469 98.9449 123.469C100.69 123.469 102.32 123.53 103.801 123.671L110.586 124.318L110.735 128.029L112.036 127.352L112.203 127.275C117.042 125.041 122.257 123.969 127.734 123.969C131.177 123.969 134.52 124.41 137.724 125.344C139.532 125.831 141.27 126.466 142.92 127.264L142.893 126.63L148.898 124.995C154.095 123.58 159.485 122.885 165.044 122.885C173.609 122.885 181.414 124.626 188.103 128.511C195.935 132.96 200.015 140.304 200.489 149.273L200.5 149.477V149.766C200.5 150.828 200.477 152.024 200.348 153.017C199.741 157.713 197.827 161.957 194.834 165.658C191.928 169.251 188.324 172.071 184.123 174.11L184.074 174.134L184.024 174.157C181.633 175.276 179.157 176.082 176.613 176.573V197.268L169.132 197.916C166.507 198.509 163.139 198.665 159.619 198.665C156.459 198.665 153.476 198.515 150.686 198.198L144.057 197.446L143.978 195.641C143.714 195.788 143.448 195.929 143.181 196.064C140.909 197.219 138.481 198.124 135.926 198.805C132.921 199.648 129.656 200 126.247 200C124.978 200 123.719 199.979 122.748 199.886C119.23 199.604 115.867 198.864 112.743 197.566L112.633 197.52L112.525 197.472C112.334 197.385 112.144 197.296 111.956 197.204L106.678 198.063C103.697 198.548 100.078 198.749 95.9699 198.749C94.1285 198.749 92.501 198.801 91.077 198.898L83.8638 199.389L83.5739 197.408C81.1835 198.438 78.6556 198.832 76.1951 198.832C74.9797 198.832 73.5896 198.761 72.075 198.641L71.9725 198.633L71.0828 198.538C70.5957 198.487 70.2319 198.453 69.975 198.432C69.9391 198.429 69.9069 198.427 69.8781 198.425L59.846 199.023L59.4603 194.295C58.7297 194.799 57.9664 195.268 57.1717 195.703C52.8248 198.082 48.0834 199.249 43.0898 199.249C38.316 199.249 33.6609 198.37 29.1685 196.643L29.0992 196.616L29.0305 196.588C24.408 194.71 20.4228 191.931 17.3013 188.173L23.315 183.211C25.5316 185.88 28.4191 187.937 31.9774 189.383C35.594 190.773 39.2981 191.468 43.0898 191.468C46.823 191.468 50.2647 190.606 53.4146 188.883C55.5748 187.701 57.3509 186.192 58.743 184.356C59.3808 183.515 59.938 182.605 60.4146 181.626C61.7562 178.902 62.427 176.094 62.427 173.202C62.427 171.616 62.1369 170.005 61.5568 168.368C61.5268 168.284 61.4961 168.199 61.4645 168.115C60.8229 166.335 59.9479 164.723 58.8396 163.277C58.495 162.853 58.1293 162.44 57.7424 162.036C57.0146 161.277 56.2118 160.553 55.334 159.866C54.9154 159.538 54.4798 159.218 54.0271 158.906C53.2854 158.395 52.4979 157.906 51.6647 157.439C49.5787 156.269 47.507 155.414 45.4497 154.873C44.5729 154.643 43.6988 154.469 42.8273 154.353C41.7189 154.186 40.7565 153.88 39.9398 153.435C39.3214 153.073 38.8193 152.47 38.4337 151.626C38.3464 151.435 38.2651 151.232 38.1898 151.017V150.85L38.1023 150.099C38.1023 149.71 38.1898 149.265 38.3648 148.765C38.4815 147.708 38.8606 146.93 39.5023 146.429C40.2023 145.873 40.9898 145.595 41.8648 145.595C43.0898 145.595 44.1981 146.012 45.1897 146.846C45.1912 146.848 45.1927 146.849 45.1942 146.85C46.1829 147.684 46.6772 148.739 46.6772 150.016C46.6772 150.238 46.6189 150.627 46.5022 151.183C47.424 151.445 48.4096 151.65 49.4591 151.8C50.8669 152.001 52.3896 152.101 54.0271 152.101C54.1103 152.101 54.1935 152.101 54.2767 152.1C54.4111 152.099 54.5457 152.098 54.6803 152.096C55.6069 152.082 56.5378 152.04 57.4732 151.968C57.5296 151.963 57.586 151.959 57.6424 151.955C58.8509 151.857 60.0666 151.711 61.2895 151.517H62.3395ZM65.4605 159.114C65.4624 159.175 65.4642 159.237 65.4661 159.298C65.537 161.643 65.6206 164.058 65.717 166.542C65.7176 166.558 65.7183 166.574 65.7189 166.591C65.7396 167.123 65.7609 167.659 65.7828 168.198C65.8535 169.942 65.9243 171.61 65.995 173.202C66.1895 177.579 66.384 181.381 66.5785 184.609C66.5792 184.62 66.5799 184.631 66.5806 184.643C66.6179 185.262 66.6553 185.86 66.6926 186.437C66.7977 188.059 66.9027 189.514 67.0077 190.801L69.8077 190.634C70.1577 190.634 70.8577 190.69 71.9077 190.801L72.6952 190.884C74.0952 190.996 75.2618 191.051 76.1951 191.051C78.1201 191.051 79.7534 190.69 81.0951 189.967C81.3867 188.243 81.5326 185.713 81.5326 182.377L81.4451 180.208V178.04C81.3867 176.817 81.3576 174.954 81.3576 172.452C81.3576 171.696 81.3815 170.917 81.4294 170.115C81.4531 169.717 81.4827 169.314 81.5182 168.906C81.548 168.563 81.582 168.216 81.6201 167.865C82.5534 167.642 83.8951 167.531 85.645 167.531L88.97 167.698C89.0203 168.006 89.0684 168.331 89.1143 168.673C89.168 169.072 89.2187 169.493 89.2663 169.938C89.5083 172.196 89.672 175.035 89.7575 178.457C89.9325 184.518 90.195 188.744 90.545 191.135C92.1783 191.023 93.9866 190.968 95.9699 190.968C99.3631 190.968 102.185 190.821 104.435 190.528C104.776 190.483 105.105 190.435 105.42 190.384L103.057 131.416C101.891 131.305 100.52 131.25 98.9449 131.25C97.1366 131.25 95.2699 131.361 93.3449 131.583C91.42 131.806 89.7866 132.112 88.445 132.501C88.62 135.837 88.7075 138.951 88.7075 141.842C88.7075 144.502 88.6148 147.226 88.4294 150.012C88.3694 150.914 88.2997 151.822 88.2202 152.737C88.1809 153.191 88.1391 153.646 88.095 154.103H87.92C87.395 154.158 86.8408 154.242 86.2575 154.353C85.7325 154.464 85.1784 154.52 84.595 154.52L81.2701 154.186C81.2168 153.932 81.1655 153.681 81.1162 153.433C80.8998 152.343 80.7216 151.308 80.5817 150.328C80.5092 149.82 80.447 149.327 80.3951 148.848C80.2201 147.18 80.0743 145.123 79.9576 142.676L79.8701 140.674C79.7534 137.561 79.5493 134.808 79.2576 132.417C78.0326 132.028 76.6618 131.833 75.1451 131.833L65.2578 132C65.2482 132.292 65.2394 132.619 65.2315 132.982C65.2127 133.833 65.1983 134.881 65.1882 136.126C65.1762 137.591 65.1703 139.33 65.1703 141.342C65.1703 143.224 65.182 145.17 65.2056 147.18C65.2243 148.777 65.2504 150.415 65.2839 152.092C65.3292 154.359 65.3881 156.7 65.4605 159.114ZM108.134 150.433C107.959 152.991 107.872 155.548 107.872 158.106C107.872 162.276 108.018 166.641 108.309 171.201C108.309 172.591 108.338 173.508 108.397 173.953L108.572 176.622C108.688 180.403 109.447 183.545 110.847 186.047C111.437 187.109 112.211 188.031 113.17 188.813C113.917 189.422 114.776 189.946 115.747 190.384C118.022 191.329 120.588 191.913 123.447 192.135C123.972 192.191 124.905 192.219 126.247 192.219C129.163 192.219 131.701 191.913 133.859 191.301C135.959 190.745 137.884 190.023 139.634 189.133C141.384 188.243 142.696 187.215 143.571 186.047C143.586 186.025 143.6 186.004 143.614 185.982C145.688 182.826 146.869 179.01 147.159 174.537L147.421 171.785C147.596 169.727 147.684 166.725 147.684 162.777C147.684 162.636 147.684 162.497 147.684 162.36C147.689 159.007 147.747 156.449 147.859 154.687V153.185L147.946 151.684C147.946 149.905 147.859 148.153 147.684 146.429C147.392 144.65 146.896 142.871 146.196 141.091C145.679 139.702 144.708 138.295 143.281 136.87C142.938 136.527 142.568 136.182 142.171 135.837C140.305 134.502 138.117 133.502 135.609 132.834C133.159 132.112 130.534 131.75 127.734 131.75C123.301 131.75 119.218 132.612 115.484 134.336L113.559 135.337C112.64 136.387 111.842 137.53 111.165 138.765C110.552 139.882 110.037 141.075 109.622 142.343C108.805 144.956 108.309 147.653 108.134 150.433ZM132.547 147.097C131.905 145.873 131.059 145.012 130.009 144.511C129.542 144.344 129.076 144.261 128.609 144.261C127.209 144.261 125.838 144.706 124.497 145.595C123.797 146.151 123.097 146.958 122.397 148.014C121.755 149.015 121.259 150.044 120.909 151.1C120.326 153.547 120.034 156.66 120.034 160.441C120.034 161.814 120.05 162.937 120.08 163.811C120.091 164.106 120.103 164.373 120.117 164.612C120.117 164.612 120.117 164.611 120.117 164.612C120.118 164.64 120.12 164.668 120.122 164.695V164.612C120.127 164.639 120.133 164.666 120.139 164.694C120.139 164.694 120.139 164.694 120.139 164.694C120.154 164.771 120.17 164.852 120.185 164.932C120.387 166.002 120.541 167.368 120.647 169.032L120.734 170.2C120.883 171.975 121.068 173.455 121.288 174.64C121.406 175.274 121.533 175.823 121.672 176.288C121.673 176.292 121.674 176.295 121.675 176.299C121.682 176.323 121.689 176.348 121.697 176.372V176.288C121.708 176.313 121.72 176.337 121.732 176.361C121.733 176.365 121.735 176.368 121.737 176.372C121.924 176.755 122.139 177.108 122.383 177.43C122.821 178.01 123.35 178.491 123.972 178.874C125.022 179.43 126.13 179.708 127.297 179.708C128.23 179.708 129.163 179.513 130.097 179.124C131.088 178.679 131.934 178.068 132.634 177.289C133.217 176.566 133.567 175.955 133.684 175.454C133.859 174.954 133.947 174.176 133.947 173.119C133.947 172.174 133.976 171.479 134.034 171.034L134.122 169.95L134.209 168.365V167.197L134.297 165.613V161.609L134.122 155.938V155.521L133.772 151.183C133.655 149.627 133.247 148.264 132.547 147.097ZM151.133 139.162C151.134 139.196 151.134 139.231 151.135 139.265C151.166 141.221 151.188 143.418 151.202 145.857C151.202 145.929 151.203 146.002 151.203 146.074C151.213 147.822 151.218 149.692 151.219 151.684C151.219 151.747 151.219 151.81 151.219 151.873C151.219 152.004 151.219 152.136 151.219 152.268V162.36C151.219 162.499 151.219 162.638 151.219 162.777C151.219 166.143 151.227 169.253 151.243 172.108C151.243 172.121 151.243 172.134 151.243 172.147C151.248 173.058 151.254 173.942 151.261 174.801C151.261 174.842 151.261 174.884 151.262 174.926C151.303 180.315 151.376 184.669 151.478 187.986C151.506 188.89 151.536 189.717 151.569 190.467C154.019 190.745 156.702 190.884 159.619 190.884C163.527 190.884 166.269 190.662 167.844 190.217L168.806 190.134V171.368C168.864 170.7 168.864 170.033 168.806 169.366C169.214 169.421 169.564 169.449 169.856 169.449C170.148 169.394 170.381 169.366 170.556 169.366C172.437 169.366 174.269 169.156 176.053 168.736C177.642 168.362 179.194 167.822 180.706 167.114C183.914 165.557 186.597 163.444 188.756 160.775C190.914 158.106 192.197 155.187 192.606 152.018C192.664 151.573 192.693 150.822 192.693 149.766V149.682C192.343 143.065 189.514 138.256 184.206 135.253C178.956 132.195 172.568 130.666 165.044 130.666C160.144 130.666 155.448 131.277 150.956 132.501C150.975 132.935 150.992 133.398 151.009 133.888C151.059 135.387 151.101 137.145 151.133 139.162ZM166.471 151.876C166.453 151.119 166.444 150.277 166.444 149.349V148.598C166.444 146.485 166.414 144.984 166.356 144.094C166.939 144.094 167.785 144.122 168.893 144.177C170.06 144.177 171.198 144.289 172.306 144.511C172.974 144.645 173.611 144.88 174.215 145.217C174.613 145.438 174.998 145.703 175.368 146.012L176.068 146.763C177.002 148.042 177.468 149.432 177.468 150.933C177.468 152.157 177.177 153.241 176.593 154.186C176.068 154.965 175.31 155.521 174.318 155.854C173.385 156.188 172.248 156.355 170.906 156.355H167.144C166.852 155.521 166.648 154.575 166.531 153.519C166.505 153.026 166.485 152.478 166.471 151.876Z" fill="#192C32"/>
</svg>
