<svg width="356" height="197" viewBox="0 0 356 197" fill="none" xmlns="http://www.w3.org/2000/svg">
<path d="M65.775 99.1209C62.8925 99.6481 59.0961 99.9117 54.3857 99.9117C51.9953 99.9117 49.8159 99.9871 47.8473 100.138C47.4255 96.8991 47.1091 91.175 46.8982 82.9655C46.7576 76.6389 46.4413 71.7809 45.9491 68.3917L41.9418 68.1657C39.8326 68.1657 38.2156 68.3164 37.0908 68.6176C36.8798 70.8018 36.7744 72.873 36.7744 74.8313C36.7744 78.2205 36.8095 80.7436 36.8798 82.4006V85.3379L36.9853 88.2753C36.9853 92.7943 36.8095 96.2212 36.458 98.556C34.841 99.5352 32.8725 100.025 30.5524 100.025C29.4276 100.025 28.0215 99.9494 26.3342 99.7988L25.3851 99.6858C24.1196 99.5352 23.2759 99.4598 22.8541 99.4598L19.4795 99.6858C18.9874 92.9073 18.4952 82.7019 18.0031 69.0695C17.511 55.4372 17.2649 43.3112 17.2649 32.6915C17.2649 26.6662 17.3 22.4485 17.3703 20.0383L29.287 19.8124C31.1149 19.8124 32.767 20.076 34.2434 20.6032C34.5949 23.8418 34.841 27.57 34.9816 31.7877L35.0871 34.4991C35.2277 37.8131 35.4034 40.5998 35.6144 42.8593C35.8253 45.0435 36.1768 47.4536 36.6689 50.0897L40.6763 50.5416C41.3793 50.5416 42.0472 50.4663 42.68 50.3157C43.383 50.165 44.0509 50.052 44.6836 49.9767H44.8946C45.3867 44.2527 45.6328 38.7169 45.6328 33.3694C45.6328 29.4529 45.5273 25.2352 45.3164 20.7162C46.9334 20.1889 48.9019 19.7747 51.222 19.4734C53.542 19.1722 55.7917 19.0215 57.9712 19.0215C59.8694 19.0215 61.5216 19.0969 62.9277 19.2475L65.775 99.1209Z" fill="#DFE7EB"/>
<path d="M116.713 39.583C116.924 41.9178 117.029 44.2903 117.029 46.7005L116.924 48.734V50.7676C116.783 53.253 116.713 56.9059 116.713 61.7261C116.713 67.0736 116.608 71.1407 116.397 73.9275L116.08 77.6556C115.729 83.7563 114.288 88.9532 111.757 93.2462C110.702 94.8279 109.12 96.2212 107.011 97.4263C104.902 98.6314 102.582 99.6105 100.051 100.364C97.4496 101.192 94.3914 101.606 90.8762 101.606C89.2592 101.606 88.1343 101.569 87.5015 101.493C84.0566 101.192 80.9632 100.401 78.2213 99.1209C75.5498 97.7652 73.5813 95.807 72.3158 93.2462C70.6285 89.857 69.7145 85.6016 69.5739 80.48L69.363 76.8648C69.2927 76.2623 69.2575 75.0196 69.2575 73.1366C68.906 66.9607 68.7302 61.0483 68.7302 55.3995C68.7302 51.935 68.8357 48.4704 69.0466 45.0058C69.2575 41.24 69.8551 37.5871 70.8394 34.0472C71.8939 30.432 73.4758 27.2687 75.5849 24.5573L77.905 23.2016C82.4045 20.8668 87.3258 19.6994 92.6689 19.6994C96.0435 19.6994 99.2072 20.189 102.16 21.1681C105.183 22.0719 107.82 23.4276 110.069 25.2352C112.53 27.6453 114.147 30.0178 114.92 32.3526C115.764 34.7627 116.362 37.1729 116.713 39.583ZM100.367 51.8973L99.9454 46.0226C99.8048 43.9137 99.3127 42.0685 98.469 40.4868C97.6957 38.8298 96.6763 37.6624 95.4108 36.9846C94.8484 36.7586 94.2859 36.6457 93.7235 36.6457C92.0362 36.6457 90.384 37.2482 88.767 38.4533C87.9234 39.2064 87.0797 40.2985 86.2361 41.7295C85.4627 43.0852 84.8651 44.4786 84.4433 45.9096C83.7402 49.2236 83.3887 53.4413 83.3887 58.5628C83.3887 61.1236 83.4239 63.0442 83.4942 64.3246V64.2116C83.7754 65.7179 83.9863 67.7138 84.1269 70.1993L84.2324 71.7809C84.5136 75.5468 84.9003 78.3335 85.3924 80.1411V80.0281C86.0251 81.5345 86.9391 82.7019 88.1343 83.5303C89.3998 84.2835 90.7355 84.6601 92.1416 84.6601C93.2665 84.6601 94.3914 84.3965 95.5162 83.8693C96.7114 83.2667 97.7308 82.4383 98.5745 81.3838C99.2775 80.4047 99.6994 79.5762 99.84 78.8984C100.051 78.2205 100.156 77.1661 100.156 75.7351C100.156 74.4547 100.192 73.5132 100.262 72.9107L100.367 71.442L100.473 69.2955V67.7138L100.578 65.5673V60.1445L100.367 52.4622V51.8973Z" fill="#DFE7EB"/>
<path d="M170.96 44.102C170.96 45.533 170.925 46.5498 170.854 47.1523C170.362 51.4454 168.816 55.3995 166.214 59.0147C163.613 62.6299 160.379 65.492 156.512 67.6009C152.646 69.6344 148.568 70.6512 144.279 70.6512C144.068 70.6512 143.787 70.6888 143.436 70.7642C143.084 70.7642 142.662 70.7265 142.17 70.6512C142.24 71.555 142.24 72.4588 142.17 73.3626C142.17 74.2664 142.17 75.0949 142.17 75.848V98.782L141.01 98.895C139.112 99.4975 135.808 99.7988 131.097 99.7988C127.582 99.7988 124.348 99.6105 121.395 99.2339C121.114 91.9282 120.973 79.2373 120.973 61.1613V47.4913C120.973 35.2146 120.868 26.2896 120.657 20.7162C126.07 19.0592 131.73 18.2307 137.635 18.2307C146.705 18.2307 154.403 20.3019 160.731 24.4443C167.128 28.5115 170.538 35.0264 170.96 43.989V44.102ZM150.079 39.0181C148.955 37.9637 147.724 37.2859 146.388 36.9846C145.053 36.6833 143.682 36.5327 142.276 36.5327C140.94 36.4574 139.92 36.4197 139.217 36.4197C139.288 37.6248 139.323 39.6583 139.323 42.5204V43.5371C139.323 45.7966 139.358 47.6796 139.428 49.1859C139.569 50.6169 139.815 51.8973 140.166 53.0271H141.643C142.135 53.0271 143.154 53.0271 144.701 53.0271C146.318 53.0271 147.689 52.8011 148.814 52.3492C150.009 51.8973 150.923 51.1441 151.556 50.0897C152.259 48.8093 152.61 47.3406 152.61 45.6837C152.61 43.6501 152.048 41.7672 150.923 40.0349L150.079 39.0181Z" fill="#DFE7EB"/>
<path fill-rule="evenodd" clip-rule="evenodd" d="M73.5044 107.91L67.0519 109.091C63.4814 109.744 59.1362 110.015 54.1925 110.015C51.968 110.015 49.9999 110.085 48.276 110.217L39.8842 110.859L39.5166 108.037C36.5711 109.551 33.4276 110.128 30.3593 110.128C28.9048 110.128 27.2376 110.032 25.4162 109.87L25.2965 109.859L24.2279 109.732C23.6395 109.662 23.1984 109.615 22.8853 109.587C22.8335 109.583 22.7878 109.579 22.7478 109.575L10.9606 110.365L10.2443 100.5C9.73684 93.5095 9.23897 83.1372 8.74576 69.4751C8.25004 55.7434 8.00024 43.4779 8.00024 32.6912C8.00024 26.6703 8.03484 22.303 8.11048 19.71L8.39082 10.0997L29.0166 9.70861H29.0939C31.6982 9.70861 34.3048 10.0837 36.82 10.9819L39.6214 11.9822L42.5746 11.0194C44.8281 10.2846 47.3296 9.7816 49.9783 9.43766C52.6224 9.09431 55.2236 8.91778 57.7781 8.91778C59.8748 8.91778 61.8297 9.00017 63.6031 9.19015L71.4848 10.0345L71.6732 15.3203L73.6868 14.1437L73.8807 14.0431C79.6699 11.039 85.9118 9.59563 92.4758 9.59563C96.6017 9.59563 100.604 10.1893 104.437 11.4455C106.782 12.1553 109.026 13.0986 111.141 14.2986L111.096 13.1051L118.06 10.9736C124.296 9.06479 130.767 8.12695 137.442 8.12695C147.729 8.12695 157.082 10.4774 165.085 15.7018C174.418 21.659 179.261 31.4685 179.826 43.4599L179.838 43.7241V44.1017C179.838 45.5402 179.811 47.1316 179.658 48.4429C178.938 54.7064 176.667 60.3759 173.1 65.3327C169.634 70.1496 165.332 73.9351 160.309 76.6745L160.251 76.7061L160.193 76.7367C157.246 78.2865 154.191 79.3899 151.049 80.0435V108.04L142.326 108.89C139.196 109.688 135.158 109.902 130.904 109.902C127.104 109.902 123.521 109.699 120.17 109.271L112.471 108.29L112.366 105.557C111.901 105.86 111.431 106.145 110.959 106.416C108.241 107.968 105.335 109.186 102.273 110.102C98.682 111.235 94.7745 111.71 90.683 111.71C89.1521 111.71 87.646 111.681 86.4921 111.556C82.276 111.177 78.2527 110.181 74.5206 108.438L74.3929 108.379L74.267 108.315C74.0103 108.184 73.756 108.05 73.5044 107.91ZM74.5728 96.6597C75.5518 97.6281 76.7036 98.4484 78.0282 99.1206C80.7701 100.401 83.8635 101.192 87.3084 101.493C87.9412 101.568 89.066 101.606 90.683 101.606C94.1983 101.606 97.2565 101.192 99.8578 100.363C102.389 99.6102 104.709 98.6311 106.818 97.426C108.927 96.2209 110.509 94.8276 111.563 93.2459C111.692 93.0281 111.817 92.8079 111.94 92.5855C114.238 88.4232 115.553 83.4465 115.887 77.6553L116.204 73.9272C116.414 71.1404 116.52 67.0733 116.52 61.7259C116.52 61.5357 116.52 61.3475 116.52 61.161C116.526 56.6193 116.596 53.1547 116.731 50.7673V48.7337L116.836 46.7002C116.836 44.29 116.731 41.9175 116.52 39.5827C116.168 37.1726 115.571 34.7625 114.727 32.3523C114.147 30.5996 113.091 28.8256 111.559 27.0304C111.051 26.4342 110.49 25.8357 109.876 25.2349C107.626 23.4273 104.99 22.0716 101.967 21.1678C99.0141 20.1887 95.8504 19.6991 92.4758 19.6991C87.1327 19.6991 82.2113 20.8665 77.7119 23.2013L75.3918 24.557C74.1391 26.1674 73.0725 27.9372 72.1918 29.8664C71.5897 31.1854 71.0745 32.5789 70.6463 34.0469C69.662 37.5868 69.0644 41.2397 68.8535 45.0055C68.6426 48.4701 68.5371 51.9347 68.5371 55.3992C68.5371 61.048 68.7129 66.9604 69.0644 73.1363C69.0644 75.0193 69.0996 76.262 69.1699 76.8645L69.3808 80.4797C69.5214 85.6013 70.4353 89.8567 72.1227 93.2459C72.7607 94.537 73.5774 95.6749 74.5728 96.6597ZM62.7345 19.2472C61.3284 19.0966 59.6763 19.0213 57.7781 19.0213C55.5986 19.0213 53.3489 19.1719 51.0288 19.4732C48.7088 19.7744 46.7403 20.1887 45.1233 20.7159C45.3342 25.2349 45.4396 29.4526 45.4396 33.3691C45.4396 37.4754 45.2945 41.6928 45.0043 46.0211C44.957 46.7278 44.9057 47.4374 44.8506 48.15C44.8037 48.7567 44.754 49.3655 44.7014 49.9764H44.4905C43.8578 50.0518 43.1899 50.1647 42.4869 50.3154C41.8541 50.466 41.1862 50.5413 40.4832 50.5413L36.4758 50.0894C36.4123 49.749 36.3511 49.4124 36.2922 49.0796C36.1354 48.1926 35.9952 47.3323 35.8716 46.4988C35.6825 45.2229 35.5324 44.0096 35.4213 42.859C35.2103 40.5995 35.0346 37.8128 34.894 34.4988L34.7885 31.7874C34.6479 27.5697 34.4018 23.8415 34.0503 20.6029C32.5739 20.0757 30.9218 19.8121 29.0939 19.8121L17.1772 20.038C17.1069 22.4482 17.0718 26.6659 17.0718 32.6912C17.0718 43.3109 17.3179 55.4369 17.81 69.0692C18.3021 82.7016 18.7942 92.907 19.2864 99.6855L22.661 99.4595C23.0828 99.4595 23.9265 99.5349 25.192 99.6855L26.1411 99.7985C27.8284 99.9491 29.2345 100.024 30.3593 100.024C32.6794 100.024 34.6479 99.5349 36.2649 98.5558C36.6164 96.2209 36.7922 92.794 36.7922 88.275L36.6867 85.3377V82.4003C36.6164 80.7433 36.5813 78.2202 36.5813 74.831C36.5813 72.8727 36.6867 70.8015 36.8976 68.6173C38.0225 68.3161 39.6395 68.1654 41.7487 68.1654L45.756 68.3914C46.2481 71.7806 46.5645 76.6386 46.7051 82.9652C46.916 91.1747 47.2324 96.8988 47.6542 100.137C49.6228 99.9868 51.8022 99.9115 54.1925 99.9115C58.4768 99.9115 62.005 99.6934 64.7771 99.2573C65.0528 99.2139 65.3211 99.1683 65.5819 99.1206L62.7345 19.2472ZM98.2759 40.4865C97.5026 38.8296 96.4832 37.6621 95.2177 36.9843C94.6552 36.7583 94.0928 36.6454 93.5304 36.6454C91.8431 36.6454 90.1909 37.2479 88.5739 38.453C87.7302 39.2061 86.8866 40.2982 86.0429 41.7293C85.2696 43.085 84.672 44.4783 84.2502 45.9093C83.5471 49.2233 83.1956 53.441 83.1956 58.5626C83.1956 60.4479 83.2147 61.9863 83.2528 63.1776C83.2649 63.5574 83.279 63.902 83.295 64.2113C83.2951 64.2118 83.295 64.2108 83.295 64.2113C83.297 64.249 83.2991 64.2876 83.3011 64.3243V64.2113C83.308 64.2482 83.3148 64.2854 83.3216 64.3229C83.3217 64.3234 83.3215 64.3224 83.3216 64.3229C83.3397 64.4228 83.3578 64.5263 83.3754 64.6304C83.6197 66.0813 83.8059 67.9375 83.9338 70.199L84.0393 71.7806C84.2226 74.2365 84.4509 76.276 84.724 77.899C84.861 78.7135 85.0094 79.4231 85.169 80.0278C85.1702 80.0325 85.1714 80.0371 85.1727 80.0417C85.1815 80.0751 85.1904 80.1081 85.1993 80.1408V80.0278C85.2132 80.0609 85.2272 80.0938 85.2414 80.1266C85.2434 80.1313 85.2455 80.1361 85.2475 80.1408C85.4619 80.6342 85.7071 81.0905 85.9831 81.5095C86.5193 82.3234 87.172 82.9969 87.9412 83.5301C89.2066 84.2832 90.5424 84.6598 91.9485 84.6598C93.0734 84.6598 94.1983 84.3962 95.3231 83.869C96.5183 83.2664 97.5377 82.438 98.3814 81.3835C99.0844 80.4044 99.5062 79.5759 99.6469 78.8981C99.8578 78.2202 99.9632 77.1658 99.9632 75.7348C99.9632 74.4544 99.9984 73.5129 100.069 72.9104L100.174 71.4417L100.28 69.2952V67.7135L100.385 65.567V60.1442L100.174 52.4619V51.897L99.7523 46.0223C99.6117 43.9134 99.1196 42.0682 98.2759 40.4865ZM120.677 29.7686C120.678 29.8146 120.679 29.8606 120.679 29.9067C120.716 32.5514 120.743 35.521 120.76 38.8156C120.76 38.9126 120.761 39.0099 120.761 39.1074C120.773 41.4728 120.779 44.0037 120.78 46.7002C120.78 46.7846 120.78 46.8691 120.78 46.9539C120.78 47.1322 120.78 47.3112 120.78 47.491V61.161C120.78 61.3499 120.78 61.5382 120.78 61.7259C120.781 66.2838 120.791 70.4951 120.81 74.3596C120.81 74.3771 120.81 74.3946 120.81 74.4121C120.816 75.6464 120.823 76.8452 120.831 78.0087C120.831 78.0645 120.832 78.1202 120.832 78.1759C120.879 85.05 120.959 90.6803 121.071 95.0666C121.111 96.6095 121.155 97.9985 121.202 99.2336C124.155 99.6102 127.389 99.7985 130.904 99.7985C135.614 99.7985 138.919 99.4972 140.817 98.8947L141.977 98.7817V73.3623C142.047 72.4585 142.047 71.5547 141.977 70.6509C142.469 70.7262 142.891 70.7639 143.242 70.7639C143.594 70.6885 143.875 70.6509 144.086 70.6509C146.333 70.6509 148.521 70.3719 150.652 69.8138C152.589 69.3066 154.478 68.5688 156.319 67.6006C160.186 65.4917 163.42 62.6297 166.021 59.0145C168.622 55.3992 170.169 51.4451 170.661 47.1521C170.732 46.5495 170.767 45.5328 170.767 44.1017V43.9888C170.345 35.0261 166.935 28.5112 160.537 24.4441C154.21 20.3016 146.512 18.2304 137.442 18.2304C131.537 18.2304 125.877 19.0589 120.464 20.7159C120.494 21.5084 120.522 22.3688 120.547 23.2969C120.6 25.1763 120.643 27.3335 120.677 29.7686ZM139.154 46.5235C139.138 45.6143 139.13 44.6187 139.13 43.5369V42.5201C139.13 39.658 139.095 37.6245 139.024 36.4194C139.727 36.4194 140.747 36.4571 142.082 36.5324C143.489 36.5324 144.859 36.683 146.195 36.9843C146.875 37.1377 147.528 37.3888 148.154 37.7374C148.757 38.0735 149.334 38.5003 149.886 39.0178L150.73 40.0346C151.855 41.7669 152.417 43.6498 152.417 45.6834C152.417 47.3404 152.066 48.809 151.363 50.0894C150.73 51.1438 149.816 51.897 148.621 52.3489C147.496 52.8008 146.125 53.0268 144.508 53.0268H139.973C139.622 51.897 139.376 50.6166 139.235 49.1856C139.198 48.4005 139.171 47.5132 139.154 46.5235Z" fill="#192C32"/>
<path d="M116.697 122.25C113.745 122.777 110.827 123.041 107.944 123.041C104.5 123.041 101.476 122.626 98.8752 121.798C99.0158 121.045 99.0861 120.518 99.0861 120.216C99.0861 118.484 98.4885 117.053 97.2934 115.923C96.0982 114.794 94.7624 114.229 93.286 114.229C92.2314 114.229 91.2823 114.605 90.4387 115.358C89.6653 116.036 89.2083 117.091 89.0677 118.522C88.8568 119.2 88.7514 119.802 88.7514 120.329L88.8568 121.346C88.8568 121.497 88.8568 121.572 88.8568 121.572C89.3489 123.154 90.052 124.246 90.9659 124.848C91.9502 125.451 93.1102 125.865 94.446 126.091C97.9612 126.618 101.512 128.012 105.097 130.271C108.683 132.531 111.565 135.167 113.745 138.179C115.08 140.138 116.135 142.322 116.908 144.732C117.682 147.067 118.068 149.364 118.068 151.623C118.068 155.54 117.26 159.343 115.643 163.034C113.815 167.252 111.003 170.528 107.206 172.863C103.41 175.198 99.2619 176.365 94.7624 176.365C90.1926 176.365 85.7283 175.424 81.3694 173.541C77.0808 171.582 73.6007 168.796 70.9292 165.18C68.2576 161.565 67.0624 157.385 67.3436 152.64V151.623C69.3825 151.247 71.6322 151.059 74.0929 151.059C76.202 151.059 77.9948 151.096 79.4712 151.172C80.8069 151.247 83.1973 151.285 86.6422 151.285C86.7125 153.544 87.3453 155.314 88.5404 156.594C89.8059 157.875 91.2472 158.515 92.8642 158.515C94.2703 158.515 95.4303 158.025 96.3442 157.046C97.3285 156.067 97.8206 154.674 97.8206 152.866C97.8206 152.188 97.7855 151.661 97.7152 151.285C97.3637 148.498 96.1333 146.54 94.0242 145.41C91.9151 144.28 89.0677 143.339 85.4822 142.585L83.9003 142.246C80.8773 141.644 78.2408 140.326 75.9911 138.292C73.4601 135.656 71.5619 132.832 70.2964 129.819C69.0309 126.807 68.3982 123.794 68.3982 120.781C68.3982 115.886 69.7691 111.291 72.511 106.998C75.3232 102.63 78.9439 99.4666 83.3731 97.5083C86.1149 96.3033 89.5247 95.7007 93.6024 95.7007C98.8752 95.7007 103.691 96.7552 108.05 98.864C111.284 100.672 113.85 103.044 115.748 105.981C117.646 108.919 118.596 112.383 118.596 116.375C118.596 117.882 118.385 119.84 117.963 122.25H116.697Z" fill="#DFE7EB"/>
<path d="M169.885 174.896C167.002 175.424 163.206 175.687 158.495 175.687C156.105 175.687 153.926 175.762 151.957 175.913C151.535 172.674 151.219 166.95 151.008 158.741C150.867 152.414 150.551 147.556 150.059 144.167L146.051 143.941C143.942 143.941 142.325 144.092 141.2 144.393C140.99 146.577 140.884 148.648 140.884 150.607C140.884 153.996 140.919 156.519 140.99 158.176V161.113L141.095 164.051C141.095 168.57 140.919 171.997 140.568 174.331C138.951 175.311 136.982 175.8 134.662 175.8C133.537 175.8 132.131 175.725 130.444 175.574L129.495 175.461C128.229 175.311 127.386 175.235 126.964 175.235L123.589 175.461C123.097 168.683 122.605 158.477 122.113 144.845C121.621 131.213 121.375 119.087 121.375 108.467C121.375 102.442 121.41 98.2238 121.48 95.8137L133.397 95.5878C135.225 95.5878 136.877 95.8514 138.353 96.3786C138.705 99.6172 138.951 103.345 139.091 107.563L139.197 110.275C139.337 113.588 139.513 116.375 139.724 118.635C139.935 120.819 140.286 123.229 140.779 125.865L144.786 126.317C145.489 126.317 146.157 126.242 146.79 126.091C147.493 125.94 148.161 125.827 148.793 125.752H149.004C149.496 120.028 149.742 114.492 149.742 109.145C149.742 105.228 149.637 101.011 149.426 96.4916C151.043 95.9643 153.012 95.5501 155.332 95.2488C157.652 94.9476 159.901 94.7969 162.081 94.7969C163.979 94.7969 165.631 94.8722 167.037 95.0229L169.885 174.896Z" fill="#DFE7EB"/>
<path d="M220.823 115.358C221.034 117.693 221.139 120.066 221.139 122.476L221.034 124.509V126.543C220.893 129.028 220.823 132.681 220.823 137.502C220.823 142.849 220.717 146.916 220.506 149.703L220.19 153.431C219.838 159.532 218.397 164.729 215.866 169.022C214.812 170.603 213.23 171.997 211.121 173.202C209.012 174.407 206.692 175.386 204.161 176.139C201.559 176.968 198.501 177.382 194.986 177.382C193.369 177.382 192.244 177.344 191.611 177.269C188.166 176.968 185.073 176.177 182.331 174.896C179.659 173.541 177.691 171.582 176.425 169.022C174.738 165.632 173.824 161.377 173.684 156.255L173.473 152.64C173.402 152.038 173.367 150.795 173.367 148.912C173.016 142.736 172.84 136.824 172.84 131.175C172.84 127.71 172.945 124.246 173.156 120.781C173.367 117.015 173.965 113.363 174.949 109.823C176.004 106.207 177.585 103.044 179.695 100.333L182.015 98.977C186.514 96.6422 191.435 95.4748 196.779 95.4748C200.153 95.4748 203.317 95.9643 206.27 96.9435C209.293 97.8473 211.929 99.203 214.179 101.011C216.64 103.421 218.257 105.793 219.03 108.128C219.874 110.538 220.471 112.948 220.823 115.358ZM204.477 127.673L204.055 121.798C203.914 119.689 203.422 117.844 202.579 116.262C201.805 114.605 200.786 113.438 199.52 112.76C198.958 112.534 198.396 112.421 197.833 112.421C196.146 112.421 194.494 113.024 192.877 114.229C192.033 114.982 191.189 116.074 190.346 117.505C189.572 118.861 188.975 120.254 188.553 121.685C187.85 124.999 187.498 129.217 187.498 134.338C187.498 136.899 187.534 138.82 187.604 140.1V139.987C187.885 141.493 188.096 143.489 188.237 145.975L188.342 147.556C188.623 151.322 189.01 154.109 189.502 155.916V155.804C190.135 157.31 191.049 158.477 192.244 159.306C193.509 160.059 194.845 160.435 196.251 160.435C197.376 160.435 198.501 160.172 199.626 159.645C200.821 159.042 201.841 158.214 202.684 157.159C203.387 156.18 203.809 155.352 203.95 154.674C204.161 153.996 204.266 152.941 204.266 151.51C204.266 150.23 204.301 149.289 204.371 148.686L204.477 147.217L204.582 145.071V143.489L204.688 141.343V135.92L204.477 128.238V127.673Z" fill="#DFE7EB"/>
<path d="M275.069 119.877C275.069 121.308 275.034 122.325 274.964 122.928C274.472 127.221 272.925 131.175 270.324 134.79C267.723 138.405 264.489 141.267 260.622 143.376C256.755 145.41 252.678 146.427 248.389 146.427C248.178 146.427 247.897 146.464 247.545 146.54C247.194 146.54 246.772 146.502 246.28 146.427C246.35 147.33 246.35 148.234 246.28 149.138C246.28 150.042 246.28 150.87 246.28 151.623V174.557L245.12 174.67C243.222 175.273 239.917 175.574 235.207 175.574C231.692 175.574 228.458 175.386 225.505 175.009C225.224 167.704 225.083 155.013 225.083 136.937V123.267C225.083 110.99 224.978 102.065 224.767 96.4916C230.18 94.8346 235.84 94.0061 241.745 94.0061C250.814 94.0061 258.513 96.0773 264.84 100.22C271.238 104.287 274.648 110.802 275.069 119.764V119.877ZM254.189 114.794C253.064 113.739 251.834 113.061 250.498 112.76C249.162 112.459 247.791 112.308 246.385 112.308C245.049 112.233 244.03 112.195 243.327 112.195C243.397 113.4 243.432 115.434 243.432 118.296V119.313C243.432 121.572 243.468 123.455 243.538 124.961C243.679 126.392 243.925 127.673 244.276 128.802H245.753C246.245 128.802 247.264 128.802 248.811 128.802C250.428 128.802 251.799 128.576 252.924 128.125C254.119 127.673 255.033 126.92 255.665 125.865C256.369 124.585 256.72 123.116 256.72 121.459C256.72 119.426 256.158 117.543 255.033 115.81L254.189 114.794Z" fill="#DFE7EB"/>
<path fill-rule="evenodd" clip-rule="evenodd" d="M117.964 122.25C118.385 119.84 118.596 117.882 118.596 116.376C118.596 113.458 118.089 110.822 117.075 108.467C116.702 107.601 116.26 106.772 115.749 105.982C114.719 104.387 113.491 102.959 112.067 101.698C110.868 100.635 109.529 99.6908 108.051 98.8645C103.692 96.7556 98.8759 95.7012 93.6031 95.7012C89.5255 95.7012 86.1157 96.3037 83.3738 97.5088C78.9446 99.4671 75.3239 102.63 72.5118 106.999C69.7699 111.292 68.399 115.886 68.399 120.782C68.399 123.794 69.0317 126.807 70.2972 129.82L61.901 134.5C60.0913 130.192 59.0715 125.588 59.0715 120.782C59.0715 113.389 61.1885 106.597 64.9986 100.631L65.0091 100.615L65.0196 100.598C68.893 94.5815 73.9563 90.1634 80.0316 87.4774L80.0489 87.4698C84.1783 85.6549 88.7997 84.9563 93.6031 84.9563C99.9732 84.9563 106.035 86.2353 111.663 88.9579L111.895 89.0705L112.122 89.1975C112.194 89.2376 112.266 89.278 112.337 89.3187L112.456 85.239L133.321 84.8434H133.397C135.996 84.8434 138.599 85.2173 141.116 86.116L143.925 87.1191L146.887 86.1533C149.14 85.4184 151.641 84.9157 154.288 84.5721C156.93 84.2289 159.529 84.0525 162.082 84.0525C164.177 84.0525 166.13 84.1349 167.902 84.3247L176.023 85.1947L176.206 90.324L177.988 89.2827L178.184 89.1807C183.985 86.1706 190.226 84.7304 196.779 84.7304C200.9 84.7304 204.899 85.323 208.732 86.5794C210.969 87.2566 213.12 88.1477 215.158 89.2754L215.122 88.3266L222.372 86.1075C228.608 84.1987 235.076 83.2617 241.746 83.2617C252.017 83.2617 261.373 85.6064 269.4 90.8461C278.798 96.8457 283.803 106.839 284.384 119.183L284.398 119.474V119.878C284.398 121.313 284.371 122.956 284.212 124.335C283.471 130.801 281.129 136.612 277.506 141.648C273.992 146.531 269.65 150.342 264.614 153.088L264.555 153.12L264.496 153.151C261.625 154.661 258.657 155.746 255.608 156.406V184.433L246.622 185.308C243.495 186.106 239.46 186.32 235.208 186.32C231.41 186.32 227.828 186.116 224.479 185.689L216.541 184.677L216.443 182.118C216.053 182.367 215.66 182.603 215.266 182.828C212.54 184.385 209.63 185.604 206.568 186.521C202.977 187.653 199.073 188.127 194.987 188.127C193.456 188.127 191.952 188.099 190.8 187.974C186.59 187.595 182.567 186.601 178.828 184.855L178.699 184.794L178.572 184.73C178.316 184.6 178.062 184.466 177.811 184.327L171.348 185.509C167.78 186.161 163.438 186.432 158.496 186.432C156.271 186.432 154.301 186.503 152.576 186.635L144.008 187.29L143.649 184.538C140.741 185.994 137.66 186.545 134.663 186.545C133.21 186.545 131.545 186.45 129.724 186.287L129.605 186.277L128.537 186.15C127.948 186.08 127.507 186.033 127.193 186.005C127.14 186 127.093 185.996 127.052 185.993L115.053 186.796L114.578 180.261C113.63 181.011 112.636 181.704 111.6 182.342C106.389 185.546 100.723 187.11 94.7631 187.11C89.0538 187.11 83.4813 185.929 78.0951 183.602L78.0138 183.567L77.933 183.53C72.3981 181.003 67.6009 177.252 63.8274 172.146C59.6505 166.494 57.6635 159.695 58.0169 152.313V142.465L65.5028 141.082C64.0984 139.035 62.8857 136.844 61.901 134.5L70.2972 129.82C71.5627 132.832 73.4609 135.657 75.9918 138.293C76.8936 139.108 77.8576 139.808 78.8837 140.393C79.2052 140.577 79.5327 140.749 79.8664 140.91C79.88 140.916 79.8935 140.923 79.9071 140.929C81.1536 141.525 82.4849 141.965 83.9011 142.247L85.4829 142.586C85.8786 142.669 86.2653 142.754 86.643 142.842C89.6879 143.549 92.1485 144.405 94.0249 145.41C94.7262 145.786 95.3303 146.253 95.8373 146.812C96.8551 147.934 97.4813 149.425 97.7159 151.285C97.7862 151.662 97.8214 152.189 97.8214 152.867C97.8214 154.674 97.3292 156.068 96.345 157.047C95.431 158.026 94.271 158.515 92.8649 158.515C91.2479 158.515 89.8067 157.875 88.5412 156.595C87.8694 155.875 87.3753 155.001 87.0589 153.972C86.8124 153.17 86.6738 152.274 86.643 151.285C85.7224 151.285 84.8772 151.282 84.1072 151.277C84.098 151.277 84.0889 151.277 84.0797 151.277C83.5304 151.273 83.0195 151.268 82.5472 151.261C82.5133 151.26 82.4795 151.26 82.4459 151.259C81.1642 151.241 80.1729 151.212 79.4719 151.172C78.681 151.132 77.7994 151.102 76.827 151.083C75.9841 151.067 75.0729 151.059 74.0936 151.059C71.633 151.059 69.3832 151.247 67.3444 151.624V152.641C67.161 155.735 67.6054 158.589 68.6776 161.203C68.813 161.533 68.9585 161.859 69.1139 162.181C69.6151 163.221 70.2205 164.221 70.9299 165.181C73.6015 168.796 77.0816 171.583 81.3701 173.541C85.729 175.424 90.1933 176.365 94.7631 176.365C99.2626 176.365 103.411 175.198 107.207 172.863C109.849 171.238 112.015 169.157 113.704 166.62C114.441 165.512 115.088 164.316 115.644 163.034C117.261 159.344 118.069 155.54 118.069 151.624C118.069 149.48 117.721 147.301 117.024 145.089C116.987 144.97 116.948 144.851 116.909 144.732C116.136 142.322 115.081 140.138 113.745 138.18C113.355 137.641 112.942 137.113 112.507 136.598C111.669 135.606 110.748 134.659 109.743 133.757C109.171 133.243 108.572 132.744 107.945 132.259C107.051 131.567 106.102 130.904 105.098 130.272C102.606 128.701 100.13 127.549 97.6719 126.815C96.5936 126.494 95.5185 126.252 94.4468 126.092C93.111 125.866 91.951 125.451 90.9667 124.849C90.2475 124.375 89.659 123.598 89.201 122.517C89.0769 122.225 88.9625 121.91 88.8576 121.573V121.347L88.7521 120.33C88.7521 119.803 88.8576 119.2 89.0685 118.522C89.2091 117.091 89.6661 116.037 90.4394 115.359C91.2831 114.606 92.2322 114.229 93.2867 114.229C94.6495 114.229 95.8924 114.71 97.0155 115.673C97.1092 115.753 97.2021 115.837 97.2941 115.924C98.4893 117.054 99.0869 118.485 99.0869 120.217C99.0869 120.518 99.0166 121.045 98.8759 121.798C99.7989 122.092 100.775 122.334 101.804 122.524C103.675 122.869 105.723 123.041 107.945 123.041C108.021 123.041 108.096 123.041 108.171 123.041C108.292 123.04 108.413 123.039 108.533 123.038C109.743 123.023 110.958 122.961 112.18 122.854C112.277 122.845 112.374 122.836 112.471 122.827C113.872 122.696 115.281 122.503 116.698 122.25H117.964ZM121.725 132.523C121.729 132.68 121.733 132.837 121.737 132.995C121.821 136.069 121.918 139.232 122.03 142.482C122.031 142.505 122.032 142.528 122.032 142.551C122.059 143.311 122.086 144.076 122.113 144.845C122.199 147.208 122.284 149.467 122.369 151.624C122.608 157.66 122.847 162.89 123.085 167.314C123.086 167.331 123.087 167.347 123.088 167.363C123.128 168.103 123.168 168.82 123.208 169.515C123.335 171.726 123.463 173.709 123.59 175.462L126.965 175.236C127.386 175.236 128.23 175.311 129.495 175.462L130.445 175.575C132.132 175.725 133.538 175.801 134.663 175.801C136.983 175.801 138.951 175.311 140.568 174.332C140.92 171.997 141.096 168.57 141.096 164.051L140.99 161.114V158.176C140.92 156.52 140.885 153.996 140.885 150.607C140.885 149.44 140.922 148.233 140.997 146.986C141.019 146.627 141.043 146.265 141.071 145.899C141.109 145.404 141.152 144.902 141.201 144.394C142.326 144.092 143.943 143.942 146.052 143.942L150.06 144.168C150.123 144.605 150.184 145.066 150.241 145.552C150.286 145.932 150.329 146.326 150.371 146.735C150.688 149.866 150.9 153.868 151.009 158.741C151.22 166.951 151.536 172.675 151.958 175.914C153.926 175.763 156.106 175.688 158.496 175.688C162.591 175.688 165.995 175.488 168.708 175.09C169.116 175.03 169.509 174.966 169.885 174.897L167.038 95.0234C165.632 94.8727 163.98 94.7974 162.082 94.7974C159.902 94.7974 157.652 94.948 155.332 95.2493C153.012 95.5506 151.044 95.9648 149.427 96.492C149.638 101.011 149.743 105.229 149.743 109.145C149.743 112.865 149.624 116.675 149.386 120.577C149.321 121.641 149.247 122.711 149.165 123.788C149.115 124.441 149.061 125.095 149.005 125.753H148.794C148.161 125.828 147.493 125.941 146.79 126.092C146.158 126.242 145.49 126.317 144.787 126.317L140.779 125.866C140.712 125.503 140.647 125.146 140.584 124.792C140.354 123.486 140.16 122.238 140.003 121.048C139.892 120.215 139.8 119.411 139.725 118.635C139.514 116.376 139.338 113.589 139.197 110.275L139.092 107.564C138.951 103.346 138.705 99.6177 138.354 96.3791C136.877 95.8518 135.225 95.5882 133.397 95.5882L121.481 95.8142C121.47 96.1924 121.46 96.6151 121.45 97.0824C121.428 98.1857 121.411 99.5372 121.399 101.137C121.383 103.177 121.375 105.62 121.375 108.467C121.375 111.017 121.389 113.653 121.418 116.376C121.441 118.553 121.472 120.786 121.513 123.075C121.567 126.125 121.638 129.275 121.725 132.523ZM173.157 120.782C172.946 124.246 172.841 127.711 172.841 131.175C172.841 136.824 173.016 142.737 173.368 148.913C173.368 150.795 173.403 152.038 173.473 152.641L173.684 156.256C173.825 161.377 174.739 165.633 176.426 169.022C177.12 170.426 178.025 171.649 179.142 172.691C180.062 173.549 181.125 174.284 182.332 174.897C185.074 176.177 188.167 176.968 191.612 177.269C192.245 177.345 193.37 177.382 194.987 177.382C198.502 177.382 201.56 176.968 204.161 176.14C206.692 175.386 209.012 174.407 211.121 173.202C213.231 171.997 214.812 170.604 215.867 169.022C215.911 168.948 215.954 168.874 215.997 168.8C218.447 164.55 219.845 159.427 220.191 153.432L220.507 149.703C220.718 146.917 220.823 142.85 220.823 137.502C220.823 137.312 220.824 137.124 220.824 136.937C220.829 132.395 220.899 128.931 221.034 126.543V124.51L221.14 122.476C221.14 120.066 221.034 117.694 220.823 115.359C220.472 112.949 219.874 110.539 219.031 108.128C218.418 106.277 217.274 104.403 215.601 102.504C215.163 102.008 214.69 101.51 214.18 101.011C211.93 99.2034 209.294 97.8477 206.27 96.9439C203.318 95.9648 200.154 95.4753 196.779 95.4753C191.436 95.4753 186.515 96.6427 182.015 98.9775L179.695 100.333C178.554 101.801 177.567 103.401 176.734 105.133C176.028 106.602 175.434 108.165 174.95 109.823C173.966 113.363 173.368 117.016 173.157 120.782ZM203.95 154.674C204.161 153.996 204.267 152.942 204.267 151.511C204.267 150.231 204.302 149.289 204.372 148.687L204.478 147.218L204.583 145.071V143.49L204.689 141.343V135.92L204.478 128.238V127.673L204.056 121.798C203.915 119.69 203.423 117.844 202.579 116.263C201.806 114.606 200.787 113.438 199.521 112.76C198.959 112.535 198.396 112.422 197.834 112.422C196.147 112.422 194.494 113.024 192.877 114.229C192.034 114.982 191.19 116.074 190.346 117.505C189.573 118.861 188.976 120.254 188.554 121.685C187.851 124.999 187.499 129.217 187.499 134.339C187.499 136.171 187.517 137.675 187.553 138.851C187.566 139.272 187.581 139.651 187.599 139.987C187.599 139.988 187.599 139.987 187.599 139.987C187.601 140.025 187.603 140.064 187.605 140.1V139.987C187.611 140.024 187.618 140.061 187.625 140.099C187.625 140.099 187.625 140.098 187.625 140.099C187.645 140.209 187.665 140.322 187.684 140.437C187.926 141.883 188.11 143.729 188.237 145.975L188.343 147.557C188.519 149.913 188.736 151.886 188.994 153.475C189.141 154.374 189.3 155.15 189.473 155.804C189.474 155.809 189.475 155.814 189.476 155.819C189.485 155.852 189.494 155.885 189.503 155.917V155.804C189.517 155.837 189.531 155.869 189.545 155.902C189.547 155.907 189.549 155.912 189.551 155.917C189.787 156.459 190.06 156.957 190.37 157.409C190.89 158.168 191.515 158.8 192.245 159.306C193.51 160.059 194.846 160.436 196.252 160.436C197.377 160.436 198.502 160.172 199.627 159.645C200.822 159.043 201.841 158.214 202.685 157.16C203.388 156.181 203.81 155.352 203.95 154.674ZM224.978 105.366C224.979 105.415 224.98 105.464 224.981 105.513C225.019 108.186 225.046 111.195 225.063 114.538C225.064 114.642 225.064 114.746 225.065 114.85C225.076 117.225 225.083 119.767 225.084 122.476C225.084 122.567 225.084 122.657 225.084 122.748C225.084 122.92 225.084 123.093 225.084 123.267V136.937C225.084 137.126 225.084 137.314 225.084 137.502C225.085 142.072 225.094 146.293 225.113 150.166C225.113 150.185 225.114 150.203 225.114 150.222C225.12 151.453 225.127 152.649 225.135 153.81C225.135 153.869 225.135 153.929 225.136 153.988C225.186 161.244 225.272 167.113 225.395 171.593C225.429 172.839 225.466 173.978 225.506 175.01C228.458 175.386 231.692 175.575 235.208 175.575C239.918 175.575 243.222 175.273 245.121 174.671L246.281 174.558V149.138C246.351 148.235 246.351 147.331 246.281 146.427C246.773 146.502 247.195 146.54 247.546 146.54C247.898 146.465 248.179 146.427 248.39 146.427C250.76 146.427 253.066 146.116 255.307 145.495C257.121 144.993 258.893 144.286 260.623 143.377C264.489 141.268 267.723 138.406 270.325 134.791C272.926 131.175 274.473 127.221 274.965 122.928C275.035 122.326 275.07 121.309 275.07 119.878V119.765C274.648 110.802 271.239 104.287 264.841 100.22C258.514 96.0778 250.815 94.0066 241.746 94.0066C235.84 94.0066 230.181 94.8351 224.767 96.492C224.789 97.0729 224.81 97.6902 224.83 98.344C224.89 100.344 224.94 102.684 224.978 105.366ZM243.47 122.941C243.446 121.865 243.433 120.655 243.433 119.313V118.296C243.433 115.434 243.398 113.401 243.328 112.196C244.031 112.196 245.05 112.233 246.386 112.309C247.792 112.309 249.163 112.459 250.499 112.76C251.274 112.935 252.013 113.237 252.717 113.665C253.227 113.975 253.718 114.351 254.19 114.794L255.033 115.811C256.158 117.543 256.721 119.426 256.721 121.46C256.721 123.117 256.369 124.585 255.666 125.866C255.033 126.92 254.12 127.673 252.924 128.125C251.799 128.577 250.429 128.803 248.812 128.803H244.277C243.925 127.673 243.679 126.393 243.539 124.962C243.51 124.35 243.487 123.677 243.47 122.941Z" fill="#192C32"/>
<path d="M233.743 99.1209C230.861 99.6481 227.065 99.9117 222.354 99.9117C219.964 99.9117 217.784 99.9871 215.816 100.138C215.394 96.8991 215.078 91.175 214.867 82.9655C214.726 76.6389 214.41 71.7809 213.918 68.3917L209.91 68.1657C207.801 68.1657 206.184 68.3164 205.059 68.6176C204.848 70.8018 204.743 72.873 204.743 74.8313C204.743 78.2205 204.778 80.7436 204.848 82.4006V85.3379L204.954 88.2753C204.954 92.7943 204.778 96.2212 204.427 98.556C202.81 99.5352 200.841 100.025 198.521 100.025C197.396 100.025 195.99 99.9494 194.303 99.7988L193.354 99.6858C192.088 99.5352 191.244 99.4598 190.823 99.4598L187.448 99.6858C186.956 92.9073 186.464 82.7019 185.972 69.0695C185.479 55.4372 185.233 43.3112 185.233 32.6915C185.233 26.6662 185.269 22.4485 185.339 20.0383L197.255 19.8124C199.083 19.8124 200.736 20.076 202.212 20.6032C202.563 23.8418 202.81 27.57 202.95 31.7877L203.056 34.4991C203.196 37.8131 203.372 40.5998 203.583 42.8593C203.794 45.0435 204.145 47.4536 204.637 50.0897L208.645 50.5416C209.348 50.5416 210.016 50.4663 210.648 50.3157C211.352 50.165 212.019 50.052 212.652 49.9767H212.863C213.355 44.2527 213.601 38.7169 213.601 33.3694C213.601 29.4529 213.496 25.2352 213.285 20.7162C214.902 20.1889 216.87 19.7747 219.19 19.4734C221.511 19.1722 223.76 19.0215 225.94 19.0215C227.838 19.0215 229.49 19.0969 230.896 19.2475L233.743 99.1209Z" fill="#DFE7EB"/>
<path d="M284.682 39.583C284.892 41.9178 284.998 44.2903 284.998 46.7005L284.892 48.734V50.7676C284.752 53.253 284.682 56.9059 284.682 61.7261C284.682 67.0736 284.576 71.1407 284.365 73.9275L284.049 77.6556C283.697 83.7563 282.256 88.9532 279.725 93.2462C278.671 94.8279 277.089 96.2212 274.98 97.4263C272.87 98.6314 270.55 99.6105 268.019 100.364C265.418 101.192 262.36 101.606 258.845 101.606C257.228 101.606 256.103 101.569 255.47 101.493C252.025 101.192 248.932 100.401 246.19 99.1209C243.518 97.7652 241.55 95.807 240.284 93.2462C238.597 89.857 237.683 85.6016 237.542 80.48L237.331 76.8648C237.261 76.2623 237.226 75.0196 237.226 73.1366C236.875 66.9607 236.699 61.0483 236.699 55.3995C236.699 51.935 236.804 48.4704 237.015 45.0058C237.226 41.24 237.824 37.5871 238.808 34.0472C239.862 30.432 241.444 27.2687 243.553 24.5573L245.873 23.2016C250.373 20.8668 255.294 19.6994 260.637 19.6994C264.012 19.6994 267.176 20.189 270.129 21.1681C273.152 22.0719 275.788 23.4276 278.038 25.2352C280.498 27.6453 282.115 30.0178 282.889 32.3526C283.732 34.7627 284.33 37.1729 284.682 39.583ZM268.336 51.8973L267.914 46.0226C267.773 43.9137 267.281 42.0685 266.438 40.4868C265.664 38.8298 264.645 37.6624 263.379 36.9846C262.817 36.7586 262.254 36.6457 261.692 36.6457C260.005 36.6457 258.353 37.2482 256.736 38.4533C255.892 39.2064 255.048 40.2985 254.205 41.7295C253.431 43.0852 252.834 44.4786 252.412 45.9096C251.709 49.2236 251.357 53.4413 251.357 58.5628C251.357 61.1236 251.392 63.0442 251.463 64.3246V64.2116C251.744 65.7179 251.955 67.7138 252.095 70.1993L252.201 71.7809C252.482 75.5468 252.869 78.3335 253.361 80.1411V80.0281C253.994 81.5345 254.908 82.7019 256.103 83.5303C257.368 84.2835 258.704 84.6601 260.11 84.6601C261.235 84.6601 262.36 84.3965 263.485 83.8693C264.68 83.2667 265.699 82.4383 266.543 81.3838C267.246 80.4047 267.668 79.5762 267.808 78.8984C268.019 78.2205 268.125 77.1661 268.125 75.7351C268.125 74.4547 268.16 73.5132 268.23 72.9107L268.336 71.442L268.441 69.2955V67.7138L268.547 65.5673V60.1445L268.336 52.4622V51.8973Z" fill="#DFE7EB"/>
<path d="M338.928 44.102C338.928 45.533 338.893 46.5498 338.823 47.1523C338.331 51.4454 336.784 55.3995 334.183 59.0147C331.582 62.6299 328.347 65.492 324.481 67.6009C320.614 69.6344 316.536 70.6512 312.248 70.6512C312.037 70.6512 311.756 70.6888 311.404 70.7642C311.053 70.7642 310.631 70.7265 310.139 70.6512C310.209 71.555 310.209 72.4588 310.139 73.3626C310.139 74.2664 310.139 75.0949 310.139 75.848V98.782L308.979 98.895C307.08 99.4975 303.776 99.7988 299.066 99.7988C295.55 99.7988 292.316 99.6105 289.364 99.2339C289.082 91.9282 288.942 79.2373 288.942 61.1613V47.4913C288.942 35.2146 288.836 26.2896 288.625 20.7162C294.039 19.0592 299.698 18.2307 305.604 18.2307C314.673 18.2307 322.372 20.3019 328.699 24.4443C335.097 28.5115 338.507 35.0264 338.928 43.989V44.102ZM318.048 39.0181C316.923 37.9637 315.693 37.2859 314.357 36.9846C313.021 36.6833 311.65 36.5327 310.244 36.5327C308.908 36.4574 307.889 36.4197 307.186 36.4197C307.256 37.6248 307.291 39.6583 307.291 42.5204V43.5371C307.291 45.7966 307.326 47.6796 307.397 49.1859C307.537 50.6169 307.783 51.8973 308.135 53.0271H309.611C310.103 53.0271 311.123 53.0271 312.67 53.0271C314.287 53.0271 315.658 52.8011 316.782 52.3492C317.978 51.8973 318.892 51.1441 319.524 50.0897C320.227 48.8093 320.579 47.3406 320.579 45.6837C320.579 43.6501 320.016 41.7672 318.892 40.0349L318.048 39.0181Z" fill="#DFE7EB"/>
<path fill-rule="evenodd" clip-rule="evenodd" d="M241.666 107.91L235.214 109.091C231.643 109.744 227.298 110.015 222.354 110.015C220.13 110.015 218.162 110.085 216.438 110.217L208.046 110.859L207.678 108.037C204.733 109.551 201.589 110.128 198.521 110.128C197.066 110.128 195.399 110.032 193.578 109.87L193.458 109.859L192.39 109.732C191.801 109.662 191.36 109.615 191.047 109.587C190.995 109.583 190.949 109.579 190.909 109.575L179.122 110.365L178.406 100.5C177.898 93.5095 177.401 83.1372 176.907 69.4751C176.412 55.7434 176.162 43.4779 176.162 32.6912C176.162 26.6703 176.196 22.303 176.272 19.71L176.552 10.0997L197.178 9.70861H197.255C199.86 9.70861 202.466 10.0837 204.982 10.9819L207.783 11.9822L210.736 11.0194C212.99 10.2846 215.491 9.7816 218.14 9.43766C220.784 9.09431 223.385 8.91778 225.94 8.91778C228.036 8.91778 229.991 9.00017 231.765 9.19015L239.646 10.0345L239.835 15.3203L241.848 14.1437L242.042 14.0431C247.832 11.039 254.073 9.59563 260.637 9.59563C264.763 9.59563 268.766 10.1893 272.599 11.4455C274.944 12.1553 277.188 13.0986 279.303 14.2986L279.258 13.1051L286.222 10.9736C292.458 9.06479 298.928 8.12695 305.604 8.12695C315.89 8.12695 325.243 10.4774 333.247 15.7018C342.579 21.659 347.423 31.4685 347.987 43.4599L348 43.7241V44.1017C348 45.5402 347.972 47.1316 347.82 48.4429C347.1 54.7064 344.828 60.3759 341.262 65.3327C337.796 70.1496 333.493 73.9351 328.47 76.6745L328.412 76.7061L328.354 76.7367C325.407 78.2865 322.353 79.3899 319.21 80.0435V108.04L310.487 108.89C307.358 109.688 303.319 109.902 299.066 109.902C295.266 109.902 291.682 109.699 288.332 109.271L280.632 108.29L280.527 105.557C280.063 105.86 279.593 106.145 279.12 106.416C276.403 107.968 273.497 109.186 270.435 110.102C266.844 111.235 262.936 111.71 258.845 111.71C257.314 111.71 255.808 111.681 254.654 111.556C250.438 111.177 246.414 110.181 242.682 108.438L242.555 108.379L242.429 108.315C242.172 108.184 241.918 108.05 241.666 107.91ZM242.734 96.6597C243.713 97.6281 244.865 98.4484 246.19 99.1206C248.932 100.401 252.025 101.192 255.47 101.493C256.103 101.568 257.228 101.606 258.845 101.606C262.36 101.606 265.418 101.192 268.019 100.363C270.55 99.6102 272.87 98.6311 274.98 97.426C277.089 96.2209 278.671 94.8276 279.725 93.2459C279.853 93.0281 279.979 92.8079 280.102 92.5855C282.399 88.4232 283.715 83.4465 284.049 77.6553L284.365 73.9272C284.576 71.1404 284.682 67.0733 284.682 61.7259C284.682 61.5357 284.682 61.3475 284.682 61.161C284.687 56.6193 284.757 53.1547 284.892 50.7673V48.7337L284.998 46.7002C284.998 44.29 284.892 41.9175 284.682 39.5827C284.33 37.1726 283.732 34.7625 282.889 32.3523C282.308 30.5996 281.252 28.8256 279.721 27.0304C279.212 26.4342 278.651 25.8357 278.038 25.2349C275.788 23.4273 273.152 22.0716 270.129 21.1678C267.176 20.1887 264.012 19.6991 260.637 19.6991C255.294 19.6991 250.373 20.8665 245.873 23.2013L243.553 24.557C242.301 26.1674 241.234 27.9372 240.353 29.8664C239.751 31.1854 239.236 32.5789 238.808 34.0469C237.824 37.5868 237.226 41.2397 237.015 45.0055C236.804 48.4701 236.699 51.9347 236.699 55.3992C236.699 61.048 236.875 66.9604 237.226 73.1363C237.226 75.0193 237.261 76.262 237.331 76.8645L237.542 80.4797C237.683 85.6013 238.597 89.8567 240.284 93.2459C240.922 94.537 241.739 95.6749 242.734 96.6597ZM230.896 19.2472C229.49 19.0966 227.838 19.0213 225.94 19.0213C223.76 19.0213 221.511 19.1719 219.19 19.4732C216.87 19.7744 214.902 20.1887 213.285 20.7159C213.496 25.2349 213.601 29.4526 213.601 33.3691C213.601 37.4754 213.456 41.6928 213.166 46.0211C213.119 46.7278 213.067 47.4374 213.012 48.15C212.965 48.7567 212.916 49.3655 212.863 49.9764H212.652C212.019 50.0518 211.352 50.1647 210.648 50.3154C210.016 50.466 209.348 50.5413 208.645 50.5413L204.637 50.0894C204.574 49.749 204.513 49.4124 204.454 49.0796C204.297 48.1926 204.157 47.3323 204.033 46.4988C203.844 45.2229 203.694 44.0096 203.583 42.859C203.372 40.5995 203.196 37.8128 203.056 34.4988L202.95 31.7874C202.81 27.5697 202.563 23.8415 202.212 20.6029C200.736 20.0757 199.083 19.8121 197.255 19.8121L185.339 20.038C185.269 22.4482 185.233 26.6659 185.233 32.6912C185.233 43.3109 185.479 55.4369 185.972 69.0692C186.464 82.7016 186.956 92.907 187.448 99.6855L190.823 99.4595C191.244 99.4595 192.088 99.5349 193.354 99.6855L194.303 99.7985C195.99 99.9491 197.396 100.024 198.521 100.024C200.841 100.024 202.81 99.5349 204.427 98.5558C204.778 96.2209 204.954 92.794 204.954 88.275L204.848 85.3377V82.4003C204.778 80.7433 204.743 78.2202 204.743 74.831C204.743 72.8727 204.848 70.8015 205.059 68.6173C206.184 68.3161 207.801 68.1654 209.91 68.1654L213.918 68.3914C214.41 71.7806 214.726 76.6386 214.867 82.9652C215.078 91.1747 215.394 96.8988 215.816 100.137C217.784 99.9868 219.964 99.9115 222.354 99.9115C226.638 99.9115 230.167 99.6934 232.939 99.2573C233.214 99.2139 233.483 99.1683 233.743 99.1206L230.896 19.2472ZM266.438 40.4865C265.664 38.8296 264.645 37.6621 263.379 36.9843C262.817 36.7583 262.254 36.6454 261.692 36.6454C260.005 36.6454 258.353 37.2479 256.736 38.453C255.892 39.2061 255.048 40.2982 254.205 41.7293C253.431 43.085 252.834 44.4783 252.412 45.9093C251.709 49.2233 251.357 53.441 251.357 58.5626C251.357 60.4479 251.376 61.9863 251.414 63.1776C251.427 63.5574 251.441 63.902 251.457 64.2113C251.457 64.2118 251.457 64.2108 251.457 64.2113C251.459 64.249 251.461 64.2876 251.463 64.3243V64.2113C251.47 64.2482 251.476 64.2854 251.483 64.3229C251.483 64.3234 251.483 64.3224 251.483 64.3229C251.501 64.4228 251.519 64.5263 251.537 64.6304C251.781 66.0813 251.967 67.9375 252.095 70.199L252.201 71.7806C252.384 74.2365 252.613 76.276 252.886 77.899C253.023 78.7135 253.171 79.4231 253.331 80.0278C253.332 80.0325 253.333 80.0371 253.334 80.0417C253.343 80.0751 253.352 80.1081 253.361 80.1408V80.0278C253.375 80.0609 253.389 80.0938 253.403 80.1266C253.405 80.1313 253.407 80.1361 253.409 80.1408C253.623 80.6342 253.869 81.0905 254.145 81.5095C254.681 82.3234 255.334 82.9969 256.103 83.5301C257.368 84.2832 258.704 84.6598 260.11 84.6598C261.235 84.6598 262.36 84.3962 263.485 83.869C264.68 83.2664 265.699 82.438 266.543 81.3835C267.246 80.4044 267.668 79.5759 267.808 78.8981C268.019 78.2202 268.125 77.1658 268.125 75.7348C268.125 74.4544 268.16 73.5129 268.23 72.9104L268.336 71.4417L268.441 69.2952V67.7135L268.547 65.567V60.1442L268.336 52.4619V51.897L267.914 46.0223C267.773 43.9134 267.281 42.0682 266.438 40.4865ZM288.839 29.7686C288.84 29.8146 288.84 29.8606 288.841 29.9067C288.878 32.5514 288.905 35.521 288.922 38.8156C288.922 38.9126 288.923 39.0099 288.923 39.1074C288.934 41.4728 288.941 44.0037 288.942 46.7002C288.942 46.7846 288.942 46.8691 288.942 46.9539C288.942 47.1322 288.942 47.3112 288.942 47.491V61.161C288.942 61.3499 288.942 61.5382 288.942 61.7259C288.943 66.2838 288.952 70.4951 288.971 74.3596C288.971 74.3771 288.971 74.3946 288.972 74.4121C288.978 75.6464 288.985 76.8452 288.992 78.0087C288.993 78.0645 288.993 78.1202 288.994 78.1759C289.041 85.05 289.121 90.6803 289.233 95.0666C289.273 96.6095 289.316 97.9985 289.364 99.2336C292.316 99.6102 295.55 99.7985 299.066 99.7985C303.776 99.7985 307.08 99.4972 308.979 98.8947L310.139 98.7817V73.3623C310.209 72.4585 310.209 71.5547 310.139 70.6509C310.631 70.7262 311.053 70.7639 311.404 70.7639C311.756 70.6885 312.037 70.6509 312.248 70.6509C314.494 70.6509 316.683 70.3719 318.814 69.8138C320.751 69.3066 322.64 68.5688 324.481 67.6006C328.347 65.4917 331.581 62.6297 334.183 59.0145C336.784 55.3992 338.331 51.4451 338.823 47.1521C338.893 46.5495 338.928 45.5328 338.928 44.1017V43.9888C338.506 35.0261 335.097 28.5112 328.699 24.4441C322.372 20.3016 314.673 18.2304 305.604 18.2304C299.698 18.2304 294.039 19.0589 288.625 20.7159C288.655 21.5084 288.683 22.3688 288.709 23.2969C288.761 25.1763 288.804 27.3335 288.839 29.7686ZM307.315 46.5235C307.299 45.6143 307.291 44.6187 307.291 43.5369V42.5201C307.291 39.658 307.256 37.6245 307.186 36.4194C307.889 36.4194 308.908 36.4571 310.244 36.5324C311.65 36.5324 313.021 36.683 314.357 36.9843C315.037 37.1377 315.69 37.3888 316.315 37.7374C316.918 38.0735 317.496 38.5003 318.048 39.0178L318.892 40.0346C320.016 41.7669 320.579 43.6498 320.579 45.6834C320.579 47.3404 320.227 48.809 319.524 50.0894C318.892 51.1438 317.978 51.897 316.782 52.3489C315.658 52.8008 314.287 53.0268 312.67 53.0268H308.135C307.783 51.897 307.537 50.6166 307.397 49.1856C307.36 48.4005 307.333 47.5132 307.315 46.5235Z" fill="#192C32"/>
</svg>
