<?xml version="1.0" encoding="utf-8"?>
<!-- Generator: Adobe Illustrator 23.0.1, SVG Export Plug-In . SVG Version: 6.00 Build 0)  -->
<svg version="1.1" id="Слой_1" xmlns="http://www.w3.org/2000/svg" xmlns:xlink="http://www.w3.org/1999/xlink" x="0px" y="0px"
	 viewBox="0 0 186.3 232" style="enable-background:new 0 0 186.3 232;" xml:space="preserve">
<style type="text/css">
	.st0{fill:#F2DECD;}
	.st1{fill:#192C32;}
	.st2{fill:#DFE7EB;}
	.st3{clip-path:url(#SVGID_2_);}
</style>
<path class="st0" d="M62.3,193.3l-12-16l-14,14l6.5,8.5l7.5,5l4,8.5l-2.5,3.5l7.5,6h6.5h3.5l8.5-4.5l8,10.5l2.5-2v-4l-8-11.5
	l-7.5-10L62.3,193.3z"/>
<path class="st0" d="M134,192.7l9.3-17.7l16,11.6l-5,9.4l-6.6,6.1l-1.8,6.8l2.8,2.8l-7,9.7l-6.4,1l-3.5,0.6l-9.1-3.1l-6.2,11.6
	l-2.8-1.6l-0.6-3.9l6.1-12.6l5.8-11.1L134,192.7z"/>
<path class="st1" d="M139.1,130l2,30.2c0.1,0.8-0.2,1.6-0.8,2.2c-0.6,0.6-1.4,0.9-2.2,0.9H58.2c-0.8,0-1.6-0.4-2.2-1
	c-0.6-0.6-0.8-1.5-0.8-2.3l2.2-24.3l-14,15.1L58.8,174c0.7,1.1,0.7,2.5-0.1,3.5l-3.7,4.7c3.2,2.9,6.3,5.8,9.5,8.7l0,0l0,0l0,0
	c3.1,2.8,6.2,5.7,9.3,8.6l0,0c0.2,0.2,0.5,0.5,0.7,0.7c1.6,1.5,3.3,3.2,4.6,5l0,0c3.3,4.9,6.6,9.9,9.7,14.9l0,0l0,0l0,0l0,0l0,0
	c0.6,1,1.3,2,1.9,2.9l0.1,0.1v3.4l-0.1,0.1c-0.6,1.1-1.5,1.9-2.4,2.1c-1,0.3-2.1,0-3.1-0.9c-1.1-0.9-1.9-2-2.8-3l0,0l0,0l0,0
	c-0.3-0.3-0.5-0.6-0.8-0.9l0,0c-0.7-0.9-1.4-1.7-2-2.6l-0.3-0.3c-0.4-0.6-0.9-1.1-1.2-1.6c-0.7,0.2-1.4,0.4-2,0.5l0,0l0,0l0,0l0,0
	l0,0c-0.4,0.1-0.7,0.2-1.1,0.2c-1,0.3-1.7,0.5-2.1,1c-1.4,1.8-3.2,2.3-4.9,2.5c-0.7,0.1-1.3,0.1-2,0.1c-0.2,0-0.3,0-0.5,0
	c-0.8,0-1.6,0-2.3,0.2c-2.1,0.4-4-0.2-5.7-1.3s-3.2-2.7-4.5-4.3c-1.1-1.4-1.8-2.5-1.8-3.7c0-1.1,0.7-2.2,1.7-3.5
	c-2.5-5.3-6.7-9-10.9-12.5l-2.1,2.6c-0.6,0.8-1.5,1.2-2.5,1.2s-1.8-0.5-2.4-1.3L0.5,149.9c-0.7-1.1-0.7-2.5,0.1-3.5l42.8-54
	c0.3-0.4,0.7-0.7,1.2-0.9l34.1-14.1c0.4-0.2,0.8-0.2,1.2-0.2h48.8c0.5,0,1,0.1,1.4,0.4l30.6,16.3c0.4,0.2,0.8,0.6,1.1,0.9l24,34.9
	c0.6,0.8,0.7,1.9,0.3,2.8L163.3,188c-0.6,1.4-2.1,2.2-3.6,1.7l-2.3-0.6c0.2,0.3,0.5,0.6,0.7,0.8l0.4,0.3l-0.3,0.4
	c-0.3,0.4-0.6,0.7-1,1.1l0,0l0,0l0,0c-4.2,4.8-8.4,9.7-10.3,16.2c1.3,1.1,2.1,2,2.3,3.2c0.2,1.2-0.2,2.4-1.1,4
	c-1,1.8-2.2,3.7-3.7,5.1c-1.5,1.4-3.3,2.3-5.4,2.3c-0.7,0-1.5,0.1-2.3,0.2c-0.2,0-0.3,0.1-0.5,0.1l0,0l0,0c-0.6,0.1-1.3,0.2-2,0.3
	c-1.7,0.2-3.5,0-5.2-1.5c-0.4-0.4-1.2-0.5-2.2-0.6c-0.3,0-0.7,0-1.1-0.1c-0.7,0-1.4-0.1-2.1-0.1c-0.7,1.4-1.7,3.2-2.7,5
	c-0.2,0.3-0.3,0.6-0.5,1c-0.7,1.2-1.4,2.5-2.3,3.6l0,0c-0.9,1-1.8,1.5-2.9,1.4c-1-0.1-2-0.7-2.8-1.7l-0.1-0.1l-0.6-3.4l0.1-0.1
	c1.4-3.2,2.8-6.4,4.2-9.7v-0.1c1.4-3.3,2.8-6.6,4.3-9.9l0,0c1-2.2,2.5-4.2,3.9-6.1l0,0l0,0l0,0c0.1-0.2,0.3-0.3,0.4-0.5l0,0
	c2.5-3.3,5-6.5,7.4-9.8l0,0l0,0l0,0c1.8-2.3,3.6-4.7,5.4-7l-2-0.6c-0.9-0.3-1.6-0.9-2-1.8c-0.3-0.9-0.3-1.8,0.2-2.6l17.5-30.2
	L139.1,130z M140.5,184.2c-3.7,5.1-7.4,10.2-11.5,14.9c-6.3,7.2-9.5,15.8-12.9,24.5l0,0c-0.3,0.8-0.6,1.6-0.9,2.4
	c-0.1,0.4-0.2,0.9-0.1,1.5c0,0.2,0,0.4,0.1,0.6l0,0l0,0c0,0.3,0.1,0.6,0.1,0.9l0.5,0.1c2.6-4.5,5.2-9,8-13.9l0.5-0.8l0.4,0.8
	c0.6,1.1,1,1.9,1.3,2.5c0.4,0.6,0.6,0.8,0.8,0.9c0.2,0.1,0.4,0.1,0.9-0.1c0.5-0.2,1.1-0.5,1.9-1l0.4-0.2l0.3,0.4
	c0.6,0.9,1,1.6,1.4,2s0.6,0.5,0.7,0.5c0.2,0,0.4-0.1,1-0.6c0.5-0.5,1.1-1.1,2-2.1l0.4-0.5l0.3,0.6c0.5,0.8,0.9,1.3,1.3,1.7
	s0.7,0.6,1,0.6c0.3,0.1,0.7,0,1.2-0.2s1.1-0.6,1.8-1.2c1.5-1.2,2.7-2.8,3.9-4.5l0,0l0,0c0.2-0.2,0.3-0.5,0.5-0.7l-0.1,1
	c0.3-0.3,0.5-0.7,0.8-1c0.3-0.4,0.4-1.1,0.4-1.7l0,0l0,0c0-0.2,0-0.5,0.1-0.7c-0.2-0.1-0.3-0.1-0.4-0.2l0,0l0,0l0,0
	c-0.1-0.1-0.3-0.1-0.4-0.2l-1,0.8c-1.1,1.6-1.5,2.8-2.9,4.9l-0.7,0.5c-0.1-0.5-0.2-0.8-0.3-1.1l0,0v-0.1v-0.1c0-0.1-0.1-0.3-0.1-0.4
	c0-0.1,0-0.3,0-0.4l0,0l0,0c0.9-1.8,1.6-3.6,2.4-5.5c0.1-0.3,0.3-0.7,0.4-1l0,0l0,0c0.6-1.5,1.2-3,1.9-4.5c1.6-3.7,3.6-7.3,6.5-10.3
	l0,0c1.4-1.4,2.6-2.9,3.7-4.5L140.5,184.2z M43.7,196.6c0.5,0.4,1,0.8,1.6,1.2l0,0c3.4,2.5,5.9,5.7,8.1,9c0.9,1.3,1.7,2.7,2.6,4
	c0.2,0.3,0.4,0.7,0.7,1c1.1,1.7,2.1,3.3,3.3,4.9c0.1,0.2,0.2,0.3,0.2,0.4c0,0.1,0,0.3,0,0.4c0,0,0,0,0,0.1v0.1
	c0,0.3-0.1,0.6-0.1,1.2L60,220l-0.8-0.8c-1-1-1.8-1.8-2.6-2.6s-1.5-1.6-2.3-2.3l-0.1,0.1c0.1,0.2,0.1,0.4,0.2,0.6
	c0,0.1,0.1,0.3,0.1,0.4c0.1,0.4,0.2,0.7,0.4,0.8l0,0c0.3,0.3,0.6,0.6,0.9,0.8l0,0l0,0c1.5,1.5,3,2.9,4.7,3.8c0.8,0.4,1.5,0.7,2,0.9
	c0.5,0.1,0.9,0.1,1.2,0s0.6-0.4,0.9-0.8c0.3-0.5,0.6-1.1,0.9-1.9l0.2-0.6l0.5,0.4c1,0.8,1.8,1.3,2.3,1.7c0.6,0.4,0.9,0.4,1,0.4
	s0.3-0.1,0.6-0.6s0.6-1.2,1-2.2l0.2-0.4l0.4,0.2c0.9,0.3,1.6,0.6,2.1,0.7c0.5,0.1,0.7,0,0.9-0.1s0.4-0.4,0.7-1
	c0.2-0.6,0.5-1.5,0.9-2.6l0,0l0,0l0,0l0.3-0.9l0.6,0.7c3.6,4.3,6.9,8.3,10.2,12.2l0.5-0.3c0-0.3-0.1-0.6-0.1-0.8s0-0.4-0.1-0.6
	c-0.1-0.6-0.2-1.1-0.4-1.4c-0.4-0.7-0.8-1.4-1.2-2.1l0,0l0,0c-4.8-8.1-9.4-16-16.9-21.9c-5.4-4.4-10.5-9.3-15.5-14.2
	c-0.2-0.2-0.4-0.4-0.7-0.6L43.7,196.6z M73.4,200c0.2,0.2,0.5,0.5,0.7,0.7L73.4,200z"/>
<path class="st0" d="M65.8,67.3c1.1-9.9-0.2-19.4,4.9-27.2c5.2-7.8,20.4-20.1,40.3-6.9c24.8,16.5,19.7,58.4,19.2,68.4
	c-0.5,9.9-15.6,18.5-28.2,20.6c-9.2,1.6-21.3-5-27.7-9.4c-1.2-0.8-2-2.1-2.3-3.6C70.3,101.4,64.9,75.7,65.8,67.3z"/>
<path class="st1" d="M68.8,60.1c-0.1,2.4-0.2,4.9-0.5,7.5c-0.2,1.8-0.1,4.7,0.3,8.4c0.4,3.6,1,7.8,1.7,12c1.4,8.4,3.2,16.7,4,20.6
	c0.2,0.9,0.7,1.6,1.3,2.1l-1.4,2.1c-1.2-0.8-2-2.1-2.3-3.6c-1.7-7.8-7.1-33.5-6.1-41.9c0.3-2.7,0.4-5.3,0.5-7.9
	c0.3-7,0.6-13.6,4.4-19.2c5.2-7.8,20.4-20.1,40.3-6.9c22.9,15.2,20.3,52.2,19.4,65.6c-0.1,1.1-0.1,2-0.2,2.8
	c-0.5,9.9-15.6,18.5-28.2,20.6c-9.2,1.6-21.3-5-27.7-9.4l1.4-2.1c3.1,2.1,7.6,4.8,12.4,6.7c4.8,1.9,9.7,3,13.6,2.3
	c6-1,12.6-3.6,17.7-7c5.2-3.5,8.2-7.5,8.4-11.2c0-0.8,0.1-1.8,0.2-2.9c0.4-6.2,1.2-17-0.3-28.4c-1.7-13.5-6.5-27.2-18-34.8
	c-9.3-6.2-17.3-6.3-23.5-4.1c-6.3,2.2-11,6.8-13.3,10.3c-2.2,3.4-3.1,7.2-3.6,11.6c-0.2,2-0.3,4.1-0.4,6.3
	C68.9,59.7,68.9,59.9,68.8,60.1z"/>
<path class="st1" d="M93.1,63.9c0.6,0.6,1.1,1.3,1.4,2.2c0.2,0.4,0.3,0.7,0.3,1.1c0.1,0.4,0.1,0.7,0.2,1.1c0,0.6,0.1,1.2,0,1.8
	c0,0.6,0,1.2,0,1.7c-0.1,1.3-0.1,2.5-0.1,3.7s0,2.4-0.2,3.6l-0.1,1.2c-0.1,0.8-0.2,1.7-0.4,2.5c-0.2,0.8-0.5,1.6-0.9,2.3
	c-0.4,0.6-0.9,1-1.5,1.4c-0.6,0.3-1.3,0.6-2,0.8c-0.6,0.2-1.3,0.3-1.9,0.4s-1.3,0.1-1.9,0c-0.5,0-0.9-0.1-1.4-0.2
	c-0.4-0.1-0.8-0.2-1.3-0.4c-0.4-0.2-0.7-0.4-1-0.7c-0.3-0.3-0.6-0.7-0.8-1.2c-0.3-0.6-0.5-1.2-0.6-1.9c-0.1-0.7-0.1-1.4-0.1-2.1
	c0-1.9-0.1-3.7-0.2-5.6c0-1.9,0-3.8,0.1-5.6c0-1.1,0.2-2.1,0.4-3.2c0.3-1.1,0.8-2.1,1.5-2.9c0.2-0.2,0.5-0.5,0.8-0.7
	c0.8-0.4,1.6-0.7,2.4-0.8c0.9-0.2,1.8-0.3,2.6-0.2c0.9,0,1.7,0.2,2.5,0.5C91.7,63,92.5,63.4,93.1,63.9z M90.7,76.6v-1.7v-2.4
	c0,0,0-0.3-0.1-0.7c0-0.5,0-0.9-0.1-1.3c0-0.7-0.2-1.3-0.5-1.8s-0.7-0.9-1.2-1.2c-0.5-0.2-0.9-0.2-1.4-0.1s-0.9,0.3-1.3,0.6
	c-0.8,0.7-1.3,1.5-1.6,2.5c-0.2,0.9-0.3,1.9-0.4,2.9c0,1,0,2,0,3c0.1,0.8,0.2,1.7,0.2,2.6s0.2,1.7,0.4,2.5c0.2,0.5,0.5,0.8,1,1.1
	c0.4,0.3,0.9,0.4,1.4,0.4s1-0.1,1.5-0.2c0.5-0.2,0.9-0.5,1.3-0.9c0.2-0.3,0.4-0.5,0.5-0.7s0.2-0.4,0.2-0.6s0-0.5,0-0.7
	c0-0.3,0-0.7,0.1-1.2c0-0.5,0-0.9,0-1.2C90.7,76.8,90.7,76.6,90.7,76.6z"/>
<path class="st2" d="M91.4,66.3c0.5,0.5,0.8,1.1,1,1.7c0.1,0.3,0.2,0.6,0.2,0.9c0.1,0.3,0.1,0.6,0.1,0.9c0,0.5,0,0.9,0,1.4
	s0,0.9,0,1.4c-0.1,1-0.1,2-0.1,2.9s0,1.9-0.1,2.9l-0.1,0.9c0,0.7-0.1,1.3-0.3,2c-0.2,0.7-0.4,1.3-0.7,1.8c-0.3,0.5-0.6,0.8-1.1,1.1
	c-0.4,0.3-0.9,0.5-1.4,0.6c-0.4,0.2-0.9,0.3-1.4,0.3c-0.4,0-0.9,0-1.4,0c-0.3,0-0.7-0.1-1-0.2s-0.6-0.2-0.9-0.3
	c-0.3-0.1-0.5-0.3-0.7-0.6c-0.2-0.2-0.4-0.6-0.5-0.9c-0.2-0.5-0.4-1-0.4-1.5c-0.1-0.5-0.1-1.1-0.1-1.7c0-1.5-0.1-3-0.1-4.4
	c0-1.5,0-3,0.1-4.5c0-0.9,0.1-1.7,0.3-2.6c0.2-0.9,0.5-1.6,1-2.3c0.2-0.2,0.3-0.4,0.6-0.5c0.5-0.3,1.1-0.5,1.7-0.7s1.2-0.2,1.8-0.2
	c0.6,0,1.2,0.2,1.8,0.4C90.4,65.6,90.9,65.9,91.4,66.3z"/>
<path class="st1" d="M90.8,83c-1.1,1.6-3.4,1.9-4.7,0.9c-1.3-1.1-1.5-3.3-0.3-4.8c1.1-1.5,3.3-1.9,4.6-0.9
	C91.8,79.1,92,81.5,90.8,83z"/>
<path class="st2" d="M90.2,82.2c-0.5,0.8-1.7,1.2-2.3,0.5c-0.7-0.8-0.1-2.3,1-2.5C89.9,79.9,90.9,81.2,90.2,82.2z"/>
<path class="st1" d="M108.2,58.9c0.9,0.3,1.6,0.9,2.1,1.6c0.3,0.3,0.5,0.6,0.7,0.9c0.2,0.3,0.4,0.6,0.6,1c0.2,0.6,0.5,1.1,0.6,1.7
	c0.2,0.5,0.4,1.1,0.6,1.7c0.3,1.2,0.7,2.4,1.1,3.6c0.4,1.1,0.8,2.3,1.1,3.5l0.3,1.2c0.2,0.8,0.4,1.7,0.4,2.6c0.1,0.9,0,1.7-0.2,2.5
	c-0.2,0.7-0.6,1.3-1.1,1.9s-1.1,1.1-1.7,1.5s-1.2,0.8-1.8,1.1c-0.6,0.3-1.3,0.5-1.9,0.7c-0.5,0.1-1,0.2-1.5,0.3
	c-0.5,0.1-0.9,0.1-1.4,0.1c-0.4,0-0.9-0.1-1.3-0.3c-0.4-0.2-0.8-0.5-1.2-0.8c-0.5-0.5-0.9-1-1.3-1.6c-0.3-0.6-0.6-1.3-0.8-1.9
	c-0.7-1.8-1.3-3.5-2-5.3s-1.3-3.6-1.7-5.4c-0.3-1-0.5-2.1-0.7-3.2C97,65.2,97.2,64,97.6,63c0.2-0.3,0.3-0.6,0.6-0.9
	c0.6-0.7,1.3-1.2,2.2-1.7c0.8-0.5,1.7-0.9,2.6-1.2s1.8-0.5,2.7-0.5C106.5,58.5,107.4,58.6,108.2,58.9z M110,71.8l-0.6-1.6l-0.8-2.3
	c0,0-0.1-0.2-0.3-0.7c-0.2-0.4-0.3-0.9-0.5-1.2c-0.3-0.6-0.6-1.1-1.1-1.5s-1-0.6-1.6-0.7c-0.5,0-1,0.1-1.4,0.4
	c-0.4,0.3-0.8,0.7-1.1,1.1c-0.6,0.9-0.9,1.9-0.8,3c0.1,0.9,0.3,1.9,0.6,2.9c0.3,1,0.6,1.9,1,2.9c0.4,0.8,0.7,1.6,1.1,2.4
	c0.3,0.8,0.7,1.5,1.2,2.2c0.4,0.4,0.8,0.6,1.3,0.7s1,0.1,1.6-0.1c0.5-0.2,1-0.4,1.4-0.8s0.8-0.8,1-1.3c0.1-0.4,0.2-0.6,0.2-0.8
	c0-0.2,0-0.4,0-0.6s-0.1-0.5-0.2-0.7c-0.1-0.3-0.2-0.7-0.3-1.2c-0.1-0.5-0.3-0.9-0.4-1.2C110.1,72.1,110,71.9,110,71.8z"/>
<path class="st2" d="M107.3,61.8c0.6,0.3,1.1,0.7,1.5,1.3c0.2,0.2,0.4,0.5,0.5,0.8c0.2,0.2,0.3,0.5,0.4,0.8c0.2,0.4,0.4,0.9,0.5,1.4
	c0.2,0.4,0.3,0.9,0.5,1.3c0.3,1,0.6,1.9,0.9,2.8s0.6,1.8,0.9,2.8l0.2,0.9c0.2,0.7,0.3,1.3,0.4,2s0,1.4-0.1,2c-0.1,0.5-0.4,1-0.7,1.5
	c-0.3,0.4-0.7,0.8-1.2,1.1c-0.4,0.3-0.8,0.6-1.3,0.8c-0.4,0.2-0.9,0.4-1.4,0.5c-0.3,0.1-0.7,0.2-1,0.2c-0.3,0.1-0.7,0.1-1,0
	c-0.3,0-0.6-0.1-0.9-0.3c-0.3-0.2-0.6-0.4-0.9-0.7c-0.4-0.4-0.7-0.8-0.9-1.3c-0.2-0.5-0.5-1-0.7-1.5c-0.5-1.4-1.1-2.8-1.6-4.2
	c-0.5-1.4-1-2.9-1.4-4.3c-0.3-0.8-0.4-1.7-0.6-2.6c-0.1-0.9,0-1.8,0.3-2.6c0.1-0.2,0.2-0.5,0.4-0.7c0.4-0.5,0.9-0.9,1.5-1.3
	c0.6-0.4,1.2-0.7,1.8-0.9c0.6-0.2,1.3-0.3,1.9-0.3C106,61.5,106.7,61.6,107.3,61.8z"/>
<path class="st1" d="M106.6,81.6c-1.6-0.5-2.5-2.6-1.9-4.2s2.5-2.6,4.1-1.9c1.6,0.6,2.4,2.5,1.9,4.1S108.2,82.2,106.6,81.6z"/>
<path class="st2" d="M107.2,80.6c-0.8-0.2-1.5-1.3-1-2.1c0.5-1,2-0.8,2.4,0.1C109.1,79.6,108.2,81,107.2,80.6z"/>
<path class="st1" d="M102.2,52.3c0.1,0,0.2,0.1,0.3,0.1l1,0.5c0.2,0.1,0.3,0.2,0.5,0.2c0.2,0.1,0.3,0.2,0.5,0.2
	c-0.1,0.1-0.1,0.3-0.2,0.6s-0.2,0.7-0.3,1.2c0,0-0.1,0-0.3-0.1c-0.2-0.1-0.4-0.2-0.6-0.4c-0.2-0.1-0.5-0.3-0.7-0.4
	c-0.3-0.1-0.5-0.3-0.7-0.4l-0.4,1.2v0.1h-0.1c-0.1,0-0.2,0-0.4-0.1c-0.2-0.1-0.5-0.1-0.8-0.2c-0.4-0.1-0.9-0.3-1.6-0.5l0,0l0,0
	c0-0.5,0.1-1,0.3-1.5c0.2-0.5,0.4-1.1,0.6-1.7l0,0l2.9,0.9v0.1l0,0l0,0C102,52.2,102.1,52.3,102.2,52.3z"/>
<path class="st1" d="M85.9,55.2c-0.1,0.1-0.2,0.1-0.3,0.2L84.7,56c-0.2,0.1-0.3,0.2-0.4,0.3c-0.2,0.1-0.3,0.2-0.5,0.3
	c0.1,0.1,0.1,0.3,0.3,0.6c0.1,0.3,0.2,0.7,0.4,1.2c0,0,0.1,0,0.3-0.1c0.1-0.1,0.3-0.3,0.6-0.4c0.2-0.2,0.4-0.3,0.7-0.5
	c0.2-0.2,0.5-0.3,0.7-0.4l0.5,1.1c0,0,0,0.1,0.1,0.1c0,0,0,0,0.1,0c0,0,0.2-0.1,0.3-0.1c0.2-0.1,0.4-0.2,0.8-0.4s0.9-0.4,1.5-0.7
	l0,0l0,0c0-0.5-0.2-1-0.4-1.4c-0.2-0.5-0.5-1-0.7-1.6l0,0l-2.8,1.2v0.1l0,0l0,0C86.1,55,86,55.1,85.9,55.2z"/>
<g>
	<g>
		<defs>
			<polygon id="SVGID_1_" points="85.5,88.4 114.4,83.4 118.1,108 89.2,113 			"/>
		</defs>
		<clipPath id="SVGID_2_">
			<use xlink:href="#SVGID_1_"  style="overflow:visible;"/>
		</clipPath>
		<g class="st3">
			<path class="st2" d="M93.1,89.4l-4.6,4.2L87.2,95c0.3,1.1,1.1,3.6,2.2,4.6c1,1,6.3,6.6,8.8,9.2l7.4-0.1l2.7-2l4.3-8.4l1.2-7.1
				l-2.8-3.7l-7.6-1.4L93.1,89.4z"/>
			<path class="st1" d="M99.6,86c4-0.8,8.3-1,12.3,0.3c1.7,0.5,3.6,1.8,3.4,3.9c0,4.8-0.8,9.6-2.7,14c-3,6.5-11.9,8.4-17.2,4.1
				c-3.2-2.6-5.6-6.1-7.7-9.7c-0.8-1.5-1.8-3.5-0.6-5.1C90.2,89.5,94.9,87.1,99.6,86z M89.9,93.3c0.4,0.5,1,1.2,1.7,0.9
				c6.1-1.1,12-2.7,17.9-4.5c0.8-0.1,0.7-1.2,0.1-1.5c-3-1.6-6.5-1-9.6-0.4C96.1,88.5,92.8,90.8,89.9,93.3z M97.5,107.8
				c0.6,0.7,1.5,0.6,2.3,0.6c3.8-0.1,8.4-1.5,10.4-5.1C106.6,106.5,102,108.1,97.5,107.8z"/>
		</g>
	</g>
</g>
<path class="st1" d="M79.8,41.4c-4.9,7.3-8.6,13.2-11.5,13.1v-3.4V48c-1.8-1.3,0.8-12,2.3-17.2L78,12.7c2-7.6,4.4,7.5,7.4,7.5
	c3.7,0,2.3-10.6,4.3-18.8c1.4-5.8,5.1,8.9,6.3,15.9c0.8-4.7,4.7-11.4,4.7-8.3l6.9,11.2l3.7-7.5c1.2-3.7,4.4,10,11.2,18.1
	c8.4,10.1,3.8,15.6,2,18.8c-1.8,3.2-2,5.7-4.6,0c-2.9-6.2-9.9-9.2-12.2-12.2C104.5,34.2,84.7,34,79.8,41.4z"/>
</svg>
