<svg width="130" height="336" viewBox="0 0 130 336" fill="none" xmlns="http://www.w3.org/2000/svg">
<path d="M64.3663 257.463C63.7661 257.549 62.9086 257.722 61.6225 257.937C62.437 261.775 62.9086 265.656 64.0662 269.278C66.467 276.997 69.125 284.63 71.9117 292.22C72.5976 294.117 74.0553 295.756 75.1271 297.567C76.9706 300.672 76.7562 303.345 74.3982 306.062C73.2836 307.356 71.9974 308.52 70.5827 309.512C66.81 312.142 65.1808 315.808 64.9236 320.292C64.7521 323.052 64.3663 325.898 63.5946 328.572C62.437 332.755 59.779 334.393 55.5347 333.919C52.9624 333.66 50.4329 333.315 47.9035 332.755C46.1458 332.367 44.388 331.634 43.9164 329.607C43.4877 327.623 44.6024 326.071 46.06 324.993C47.8178 323.656 49.8327 322.707 51.6334 321.457C52.6194 320.81 53.9913 320.034 54.2057 319.085C56.0491 311.668 58.7501 304.337 58.3213 296.575C57.9355 289.417 55.3203 282.733 53.1339 276.006C50.6044 268.157 48.2465 260.266 45.7599 252.418C45.5027 251.641 44.9882 250.649 44.3023 250.305C31.9124 244.44 24.5813 234.349 21.2373 221.412C19.1795 213.607 18.4935 205.457 16.8215 197.523C16.0927 193.987 14.4636 190.666 13.1345 187.259C9.14748 176.867 5.24615 166.431 4.21723 155.263C3.91712 152.158 4.13148 148.924 4.64594 145.862C5.58912 140.385 8.11855 138.488 13.7776 138.402C13.8205 137.884 13.9491 137.324 13.9491 136.806C13.992 124.861 13.992 112.959 14.0777 101.014C14.0777 99.6777 13.7776 98.8583 12.5772 98.039C8.16143 94.8911 6.70379 90.1045 6.27507 84.9729C6.10358 82.7737 6.18933 80.4882 6.70379 78.3752C7.1325 76.6071 8.41866 75.0116 9.74768 72.5968C9.36183 69.0607 8.84737 64.4897 8.29004 59.4013C6.57517 60.8674 5.28902 62.0749 3.91712 63.1529C3.53128 63.4548 2.75959 63.6273 2.45949 63.4548C2.11651 63.2392 1.90215 62.463 2.03077 61.9886C4.00287 53.1916 5.76061 44.3084 8.03281 35.5977C11.2911 23.049 19.3509 14.252 30.9692 9.03422C46.5745 1.96213 62.9515 0.194107 79.7143 3.85952C87.174 5.49817 93.6905 9.07734 97.5919 16.0632C98.7065 18.0468 100.078 19.2111 102.051 20.2892C116.884 28.4393 125.201 40.9449 126.23 58.0645C126.53 62.7648 124.815 67.0771 123.058 71.3462C122.715 72.2087 122.329 73.028 121.943 73.9336C125.544 76.9952 125.158 81.1781 124.858 85.1023C124.387 90.7944 122.672 95.9691 117.141 98.9015C116.756 99.1171 116.413 99.7639 116.413 100.238C116.37 112.959 116.37 125.637 116.37 138.229C116.67 138.445 116.756 138.574 116.884 138.574C124.344 139.35 127.516 142.8 127.945 150.648C128.374 158.885 126.53 166.819 123.829 174.495C121.557 181.05 118.556 187.346 115.941 193.771C115.512 194.806 115.255 195.97 115.212 197.091C114.826 205.845 114.569 214.599 114.226 223.353C113.754 233.961 108.867 242.284 100.636 248.623C96.8202 251.555 92.0185 251.814 87.4313 252.547C85.0304 252.935 82.6296 253.237 80.3145 253.884C77.5707 254.66 76.8419 256.342 77.8709 259.015C79.157 262.465 81.7293 264.794 84.7303 266.777C87.3026 268.459 89.9607 270.012 92.3615 271.952C96.3914 275.186 97.0774 279.067 94.5908 283.595C93.519 285.536 92.2758 287.39 91.204 289.33C89.4034 292.521 89.3176 295.712 91.2897 298.904C92.4044 300.715 93.4762 302.612 94.4193 304.553C95.3196 306.45 95.6626 308.434 94.1621 310.245C92.533 312.185 90.3894 312.746 87.9886 312.272C82.5439 311.15 78.1281 305.846 77.4421 299.55C76.9277 294.764 77.3993 290.063 79.4571 285.665C80.7861 282.862 80.3145 280.835 78.2996 278.507C74.7412 274.41 71.3115 270.184 68.2247 265.699C66.467 263.328 65.6095 260.352 64.3663 257.463ZM90.6466 36.6326C89.9607 37.1501 89.5748 37.4088 89.189 37.7107C82.2438 43.1441 74.3982 46.5508 65.9096 48.6207C57.1638 50.7768 48.2465 51.0355 39.372 51.6392C33.8845 52.0273 28.4398 52.8035 22.995 53.4072C21.4945 53.5797 20.5942 54.2697 20.337 55.9084C19.8654 58.5819 19.1795 61.2124 18.665 63.886C16.3071 76.1328 16.6072 88.5952 16.2213 100.971C15.8355 113.089 16.2642 125.249 16.3499 137.41C16.3499 138.445 16.2642 139.393 17.5503 139.825C17.8933 139.954 17.9791 140.73 18.1934 141.205C17.6361 141.377 17.0787 141.679 16.5214 141.679C16.0498 141.679 15.6211 141.291 15.1495 141.118C10.7766 139.393 7.64697 140.73 7.17538 145.387C6.66092 150.39 6.48943 155.651 7.38973 160.567C10.8195 178.764 18.0648 195.496 28.2254 210.891C32.5126 217.359 37.3142 223.396 43.5735 228.14C44.4738 228.83 45.1169 229.994 45.5884 231.072C47.7749 236.247 50.5616 241.033 54.2914 245.561C57.5925 241.249 62.4799 238.618 64.452 233.357C60.8508 231.072 57.2496 228.916 57.764 223.612C56.1778 223.698 54.7201 223.655 53.3911 223.914C51.076 224.388 49.2754 223.827 47.6463 222.059C42.5874 216.626 38.5575 210.459 34.8276 204.077C28.2254 192.779 22.8664 180.92 19.0508 168.372C18.0648 165.181 17.6789 161.903 18.7936 158.626C18.9651 158.152 19.7368 157.85 20.2084 157.462C20.4227 158.022 20.8943 158.669 20.7657 159.1C19.8225 162.076 20.5942 164.922 21.3659 167.768C24.7528 180.403 30.2404 192.132 36.9284 203.258C40.5296 209.252 44.9882 214.728 49.1897 220.334C49.6613 220.981 50.8188 221.412 51.6762 221.499C53.5197 221.671 55.3632 221.542 57.2496 221.456C57.764 221.456 58.5786 221.456 58.7929 221.111C60.3363 218.868 62.2227 219.601 64.1948 220.593C65.1808 219.256 66.0383 217.963 66.9814 216.712C68.2676 215.073 69.4251 215.03 70.4969 216.841C71.3115 218.265 71.7831 219.86 72.469 221.456C74.3982 221.456 76.4132 221.24 78.3424 221.542C79.8858 221.757 80.829 221.369 81.9008 220.334C89.8321 212.227 96.3057 202.999 101.493 192.995C107.067 182.214 114.183 171.822 112.811 158.626C112.768 158.238 113.326 157.677 113.754 157.419C113.883 157.332 114.612 157.85 114.783 158.195C115.041 158.755 115.212 159.445 115.126 160.092C114.655 163.93 114.612 167.897 113.497 171.52C109.424 184.413 103.122 196.229 95.3196 207.182C91.4183 212.615 86.8739 217.618 82.501 222.706C81.9437 223.396 80.6575 223.698 79.7143 223.741C77.142 223.914 74.5697 223.741 72.0403 223.914C68.9964 224.129 66.0383 224.259 63.2945 222.706C61.2366 221.542 60.5507 221.801 60.3363 224.215C60.2506 225.38 60.5507 226.846 61.2366 227.751C62.1369 228.959 63.5088 229.908 64.795 230.77C67.2387 232.322 67.6674 232.883 66.0383 235.298C64.4091 237.713 62.2655 239.783 60.4221 242.025C58.5357 244.354 56.3921 246.553 54.8487 249.097C53.1767 251.857 54.3343 254.444 57.3782 255.048C59.4789 255.436 61.7511 255.177 63.9375 255.048C64.3663 255.005 64.9665 254.315 65.0522 253.841C66.5956 245.906 71.9117 241.982 79.1999 239.955C80.2288 239.653 81.3863 238.791 81.815 237.842C84.4302 232.193 87.4741 226.975 92.7902 223.396C93.1332 223.18 93.4333 222.792 93.6905 222.49C98.4064 216.367 103.594 210.546 107.667 204.034C115.984 190.666 122.715 176.479 125.287 160.739C126.059 155.996 126.487 151.166 125.03 146.422C123.872 142.671 121.257 140.73 117.356 140.903C115.812 140.946 114.312 141.506 112.726 141.722C112.125 141.808 111.525 141.42 110.925 141.248C111.354 140.687 111.697 140.04 112.211 139.652C112.768 139.264 113.54 139.221 114.226 139.005C114.269 138.704 114.355 138.402 114.355 138.143C114.312 122.188 114.226 106.232 114.269 90.277C114.269 84.1105 113.197 78.4183 109.424 73.2867C105.223 67.5946 101.365 61.6005 97.5061 55.6496C93.7334 49.9575 90.9896 43.8772 90.6466 36.6326ZM5.16041 58.8838C5.97497 58.3663 6.40369 58.0214 6.91815 57.8057C11.1196 55.8652 15.1924 53.5797 19.5653 52.1567C27.7967 49.5262 36.4996 49.8712 44.9882 49.0088C52.6194 48.2326 60.2934 47.2407 67.796 45.6452C76.3703 43.7909 83.9158 39.6081 90.518 33.7434C90.9896 33.3122 91.7184 33.0534 92.3186 32.9241C92.4901 32.8809 93.0474 33.8296 93.0046 34.304C92.0614 41.7642 95.191 48.0169 98.878 54.0972C100.464 56.6414 102.222 59.0994 103.894 61.6005C108.224 67.9395 113.283 73.8042 116.07 81.5231C118.085 76.909 119.971 72.7261 121.686 68.5001C123.272 64.6191 124.387 60.4793 123.872 56.3396C121.814 40.4274 114.183 28.3962 99.3067 21.5829C98.1063 21.0223 97.1631 19.6855 96.2628 18.5643C94.7623 16.6238 93.6477 14.252 91.8899 12.5703C87.8171 8.60299 82.6725 6.57623 77.1849 5.54129C62.4799 2.8677 48.1607 4.50636 34.3132 9.85354C24.1526 13.8208 16.3071 20.5048 11.9341 30.8542C8.24717 39.6943 7.51835 49.2675 5.16041 58.8838ZM84.0444 238.834C85.845 238.834 87.6027 238.748 89.3605 238.877C89.9178 238.92 90.4323 239.524 90.9467 239.912C90.4323 240.3 90.0036 240.774 89.4462 240.99C89.0175 241.163 88.4602 240.99 87.9457 241.033C83.0583 241.249 78.2567 241.809 73.9267 244.354C68.0104 247.803 65.4809 254.444 67.9675 260.826C68.9107 263.198 70.2397 265.484 71.7402 267.51C74.8698 271.607 78.2138 275.531 81.5578 279.455C82.9726 281.094 82.9726 282.56 82.0723 284.501C79.8001 289.373 78.6425 294.548 79.4142 299.982C80.1431 305.199 84.173 309.77 88.503 310.115C89.6177 310.202 91.3326 309.77 91.847 308.951C92.4472 308.046 92.2758 306.407 91.9328 305.199C91.6327 304.078 90.7324 303.086 90.0464 302.095C86.5309 297.006 86.9168 291.875 89.7892 286.7C90.6038 285.277 91.6327 283.983 92.4901 282.56C94.3765 279.369 94.205 277.256 91.5898 274.626C90.4323 273.461 89.1032 272.469 87.7742 271.521C85.5878 270.012 83.3156 268.675 81.172 267.165C78.6854 265.441 77.0134 263.069 76.0702 260.18C74.5697 255.695 75.9845 252.935 80.5718 251.814C83.0583 251.21 85.5878 250.693 88.1601 250.477C96.7773 249.744 102.951 245.345 107.367 238.144C109.725 234.306 111.482 230.209 111.74 225.682C112.211 217.273 112.468 208.864 112.811 200.369C112.468 200.498 112.297 200.498 112.254 200.627C111.868 201.231 111.525 201.878 111.139 202.482C104.88 212.745 98.1492 222.577 88.503 229.994C88.2029 230.209 87.9028 230.468 87.7742 230.77C86.4881 233.4 85.2877 236.16 84.0444 238.834ZM20.5085 202.654C20.3799 203.129 20.2941 203.301 20.337 203.473C21.4088 209.468 22.1376 215.548 23.7239 221.412C27.0679 233.702 34.0988 243.146 45.9314 248.536C46.7031 248.881 47.3891 249.873 47.6892 250.736C50.5616 259.748 53.4768 268.761 56.1349 277.817C57.8498 283.724 59.6504 289.675 60.5078 295.712C61.7082 304.466 58.0641 312.616 56.1349 320.939C55.9205 321.888 54.5486 322.664 53.5626 323.268C51.6334 324.475 49.5326 325.381 47.6463 326.631C46.9175 327.106 46.1029 328.313 46.2744 329.003C46.403 329.693 47.6034 330.555 48.4608 330.685C51.3333 331.116 54.2485 331.332 57.1638 331.59C59.2645 331.763 60.6364 330.771 61.108 328.744C61.6653 326.243 62.1369 323.699 62.3942 321.112C62.9515 315.333 65.0093 310.417 70.0682 307.14C71.0543 306.493 71.9546 305.588 72.7691 304.682C74.484 302.785 74.6555 301.189 73.3264 299.033C65.9525 286.959 62.1369 273.677 59.9505 259.835C59.6932 258.325 59.1788 257.678 57.6783 257.377C53.1767 256.428 51.5905 253.625 52.6194 249.14C52.7909 248.364 52.6194 247.372 52.2336 246.682C49.4469 241.766 46.5745 236.893 43.7021 232.064C43.1876 231.201 42.716 230.253 41.9443 229.692C34.9991 224.259 29.8545 217.359 25.1386 210.028C23.5095 207.613 22.0947 205.198 20.5085 202.654ZM18.0648 54.6147C15.7497 55.6496 13.4775 56.5983 11.2911 57.7626C10.8195 58.0214 10.5622 59.0563 10.6051 59.7031C10.7766 62.5061 10.9481 65.2659 11.4197 68.0258C11.9341 71.26 11.5483 74.8391 14.4207 77.1677C15.6211 69.7507 16.8215 62.3336 18.0648 54.6147ZM14.2492 96.2279C14.978 84.2829 13.5633 77.9439 9.8763 76.5209C6.44656 81.48 9.01886 93.468 14.2492 96.2279ZM117.013 96.1847C122.329 93.4249 125.115 79.4101 120.957 76.5209C117.098 82.5149 116.07 89.0695 117.013 96.1847ZM70.1111 222.059C69.5966 220.55 69.2536 219.472 68.7821 218.006C67.796 219.429 67.1529 220.378 66.2955 221.628C67.6674 221.801 68.6106 221.93 70.1111 222.059Z" fill="#192C32" stroke="#192C32" stroke-width="3"/>
<path d="M60.3187 69.021C61.0978 69.976 61.5875 71.0276 61.7878 72.1757C61.932 72.6772 62.0108 73.1841 62.0244 73.6963C62.0745 74.1826 62.0906 74.6793 62.0728 75.1864C62.0097 75.9731 61.9153 76.7547 61.7895 77.5312C61.7001 78.2818 61.5768 79.0428 61.4196 79.8142C61.0587 81.4452 60.7682 83.0397 60.5479 84.5979C60.3276 86.156 60.0239 87.7325 59.6367 89.3273L59.2464 90.842C59.0075 91.9189 58.6563 92.9936 58.1927 94.0661C57.7342 95.1074 57.1496 96.0328 56.4388 96.842C55.7847 97.5011 54.9806 97.9924 54.0266 98.3159C53.1089 98.6135 52.1437 98.8078 51.1308 98.8987C50.212 99.0048 49.2926 99.0152 48.3726 98.9299C47.484 98.8497 46.5898 98.7048 45.69 98.4953C45.0411 98.3264 44.413 98.129 43.8056 97.9031C43.2246 97.7133 42.6718 97.4484 42.1473 97.1084C41.6542 96.7735 41.2182 96.3841 40.8393 95.9402C40.4655 95.4652 40.1877 94.8942 40.0059 94.2273C39.6925 93.3796 39.5278 92.5082 39.5118 91.613C39.5323 90.6919 39.5998 89.7785 39.7144 88.8726C40.0128 86.4346 40.2955 83.9941 40.5626 81.551C40.866 79.0819 41.295 76.6332 41.8494 74.2048C42.1073 72.8121 42.5063 71.4423 43.0466 70.0954C43.6232 68.7225 44.4859 67.5713 45.6347 66.6418C45.9988 66.382 46.4049 66.1609 46.8531 65.9785C47.969 65.6493 49.1407 65.4726 50.3682 65.4484C51.6322 65.3981 52.8552 65.5007 54.0375 65.756C55.2511 66.0164 56.3924 66.4244 57.4616 66.9802C58.5671 67.51 59.5195 68.1902 60.3187 69.021ZM54.5477 84.9645L54.91 82.7281L55.3292 79.5446C55.3343 79.5136 55.3532 79.1979 55.3861 78.5975C55.4553 77.9712 55.5171 77.3915 55.5713 76.8584C55.6494 75.9785 55.5267 75.1458 55.2032 74.3602C54.9111 73.5797 54.4319 72.9602 53.7656 72.5016C53.1783 72.1514 52.5427 72.0006 51.8586 72.0492C51.1746 72.0977 50.5513 72.2677 49.9889 72.5591C48.7549 73.2198 47.8439 74.1719 47.256 75.4155C46.8138 76.5551 46.4556 77.7722 46.1815 79.0665C45.9387 80.366 45.743 81.6731 45.5944 82.9878C45.5751 84.1004 45.5038 85.2364 45.3803 86.3958C45.2619 87.5242 45.2765 88.6263 45.4242 89.7021C45.6373 90.3742 46.0143 90.9293 46.555 91.3676C47.0958 91.8059 47.7063 92.112 48.3865 92.2859C49.0718 92.4288 49.7771 92.4475 50.5026 92.3419C51.2332 92.2053 51.8765 91.9111 52.4327 91.4593C52.7755 91.1323 53.0273 90.8703 53.188 90.6732C53.3538 90.445 53.475 90.1937 53.5517 89.9193C53.6283 89.6448 53.6812 89.3186 53.7102 88.9408C53.7756 88.537 53.8925 88.0141 54.061 87.372C54.193 86.7558 54.2968 86.2148 54.3723 85.7489C54.4791 85.2881 54.5376 85.0266 54.5477 84.9645Z" fill="#192C32"/>
<path d="M57.4728 71.7399C58.007 72.4874 58.3359 73.316 58.4597 74.2258C58.5536 74.6223 58.6015 75.0241 58.6033 75.4312C58.6312 75.817 58.635 76.2117 58.6148 76.6151C58.5585 77.2415 58.4802 77.8644 58.3799 78.4837C58.3056 79.0817 58.2072 79.6886 58.0849 80.3043C57.8061 81.6065 57.5774 82.8786 57.3987 84.1208C57.2201 85.3629 56.9824 86.6208 56.6856 87.8947L56.3878 89.1048C56.2033 89.9646 55.9397 90.8244 55.5971 91.684C55.2584 92.5189 54.8328 93.2634 54.3201 93.9176C53.8494 94.4514 53.2757 94.8542 52.599 95.1259C51.9484 95.3763 51.2657 95.5454 50.551 95.6329C49.9024 95.7312 49.2548 95.7534 48.6083 95.6995C47.9838 95.6491 47.3562 95.5475 46.7257 95.3945C46.2714 95.27 45.8321 95.1226 45.4078 94.9521C45.0015 94.81 44.6162 94.6078 44.252 94.3454C43.9098 94.0866 43.6086 93.7836 43.3485 93.4364C43.0925 93.0644 42.9055 92.6147 42.7876 92.0871C42.5797 91.4179 42.4769 90.7276 42.4792 90.0162C42.5075 89.2835 42.5688 88.5563 42.6632 87.8343C42.9102 85.8915 43.1462 83.9469 43.3712 82.0004C43.6222 80.0328 43.9613 78.0795 44.3885 76.1404C44.5911 75.0293 44.8928 73.9342 45.2936 72.8552C45.7204 71.755 46.3453 70.8267 47.1684 70.0703C47.4287 69.8582 47.718 69.6763 48.0364 69.5245C48.8272 69.2459 49.655 69.0877 50.5197 69.0499C51.4106 68.9908 52.2703 69.0539 53.099 69.239C53.9496 69.4276 54.7472 69.7348 55.4917 70.1605C56.2622 70.565 56.9226 71.0914 57.4728 71.7399ZM53.1678 84.5029L53.4568 82.7194L53.8001 80.1821C53.8042 80.1573 53.8223 79.906 53.8545 79.4282C53.9128 78.9292 53.965 78.4674 54.0112 78.0427C54.0795 77.342 54.0057 76.6818 53.7898 76.0621C53.5959 75.446 53.2678 74.9607 52.8055 74.6062C52.3973 74.3366 51.9519 74.2264 51.4695 74.2753C50.987 74.3242 50.5456 74.4688 50.1451 74.709C49.2661 75.2529 48.6102 76.0237 48.1775 77.0213C47.8488 77.934 47.5782 78.907 47.3656 79.9403C47.175 80.9771 47.0174 82.0193 46.8929 83.0668C46.8625 83.9516 46.7951 84.8558 46.6906 85.7795C46.5901 86.6784 46.5838 87.5544 46.6715 88.4075C46.8114 88.9386 47.0685 89.3743 47.4427 89.7146C47.8169 90.0548 48.2421 90.289 48.7185 90.417C49.1989 90.5203 49.6953 90.5244 50.2078 90.4295C50.7243 90.3098 51.1818 90.0662 51.5803 89.6986C51.8267 89.4334 52.0079 89.2213 52.1241 89.0622C52.2443 88.8783 52.3334 88.6767 52.3916 88.4573C52.4497 88.2379 52.4918 87.9778 52.518 87.677C52.5702 87.355 52.6604 86.9374 52.7887 86.4244C52.891 85.9325 52.9723 85.5008 53.0325 85.1292C53.1147 84.7612 53.1598 84.5525 53.1678 84.5029Z" fill="#DFE7EB"/>
<path d="M50.9278 79.5525C52.3904 79.8057 53.3894 81.4296 53.088 82.8353C52.7984 84.2716 51.2511 85.2816 49.8158 84.9396C48.3991 84.6692 47.4058 83.1742 47.6765 81.7799C47.8815 80.3056 49.4783 79.2421 50.9278 79.5525Z" fill="#192C32"/>
<path d="M50.5594 80.3722C51.3037 80.4415 51.9867 81.2412 51.6513 81.9874C51.3521 82.8509 50.0288 82.9383 49.5245 82.1937C49.0049 81.4548 49.6199 80.2279 50.5594 80.3722Z" fill="#DFE7EB"/>
<path d="M81.5647 65.6221C82.6471 66.2737 83.4838 67.1186 84.0749 68.1569C84.3876 68.5908 84.6393 69.0525 84.8299 69.542C85.0466 69.9938 85.2342 70.4674 85.3927 70.9629C85.6043 71.7437 85.784 72.5305 85.9316 73.3233C86.1053 74.0784 86.2499 74.8553 86.3655 75.654C86.5823 77.3526 86.8543 78.9916 87.1815 80.5712C87.5087 82.1508 87.7618 83.777 87.9406 85.4498L88.0887 87.0463C88.2313 88.1681 88.2647 89.3266 88.1889 90.5219C88.1072 91.6855 87.8637 92.7807 87.4584 93.8077C87.0555 94.6701 86.4499 95.4226 85.6415 96.0653C84.8593 96.6703 83.9953 97.192 83.0495 97.6306C82.1999 98.0512 81.3164 98.3798 80.3993 98.6161C79.5142 98.8465 78.6013 99.0165 77.6605 99.126C76.9761 99.1878 76.3017 99.2149 75.6374 99.2074C75.0111 99.2255 74.386 99.1615 73.7622 99.0151C73.1704 98.8628 72.6149 98.6381 72.0956 98.3411C71.5704 98.0124 71.1046 97.5577 70.6982 96.9772C70.1022 96.2679 69.6414 95.4842 69.316 94.6261C69.0166 93.7304 68.7653 92.8257 68.5621 91.912C68.0055 89.4565 67.4329 87.0039 66.8443 84.5543C66.2818 82.0671 65.8475 79.5559 65.5412 77.021C65.3076 75.588 65.2181 74.1283 65.2728 72.6416C65.3536 71.1173 65.7871 69.7078 66.5735 68.4131C66.8348 68.0363 67.15 67.6823 67.5192 67.3511C68.4818 66.647 69.5511 66.0706 70.727 65.622C71.929 65.1357 73.1446 64.811 74.3736 64.6478C75.6347 64.4787 76.8772 64.477 78.1012 64.6428C79.3514 64.771 80.5059 65.0974 81.5647 65.6221ZM81.5195 83.0034L81.0944 80.7202L80.3961 77.5036C80.3902 77.4719 80.2992 77.1607 80.1229 76.5701C79.9728 75.9419 79.8316 75.3612 79.6992 74.8281C79.4698 73.9521 79.063 73.1912 78.4788 72.5453C77.9266 71.8935 77.2496 71.4618 76.4479 71.2501C75.76 71.1157 75.0945 71.1904 74.4514 71.4742C73.8082 71.758 73.2658 72.1378 72.8241 72.6138C71.8624 73.6787 71.3133 74.9129 71.1769 76.3163C71.1449 77.569 71.2209 78.8672 71.4048 80.211C71.6207 81.5488 71.8847 82.8777 72.1967 84.1976C72.5635 85.2777 72.8882 86.3984 73.1707 87.5598C73.4473 88.6894 73.8431 89.7477 74.3583 90.7345C74.7967 91.3091 75.3527 91.7141 76.0262 91.9496C76.6998 92.1851 77.3948 92.269 78.1113 92.2012C78.8219 92.1017 79.5089 91.8754 80.1723 91.5222C80.8298 91.1374 81.3486 90.6306 81.7287 90.0021C81.9462 89.5679 82.0983 89.2279 82.1851 88.9821C82.266 88.7045 82.2959 88.4201 82.2748 88.1287C82.2537 87.8373 82.1917 87.5044 82.0889 87.1298C82.0121 86.7176 81.9438 86.1725 81.8839 85.4947C81.7978 84.8545 81.7105 84.2966 81.622 83.8209C81.5654 83.3393 81.5313 83.0668 81.5195 83.0034Z" fill="#192C32"/>
<path d="M79.7607 69.2311C80.535 69.7673 81.1394 70.4528 81.574 71.2877C81.8019 71.6378 81.9873 72.0088 82.1301 72.4009C82.2906 72.7635 82.431 73.1429 82.5513 73.5392C82.714 74.163 82.8541 74.7911 82.9718 75.4233C83.1073 76.0261 83.2227 76.6457 83.3179 77.2821C83.5 78.635 83.72 79.9415 83.9779 81.2018C84.2358 82.4621 84.4422 83.7581 84.5971 85.0899L84.729 86.3605C84.8488 87.254 84.8923 88.1748 84.8595 89.1229C84.822 90.0457 84.6692 90.9114 84.4011 91.7202C84.132 92.3982 83.718 92.9855 83.1592 93.4821C82.6182 93.9491 82.0181 94.3486 81.3589 94.6807C80.7672 95.0002 80.1501 95.2459 79.5076 95.4178C78.8877 95.5856 78.247 95.7049 77.5857 95.7757C77.1043 95.813 76.6293 95.8229 76.1609 95.8054C75.7197 95.8091 75.2779 95.7474 74.8357 95.6204C74.4159 95.4892 74.0204 95.3012 73.6492 95.0563C73.2733 94.7862 72.9371 94.417 72.6406 93.9489C72.2082 93.3753 71.8699 92.7448 71.6257 92.0577C71.3992 91.341 71.2065 90.6181 71.0475 89.8889C70.6128 87.9289 70.1669 85.971 69.7097 84.0152C69.2703 82.0299 68.9209 80.0278 68.6613 78.009C68.4719 76.8668 68.3837 75.7058 68.3966 74.526C68.4273 73.3166 68.7087 72.2045 69.2407 71.1897C69.4184 70.8949 69.6346 70.6192 69.8891 70.3625C70.5556 69.8197 71.2994 69.3803 72.1207 69.0443C72.9597 68.6788 73.811 68.4418 74.6746 68.3333C75.5606 68.2207 76.4366 68.2408 77.3023 68.3936C78.1858 68.5169 79.0053 68.7961 79.7607 69.2311ZM80.0283 83.0361L79.6893 81.2152L79.1417 78.6483C79.1369 78.623 79.0674 78.3743 78.933 77.9022C78.8163 77.4006 78.7068 76.9369 78.6042 76.5112C78.4274 75.8115 78.1276 75.2001 77.7046 74.677C77.3041 74.1497 76.8194 73.7952 76.2506 73.6132C75.7634 73.4946 75.2955 73.5425 74.847 73.7568C74.3985 73.9711 74.0226 74.2635 73.7195 74.6339C73.0598 75.4632 72.694 76.434 72.622 77.5464C72.6211 78.5409 72.697 79.5734 72.8498 80.6439C73.0251 81.7102 73.2341 82.7703 73.4768 83.8241C73.754 84.6883 74.0021 85.584 74.2213 86.5114C74.4357 87.4134 74.733 88.2608 75.1132 89.0535C75.4322 89.5174 75.8311 89.8487 76.31 90.0474C76.7888 90.246 77.2803 90.3246 77.7842 90.2831C78.2834 90.2164 78.7638 90.0484 79.2254 89.7793C79.6823 89.485 80.0393 89.0914 80.2964 88.5987C80.4422 88.2576 80.5436 87.9901 80.6006 87.7964C80.6528 87.5773 80.669 87.3519 80.6491 87.1201C80.6292 86.8883 80.5798 86.6228 80.5008 86.3235C80.4396 85.9947 80.382 85.5606 80.3281 85.0212C80.2564 84.5112 80.1853 84.0666 80.1147 83.6872C80.0665 83.3037 80.0377 83.0867 80.0283 83.0361Z" fill="#DFE7EB"/>
<path d="M76.1524 79.0358C77.6512 78.7735 79.1775 79.9942 79.3737 81.4548C79.5918 82.9409 78.4489 84.4513 76.9456 84.6185C75.4851 84.8483 74.0089 83.75 73.7871 82.311C73.4743 80.8176 74.6464 79.2384 76.1524 79.0358Z" fill="#192C32"/>
<path d="M76.0808 79.9543C76.8229 79.7633 77.7588 80.2982 77.6937 81.1343C77.7042 82.0711 76.4578 82.6138 75.7133 82.07C74.956 81.5371 75.1244 80.1404 76.0808 79.9543Z" fill="#DFE7EB"/>
<path d="M71.7282 106.741C71.6377 107.128 71.4799 107.502 71.2548 107.864C71.0633 108.171 70.8351 108.442 70.57 108.679C70.5584 108.693 70.5155 108.723 70.4413 108.77C70.0238 109.062 69.6371 109.273 69.2814 109.402C68.9242 109.518 68.5773 109.608 68.2407 109.67C67.5462 109.719 66.8322 109.769 66.0985 109.822C65.3504 109.864 64.6442 109.927 63.98 110.011L63.5101 110.062C63.2216 110.08 62.9279 110.111 62.6291 110.156C62.3289 110.189 62.0345 110.214 61.746 110.232C61.4431 110.239 61.1453 110.232 60.8526 110.211C60.5586 110.178 60.2727 110.098 59.9951 109.972C59.3341 109.718 58.8454 109.348 58.5291 108.863C58.1998 108.378 57.9975 107.848 57.9223 107.271C57.9118 107.051 57.9065 106.818 57.9064 106.571C57.8918 106.313 57.8858 106.073 57.8884 105.852L57.9059 105.831C58.305 105.736 58.7148 105.679 59.1352 105.659C59.5412 105.629 59.9341 105.599 60.314 105.572C60.3855 105.746 60.4774 105.924 60.5895 106.107C60.6885 106.291 60.8122 106.46 60.9607 106.613C61.1092 106.766 61.2817 106.897 61.4783 107.006C61.6604 107.103 61.8579 107.16 62.0709 107.176C62.165 107.192 62.2526 107.208 62.3337 107.225C62.4134 107.23 62.4996 107.234 62.5923 107.237C62.9255 107.266 63.2508 107.283 63.5682 107.288C63.8712 107.281 64.1741 107.274 64.4771 107.268C65.0369 107.195 65.6184 107.139 66.2216 107.1C66.8233 107.048 67.39 106.916 67.9216 106.702C68.3199 106.478 68.6361 106.164 68.8701 105.762C69.0897 105.349 69.1853 104.949 69.1569 104.562L69.1548 104.543L69.2527 104.532C69.5948 104.521 69.9747 104.494 70.3924 104.449C70.8086 104.391 71.1813 104.357 71.5104 104.348C71.6231 104.414 71.6949 104.529 71.7259 104.695C71.7425 104.849 71.7584 104.997 71.7736 105.138L71.8088 105.466C71.84 105.878 71.8131 106.303 71.7282 106.741Z" fill="#192C32"/>
<path d="M70.2233 63.3957C70.3907 63.4232 70.5353 63.4435 70.657 63.4566L72.117 63.614C72.3604 63.6402 72.5923 63.6628 72.8127 63.6819C73.0561 63.7081 73.2994 63.7343 73.5428 63.7605C73.533 63.6317 73.5929 63.3612 73.7225 62.9491C73.8679 62.5671 74.0335 62.0405 74.2195 61.3694C74.1881 61.3092 74.0507 61.266 73.8074 61.2398C73.5568 61.2364 73.2454 61.2266 72.8732 61.2101C72.5239 61.2009 72.1553 61.173 71.7674 61.1264C71.3723 61.1028 71.0072 61.0634 70.6723 61.0084L71.0427 59.3512C71.0571 59.3054 71.0564 59.2674 71.0407 59.2373C71.0178 59.2301 70.9721 59.2157 70.9034 59.1941C70.8347 59.1725 70.6744 59.1221 70.4226 59.0429C70.1636 58.9866 69.7822 58.8792 69.2785 58.7208C68.7448 58.578 68.0014 58.3819 67.0483 58.1324L67.014 58.1216L67.0032 58.156C66.6328 58.6936 66.3889 59.3088 66.2717 60.0015C66.1243 60.7099 65.9475 61.472 65.7412 62.2877L65.7304 62.322L69.7228 63.4269L69.7444 63.3583C69.7673 63.3655 69.7938 63.3612 69.8239 63.3455C69.8239 63.3455 69.8354 63.3491 69.8583 63.3563C69.9498 63.3851 70.0715 63.3982 70.2233 63.3957Z" fill="#192C32"/>
<path d="M55.3767 63.3957C55.2092 63.4232 55.0647 63.4435 54.943 63.4566L53.4829 63.614C53.2396 63.6402 53.0077 63.6628 52.7872 63.6819C52.5439 63.7081 52.3006 63.7343 52.0572 63.7605C52.067 63.6317 52.0071 63.3612 51.8774 62.9491C51.7321 62.5671 51.5665 62.0405 51.3805 61.3694C51.4119 61.3092 51.5493 61.266 51.7926 61.2398C52.0432 61.2364 52.3545 61.2266 52.7268 61.2101C53.0761 61.2009 53.4447 61.173 53.8326 61.1264C54.2277 61.1028 54.5927 61.0634 54.9277 61.0084L54.5573 59.3512C54.5429 59.3054 54.5435 59.2674 54.5592 59.2373C54.5821 59.2301 54.6279 59.2157 54.6966 59.1941C54.7653 59.1725 54.9255 59.1221 55.1774 59.0429C55.4364 58.9866 55.8178 58.8792 56.3214 58.7208C56.8552 58.578 57.5986 58.3819 58.5517 58.1324L58.586 58.1216L58.5968 58.156C58.9672 58.6936 59.211 59.3088 59.3283 60.0015C59.4757 60.7099 59.6525 61.472 59.8588 62.2877L59.8696 62.322L55.8771 63.4269L55.8555 63.3583C55.8326 63.3655 55.8061 63.3612 55.776 63.3455C55.776 63.3455 55.7646 63.3491 55.7417 63.3563C55.6501 63.3851 55.5285 63.3982 55.3767 63.3957Z" fill="#192C32"/>
<path d="M54.0398 158.941C53.9198 159.037 53.8358 159.121 53.7878 159.193L51.4478 161.065C51.3998 161.113 51.3638 161.113 51.3398 161.065C51.2918 160.993 51.1718 160.873 50.9798 160.705C50.8118 160.513 50.7038 160.405 50.6558 160.381C50.5598 160.285 50.4158 160.153 50.2238 159.985C50.0318 159.793 49.8278 159.601 49.6118 159.409C49.4198 159.193 49.2398 159.013 49.0718 158.869C48.9038 158.725 48.7958 158.641 48.7478 158.617C48.6518 158.665 48.5078 158.785 48.3158 158.977C48.1238 159.169 47.9078 159.373 47.6678 159.589C47.4518 159.805 47.2238 160.021 46.9838 160.237C46.7438 160.453 46.5398 160.621 46.3718 160.741C46.3238 160.789 46.2758 160.825 46.2278 160.849C46.2038 160.873 46.1678 160.885 46.1198 160.885C45.4958 160.285 44.9558 159.769 44.4998 159.337C44.0438 158.905 43.5518 158.473 43.0238 158.041C43.0958 157.921 43.2278 157.753 43.4198 157.537C43.6118 157.321 43.8278 157.081 44.0678 156.817C44.3078 156.553 44.5598 156.289 44.8238 156.025C45.0878 155.737 45.3158 155.485 45.5078 155.269C45.5318 155.245 45.5198 155.185 45.4718 155.089C45.3998 154.945 45.2318 154.729 44.9678 154.441C44.7278 154.129 44.4638 153.817 44.1758 153.505C43.9118 153.169 43.6598 152.869 43.4198 152.605C43.1798 152.341 43.0358 152.149 42.9878 152.029C43.0838 152.005 43.2638 151.861 43.5278 151.597C43.8158 151.309 44.1158 150.997 44.4278 150.661C44.7638 150.325 45.0878 150.001 45.3998 149.689C45.7118 149.377 45.9518 149.161 46.1198 149.041L46.1558 149.005C46.2278 149.029 46.3958 149.161 46.6598 149.401C46.9238 149.641 47.2118 149.905 47.5238 150.193C47.8358 150.481 48.1358 150.757 48.4238 151.021C48.7118 151.285 48.9038 151.453 48.9998 151.525C49.0238 151.501 49.1798 151.357 49.4678 151.093C49.7558 150.829 50.0678 150.541 50.4038 150.229C50.7398 149.917 51.0398 149.641 51.3038 149.401C51.5678 149.161 51.6878 149.053 51.6638 149.077C51.7118 149.149 51.8798 149.329 52.1678 149.617C52.4798 149.905 52.8038 150.229 53.1398 150.589C53.4998 150.925 53.8238 151.249 54.1118 151.561C54.4238 151.849 54.6158 152.029 54.6878 152.101C54.6638 152.317 54.5438 152.557 54.3278 152.821C54.1118 153.085 53.8598 153.349 53.5718 153.613C53.3078 153.877 53.0438 154.141 52.7798 154.405C52.5398 154.645 52.3838 154.861 52.3118 155.053C52.3358 155.053 52.4798 155.197 52.7438 155.485C53.0078 155.773 53.2838 156.097 53.5718 156.457C53.8598 156.793 54.1238 157.117 54.3638 157.429C54.6278 157.717 54.7838 157.873 54.8318 157.897C54.8558 157.993 54.8198 158.101 54.7238 158.221C54.6518 158.341 54.5438 158.473 54.3998 158.617C54.2798 158.737 54.1598 158.845 54.0398 158.941Z" fill="#192C32"/>
<path d="M86.0398 158.941C85.9198 159.037 85.8358 159.121 85.7878 159.193L83.4478 161.065C83.3998 161.113 83.3638 161.113 83.3398 161.065C83.2918 160.993 83.1718 160.873 82.9798 160.705C82.8118 160.513 82.7038 160.405 82.6558 160.381C82.5598 160.285 82.4158 160.153 82.2238 159.985C82.0318 159.793 81.8278 159.601 81.6118 159.409C81.4198 159.193 81.2398 159.013 81.0718 158.869C80.9038 158.725 80.7958 158.641 80.7478 158.617C80.6518 158.665 80.5078 158.785 80.3158 158.977C80.1238 159.169 79.9078 159.373 79.6678 159.589C79.4518 159.805 79.2238 160.021 78.9838 160.237C78.7438 160.453 78.5398 160.621 78.3718 160.741C78.3238 160.789 78.2758 160.825 78.2278 160.849C78.2038 160.873 78.1678 160.885 78.1198 160.885C77.4958 160.285 76.9558 159.769 76.4998 159.337C76.0438 158.905 75.5518 158.473 75.0238 158.041C75.0958 157.921 75.2278 157.753 75.4198 157.537C75.6118 157.321 75.8278 157.081 76.0678 156.817C76.3078 156.553 76.5598 156.289 76.8238 156.025C77.0878 155.737 77.3158 155.485 77.5078 155.269C77.5318 155.245 77.5198 155.185 77.4718 155.089C77.3998 154.945 77.2318 154.729 76.9678 154.441C76.7278 154.129 76.4638 153.817 76.1758 153.505C75.9118 153.169 75.6598 152.869 75.4198 152.605C75.1798 152.341 75.0358 152.149 74.9878 152.029C75.0838 152.005 75.2638 151.861 75.5278 151.597C75.8158 151.309 76.1158 150.997 76.4278 150.661C76.7638 150.325 77.0878 150.001 77.3998 149.689C77.7118 149.377 77.9518 149.161 78.1198 149.041L78.1558 149.005C78.2278 149.029 78.3958 149.161 78.6598 149.401C78.9238 149.641 79.2118 149.905 79.5238 150.193C79.8358 150.481 80.1358 150.757 80.4238 151.021C80.7118 151.285 80.9038 151.453 80.9998 151.525C81.0238 151.501 81.1798 151.357 81.4678 151.093C81.7558 150.829 82.0678 150.541 82.4038 150.229C82.7398 149.917 83.0398 149.641 83.3038 149.401C83.5678 149.161 83.6878 149.053 83.6638 149.077C83.7118 149.149 83.8798 149.329 84.1678 149.617C84.4798 149.905 84.8038 150.229 85.1398 150.589C85.4998 150.925 85.8238 151.249 86.1118 151.561C86.4238 151.849 86.6158 152.029 86.6878 152.101C86.6638 152.317 86.5438 152.557 86.3278 152.821C86.1118 153.085 85.8598 153.349 85.5718 153.613C85.3078 153.877 85.0438 154.141 84.7798 154.405C84.5398 154.645 84.3838 154.861 84.3118 155.053C84.3358 155.053 84.4798 155.197 84.7438 155.485C85.0078 155.773 85.2838 156.097 85.5718 156.457C85.8598 156.793 86.1238 157.117 86.3638 157.429C86.6278 157.717 86.7838 157.873 86.8318 157.897C86.8558 157.993 86.8198 158.101 86.7238 158.221C86.6518 158.341 86.5438 158.473 86.3998 158.617C86.2798 158.737 86.1598 158.845 86.0398 158.941Z" fill="#192C32"/>
</svg>
