<svg width="109" height="154" viewBox="0 0 109 154" fill="none" xmlns="http://www.w3.org/2000/svg">
<path d="M5.30121 152.367C6.33004 148.487 7.10467 144.624 7.83543 140.892C7.89559 140.585 7.95542 140.278 8.01506 139.973C8.6839 136.55 9.32818 133.253 10.1212 130.075C11.8455 123.164 14.2228 117.044 18.8133 111.997C23.4895 106.856 32.2095 100.651 43.021 98.8487C53.7145 97.0659 66.6738 99.5485 80.1069 112.112C96.8089 127.733 101.065 151.184 100.616 173.033C100.237 191.506 96.5113 208.442 94.422 217.94C94.0441 219.658 93.7197 221.133 93.4783 222.329C92.12 229.061 85.7579 234.863 76.6924 239.037C67.7254 243.166 56.6335 245.446 46.8172 245.446C40.6729 245.446 33.7988 242.839 27.17 239.036C20.5786 235.255 14.4309 230.409 9.79319 226.2C6.8241 223.505 5.15319 219.654 4.90497 215.519C4.44094 207.789 3.77051 194.848 3.60848 182.368C3.52745 176.127 3.5739 170.022 3.83438 164.753C4.09683 159.444 4.57136 155.12 5.30121 152.367Z" fill="#192C32" stroke="#192C32" stroke-width="4"/>
<path d="M8.12323 38.4335C9.15206 34.5534 9.92669 30.6903 10.6575 26.958C10.7176 26.6507 10.7774 26.3445 10.8371 26.0393C11.5059 22.6163 12.1502 19.319 12.9432 16.1408C14.6676 9.22977 17.0448 3.11007 21.6353 -1.93659C26.3116 -7.07751 35.0315 -13.2827 45.843 -15.0852C56.5365 -16.8681 69.4958 -14.3854 82.9289 -1.82167C99.6309 13.7995 103.887 37.25 103.438 59.0995C103.059 77.5718 99.3333 94.5079 97.244 104.006C96.8661 105.724 96.5417 107.199 96.3003 108.395C94.942 115.127 88.5799 120.929 79.5145 125.103C70.5475 129.233 59.4556 131.512 49.6392 131.512C43.4949 131.512 36.6208 128.905 29.992 125.102C23.4006 121.321 17.253 116.475 12.6152 112.266C9.64612 109.571 7.97521 105.72 7.72699 101.585C7.26296 93.8548 6.59253 80.9139 6.4305 68.434C6.34947 62.193 6.39592 56.0884 6.6564 50.8192C6.91886 45.5102 7.39338 41.186 8.12323 38.4335Z" fill="#F2DECD" stroke="#192C32" stroke-width="4"/>
<path d="M49.3195 40.08C50.2189 41.2253 50.7842 42.4865 51.0155 43.8634C51.1819 44.4649 51.273 45.0728 51.2887 45.6871C51.3464 46.2702 51.365 46.8659 51.3445 47.4742C51.2717 48.4176 51.1627 49.355 51.0174 50.2863C50.9142 51.1864 50.7719 52.0991 50.5904 53.0243C50.1738 54.9803 49.8384 56.8927 49.5841 58.7614C49.3299 60.63 48.9792 62.5207 48.5323 64.4334L48.0817 66.2499C47.8059 67.5416 47.4004 68.8304 46.8653 70.1166C46.336 71.3656 45.6611 72.4753 44.8406 73.4459C44.0854 74.2362 43.1572 74.8255 42.0558 75.2135C40.9965 75.5704 39.8822 75.8034 38.7129 75.9124C37.6522 76.0397 36.5909 76.0522 35.5289 75.9499C34.5031 75.8537 33.4708 75.6799 32.432 75.4286C31.683 75.226 30.9579 74.9893 30.2567 74.7184C29.5859 74.4908 28.9478 74.1731 28.3423 73.7653C27.773 73.3637 27.2697 72.8966 26.8323 72.3643C26.4008 71.7946 26.0801 71.1099 25.8703 70.31C25.5084 69.2933 25.3183 68.2482 25.2999 67.1747C25.3235 66.07 25.4014 64.9745 25.5337 63.8881C25.8782 60.9642 26.2046 58.0372 26.5128 55.1072C26.8631 52.1461 27.3583 49.2093 27.9984 46.2969C28.2961 44.6267 28.7567 42.9839 29.3804 41.3685C30.0461 39.722 31.042 38.3414 32.3682 37.2266C32.7885 36.915 33.2573 36.6499 33.7747 36.4311C35.0629 36.0363 36.4156 35.8244 37.8326 35.7953C39.2917 35.735 40.7037 35.858 42.0684 36.1642C43.4694 36.4765 44.787 36.9659 46.0213 37.6324C47.2975 38.2678 48.397 39.0836 49.3195 40.08ZM42.6574 59.2011L43.0757 56.5189L43.5596 52.701C43.5654 52.6637 43.5873 52.2851 43.6253 51.5652C43.7052 50.814 43.7765 50.1188 43.839 49.4794C43.9293 48.4242 43.7877 47.4255 43.4142 46.4833C43.077 45.5473 42.5237 44.8043 41.7546 44.2543C41.0766 43.8343 40.3428 43.6534 39.5531 43.7117C38.7634 43.7699 38.044 43.9737 37.3947 44.3232C35.9701 45.1156 34.9185 46.2575 34.2398 47.7489C33.7293 49.1157 33.3158 50.5753 32.9994 52.1276C32.7191 53.6861 32.4932 55.2537 32.3217 56.8305C32.2994 58.1648 32.217 59.5272 32.0745 60.9177C31.9378 62.2709 31.9547 63.5927 32.1252 64.8829C32.3712 65.6889 32.8063 66.3548 33.4306 66.8804C34.0549 67.406 34.7597 67.7731 35.5449 67.9817C36.336 68.1531 37.1503 68.1755 37.9878 68.0489C38.8311 67.885 39.5738 67.5321 40.2159 66.9903C40.6116 66.5982 40.9022 66.2839 41.0878 66.0475C41.2792 65.7739 41.4191 65.4725 41.5076 65.1433C41.5961 64.8142 41.6571 64.423 41.6906 63.9699C41.7661 63.4856 41.9011 62.8585 42.0956 62.0884C42.248 61.3495 42.3678 60.7006 42.4549 60.1418C42.5783 59.5891 42.6458 59.2756 42.6574 59.2011Z" fill="#192C32"/>
<path d="M46.0341 43.3408C46.6508 44.2372 47.0305 45.231 47.1734 46.3222C47.2818 46.7977 47.3371 47.2796 47.3392 47.7678C47.3714 48.2305 47.3758 48.7038 47.3525 49.1877C47.2875 49.939 47.1971 50.6859 47.0813 51.4286C46.9955 52.1459 46.882 52.8738 46.7407 53.6122C46.4189 55.1739 46.1549 56.6996 45.9486 58.1892C45.7424 59.6789 45.4679 61.1876 45.1253 62.7153L44.7816 64.1666C44.5686 65.1978 44.2643 66.2289 43.8688 67.2599C43.4778 68.2612 42.9864 69.1541 42.3945 69.9386C41.8512 70.5789 41.189 71.0619 40.4078 71.3877C39.6566 71.6881 38.8686 71.8908 38.0435 71.9958C37.2948 72.1137 36.5472 72.1403 35.8008 72.0757C35.0798 72.0153 34.3554 71.8933 33.6276 71.7098C33.1031 71.5606 32.5959 71.3837 32.1061 71.1793C31.637 71.0089 31.1923 70.7664 30.7718 70.4517C30.3768 70.1413 30.0292 69.7779 29.7289 69.3615C29.4333 68.9154 29.2174 68.376 29.0813 67.7434C28.8413 66.9408 28.7226 66.1128 28.7253 65.2596C28.758 64.381 28.8288 63.5088 28.9377 62.6429C29.2229 60.3129 29.4953 57.9807 29.7551 55.6463C30.0448 53.2866 30.4363 50.9439 30.9294 48.6184C31.1633 47.2858 31.5116 45.9725 31.9743 44.6784C32.467 43.3589 33.1884 42.2456 34.1386 41.3384C34.4391 41.0841 34.7731 40.8659 35.1406 40.6839C36.0535 40.3498 37.0091 40.16 38.0074 40.1146C39.0358 40.0438 40.0283 40.1194 40.9849 40.3414C41.9669 40.5677 42.8877 40.9361 43.7471 41.4466C44.6366 41.9317 45.3989 42.5631 46.0341 43.3408Z" fill="#DFE7EB"/>
<path d="M41.1633 69.248C39.0749 71.3764 35.4204 71.2596 33.612 69.2428C31.7431 67.2123 31.9903 63.5774 34.1834 61.5898C36.245 59.5554 39.6951 59.542 41.5214 61.496C43.547 63.4288 43.3245 67.2029 41.1633 69.248Z" fill="#192C32"/>
<path d="M40.3554 67.7964C39.3846 68.9434 37.3641 69.1997 36.6084 67.8419C35.6306 66.4166 37.0332 64.1497 38.7618 64.1272C40.4993 64.0735 41.6679 66.4103 40.3554 67.7964Z" fill="#DFE7EB"/>
<path d="M73.8461 36.0037C75.0956 36.7851 76.0616 37.7984 76.7438 39.0437C77.1049 39.5641 77.3954 40.1178 77.6154 40.7048C77.8656 41.2467 78.0821 41.8147 78.2651 42.4089C78.5095 43.3453 78.7168 44.289 78.8872 45.2397C79.0878 46.1453 79.2547 47.0771 79.3881 48.035C79.6384 50.0721 79.9524 52.0378 80.3302 53.9322C80.7079 55.8266 81 57.7769 81.2065 59.7831L81.3775 61.6978C81.542 63.0432 81.5806 64.4327 81.4931 65.8661C81.3989 67.2616 81.1177 68.5751 80.6498 69.8068C80.1847 70.8411 79.4856 71.7436 78.5524 72.5143C77.6494 73.2399 76.652 73.8656 75.5602 74.3916C74.5793 74.8961 73.5595 75.2901 72.5007 75.5736C71.479 75.8499 70.4251 76.0537 69.3391 76.1851C68.5489 76.2592 67.7704 76.2917 67.0036 76.2826C66.2805 76.3044 65.5589 76.2276 64.8388 76.0521C64.1556 75.8694 63.5143 75.6 62.9148 75.2437C62.3085 74.8495 61.7708 74.3042 61.3017 73.608C60.6136 72.7573 60.0817 71.8174 59.706 70.7883C59.3604 69.714 59.0704 68.629 58.8357 67.5333C58.1932 64.5883 57.5322 61.647 56.8527 58.7092C56.2033 55.7262 55.7019 52.7146 55.3484 49.6744C55.0787 47.9559 54.9754 46.2051 55.0385 44.4222C55.1317 42.5941 55.6323 40.9037 56.5401 39.3509C56.8417 38.8991 57.2056 38.4745 57.6318 38.0773C58.7431 37.2328 59.9774 36.5416 61.3349 36.0036C62.7226 35.4204 64.1258 35.0309 65.5446 34.8352C67.0004 34.6323 68.4348 34.6303 69.8478 34.8292C71.291 34.9829 72.6237 35.3744 73.8461 36.0037ZM73.7939 56.8491L73.3032 54.1109L72.4971 50.2532C72.4903 50.2152 72.3851 49.842 72.1817 49.1337C72.0084 48.3802 71.8453 47.6838 71.6925 47.0445C71.4277 45.9939 70.9581 45.0813 70.2836 44.3067C69.6462 43.525 68.8647 43.0072 67.9392 42.7534C67.1451 42.5922 66.3768 42.6818 65.6344 43.0221C64.8919 43.3625 64.2657 43.818 63.7558 44.3888C62.6456 45.666 62.0117 47.1461 61.8542 48.8293C61.8174 50.3317 61.9051 51.8886 62.1174 53.5002C62.3667 55.1047 62.6714 56.6984 63.0316 58.2814C63.455 59.5767 63.8298 60.9208 64.1559 62.3136C64.4752 63.6684 64.9322 64.9376 65.5269 66.1211C66.033 66.8102 66.6748 67.296 67.4524 67.5784C68.2299 67.8609 69.0323 67.9614 69.8595 67.8802C70.6798 67.7608 71.4729 67.4894 72.2387 67.0658C72.9977 66.6042 73.5966 65.9965 74.0354 65.2427C74.2865 64.722 74.4621 64.3142 74.5623 64.0194C74.6557 63.6865 74.6902 63.3454 74.6658 62.996C74.6415 62.6465 74.5699 62.2472 74.4512 61.798C74.3626 61.3036 74.2837 60.6499 74.2145 59.837C74.1152 59.0692 74.0144 58.4001 73.9122 57.8296C73.8469 57.252 73.8075 56.9252 73.7939 56.8491Z" fill="#192C32"/>
<path d="M71.7636 40.3319C72.6574 40.9749 73.3552 41.7971 73.8568 42.7984C74.12 43.2182 74.334 43.6632 74.4988 44.1334C74.6841 44.5683 74.8462 45.0233 74.985 45.4986C75.1728 46.2468 75.3347 47 75.4705 47.7582C75.6269 48.4811 75.7601 49.2242 75.87 49.9875C76.0802 51.61 76.3342 53.177 76.6319 54.6884C76.9296 56.1999 77.1679 57.7542 77.3467 59.3514L77.499 60.8753C77.6373 61.9469 77.6875 63.0512 77.6497 64.1882C77.6063 65.2949 77.4299 66.3332 77.1205 67.3031C76.8098 68.1164 76.3319 68.8207 75.6868 69.4162C75.0623 69.9763 74.3695 70.4555 73.6086 70.8537C72.9255 71.2369 72.2131 71.5316 71.4714 71.7378C70.7557 71.939 70.0161 72.082 69.2527 72.1669C68.6969 72.2116 68.1486 72.2235 67.6079 72.2026C67.0986 72.207 66.5886 72.133 66.078 71.9807C65.5934 71.8234 65.1368 71.5979 64.7083 71.3042C64.2744 70.9802 63.8863 70.5375 63.544 69.9761C63.0448 69.2881 62.6543 68.532 62.3724 67.7079C62.1109 66.8484 61.8885 65.9814 61.7049 65.1069C61.2031 62.7562 60.6883 60.4081 60.1606 58.0625C59.6534 55.6815 59.2499 53.2804 58.9503 50.8593C58.7317 49.4895 58.6298 48.097 58.6447 46.682C58.6801 45.2317 59.005 43.8979 59.6192 42.6808C59.8243 42.3273 60.0738 41.9966 60.3677 41.6887C61.1371 41.0378 61.9958 40.5109 62.9438 40.1078C63.9123 39.6695 64.8951 39.3853 65.8921 39.2552C66.915 39.1201 67.9261 39.1442 68.9255 39.3275C69.9454 39.4754 70.8915 39.8102 71.7636 40.3319Z" fill="#DFE7EB"/>
<path d="M66.3142 71.0021C63.9076 69.7086 63.0198 66.2272 64.2752 63.8834C65.5262 61.4782 68.7378 60.5588 71.0508 61.9957C73.3687 63.2938 74.3138 66.5412 73.1175 68.882C71.9936 71.4039 68.6682 72.3907 66.3142 71.0021Z" fill="#192C32"/>
<path d="M67.3709 69.753C66.1154 69.2014 65.3467 67.3776 66.3175 66.2345C67.2864 64.8605 69.6282 65.4641 70.1155 67.0868C70.6323 68.708 68.9259 70.551 67.3709 69.753Z" fill="#DFE7EB"/>
<path d="M64.6835 23.6474C64.8757 23.6077 65.0417 23.5775 65.1815 23.5569L66.86 23.3097C67.1398 23.2685 67.4065 23.2321 67.6601 23.2004C67.9398 23.1592 68.2196 23.118 68.4993 23.0768C68.493 23.2317 68.5726 23.5535 68.7381 24.0422C68.9205 24.4943 69.1319 25.1188 69.3724 25.9157C69.3385 25.9891 69.1817 26.0464 68.902 26.0877C68.613 26.1017 68.2541 26.1261 67.8253 26.1607C67.4226 26.1858 66.9984 26.234 66.5527 26.3054C66.0977 26.3496 65.6781 26.4114 65.2938 26.4908L65.7851 28.4624C65.8035 28.5167 65.8042 28.5622 65.7873 28.5989C65.7612 28.6084 65.7089 28.6275 65.6305 28.6562C65.5521 28.6849 65.3691 28.7517 65.0816 28.8568C64.7849 28.9347 64.3491 29.0787 63.7741 29.2888C63.1638 29.4813 62.3136 29.7462 61.2236 30.0835L61.1844 30.0978L61.1707 30.0571C60.7225 29.4275 60.4174 28.7 60.2554 27.8743C60.058 27.0311 59.8245 26.1248 59.555 25.1553L59.5413 25.1146L64.1049 23.63L64.1325 23.7114C64.1586 23.7019 64.1893 23.7059 64.2247 23.7235C64.2247 23.7235 64.2377 23.7187 64.2639 23.7092C64.3684 23.671 64.5083 23.6504 64.6835 23.6474Z" fill="#192C32"/>
<path d="M41.7584 24.0777C41.5725 24.0136 41.4113 23.9623 41.275 23.9239L39.6389 23.4626C39.3662 23.3857 39.1059 23.3152 38.8581 23.2512C38.5854 23.1743 38.3127 23.0974 38.04 23.0205C38.0278 23.175 37.9105 23.4841 37.688 23.9478C37.4531 24.3729 37.1688 24.9654 36.8352 25.7253C36.86 25.8025 37.0088 25.8795 37.2815 25.9564C37.5665 26.0075 37.9198 26.0779 38.3411 26.1674C38.7377 26.2441 39.1529 26.3466 39.5867 26.4748C40.0329 26.5772 40.4419 26.6925 40.8138 26.8207L40.0912 28.7139C40.0665 28.7654 40.0604 28.8105 40.0728 28.8491C40.0976 28.8619 40.1472 28.8876 40.2216 28.9261C40.296 28.9646 40.4695 29.0545 40.7423 29.1958C41.0274 29.3112 41.4427 29.5102 41.9882 29.7927C42.5709 30.0623 43.3829 30.4345 44.4243 30.9095L44.4615 30.9287L44.48 30.8901C44.9997 30.3231 45.3892 29.6403 45.6485 28.8419C45.9449 28.0306 46.2846 27.1613 46.6676 26.234L46.6861 26.1953L42.3346 24.1349L42.2976 24.2122C42.2728 24.1993 42.2418 24.1994 42.2046 24.2123C42.2046 24.2123 42.1922 24.2059 42.1674 24.193C42.0682 24.1417 41.9319 24.1032 41.7584 24.0777Z" fill="#192C32"/>
<g clip-path="url(#clip0_123_389)">
<path d="M43.1309 79.5438L35.05 84.9406L32.7412 86.7396C32.9336 88.5385 33.6647 92.6162 35.05 94.5351C36.4353 96.454 43.3233 106.528 46.5941 111.325L58.1382 113.124L62.7559 110.726L71.414 98.7326L74.8772 87.9389L71.414 81.3427L59.8699 77.1451L43.1309 79.5438Z" fill="#DFE7EB"/>
<path d="M54.1188 75.9789C60.6095 75.8134 67.3165 76.6407 73.189 79.7182C75.7543 80.9095 78.3815 83.4575 77.6397 86.7666C76.527 94.2452 74.1162 101.658 70.1291 107.945C63.9166 117.376 49.6681 117.972 42.3429 109.765C38.0158 104.867 35.0486 98.7456 32.6687 92.5576C31.7106 90.0426 30.6906 86.5681 32.9469 84.4833C38.6339 78.8909 46.5154 76.5083 54.1188 75.9789ZM37.2122 84.8804C37.7685 85.7739 38.4485 86.9651 39.623 86.7666C49.2972 86.7335 58.9404 85.84 68.5219 84.5164C69.7273 84.5826 69.8818 82.7957 68.9546 82.2331C64.6893 78.9571 59.1259 78.924 54.057 79.0563C47.999 78.8909 42.3429 81.6044 37.2122 84.8804ZM45.6809 109.6C46.4227 110.857 47.8754 110.923 49.0499 111.221C54.9842 112.081 62.433 111.155 66.4202 105.959C60.2695 109.997 52.7279 111.287 45.6809 109.6Z" fill="#192C32"/>
</g>
<path d="M74.3896 99.1121C73.9146 98.3703 73.3208 98.2466 72.727 98.4939C72.1332 98.4939 71.4206 98.7412 71.0643 99.4831C69.4017 103.934 63.1074 103.316 62.5136 98.4939C62.3948 97.2574 57.4069 97.752 58.1195 99.2358C58.9508 100.843 57.5257 102.822 55.863 101.832C54.0816 100.843 54.0816 98.2466 53.9629 96.5155C53.9629 95.4027 50.1626 95.2791 50.2813 96.5155C50.4001 98.6175 48.6187 100.101 46.7185 99.2358C44.6996 98.2466 44.6996 95.65 45.8872 94.0426C46.481 93.1771 46.006 92.1879 45.1746 91.9406C44.8184 91.6933 44.4621 91.446 43.8683 91.5696C35.6738 93.7953 30.4484 101.461 31.3985 110.364C32.3486 119.39 39.1179 126.315 47.1936 129.035C64.6513 134.723 84.2467 117.783 74.3896 99.1121Z" fill="#192C32"/>
<path d="M50.994 126.686C44.1059 125.449 37.9304 121.122 35.4364 114.197C32.7049 106.531 35.4364 98.7413 42.2057 95.4028C41.8495 98.2467 43.1558 101.091 46.0061 102.203C48.1437 102.945 50.2814 102.327 51.7065 100.843C52.4191 103.193 53.8442 105.171 56.5757 105.171C58.5946 105.171 60.1385 103.935 60.8511 102.327C62.0387 104.058 63.7013 105.418 65.9577 105.666C68.6892 106.037 71.0644 104.8 72.6083 102.698C78.4275 116.794 64.5326 129.159 50.994 126.686Z" fill="#F2DECD"/>
<path d="M42.2059 103.687C41.8496 103.44 41.3746 103.316 41.0183 103.44C40.0682 103.811 38.9994 104.305 38.4056 105.295C37.8118 106.284 37.8118 107.644 38.4056 108.757C39.7119 110.982 42.7997 110.859 44.2248 108.88C45.4124 107.026 44.4623 104.182 42.2059 103.687Z" fill="#192C32"/>
<path d="M62.3951 115.063C62.0388 115.187 61.8013 115.434 61.5638 115.681C60.0199 116.794 59.4261 119.267 60.97 120.874C62.8701 122.976 66.4329 121.863 66.908 119.02C67.5018 116.423 65.0078 113.95 62.3951 115.063Z" fill="#192C32"/>
<path d="M48.8563 116.299C48.5 116.423 48.2625 116.67 48.025 116.917C46.4811 118.03 45.8873 120.503 47.4312 122.111C49.3313 124.213 52.8941 123.1 53.3692 120.256C53.8442 117.659 51.3502 115.186 48.8563 116.299Z" fill="#192C32"/>
<path d="M74.9837 108.633C74.7462 108.262 74.2712 108.015 73.7961 107.891C71.0646 107.644 69.2832 110.611 70.3521 113.084C71.5397 115.557 74.9837 115.804 76.4088 113.455C77.4777 111.724 76.6464 109.375 74.9837 108.633Z" fill="#192C32"/>
<path d="M59.6636 109.499C58.9511 106.902 55.1507 106.16 53.8444 108.757C53.8444 108.88 53.8444 108.88 53.7256 109.004C53.7256 109.128 53.6069 109.251 53.6069 109.375C53.6069 109.499 53.4881 109.622 53.4881 109.746C53.1318 111.23 53.7256 113.085 55.3883 113.703C57.8822 114.568 60.3762 112.095 59.6636 109.499Z" fill="#192C32"/>
<path d="M117.856 174.289C114.056 169.096 109.305 164.521 105.386 159.328C100.517 153.022 96.2416 146.221 92.4413 139.174C92.56 139.05 92.56 138.803 92.56 138.555C92.3225 129.653 89.591 121.121 84.1281 114.197C82.2279 111.724 79.2589 108.88 75.9336 109.498C73.4397 109.993 71.777 112.095 71.777 114.691C69.9956 115.186 68.6893 116.793 69.0456 118.772C66.7891 119.266 66.3141 121.863 66.9079 124.212C66.4328 124.336 66.0766 124.583 65.6015 124.954C61.6824 128.787 67.6204 135.711 70.5894 138.926C69.1643 146.221 72.0146 153.393 78.0713 157.35C81.1591 172.806 96.4791 210.147 117.025 196.546C124.982 191.229 122.725 180.966 117.856 174.289Z" fill="#192C32"/>
<path d="M103.486 194.939C98.4981 192.837 94.8166 188.633 91.7288 184.058C86.0283 175.65 82.3468 166.129 80.4466 156.113C80.3278 155.619 80.0903 155.371 79.734 155.248C74.5086 151.909 71.7771 145.974 72.9647 139.668C73.4398 139.174 73.6773 138.432 73.0835 137.813C72.0146 136.701 64.2952 127.427 68.0956 126.809C69.4019 126.562 72.3709 130.271 73.2022 131.013C74.6274 132.497 76.0525 133.98 77.3588 135.711C78.4277 137.072 80.4466 135.217 79.3778 133.857C77.0026 130.889 74.2711 127.798 71.1833 125.449C70.7083 125.078 70.1145 124.707 69.6394 124.46C69.6394 124.212 69.6394 124.089 69.5207 123.841C70.352 122.11 71.1833 121.739 72.1334 122.481C72.6084 122.852 72.9647 123.099 73.4398 123.47C74.5086 124.336 75.4587 125.201 76.4088 126.067C77.9526 127.551 79.3778 129.282 80.5654 131.136C81.6342 132.497 83.5344 130.642 82.5843 129.282C80.9216 126.932 78.9027 124.707 76.765 122.728C75.3399 121.492 73.6773 119.885 71.8959 119.019C71.8959 118.772 71.8959 118.648 71.7771 118.401C72.2522 117.164 72.846 116.793 73.796 117.164C74.5086 117.288 75.2212 117.535 75.815 118.03C76.6463 118.524 77.4776 119.019 78.1902 119.637C79.9716 121.121 81.3967 122.976 82.5843 125.201C83.4156 126.809 85.7908 125.449 84.9595 123.965C82.8218 120.008 79.1402 115.928 74.7461 114.568C77.9526 112.713 80.3278 112.96 81.8717 115.31C82.703 116.422 83.5344 117.535 84.3657 118.648C85.4345 120.379 86.3846 122.11 87.2159 124.089C89.1161 128.416 89.9474 133.115 90.1849 137.813C89.7099 138.184 89.4724 138.803 89.8286 139.421C93.8665 146.963 98.4981 154.259 103.724 161.059C109.305 168.354 126.763 166.623 119.637 188.633C116.906 195.804 109.662 197.535 103.486 194.939Z" fill="#F2DECD"/>
<path d="M-13.0176 191.353C6.34025 206.809 24.6293 170.828 29.0234 155.743C35.4365 152.28 38.7617 145.48 38.0492 138.061C41.3745 135.093 47.7875 128.664 44.2247 124.583C43.8684 124.212 43.3934 123.842 43.0371 123.718C43.8684 121.369 43.5121 118.772 41.3745 118.03C41.9683 116.052 40.7807 114.444 38.9993 113.702C39.118 111.106 37.6929 108.88 35.1989 108.262C31.8737 107.273 28.7859 109.869 26.6482 112.219C20.7102 118.648 17.2662 126.933 16.3161 135.712C16.3161 135.959 16.3161 136.206 16.4349 136.33C12.0407 143.007 7.17157 149.437 1.82737 155.248C-2.56675 160.07 -7.55467 164.151 -11.83 168.973C-17.4117 175.279 -20.6183 185.294 -13.0176 191.353Z" fill="#192C32"/>
<path d="M-14.5616 183.316C-16.9368 168.479 -10.5237 164.646 -4.46695 157.969C1.23353 151.663 -7.79223 175.527 19.0475 137.072C19.5226 136.454 19.285 135.836 18.81 135.465C19.4038 130.766 20.7102 126.315 22.8479 122.111C23.7979 120.38 24.8668 118.649 26.0544 117.041C26.8857 115.928 27.8358 114.816 28.7859 113.826C30.5672 111.477 32.9424 111.477 36.0302 113.703C31.5173 114.568 27.5983 118.278 25.1043 122.111C24.1542 123.595 26.4106 125.078 27.3607 123.595C28.6671 121.616 30.211 119.885 32.1111 118.525C32.9424 118.03 33.7738 117.536 34.6051 117.041C35.1989 116.67 35.9114 116.423 36.624 116.423C37.5741 116.052 38.1679 116.547 38.5242 117.783C38.4054 118.03 38.2867 118.154 38.2867 118.401C36.3865 119.02 34.6051 120.503 33.0612 121.616C30.686 123.347 28.6671 125.326 26.7669 127.551C25.6981 128.911 27.4795 130.89 28.5483 129.53C29.9734 127.922 31.5173 126.315 33.18 124.955C34.2488 124.089 35.3176 123.347 36.3865 122.605C36.8615 122.358 37.3366 121.987 37.8116 121.74C38.7617 120.998 39.593 121.493 40.3056 123.224C40.1868 123.471 40.1868 123.718 40.1868 123.842C39.593 124.089 38.9992 124.337 38.5242 124.707C35.3176 126.809 32.3486 129.53 29.7359 132.25C28.5483 133.486 30.3297 135.465 31.5173 134.228C32.9424 132.745 34.3676 131.261 36.0302 130.024C36.8615 129.282 40.1868 125.944 41.4932 126.191C45.1747 127.18 36.7428 135.712 35.5552 136.825C34.8426 137.443 35.0801 138.185 35.5552 138.68C36.149 145.109 33.0612 150.797 27.4795 153.641C27.1232 153.765 26.8857 154.012 26.7669 154.507C24.0354 164.398 19.6413 173.548 13.2283 181.338C9.78425 185.542 5.86517 189.499 0.639729 191.106C-5.77331 192.961 -13.374 190.735 -14.5616 183.316Z" fill="#F2DECD"/>
<defs>
<clipPath id="clip0_123_389">
<rect width="46.1764" height="39.5771" fill="white" transform="translate(31.5869 75.9458)"/>
</clipPath>
</defs>
</svg>
