<svg width="187" height="148" viewBox="0 0 187 148" fill="none" xmlns="http://www.w3.org/2000/svg">
<path d="M29.8174 166.755C31.1875 161.789 32.2199 156.842 33.1966 152.048C33.2771 151.653 33.3572 151.259 33.4371 150.866C34.3304 146.472 35.194 142.225 36.2572 138.129C38.5695 129.223 41.7744 121.261 48.0068 114.676C54.3288 107.997 66.1145 99.9298 80.7611 97.5831C95.3008 95.2534 112.844 98.5263 130.937 114.789C153.448 135.023 159.131 165.335 158.531 193.435C158.023 217.214 153.03 239.023 150.239 251.217C149.735 253.418 149.303 255.307 148.982 256.836C147.114 265.734 138.394 273.305 126.194 278.704C114.109 284.052 99.1792 287 85.9577 287C77.2042 287 67.4613 283.29 58.2437 278.064C49.065 272.86 40.6143 266.272 34.5013 260.784C31.4216 258.02 29.6604 254.099 29.3883 249.864C28.7891 240.542 27.8293 223.573 27.5611 206.98C27.427 198.682 27.4663 190.501 27.8075 183.427C28.1507 176.31 28.7943 170.463 29.8174 166.755Z" fill="#192C32" stroke="#192C32" stroke-width="4"/>
<path d="M33.5889 20.4182C34.959 15.4524 35.9914 10.5052 36.9681 5.71124C37.0486 5.3161 37.1287 4.92212 37.2086 4.52931C38.1019 0.135532 38.9655 -4.11197 40.0287 -8.20723C42.341 -17.1135 45.5459 -25.0753 51.7783 -31.6602C58.1003 -38.3396 69.886 -46.4067 84.5326 -48.7535C99.0723 -51.0832 116.616 -47.8103 134.709 -31.5475C157.219 -11.3139 162.903 18.9984 162.302 47.098C161.794 70.8779 156.802 92.6862 154.01 104.88C153.506 107.082 153.074 108.97 152.753 110.5C150.885 119.397 142.165 126.968 129.965 132.367C117.881 137.715 102.951 140.664 89.7292 140.664C80.9757 140.664 71.2328 136.953 62.0152 131.727C52.8364 126.523 44.3858 119.936 38.2728 114.448C35.193 111.683 33.4319 107.762 33.1598 103.528C32.5606 94.205 31.6008 77.2366 31.3326 60.6435C31.1985 52.3457 31.2378 44.1641 31.5789 37.0906C31.9222 29.9735 32.5657 24.1266 33.5889 20.4182Z" fill="#F2DECD" stroke="#192C32" stroke-width="4"/>
<path d="M89.3019 22.6596C90.5039 24.1306 91.2594 25.7505 91.5686 27.519C91.7909 28.2915 91.9126 29.0723 91.9336 29.8613C92.0108 30.6103 92.0357 31.3754 92.0082 32.1566C91.9109 33.3684 91.7652 34.5724 91.5711 35.7686C91.4332 36.9247 91.2429 38.0969 91.0004 39.2852C90.4437 41.7975 89.9954 44.2538 89.6556 46.6539C89.3157 49.054 88.8471 51.4824 88.2497 53.939L87.6476 56.2722C87.279 57.9311 86.7371 59.5865 86.0219 61.2385C85.3145 62.8426 84.4125 64.268 83.316 65.5146C82.3067 66.5297 81.0661 67.2865 79.5942 67.7849C78.1785 68.2433 76.6893 68.5425 75.1265 68.6825C73.709 68.846 72.2905 68.8621 70.8712 68.7307C69.5002 68.6071 68.1206 68.3839 66.7323 68.0612C65.7313 67.801 64.7622 67.4969 63.8251 67.1489C62.9286 66.8566 62.0758 66.4486 61.2666 65.9249C60.5058 65.409 59.8331 64.8091 59.2485 64.1254C58.6718 63.3937 58.2432 62.5142 57.9628 61.4868C57.4792 60.1811 57.2251 58.8388 57.2005 57.4599C57.232 56.0411 57.3362 54.634 57.5129 53.2386C57.9734 49.4832 58.4096 45.7238 58.8216 41.9605C59.2898 38.1572 59.9516 34.3852 60.807 30.6446C61.2048 28.4993 61.8205 26.3893 62.654 24.3146C63.5436 22.1998 64.8746 20.4265 66.647 18.9947C67.2088 18.5945 67.8353 18.254 68.5268 17.973C70.2485 17.4659 72.0562 17.1937 73.9501 17.1563C75.9001 17.079 77.7871 17.2369 79.6111 17.6302C81.4835 18.0313 83.2444 18.6599 84.8939 19.5159C86.5996 20.332 88.0689 21.3799 89.3019 22.6596ZM80.3982 47.2186L80.9573 43.7737L81.604 38.87C81.6118 38.8221 81.641 38.3358 81.6917 37.4111C81.7986 36.4463 81.8939 35.5534 81.9774 34.7322C82.098 33.3768 81.9088 32.0941 81.4096 30.884C80.9589 29.6818 80.2196 28.7274 79.1916 28.021C78.2856 27.4816 77.3049 27.2493 76.2495 27.3241C75.1941 27.3989 74.2325 27.6607 73.3648 28.1096C71.4609 29.1273 70.0555 30.594 69.1484 32.5095C68.4661 34.265 67.9135 36.1397 67.4906 38.1335C67.1161 40.1352 66.8141 42.1487 66.5848 44.1738C66.5551 45.8876 66.445 47.6374 66.2546 49.4234C66.0718 51.1615 66.0944 52.8592 66.3223 54.5164C66.651 55.5516 67.2326 56.4068 68.0669 57.0819C68.9013 57.757 69.8432 58.2285 70.8926 58.4965C71.9498 58.7166 73.0381 58.7453 74.1574 58.5827C75.2845 58.3722 76.2771 57.919 77.1352 57.2231C77.6641 56.7194 78.0525 56.3158 78.3005 56.0122C78.5562 55.6607 78.7433 55.2736 78.8615 54.8508C78.9798 54.4281 79.0614 53.9257 79.1061 53.3437C79.2071 52.7217 79.3875 51.9162 79.6473 50.9271C79.851 49.978 80.0111 49.1446 80.1276 48.4269C80.2925 47.7171 80.3827 47.3143 80.3982 47.2186Z" fill="#192C32"/>
<path d="M84.9111 26.8476C85.7352 27.9991 86.2427 29.2755 86.4337 30.6769C86.5786 31.2877 86.6524 31.9067 86.6553 32.5336C86.6983 33.128 86.7042 33.7359 86.6731 34.3574C86.5862 35.3223 86.4654 36.2817 86.3105 37.2356C86.1959 38.1569 86.0442 39.0918 85.8554 40.0402C85.4253 42.046 85.0724 44.0056 84.7968 45.9189C84.5212 47.8323 84.1544 49.77 83.6965 51.7322L83.2371 53.5962C82.9525 54.9207 82.5458 56.2451 82.0172 57.5692C81.4947 58.8553 80.838 60.0021 80.0469 61.0098C79.3208 61.8321 78.4357 62.4525 77.3917 62.871C76.3878 63.2568 75.3346 63.5172 74.232 63.6521C73.2313 63.8035 72.2321 63.8376 71.2346 63.7546C70.2711 63.677 69.3029 63.5204 68.3302 63.2847C67.6292 63.093 66.9514 62.8659 66.2968 62.6034C65.6699 62.3845 65.0755 62.0729 64.5136 61.6688C63.9856 61.2701 63.521 60.8034 63.1198 60.2685C62.7247 59.6956 62.4362 59.0028 62.2543 58.1902C61.9335 57.1593 61.7749 56.096 61.7784 55.0001C61.8221 53.8716 61.9168 52.7513 62.0624 51.6392C62.4435 48.6465 62.8076 45.6511 63.1547 42.6528C63.542 39.622 64.0651 36.6131 64.7242 33.6262C65.0368 31.9146 65.5023 30.2278 66.1206 28.5657C66.7791 26.8709 67.7433 25.4409 69.0131 24.2758C69.4147 23.9492 69.8611 23.669 70.3523 23.4352C71.5723 23.006 72.8495 22.7623 74.1837 22.704C75.5581 22.6131 76.8845 22.7102 78.163 22.9953C79.4754 23.2859 80.7059 23.7591 81.8546 24.4148C83.0433 25.0379 84.0622 25.8488 84.9111 26.8476Z" fill="#DFE7EB"/>
<path d="M78.4013 60.1227C75.6102 62.8565 70.7261 62.7064 68.3092 60.1161C65.8115 57.5081 66.1418 52.8394 69.0729 50.2866C71.8281 47.6736 76.439 47.6564 78.8798 50.1662C81.587 52.6486 81.2896 57.4961 78.4013 60.1227Z" fill="#192C32"/>
<path d="M77.3216 58.2582C76.0242 59.7314 73.3239 60.0605 72.314 58.3166C71.0071 56.486 72.8817 53.5744 75.1919 53.5455C77.5139 53.4764 79.0758 56.4779 77.3216 58.2582Z" fill="#DFE7EB"/>
<path d="M122.081 17.424C123.751 18.4276 125.042 19.7291 125.954 21.3285C126.436 21.9969 126.824 22.7081 127.118 23.462C127.453 24.158 127.742 24.8876 127.987 25.6507C128.313 26.8535 128.59 28.0655 128.818 29.2867C129.086 30.4498 129.309 31.6466 129.488 32.8769C129.822 35.4933 130.242 38.0181 130.747 40.4513C131.251 42.8844 131.642 45.3894 131.918 47.9661L132.146 50.4254C132.366 52.1534 132.418 53.938 132.301 55.7791C132.175 57.5714 131.799 59.2585 131.174 60.8404C130.552 62.1689 129.618 63.3281 128.371 64.318C127.164 65.2499 125.831 66.0536 124.372 66.7291C123.061 67.3771 121.698 67.8832 120.283 68.2473C118.917 68.6022 117.509 68.864 116.057 69.0327C115.001 69.1279 113.961 69.1697 112.936 69.158C111.97 69.186 111.005 69.0873 110.043 68.8619C109.13 68.6273 108.273 68.2812 107.472 67.8236C106.661 67.3172 105.943 66.6169 105.316 65.7227C104.396 64.6301 103.685 63.4229 103.183 62.1012C102.721 60.7213 102.334 59.3278 102.02 57.9204C101.161 54.1379 100.278 50.36 99.3698 46.5867C98.502 42.7554 97.8318 38.8874 97.3594 34.9825C96.9989 32.7753 96.8608 30.5266 96.9452 28.2367C97.0698 25.8887 97.7387 23.7175 98.952 21.7231C99.3551 21.1428 99.8415 20.5975 100.411 20.0873C101.896 19.0026 103.546 18.1148 105.36 17.4238C107.215 16.6747 109.09 16.1745 110.986 15.9231C112.932 15.6626 114.849 15.66 116.737 15.9155C118.666 16.1129 120.447 16.6157 122.081 17.424ZM122.011 44.1977L121.355 40.6807L120.278 35.7259C120.269 35.6771 120.128 35.1978 119.856 34.2881C119.625 33.3203 119.407 32.4258 119.203 31.6046C118.849 30.2553 118.221 29.0832 117.32 28.0883C116.468 27.0843 115.423 26.4192 114.187 26.0932C113.125 25.8862 112.098 26.0012 111.106 26.4384C110.114 26.8755 109.277 27.4606 108.596 28.1938C107.112 29.8342 106.265 31.7352 106.054 33.897C106.005 35.8267 106.122 37.8265 106.406 39.8964C106.739 41.9572 107.146 44.0041 107.628 46.0373C108.194 47.701 108.694 49.4273 109.13 51.2163C109.557 52.9564 110.168 54.5865 110.963 56.1066C111.639 56.9916 112.497 57.6156 113.536 57.9783C114.575 58.3411 115.647 58.4703 116.753 58.3659C117.849 58.2127 118.909 57.864 119.933 57.32C120.947 56.7271 121.747 55.9466 122.334 54.9784C122.669 54.3096 122.904 53.7858 123.038 53.4072C123.163 52.9796 123.209 52.5415 123.176 52.0927C123.144 51.6439 123.048 51.131 122.89 50.554C122.771 49.919 122.666 49.0794 122.573 48.0353C122.441 47.0491 122.306 46.1897 122.169 45.457C122.082 44.7152 122.029 44.2954 122.011 44.1977Z" fill="#192C32"/>
<path d="M119.298 22.9832C120.492 23.8091 121.425 24.865 122.095 26.1511C122.447 26.6903 122.733 27.2619 122.953 27.8658C123.201 28.4244 123.417 29.0088 123.603 29.6192C123.854 30.5802 124.07 31.5476 124.252 32.5215C124.461 33.45 124.639 34.4044 124.786 35.3847C125.067 37.4687 125.406 39.4813 125.804 41.4226C126.202 43.3639 126.52 45.3603 126.759 47.4117L126.963 49.369C127.148 50.7453 127.215 52.1637 127.164 53.6241C127.106 55.0455 126.87 56.3791 126.457 57.6249C126.042 58.6694 125.403 59.574 124.541 60.3389C123.706 61.0583 122.78 61.6737 121.763 62.1852C120.85 62.6774 119.898 63.0559 118.907 63.3207C117.951 63.5791 116.962 63.7628 115.942 63.8719C115.199 63.9293 114.466 63.9446 113.744 63.9177C113.063 63.9233 112.381 63.8284 111.699 63.6327C111.051 63.4307 110.441 63.1411 109.868 62.7639C109.289 62.3477 108.77 61.7791 108.312 61.058C107.645 60.1744 107.123 59.2033 106.747 58.1448C106.397 57.0409 106.1 55.9273 105.854 54.804C105.184 51.7849 104.496 48.7689 103.791 45.7562C103.113 42.6981 102.574 39.6142 102.173 36.5045C101.881 34.7451 101.745 32.9567 101.765 31.1392C101.812 29.2764 102.246 27.5633 103.067 26.0001C103.341 25.5461 103.675 25.1213 104.067 24.7259C105.096 23.8899 106.243 23.213 107.51 22.6954C108.805 22.1324 110.118 21.7673 111.451 21.6002C112.818 21.4268 114.169 21.4577 115.505 21.6931C116.868 21.8831 118.132 22.3131 119.298 22.9832Z" fill="#DFE7EB"/>
<path d="M112.015 62.376C108.799 60.7146 107.612 56.2431 109.29 53.2327C110.962 50.1435 115.254 48.9626 118.345 50.8082C121.443 52.4754 122.706 56.6464 121.107 59.6529C119.605 62.8921 115.161 64.1595 112.015 62.376Z" fill="#192C32"/>
<path d="M113.427 60.7716C111.749 60.0632 110.722 57.7206 112.019 56.2524C113.314 54.4877 116.444 55.263 117.095 57.3472C117.786 59.4294 115.505 61.7966 113.427 60.7716Z" fill="#DFE7EB"/>
<path d="M109.835 1.55355C110.092 1.50256 110.314 1.46384 110.501 1.43738L112.744 1.11983C113.118 1.06691 113.475 1.02013 113.814 0.979473C114.187 0.926551 114.561 0.873627 114.935 0.820704C114.927 1.01961 115.033 1.43294 115.254 2.06068C115.498 2.64128 115.781 3.44339 116.102 4.46702C116.057 4.56131 115.847 4.63491 115.473 4.68783C115.087 4.70588 114.607 4.73716 114.034 4.78167C113.496 4.81391 112.929 4.87586 112.334 4.96751C111.726 5.02428 111.165 5.10366 110.651 5.20565L111.308 7.73791C111.332 7.80766 111.333 7.86611 111.311 7.91325C111.276 7.92552 111.206 7.95006 111.101 7.98686C110.996 8.02366 110.752 8.10953 110.368 8.24447C109.971 8.34453 109.389 8.5295 108.62 8.79937C107.804 9.04664 106.668 9.38688 105.211 9.82008L105.159 9.83848L105.141 9.78618C104.542 8.97758 104.134 8.04306 103.917 6.98262C103.654 5.89959 103.342 4.7355 102.981 3.49036L102.963 3.43804L109.062 1.5312L109.099 1.63583C109.134 1.62357 109.175 1.62873 109.222 1.65134C109.222 1.65134 109.24 1.6452 109.275 1.63294C109.414 1.58387 109.601 1.5574 109.835 1.55355Z" fill="#192C32"/>
<path d="M79.1968 2.10631C78.9483 2.02395 78.7329 1.9581 78.5507 1.90872L76.3641 1.31622C75.9997 1.21747 75.6519 1.12697 75.3206 1.04472C74.9561 0.945969 74.5917 0.847218 74.2273 0.748469C74.211 0.946886 74.0541 1.34388 73.7568 1.93944C73.4429 2.48542 73.0629 3.24641 72.617 4.22241C72.6503 4.32157 72.8491 4.42052 73.2135 4.51927C73.5945 4.58493 74.0665 4.67528 74.6297 4.79032C75.1597 4.88887 75.7146 5.02045 76.2944 5.18506C76.8907 5.31659 77.4374 5.46471 77.9343 5.62943L76.9686 8.06099C76.9356 8.12716 76.9274 8.18504 76.944 8.23462C76.9771 8.25111 77.0434 8.2841 77.1428 8.33357C77.2423 8.38305 77.4742 8.4985 77.8388 8.67991C78.2198 8.82824 78.7749 9.08381 79.5039 9.44664C80.2827 9.79288 81.3679 10.271 82.7596 10.881L82.8093 10.9057L82.8341 10.8561C83.5287 10.1278 84.0492 9.2509 84.3957 8.22542C84.7919 7.18335 85.2459 6.06681 85.7577 4.87579L85.7825 4.82616L79.9669 2.17976L79.9173 2.27903C79.8842 2.26254 79.8428 2.26258 79.7931 2.27918C79.7931 2.27918 79.7766 2.27093 79.7434 2.25444C79.6109 2.18847 79.4287 2.13909 79.1968 2.10631Z" fill="#192C32"/>
<g clip-path="url(#clip0_597_2100)">
<path d="M81.0312 73.3464L70.2314 80.2781L67.1458 82.5887C67.4029 84.8992 68.38 90.1365 70.2314 92.6012C72.0828 95.0658 81.2884 108.005 85.6597 114.166L101.088 116.477L107.259 113.396L118.831 97.9925L123.459 84.1291L118.831 75.657L103.402 70.2656L81.0312 73.3464Z" fill="#DFE7EB"/>
<path d="M95.7161 68.7679C104.391 68.5554 113.354 69.6179 121.203 73.5706C124.631 75.1007 128.142 78.3734 127.151 82.6236C125.664 92.2291 122.442 101.75 117.113 109.825C108.811 121.938 89.7678 122.703 79.978 112.163C74.195 105.872 70.2295 98.0094 67.0488 90.0615C65.7683 86.8313 64.4051 82.3686 67.4206 79.6909C75.0211 72.5081 85.5545 69.4479 95.7161 68.7679ZM73.121 80.201C73.8645 81.3485 74.7733 82.8786 76.3429 82.6236C89.2721 82.5811 102.16 81.4335 114.965 79.7334C116.576 79.8184 116.783 77.5233 115.544 76.8008C109.843 72.5931 102.408 72.5506 95.6335 72.7206C87.5372 72.5081 79.978 75.9933 73.121 80.201ZM84.4392 111.95C85.4306 113.565 87.372 113.65 88.9417 114.033C96.8727 115.138 106.828 113.948 112.156 107.275C103.936 112.46 93.8573 114.118 84.4392 111.95Z" fill="#192C32"/>
</g>
<path d="M122.807 98.4803C122.172 97.5274 121.379 97.3686 120.585 97.6862C119.792 97.6862 118.839 98.0038 118.363 98.9567C116.141 104.674 107.729 103.88 106.935 97.6862C106.777 96.0981 100.111 96.7334 101.063 98.6391C102.174 100.704 100.269 103.245 98.0472 101.974C95.6664 100.704 95.6664 97.3686 95.5077 95.1452C95.5077 93.7159 90.4287 93.5571 90.5874 95.1452C90.7461 97.845 88.3653 99.7508 85.8259 98.6391C83.1276 97.3686 83.1276 94.0335 84.7148 91.969C85.5084 90.8573 84.8735 89.5868 83.7625 89.2692C83.2864 88.9515 82.8102 88.6339 82.0166 88.7927C71.065 91.6514 64.0814 101.498 65.3512 112.932C66.6209 124.526 75.6679 133.419 86.4607 136.913C109.792 144.218 135.981 122.461 122.807 98.4803Z" fill="#192C32"/>
<path d="M91.5398 133.895C82.3341 132.307 74.0808 126.749 70.7477 117.855C67.0972 108.009 70.7477 98.0038 79.7946 93.7158C79.3185 97.3685 81.0644 101.021 84.8736 102.451C87.7306 103.403 90.5875 102.609 92.4921 100.704C93.4444 103.721 95.3491 106.262 98.9996 106.262C101.698 106.262 103.761 104.674 104.713 102.609C106.301 104.833 108.523 106.58 111.538 106.897C115.189 107.374 118.363 105.786 120.427 103.086C128.204 121.19 109.634 137.072 91.5398 133.895Z" fill="#F2DECD"/>
<path d="M79.7948 104.356C79.3186 104.038 78.6838 103.88 78.2076 104.038C76.9379 104.515 75.5094 105.15 74.7158 106.421C73.9222 107.691 73.9222 109.438 74.7158 110.867C76.4617 113.726 80.5884 113.567 82.493 111.026C84.0802 108.644 82.8104 104.991 79.7948 104.356Z" fill="#192C32"/>
<path d="M106.777 118.967C106.301 119.126 105.983 119.443 105.666 119.761C103.603 121.19 102.809 124.367 104.872 126.431C107.412 129.131 112.173 127.702 112.808 124.049C113.602 120.714 110.269 117.538 106.777 118.967Z" fill="#192C32"/>
<path d="M88.6828 120.555C88.2066 120.713 87.8892 121.031 87.5717 121.349C85.5084 122.778 84.7148 125.954 86.7781 128.019C89.3176 130.719 94.0792 129.289 94.7141 125.637C95.3489 122.302 92.0158 119.125 88.6828 120.555Z" fill="#192C32"/>
<path d="M123.601 110.708C123.284 110.232 122.649 109.914 122.014 109.755C118.363 109.438 115.983 113.249 117.411 116.425C118.998 119.602 123.601 119.919 125.506 116.902C126.934 114.678 125.823 111.661 123.601 110.708Z" fill="#192C32"/>
<path d="M103.126 111.82C102.174 108.485 97.0949 107.532 95.349 110.867C95.349 111.026 95.349 111.026 95.1903 111.185C95.1903 111.344 95.0316 111.503 95.0316 111.662C95.0316 111.82 94.8729 111.979 94.8729 112.138C94.3967 114.044 95.1903 116.426 97.4124 117.22C100.745 118.332 104.079 115.155 103.126 111.82Z" fill="#192C32"/>
<path d="M180.898 195.038C175.819 188.367 169.471 182.491 164.233 175.821C157.725 167.722 152.011 158.987 146.932 149.935C147.091 149.776 147.091 149.458 147.091 149.141C146.774 137.706 143.123 126.748 135.822 117.855C133.283 114.678 129.315 111.026 124.871 111.82C121.538 112.455 119.315 115.155 119.315 118.49C116.935 119.125 115.189 121.19 115.665 123.731C112.649 124.366 112.014 127.701 112.808 130.719C112.173 130.877 111.697 131.195 111.062 131.671C105.824 136.595 113.76 145.488 117.728 149.617C115.824 158.987 119.633 168.198 127.728 173.28C131.854 193.132 152.329 241.093 179.787 223.624C190.421 216.795 187.406 203.613 180.898 195.038Z" fill="#192C32"/>
<path d="M161.694 221.56C155.027 218.86 150.107 213.46 145.98 207.584C138.362 196.785 133.442 184.556 130.902 171.693C130.744 171.057 130.426 170.74 129.95 170.581C122.966 166.293 119.316 158.67 120.903 150.57C121.538 149.935 121.855 148.982 121.062 148.188C119.633 146.759 109.317 134.848 114.395 134.054C116.141 133.736 120.109 138.501 121.22 139.454C123.125 141.359 125.03 143.265 126.776 145.488C128.204 147.235 130.902 144.853 129.474 143.106C126.299 139.295 122.649 135.325 118.522 132.307C117.887 131.831 117.094 131.354 116.459 131.037C116.459 130.719 116.459 130.56 116.3 130.243C117.411 128.019 118.522 127.543 119.792 128.496C120.427 128.972 120.903 129.29 121.538 129.766C122.966 130.878 124.236 131.989 125.506 133.101C127.569 135.007 129.474 137.23 131.061 139.612C132.489 141.359 135.029 138.977 133.759 137.23C131.537 134.213 128.839 131.354 125.982 128.813C124.077 127.225 121.855 125.161 119.474 124.049C119.474 123.731 119.474 123.572 119.316 123.255C119.951 121.667 120.744 121.19 122.014 121.667C122.966 121.825 123.919 122.143 124.712 122.778C125.823 123.414 126.934 124.049 127.887 124.843C130.267 126.749 132.172 129.131 133.759 131.989C134.87 134.054 138.045 132.307 136.934 130.401C134.077 125.319 129.156 120.079 123.284 118.332C127.569 115.949 130.744 116.267 132.807 119.284C133.918 120.714 135.029 122.143 136.14 123.572C137.568 125.796 138.838 128.019 139.949 130.56C142.489 136.119 143.6 142.153 143.917 148.188C143.282 148.665 142.965 149.459 143.441 150.253C148.837 159.94 155.027 169.31 162.011 178.045C169.471 187.415 192.802 185.192 183.279 213.46C179.629 222.671 169.947 224.895 161.694 221.56Z" fill="#F2DECD"/>
<path d="M5.99054 216.954C31.8617 236.806 56.3043 190.591 62.1769 171.216C70.7477 166.77 75.1918 158.035 74.2395 148.506C78.6836 144.695 87.2544 136.436 82.4929 131.196C82.0167 130.719 81.3819 130.243 80.9057 130.084C82.0167 127.066 81.5406 123.731 78.6836 122.778C79.4772 120.237 77.8901 118.173 75.5093 117.22C75.668 113.885 73.7634 111.026 70.4303 110.232C65.9862 108.962 61.8595 112.297 59.0025 115.314C51.0666 123.573 46.4638 134.213 45.194 145.489C45.194 145.806 45.194 146.124 45.3527 146.283C39.4802 154.859 32.9727 163.117 25.8304 170.581C19.9578 176.775 13.2916 182.015 7.57772 188.209C0.11795 196.309 -4.16745 209.172 5.99054 216.954Z" fill="#192C32"/>
<path d="M3.92709 206.632C0.752715 187.574 9.32352 182.651 17.4182 174.075C25.0367 165.976 12.974 196.626 48.8444 147.236C49.4793 146.442 49.1619 145.648 48.527 145.171C49.3206 139.136 51.0665 133.419 53.9234 128.019C55.1932 125.796 56.6217 123.573 58.2089 121.508C59.3199 120.079 60.5896 118.65 61.8594 117.379C64.2402 114.362 67.4145 114.362 71.5412 117.22C65.5099 118.332 60.2722 123.096 56.9391 128.019C55.6694 129.925 58.685 131.831 59.9548 129.925C61.7007 127.384 63.764 125.161 66.3035 123.414C67.4145 122.779 68.5256 122.143 69.6366 121.508C70.4302 121.032 71.3825 120.714 72.3348 120.714C73.6046 120.238 74.3981 120.873 74.8743 122.461C74.7156 122.779 74.5569 122.937 74.5569 123.255C72.0174 124.049 69.6366 125.955 67.5732 127.384C64.3989 129.608 61.7007 132.149 59.1612 135.007C57.7327 136.754 60.1135 139.295 61.5419 137.548C63.4466 135.484 65.5099 133.419 67.732 131.672C69.1604 130.56 70.5889 129.608 72.0174 128.655C72.6522 128.337 73.2871 127.861 73.922 127.543C75.1917 126.59 76.3028 127.225 77.2551 129.449C77.0964 129.766 77.0964 130.084 77.0964 130.243C76.3028 130.56 75.5092 130.878 74.8743 131.355C70.5889 134.054 66.6209 137.548 63.1291 141.042C61.5419 142.63 63.9227 145.171 65.5099 143.583C67.4145 141.677 69.3191 139.772 71.5412 138.183C72.6522 137.231 77.0964 132.943 78.8423 133.26C83.7625 134.531 72.4935 145.489 70.9063 146.918C69.954 147.712 70.2715 148.665 70.9063 149.3C71.6999 157.559 67.5732 164.864 60.1135 168.517C59.6373 168.675 59.3199 168.993 59.1612 169.628C55.5106 182.333 49.638 194.085 41.0672 204.091C36.4644 209.49 31.2267 214.572 24.2431 216.637C15.6723 219.019 5.51427 216.16 3.92709 206.632Z" fill="#F2DECD"/>
<defs>
<clipPath id="clip0_597_2100">
<rect width="61.7132" height="50.8326" fill="white" transform="translate(65.603 68.7253)"/>
</clipPath>
</defs>
</svg>
