<svg width="222" height="400" viewBox="0 0 222 400" fill="none" xmlns="http://www.w3.org/2000/svg">
<path d="M220.691 215.459C219.894 207.959 217.506 200.9 214.056 194.194C211.137 188.547 207.333 183.429 203.794 178.135C199.283 171.429 193.445 165.782 186.987 160.841C182.829 157.576 178.318 154.664 173.895 151.664C170.975 149.635 168.056 147.517 165.579 144.958C162.041 141.34 158.679 137.635 155.406 133.664C152.045 129.605 149.214 125.281 147.091 120.517C143.376 112.222 141.429 103.399 140.102 94.3987C139.129 88.0457 138.245 81.7809 136.829 75.5162C134.972 67.222 133.114 58.8395 131.256 50.4571C129.841 44.104 127.983 38.0157 124.976 32.1921C123.295 28.9274 121.172 25.9274 118.518 23.3685C114.803 19.8391 110.291 18.1626 105.249 17.7214C100.914 17.3684 96.845 18.2508 93.395 20.9861C90.2989 23.3685 87.6451 26.1038 85.4335 29.3686C83.222 32.7216 81.6297 36.4275 80.2143 40.2216C77.1182 48.5159 74.6413 56.9865 73.9336 65.8102C73.4028 71.9867 73.4913 78.1633 74.4644 84.2516C75.6144 91.3987 77.472 98.4576 79.772 105.34C82.7797 114.34 85.8758 123.34 90.2104 131.899C91.0066 133.487 91.6258 135.164 92.1566 136.84C94.0143 143.37 95.7835 149.988 97.6412 156.517C98.4373 159.429 99.3219 162.429 100.207 165.341C100.472 166.311 100.472 166.311 99.4104 166.664C98.5258 166.929 97.6412 167.194 96.845 167.547C94.1912 168.694 91.6258 169.841 88.972 170.988C84.7259 172.753 80.6566 174.694 76.2336 176.017C70.6605 177.694 64.999 179.017 59.2491 180.076C53.3222 181.135 47.3068 182.017 41.3799 182.635C35.2761 183.253 29.3492 184.576 23.7762 186.959C18.9108 188.988 14.6647 191.723 11.2147 195.782C9.09163 198.165 7.49933 200.9 5.81857 203.635C2.10321 209.988 0.333984 216.694 0.333984 223.841C0.333984 228.253 1.2186 232.577 2.19167 236.9C3.07628 240.871 4.58012 244.577 6.61472 248.106C7.23395 249.165 7.58779 250.224 7.67625 251.459C7.85318 254.812 7.76472 258.254 7.23395 261.607C6.61472 265.312 5.99549 269.018 5.55319 272.724C5.02242 277.754 5.2878 282.695 6.96856 287.548C9.26855 294.077 12.5416 299.989 17.1416 305.195C17.7608 305.901 18.1147 306.607 18.38 307.401C19.1762 309.872 19.0877 312.431 18.9108 314.901C18.557 318.695 18.4685 322.401 19.3531 326.107C20.1493 329.813 21.0339 333.431 22.0954 337.049C23.1569 340.843 25.1915 344.107 28.0223 346.931C28.5531 347.46 28.9954 348.078 29.2608 348.784C29.7915 350.284 30.1454 351.784 30.4108 353.284C30.8531 355.843 30.6761 358.314 30.6761 360.872C30.6761 365.196 31.7377 369.255 33.6838 373.137C35.1876 376.225 37.3992 378.784 39.5222 381.431C42.4415 385.226 46.2453 387.52 50.9337 388.314C53.0568 388.667 55.1799 388.931 57.3029 389.549C59.3375 390.167 61.3721 390.52 63.4952 390.608C65.0875 390.696 66.7683 390.696 68.3606 390.961C72.2528 391.667 76.0567 392.461 79.949 393.255C84.372 394.137 88.6181 395.373 93.0412 396.255C98.6142 397.49 104.187 398.461 109.849 399.608C111.795 399.961 113.741 400.138 115.776 399.873C122.41 399.167 128.16 396.696 133.026 392.284C133.822 391.579 134.618 390.961 135.237 390.167C137.095 387.873 139.041 385.667 140.545 383.108C140.987 382.402 141.518 382.049 142.402 382.049C144.526 382.049 146.56 381.961 148.683 381.696C153.991 380.99 159.122 379.578 163.722 376.667C165.579 375.431 167.437 374.108 169.295 372.784C178.848 365.902 186.721 357.431 192.914 347.46C196.187 342.255 199.106 336.784 201.76 331.137C206.094 322.137 208.394 312.607 209.368 302.813C209.81 298.842 209.898 294.872 210.075 290.901C210.164 288.607 210.164 286.224 211.137 284.107C214.498 277.224 216.798 270.077 218.302 262.577C220.248 252.518 221.752 242.459 221.664 231.341C221.664 226.753 221.31 221.106 220.691 215.459Z" fill="#F2DECD"/>
<path d="M219.994 215.121C219.203 207.667 216.832 200.651 213.406 193.987C210.508 188.374 206.731 183.288 203.218 178.026C198.739 171.361 192.942 165.749 186.531 160.838C182.403 157.593 177.923 154.699 173.532 151.718C170.633 149.701 167.735 147.596 165.276 145.053C161.763 141.458 158.425 137.774 155.176 133.828C151.838 129.794 149.027 125.497 146.92 120.762C143.231 112.518 141.299 103.749 139.981 94.8042C139.015 88.4902 138.137 82.2638 136.731 76.0375C134.887 67.7943 133.043 59.4633 131.198 51.1323C129.793 44.8183 127.948 38.7674 124.962 32.9795C123.294 29.7348 121.186 26.7532 118.551 24.2101C114.862 20.7023 110.383 19.0361 105.376 18.5976C101.073 18.2469 97.0326 19.1238 93.6073 21.8423C90.5332 24.2101 87.8984 26.9286 85.7026 30.1733C83.5069 33.5057 81.926 37.1889 80.5207 40.9597C77.4467 49.203 74.9875 57.6217 74.2848 66.3911C73.7579 72.5298 73.8457 78.6684 74.8118 84.7193C75.9536 91.8225 77.798 98.8381 80.0816 105.678C83.0678 114.623 86.1418 123.568 90.4454 132.074C91.2359 133.653 91.8507 135.319 92.3777 136.985C94.2221 143.475 95.9787 150.052 97.8231 156.541C98.6135 159.435 99.4918 162.417 100.37 165.311C100.634 166.275 100.634 166.275 99.5797 166.626C98.7014 166.889 97.8231 167.152 97.0326 167.503C94.3977 168.643 91.8507 169.783 89.2158 170.923C85 172.677 80.9599 174.606 76.5684 175.922C71.0352 177.588 65.4141 178.903 59.7052 179.956C53.8206 181.008 47.8483 181.885 41.9637 182.499C35.9035 183.113 30.0189 184.428 24.4857 186.796C19.6551 188.813 15.4393 191.531 12.0139 195.565C9.90603 197.933 8.3251 200.651 6.65635 203.37C2.96752 209.684 1.21094 216.349 1.21094 223.452C1.21094 227.837 2.08923 232.134 3.05535 236.431C3.93364 240.377 5.42674 244.06 7.44681 247.568C8.06162 248.62 8.41293 249.673 8.50076 250.9C8.67642 254.233 8.58859 257.653 8.06162 260.985C7.44681 264.668 6.83201 268.352 6.39286 272.035C5.86589 277.033 6.12937 281.944 7.79813 286.767C10.0817 293.257 13.3314 299.132 17.8985 304.306C18.5133 305.008 18.8646 305.709 19.1281 306.499C19.9186 308.954 19.8307 311.497 19.6551 313.953C19.3038 317.724 19.2159 321.407 20.0942 325.09C20.8847 328.773 21.763 332.369 22.8169 335.964C23.8709 339.735 25.8909 342.98 28.7015 345.786C29.2285 346.312 29.6676 346.926 29.9311 347.627C30.4581 349.118 30.8094 350.609 31.0729 352.1C31.512 354.643 31.3364 357.098 31.3364 359.642C31.3364 363.939 32.3903 367.973 34.3226 371.831C35.8156 374.9 38.0114 377.444 40.1193 380.074C43.0176 383.845 46.7943 386.125 51.4492 386.915C53.5572 387.265 55.6651 387.528 57.773 388.142C59.793 388.756 61.8131 389.107 63.921 389.195C65.5019 389.282 67.1707 389.282 68.7516 389.545C72.6161 390.247 76.3927 391.036 80.2572 391.825C84.6487 392.702 88.8645 393.93 93.256 394.807C98.7892 396.035 104.322 396.999 109.944 398.139C111.876 398.49 113.808 398.666 115.828 398.402C122.415 397.701 128.124 395.245 132.955 390.861C133.745 390.159 134.536 389.545 135.15 388.756C136.995 386.476 138.927 384.284 140.42 381.741C140.859 381.039 141.386 380.688 142.265 380.688C144.373 380.688 146.393 380.601 148.501 380.337C153.77 379.636 158.864 378.233 163.431 375.339C165.276 374.111 167.12 372.796 168.965 371.48C178.45 364.64 186.267 356.221 192.415 346.312C195.665 341.138 198.563 335.701 201.198 330.089C205.502 321.144 207.785 311.673 208.751 301.939C209.191 297.992 209.278 294.046 209.454 290.1C209.542 287.82 209.542 285.452 210.508 283.347C213.845 276.507 216.129 269.404 217.622 261.95C219.554 251.953 221.047 241.956 220.96 230.906C220.96 226.346 220.608 220.733 219.994 215.121ZM211.298 262.301C209.893 269.141 207.697 275.806 204.711 282.207C202.076 287.732 199.002 293.081 195.665 298.255C192.766 302.64 190.395 307.288 187.936 311.936C187.848 312.111 187.76 312.286 187.672 312.55C187.585 312.9 187.497 313.163 187.848 313.427C188.112 313.602 188.375 313.514 188.638 313.427C189.517 313.076 190.219 312.462 190.922 311.936C193.469 309.831 195.665 307.376 197.685 304.657C199.002 302.903 200.144 301.149 201.374 299.395C201.637 298.957 201.901 298.518 202.34 298.168C202.779 298.518 202.603 298.957 202.515 299.22C201.374 305.885 200.144 312.462 197.948 318.864C196.104 324.301 193.469 329.387 190.746 334.386C187.497 340.349 184.071 346.224 179.768 351.486C177.748 354.029 175.728 356.66 173.356 358.852C170.546 361.483 167.472 363.939 164.222 366.219C160.884 368.586 157.459 370.866 153.507 372.27C151.048 373.146 148.501 373.673 145.953 374.111C145.602 373.673 145.953 373.41 146.129 373.146C147.183 371.743 148.237 370.34 149.467 369.025C152.453 365.692 153.77 361.834 153.331 357.361C153.155 355.52 152.98 353.678 152.628 351.837C152.189 349.03 150.696 346.926 148.061 345.698C146.744 345.084 146.744 344.997 147.534 343.681C150.081 339.472 153.068 335.701 156.405 332.105C158.601 329.65 160.797 327.107 162.465 324.213C164.749 320.179 165.276 316.057 163.431 311.76C162.992 310.708 162.553 309.568 162.026 308.516C161.675 307.814 161.851 307.639 162.553 307.639C163.431 307.726 164.222 307.814 165.1 307.902C167.735 308.34 170.458 308.165 173.093 308.077C173.62 308.077 174.147 307.989 174.674 307.726C175.201 307.463 175.288 306.937 174.761 306.586C174.41 306.323 173.971 306.148 173.532 305.885C169.404 304.131 165.188 302.465 161.06 300.711C160.27 300.36 159.567 300.009 158.864 299.045C160.621 299.659 162.114 300.272 163.607 300.799C165.891 301.588 168.35 302.202 170.809 302.465C172.039 302.64 173.268 302.465 174.498 302.114C174.849 302.026 175.288 301.939 175.288 301.412C175.288 300.974 174.849 300.799 174.498 300.711C169.053 298.694 164.046 295.625 158.689 293.257C157.81 292.818 157.02 292.38 156.142 291.941C155.79 291.766 155.263 291.591 155.615 290.977C155.878 290.451 156.229 290.1 156.844 290.363C157.547 290.626 158.25 290.889 158.952 291.152C161.587 292.204 164.222 292.906 166.945 293.432C167.823 293.608 168.613 293.695 169.492 293.52C170.107 293.432 170.282 292.994 169.843 292.555C169.58 292.292 169.228 292.117 168.965 291.854C165.979 290.012 162.992 288.083 159.743 286.592C158.601 286.066 158.601 285.978 159.216 284.926C161.499 280.98 161.851 276.77 160.621 272.385C159.743 269.316 158.777 266.247 156.932 263.528C154.473 260.021 151.311 257.565 147.271 256.25C146.832 256.074 146.305 256.074 145.866 255.636C146.129 254.934 146.744 254.32 147.271 253.794C149.203 251.865 151.135 249.936 152.98 248.006C154.736 246.165 156.229 244.148 157.459 241.956C160.094 237.22 160.445 232.309 159.567 227.047C158.952 223.627 157.371 220.997 154.649 218.892C151.135 216.173 147.095 214.683 142.704 214.156C136.468 213.367 130.583 214.332 124.787 216.612C124.523 216.7 124.26 216.787 123.996 216.875C123.469 217.05 123.118 216.875 123.03 216.436C122.679 215.121 122.24 213.893 122.767 212.49C123.645 210.035 124.435 207.667 125.138 205.212C125.314 204.685 125.841 203.808 125.138 203.458C124.435 203.107 124.084 204.071 123.733 204.51C120.746 208.807 117.76 213.104 114.95 217.576C113.632 219.769 112.051 221.786 110.646 223.978C109.944 225.03 109.065 225.469 107.836 225.469C104.059 225.469 100.809 224.154 97.8231 222.049C96.7691 221.347 96.1543 220.295 95.7152 219.067C94.2221 215.647 93.1681 212.139 91.8507 208.719C90.7967 205.913 89.7428 203.019 88.3375 200.301C87.8105 199.336 87.2836 198.459 86.5809 197.67C86.4053 197.494 86.1418 197.319 85.8783 197.494C85.7026 197.582 85.7026 197.845 85.7026 198.108C85.7026 198.459 85.7905 198.722 85.8783 199.073C87.2836 205.036 87.7227 211.175 87.8984 217.313C87.8984 217.489 87.8984 217.752 87.8984 217.927C87.8105 218.804 87.6349 218.892 86.9323 218.541C85.0878 217.576 83.2434 216.787 81.3112 216.173C77.6224 215.033 73.8457 214.507 69.9812 213.893C66.0289 213.367 62.1644 212.841 58.2121 212.841C53.4693 212.841 48.7265 213.016 43.8959 213.104C43.369 213.104 42.6663 213.104 42.5785 213.806C42.4907 214.507 43.1055 214.77 43.7203 214.946C44.5107 215.121 45.3012 215.296 46.0917 215.384C50.1318 215.472 53.9963 216.524 57.773 218.015C67.0828 221.698 76.2171 225.995 85.0878 230.818C90.0941 233.537 94.4856 237.132 98.9649 240.64C99.8431 241.342 100.809 242.043 101.775 242.745C102.566 243.271 103.444 243.622 104.498 243.709C106.079 243.797 106.869 242.92 106.606 241.342C106.518 240.815 106.255 240.202 105.991 239.675C105.64 239.062 105.728 238.623 106.255 238.097C110.47 233.537 114.686 228.977 119.956 225.644C124.26 222.926 128.739 220.821 133.745 219.857C137.434 219.155 141.211 219.155 144.9 219.769C148.149 220.295 150.872 221.873 153.155 224.154C155.263 226.346 155.878 229.064 155.527 232.046C155 235.905 152.98 239.062 150.696 242.043C149.291 243.972 147.534 245.551 145.953 247.217C140.684 252.742 135.326 258.179 130.847 264.405C129.705 265.984 128.563 267.65 127.685 269.404C126.807 270.982 125.841 272.561 124.611 273.876C123.557 275.016 122.767 276.332 121.888 277.647C119.517 281.155 116.706 283.961 112.666 285.627C110.997 286.329 109.241 286.767 107.396 286.767C101.6 286.943 95.9787 285.978 90.4454 284.4C81.0477 281.681 71.9135 278.436 62.9549 274.666C58.4756 272.736 53.8206 271.684 49.1657 270.456C45.4769 269.579 41.788 268.527 38.0114 268.088C36.0791 267.825 34.0591 267.825 32.1268 268.176C31.8633 268.264 31.5998 268.264 31.512 268.527C31.3364 268.878 31.5998 269.141 31.8633 269.316C32.3025 269.579 32.6538 269.842 33.0929 270.018C35.0252 270.982 36.9574 271.859 38.9775 272.473C50.2196 275.806 60.9348 280.541 71.7378 285.101C79.3789 288.346 87.2836 290.801 95.5395 292.204C101.073 293.081 104.498 293.432 112.227 291.503C112.491 291.678 112.403 291.854 112.403 292.029C112.227 293.52 112.93 294.134 114.335 293.695C115.125 293.432 115.74 292.994 116.355 292.38C117.76 290.977 119.166 289.574 120.483 288.083C124.26 283.961 128.124 280.015 132.252 276.332C134.448 274.402 136.468 272.386 138.576 270.456C138.927 270.105 139.63 269.667 139.278 269.141C138.927 268.615 138.312 269.053 137.785 269.229C136.468 269.755 135.15 270.456 133.921 271.158C133.57 271.333 133.218 271.596 132.691 271.684C132.691 271.07 133.13 270.632 133.394 270.281C135.853 267.036 138.4 263.791 141.035 260.634C142.177 259.319 142.352 259.319 144.021 260.108C148.94 262.476 152.277 266.072 153.682 271.421C154.122 273.087 154.649 274.841 155.088 276.507C155.351 277.647 155.263 278.699 154.824 279.84C154.385 281.155 153.682 282.383 152.98 283.523C148.588 290.451 144.373 297.378 140.508 304.657C138.751 308.077 136.731 311.322 135.15 314.83C134.536 316.233 133.57 317.548 132.516 318.6C129.617 321.494 126.543 324.125 123.03 326.23C117.936 329.212 112.666 330.176 106.869 329.124C100.019 327.896 93.3438 325.791 86.5809 324.301C78.852 322.547 71.2987 320.267 63.5697 318.6C57.3338 317.197 51.0979 316.145 44.6864 316.145C43.369 316.145 42.1394 315.97 40.8219 315.882C40.3828 315.882 39.9436 315.882 39.5045 315.882C39.1532 315.882 38.714 315.97 38.6262 316.408C38.5384 316.847 38.8897 317.11 39.241 317.285C39.5045 317.46 39.8558 317.548 40.1193 317.724C40.9976 318.074 41.9637 318.337 42.9298 318.513C49.8683 319.828 56.6312 321.933 63.3062 324.213C70.069 326.493 76.6562 329.212 83.5069 331.053C88.7767 332.544 94.0464 334.035 99.3162 335.087C102.39 335.701 105.552 335.964 108.714 336.227C111.788 336.49 114.774 335.701 117.672 334.824C119.078 334.386 120.395 333.947 121.8 333.421C122.152 333.859 121.713 334.122 121.537 334.386C120.659 335.526 119.956 336.666 119.341 337.893C119.166 338.244 118.99 338.683 118.814 339.033C118.639 339.647 118.639 340.261 119.166 340.612C119.693 341.05 120.307 340.875 120.834 340.612C121.625 340.173 122.24 339.647 122.854 339.033C125.138 336.841 127.158 334.473 129.266 332.105C132.955 327.984 136.644 323.95 139.981 319.565C140.508 318.864 141.035 318.162 141.474 317.46C141.65 317.197 142.001 316.847 141.65 316.408C141.386 315.97 140.947 316.233 140.596 316.408C140.42 316.496 140.245 316.584 139.893 316.408C140.42 314.128 141.211 311.848 142.528 309.831C143.319 308.516 144.285 307.288 145.163 305.973C145.69 305.183 146.393 304.832 147.359 305.008C149.818 305.359 152.014 306.148 153.77 307.989C155.351 309.568 156.493 311.322 157.283 313.427C158.25 316.233 157.898 318.864 156.405 321.407C155.263 323.248 153.946 324.915 152.628 326.581C149.818 330.089 146.744 333.421 144.285 337.192C142.089 340.524 139.981 343.944 138.488 347.715C137.434 350.346 136.029 352.801 134.448 355.169C133.745 356.221 132.955 357.274 131.989 358.063C130.671 359.115 129.617 360.518 128.388 361.659C125.928 364.026 123.118 365.692 119.78 366.394C117.672 366.832 115.652 366.482 113.545 366.131C108.977 365.342 104.498 363.851 100.107 362.535C95.8908 361.308 91.675 360.168 87.3714 359.291C80.5207 357.888 73.7579 356.485 66.9072 355.52C62.6036 355.432 58.2999 355.169 53.9085 355.432C53.2937 355.432 52.4154 355.345 52.2397 356.046C52.0641 357.011 53.118 357.011 53.7328 357.098C58.5634 358.326 63.4819 359.378 68.3125 360.869C79.0276 364.114 89.8306 366.92 100.546 370.077C105.816 371.656 111.173 372.708 116.619 372.883C117.321 372.883 118.024 372.883 118.726 372.883C118.99 373.322 118.551 373.585 118.375 373.848C117.848 374.55 117.233 375.251 116.882 376.128C116.619 376.654 116.619 377.18 117.146 377.619C117.585 377.97 118.112 377.794 118.463 377.531C118.814 377.268 119.253 376.917 119.605 376.654C120.483 375.777 121.537 374.9 122.327 373.936C124.347 371.48 127.07 369.989 129.793 368.586C129.705 368.762 129.529 368.937 129.442 369.113C127.685 370.866 125.928 372.533 124.435 374.462C123.03 376.303 121.625 378.145 120.834 380.337C120.571 380.951 120.483 381.565 121.01 382.091C121.625 382.617 122.327 382.442 122.942 382.179C123.821 381.741 124.523 381.127 125.314 380.513C130.056 376.391 134.36 371.743 138.576 367.096C140.157 365.429 141.474 363.5 142.616 361.571C142.879 361.22 143.231 360.694 142.792 360.255C142.44 359.905 142.001 360.168 141.562 360.343C141.299 360.431 141.035 360.606 140.859 360.694C138.576 361.834 136.468 363.237 134.448 364.903C134.009 365.254 133.657 365.692 133.13 365.78C135.238 363.149 137.698 360.782 139.63 358.063C141.299 355.783 142.792 353.415 143.933 350.784C144.197 350.171 144.373 349.294 145.163 349.294C145.953 349.294 146.393 349.907 146.744 350.521C148.325 353.503 149.115 356.66 148.501 360.08C148.149 361.746 147.183 363.149 146.041 364.377C141.913 368.674 139.015 373.76 135.853 378.759C133.833 382.004 131.549 385.161 128.563 387.616C123.294 391.825 117.321 393.667 110.47 392.79C104.937 392.089 99.404 391.387 94.0464 390.072C89.5671 388.931 85.0878 387.704 80.4329 386.827C73.67 385.599 66.8194 384.547 59.9687 383.582C56.5433 383.144 53.0302 382.091 49.7805 380.688C48.5509 380.162 47.4969 379.373 46.5308 378.408C41.8759 373.936 38.714 368.586 37.8357 362.009C37.4844 359.466 37.3087 356.923 37.0453 354.38C36.9574 353.503 36.6061 352.626 36.6939 351.574C37.9235 351.661 38.9775 352.188 40.2071 352.1C40.8219 352.012 41.6124 352.275 41.9637 351.574C42.315 350.872 41.6124 350.434 41.2611 349.907C39.8558 348.329 38.5384 346.75 36.9574 345.435C31.6877 340.875 28.5258 335.087 27.4719 328.159C26.6814 323.248 26.2423 318.337 25.6275 313.427C25.4518 312.286 25.2761 311.146 25.1005 310.006C25.4518 309.568 25.8031 309.831 26.1544 309.919C27.2962 310.357 28.5258 310.445 29.7554 310.533C30.3702 310.62 30.8972 310.533 31.512 310.357C31.9512 310.182 32.1268 309.831 31.9512 309.305C31.7755 308.866 31.4242 308.516 31.0729 308.165C29.7554 306.762 28.2623 305.534 26.7692 304.306C24.837 302.728 23.1682 300.974 21.763 298.869C19.7429 295.888 17.8985 292.818 16.0541 289.749C14.6488 287.381 14.2097 284.75 13.7705 282.12C13.2435 278.524 13.4192 274.929 13.5949 271.245C13.7705 267.387 14.4731 263.616 14.3853 259.757C14.3853 258.267 14.2097 256.776 14.1218 255.11C15.1758 255.636 16.0541 256.074 17.0202 256.425C17.635 256.688 18.3376 257.039 18.7768 256.513C19.3038 255.899 18.7768 255.285 18.5133 254.759C17.8107 253.444 17.0202 252.04 16.0541 250.813C14.4731 248.62 13.2435 246.165 12.1896 243.622C9.90603 237.746 8.41293 231.608 7.7103 225.294C6.91984 218.278 7.79813 211.526 11.9261 205.475C14.9123 201.09 18.689 197.494 23.5196 195.039C29.1406 192.233 35.113 190.479 41.4367 189.69C52.5032 188.286 63.4818 186.883 74.2848 184.077C79.5546 182.674 84.6487 181.096 89.5671 178.815C93.5194 176.974 97.6474 175.658 101.688 174.168C102.917 173.729 103.005 173.729 103.356 175.045C104.41 178.377 105.376 181.797 106.343 185.217C107.221 188.111 108.45 190.917 109.768 193.724C110.031 194.337 110.383 194.864 110.734 195.39C111.261 196.091 111.876 195.916 112.139 195.127C112.403 194.25 112.491 193.373 112.578 192.408C112.754 188.9 112.578 185.393 111.788 181.885C111.261 179.342 110.734 176.799 110.383 174.08C110.91 174.782 111.524 175.395 112.051 176.097C113.105 177.412 114.335 178.64 115.565 179.78C116.004 180.131 116.531 180.482 116.97 180.832C117.233 181.008 117.497 181.096 117.672 180.92C118.024 180.657 117.848 180.394 117.672 180.043C117.585 179.868 117.497 179.692 117.321 179.517C114.423 175.395 112.315 170.835 109.856 166.451C108.802 164.609 107.836 162.68 106.782 160.838C105.903 159.347 105.201 157.769 104.674 156.19C101.688 147.421 98.7014 138.564 95.1882 129.97C94.3099 127.777 93.3438 125.673 92.3777 123.48C91.3237 121.113 90.6211 118.569 89.9184 116.026C87.1957 106.994 84.7365 97.9612 82.8921 88.7532C81.8382 83.8423 81.3112 78.9314 81.1355 73.9329C80.6964 61.2172 83.4191 49.1153 87.9862 37.3643C89.3915 33.7688 91.4115 30.5241 94.6612 28.1563C97.4718 26.1394 100.458 25.2624 103.883 25.7886C104.762 25.964 105.728 25.964 106.606 26.1394C109.944 26.7532 112.491 28.5071 114.598 31.0503C117.146 34.1196 118.902 37.5396 120.571 41.0474C124.699 49.7292 127.861 58.7617 129.617 68.2327C131.198 76.5637 132.603 84.807 133.657 93.2257C134.975 104.1 137.698 114.623 142.089 124.708C143.319 127.427 144.636 130.057 146.393 132.337C150.872 138.125 155.263 143.825 160.182 149.175C163.432 152.683 167.032 155.752 170.897 158.558C176.518 162.592 182.051 166.714 187.409 171.011C192.064 174.782 196.28 179.079 199.881 183.902C202.428 187.322 204.448 191.093 206.38 194.951C209.191 200.651 211.298 206.527 212.352 212.841C212.879 215.823 213.143 218.804 213.406 221.786C213.758 225.995 214.109 230.204 214.285 234.414C214.724 243.797 213.231 253.093 211.298 262.301ZM132.164 366.306C131.462 367.096 130.935 367.885 129.969 368.323C130.847 367.973 131.462 367.096 132.164 366.306Z" fill="#192C32"/>
<path d="M100.66 54.7653C101.493 55.5069 102.082 56.376 102.426 57.3726C102.626 57.7999 102.77 58.2412 102.855 58.6966C102.97 59.1237 103.056 59.5649 103.113 60.0203C103.169 60.7317 103.197 61.4431 103.197 62.1544C103.225 62.8374 103.224 63.5345 103.194 64.2457C103.106 65.7536 103.076 67.2188 103.103 68.6416C103.13 70.0643 103.086 71.5153 102.969 72.9946L102.838 74.4027C102.779 75.3985 102.62 76.4082 102.36 77.4319C102.1 78.4272 101.711 79.3369 101.192 80.1609C100.703 80.8427 100.055 81.3961 99.2498 81.8212C98.473 82.2178 97.6388 82.529 96.7472 82.7547C95.9418 82.9806 95.1222 83.121 94.2883 83.1761C93.4831 83.2313 92.6637 83.2295 91.8299 83.1708C91.2261 83.1126 90.6368 83.0259 90.0618 82.9109C89.5156 82.8243 88.9838 82.6667 88.4665 82.4379C87.978 82.2092 87.5326 81.9237 87.1304 81.5814C86.7283 81.2106 86.3982 80.7405 86.14 80.1708C85.7383 79.4586 85.466 78.704 85.3231 77.907C85.209 77.0816 85.138 76.2563 85.1102 75.4311C85.0264 73.2116 84.9283 70.9921 84.8157 68.7725C84.732 66.5245 84.7632 64.2768 84.9095 62.0293C84.9397 60.749 85.0993 59.4689 85.3882 58.1891C85.706 56.881 86.3111 55.73 87.2036 54.736C87.4914 54.4521 87.8224 54.1968 88.1964 53.97C89.1458 53.5168 90.1669 53.1918 91.2598 52.995C92.3814 52.7698 93.4885 52.6869 94.5811 52.7462C95.7024 52.8055 96.7804 53.007 97.8152 53.3507C98.8787 53.666 99.827 54.1376 100.66 54.7653ZM97.7968 69.825L97.799 67.7764L97.716 64.874C97.7161 64.8456 97.6876 64.561 97.6307 64.0202C97.6026 63.4511 97.5744 62.9247 97.5462 62.4409C97.4896 61.6441 97.2604 60.918 96.8586 60.2627C96.4855 59.6075 95.9685 59.1227 95.3075 58.8083C94.7327 58.5794 94.1433 58.5354 93.5393 58.6764C92.9353 58.8173 92.4031 59.058 91.9427 59.3984C90.9355 60.1645 90.2587 61.1446 89.9123 62.3389C89.681 63.4196 89.536 64.5575 89.4772 65.7524C89.4471 66.9473 89.4601 68.1424 89.5163 69.3375C89.6589 70.3337 89.7584 71.3582 89.8148 72.4111C89.8711 73.4356 90.0426 74.4176 90.329 75.3571C90.6159 75.9268 91.0324 76.3688 91.5783 76.6829C92.1243 76.9971 92.7135 77.1833 93.3461 77.2416C93.9786 77.2714 94.6113 77.1875 95.2441 76.9897C95.8769 76.7634 96.4092 76.4089 96.8411 75.9261C97.1002 75.5853 97.2874 75.3154 97.4027 75.1165C97.5179 74.8891 97.5901 74.6474 97.6191 74.3914C97.6482 74.1354 97.6485 73.8366 97.6201 73.4951C97.6205 73.1252 97.6498 72.6416 97.708 72.0442C97.7374 71.4752 97.7523 70.9773 97.7528 70.5505C97.782 70.1238 97.7967 69.8819 97.7968 69.825Z" fill="#192C32"/>
<path d="M98.5098 57.5991C99.0943 58.1903 99.5072 58.8833 99.7485 59.678C99.8893 60.0187 99.9898 60.3707 100.05 60.7339C100.13 61.0744 100.19 61.4263 100.23 61.7894C100.27 62.3568 100.29 62.9241 100.289 63.4914C100.309 64.0361 100.308 64.592 100.287 65.1593C100.225 66.3618 100.204 67.5304 100.223 68.665C100.242 69.7996 100.21 70.9568 100.128 72.1366L100.036 73.2597C99.9947 74.0538 99.8828 74.8591 99.7003 75.6756C99.5178 76.4694 99.2446 77.195 98.8806 77.8522C98.537 78.3961 98.0825 78.8376 97.5171 79.1767C96.9719 79.4932 96.3865 79.7415 95.7607 79.9217C95.1955 80.102 94.6203 80.2142 94.035 80.2583C93.47 80.3025 92.8949 80.3012 92.3098 80.2546C91.8861 80.2083 91.4725 80.1393 91.069 80.0477C90.6857 79.9787 90.3125 79.8531 89.9495 79.6708C89.6067 79.4885 89.2941 79.2609 89.0119 78.988C88.7298 78.6924 88.4981 78.3175 88.317 77.8633C88.0352 77.2954 87.8441 76.6936 87.744 76.058C87.664 75.3998 87.6143 74.7416 87.5948 74.0835C87.5363 72.3134 87.4676 70.5433 87.3889 68.7732C87.3303 66.9804 87.3525 65.1878 87.4554 63.3954C87.4767 62.3743 87.5889 61.3535 87.7918 60.3328C88.0149 59.2894 88.4397 58.3713 89.0661 57.5785C89.2682 57.352 89.5005 57.1483 89.763 56.9673C90.4293 56.6057 91.1459 56.3463 91.9129 56.1892C92.7001 56.0093 93.477 55.943 94.2438 55.99C95.0307 56.0371 95.7872 56.1976 96.5134 56.4715C97.2597 56.7227 97.9252 57.0986 98.5098 57.5991Z" fill="#DFE7EB"/>
<path d="M97.8412 77.4921C96.4814 79.3353 93.6413 79.7002 92.0011 78.422C90.3124 77.1409 90.0679 74.4036 91.5256 72.6523C92.876 70.8824 95.5424 70.4459 97.1889 71.6752C98.9871 72.864 99.2674 75.702 97.8412 77.4921Z" fill="#192C32"/>
<path d="M97.0416 76.5096C96.4281 77.4838 94.8961 77.9245 94.149 77.0067C93.222 76.0662 94.0355 74.2045 95.3697 73.974C96.707 73.7192 97.8907 75.315 97.0416 76.5096Z" fill="#DFE7EB"/>
<path d="M119.137 48.6868C120.197 49.1143 121.065 49.7495 121.742 50.5926C122.083 50.9355 122.374 51.312 122.614 51.722C122.873 52.0946 123.108 52.4908 123.321 52.9107C123.622 53.5779 123.895 54.255 124.141 54.942C124.404 55.5916 124.645 56.2649 124.863 56.9618C125.3 58.4479 125.779 59.873 126.298 61.2371C126.817 62.6011 127.276 64.0175 127.676 65.486L128.038 66.8908C128.326 67.8723 128.522 68.9023 128.626 69.9806C128.721 71.0314 128.661 72.0444 128.446 73.0194C128.211 73.8472 127.778 74.6056 127.149 75.2949C126.538 75.9468 125.842 76.536 125.061 77.0626C124.363 77.5595 123.622 77.9789 122.837 78.3209C122.08 78.6529 121.29 78.9349 120.466 79.1669C119.864 79.3198 119.266 79.4402 118.672 79.5282C118.115 79.6337 117.548 79.6657 116.971 79.6239C116.421 79.5723 115.892 79.4509 115.386 79.2597C114.87 79.041 114.389 78.7014 113.943 78.2408C113.309 77.6924 112.786 77.0582 112.372 76.3382C111.976 75.5809 111.622 74.8087 111.309 74.0217C110.459 71.908 109.596 69.7992 108.719 67.6953C107.859 65.5541 107.111 63.3733 106.474 61.153C106.059 59.9065 105.77 58.6155 105.605 57.2799C105.458 55.907 105.642 54.5863 106.158 53.3178C106.337 52.944 106.568 52.5829 106.85 52.2344C107.608 51.4682 108.479 50.8009 109.464 50.2325C110.467 49.6268 111.505 49.1634 112.579 48.8423C113.68 48.5113 114.789 48.3326 115.905 48.3062C117.039 48.2423 118.117 48.3692 119.137 48.6868ZM121.594 64.2169L120.886 62.2383L119.801 59.4651C119.791 59.4376 119.665 59.1727 119.423 58.6704C119.199 58.1307 118.989 57.6322 118.795 57.175C118.464 56.4253 117.992 55.8038 117.377 55.3103C116.791 54.8069 116.125 54.5178 115.379 54.4431C114.746 54.4212 114.162 54.5828 113.629 54.928C113.096 55.2732 112.666 55.6899 112.34 56.178C111.635 57.2663 111.322 58.4468 111.402 59.7197C111.554 60.8431 111.808 61.9918 112.165 63.1657C112.55 64.3298 112.977 65.479 113.445 66.6133C113.927 67.5256 114.378 68.4803 114.797 69.4772C115.206 70.4467 115.711 71.3354 116.313 72.1433C116.787 72.5939 117.341 72.8763 117.976 72.9906C118.611 73.1049 119.244 73.0806 119.873 72.9179C120.493 72.7277 121.074 72.4276 121.615 72.0175C122.147 71.58 122.537 71.0534 122.786 70.4378C122.918 70.019 123.005 69.6936 123.047 69.4617C123.079 69.2023 123.065 68.944 123.004 68.6867C122.943 68.4295 122.84 68.141 122.695 67.8211C122.567 67.4639 122.428 66.9869 122.277 66.39C122.108 65.8305 121.95 65.3447 121.803 64.9325C121.683 64.5104 121.613 64.2718 121.594 64.2169Z" fill="#192C32"/>
<path d="M118.045 52.1686C118.813 52.537 119.451 53.0631 119.959 53.7468C120.213 54.0269 120.431 54.3318 120.615 54.6616C120.81 54.9626 120.99 55.2814 121.154 55.6182C121.389 56.1522 121.605 56.6931 121.8 57.2409C122.008 57.7599 122.2 58.2969 122.376 58.8517C122.733 60.034 123.117 61.1695 123.528 62.2583C123.94 63.3471 124.31 64.4751 124.64 65.6425L124.94 66.7585C125.175 67.5394 125.346 68.3555 125.453 69.207C125.552 70.0365 125.54 70.8315 125.417 71.592C125.274 72.236 124.989 72.8196 124.562 73.3427C124.146 73.837 123.668 74.2794 123.128 74.67C122.645 75.0397 122.13 75.3472 121.581 75.5924C121.052 75.8307 120.497 76.0286 119.917 76.1861C119.493 76.2881 119.071 76.3647 118.65 76.4159C118.257 76.4821 117.854 76.49 117.441 76.4397C117.047 76.3825 116.667 76.2709 116.301 76.1052C115.926 75.9175 115.573 75.6358 115.241 75.26C114.773 74.8093 114.381 74.2945 114.064 73.7157C113.759 73.1079 113.483 72.4897 113.236 71.8612C112.567 70.1727 111.888 68.4876 111.199 66.8061C110.521 65.0957 109.922 63.3575 109.4 61.5915C109.067 60.5984 108.821 59.574 108.664 58.5184C108.517 57.434 108.609 56.4006 108.938 55.4184C109.054 55.1298 109.207 54.8527 109.397 54.5871C109.914 54.0073 110.515 53.5088 111.2 53.0915C111.896 52.6454 112.622 52.3123 113.377 52.0923C114.151 51.8653 114.936 51.7583 115.731 51.7713C116.537 51.7554 117.308 51.8879 118.045 52.1686Z" fill="#DFE7EB"/>
<path d="M117.501 75.6801C115.485 75.0145 114.381 72.532 115.072 70.6316C115.751 68.686 118.125 67.6044 120.086 68.3884C122.034 69.0683 123.154 71.3696 122.509 73.2604C121.942 75.2772 119.488 76.4231 117.501 75.6801Z" fill="#192C32"/>
<path d="M118.169 74.6198C117.132 74.3644 116.319 73.1013 116.933 72.1302C117.518 70.9873 119.401 71.1473 119.973 72.2953C120.566 73.4385 119.467 75.0218 118.169 74.6198Z" fill="#DFE7EB"/>
<path d="M111.92 40.9764C112.062 41.0351 112.182 41.0884 112.282 41.1363L113.479 41.7112C113.678 41.8071 113.867 41.9002 114.046 41.9907C114.245 42.0865 114.445 42.1823 114.644 42.2781C114.575 42.3724 114.492 42.6087 114.394 42.987C114.323 43.3497 114.199 43.833 114.021 44.4371C113.968 44.4683 113.841 44.4361 113.642 44.3402C113.448 44.2234 113.204 44.0826 112.91 43.9178C112.638 43.7585 112.341 43.6042 112.021 43.4551C111.706 43.285 111.407 43.1412 111.123 43.0239L110.615 44.4732C110.605 44.5152 110.586 44.544 110.56 44.5597C110.539 44.5543 110.496 44.5435 110.433 44.5274C110.37 44.5113 110.223 44.4736 109.992 44.4144C109.766 44.3342 109.422 44.235 108.959 44.1166C108.481 43.9719 107.816 43.7682 106.965 43.5056L106.933 43.4975L106.941 43.466C106.914 42.8766 107.021 42.2879 107.262 41.6999C107.487 41.0856 107.716 40.4161 107.947 39.6913L107.955 39.6598L111.55 40.7139L111.534 40.7769C111.555 40.7823 111.573 40.7982 111.589 40.8246C111.589 40.8246 111.6 40.8273 111.621 40.8326C111.705 40.8542 111.804 40.9021 111.92 40.9764Z" fill="#192C32"/>
<path d="M91.7621 44.277C91.6277 44.351 91.5136 44.4174 91.4199 44.476L90.2946 45.18C90.1071 45.2973 89.9297 45.4108 89.7624 45.5205C89.5749 45.6378 89.3874 45.7551 89.1998 45.8725C89.2791 45.9585 89.3882 46.1841 89.5274 46.5491C89.6385 46.9016 89.8162 47.3681 90.0607 47.9485C90.1167 47.9737 90.2385 47.9277 90.4261 47.8104C90.6059 47.6727 90.8326 47.5058 91.1062 47.3095C91.3594 47.1209 91.6369 46.9348 91.9385 46.7511C92.2324 46.5472 92.5137 46.3712 92.7824 46.2232L93.4491 47.6069C93.4646 47.6475 93.4863 47.6741 93.5144 47.6867C93.5347 47.679 93.5753 47.6637 93.6362 47.6406C93.6971 47.6176 93.8392 47.5639 94.0625 47.4794C94.2781 47.3747 94.6091 47.2379 95.0557 47.069C95.5149 46.8722 96.1529 46.5961 96.9698 46.2408L97.0002 46.2293L96.9886 46.1989C96.9501 45.6101 96.7781 45.037 96.4728 44.4796C96.18 43.8942 95.8781 43.2542 95.5669 42.5597L95.5553 42.5293L92.1 43.9752L92.1231 44.0361C92.1028 44.0437 92.0864 44.0615 92.0738 44.0895C92.0738 44.0895 92.0637 44.0933 92.0434 44.101C91.9622 44.1317 91.8684 44.1904 91.7621 44.277Z" fill="#192C32"/>
<g clip-path="url(#clip0_3053_38636)">
<path d="M100.593 91.0522L94.9892 96.0713L93.4187 97.6967C93.7826 99.0124 94.8356 101.958 96.1364 103.215C97.4372 104.473 103.969 111.121 107.072 114.288L116.215 114.199L119.5 111.841L124.761 101.839L126.149 93.3728L122.682 88.89L113.252 87.1937L100.593 91.0522Z" fill="#DFE7EB"/>
<path d="M108.664 87.0377C113.664 86.1109 118.95 85.8965 123.86 87.461C125.986 88.0304 128.323 89.6024 128.145 92.1583C128.179 97.8647 127.2 103.683 124.869 108.858C121.192 116.65 110.243 118.857 103.597 113.653C99.6649 110.542 96.6382 106.351 94.0577 102.038C93.016 100.284 91.8117 97.8232 93.3074 95.9915C97.0369 91.1232 102.847 88.3733 108.664 87.0377ZM96.6535 95.7591C97.1906 96.3555 97.859 97.1584 98.7436 96.8652C106.221 95.6428 113.572 93.7835 120.824 91.6116C121.764 91.5117 121.67 90.162 120.886 89.8579C117.196 87.9466 112.889 88.6108 108.985 89.3369C104.28 89.9637 100.23 92.6845 96.6535 95.7591ZM106.159 113.117C106.883 113.961 108.014 113.831 108.958 113.907C113.651 113.813 119.301 112.201 121.763 107.839C117.489 111.606 111.811 113.501 106.159 113.117Z" fill="#192C32"/>
</g>
<path d="M129.07 120.841C128.699 120.978 128.381 121.096 128.031 121.29C126.218 122.41 124.246 123.267 122.37 124.218C116.784 126.862 110.844 127.582 104.667 126.529C104.466 126.475 104.265 126.421 104.033 126.443C103.366 126.432 103.036 127.004 103.288 127.681C103.414 128.02 103.698 128.299 103.909 128.542C104.479 129.102 105.092 129.453 105.778 129.841C110.29 132.088 114.904 132.179 119.332 130.798C121.462 129.882 123.413 128.968 125.163 127.679C127.105 126.254 128.613 124.477 129.499 122.159C129.595 121.931 129.659 121.779 129.702 121.57C129.937 120.905 129.653 120.626 129.07 120.841Z" fill="#192C32"/>
<path d="M90.1595 27.4626C86.7557 32.3376 84.1675 36.2062 82.1605 36.1767V33.8882V31.7983C80.8761 30.9504 82.6957 23.8499 83.7661 20.4056L88.9039 8.39471C90.2686 3.36073 91.9866 13.3404 94.0417 13.3404C96.6106 13.3404 95.6473 6.27514 97.012 0.887902C97.9935 -2.98651 100.553 6.79705 101.435 11.4147C101.966 8.28636 104.719 3.85796 104.719 5.92188L109.535 13.3404L112.104 8.39471C112.907 5.92188 115.203 15.036 119.891 20.4056C125.752 27.1176 122.541 30.7385 121.257 32.8581C119.972 34.9777 119.891 36.6168 118.058 32.8581C116.06 28.7605 111.141 26.7358 109.535 24.734C107.395 22.7027 93.5633 22.5876 90.1595 27.4626Z" fill="#192C32"/>
<defs>
<clipPath id="clip0_3053_38636">
<rect width="36.1666" height="29.8472" fill="white" transform="matrix(0.987427 -0.158077 0.158551 0.987351 91.2344 89.8025)"/>
</clipPath>
</defs>
</svg>
