<svg width="97" height="180" viewBox="0 0 97 180" fill="none" xmlns="http://www.w3.org/2000/svg">
<path d="M30.6067 179.911C31.5054 168.209 31.8829 156.489 31.6672 144.751C31.5054 135.872 30.9303 127.028 30.0496 118.203C29.8698 116.345 29.6182 114.469 29.4205 112.611C29.4025 112.379 29.4205 112.146 29.4205 111.896C30.427 112.164 31.3976 112.45 32.4041 112.647C32.7097 112.7 33.0692 112.468 33.4107 112.361C33.2669 111.986 33.2129 111.432 32.9254 111.271C31.9009 110.681 30.7505 110.27 29.7081 109.699C23.2555 106.197 18.3307 101.266 15.8503 94.2986C14.9157 91.6902 14.4843 88.8853 14.1428 86.1161C13.3699 79.5773 13.6395 73.0385 14.6101 66.5354C14.7539 65.5885 14.9516 64.6595 15.1853 63.7484C15.5088 62.5692 15.4549 61.4437 14.8977 60.3718C11.9141 54.5833 8.91244 48.7948 5.91082 43.0064C4.8324 40.9161 3.736 38.8437 2.76542 36.6998C2.42392 35.9494 2.35202 35.0204 2.40594 34.1807C2.45986 33.0909 3.2507 32.6443 4.23925 33.0909C4.99415 33.4304 5.80298 33.8413 6.30625 34.4487C7.58238 36.0388 8.84054 37.7003 9.86505 39.4511C12.3454 43.721 14.664 48.0981 17.0905 52.4037C17.7016 53.4935 18.4745 54.4761 19.2294 55.5838C19.2294 55.548 19.2473 55.6016 19.2294 55.6552C19.1395 56.0125 19.0317 56.3877 18.9418 56.745C19.3372 56.7272 19.8045 56.8165 20.1101 56.6378C20.6852 56.3341 21.1346 55.8339 21.6738 55.4587C22.8061 54.6369 23.9744 53.8508 25.0888 53.0111C25.3045 52.8503 25.5561 52.4573 25.5022 52.225C24.5496 47.8122 23.6329 43.3815 22.5905 38.9866C21.0447 32.4478 19.4091 25.9268 17.8094 19.4059C17.2523 17.1369 16.8029 14.868 16.9467 12.5276C17.0725 10.616 17.8993 9.97282 19.7147 10.616C20.4516 10.8661 21.2964 11.4021 21.6738 12.0452C22.7882 13.8675 23.8846 15.7434 24.6395 17.7086C27.695 25.6052 29.8698 33.7698 31.5054 42.0774C31.829 43.6853 32.2424 45.2753 32.5659 46.8653C32.6198 47.1333 32.4401 47.4549 32.3502 47.7408C32.2783 48.0087 32.0626 48.4018 32.1525 48.509C32.3682 48.7234 32.8175 48.9914 33.0332 48.902C35.5495 47.8658 38.2276 47.848 40.8698 47.5085C41.5887 47.4192 42.2717 46.9011 42.9008 46.4902C43.1165 46.3472 43.0805 45.8649 43.1524 45.5254C42.8469 45.454 42.5593 45.3468 42.2537 45.3289C41.9662 45.311 41.6606 45.4004 41.2832 45.4718C41.3191 44.5785 41.409 43.7567 41.391 42.9349C41.3191 33.5019 41.1933 24.0509 41.1394 14.6179C41.1214 11.7058 41.2832 8.79369 41.391 5.8816C41.409 5.47069 41.5348 5.05978 41.6426 4.66673C42.2897 2.00475 45.3991 1.95116 46.6393 3.46974C47.2325 4.18436 47.6998 5.05978 48.0053 5.93519C49.4972 10.0622 50.1083 14.3678 50.1442 18.727C50.2161 27.7134 50.1802 36.6998 50.1802 45.7041C50.1802 45.8827 50.1622 46.0435 50.1442 46.2758C49.8387 46.2758 49.5691 46.24 49.3174 46.2936C49.0838 46.3472 48.8501 46.4723 48.6344 46.5795C48.7602 46.7939 48.8501 47.0797 49.0478 47.2048C50.6295 48.241 52.2292 49.1879 54.1524 49.5273C55.2308 49.7238 56.2553 50.1705 57.3157 50.4742C57.5853 50.5457 57.8909 50.4563 58.1785 50.4385C58.0886 50.1526 58.0706 49.7774 57.8729 49.6166C57.3697 49.2057 56.7945 48.8842 56.1474 48.4732C56.453 47.0976 56.7765 45.6326 57.136 44.1676C59.167 35.9137 61.1981 27.6419 63.2291 19.388C63.5706 17.9945 63.8043 16.5831 64.2536 15.2253C64.5771 14.2606 65.0624 13.2958 65.6556 12.4561C66.5363 11.2056 68.1 11.152 69.2144 12.206C70.1849 13.135 70.5804 14.3499 70.5085 15.6184C70.2748 19.2629 70.167 22.9433 69.5918 26.5343C68.3876 33.9306 66.9676 41.2913 65.4938 48.634C64.631 52.9397 63.4987 57.1917 63.5347 61.6224C63.4628 61.6402 63.3729 61.6581 63.301 61.6759C62.8876 60.7112 62.4742 59.7643 62.0249 58.7281C61.3778 58.871 61.4497 59.407 61.4497 59.8894C61.4856 61.8367 62.1327 63.6233 63.0494 65.3205C64.3255 67.7145 65.6376 70.0728 66.8778 72.4846C67.2552 73.2171 67.7225 73.5387 68.4235 73.0921C69.466 72.4311 70.6702 71.8415 71.4072 70.8946C73.1866 68.6257 74.7323 66.1781 76.4039 63.8198C78.5248 60.8541 81.1489 58.5137 84.8156 57.674C86.9904 57.1738 89.2191 57.1738 91.394 57.7634C92.0051 57.9242 92.6341 58.2636 93.1015 58.6924C94.4135 59.9072 94.2877 61.14 92.8678 62.194C92.4544 62.4978 92.041 62.8015 91.6096 63.0337C87.4937 65.3027 84.5819 68.6971 82.3532 72.7526C80.4479 76.2186 78.4529 79.6488 76.4937 83.0968C74.5526 86.5628 71.5689 89.0461 68.5493 91.4937C66.6441 93.0301 64.631 94.4415 62.7258 95.9601C59.5085 98.5506 57.0102 101.784 54.5298 105.054C53.2716 106.715 51.9236 108.305 50.6295 109.949C50.5037 110.092 50.4498 110.288 50.3599 110.467C50.4138 110.556 50.4677 110.646 50.5217 110.735C50.9171 110.538 51.4024 110.431 51.7079 110.145C53.685 108.359 55.6262 106.554 57.5674 104.75C57.7831 104.553 57.9628 104.339 58.1605 104.143C58.2683 104.16 58.3762 104.178 58.4661 104.178C58.4661 105.643 58.4121 107.126 58.484 108.591C58.6997 113.861 58.7716 119.132 59.2389 124.384C59.9219 132.067 60.8386 139.713 61.8092 147.359C62.618 153.702 63.6065 160.026 64.5951 166.351C65.2601 170.585 66.0869 174.783 66.8238 179C66.8778 179.321 66.8957 179.643 66.9317 179.982C68.4954 179.982 70.0411 179.982 71.6049 179.982C70.796 175.802 69.9153 171.639 69.2144 167.458C67.5248 157.436 65.7095 147.413 64.3614 137.337C63.2291 128.797 62.6 120.168 61.917 111.575C61.6294 107.93 61.7553 104.25 61.6654 100.605C61.6474 100.087 61.8271 99.8369 62.2945 99.6047C70.6343 95.3705 77.2486 89.4034 81.3466 80.8815C83.18 77.0404 85.193 73.2886 87.8531 69.912C89.5786 67.7145 91.5377 65.7672 94.108 64.5166C94.6113 64.2665 95.0966 63.9449 95.5279 63.5876C97.2714 62.0333 97.523 59.9608 95.9773 58.1921C93.0835 54.8691 89.345 53.6543 85.0492 54.6369C80.7894 55.6195 77.3385 57.817 74.912 61.6045C73.2045 64.2665 71.2274 66.7319 69.3581 69.2867C69.1604 69.5726 68.8908 69.8048 68.6032 70.1085C67.9742 69.4118 67.3631 68.8043 66.8598 68.1076C66.6082 67.7503 66.4284 67.2322 66.4284 66.8034C66.4464 63.6769 66.3386 60.5325 66.6261 57.4418C66.8778 54.7977 67.5967 52.1893 68.1 49.5631C69.8434 40.5945 71.6049 31.626 72.6294 22.5502C72.9529 19.6381 73.3303 16.6903 72.7192 13.7425C72.6473 13.4209 72.5754 13.0993 72.4676 12.7956C71.5689 10.1336 69.0885 8.70436 66.3206 9.32966C65.7634 9.45472 65.2242 9.81203 64.7928 10.1872C62.9415 11.8308 61.8451 13.9747 61.216 16.2794C59.4007 22.8361 57.6572 29.4285 55.9857 36.0209C55.1589 39.326 54.5658 42.7027 53.8468 46.0614C53.7929 46.3472 53.685 46.6152 53.5952 46.8832C53.5053 46.8832 53.4154 46.8653 53.3435 46.8653C53.3435 45.6683 53.3615 44.4535 53.3435 43.2565C53.1997 34.9847 53.1279 26.7129 52.8762 18.4411C52.7504 14.4571 52.2112 10.4909 51.1148 6.63195C50.5936 4.80966 49.8746 3.09456 48.5086 1.7189C45.7586 -1.05027 41.5348 -0.38924 39.8093 3.09456C38.8028 5.09551 38.7668 7.27511 38.5332 9.43685C37.8502 16.1365 38.5691 22.8182 38.641 29.5178C38.6949 34.7524 38.659 39.9871 38.659 45.186C37.5266 45.5254 36.5201 45.8113 35.4417 46.1328C35.1541 44.7036 34.9025 43.2565 34.5969 41.8094C32.7456 33.0373 30.5888 24.3547 27.03 16.0829C26.0234 13.7246 24.8911 11.4378 23.1656 9.47259C21.566 7.65029 19.5888 7.38231 17.45 7.95401C15.8323 8.38278 15.0055 9.68697 14.4843 11.1877C13.7474 13.3494 13.8732 15.5648 14.3765 17.7086C15.4729 22.4609 16.767 27.1596 17.8454 31.9118C19.0856 37.4323 20.146 42.9706 21.2963 48.509C21.4761 49.3844 21.6379 50.2598 21.9254 51.0995C22.2669 52.0821 22.1052 52.761 20.9548 53.1719C20.6852 52.7967 20.3437 52.3858 20.0741 51.9392C17.9712 48.2767 15.8503 44.6143 13.7833 40.934C12.1297 38.004 10.6199 34.9847 8.24741 32.5192C6.41409 30.6255 4.65266 30.2682 2.51378 31.3401C0.35693 32.4121 -0.397972 33.7162 0.195162 36.0566C0.608558 37.7181 1.23764 39.3439 1.97457 40.8982C4.05952 45.2038 6.28827 49.4559 8.42715 53.7436C9.63139 56.1376 10.7817 58.5495 11.986 60.9435C12.4353 61.8189 12.4712 62.5692 11.968 63.5161C11.4647 64.4808 11.3209 65.66 11.1412 66.7676C9.95492 73.6102 9.59544 80.4884 10.5121 87.3846C11.6804 96.1745 15.7425 103.356 22.8601 108.77C23.615 109.341 24.4957 109.752 25.2685 110.324C25.6101 110.574 25.9516 111.003 26.0055 111.396C27.2097 120.007 27.9826 128.654 28.1623 137.355C28.378 147.359 28.1803 157.364 27.713 167.351C27.5153 171.567 27.1558 175.784 26.8682 180C28.0904 179.911 29.3486 179.911 30.6067 179.911Z" fill="#192C32"/>
<path d="M27.5695 99.1038C27.7672 100.569 27.7852 102.087 28.1985 103.499C29.6005 108.34 33.0515 110.288 38.1021 109.948C39.3602 109.859 40.6364 109.502 41.8227 109.037C45.8847 107.465 47.754 104.267 48.1854 100.104C48.6347 95.9058 47.6461 92.0647 45.3096 88.5809C43.4762 85.8653 40.7622 84.5254 37.5988 84.0073C36.0171 83.7393 34.6871 84.5076 33.4469 85.383C31.5417 86.7229 30.1397 88.4559 29.3309 90.6533C28.3244 93.3689 27.6414 96.1559 27.5695 99.1038ZM46.7834 102.516C45.7948 105.696 41.7687 108.412 37.8505 108.555C39.522 104.91 43.62 102.105 46.7834 102.516Z" fill="#192C32"/>
<path d="M37.5805 114.701C40.8877 114.486 43.8354 113.682 45.9743 111.092C46.2798 110.735 46.4955 110.306 46.6753 109.877C46.7471 109.716 46.5854 109.466 46.5315 109.27C46.3517 109.341 46.1001 109.359 46.0282 109.502C43.9792 112.61 40.7259 113.182 37.3828 113.611C37.1492 113.647 36.8796 113.575 36.6639 113.664C36.4122 113.754 36.2145 113.95 35.9988 114.111C36.1966 114.29 36.3763 114.54 36.6279 114.629C36.9514 114.719 37.3289 114.683 37.5805 114.701Z" fill="#192C32"/>
<path d="M32.3157 62.7992C32.9827 63.3884 33.4544 64.0784 33.7306 64.8693C33.8917 65.2084 34.0068 65.5586 34.0759 65.9199C34.168 66.2588 34.2371 66.6089 34.2832 66.9701C34.3294 67.5345 34.3527 68.0987 34.3529 68.6629C34.3761 69.2047 34.3763 69.7576 34.3535 70.3217C34.285 71.5175 34.2625 72.6797 34.286 73.8082C34.3094 74.9366 34.2754 76.0875 34.1839 77.2607L34.0808 78.3774C34.0352 79.1671 33.909 79.9678 33.7024 80.7795C33.4958 81.5686 33.1857 82.2896 32.7721 82.9426C32.3815 83.4828 31.8643 83.921 31.2207 84.2572C30.6 84.5709 29.9333 84.8167 29.2207 84.9946C28.577 85.1728 27.9217 85.2833 27.255 85.326C26.6112 85.3688 25.9559 85.3664 25.2891 85.3188C24.8063 85.272 24.3349 85.2025 23.8751 85.1106C23.4382 85.0413 23.0128 84.9156 22.5988 84.7336C22.2079 84.5516 21.8514 84.3246 21.5294 84.0527C21.2074 83.7581 20.9429 83.3848 20.7358 82.9327C20.4136 82.3673 20.195 81.7685 20.0798 81.1361C19.9875 80.4813 19.9298 79.8267 19.9065 79.1721C19.8369 77.4116 19.7557 75.651 19.663 73.8904C19.5933 72.1073 19.6156 70.3245 19.7299 68.542C19.7525 67.5266 19.8785 66.5115 20.108 65.4968C20.3605 64.4596 20.843 63.5473 21.5554 62.7601C21.7853 62.5352 22.0496 62.3331 22.3484 62.1536C23.107 61.7953 23.9231 61.5387 24.7968 61.3839C25.6934 61.2066 26.5786 61.1422 27.4523 61.1905C28.349 61.2389 29.2113 61.4 30.0391 61.6738C30.8899 61.9251 31.6488 62.3003 32.3157 62.7992ZM30.0443 74.7406L30.0436 73.1157L29.9737 70.8135C29.9737 70.791 29.9507 70.5652 29.9045 70.1362C29.8813 69.6848 29.8582 69.2672 29.835 68.8835C29.7888 68.2514 29.6046 67.6753 29.2825 67.155C28.9834 66.6349 28.5694 66.2497 28.0405 65.9995C27.5806 65.8173 27.1092 65.7818 26.6264 65.8928C26.1436 66.0039 25.7184 66.1942 25.3506 66.4637C24.5461 67.0701 24.0061 67.8467 23.7306 68.7936C23.547 69.6505 23.4324 70.5528 23.3868 71.5004C23.3642 72.4482 23.376 73.3961 23.4224 74.3441C23.5377 75.1344 23.6185 75.9471 23.6648 76.7823C23.7111 77.5949 23.8494 78.374 24.0796 79.1196C24.3097 79.5718 24.6432 79.9228 25.0802 80.1726C25.5171 80.4225 25.9885 80.5709 26.4944 80.6179C27.0002 80.6423 27.506 80.5764 28.0118 80.4203C28.5175 80.2416 28.9428 79.961 29.2875 79.5786C29.4943 79.3085 29.6437 79.0947 29.7356 78.9371C29.8275 78.7569 29.8849 78.5652 29.9078 78.3622C29.9307 78.1592 29.9306 77.9222 29.9075 77.6513C29.9074 77.3579 29.9302 76.9744 29.976 76.5006C29.9988 76.0493 30.0102 75.6544 30.01 75.3159C30.0329 74.9775 30.0443 74.7857 30.0443 74.7406Z" fill="#192C32"/>
<path d="M30.5974 65.0446C31.0655 65.5143 31.3966 66.0645 31.5905 66.6953C31.7036 66.9657 31.7844 67.245 31.8329 67.5331C31.8976 67.8034 31.9461 68.0825 31.9785 68.3707C32.0109 68.8208 32.0273 69.2708 32.0274 69.7208C32.0438 70.1529 32.0439 70.5939 32.028 71.0439C31.9799 71.9977 31.9642 72.9246 31.9807 73.8247C31.9972 74.7247 31.9733 75.6427 31.9091 76.5784L31.8369 77.4692C31.8049 78.099 31.7163 78.7377 31.5714 79.3852C31.4264 80.0147 31.2087 80.5899 30.9185 81.1108C30.6443 81.5418 30.2813 81.8915 29.8295 82.1599C29.3939 82.4103 28.926 82.6066 28.4258 82.7488C27.974 82.8911 27.5141 82.9794 27.0461 83.0137C26.5942 83.0481 26.1343 83.0464 25.6662 83.0087C25.3273 82.9715 24.9965 82.9163 24.6737 82.8431C24.367 82.788 24.0684 82.6879 23.7779 82.5429C23.5035 82.3979 23.2533 82.2169 23.0273 82.0001C22.8012 81.7653 22.6155 81.4676 22.4701 81.1071C22.244 80.6563 22.0905 80.1787 22.0096 79.6744C21.9449 79.1522 21.9043 78.63 21.888 78.108C21.839 76.7038 21.7819 75.2996 21.7168 73.8953C21.6679 72.4732 21.6834 71.0512 21.7635 69.6295C21.7794 68.8196 21.8678 68.0099 22.0289 67.2005C22.206 66.3731 22.5447 65.6453 23.0447 65.0172C23.206 64.8378 23.3915 64.6764 23.6013 64.5332C24.1337 64.2471 24.7065 64.0422 25.3197 63.9184C25.9491 63.7767 26.5704 63.725 27.1836 63.7632C27.813 63.8015 28.4183 63.9297 28.9993 64.1478C29.5965 64.348 30.1292 64.6469 30.5974 65.0446Z" fill="#DFE7EB"/>
<path d="M20.0837 69.4446C19.7291 66.3033 22.2791 63.2732 25.1579 63.0318C28.0886 62.7479 30.9228 65.2923 31.0908 68.4322C31.3858 71.4903 29.0805 74.4303 26.2415 74.7271C23.2863 75.207 20.3206 72.5942 20.0837 69.4446Z" fill="#192C32"/>
<path d="M21.8266 69.6905C21.5318 68.1287 22.6772 66.2472 24.3053 66.4773C26.1383 66.5619 27.0673 69.21 25.9251 70.6933C24.8027 72.2043 22.0892 71.6962 21.8266 69.6905Z" fill="#DFE7EB"/>
<path d="M47.0568 57.9582C47.9024 58.2995 48.5957 58.8054 49.1366 59.476C49.4094 59.7489 49.642 60.0483 49.8344 60.3743C50.0409 60.6706 50.2293 60.9857 50.3996 61.3195C50.6407 61.8499 50.8598 62.3881 51.0567 62.9341C51.2679 63.4504 51.4609 63.9855 51.6357 64.5393C51.987 65.7202 52.3706 66.8528 52.7866 67.937C53.2026 69.0212 53.5712 70.1467 53.8925 71.3136L54.183 72.4299C54.4146 73.2099 54.5727 74.0282 54.6574 74.8847C54.7343 75.7195 54.6881 76.5239 54.5188 77.2979C54.3322 77.9549 53.9887 78.5566 53.4881 79.103C53.0018 79.6198 52.4476 80.0866 51.8256 80.5036C51.27 80.8971 50.6796 81.2291 50.0545 81.4994C49.4516 81.7619 48.8218 81.9846 48.1652 82.1675C47.6854 82.288 47.2088 82.3827 46.7353 82.4516C46.2919 82.5346 45.8397 82.559 45.379 82.525C44.9403 82.4831 44.519 82.3858 44.1151 82.2332C43.7033 82.0587 43.3192 81.7882 42.9628 81.4217C42.4565 80.9851 42.0378 80.4806 41.7067 79.9082C41.3899 79.3061 41.1062 78.6923 40.8556 78.0667C40.1748 76.3867 39.483 74.7105 38.7801 73.0383C38.0915 71.3364 37.4912 69.6032 36.9793 67.8388C36.6469 66.8482 36.414 65.8224 36.2804 64.7615C36.1611 63.6709 36.3061 62.6223 36.7153 61.6156C36.8575 61.3191 37.0408 61.0326 37.265 60.7563C37.8681 60.149 38.562 59.6204 39.3465 59.1706C40.1453 58.6911 40.9724 58.3247 41.8278 58.0714C42.7054 57.8103 43.5892 57.6701 44.4792 57.6508C45.3834 57.6019 46.2426 57.7044 47.0568 57.9582ZM49.0406 70.2961L48.4734 68.7236L47.6035 66.5194C47.5956 66.4976 47.4948 66.287 47.3009 65.8877C47.1212 65.4587 46.9534 65.0625 46.7974 64.699C46.5326 64.1031 46.1549 63.6087 45.6644 63.2158C45.1959 62.8151 44.6642 62.5845 44.0693 62.524C43.5644 62.5056 43.0996 62.633 42.6749 62.9063C42.2503 63.1796 41.9084 63.5098 41.6494 63.897C41.0887 64.7602 40.8412 65.6973 40.907 66.7083C41.0295 67.6008 41.2342 68.5134 41.5209 69.4463C41.8296 70.3714 42.1716 71.2848 42.5466 72.1864C42.9328 72.9117 43.2938 73.6706 43.6295 74.4631C43.9573 75.2337 44.3617 75.9402 44.8426 76.5828C45.2211 76.9415 45.6637 77.1667 46.1702 77.2584C46.6767 77.3502 47.1809 77.3319 47.6827 77.2037C48.1768 77.0536 48.6393 76.8161 49.0703 76.4913C49.4934 76.1447 49.8037 75.7271 50.0012 75.2386C50.1055 74.9062 50.1743 74.6479 50.2076 74.4638C50.2329 74.2578 50.2212 74.0526 50.1724 73.8483C50.1236 73.6439 50.0409 73.4146 49.9243 73.1603C49.8218 72.8764 49.71 72.4973 49.5888 72.023C49.4533 71.5784 49.3265 71.1923 49.2083 70.8647C49.1122 70.5293 49.0563 70.3398 49.0406 70.2961Z" fill="#192C32"/>
<path d="M46.1908 60.724C46.8037 61.0178 47.3131 61.4366 47.719 61.9803C47.9217 62.2031 48.0966 62.4456 48.2436 62.7078C48.3998 62.9471 48.5437 63.2006 48.6752 63.4683C48.8632 63.8927 49.0358 64.3226 49.1928 64.7579C49.3591 65.1704 49.513 65.5971 49.6545 66.0379C49.9409 66.9774 50.2489 67.8797 50.5784 68.745C50.908 69.6102 51.2051 70.5066 51.4697 71.4341L51.7109 72.3209C51.8997 72.9413 52.0374 73.5897 52.124 74.266C52.2043 74.9249 52.1961 75.5562 52.0992 76.1599C51.9864 76.6711 51.76 77.1341 51.4202 77.5488C51.0895 77.9407 50.709 78.2913 50.2787 78.6006C49.8948 78.8934 49.4844 79.1368 49.0474 79.3306C48.6259 79.519 48.184 79.6752 47.7219 79.7994C47.3837 79.8798 47.0471 79.9399 46.7119 79.9799C46.3985 80.0319 46.0771 80.0375 45.7478 79.9969C45.434 79.9508 45.1309 79.8616 44.8385 79.7294C44.5398 79.5798 44.2579 79.3555 43.9927 79.0566C43.6187 78.698 43.3049 78.2886 43.0515 77.8284C42.8074 77.3453 42.5864 76.8539 42.3888 76.3544C41.8523 75.0125 41.3081 73.6733 40.7562 72.3369C40.2134 70.9775 39.7327 69.5963 39.314 68.1931C39.0469 67.4039 38.8495 66.5901 38.7218 65.7516C38.6034 64.8902 38.6746 64.0697 38.9354 63.2902C39.0276 63.0613 39.1493 62.8415 39.3006 62.6309C39.7117 62.1713 40.1898 61.7763 40.735 61.4461C41.2894 61.0929 41.8674 60.8296 42.4691 60.656C43.0862 60.477 43.7116 60.3933 44.3451 60.4049C44.9878 60.3935 45.603 60.4999 46.1908 60.724Z" fill="#DFE7EB"/>
<path d="M37.5346 67.8962C36.4119 64.9927 38.2026 61.4444 41.0037 60.4701C43.8461 59.4417 47.2862 61.1351 48.2231 64.0854C49.2662 66.925 47.6966 70.3241 44.9485 71.3411C42.1299 72.5626 38.5423 70.838 37.5346 67.8962Z" fill="#192C32"/>
<path d="M39.3594 67.6739C38.6832 66.2608 39.3599 64.1703 41.0346 63.9687C42.8772 63.5754 44.4504 65.8606 43.6791 67.5704C42.9343 69.3016 40.1126 69.5188 39.3594 67.6739Z" fill="#DFE7EB"/>
<path d="M41.318 51.8366C41.4313 51.8833 41.5278 51.9256 41.6075 51.9637L42.5639 52.4206C42.7233 52.4967 42.8743 52.5707 43.0169 52.6426C43.1763 52.7187 43.3357 52.7949 43.4952 52.871C43.44 52.9458 43.3736 53.1331 43.296 53.4331C43.2396 53.7207 43.1404 54.1039 42.9986 54.5829C42.9564 54.6077 42.8556 54.582 42.6962 54.5058C42.5411 54.413 42.3462 54.3012 42.1114 54.1703C41.8934 54.0437 41.6564 53.9212 41.4005 53.8027C41.1489 53.6675 40.9098 53.5533 40.6832 53.46L40.2785 54.6091C40.2699 54.6425 40.255 54.6653 40.2339 54.6777C40.2171 54.6734 40.1835 54.6649 40.1331 54.652C40.0827 54.6392 39.965 54.6092 39.7802 54.5621C39.5997 54.4983 39.3246 54.4194 38.9549 54.3252C38.5728 54.21 38.0416 54.048 37.3613 53.8391L37.3361 53.8327L37.3425 53.8077C37.3202 53.3402 37.4051 52.8734 37.5973 52.4072C37.777 51.9202 37.9591 51.3893 38.1436 50.8146L38.15 50.7896L41.0226 51.6282L41.0097 51.6782C41.0265 51.6825 41.0411 51.6951 41.0536 51.716C41.0536 51.716 41.062 51.7182 41.0788 51.7224C41.1461 51.7396 41.2258 51.7776 41.318 51.8366Z" fill="#192C32"/>
<path d="M25.2191 54.4539C25.1119 54.5126 25.0208 54.5652 24.946 54.6118L24.0479 55.1702C23.8982 55.2633 23.7566 55.3534 23.6232 55.4404C23.4735 55.5334 23.3238 55.6265 23.1741 55.7196C23.2375 55.788 23.3248 55.9673 23.4362 56.2574C23.5251 56.5375 23.6674 56.9082 23.8631 57.3696C23.9079 57.3897 24.0051 57.3532 24.1548 57.2601C24.2983 57.1509 24.4792 57.0184 24.6975 56.8627C24.8996 56.713 25.1211 56.5653 25.3618 56.4196C25.5963 56.2578 25.8209 56.1182 26.0354 56.0008L26.5688 57.1006C26.5811 57.1328 26.5985 57.154 26.6209 57.164C26.6371 57.1579 26.6695 57.1457 26.7181 57.1275C26.7668 57.1092 26.8802 57.0667 27.0585 56.9997C27.2305 56.9167 27.4948 56.8082 27.8514 56.6744C28.2179 56.5183 28.7272 56.2994 29.3792 56.0177L29.4035 56.0086L29.3943 55.9844C29.3631 55.5167 29.2253 55.0613 28.9811 54.6182C28.7469 54.1529 28.5053 53.6442 28.2563 53.0923L28.2471 53.0681L25.4887 54.2143L25.5073 54.2627C25.4911 54.2688 25.478 54.2829 25.468 54.3051C25.468 54.3051 25.4598 54.3082 25.4436 54.3143C25.3788 54.3386 25.304 54.3851 25.2191 54.4539Z" fill="#192C32"/>
</svg>
