<svg width="106" height="194" viewBox="0 0 106 194" fill="none" xmlns="http://www.w3.org/2000/svg">
<path d="M33.531 193.904C34.5038 181.292 34.9124 168.66 34.679 156.01C34.5039 146.44 33.8813 136.908 32.9279 127.396C32.7333 125.394 32.461 123.372 32.2469 121.369C32.2275 121.119 32.2469 120.869 32.2469 120.599C33.3365 120.888 34.3871 121.196 35.4767 121.408C35.8074 121.466 36.1965 121.215 36.5662 121.1C36.4105 120.696 36.3522 120.099 36.0409 119.925C34.9319 119.29 33.6867 118.847 32.5582 118.231C25.5735 114.457 20.2425 109.142 17.5576 101.633C16.5459 98.8217 16.0789 95.7986 15.7092 92.814C14.8726 85.7667 15.1645 78.7193 16.2151 71.7104C16.3707 70.6899 16.5848 69.6886 16.8377 68.7066C17.1879 67.4357 17.1295 66.2227 16.5264 65.0673C13.2967 58.8287 10.0475 52.59 6.79834 46.3513C5.63097 44.0985 4.44415 41.8649 3.39352 39.5542C3.02385 38.7455 2.94603 37.7442 3.0044 36.8393C3.06276 35.6647 3.91882 35.1833 4.98891 35.6647C5.80607 36.0305 6.6816 36.4734 7.22638 37.1281C8.60776 38.8418 9.96969 40.6325 11.0787 42.5195C13.7636 47.1215 16.2735 51.839 18.9 56.4795C19.5616 57.6541 20.3982 58.7131 21.2153 59.907C21.2153 59.8684 21.2348 59.9262 21.2153 59.984C21.118 60.3691 21.0013 60.7734 20.904 61.1585C21.3321 61.1393 21.8379 61.2356 22.1687 61.043C22.7913 60.7157 23.2777 60.1765 23.8614 59.7722C25.0871 58.8864 26.3517 58.0392 27.558 57.1342C27.7915 56.9609 28.0639 56.5373 28.0055 56.287C26.9743 51.531 25.9821 46.7557 24.8536 42.0189C23.1804 34.9715 21.4099 27.9434 19.6783 20.9152C19.0752 18.4698 18.5887 16.0244 18.7444 13.502C18.8806 11.4417 19.7756 10.7485 21.7406 11.4417C22.5383 11.7112 23.4528 12.2889 23.8614 12.9821C25.0676 14.9461 26.2545 16.9679 27.0716 19.086C30.3792 27.5968 32.7333 36.3964 34.5038 45.35C34.8541 47.083 35.3016 48.7967 35.6518 50.5104C35.7101 50.7993 35.5156 51.1458 35.4183 51.4539C35.3405 51.7428 35.107 52.1664 35.2043 52.2819C35.4377 52.513 35.9241 52.8018 36.1576 52.7055C38.8815 51.5887 41.7804 51.5695 44.6405 51.2036C45.4187 51.1073 46.1581 50.5489 46.839 50.1061C47.0725 49.952 47.0336 49.4321 47.1114 49.0663C46.7807 48.9893 46.4694 48.8737 46.1386 48.8545C45.8273 48.8352 45.4966 48.9315 45.088 49.0085C45.1269 48.0458 45.2242 47.16 45.2047 46.2743C45.1269 36.1076 44.9907 25.9216 44.9323 15.7548C44.9129 12.6162 45.088 9.47765 45.2047 6.33905C45.2242 5.89618 45.3604 5.45331 45.4771 5.0297C46.1775 2.16068 49.5434 2.10291 50.8859 3.7396C51.528 4.50981 52.0338 5.45332 52.3646 6.39682C53.9794 10.8448 54.6409 15.4853 54.6798 20.1835C54.7577 29.8689 54.7188 39.5542 54.7188 49.2588C54.7188 49.4514 54.6993 49.6247 54.6798 49.875C54.3491 49.875 54.0572 49.8365 53.7849 49.8943C53.5319 49.952 53.279 50.0868 53.0455 50.2023C53.1817 50.4334 53.279 50.7415 53.493 50.8763C55.2052 51.9931 56.9368 53.0136 59.0186 53.3794C60.1859 53.5913 61.2949 54.0726 62.4428 54.4C62.7347 54.477 63.0654 54.3807 63.3767 54.3615C63.2794 54.0534 63.26 53.649 63.046 53.4757C62.5012 53.0329 61.8786 52.6863 61.1782 52.2434C61.5089 50.7607 61.8591 49.1818 62.2483 47.6029C64.4468 38.707 66.6454 29.7919 68.8439 20.896C69.2136 19.3941 69.4665 17.8729 69.9529 16.4095C70.3031 15.3697 70.8284 14.33 71.4705 13.425C72.4238 12.0771 74.1165 12.0193 75.3228 13.1554C76.3734 14.1567 76.8014 15.466 76.7236 16.8331C76.4707 20.7612 76.354 24.7277 75.7314 28.598C74.4278 36.5697 72.8908 44.5028 71.2954 52.4167C70.3615 57.0572 69.1357 61.6399 69.1746 66.4152C69.0968 66.4345 68.9995 66.4537 68.9217 66.473C68.4742 65.4332 68.0267 64.4127 67.5403 63.2959C66.8399 63.4499 66.9177 64.0276 66.9177 64.5474C66.9566 66.6463 67.6571 68.5718 68.6493 70.401C70.0307 72.9812 71.451 75.5229 72.7935 78.1223C73.2021 78.9118 73.7079 79.2584 74.4667 78.777C75.5952 78.0646 76.8987 77.4292 77.6964 76.4086C79.6226 73.9632 81.2958 71.3253 83.1052 68.7836C85.401 65.5872 88.2416 63.0648 92.2107 62.1598C94.5649 61.6207 96.9774 61.6207 99.3316 62.2561C99.9931 62.4294 100.674 62.7952 101.18 63.2573C102.6 64.5667 102.464 65.8953 100.927 67.0314C100.48 67.3587 100.032 67.686 99.5651 67.9364C95.1097 70.3818 91.9578 74.0403 89.5452 78.4112C87.4829 82.1467 85.3232 85.8437 83.2025 89.5599C81.1012 93.2954 77.8715 95.9719 74.6029 98.6099C72.5406 100.266 70.3615 101.787 68.2991 103.424C64.8165 106.216 62.1121 109.701 59.4271 113.225C58.0652 115.015 56.606 116.729 55.2052 118.5C55.069 118.655 55.0106 118.866 54.9133 119.059C54.9717 119.155 55.0301 119.251 55.0884 119.348C55.5165 119.136 56.0418 119.02 56.3725 118.712C58.5127 116.787 60.614 114.842 62.7152 112.897C62.9487 112.685 63.1433 112.454 63.3573 112.243C63.474 112.262 63.5907 112.281 63.688 112.281C63.688 113.86 63.6297 115.458 63.7075 117.037C63.941 122.717 64.0188 128.398 64.5246 134.059C65.264 142.338 66.2562 150.58 67.3069 158.821C68.1824 165.656 69.2525 172.473 70.3226 179.289C71.0424 183.853 71.9374 188.377 72.7351 192.922C72.7935 193.268 72.8129 193.615 72.8519 193.981C74.5445 193.981 76.2178 193.981 77.9104 193.981C77.0349 189.475 76.0816 184.989 75.3228 180.483C73.4939 169.681 71.5288 158.879 70.0696 148.019C68.8439 138.815 68.1629 129.514 67.4236 120.253C67.1123 116.325 67.2485 112.358 67.1512 108.43C67.1318 107.872 67.3263 107.602 67.8322 107.352C76.8598 102.788 84.0197 96.357 88.4557 87.1723C90.4402 83.0324 92.6193 78.9888 95.4988 75.3496C97.3666 72.9812 99.4873 70.8824 102.27 69.5345C102.814 69.265 103.34 68.9184 103.807 68.5333C105.694 66.8581 105.966 64.6245 104.293 62.7182C101.161 59.1367 97.1136 57.8274 92.4636 58.8864C87.8525 59.9455 84.1169 62.3138 81.4904 66.3959C79.642 69.265 77.5019 71.9222 75.4784 74.6757C75.2644 74.9838 74.9726 75.2341 74.6613 75.5614C73.9803 74.8105 73.3188 74.1558 72.774 73.4048C72.5016 73.0197 72.3071 72.4613 72.3071 71.9992C72.3265 68.6295 72.2098 65.2406 72.5211 61.9095C72.7935 59.0597 73.5717 56.2485 74.1165 53.418C76.0037 43.7519 77.9104 34.0858 79.0194 24.3041C79.3697 21.1655 79.7782 17.9884 79.1167 14.8113C79.0389 14.4647 78.9611 14.1181 78.8443 13.7908C77.8715 10.9218 75.1866 9.38137 72.1903 10.0553C71.5872 10.1901 71.0035 10.5752 70.5366 10.9796C68.5326 12.751 67.3458 15.0616 66.6648 17.5456C64.6997 24.6122 62.8125 31.7174 61.0031 38.8225C60.1081 42.3847 59.466 46.024 58.6878 49.6439C58.6294 49.952 58.5127 50.2409 58.4154 50.5297C58.3181 50.5297 58.2209 50.5104 58.143 50.5104C58.143 49.2203 58.1625 47.911 58.143 46.6209C57.9874 37.7057 57.9096 28.7906 57.6372 19.8754C57.501 15.5815 56.9173 11.3069 55.7305 7.14777C55.1662 5.18374 54.388 3.33525 52.9093 1.8526C49.9325 -1.13196 45.3604 -0.419514 43.4926 3.33525C42.403 5.49183 42.3641 7.84096 42.1112 10.1708C41.3719 17.3915 42.1501 24.593 42.2279 31.8137C42.2863 37.4554 42.2474 43.0972 42.2474 48.7004C41.0217 49.0663 39.9321 49.3744 38.7647 49.721C38.4534 48.1805 38.1811 46.6209 37.8503 45.0612C35.8463 35.6069 33.5116 26.2489 29.6593 17.3338C28.5697 14.7921 27.344 12.3274 25.4762 10.2093C23.7446 8.24532 21.6044 7.95649 19.2892 8.57265C17.5381 9.03478 16.6431 10.4404 16.0789 12.0578C15.2812 14.3877 15.4174 16.7754 15.9622 19.086C17.149 24.2079 18.5498 29.272 19.7172 34.3938C21.0597 40.3437 22.2076 46.3128 23.4528 52.2819C23.6473 53.2254 23.8224 54.1689 24.1337 55.0739C24.5034 56.1329 24.3283 56.8646 23.0831 57.3075C22.7913 56.9031 22.4216 56.4603 22.1298 55.9789C19.8534 52.0316 17.5576 48.0843 15.3201 44.1177C13.5302 40.9599 11.8958 37.7057 9.32763 35.0485C7.34311 33.0075 5.43641 32.6224 3.12113 33.7777C0.786394 34.933 -0.0307681 36.3386 0.611284 38.861C1.05877 40.6518 1.73974 42.404 2.53744 44.0792C4.79435 48.7197 7.20692 53.3024 9.52219 57.9237C10.8258 60.5039 12.0709 63.1033 13.3745 65.6835C13.8609 66.627 13.8998 67.4357 13.3551 68.4562C12.8103 69.496 12.6546 70.7669 12.4601 71.9607C11.176 79.3354 10.7868 86.7487 11.7791 94.1812C13.0438 103.655 17.4408 111.395 25.1455 117.23C25.9626 117.846 26.916 118.289 27.7526 118.905C28.1222 119.174 28.4919 119.637 28.5503 120.06C29.8538 129.341 30.6905 138.661 30.885 148.038C31.1185 158.821 30.9045 169.604 30.3986 180.367C30.1846 184.912 29.7955 189.456 29.4842 194C30.8072 193.904 32.1691 193.904 33.531 193.904Z" fill="#192C32"/>
<path d="M30.2428 106.813C30.4568 108.391 30.4763 110.028 30.9238 111.549C32.4413 116.767 36.1769 118.866 41.6441 118.5C43.006 118.404 44.3874 118.019 45.6715 117.518C50.0686 115.824 52.092 112.377 52.559 107.891C53.0454 103.366 51.9753 99.226 49.446 95.4712C47.4615 92.5445 44.5236 91.1003 41.0993 90.5419C39.3872 90.2531 37.9474 91.0811 36.605 92.0246C34.5426 93.4687 33.025 95.3365 32.1495 97.7048C31.06 100.632 30.3206 103.635 30.2428 106.813ZM51.0414 110.49C49.9713 113.918 45.6131 116.844 41.3717 116.999C43.1811 113.07 47.6171 110.047 51.0414 110.49Z" fill="#192C32"/>
<path d="M41.0799 123.622C44.6599 123.391 47.8507 122.525 50.1659 119.733C50.4967 119.348 50.7302 118.886 50.9247 118.423C51.0026 118.25 50.8274 117.981 50.7691 117.769C50.5745 117.846 50.3021 117.865 50.2243 118.019C48.0063 121.37 44.4848 121.986 40.8659 122.448C40.613 122.486 40.3211 122.409 40.0877 122.506C39.8153 122.602 39.6013 122.814 39.3678 122.987C39.5818 123.18 39.7764 123.449 40.0488 123.545C40.399 123.642 40.8076 123.603 41.0799 123.622Z" fill="#192C32"/>
<path d="M35.3575 67.6965C36.0789 68.3319 36.5893 69.0756 36.8887 69.9278C37.0632 70.2932 37.1879 70.6706 37.2631 71.0598C37.363 71.4249 37.4381 71.802 37.4884 72.1912C37.539 72.7991 37.5647 73.4069 37.5656 74.0146C37.5914 74.5981 37.5923 75.1936 37.5683 75.8012C37.4958 77.0891 37.4728 78.3408 37.4995 79.5563C37.5262 80.7718 37.4908 82.0113 37.3933 83.2749L37.2833 84.4776C37.2349 85.3281 37.0996 86.1904 36.8773 87.0644C36.655 87.9141 36.3208 88.6904 35.8747 89.3932C35.4533 89.9746 34.895 90.446 34.1999 90.8073C33.5297 91.1445 32.8096 91.4085 32.0398 91.5994C31.3445 91.7906 30.6366 91.9088 29.9162 91.954C29.2207 91.9994 28.5127 91.9961 27.7921 91.9441C27.2704 91.893 26.761 91.8177 26.2639 91.7182C25.7918 91.643 25.332 91.5072 24.8845 91.3106C24.4619 91.1142 24.0765 90.8693 23.7282 90.576C23.3799 90.2584 23.0936 89.856 22.8693 89.3688C22.5206 88.7595 22.2836 88.1142 22.1584 87.433C22.0579 86.7276 21.9947 86.0224 21.9688 85.3174C21.8914 83.4211 21.8016 81.5247 21.6994 79.6282C21.622 77.7076 21.6439 75.7874 21.7652 73.8677C21.7884 72.774 21.9234 71.6808 22.1702 70.5881C22.4417 69.4713 22.962 68.4893 23.7308 67.6421C23.9789 67.4002 24.2643 67.1828 24.5869 66.9898C25.4062 66.6047 26.2877 66.3293 27.2315 66.1636C28.2001 65.9737 29.1564 65.9052 30.1005 65.9582C31.0695 66.0114 32.0014 66.1859 32.8962 66.4818C33.8158 66.7535 34.6362 67.1584 35.3575 67.6965ZM32.9174 80.5558L32.9148 78.8057L32.8365 76.326C32.8365 76.3016 32.8113 76.0585 32.7609 75.5964C32.7353 75.1101 32.7098 74.6603 32.6843 74.247C32.6336 73.5661 32.4339 72.9454 32.0853 72.3847C31.7615 71.8241 31.3137 71.4088 30.7419 71.1387C30.2447 70.9419 29.7354 70.9031 29.2138 71.0222C28.6923 71.1413 28.233 71.3457 27.836 71.6356C26.9674 72.2878 26.3849 73.1237 26.0883 74.1432C25.891 75.0659 25.7682 76.0377 25.7201 77.0583C25.6968 78.0791 25.7107 79.1001 25.762 80.1212C25.8875 80.9726 25.9758 81.8481 26.0268 82.7477C26.0778 83.623 26.2281 84.4623 26.4778 85.2656C26.727 85.7529 27.0877 86.1314 27.5602 86.4009C28.0326 86.6705 28.5421 86.8309 29.0888 86.8821C29.6353 86.909 30.1818 86.8386 30.7281 86.671C31.2743 86.4791 31.7335 86.1774 32.1055 85.7659C32.3287 85.4753 32.4898 85.2451 32.5889 85.0754C32.688 84.8814 32.7498 84.6751 32.7743 84.4564C32.7988 84.2378 32.7984 83.9826 32.7731 83.6908C32.7727 83.3748 32.7969 82.9617 32.8458 82.4514C32.8699 81.9654 32.8817 81.5401 32.8811 81.1755C32.9054 80.811 32.9175 80.6044 32.9174 80.5558Z" fill="#192C32"/>
<path d="M33.5036 70.1111C34.0099 70.6176 34.3682 71.2106 34.5784 71.8902C34.7009 72.1816 34.7885 72.4826 34.8413 72.7931C34.9114 73.0842 34.9642 73.385 34.9995 73.6954C35.0351 74.1803 35.0533 74.6651 35.054 75.1498C35.0722 75.6152 35.0729 76.0903 35.0562 76.5749C35.0054 77.6023 34.9895 78.6007 35.0084 79.5703C35.0273 80.5398 35.0027 81.5285 34.9344 82.5364L34.8574 83.4958C34.8236 84.1743 34.7288 84.8621 34.5729 85.5594C34.417 86.2373 34.1826 86.8567 33.8697 87.4175C33.574 87.8814 33.1824 88.2577 32.6947 88.5462C32.2244 88.8155 31.7191 89.0264 31.1789 89.179C30.691 89.3318 30.1943 89.4264 29.6888 89.4628C29.2008 89.4993 28.7039 89.497 28.1983 89.4558C27.8322 89.4153 27.4747 89.3555 27.1259 89.2763C26.7946 89.2166 26.4719 89.1084 26.1579 88.9519C25.8613 88.7954 25.5908 88.6002 25.3464 88.3664C25.1019 88.1132 24.9009 87.7923 24.7435 87.4038C24.4987 86.918 24.3323 86.4034 24.2443 85.8601C24.1737 85.2975 24.1293 84.735 24.111 84.1726C24.0564 82.66 23.9931 81.1474 23.9211 79.6347C23.8665 78.1027 23.8816 76.5711 23.9664 75.0397C23.9826 74.1673 24.0771 73.2953 24.2501 72.4236C24.4405 71.5326 24.8055 70.749 25.3449 70.0729C25.5189 69.8799 25.7191 69.7063 25.9455 69.5522C26.5203 69.2447 27.1389 69.0246 27.8011 68.892C28.4808 68.7401 29.1519 68.6851 29.8144 68.7269C30.4944 68.7689 31.1483 68.9077 31.7763 69.1433C32.4216 69.3596 32.9974 69.6822 33.5036 70.1111Z" fill="#DFE7EB"/>
<path d="M22.1365 74.845C21.7497 71.4595 24.5092 68.194 27.6272 67.934C30.8015 67.6281 33.8736 70.3704 34.0583 73.7544C34.3805 77.0503 31.886 80.2187 28.8111 80.5385C25.6105 81.0556 22.3958 78.2395 22.1365 74.845Z" fill="#192C32"/>
<path d="M24.026 75.1107C23.7054 73.4276 24.9444 71.3998 26.7082 71.6478C28.6937 71.7391 29.7023 74.5932 28.4663 76.1917C27.2519 77.8201 24.3122 77.2724 24.026 75.1107Z" fill="#DFE7EB"/>
<path d="M51.3172 62.4638C52.232 62.833 52.9824 63.3794 53.5682 64.1033C53.8637 64.3979 54.1156 64.7211 54.3241 65.0728C54.5479 65.3926 54.7521 65.7326 54.9367 66.0927C55.1982 66.6649 55.4359 67.2454 55.6497 67.8343C55.8789 68.3913 56.0884 68.9685 56.2783 69.5658C56.6599 70.8395 57.0765 72.0611 57.528 73.2306C57.9795 74.4001 58.3798 75.6141 58.729 76.8726L59.0449 78.0765C59.2964 78.9177 59.4687 79.8002 59.5617 80.7238C59.6461 81.6238 59.5974 82.4909 59.4156 83.3251C59.2149 84.0331 58.8444 84.6813 58.3041 85.2696C57.7791 85.826 57.1807 86.3284 56.5088 86.777C55.9087 87.2004 55.2709 87.5574 54.5955 87.8478C53.944 88.1299 53.2634 88.369 52.5539 88.5653C52.0353 88.6944 51.5201 88.7957 51.0083 88.8693C50.529 88.9581 50.0402 88.9837 49.542 88.9463C49.0676 88.9005 48.612 88.795 48.175 88.6298C47.7296 88.441 47.3138 88.1488 46.9279 87.7532C46.3798 87.2817 45.9263 86.7372 45.5674 86.1195C45.2239 85.4699 44.9162 84.8078 44.6443 84.133C43.9056 82.3207 43.155 80.5126 42.3924 78.7087C41.6451 76.8728 40.9934 75.0034 40.4372 73.1004C40.0762 72.0319 39.8227 70.9257 39.6766 69.7817C39.5459 68.6058 39.701 67.4755 40.1419 66.3909C40.2952 66.0714 40.4928 65.7629 40.7348 65.4653C41.386 64.8115 42.1353 64.2427 42.9829 63.7589C43.8457 63.2432 44.7394 62.8495 45.6639 62.5777C46.6123 62.2976 47.5676 62.1478 48.5298 62.1285C49.5074 62.0771 50.4365 62.1889 51.3172 62.4638ZM53.4815 75.7681L52.8658 74.072L51.9218 71.6943C51.9133 71.6708 51.8039 71.4436 51.5936 71.0128C51.3987 70.55 51.2166 70.1226 51.0473 69.7305C50.7601 69.0877 50.351 68.5541 49.82 68.1298C49.3129 67.6971 48.7377 67.4476 48.0944 67.3815C47.5484 67.3608 47.0461 67.4975 46.5874 67.7915C46.1287 68.0855 45.7596 68.441 45.4802 68.858C44.8753 69.7877 44.6092 70.7976 44.6819 71.8877C44.8158 72.85 45.0385 73.8343 45.35 74.8405C45.6853 75.8383 46.0564 76.8235 46.4633 77.7961C46.8821 78.5786 47.2735 79.3973 47.6377 80.2522C47.9933 81.0835 48.4317 81.8458 48.9527 82.5393C49.3625 82.9266 49.8413 83.17 50.3891 83.2697C50.9368 83.3694 51.4819 83.3505 52.0244 83.213C52.5583 83.052 53.0579 82.7967 53.5234 82.4472C53.9803 82.0741 54.3152 81.6244 54.528 81.0981C54.6403 80.7399 54.7142 80.4616 54.7499 80.2631C54.777 80.0411 54.764 79.8199 54.7109 79.5994C54.6578 79.379 54.568 79.1317 54.4415 78.8574C54.3303 78.5511 54.2088 78.1423 54.077 77.6308C53.9298 77.1513 53.7921 76.7348 53.6638 76.3814C53.5594 76.0197 53.4986 75.8153 53.4815 75.7681Z" fill="#192C32"/>
<path d="M50.3852 65.444C51.0482 65.7616 51.5996 66.2138 52.0392 66.8006C52.2587 67.0411 52.4482 67.3028 52.6075 67.5857C52.7768 67.8439 52.9327 68.1174 53.0753 68.4061C53.2792 68.8639 53.4664 69.3276 53.6369 69.7972C53.8173 70.2421 53.9843 70.7023 54.138 71.1777C54.4491 72.1909 54.7834 73.1641 55.1411 74.0973C55.4987 75.0306 55.8213 75.9974 56.1088 76.9976L56.3709 77.9539C56.5761 78.623 56.726 79.3222 56.8207 80.0514C56.9085 80.7618 56.9006 81.4423 56.7968 82.093C56.6756 82.6439 56.4317 83.1426 56.0649 83.5892C55.7081 84.0111 55.2973 84.3884 54.8326 84.7212C54.4181 85.0363 53.9748 85.298 53.5027 85.5063C53.0473 85.7087 52.5699 85.8765 52.0705 86.0096C51.7051 86.0957 51.3412 86.16 50.9789 86.2027C50.6402 86.2582 50.2928 86.2638 49.9368 86.2195C49.5975 86.1693 49.2697 86.0727 48.9533 85.9297C48.6302 85.768 48.3251 85.5258 48.038 85.2031C47.633 84.8159 47.2932 84.3741 47.0185 83.8776C46.7538 83.3565 46.5142 82.8265 46.2998 82.2877C45.7177 80.8403 45.1273 79.3958 44.5285 77.9543C43.9396 76.4881 43.4178 74.9984 42.9629 73.4851C42.6729 72.6339 42.4582 71.7563 42.3189 70.8522C42.1895 69.9235 42.2652 69.0391 42.5458 68.1992C42.6452 67.9525 42.7764 67.7158 42.9397 67.489C43.3833 66.9942 43.8996 66.5692 44.4884 66.214C45.0871 65.8341 45.7116 65.5511 46.3618 65.365C47.0287 65.1729 47.7045 65.0836 48.3894 65.0971C49.0842 65.0859 49.7494 65.2015 50.3852 65.444Z" fill="#DFE7EB"/>
<path d="M41.0397 73.1717C39.8213 70.0378 41.7521 66.2123 44.7794 65.165C47.8512 64.0595 51.5733 65.891 52.5909 69.0752C53.723 72.14 52.0311 75.8049 49.0613 76.8983C46.0155 78.2123 42.1339 76.3468 41.0397 73.1717Z" fill="#192C32"/>
<path d="M43.0092 72.935C42.2759 71.4096 43.0044 69.1553 44.8147 68.9401C46.8064 68.5183 48.5109 70.9857 47.6795 72.8292C46.8769 74.6958 43.8264 74.9262 43.0092 72.935Z" fill="#DFE7EB"/>
<path d="M45.1241 55.8702C45.2468 55.9205 45.3513 55.9662 45.4376 56.0072L46.4735 56.5C46.6461 56.5821 46.8096 56.6619 46.9641 56.7394C47.1367 56.8215 47.3094 56.9036 47.482 56.9858C47.4223 57.0662 47.3506 57.268 47.2668 57.591C47.2059 57.9007 47.0988 58.3134 46.9457 58.8292C46.9 58.8559 46.7908 58.8281 46.6182 58.746C46.4502 58.6459 46.239 58.5253 45.9847 58.3842C45.7486 58.2477 45.492 58.1155 45.2148 57.9877C44.9423 57.842 44.6834 57.7188 44.438 57.6182L44.0007 58.8556C43.9914 58.8915 43.9753 58.9161 43.9524 58.9294C43.9342 58.9248 43.8978 58.9155 43.8433 58.9017C43.7887 58.8878 43.6613 58.8554 43.4612 58.8046C43.2657 58.7358 42.9678 58.6505 42.5675 58.5488C42.1537 58.4246 41.5784 58.2497 40.8418 58.0243L40.8145 58.0173L40.8215 57.9904C40.7969 57.4869 40.8885 56.9841 41.0963 56.4822C41.2905 55.9577 41.4873 55.3861 41.6866 54.7672L41.6935 54.7403L44.8042 55.6454L44.7902 55.6993C44.8084 55.7039 44.8243 55.7175 44.8378 55.7401C44.8378 55.7401 44.8469 55.7424 44.8651 55.747C44.9379 55.7655 45.0242 55.8066 45.1241 55.8702Z" fill="#192C32"/>
<path d="M27.697 58.6877C27.5809 58.751 27.4824 58.8077 27.4015 58.8578L26.4298 59.4594C26.2678 59.5597 26.1147 59.6567 25.9703 59.7504C25.8083 59.8507 25.6464 59.951 25.4844 60.0512C25.553 60.1251 25.6477 60.3184 25.7685 60.6314C25.865 60.9335 26.0192 61.3334 26.2313 61.831C26.2798 61.8527 26.385 61.8134 26.5469 61.7131C26.7022 61.5954 26.8979 61.4527 27.1341 61.2849C27.3528 61.1237 27.5924 60.9646 27.8528 60.8076C28.1065 60.6333 28.3495 60.4829 28.5816 60.3564L29.1597 61.5428C29.1731 61.5775 29.1919 61.6003 29.2162 61.6112C29.2337 61.6046 29.2688 61.5915 29.3214 61.5719C29.374 61.5522 29.4967 61.5064 29.6896 61.4343C29.8758 61.3449 30.1618 61.2281 30.5476 61.084C30.9442 60.916 31.4953 60.6803 32.2009 60.377L32.2272 60.3672L32.2171 60.3411C32.183 59.8367 32.0336 59.3454 31.7689 58.8675C31.5151 58.3656 31.2533 57.8169 30.9834 57.2215L30.9733 57.1954L27.9886 58.4296L28.0088 58.4818C27.9912 58.4883 27.977 58.5036 27.9662 58.5275C27.9662 58.5275 27.9574 58.5308 27.9399 58.5373C27.8698 58.5635 27.7888 58.6137 27.697 58.6877Z" fill="#192C32"/>
</svg>
