<svg width="170" height="247" viewBox="0 0 170 247" fill="none" xmlns="http://www.w3.org/2000/svg">
<path d="M151.858 190.304C151.355 189.609 150.198 185.336 149.474 185.777C145.832 187.196 142.213 189.023 138.172 188.615C133.364 188.276 128.841 185.332 124.014 187.144C118.696 188.793 113.038 191.22 110.449 196.511C109.403 198.618 107.81 200.234 105.974 201.643C105.345 202.127 105.357 202.122 105.68 202.838C106.985 205.71 108.456 208.496 109.859 211.319C110.614 212.322 111.432 215.588 112.707 215.546C125.764 216.863 136.758 212.554 143.918 201.304C152.714 192.719 155.462 198.927 151.858 190.304Z" fill="#192C32"/>
<path d="M146.417 177.867C140.782 166.162 134.014 154.7 124.515 145.663C124.171 145.289 124.184 145.318 123.85 145.71C121.159 148.826 121.541 153.264 122.473 157.033C123.009 158.611 119.741 160.088 119.984 164.495C119.978 166.661 118.052 168.074 117.673 170.154C117.42 171.331 117.915 172.75 116.77 173.592C115.118 174.83 110.656 177.163 108.911 175.358C107.649 174.009 105.827 173.737 104.125 173.39C102.773 173.219 102.158 172.106 101.364 171.191C99.2144 169.759 97.189 167.919 94.4567 167.984C93.3988 167.671 95.2181 174.252 95.2304 175.088C96.1598 180.145 98.5477 184.713 100.03 189.594C101.325 193.298 102.796 196.925 104.517 200.452C104.833 201.362 105.903 199.747 106.409 199.591C107.858 198.144 108.327 195.997 109.32 194.238C111.736 188.95 117.203 186.289 122.492 184.737C132.597 182.508 136.708 190.51 148.588 183.533C148.847 183.42 148.806 183.261 148.71 183.055C147.951 181.397 147.315 179.685 146.417 177.867ZM107.66 186.619C107.325 185.442 103.258 175.229 104.806 175.529C108.358 177.57 109.388 180.71 114.216 178.77C117.689 177.558 120.381 175.106 120.609 171.239C121.815 167.839 123.448 168.851 123.263 163.982C123.262 162.702 123.841 161.716 124.735 160.842C126.646 158.7 125.113 155.835 125.086 153.35C130.652 159.463 134.35 167.077 138.163 174.373C138.535 175.492 143.132 183.05 141.765 183.139C134.749 185.318 127.575 179.702 120.681 182.762C116.607 184.524 111.817 185.648 109.221 189.55C108.93 190.411 107.947 186.912 107.66 186.619Z" fill="#192C32"/>
<path d="M104.001 106.192C108.948 103.847 112.393 104.153 104.7 101.831C104.266 101.764 104.232 101.361 104.091 101.019C103.553 100.227 104.809 100.207 104.831 99.5469C103.949 98.8323 102.34 99.1676 101.424 98.3757C99.7896 96.8907 97.2133 97.3968 95.1697 96.9372C94.6884 96.8908 94.6976 96.8798 94.7336 96.3975C94.5667 94.5252 93.7625 92.7305 93.1735 90.9487C92.7182 89.7668 92.1213 89.3886 90.7828 89.4443C90.0668 89.5984 89.9347 89.5353 90.0622 88.7801C89.8209 83.7791 84.0691 85.6517 81.1019 86.8857C78.2413 88.1724 74.4012 89.0202 72.8368 91.995C71.861 94.1495 74.5048 95.0919 73.1748 96.1692C72.4714 96.8695 71.9597 97.706 72.4577 98.728C76.5978 108.704 76.2433 100.145 79.7805 108.953C79.8957 109.236 79.7964 109.378 79.5786 109.472C77.3321 110.288 77.8286 111.565 77.3553 113.573C76.9479 115.475 79.5048 112.969 79.1373 113.913C78.717 115.106 78.7228 115.103 77.4597 114.978C76.6863 114.902 75.9106 114.87 75.1379 114.78C74.0492 114.621 72.1739 117.766 71.6232 118.69C71.5092 118.895 71.5541 119.031 71.759 119.133C73.9573 120.29 76.2228 121.311 78.456 122.403C78.973 122.483 79.2918 123.236 79.7877 123.107C80.2369 122.255 79.1873 121.04 80.0861 120.178C80.3392 119.955 79.9754 120.826 80.7628 120.627C86.2192 119.865 83.9124 118.636 87.1392 126.015C95.3797 144.195 86.3696 149.294 100.464 146.224C106.227 144.813 112.232 142.605 116.107 137.881C116.43 137.48 116.415 137.493 116.06 137.109C107.309 128.93 102.062 117.962 97.1758 107.214C97.4473 107.195 98.3753 107.515 98.3441 107.847C98.1217 109.11 103.118 106.234 104.001 106.192ZM106.277 141.73C103.186 142.968 100.729 143.734 98.1842 144.184C95.7757 144.335 95.9702 140.842 95.1936 139.241C93.2615 131.365 89.7244 123.801 88.2467 115.877C88.2956 115.085 88.0604 114.671 87.2468 114.422C86.0727 114.13 86.3004 113.784 86.5652 112.765C86.7777 111.754 89.9005 112.56 89.514 111.214C89.3122 110.085 90.6559 110.041 90.9049 109.162C91.2024 108.235 92.3165 108.064 93.0127 108.753C93.7852 109.925 94.5101 107.836 95.0185 109.335C97.7746 116.062 101.184 122.571 105.343 128.536C110.021 136.992 117.316 136.764 106.277 141.73ZM83.2429 94.6147C82.3482 95.2279 80.322 95.3902 79.7923 96.2981C79.8122 96.9259 80.2222 97.2435 80.8156 97.0646C84.2483 95.9051 87.7532 94.6862 90.5838 92.3446C90.9049 92.0855 90.9167 92.0804 91.0548 92.4804C91.3412 93.8697 92.3978 95.3431 92.2067 96.7268C91.8664 97.2488 91.7347 97.8007 91.9015 98.4286C91.9693 98.6822 92.0653 99.0012 91.9211 99.2333C91.5014 99.8462 91.3772 100.706 90.8978 101.246C89.5725 101.494 91.5541 103.232 90.0816 103.204C88.1842 103.325 86.3604 103.922 84.5071 104.194C83.6885 104.272 83.6574 105.509 83.2078 106.085C82.9603 106.821 82.3138 104.018 81.9973 103.787C81.8302 103.449 81.885 103.334 82.2165 103.212C82.739 103.127 88.8449 100.232 85.8054 100.62C84.0176 100.849 77.8464 102.705 77.0069 100.812C76.6211 99.4516 75.2797 98.1438 75.8576 96.6847C76.0183 96.1839 76.4672 96.1877 76.8528 96.0775C79.0853 95.423 81.3017 94.7472 83.3955 93.7072C85.0924 93.1713 87.2195 91.0774 88.8749 91.3019C88.0197 92.8951 84.9398 93.7393 83.2429 94.6147ZM103.422 104.788C102.716 104.853 98.3035 107.058 98.5222 105.981C98.8338 105.457 100.045 104.898 99.7638 104.263C98.9189 103.553 97.5703 105.395 96.7734 105.783C96.3224 106.162 96.1272 104.902 95.9579 104.608C95.7236 103.097 93.9057 106.245 93.44 106.574C92.9139 107.409 92.2221 106.521 91.5256 106.801C90.8817 106.895 89.6713 107.603 89.1881 107.083C89.1439 106.933 89.2915 106.919 89.3772 106.874C92.4835 105.623 91.405 107.249 92.1823 103.618C92.2171 102.761 96.0876 103.47 96.5279 103.018C96.2898 102.435 94.7952 102.162 94.2083 101.758C93.7719 101.622 93.4051 102.099 92.9643 101.823C92.9161 101.808 92.7998 101.717 92.8866 101.708C93.2398 101.668 93.3638 101.212 93.7641 101.265C94.0566 101.23 95.0758 101.454 95.131 101.161C95.058 100.67 94.0411 100.855 93.832 100.436C93.5762 99.861 93.249 99.1044 93.6835 98.5418C93.7751 98.2688 93.9333 98.2145 94.2199 98.2956C96.6179 98.9767 99.0324 99.6153 101.43 100.296C101.809 100.429 99.5765 101.487 99.4234 101.327C98.5543 101.095 100.052 103.686 100.142 104.12C100.2 104.237 100.209 104.452 100.411 104.386C100.749 104.021 100.187 103.238 100.36 102.718C100.315 102.242 100.991 102.205 101.241 101.877C101.969 101.541 101.253 103.958 102.221 103.094C103.044 102.526 104.421 103.592 105.374 103.71C105.958 103.931 103.648 104.584 103.422 104.788ZM84.9844 109.708C84.8055 109.262 84.7124 109.224 84.4332 109.451C82.6401 110.863 80.5238 112.175 78.5794 113.221C78.8561 110.209 81.3484 109.315 83.6743 107.955C84.7151 107.583 84.6072 106.477 84.692 105.542C85.253 104.642 88.9209 104.236 90.1388 103.724C90.2322 103.697 90.4625 103.584 90.4059 103.792C90.3697 105.356 88.5959 105.763 87.6729 106.763C86.3105 107.685 90.1391 108.539 89.2024 109.298C88.8518 109.57 88.4497 109.835 88.534 110.386C88.7991 111.289 85.5353 110.481 84.8797 110.694C84.1854 110.704 85.4661 110.143 84.9844 109.708ZM80.0272 117.763C76.3649 119.135 81.3979 118.493 76.7124 119.777C75.5953 119.779 74.5646 118.931 73.4905 118.597C72.724 118.44 72.7487 118.126 73.3921 117.755C73.8785 117.361 74.42 117.014 74.6201 116.362C75.2102 115.739 78.5998 116.79 79.6621 116.79C79.8707 116.82 80.0848 116.911 80.2931 116.779C81.3854 116.073 82.5735 115.976 83.8157 116.231C84.0626 116.188 84.4773 116.468 84.5681 116.096C84.5021 115.411 80.6748 115.044 80.0569 114.682C81.1613 113.681 82.4824 112.211 84.0781 112.136C84.7191 112.099 83.7325 113.276 83.6895 113.613C83.6313 113.737 83.5559 113.805 83.3981 113.795C83.0621 113.778 82.7792 113.964 82.4772 114.073C81.564 114.369 84.1985 114.87 84.4314 114.876C85.4296 114.889 85.861 115.693 85.9185 116.488C85.6102 116.777 85.4936 117.315 84.9237 117.258C83.4851 117.696 85.9052 118.396 82.0426 119.063C81.742 119.143 81.7453 119.021 81.8144 118.794C82.6901 115.89 81.954 116.951 80.0272 117.763ZM83.4379 92.0766C82.1222 92.3629 76.6374 95.1595 76.0161 94.014C75.8785 93.7765 75.9314 93.6405 76.1934 93.5837C78.6029 92.789 88.0578 89.5905 88.2399 87.0227C88.2407 86.8951 88.4151 86.8621 88.443 86.9914C89.6213 90.0386 85.4401 91.0833 83.4379 92.0766ZM82.5383 89.609C81.9644 90.0269 72.1623 93.602 75.5326 91.4583C79.1485 89.7529 83.0763 87.5732 86.9757 87.0887C85.9486 88.3815 84.017 88.8917 82.5383 89.609ZM77.7489 120.396C77.9645 120.346 78.4399 120.055 78.6224 120.202C78.7255 120.78 78.1456 120.861 77.7489 120.396Z" fill="#192C32"/>
<path d="M111.948 170.528C116.826 168.623 114.227 166.622 116.474 163.755C117.611 162.521 118.025 161.104 118.083 159.445C118.163 155.493 120.906 155.778 120.213 153.383C119.434 149.789 119.804 146.298 121.142 142.912C121.487 142.014 119.349 140.69 118.851 139.845C118.38 139.37 118.374 139.372 117.957 139.863C111.843 147.295 102.054 150.207 92.7918 151.088C92.4054 151.099 92.4662 151.32 92.4831 151.553C92.7567 155.692 93.1779 159.816 93.6075 163.944C93.6731 164.58 93.8096 164.782 94.4333 164.916C96.205 165.344 98.1883 165.632 99.6109 166.869C101.545 168.416 104.218 168.214 106.05 169.996C107.689 171.522 110.073 171.282 111.948 170.528Z" fill="#192C32"/>
<path d="M140.323 225.307C155.454 220.289 161.066 212.502 154.294 196.749C154.348 195.453 148.004 199.816 147.099 200.066C141.199 203.665 139.508 211.015 132.534 213.473C127.888 215.8 122.962 217.401 117.695 216.921C116.888 216.719 112.963 216.45 113.183 217.459C115.923 222.63 120.297 228.559 126.472 229.233C131.606 229.791 135.404 226.989 140.323 225.307ZM148.47 202.203C153.768 221.415 146.997 206.779 129.686 219.86C129.225 220.136 128.653 219.783 128.156 219.814C127.633 220.04 123.349 218.457 124.384 218.313C139.911 215.147 138.326 209.801 148.099 202.137C148.233 202.058 148.424 201.855 148.47 202.203ZM139.15 220.285C136.596 221.311 133.636 222.804 130.908 222.555C131.505 220.834 134.87 219.519 136.351 218.306C139.122 216.457 142.278 216.273 145.468 216.201C147.577 216.633 139.766 219.997 139.15 220.285Z" fill="#192C32"/>
<path d="M67.3844 52.4628C66.3909 49.5196 60.766 47.9856 63.1814 44.4094C64.4742 40.8874 59.6897 37.4838 56.891 36.2477C52.7967 34.9568 48.3994 37.4245 46.1507 40.8366C45.9697 41.1129 45.824 41.0345 45.6183 40.9467C41.0659 39.2105 39.4192 46.1311 44.406 46.2865C44.711 46.2324 44.6522 46.4841 44.6728 46.6449C47.29 57.1873 49.4394 46.259 53.1859 59.5092C53.3828 59.7705 53.2216 59.9957 52.9405 59.7496C50.2609 58.3206 41.6418 55.034 39.1223 56.2369C39.2262 56.9133 40.3112 56.8046 40.8153 57.0815C43.1467 57.7702 45.4424 58.538 47.6829 59.4851C51.3946 61.0547 54.8064 63.1428 58.0042 65.5922C58.8936 66.2753 60.0502 67.366 61.1642 66.5165C62.6247 64.7393 66.6594 69.1884 65.8507 66.9148C64.6044 65.6649 62.9884 63.3021 60.9924 64.229C60.4976 64.5067 60.0115 64.3846 59.5729 64.0652C58.5565 63.2179 57.2543 62.5013 56.3391 61.6455C59.239 60.5468 68.8045 56.3599 67.3844 52.4628ZM59.0055 58.5689C58.0025 58.932 57.04 59.4048 56.0849 59.5068C57.5763 57.8011 60.0244 56.6432 62.0078 55.3965C62.4908 55.237 62.2335 54.4644 61.7585 54.5779C59.9928 54.8255 58.3626 55.6932 56.8774 56.6538C56.5374 56.8857 56.246 56.842 56.0123 56.5118C52.8232 50.0917 52.8475 52.7329 57.5914 48.3687C57.7775 47.3125 56.4607 48.1295 56.027 48.3383C54.4265 48.7901 52.717 51.1064 51.0453 49.9556C49.3662 49.0626 56.9 45.2029 57.7042 44.6712C59.5917 41.684 50.2623 47.6284 49.8297 48.2115C49.3809 48.5471 49.3345 48.553 49.0482 48.0687C48.5494 46.8349 47.2004 45.6223 47.2907 44.2963C47.8696 42.8721 46.8677 42.9307 48.4626 41.7388C50.5081 40.0055 53.9807 37.5489 56.6614 39.0128C59.5114 40.8844 62.9142 44.4543 58.8345 47.0744C58.4732 47.2731 58.4814 47.7929 58.9266 47.869C59.5043 47.9444 60.1243 47.9237 60.5493 48.4541C65.5027 54.3161 67.8832 53.8098 59.0055 58.5689ZM43.7762 41.9061C44.3979 41.6796 45.798 42.0569 45.8331 42.7842C45.4752 43.9926 44.4651 43.0789 43.7943 42.7397C43.2144 42.7077 43.3291 42.0358 43.7762 41.9061Z" fill="#192C32"/>
<path d="M26.9108 69.3785C28.093 71.9501 30.9535 72.9898 33.3379 74.1081C35.9185 75.5022 36.0493 79.2781 39.7123 79.9919C43.549 81.7053 47.9027 80.1546 51.5956 82.3757C54.348 83.5046 56.7591 85.573 59.7211 86.0879C65.3103 84.922 55.5269 78.653 53.6786 77.6917C49.9217 75.9367 49.4158 70.9865 45.391 69.6302C42.5827 68.5821 39.4049 69.0868 36.7941 67.3805C34.081 65.5347 25.3366 63.7519 26.9108 69.3785ZM46.9767 73.781C48.0864 76.0234 42.3774 70.6438 39.4009 72.0019C36.303 72.8044 33.2047 71.5706 30.8128 69.5787C30.0136 68.991 30.4237 67.8873 31.416 68.0167C33.826 68.0633 35.3861 70.3937 37.646 70.7881C41.1706 70.8263 44.8649 70.0133 46.9767 73.781Z" fill="#192C32"/>
<path d="M64.4167 32.8172C63.9356 31.5757 63.2017 29.9274 62.8548 28.1399C62.8162 27.9375 62.7617 27.763 62.485 27.7696C60.6175 29.1713 62.4717 42.3277 66.5949 40.4382C67.3277 39.499 68.6413 39.8218 69.5657 40.3271C76.4549 45.1397 72.2013 55.9528 74.3614 55.3084C76.8822 55.3848 77.2466 58.9254 76.1717 60.7056C75.886 61.7413 74.3367 62.9417 75.7281 63.832C77.3295 64.8364 78.0896 67.0461 77.407 68.8122C77.0748 69.4013 76.3773 69.9859 77.0974 70.6007C79.9726 73.5645 81.6318 77.4006 83.223 81.1601C83.4383 81.5125 83.3434 82.2465 83.8865 82.2096C84.6378 81.7008 83.2581 77.4609 82.9824 76.4841C82.1729 74.1118 81.0048 71.9442 79.3293 70.0738C79.2093 69.9418 79.0507 69.8337 79.2762 69.6442C80.712 67.8423 79.9248 64.0674 78.0319 62.793C77.098 62.3626 79.5919 59.3394 79.0949 57.5603C78.8861 53.9594 75.7609 54.6182 75.9194 53.7082C77.5544 47.6977 76.688 38.5052 69.7851 36.3431C65.2237 35.8623 67.5967 39.4746 64.4167 32.8172Z" fill="#192C32"/>
<path d="M74.1713 84.4871C68.5474 72.7773 56.4504 66.2645 44.6154 62.5869C43.5322 62.6029 42.9745 63.2684 44.3407 63.7452C55.4993 68.6699 65.3273 76.1571 73.5849 85.1509C74.0935 85.7936 74.6769 85.0745 74.1713 84.4871Z" fill="#192C32"/>
<path d="M49.0612 12.2606C48.0935 12.6084 47.1183 13.8434 47.7517 14.9201C47.8691 15.1592 48.0325 15.23 48.2168 15.0583C48.8293 14.5035 49.5078 14.6343 50.2029 14.8357C52.5751 15.4572 52.1263 18.3454 53.1259 20.091C54.5034 22.3873 57.561 22.6063 59.1929 20.5145C59.3375 20.3317 59.4125 19.9882 59.7459 20.1127C61.2143 22.3767 56.8516 22.6302 58.7192 27.2389C59.0803 27.896 59.1718 29.61 60.06 29.5794C60.2281 29.4996 60.1567 29.3184 60.1203 29.1856C59.6895 27.1233 59.4374 24.4888 61.5698 23.3119C64.8241 22.3215 62.912 15.0733 59.7897 17.6613C59.0499 18.6813 58.6494 19.9364 57.525 20.649C56.0184 21.3501 54.546 19.3353 54.5671 17.8978C55.0549 14.2432 53.2529 10.384 49.0612 12.2606Z" fill="#192C32"/>
<path d="M89.072 81.098C92.2408 79.4092 89.3063 75.7428 92.3897 73.9212C93.4511 73.1439 94.5019 72.2935 94.9586 71.0069C96.3048 67.6245 90.2678 63.8292 88.8022 67.9209C88.0489 69.4913 89.8697 71.1645 88.9305 72.596C87.5455 74.1921 86.9736 76.1012 86.9161 78.1979C86.9093 79.41 87.4182 81.8628 89.072 81.098ZM93.1701 68.4712C93.4163 69.2345 93.6774 70.3873 92.8363 70.8501C92.5483 71.0242 92.3466 70.9134 92.312 70.5748C92.242 69.799 92.8681 69.1463 92.6553 68.3474C92.3991 67.6097 93.0641 68.0646 93.1701 68.4712Z" fill="#192C32"/>
<path d="M11.3681 54.5777C10.8262 54.7626 10.3019 55.1662 10.0695 55.8889C8.54407 58.8893 22.0422 57.8169 24.0023 58.3904C29.0831 57.8262 15.68 51.9773 11.3681 54.5777Z" fill="#192C32"/>
<path d="M77.4618 42.8581C77.905 44.3352 80.3362 45.7232 80.5581 43.3927C81.1287 40.2043 84.7178 36.7569 81.804 33.7038C80.3791 32.1705 78.6762 33.6778 78.1859 35.2263C77.4254 37.62 76.4964 40.3836 77.4618 42.8581ZM80.983 35.2469C82.8319 35.2886 80.8137 37.2788 80.7336 38.1761C80.7049 38.2875 80.6825 38.4457 80.5188 38.4387C79.6938 38.244 80.4897 35.6087 80.983 35.2469ZM80.4254 39.2569C80.7081 39.9266 79.9296 40.5179 79.6153 39.7912C79.2977 39.073 80.0556 38.5472 80.4254 39.2569Z" fill="#192C32"/>
<path d="M106.247 147.161C108.158 146.78 119.082 139.644 117.177 138.212C117.001 137.999 116.884 138.035 116.723 138.246C110.825 144.998 101.443 148.171 92.6245 148.075C92.1804 148.034 92.2986 148.372 92.3067 148.665C92.3646 149.736 92.3657 149.771 93.4081 149.709C97.6894 149.413 102.325 148.935 106.247 147.161Z" fill="#192C32"/>
<path d="M36.6605 44.0608C41.011 41.2103 34.9534 37.7068 31.8415 38.7841C29.9474 39.1225 28.1077 41.9618 30.1975 43.2712C32.1816 44.4495 34.4614 44.9059 36.6605 44.0608Z" fill="#192C32"/>
<path d="M52.5486 73.1543C57.5902 76.0861 62.9846 78.7027 67.4505 82.5977C68.3811 83.1498 71.247 86.2377 71.9534 85.9322C72.0697 85.797 72.0332 85.6643 71.9243 85.5417C67.1181 79.3897 61.0904 73.9358 53.2442 72.4362C52.735 72.2605 52.2184 72.4557 52.5486 73.1543Z" fill="#192C32"/>
<path d="M12.2696 48.5307C11.1791 48.8044 10.3229 51.1546 12.033 51.1503C13.854 51.0628 15.6757 51.187 17.4889 51.3078C22.0279 51.6074 26.515 52.4172 31.0183 53.0221C31.2214 52.9908 31.5401 53.1783 31.5989 52.9265C31.6717 52.6263 31.3218 52.5443 31.101 52.4701C28.766 51.6275 26.3956 50.9132 23.9973 50.2959C21.0731 49.5454 18.1295 48.8953 15.1396 48.4773C14.2145 48.439 13.1224 48.0628 12.2696 48.5307Z" fill="#192C32"/>
<path d="M57.6352 92.8412C59.232 92.1222 64.3993 91.6126 60.2596 89.6837C57.4194 88.7555 51.7507 87.6859 49.963 90.6936C49.4967 92.9601 52.5564 91.7781 53.5768 92.8287C54.8136 93.8141 56.3438 93.5553 57.6352 92.8412ZM52.1882 89.9575C52.8103 89.7803 54.7239 89.2284 55.0526 89.8428C54.9691 90.5224 52.6349 90.4572 51.9786 90.9108C51.2549 91.047 51.7028 89.934 52.1882 89.9575Z" fill="#192C32"/>
<path d="M47.9677 26.2283C47.7377 25.9389 47.5253 24.7368 46.8943 24.9744C46.6279 25.1178 46.6434 25.3798 46.7281 25.6402C47.2879 27.3709 48.2214 30.0784 46.0993 31.0529C44.262 32.088 42.8962 27.234 40.15 30.9179C39.0482 32.151 40.6496 37.4689 40.9658 35.8896C40.7892 33.979 42.1501 30.6467 44.3706 32.5007C49.7566 35.6795 49.6965 29.8859 47.9677 26.2283Z" fill="#192C32"/>
<path d="M79.3545 84.7669C78.4374 83.0988 71.7795 70.5493 69.953 72.9021C69.5222 73.2793 69.4564 73.8381 69.8498 74.3114C72.3198 77.0332 74.6037 79.9062 76.5075 83.0638C77.2141 83.7764 78.6838 87.2066 79.6848 86.5969C80.3533 86.1875 79.4525 85.3326 79.3545 84.7669Z" fill="#192C32"/>
<path d="M102.742 66.884C100.926 67.6129 99.8009 68.9694 99.2261 70.8232C98.8277 71.6955 99.0272 74.1761 100.443 73.3941C101.596 72.6339 101.657 70.8536 103.18 70.5625C104.184 70.298 105.337 70.6054 106.142 69.7836C106.633 69.352 106.738 68.8187 106.521 68.2052C105.969 66.4286 104.245 66.2058 102.742 66.884Z" fill="#192C32"/>
<path d="M22.1167 60.3742C19.5101 61.6502 20.6937 64.0798 23.4142 63.3416C24.7185 62.9966 29.8331 62.1067 30.3098 61.1085C29.7944 58.899 23.7717 59.7574 22.1167 60.3742Z" fill="#192C32"/>
<path d="M69.1495 93.5301C72.8341 91.3213 67.7352 88.9517 65.3775 89.5754C63.8208 89.7891 63.0627 91.8494 64.4993 92.812C65.9529 93.8945 67.6781 93.9898 69.1495 93.5301ZM66.0579 90.2923C66.4711 90.1489 66.877 90.2633 67.2898 90.41C67.5047 90.4868 67.5581 90.6263 67.5276 90.8305C67.344 91.4402 66.4057 90.9833 65.944 91.2891C65.3627 91.3991 65.6385 90.3889 66.0579 90.2923ZM68.4978 90.828C68.6443 91.1182 68.2709 91.7252 68.0556 91.2597C67.9434 90.9193 68.2969 90.3634 68.4978 90.828Z" fill="#192C32"/>
<path d="M79.4636 18.9272C77.5642 20.4488 78.7318 24.1016 81.3508 23.7749C85.2431 22.9187 83.0505 17.5101 79.4636 18.9272ZM81.6723 21.0125C81.2627 20.4047 82.1906 20.1589 82.481 20.6203C82.7593 21.3767 81.9443 21.8353 81.6723 21.0125Z" fill="#192C32"/>
<path d="M83.5126 65.3548C86.2583 63.948 84.74 59.7751 81.6196 60.849C78.9864 61.8536 80.5402 66.6899 83.5126 65.3548ZM83.2589 61.6178C83.894 61.5836 83.8661 62.4724 83.8349 62.9173C83.867 63.4761 83.0303 63.3996 83.1233 62.8715C83.2377 62.4897 83.0095 61.8813 83.2589 61.6178Z" fill="#192C32"/>
<path d="M52.7996 97.3692C53.5773 96.7923 54.9656 97.1748 55.9336 96.8763C56.9053 96.6186 56.9294 95.3495 55.9845 95.136C49.5923 92.6682 45.7598 99.9474 52.7996 97.3692ZM50.8049 96.9096C50.0588 97.3172 49.7528 96.2545 50.4935 96.0119C50.6995 95.9228 50.9519 95.7147 51.13 96.0619C51.296 96.3648 51.1353 96.7526 50.8049 96.9096ZM51.9534 95.4936C52.4556 95.2976 52.5352 95.9986 52.0745 96.113C51.5823 96.3966 51.5226 95.6446 51.9534 95.4936Z" fill="#192C32"/>
<path d="M77.3094 27.9349C74.4445 24.3162 72.5579 33.1863 76.6515 32.6177C77.9153 32.3893 77.4774 28.9371 77.3094 27.9349ZM75.972 30.9176C75.9598 30.4208 75.8022 29.2162 76.467 29.1054C76.8663 29.463 76.6155 30.3211 76.7443 30.8452C76.8257 31.3403 76.1307 31.3651 75.972 30.9176Z" fill="#192C32"/>
<path d="M69.8735 62.4124C66.9688 63.888 70.6054 68.2406 72.5761 65.4296C73.3886 63.77 71.7185 61.3952 69.8735 62.4124ZM70.9137 63.1858C71.3795 62.9702 71.7895 63.7404 71.2796 63.9185C70.837 64.1877 70.4395 63.398 70.9137 63.1858Z" fill="#192C32"/>
<path d="M34.2189 62.8639C36.0473 63.7631 38.2679 63.8562 40.1956 64.6134C40.5654 64.7575 43.8858 65.5841 42.5519 64.5842C41.5227 64.0465 34.1472 60.8726 34.2189 62.8639Z" fill="#192C32"/>
<path d="M62.0332 95.7383C65.2218 93.8854 61.0418 91.9598 60.1138 94.6452C59.6931 95.7888 61.2723 96.0957 62.0332 95.7383ZM60.9656 94.7081C60.7893 94.3813 61.3478 93.7013 61.6804 94.0665C61.898 94.4887 61.3395 94.8292 60.9656 94.7081Z" fill="#192C32"/>
<path d="M86.1646 60.8698C87.7738 60.2445 86.4228 58.2196 85.1465 58.8069C83.8614 59.5679 84.7749 61.4214 86.1646 60.8698ZM85.77 59.796C85.7387 59.6751 85.7044 59.499 85.9333 59.4142C86.7107 59.1274 86.1152 60.7073 85.77 59.796Z" fill="#192C32"/>
<path d="M78.6788 97.8633C79.4588 97.6956 78.967 96.3809 78.3239 96.5743C77.7569 96.7983 76.2796 96.6948 76.382 97.5132C76.5621 98.6727 77.948 97.9672 78.6788 97.8633Z" fill="#192C32"/>
<path d="M63.9268 54.4136C64.1593 54.2565 64.6719 54.1974 64.5533 53.8103C64.3082 53.195 63.5463 53.7438 63.1493 53.9084C62.9451 54.018 62.9955 54.2154 63.0677 54.3821C63.2035 54.8254 63.6443 54.5358 63.9268 54.4136Z" fill="#192C32"/>
</svg>
