<svg width="120" height="112" viewBox="0 0 120 112" fill="none" xmlns="http://www.w3.org/2000/svg">
<path fill-rule="evenodd" clip-rule="evenodd" d="M114.761 28.6726C113.443 28.0174 113.772 26.0519 113.608 24.7416C113.113 20.8106 112.949 15.733 110.972 12.7847C110.478 11.9658 109.325 11.9658 109.654 10.4916C109.819 10.4916 109.819 10.3278 109.983 10.3278C110.972 10.0002 111.466 11.1468 112.29 11.3106C114.596 14.5864 114.925 20.8106 115.42 25.5605C115.42 26.5433 116.079 28.1812 114.761 28.6726Z" fill="#192C32"/>
<path fill-rule="evenodd" clip-rule="evenodd" d="M117.23 16.0582C117.724 16.222 117.724 15.7306 118.054 16.0582C120.031 17.5323 120.195 22.6099 119.866 26.3771C119.701 27.3599 119.537 28.834 118.878 28.834C117.56 28.9978 118.219 27.1961 118.219 26.5409C118.383 24.903 118.548 21.4634 118.219 19.4979C117.889 18.3513 116.407 17.3686 117.23 16.0582Z" fill="#192C32"/>
<path fill-rule="evenodd" clip-rule="evenodd" d="M11.8028 92.5486C10.6497 92.7124 10.8144 91.7296 10.4849 91.2383C8.83758 89.7641 7.84918 87.6348 6.53131 85.8331C4.88397 83.7038 2.74243 82.721 0.765625 80.9193C0.930359 80.7555 0.930359 80.5917 0.930359 80.2641C1.75403 79.9366 3.5661 81.0831 4.88397 81.9021C7.02551 83.54 8.50812 86.3245 10.3202 88.6176C11.4733 89.7641 12.9559 91.5658 11.8028 92.5486Z" fill="#192C32"/>
<path fill-rule="evenodd" clip-rule="evenodd" d="M9.3309 94.1884C8.50723 97.3005 5.87149 93.2056 4.88309 91.8953C4.38889 91.2401 3.40048 90.9126 2.90628 90.2574C2.57682 89.9298 2.41208 89.2746 2.08261 89.1108C1.25894 88.2919 -0.717861 87.6367 0.270542 86.1626C0.435276 86.1626 0.764743 86.1626 0.764743 85.9988C4.05942 88.2919 5.87149 92.0591 9.3309 94.1884Z" fill="#192C32"/>
<path fill-rule="evenodd" clip-rule="evenodd" d="M103.23 50.1272C106.031 53.2393 108.337 57.6617 111.302 61.5927C111.961 62.4117 113.114 63.722 113.114 64.3772C113.114 66.5065 108.996 68.472 107.349 69.6185C104.878 71.2565 102.901 72.7306 100.759 74.0409C96.1468 76.9892 91.3696 79.6099 86.9217 82.0668C84.4507 83.3771 81.815 84.3599 79.5087 85.6702C77.0377 86.9805 74.8962 88.4547 72.5899 89.765C67.8126 92.5495 62.7059 94.515 58.2581 97.2995C56.9402 98.1184 55.6223 99.1012 54.3045 99.9202C50.845 101.886 48.2093 103.687 44.7499 105.98C42.7731 107.291 40.7963 108.274 39.3137 109.42C37.9958 110.403 37.1721 112.532 34.8659 111.877C33.3833 111.549 31.5712 107.127 30.9122 105.653C29.4296 103.196 28.1118 101.23 26.7939 99.5926C22.1814 93.5322 18.7219 87.3081 13.7799 81.7392C10.65 78.1357 7.35531 75.1875 4.22537 70.7651C3.73117 69.9461 2.9075 68.7996 2.08383 67.653C0.930691 66.0151 -0.551913 65.5237 0.271756 63.3944C0.601224 62.4117 2.24856 61.7565 3.56643 60.9375C4.8843 60.1186 5.70797 58.972 6.69637 58.3168C9.16738 56.1875 11.3089 54.8772 13.4505 53.5669C18.5572 50.4548 22.8403 47.3427 27.4528 44.5583C32.5596 41.4462 37.3369 38.8255 42.2789 36.2048C47.0562 33.5842 51.1745 29.6531 56.6107 27.5238C56.6107 24.4118 57.4344 21.4635 58.4228 19.0066C60.5643 13.9291 66.8242 8.36011 73.5783 7.70494C78.0261 7.37736 84.286 7.54115 87.2512 9.01528C87.2512 6.88598 86.757 4.75667 87.0865 2.79116C87.5807 -1.63124 92.5227 0.170483 95.3232 1.64462C101.748 4.92047 105.701 12.9463 106.196 22.1187C106.525 27.0325 107.678 31.7824 107.184 37.5152C106.855 40.9548 105.701 44.0669 106.031 47.1789C105.207 48.3255 104.219 49.1445 103.23 50.1272ZM89.0633 9.83424C91.0401 11.3084 93.6758 13.7653 95.3232 16.7135C96.4763 18.679 97.7942 21.4635 97.9589 23.7566C98.7826 31.7824 94.0053 38.8255 86.9217 35.3859C87.0865 37.3514 86.757 39.8083 87.0865 41.61C90.0517 41.9376 92.1932 41.1186 94.0053 40.6272C94.829 40.2997 95.8174 40.2997 96.3116 39.9721C99.771 38.6617 100.759 33.4204 101.089 28.998C101.913 17.6963 98.4531 6.23081 88.4044 5.08426C88.7338 6.3946 88.5691 8.36011 89.0633 9.83424ZM75.7198 17.5325C78.5203 17.0411 80.3324 18.5152 82.1445 19.3342C83.2976 16.8773 85.7686 17.6963 87.0865 19.1704C89.3928 21.9549 89.887 27.8514 91.3696 30.6359C93.8406 27.3601 92.5227 22.1187 90.8754 19.3342C89.228 16.5497 86.0981 13.2739 82.3092 12.7825C79.8382 12.4549 76.0493 12.9463 73.0841 12.7825C73.5783 14.748 75.0609 15.7308 75.7198 17.5325ZM71.272 13.2739C70.2836 13.9291 68.9658 14.2566 67.9774 14.9118C68.801 16.7135 69.9542 18.0239 70.7778 19.6618C72.0957 19.1704 72.9194 18.3515 74.2372 17.8601C73.2488 16.5497 72.5899 14.5842 71.272 13.2739ZM66.4948 16.2222C63.0353 17.8601 65.8358 20.6446 67.1537 22.7739C67.8126 21.9549 68.6363 21.2997 69.46 20.6446C68.4716 19.1704 67.8126 17.3687 66.4948 16.2222ZM62.5411 22.1187C63.6943 22.9376 63.859 24.7394 64.8474 25.7221C65.1769 25.067 65.6711 24.7394 65.8358 23.9204C65.1769 22.4463 64.5179 20.9721 63.5295 19.9894C62.8706 20.4808 62.7059 21.2997 62.5411 22.1187ZM89.3928 30.4721C88.5691 28.179 88.2396 25.5583 87.4159 23.2652C87.2512 26.5411 87.9101 29.1618 89.3928 30.4721ZM75.8846 23.429C73.2488 24.4118 71.6015 27.6876 72.5899 31.2911C73.743 28.3428 75.5551 26.0497 79.6735 25.8859C78.6851 24.7394 77.5319 23.9204 75.8846 23.429ZM64.0237 38.6617C65.6711 42.1014 69.46 44.2307 73.0841 45.7048C75.8846 46.8514 78.5203 47.9979 80.3324 46.1962C80.1677 44.3945 79.6735 42.7565 79.5087 40.9548C68.9658 43.7393 65.0121 32.11 67.9774 23.5928C64.8474 26.8687 63.5295 31.7824 64.0237 38.6617ZM61.5527 25.8859C62.7059 26.2135 62.7059 27.6876 63.5295 28.179C63.5295 27.6876 63.6943 27.3601 63.859 27.0325C62.8706 26.3773 62.7059 24.9032 61.8822 24.0842C62.0469 24.9032 61.5527 25.2307 61.5527 25.8859ZM74.402 35.5497C79.1793 38.3342 83.2976 31.7824 80.8266 27.5238C75.7198 27.0325 73.2488 30.7997 74.402 35.5497ZM61.5527 30.3083C61.8822 29.9807 62.0469 30.4721 62.3764 30.1445C61.8822 29.9807 62.2117 28.998 61.5527 28.8342C61.5527 29.1618 61.5527 29.6531 61.5527 30.3083ZM49.1977 35.0583C42.9378 39.1531 36.1837 42.5928 29.7591 46.5238C25.476 48.9807 21.3577 51.9289 17.2393 54.5496C13.4505 56.8427 9.99105 59.4634 6.86111 62.0841C6.53164 62.4117 5.3785 62.903 5.87271 63.0668C12.4621 63.0668 18.8867 63.0668 25.476 63.3944C31.4064 63.722 37.3369 62.903 43.1026 63.3944C48.8682 63.8858 54.6339 64.3772 60.2349 64.8685C61.8822 60.2824 63.5295 55.6962 65.1769 51.11C61.388 45.2134 57.7639 39.3169 56.446 30.9635C56.2813 30.9635 56.2813 30.9635 56.1165 30.9635C53.6455 32.11 51.504 33.5842 49.1977 35.0583ZM62.3764 33.748C62.3764 33.2566 62.5411 32.4376 62.0469 32.4376C62.0469 32.929 62.0469 33.4204 62.3764 33.748ZM104.384 38.0066C105.207 38.6617 104.713 40.791 104.878 42.1014C104.878 42.2652 105.042 42.2652 105.042 41.9376C105.042 41.61 105.042 41.1186 105.042 40.791C105.537 38.9893 105.866 36.0411 105.537 33.748C105.207 35.3859 104.713 36.6962 104.384 38.0066ZM84.6155 42.7565C85.1097 41.4462 84.4507 38.9893 84.1213 37.5152C83.1329 38.8255 84.1213 41.4462 84.6155 42.7565ZM80.9913 40.4635C81.6503 41.9376 81.4855 44.0669 81.9797 45.541C82.4739 45.0496 82.8034 44.7221 83.2976 44.3945C82.4739 43.2479 82.6387 40.9548 81.9797 39.6445C81.6503 39.9721 81.1561 39.9721 80.9913 40.4635ZM102.901 48.3255C103.395 46.36 103.23 42.7566 103.066 40.4635C101.418 41.9376 102.901 45.7048 102.901 48.3255ZM86.9217 42.9203C84.9449 44.2307 83.7918 46.5238 81.4855 47.5065C87.4159 46.8514 91.8638 44.7221 95.1584 41.61C92.6874 42.2652 90.3812 43.2479 86.9217 42.9203ZM100.43 49.7996C100.924 49.9634 100.924 49.472 101.254 49.472C100.595 47.8341 101.254 45.2134 100.43 43.7393C99.4415 45.0496 100.759 47.6703 100.43 49.7996ZM98.2884 45.7048C97.9589 46.0324 97.6294 46.36 97.3 46.5238C99.112 46.8514 98.1236 49.9634 99.1121 51.11C98.7826 49.472 98.9473 47.1789 98.2884 45.7048ZM67.4832 50.7824C68.6363 51.9289 69.46 53.2393 71.1073 54.0582C71.6015 54.222 72.0957 54.222 72.5899 54.5496C73.5783 55.041 74.2372 55.6962 75.5551 55.86C78.1909 56.1875 81.1561 56.0237 83.6271 55.86C88.8986 55.3686 94.0053 54.3858 97.4647 52.2565C97.1352 50.7824 96.4763 48.8169 96.641 47.1789C96.1468 47.0152 95.8174 47.5065 95.4879 47.8341C91.8638 50.291 84.7802 53.4031 78.3556 52.7479C72.5899 52.0927 67.9774 48.6531 64.0237 46.8514C64.8474 48.3255 66.1653 49.472 67.4832 50.7824ZM100.265 52.0927C96.9705 55.2048 90.3812 56.8427 83.4623 57.4979C80.8266 57.6617 77.8614 57.8255 75.3904 57.4979C72.0957 57.0065 69.6247 54.5496 67.3184 53.5669C66.989 55.5324 66.1653 56.8427 65.6711 58.8082C73.5783 58.1531 80.6619 59.6272 86.9217 59.9548C87.7454 59.9548 88.7338 59.9548 89.5575 59.9548C91.699 60.1186 93.6758 60.9375 95.6526 61.1013C99.9357 61.4289 105.042 60.6099 107.843 62.2479C105.372 59.1358 103.889 54.5496 100.265 52.0927ZM90.3812 62.903C89.5575 62.7392 88.5691 62.903 87.5807 62.903C84.6155 62.7392 81.6503 61.9203 78.6851 61.7565C74.2372 61.4289 68.801 62.0841 64.6827 61.5927C63.6943 63.0668 63.5295 67.1616 62.3764 67.9806C61.5527 68.472 60.8938 68.1444 60.0701 67.9806C57.2697 67.653 53.4808 66.9978 50.1861 67.1616C47.5504 74.6961 44.4204 82.7219 42.6083 91.0754C41.9494 93.8598 41.2905 96.8081 40.3021 99.4288C39.3137 102.049 37.8311 104.343 37.6663 107.127C38.8195 106.308 39.9726 105.489 41.2905 104.834C41.1257 102.213 42.1141 98.9374 42.2789 95.9891C42.2789 95.0064 41.7847 93.2047 43.1026 92.8771C44.4204 94.0236 43.7615 96.4805 43.5967 98.2822C43.432 100.412 42.7731 102.377 42.7731 103.687C43.432 103.032 44.5852 102.705 45.0794 101.886C44.4204 100.084 45.2441 97.9546 45.4088 95.9891C45.5736 94.515 44.9146 92.5495 46.2325 92.0581C47.3856 92.7133 47.0562 94.515 47.0562 95.9891C46.8914 97.6271 46.3972 99.5926 46.3972 101.067C47.2209 100.575 47.8798 99.9202 48.7035 99.5926C49.033 97.4633 49.1977 94.515 49.1977 91.8943C49.1977 90.584 48.7035 88.6185 50.0214 88.2909C51.1745 88.7823 50.845 90.4202 50.845 91.7305C50.845 94.1874 50.845 96.8081 50.5156 98.6098C51.1745 98.2822 51.9982 97.9546 52.4924 97.2995C52.9866 94.8426 51.504 90.2564 53.3161 89.2736C54.7987 90.4202 53.6455 94.1874 54.1397 96.4805C54.9634 95.9891 55.7871 95.4978 56.446 94.6788C56.9402 92.2219 55.4576 87.4719 57.2697 86.4892C58.7523 87.6357 57.5991 91.5667 58.0933 93.8598C59.0817 93.3685 60.0701 93.0409 60.8938 92.5495C61.388 90.0926 59.9054 85.834 61.7175 84.6874C63.2001 85.6702 62.0469 89.2736 62.5411 91.4029C63.3648 91.2392 64.0237 90.7478 64.8474 90.4202C64.8474 88.9461 64.8474 86.9805 64.8474 85.1788C64.8474 83.5409 64.3532 81.4116 65.6711 80.9202C67.3184 82.3944 66.0006 86.8167 66.4948 89.4374C67.3184 89.1098 67.9774 88.7823 68.801 88.4547C68.801 86.9805 68.801 84.8512 68.801 83.0495C68.801 81.2478 68.3068 78.9547 69.6247 78.4633C70.7778 79.1185 70.4484 80.9202 70.4484 82.3943C70.4484 84.0323 70.4484 85.834 70.4484 87.3081C71.6015 86.8167 72.4252 86.1616 73.5783 85.5064C73.743 84.0323 73.4136 82.2306 73.2488 80.5926C73.0841 78.9547 72.7546 76.6616 74.0725 76.0064C75.3904 76.8254 74.7314 79.4461 74.8962 81.4116C75.0609 82.5581 75.2256 83.7047 75.3904 84.5237C76.3788 83.8685 77.5319 83.2133 78.6851 82.5581C78.5203 80.7564 78.5203 78.4633 78.3556 76.6616C78.3556 75.8426 77.6967 74.3685 79.0145 74.3685C80.6619 75.6789 79.6735 79.6099 80.3324 81.903C81.3208 81.5754 82.4739 81.2478 83.1329 80.4288C82.9681 79.2823 82.6387 77.153 82.4739 75.5151C82.3092 74.0409 81.9797 71.9116 83.2976 71.4202C84.6155 72.0754 83.9565 74.2047 84.1213 75.8426C84.286 77.3168 84.4507 78.7909 84.6155 79.7737C85.6039 79.2823 86.5923 78.7909 87.2512 77.9719C87.4159 75.6789 85.6039 71.9116 87.5807 70.7651C88.8986 72.0754 88.2396 75.3513 88.7338 77.4806C89.3928 76.9892 90.5459 76.8254 91.0401 76.1702C91.2048 74.0409 89.0633 69.7823 91.2048 68.472C92.358 68.9634 91.8638 70.6013 92.0285 71.7478C92.1932 73.222 92.6874 74.5323 92.8522 75.6789C93.5111 75.0237 94.829 75.0237 95.3232 74.0409C95.4879 71.7478 93.1816 67.8168 95.1584 66.5065C96.641 67.8168 95.9821 71.4202 96.9705 73.3858C98.9473 72.0754 95.8174 66.3427 98.1236 65.0323C99.4415 66.1789 98.7826 69.4547 99.1121 71.7478C99.771 71.584 100.1 71.0927 100.595 70.9289C100.265 68.7996 100.265 66.5065 99.771 64.541C96.3116 64.7048 93.5111 63.3944 90.3812 62.903ZM101.913 69.2909C102.571 69.1272 102.901 68.472 103.56 68.472C102.901 67.1616 103.725 65.6875 103.56 64.2134C102.736 64.2134 102.077 64.2134 101.254 64.2134C101.583 65.6875 101.583 67.653 101.913 69.2909ZM105.042 67.3254C105.866 66.6703 107.019 66.3427 107.678 65.5237C106.69 65.3599 106.196 64.7048 105.207 64.7048C105.207 65.5237 104.548 66.5065 105.042 67.3254ZM8.34371 71.584C8.34371 69.9461 8.50845 68.1444 8.01425 66.9979C8.17898 66.6703 8.34371 66.3427 8.83791 66.1789C7.52004 66.3427 5.70797 66.0151 4.55484 66.3427C6.03744 67.9806 7.02584 69.9461 8.34371 71.584ZM9.99105 73.7133C10.4853 74.0409 11.3089 75.5151 11.6384 75.0237C11.4737 73.0582 10.9795 69.2909 11.4737 68.1444C14.2741 67.9806 12.1326 74.0409 13.6152 75.6789C13.4505 76.1702 13.2857 76.334 12.9563 76.6616C13.7799 77.153 14.7683 78.9547 15.2625 78.7909C14.9331 76.8254 15.2625 73.8771 15.0978 71.7478C15.0978 70.9289 14.6036 70.1099 15.2625 69.7823C18.2277 69.9461 15.9215 76.8254 17.0746 79.2823C17.2393 79.9375 16.5804 79.9375 16.5804 80.4288C17.2393 80.9202 17.8983 82.5581 18.3925 82.2306C18.8867 79.7737 17.4041 75.5151 19.2161 74.3685C20.8635 76.0064 19.3809 80.9202 20.0398 83.5409C20.2045 84.1961 19.5456 84.0323 19.5456 84.5237C20.2045 85.015 20.8635 86.9805 21.5224 86.653C22.3461 83.7047 19.8751 80.1013 21.8519 79.1185C24.6524 81.5754 21.6872 89.765 24.8171 91.8943C24.9818 89.2736 24.4876 85.5064 24.9818 84.0323C26.9586 83.8685 26.4644 86.3254 26.4644 88.1271C26.4644 90.0926 26.135 92.7133 26.4644 94.1874C26.6292 95.1702 28.1118 96.8081 28.4412 96.4805C28.9354 94.1874 27.4528 90.0926 29.2649 89.1098C30.5828 89.9288 30.0886 91.8943 30.0886 93.696C30.0886 97.2995 29.7591 100.248 31.7359 101.394C31.7359 99.9202 31.7359 98.1184 31.7359 96.3167C31.7359 94.6788 31.2417 92.5495 32.5596 92.0581C33.8775 93.0409 33.3833 95.6615 33.3833 97.6271C33.3833 99.9202 33.548 102.213 33.2185 103.851C33.7127 104.179 33.548 105.162 34.2069 105.325C38.9842 92.8771 41.6199 78.4633 46.7267 66.5065C34.3717 66.1789 21.3577 65.6875 8.83791 66.0151C10.8147 67.4892 9.82632 71.2565 9.99105 73.7133Z" fill="#192C32"/>
</svg>
