<svg width="10" height="10" viewBox="0 0 10 10" fill="none" xmlns="http://www.w3.org/2000/svg">
<path fill-rule="evenodd" clip-rule="evenodd" d="M8.29975 0.757335C8.5601 0.496985 8.98221 0.496985 9.24255 0.757335C9.50291 1.01768 9.50291 1.43979 9.24255 1.70014L5.9428 4.9999L9.24271 8.29981C9.50306 8.56016 9.50306 8.98227 9.24271 9.24262C8.98236 9.50297 8.56025 9.50297 8.2999 9.24262L4.99999 5.94271L1.70008 9.24262C1.43973 9.50297 1.01762 9.50297 0.757274 9.24262C0.496924 8.98227 0.496924 8.56016 0.757274 8.29981L4.05718 4.9999L0.757429 1.70014C0.497079 1.43979 0.497079 1.01768 0.757429 0.757335C1.01778 0.496985 1.43989 0.496985 1.70024 0.757335L4.99999 4.05709L8.29975 0.757335Z" fill="#192C32"/>
</svg>
