<svg width="12" height="12" viewBox="0 0 12 12" fill="none" xmlns="http://www.w3.org/2000/svg">
<path d="M11.1875 10.4341L9.20849 8.47112C9.97667 7.51332 10.3487 6.29759 10.248 5.07392C10.1474 3.85025 9.58171 2.71166 8.66734 1.89225C7.75298 1.07284 6.55942 0.634901 5.33207 0.668485C4.10473 0.70207 2.93691 1.20462 2.06872 2.07281C1.20053 2.94099 0.69798 4.10882 0.664396 5.33616C0.630811 6.5635 1.06875 7.75707 1.88816 8.67143C2.70757 9.5858 3.84616 10.1515 5.06983 10.2521C6.2935 10.3528 7.50923 9.98076 8.46703 9.21258L10.43 11.1756C10.4796 11.2256 10.5386 11.2652 10.6036 11.2923C10.6686 11.3194 10.7383 11.3334 10.8088 11.3334C10.8792 11.3334 10.9489 11.3194 11.0139 11.2923C11.0789 11.2652 11.1379 11.2256 11.1875 11.1756C11.2836 11.0761 11.3374 10.9432 11.3374 10.8048C11.3374 10.6665 11.2836 10.5336 11.1875 10.4341ZM5.47454 9.21258C4.73603 9.21258 4.01411 8.99359 3.40007 8.58329C2.78602 8.173 2.30743 7.58984 2.02482 6.90755C1.74221 6.22526 1.66826 5.47449 1.81234 4.75017C1.95641 4.02586 2.31204 3.36053 2.83424 2.83833C3.35644 2.31612 4.02177 1.9605 4.74608 1.81643C5.4704 1.67235 6.22117 1.74629 6.90346 2.02891C7.58575 2.31152 8.16891 2.79011 8.57921 3.40416C8.9895 4.0182 9.20849 4.74012 9.20849 5.47863C9.20849 6.46893 8.81509 7.41868 8.11484 8.11893C7.41459 8.81918 6.46484 9.21258 5.47454 9.21258Z" fill="#192C32"/>
</svg>
