<svg width="100%" height="100%" viewBox="0 0 28 28" fill="none" xmlns="http://www.w3.org/2000/svg">
<path d="M7.29141 3.34327C7.29141 2.63471 7.57288 1.95517 8.07391 1.45414C8.57494 0.953106 9.25449 0.671631 9.96305 0.671631H17.978C18.6865 0.671631 19.3661 0.953106 19.8671 1.45414C20.3681 1.95517 20.6496 2.63471 20.6496 3.34327V6.01491H25.9929C26.3472 6.01491 26.687 6.15565 26.9375 6.40617C27.188 6.65668 27.3287 6.99645 27.3287 7.35074C27.3287 7.70502 27.188 8.04479 26.9375 8.2953C26.687 8.54582 26.3472 8.68656 25.9929 8.68656H24.5649L23.4068 24.9061C23.3588 25.5801 23.0572 26.2109 22.5627 26.6715C22.0682 27.132 21.4175 27.3881 20.7418 27.388H7.1979C6.52216 27.3881 5.87152 27.132 5.37702 26.6715C4.88253 26.2109 4.58092 25.5801 4.53294 24.9061L3.37745 8.68656H1.94813C1.59384 8.68656 1.25407 8.54582 1.00356 8.2953C0.753043 8.04479 0.612305 7.70502 0.612305 7.35074C0.612305 6.99645 0.753043 6.65668 1.00356 6.40617C1.25407 6.15565 1.59384 6.01491 1.94813 6.01491H7.29141V3.34327ZM9.96305 6.01491H17.978V3.34327H9.96305V6.01491ZM6.05444 8.68656L7.19924 24.7164H20.7431L21.8879 8.68656H6.05444ZM11.2989 11.3582C11.6532 11.3582 11.9929 11.4989 12.2434 11.7495C12.494 12 12.6347 12.3397 12.6347 12.694V20.7089C12.6347 21.0632 12.494 21.403 12.2434 21.6535C11.9929 21.904 11.6532 22.0448 11.2989 22.0448C10.9446 22.0448 10.6048 21.904 10.3543 21.6535C10.1038 21.403 9.96305 21.0632 9.96305 20.7089V12.694C9.96305 12.3397 10.1038 12 10.3543 11.7495C10.6048 11.4989 10.9446 11.3582 11.2989 11.3582ZM16.6422 11.3582C16.9964 11.3582 17.3362 11.4989 17.5867 11.7495C17.8372 12 17.978 12.3397 17.978 12.694V20.7089C17.978 21.0632 17.8372 21.403 17.5867 21.6535C17.3362 21.904 16.9964 22.0448 16.6422 22.0448C16.2879 22.0448 15.9481 21.904 15.6976 21.6535C15.4471 21.403 15.3063 21.0632 15.3063 20.7089V12.694C15.3063 12.3397 15.4471 12 15.6976 11.7495C15.9481 11.4989 16.2879 11.3582 16.6422 11.3582Z" fill="#"/>
</svg>
