<svg width="100%" height="100%" viewBox="0 0 18 18" fill="none" xmlns="http://www.w3.org/2000/svg">
<path d="M17.2896 9.06714C17.2896 9.33285 17.184 9.58768 16.9961 9.77557C16.8082 9.96345 16.5534 10.069 16.2877 10.069H9.94254V16.4142C9.94254 16.6799 9.83699 16.9347 9.6491 17.1226C9.46122 17.3105 9.20639 17.416 8.94068 17.416C8.67497 17.416 8.42014 17.3105 8.23225 17.1226C8.04437 16.9347 7.93881 16.6799 7.93881 16.4142V10.069H1.59366C1.32795 10.069 1.07312 9.96345 0.885237 9.77557C0.69735 9.58768 0.591797 9.33285 0.591797 9.06714C0.591797 8.80143 0.69735 8.5466 0.885237 8.35872C1.07312 8.17083 1.32795 8.06528 1.59366 8.06528H7.93881V1.72013C7.93881 1.45442 8.04437 1.19959 8.23225 1.0117C8.42014 0.823815 8.67497 0.718262 8.94068 0.718262C9.20639 0.718262 9.46122 0.823815 9.6491 1.0117C9.83699 1.19959 9.94254 1.45442 9.94254 1.72013V8.06528H16.2877C16.5534 8.06528 16.8082 8.17083 16.9961 8.35872C17.184 8.5466 17.2896 8.80143 17.2896 9.06714Z" fill="#192C32"/>
</svg>
