<svg width="26" height="26" viewBox="0 0 26 26" fill="none" xmlns="http://www.w3.org/2000/svg">
<path d="M10.1275 19.4097C9.71178 19.4097 9.31271 19.5798 9.02172 19.8774C8.73073 20.1751 8.56445 20.5833 8.56445 21.0085C8.56445 21.4338 8.73073 21.842 9.02172 22.1397C9.31271 22.4373 9.71178 22.6074 10.1275 22.6074C10.5432 22.6074 10.9423 22.4373 11.2332 22.1397C11.5242 21.842 11.6905 21.4338 11.6905 21.0085C11.6905 20.5833 11.5242 20.1751 11.2332 19.8774C10.9339 19.5798 10.5349 19.4097 10.1275 19.4097Z" fill="#192C32"/>
<path fill-rule="evenodd" clip-rule="evenodd" d="M10.1275 19.7299C9.79906 19.7299 9.48214 19.8644 9.25056 20.1013C9.01874 20.3385 8.88454 20.666 8.88454 21.0085C8.88454 21.351 9.01874 21.6786 9.25056 21.9157C9.48214 22.1526 9.79906 22.2872 10.1275 22.2872C10.4559 22.2872 10.7728 22.1526 11.0044 21.9157C11.2362 21.6786 11.3704 21.351 11.3704 21.0085C11.3704 20.6668 11.2368 20.3399 11.006 20.1029C10.7637 19.8628 10.4452 19.7299 10.1275 19.7299ZM11.2332 19.8774C11.5242 20.1751 11.6905 20.5833 11.6905 21.0085C11.6905 21.4338 11.5242 21.842 11.2332 22.1397C10.9423 22.4373 10.5432 22.6074 10.1275 22.6074C9.71178 22.6074 9.31271 22.4373 9.02172 22.1397C8.73073 21.842 8.56445 21.4338 8.56445 21.0085C8.56445 20.5833 8.73073 20.1751 9.02172 19.8774C9.31271 19.5798 9.71178 19.4097 10.1275 19.4097C10.5349 19.4097 10.9339 19.5798 11.2332 19.8774Z" fill="#F2DECD"/>
<path d="M19.0474 19.4097C18.6317 19.4097 18.2326 19.5798 17.9416 19.8774C17.6507 20.1751 17.4844 20.5833 17.4844 21.0085C17.4844 21.4338 17.6507 21.842 17.9416 22.1397C18.2326 22.4373 18.6317 22.6074 19.0474 22.6074C19.4631 22.6074 19.8622 22.4373 20.1532 22.1397C20.4442 21.842 20.6104 21.4338 20.6104 21.0085C20.6104 20.5833 20.4442 20.1751 20.1532 19.8774C19.8539 19.5798 19.4631 19.4097 19.0474 19.4097Z" fill="#192C32"/>
<path fill-rule="evenodd" clip-rule="evenodd" d="M19.0474 19.7299C18.719 19.7299 18.4021 19.8644 18.1705 20.1013C17.9387 20.3385 17.8045 20.666 17.8045 21.0085C17.8045 21.351 17.9387 21.6786 18.1705 21.9157C18.4021 22.1526 18.719 22.2872 19.0474 22.2872C19.3758 22.2872 19.6927 22.1526 19.9243 21.9157C20.1561 21.6786 20.2903 21.351 20.2903 21.0085C20.2903 20.6668 20.1567 20.3399 19.9259 20.1029C19.683 19.8621 19.3726 19.7299 19.0474 19.7299ZM20.1532 19.8774C20.4442 20.1751 20.6104 20.5833 20.6104 21.0085C20.6104 21.4338 20.4442 21.842 20.1532 22.1397C19.8622 22.4373 19.4631 22.6074 19.0474 22.6074C18.6317 22.6074 18.2326 22.4373 17.9416 22.1397C17.6507 21.842 17.4844 21.4338 17.4844 21.0085C17.4844 20.5833 17.6507 20.1751 17.9416 19.8774C18.2326 19.5798 18.6317 19.4097 19.0474 19.4097C19.4631 19.4097 19.8539 19.5798 20.1532 19.8774Z" fill="#F2DECD"/>
<path d="M22.5896 9.10188C22.6561 8.48954 22.2237 7.92824 21.6251 7.8602C21.0265 7.79217 20.4778 8.23441 20.4113 8.84674C20.4113 8.84674 19.7462 12.7844 19.663 13.048C19.5882 13.2862 19.5383 13.3542 19.5134 13.3797C19.4552 13.4477 19.3887 13.5073 19.3055 13.5498C19.2806 13.5668 19.2058 13.6008 18.9563 13.6263C18.6903 13.6519 18.3411 13.6519 17.7758 13.6519H9.17079L8.06503 6.9332C8.04009 6.78862 8.00683 6.64404 7.97358 6.51647C7.87381 6.18479 7.70753 5.80208 7.35835 5.49591C7.00084 5.18975 6.61009 5.07919 6.26921 5.03666C5.97822 4.99414 5.62904 4.99414 5.28816 4.99414H4.49002C3.8831 4.99414 3.39258 5.49591 3.39258 6.11675C3.39258 6.73759 3.8831 7.23936 4.49002 7.23936H5.24659C5.57915 7.23936 5.76206 7.23936 5.89509 7.25637C5.92834 7.39245 7.49137 16.9772 7.57451 17.2663C7.67428 17.598 7.84056 17.9807 8.18974 18.2869C8.54724 18.593 8.938 18.7036 9.27887 18.7461C9.56986 18.7802 9.91905 18.7802 10.2599 18.7802H19.9873C20.5942 18.7802 21.0847 18.2784 21.0847 17.6575C21.0847 17.0367 20.5942 16.5349 19.9873 16.5349H10.3098C9.97725 16.5349 9.79434 16.5349 9.66132 16.5179C9.62806 16.3903 9.5948 16.2032 9.54492 15.8886H17.8423C18.3494 15.8886 18.8067 15.8886 19.1808 15.8546C19.5882 15.812 19.9956 15.727 20.3947 15.4974C20.6856 15.3273 20.9517 15.1147 21.1679 14.8595C21.4672 14.5108 21.6418 14.1111 21.7582 13.7114C21.8745 13.3457 22.5896 9.10188 22.5896 9.10188Z" fill="#192C32"/>
<path fill-rule="evenodd" clip-rule="evenodd" d="M20.7275 8.90019L20.4113 8.84674C20.4778 8.23441 21.0265 7.79217 21.6251 7.8602C22.2237 7.92824 22.6561 8.48954 22.5896 9.10188C22.5896 9.10188 21.8745 13.3457 21.7582 13.7114C21.6418 14.1111 21.4672 14.5108 21.1679 14.8595C20.9517 15.1147 20.6856 15.3273 20.3947 15.4974C19.9956 15.727 19.5882 15.812 19.1808 15.8546C18.8067 15.8886 18.3494 15.8886 17.8423 15.8886H9.54492C9.56484 16.0142 9.5821 16.1195 9.59778 16.2088C9.62136 16.3432 9.64134 16.4413 9.66132 16.5179C9.79433 16.5349 9.97723 16.5349 10.3098 16.5349H19.9873C20.5942 16.5349 21.0847 17.0367 21.0847 17.6575C21.0847 18.2784 20.5942 18.7802 19.9873 18.7802H10.2599C9.91905 18.7802 9.56986 18.7802 9.27887 18.7461C8.938 18.7036 8.54724 18.593 8.18974 18.2869C7.84056 17.9807 7.67428 17.598 7.57451 17.2663C7.52094 17.08 6.85304 13.0349 6.37578 10.1444C6.11229 8.54864 5.90691 7.30477 5.89509 7.25637C5.76206 7.23936 5.57915 7.23936 5.24659 7.23936H4.49002C3.8831 7.23936 3.39258 6.73759 3.39258 6.11675C3.39258 5.49591 3.8831 4.99414 4.49002 4.99414H5.28816C5.62904 4.99414 5.97822 4.99414 6.26921 5.03666C6.61009 5.07919 7.00084 5.18975 7.35835 5.49591C7.70753 5.80208 7.87381 6.18479 7.97358 6.51647C8.00683 6.64404 8.04009 6.78862 8.06503 6.9332L9.17079 13.6519H17.7758C18.3411 13.6519 18.6903 13.6519 18.9563 13.6263C19.2058 13.6008 19.2806 13.5668 19.3055 13.5498C19.3887 13.5073 19.4552 13.4477 19.5134 13.3797C19.5383 13.3542 19.5882 13.2862 19.663 13.048C19.7462 12.7844 20.4113 8.84674 20.4113 8.84674L20.7275 8.90019L20.6216 9.51997C20.5579 9.89343 20.4721 10.3942 20.3837 10.9033C20.2953 11.4123 20.2042 11.9302 20.1299 12.3378C20.0928 12.5414 20.0597 12.7186 20.0331 12.8536C20.0086 12.9784 19.9854 13.0898 19.9684 13.1441M19.7511 13.5943C19.6779 13.6787 19.5856 13.7635 19.4646 13.828C19.3676 13.8859 19.2241 13.9209 18.9889 13.9449L18.9869 13.9451C18.7055 13.9721 18.3434 13.9721 17.7977 13.9721H8.8991L7.74961 6.98766C7.74954 6.98727 7.74968 6.98805 7.74961 6.98766C7.72697 6.85669 7.69639 6.72264 7.66537 6.60311C7.57397 6.30121 7.43131 5.98633 7.14877 5.73797C6.85444 5.4865 6.53096 5.39203 6.22961 5.35444L6.22294 5.35361C5.95965 5.31513 5.63576 5.31438 5.28816 5.31438H4.49002C4.06655 5.31438 3.71267 5.66604 3.71267 6.11675C3.71267 6.56747 4.06655 6.91913 4.49002 6.91913H5.24659C5.25685 6.91913 5.26698 6.91912 5.27701 6.91912C5.58133 6.9191 5.78215 6.91909 5.93566 6.93872L6.15379 6.96661L6.20601 7.18031C6.21391 7.21262 6.2451 7.39775 6.28909 7.66087C6.33522 7.93684 6.39937 8.32378 6.47563 8.7849C6.54015 9.17505 6.61332 9.6182 6.69161 10.0924C6.79848 10.7396 6.91489 11.4447 7.03188 12.1516C7.23453 13.3763 7.43867 14.6053 7.59733 15.5461C7.67667 16.0166 7.74454 16.4145 7.79513 16.7035C7.82044 16.8482 7.84128 16.9647 7.85699 17.0491C7.87248 17.1324 7.88037 17.1695 7.88186 17.1766C7.88196 17.177 7.88182 17.1763 7.88186 17.1766C7.97323 17.4791 8.1161 17.7959 8.3993 18.0448C8.69324 18.296 9.01627 18.3905 9.31729 18.4282C9.58575 18.4595 9.91417 18.4599 10.2599 18.4599H19.9873C20.4108 18.4599 20.7646 18.1083 20.7646 17.6575C20.7646 17.2068 20.4108 16.8552 19.9873 16.8552L10.2794 16.8552C9.97507 16.8552 9.77425 16.8552 9.62074 16.8356L9.40618 16.8081L9.35159 16.5987C9.3137 16.4534 9.27822 16.2506 9.22878 15.9387L9.17007 15.5683H17.8423C18.3533 15.5683 18.7936 15.5681 19.1497 15.5358C19.5339 15.4956 19.8905 15.4178 20.2341 15.2203C20.4983 15.0658 20.7346 14.8757 20.9237 14.6524L20.925 14.6509C21.1849 14.3481 21.3422 13.9947 21.4508 13.6218L21.4531 13.6142C21.4744 13.5472 21.5367 13.2406 21.6225 12.7784C21.7055 12.3308 21.8056 11.7673 21.9022 11.2144C21.9987 10.6616 22.0917 10.1201 22.1605 9.71681L22.2722 9.05864C22.3157 8.6158 22.0008 8.22519 21.589 8.17839C21.1704 8.13081 20.7773 8.44167 20.7295 8.88134L20.7275 8.90019" fill="#F2DECD"/>
<path d="M10.3598 10.3267H15.1652L14.3255 10.9985C13.8184 11.4068 13.7269 12.1637 14.126 12.6824C14.3588 12.9886 14.6997 13.1417 15.0489 13.1417C15.2983 13.1417 15.556 13.0566 15.7722 12.8866L19.2308 10.1226C19.5135 9.89293 19.6797 9.55274 19.6797 9.18704C19.6797 8.82134 19.5218 8.47265 19.2391 8.24303L15.7306 5.37697C15.2234 4.96024 14.4835 5.04529 14.0844 5.56407C13.677 6.08285 13.7602 6.83976 14.2673 7.24799L15.0987 7.92836H10.3598C9.71128 7.92836 9.1875 8.46415 9.1875 9.12751C9.1875 9.79087 9.71128 10.3267 10.3598 10.3267Z" fill="#192C32"/>
<path fill-rule="evenodd" clip-rule="evenodd" d="M16.078 10.0064L14.5262 11.248C14.526 11.2481 14.5263 11.2479 14.5262 11.248C14.155 11.5472 14.0869 12.1065 14.3797 12.4871L14.3808 12.4886C14.5504 12.7117 14.7952 12.8215 15.0489 12.8215C15.226 12.8215 15.4137 12.7609 15.5734 12.6356C15.5737 12.6353 15.5731 12.6358 15.5734 12.6356L19.029 9.87394C19.0293 9.8737 19.0287 9.87418 19.029 9.87394C19.2382 9.7036 19.3596 9.45347 19.3596 9.18704C19.3596 8.91276 19.2413 8.65734 19.0373 8.49164L15.5282 5.62502C15.1606 5.32302 14.6269 5.38397 14.3381 5.75938L14.3361 5.76191C14.0352 6.14515 14.0998 6.70211 14.468 6.99848L14.47 7.0001L15.9956 8.24859H10.3598C9.89472 8.24859 9.50759 8.63427 9.50759 9.12751C9.50759 9.62075 9.89472 10.0064 10.3598 10.0064H16.078ZM19.2308 10.1226L15.7722 12.8866C15.556 13.0566 15.2983 13.1417 15.0489 13.1417C14.6997 13.1417 14.3588 12.9886 14.126 12.6824C13.7269 12.1637 13.8184 11.4068 14.3255 10.9985L15.1652 10.3267H10.3598C9.71128 10.3267 9.1875 9.79087 9.1875 9.12751C9.1875 8.46415 9.71128 7.92836 10.3598 7.92836H15.0987L14.2673 7.24799C13.7602 6.83976 13.677 6.08285 14.0844 5.56407C14.4835 5.04529 15.2234 4.96024 15.7306 5.37697L19.2391 8.24303C19.5218 8.47265 19.6797 8.82134 19.6797 9.18704C19.6797 9.55274 19.5135 9.89293 19.2308 10.1226Z" fill="#F2DECD"/>
</svg>
