<svg fill="#192C32" height="18" version="1.1" id="Слой_1" xmlns="http://www.w3.org/2000/svg"
		 xmlns:xlink="http://www.w3.org/1999/xlink"
		 x="0px"
		 y="0px"
		 viewBox="0 0 22 22" style="enable-background:new 0 0 22 22;" xml:space="preserve">
	<path class="st0" d="M2.5,2.4h7.4c0.7,0,1.2-0.6,1.2-1.2c0-0.7-0.6-1.2-1.2-1.2H2.5C1.1,0,0,1.1,0,2.4v17.1C0,20.9,1.1,22,2.5,22
		h7.4c0.7,0,1.2-0.5,1.2-1.2c0-0.7-0.6-1.2-1.2-1.2H2.5V2.4z"/>
	<path class="st0" d="M21.8,10.6l-3.5-3.4C18.3,7.1,18.2,7,18.1,7c-0.1,0-0.2,0-0.4,0c-0.1,0-0.2,0.1-0.3,0.2
		c-0.1,0.1-0.1,0.2-0.1,0.3v2.2H8.7C8,9.8,7.4,10.3,7.4,11s0.6,1.2,1.2,1.2h8.7v2.2c0,0.6,0.7,0.8,1.1,0.4l3.5-3.4
		C22.1,11.2,22.1,10.8,21.8,10.6z"/>
</svg>
