<svg viewBox="0 0 13 10" fill="none" xmlns="http://www.w3.org/2000/svg">
	<path
		d="M4.194 7.3C4.746 7.828 5.268 8.29 5.76 8.686L5.508 8.974L5.364 9.118C5.328 9.154 5.268 9.214 5.184 9.298C5.1 9.37 4.962 9.49 4.77 9.658L4.752 9.64C4.512 9.388 4.224 9.112 3.888 8.812C3.564 8.512 3.33 8.296 3.186 8.164C2.514 7.564 1.956 7.048 1.512 6.616C1.068 6.172 0.642 5.68 0.234 5.14C0.966 4.228 2.232 2.884 4.032 1.108L4.644 0.496C4.752 0.556 4.872 0.658 5.004 0.801999C5.136 0.934 5.226 1.024 5.274 1.072C5.394 1.204 5.502 1.312 5.598 1.396C5.442 1.6 4.95 2.128 4.122 2.98C3.03 4.12 2.358 4.858 2.106 5.194C2.958 6.058 3.654 6.76 4.194 7.3ZM10.7331 7.3C11.2851 7.828 11.8071 8.29 12.2991 8.686L12.0471 8.974L11.9031 9.118C11.8671 9.154 11.8071 9.214 11.7231 9.298C11.6391 9.37 11.5011 9.49 11.3091 9.658L11.2911 9.64C11.0511 9.388 10.7631 9.112 10.4271 8.812C10.1031 8.512 9.86906 8.296 9.72506 8.164C9.05306 7.564 8.49506 7.048 8.05106 6.616C7.60706 6.172 7.18106 5.68 6.77306 5.14C7.50506 4.228 8.77106 2.884 10.5711 1.108L11.1831 0.496C11.2911 0.556 11.4111 0.658 11.5431 0.801999C11.6751 0.934 11.7651 1.024 11.8131 1.072C11.9331 1.204 12.0411 1.312 12.1371 1.396C11.9811 1.6 11.4891 2.128 10.6611 2.98C9.56906 4.12 8.89706 4.858 8.64506 5.194C9.49706 6.058 10.1931 6.76 10.7331 7.3Z"
		fill="#192C32"/>
</svg>
