<svg width="17" height="17" viewBox="0 0 17 17" fill="none" xmlns="http://www.w3.org/2000/svg">
<path d="M6.72 16.44C6.08 16.4133 5.73333 16.4133 5.68 16.44C5.68 16.4133 5.66667 16.4 5.64 16.4C5.64 16.4 5.64 16.3733 5.64 16.32C5.58667 15.92 5.56 15.5733 5.56 15.28C5.56 14.96 5.56 14.6533 5.56 14.36C5.58667 14.0667 5.6 13.76 5.6 13.44C5.6 13.12 5.58667 12.72 5.56 12.24C5.56 12.0267 5.54667 11.8533 5.52 11.72C5.52 11.56 5.50667 11.4667 5.48 11.44H5.4C5.24 11.44 4.94667 11.4267 4.52 11.4C4.09333 11.3733 3.62667 11.3467 3.12 11.32C2.64 11.2933 2.18667 11.2533 1.76 11.2C1.33333 11.1467 1.06667 11.0933 0.96 11.04C0.933333 11.0133 0.92 10.9867 0.92 10.96C0.946667 10.6667 0.946667 10.24 0.92 9.68C0.92 9.12 0.906667 8.56 0.88 8C0.853333 7.41333 0.826667 6.89333 0.8 6.44C0.773333 5.98667 0.76 5.72 0.76 5.64C0.84 5.66667 1.13333 5.66667 1.64 5.64C2.14667 5.58667 2.69333 5.54667 3.28 5.52C3.89333 5.46667 4.45333 5.41333 4.96 5.36C5.46667 5.30667 5.76 5.26667 5.84 5.24C5.84 4.94667 5.84 4.6 5.84 4.2C5.86667 3.77333 5.89333 3.28 5.92 2.72C5.94667 2.34667 5.97333 2 6 1.68C6.02667 1.33333 6.05333 1.02667 6.08 0.759998C6.10667 0.599999 6.12 0.479999 6.12 0.399998C6.14667 0.293331 6.17333 0.173331 6.2 0.0399981C6.36 0.146665 6.70667 0.213332 7.24 0.239998C7.8 0.266666 8.38667 0.266666 9 0.239998C9.64 0.213332 10.24 0.199998 10.8 0.199998C11.3867 0.173332 11.7867 0.173332 12 0.199998C12 0.493333 12 0.893333 12 1.4C12 1.90667 12 2.42667 12 2.96C12 3.46667 12 3.93333 12 4.36C12 4.76 12.0267 5.02667 12.08 5.16C12.4 5.18667 12.7733 5.2 13.2 5.2C13.6267 5.2 14.0667 5.2 14.52 5.2C14.9733 5.2 15.4133 5.21333 15.84 5.24C16.2667 5.24 16.6267 5.26667 16.92 5.32C16.8667 6.44 16.8533 7.44 16.88 8.32C16.9067 9.2 16.8667 10.1333 16.76 11.12C16.68 11.1733 16.4133 11.2133 15.96 11.24C15.5067 11.24 15 11.24 14.44 11.24C13.9067 11.24 13.4 11.2533 12.92 11.28C12.44 11.28 12.1333 11.32 12 11.4C12.0267 11.64 12.0267 11.9867 12 12.44C11.9733 12.8933 11.9333 13.3733 11.88 13.88C11.8533 14.3867 11.8133 14.8667 11.76 15.32C11.7333 15.7733 11.72 16.0933 11.72 16.28V16.36C11.72 16.44 11.4133 16.4933 10.8 16.52C10.1867 16.52 9.50667 16.52 8.76 16.52C8.04 16.4933 7.36 16.4667 6.72 16.44Z" fill="#192C32"/>
</svg>
