<svg viewBox="0 0 26 25" fill="none" xmlns="http://www.w3.org/2000/svg">
	<path
		d="M12.9635 4.35815V1.45801M12.9635 4.35815C14.6618 4.424 16.268 5.14758 17.4426 6.37595C18.6172 7.60432 19.2682 9.24125 19.258 10.9408V13.1481C19.258 16.074 21.5474 16.8049 21.5474 18.2678C21.5474 18.995 21.5474 19.7308 20.8877 19.7308H5.03929C4.37956 19.7308 4.37956 18.995 4.37956 18.2678C4.37956 16.8049 6.66901 16.074 6.66901 13.1481V10.9408C6.65883 9.24125 7.30982 7.60432 8.48442 6.37595C9.65902 5.14758 11.2652 4.424 12.9635 4.35815ZM5.60583 3.78916L4.37956 2.56288M3.15328 8.69427H1.927M20.3212 3.78916L21.5474 2.56288M22.7737 8.69427H24M8.72058 19.7308C8.83327 20.7774 9.32885 21.7455 10.1121 22.4489C10.8953 23.1522 11.9108 23.5413 12.9635 23.5413C14.0162 23.5413 15.0317 23.1522 15.8149 22.4489C16.5981 21.7455 17.0937 20.7774 17.2064 19.7308H8.72058Z"
		stroke="#192C32" stroke-width="2.34635" stroke-linecap="round" stroke-linejoin="round"/>
</svg>
