<svg width="36px" height="36px" viewBox="0 0 36 37" fill="none" xmlns="http://www.w3.org/2000/svg">
<path d="M26.3201 10.4918C23.6583 8.36519 20.3235 8.68056 17.9927 10.5437C15.659 8.68103 12.2893 8.3374 9.65364 10.5021C6.73351 12.9004 6.29266 16.9772 8.62063 19.8567C9.47875 20.9181 11.1394 22.4978 12.7181 23.9302C14.3207 25.3842 15.919 26.7576 16.707 27.4284C16.7122 27.4328 16.7176 27.4374 16.7231 27.4422C16.7956 27.504 16.8951 27.5887 16.9918 27.6587C17.1107 27.7448 17.2867 27.8554 17.5222 27.9229C17.829 28.0109 18.1574 28.0109 18.4642 27.9229C18.6998 27.8554 18.8758 27.7448 18.9947 27.6587C19.0914 27.5887 19.1908 27.5039 19.2633 27.4421C19.2689 27.4374 19.2743 27.4328 19.2795 27.4284C20.0674 26.7576 21.6657 25.3842 23.2683 23.9302C24.847 22.4978 26.5077 20.9181 27.3658 19.8567C29.6825 16.9911 29.3114 12.8816 26.3201 10.4918Z" stroke="#2A2F2D" stroke-width="2.41536" stroke-linecap="round" stroke-linejoin="round"/>
</svg>
