<svg width="100%" height="100%" viewBox="0 0 36 37" fill="#2A2F2D" xmlns="http://www.w3.org/2000/svg">
	<path
		d="M28.74 27.6799L24.6429 23.6159C26.2332 21.6329 27.0034 19.116 26.795 16.5826C26.5866 14.0492 25.4155 11.692 23.5225 9.99554C21.6295 8.29911 19.1585 7.39244 16.6175 7.46197C14.0765 7.5315 11.6587 8.57195 9.86131 10.3694C8.06389 12.1668 7.02345 14.5845 6.95392 17.1255C6.88439 19.6665 7.79105 22.1376 9.48749 24.0306C11.1839 25.9236 13.5412 27.0947 16.0745 27.3031C18.6079 27.5115 21.1249 26.7413 23.1078 25.1509L27.1718 29.2149C27.2745 29.3184 27.3966 29.4006 27.5312 29.4567C27.6658 29.5127 27.8101 29.5416 27.9559 29.5416C28.1017 29.5416 28.246 29.5127 28.3806 29.4567C28.5152 29.4006 28.6373 29.3184 28.74 29.2149C28.939 29.009 29.0503 28.7338 29.0503 28.4474C29.0503 28.161 28.939 27.8858 28.74 27.6799ZM16.9124 25.1509C15.3835 25.1509 13.8889 24.6975 12.6176 23.8481C11.3463 22.9987 10.3555 21.7913 9.77042 20.3788C9.18532 18.9662 9.03223 17.4119 9.33051 15.9123C9.62879 14.4128 10.365 13.0353 11.4462 11.9542C12.5273 10.8731 13.9047 10.1369 15.4043 9.83857C16.9038 9.54029 18.4582 9.69338 19.8707 10.2785C21.2833 10.8636 22.4906 11.8544 23.34 13.1257C24.1895 14.3969 24.6429 15.8915 24.6429 17.4205C24.6429 19.4707 23.8284 21.437 22.3787 22.8867C20.9289 24.3365 18.9627 25.1509 16.9124 25.1509Z"/>
</svg>
