<svg viewBox="0 0 36 37" fill="#192C32" xmlns="http://www.w3.org/2000/svg">
	<mask id="path-1-inside-1_1977_7568">
		<path fill-rule="evenodd" clip-rule="evenodd"
			  d="M8.32932 7.12042C7.86467 6.72712 7.34463 6.58852 6.88333 6.53092C6.4778 6.48028 5.99388 6.48038 5.50371 6.48048L5.43835 6.48049H4.35088C3.60481 6.48049 3 7.0853 3 7.83137C3 8.57744 3.60481 9.18225 4.35088 9.18225H5.43835C6.02018 9.18225 6.33111 9.18471 6.54856 9.21186L6.55679 9.21291L6.5594 9.22157C6.62195 9.43156 6.67572 9.73828 6.77114 10.3108L8.72069 22.0243L8.73275 22.0963L8.73275 22.0963C8.81317 22.5766 8.89263 23.0511 9.00849 23.4403C9.14099 23.8853 9.36313 24.3765 9.82863 24.7705C10.2933 25.1638 10.8133 25.3024 11.2746 25.36C11.6801 25.4106 12.164 25.4105 12.6541 25.4104H12.6542L12.7196 25.4104H26.6405C27.3865 25.4104 27.9914 24.8056 27.9914 24.0595C27.9914 23.3135 27.3865 22.7087 26.6405 22.7087H12.7196C12.1378 22.7087 11.8268 22.7062 11.6094 22.679L11.6005 22.6779L11.5979 22.6694C11.5352 22.4587 11.4815 22.1516 11.3852 21.5774L11.3487 21.3578L23.5461 21.3578H23.5462C24.28 21.3578 24.9202 21.3578 25.4511 21.3088C26.0191 21.2564 26.5771 21.1403 27.1136 20.8392C27.5119 20.6158 27.8695 20.3267 28.1714 19.9841C28.5787 19.5224 28.8089 19.0004 28.979 18.4563C29.1374 17.9494 29.271 17.3261 29.4241 16.6124L29.4378 16.5482L29.4564 16.4615L29.4564 16.4614C29.6824 15.4033 29.8748 14.5028 29.9504 13.764C30.0299 12.9876 30.0053 12.198 29.6333 11.4462C29.3676 10.908 28.9857 10.4356 28.5152 10.063L28.5136 10.0618C27.856 9.54269 27.0894 9.3545 26.3137 9.27034C25.5755 9.19025 24.6547 9.1903 23.5725 9.19036L9.32108 9.19913C9.27112 8.93118 9.21612 8.6765 9.14873 8.45028C9.01626 8.00554 8.79447 7.51554 8.33114 7.12196L8.32932 7.12042ZM10.899 18.656L9.77467 11.9006L23.4865 11.8921C24.6686 11.8921 25.4447 11.8937 26.0223 11.9563C26.5809 12.017 26.7589 12.1189 26.8391 12.1821C26.9955 12.3062 27.1225 12.4635 27.2108 12.6425L27.2117 12.6443C27.2567 12.7351 27.3199 12.9294 27.2626 13.4889C27.2035 14.0665 27.043 14.8256 26.7961 15.9817C26.6267 16.7717 26.5177 17.2744 26.4002 17.6504C26.2897 18.004 26.204 18.1303 26.1443 18.1979C26.0437 18.3121 25.9241 18.4086 25.7914 18.4831C25.712 18.5277 25.5711 18.5845 25.2027 18.6185C24.8109 18.6547 24.2967 18.656 23.4889 18.656H10.899ZM26.722 30.2206C27.102 29.8406 27.3155 29.3252 27.3155 28.7877C27.3155 28.2503 27.102 27.7349 26.722 27.3549C26.3419 26.9749 25.8265 26.7614 25.2891 26.7614C24.7517 26.7614 24.2363 26.9749 23.8563 27.3549C23.4763 27.7349 23.2628 28.2503 23.2628 28.7877C23.2628 29.3252 23.4763 29.8406 23.8563 30.2206C24.2363 30.6006 24.7517 30.8141 25.2891 30.8141C25.8265 30.8141 26.3419 30.6006 26.722 30.2206ZM13.8886 30.2206C14.2686 29.8406 14.4821 29.3252 14.4821 28.7877C14.4821 28.2503 14.2686 27.7349 13.8886 27.3549C13.5085 26.9749 12.9931 26.7614 12.4557 26.7614C11.9183 26.7614 11.4029 26.9749 11.0229 27.3549C10.6429 27.7349 10.4294 28.2503 10.4294 28.7877C10.4294 29.3252 10.6429 29.8406 11.0229 30.2206C11.4029 30.6006 11.9183 30.8141 12.4557 30.8141C12.9931 30.8141 13.5085 30.6006 13.8886 30.2206Z"/>
	</mask>
	<path fill-rule="evenodd" clip-rule="evenodd"
		  d="M8.32932 7.12042C7.86467 6.72712 7.34463 6.58852 6.88333 6.53092C6.4778 6.48028 5.99388 6.48038 5.50371 6.48048L5.43835 6.48049H4.35088C3.60481 6.48049 3 7.0853 3 7.83137C3 8.57744 3.60481 9.18225 4.35088 9.18225H5.43835C6.02018 9.18225 6.33111 9.18471 6.54856 9.21186L6.55679 9.21291L6.5594 9.22157C6.62195 9.43156 6.67572 9.73828 6.77114 10.3108L8.72069 22.0243L8.73275 22.0963L8.73275 22.0963C8.81317 22.5766 8.89263 23.0511 9.00849 23.4403C9.14099 23.8853 9.36313 24.3765 9.82863 24.7705C10.2933 25.1638 10.8133 25.3024 11.2746 25.36C11.6801 25.4106 12.164 25.4105 12.6541 25.4104H12.6542L12.7196 25.4104H26.6405C27.3865 25.4104 27.9914 24.8056 27.9914 24.0595C27.9914 23.3135 27.3865 22.7087 26.6405 22.7087H12.7196C12.1378 22.7087 11.8268 22.7062 11.6094 22.679L11.6005 22.6779L11.5979 22.6694C11.5352 22.4587 11.4815 22.1516 11.3852 21.5774L11.3487 21.3578L23.5461 21.3578H23.5462C24.28 21.3578 24.9202 21.3578 25.4511 21.3088C26.0191 21.2564 26.5771 21.1403 27.1136 20.8392C27.5119 20.6158 27.8695 20.3267 28.1714 19.9841C28.5787 19.5224 28.8089 19.0004 28.979 18.4563C29.1374 17.9494 29.271 17.3261 29.4241 16.6124L29.4378 16.5482L29.4564 16.4615L29.4564 16.4614C29.6824 15.4033 29.8748 14.5028 29.9504 13.764C30.0299 12.9876 30.0053 12.198 29.6333 11.4462C29.3676 10.908 28.9857 10.4356 28.5152 10.063L28.5136 10.0618C27.856 9.54269 27.0894 9.3545 26.3137 9.27034C25.5755 9.19025 24.6547 9.1903 23.5725 9.19036L9.32108 9.19913C9.27112 8.93118 9.21612 8.6765 9.14873 8.45028C9.01626 8.00554 8.79447 7.51554 8.33114 7.12196L8.32932 7.12042ZM10.899 18.656L9.77467 11.9006L23.4865 11.8921C24.6686 11.8921 25.4447 11.8937 26.0223 11.9563C26.5809 12.017 26.7589 12.1189 26.8391 12.1821C26.9955 12.3062 27.1225 12.4635 27.2108 12.6425L27.2117 12.6443C27.2567 12.7351 27.3199 12.9294 27.2626 13.4889C27.2035 14.0665 27.043 14.8256 26.7961 15.9817C26.6267 16.7717 26.5177 17.2744 26.4002 17.6504C26.2897 18.004 26.204 18.1303 26.1443 18.1979C26.0437 18.3121 25.9241 18.4086 25.7914 18.4831C25.712 18.5277 25.5711 18.5845 25.2027 18.6185C24.8109 18.6547 24.2967 18.656 23.4889 18.656H10.899ZM26.722 30.2206C27.102 29.8406 27.3155 29.3252 27.3155 28.7877C27.3155 28.2503 27.102 27.7349 26.722 27.3549C26.3419 26.9749 25.8265 26.7614 25.2891 26.7614C24.7517 26.7614 24.2363 26.9749 23.8563 27.3549C23.4763 27.7349 23.2628 28.2503 23.2628 28.7877C23.2628 29.3252 23.4763 29.8406 23.8563 30.2206C24.2363 30.6006 24.7517 30.8141 25.2891 30.8141C25.8265 30.8141 26.3419 30.6006 26.722 30.2206ZM13.8886 30.2206C14.2686 29.8406 14.4821 29.3252 14.4821 28.7877C14.4821 28.2503 14.2686 27.7349 13.8886 27.3549C13.5085 26.9749 12.9931 26.7614 12.4557 26.7614C11.9183 26.7614 11.4029 26.9749 11.0229 27.3549C10.6429 27.7349 10.4294 28.2503 10.4294 28.7877C10.4294 29.3252 10.6429 29.8406 11.0229 30.2206C11.4029 30.6006 11.9183 30.8141 12.4557 30.8141C12.9931 30.8141 13.5085 30.6006 13.8886 30.2206Z"
	/>
	<path
		d="M6.88333 6.53092L6.91753 6.257L6.88333 6.53092ZM8.32932 7.12042L8.50767 6.90973L8.50766 6.90973L8.32932 7.12042ZM5.50371 6.48048L5.50375 6.75652L5.50377 6.75652L5.50371 6.48048ZM5.43835 6.48049V6.75653H5.43838L5.43835 6.48049ZM6.54856 9.21186L6.58344 8.93803L6.58276 8.93795L6.54856 9.21186ZM6.55679 9.21291L6.82114 9.13341L6.76951 8.96173L6.59167 8.93908L6.55679 9.21291ZM6.5594 9.22157L6.82395 9.14276L6.82374 9.14207L6.5594 9.22157ZM6.77114 10.3108L7.04343 10.2655L7.04342 10.2654L6.77114 10.3108ZM8.72069 22.0243L8.44839 22.0696L8.44844 22.0699L8.72069 22.0243ZM8.73275 22.0963L9.0069 22.062L9.005 22.0507L8.73275 22.0963ZM8.73275 22.0963L8.4586 22.1306L8.4605 22.1419L8.73275 22.0963ZM9.00849 23.4403L9.27306 23.3615H9.27306L9.00849 23.4403ZM9.82863 24.7705L9.65029 24.9812L9.82863 24.7705ZM11.2746 25.36L11.2404 25.6339H11.2404L11.2746 25.36ZM12.6541 25.4104V25.1344H12.6541L12.6541 25.4104ZM12.6542 25.4104V25.6865H12.6543L12.6542 25.4104ZM12.7196 25.4104V25.1344H12.7196L12.7196 25.4104ZM11.6094 22.679L11.5744 22.9529L11.5752 22.953L11.6094 22.679ZM11.6005 22.6779L11.3362 22.7574L11.3878 22.929L11.5655 22.9517L11.6005 22.6779ZM11.5979 22.6694L11.3334 22.7481L11.3336 22.7488L11.5979 22.6694ZM11.3852 21.5774L11.1129 21.6227L11.113 21.6231L11.3852 21.5774ZM11.3487 21.3578V21.0817H11.0229L11.0764 21.4031L11.3487 21.3578ZM23.5461 21.3578V21.6338V21.3578ZM23.5462 21.3578L23.5462 21.0817H23.5462V21.3578ZM25.4511 21.3088L25.4765 21.5837L25.4511 21.3088ZM27.1136 20.8392L26.9786 20.5985L26.9785 20.5985L27.1136 20.8392ZM28.1714 19.9841L27.9644 19.8015L27.9643 19.8016L28.1714 19.9841ZM28.979 18.4563L29.2425 18.5386L29.2425 18.5386L28.979 18.4563ZM29.4241 16.6124L29.1542 16.5545L29.1542 16.5545L29.4241 16.6124ZM29.4378 16.5482L29.7077 16.6061L29.7078 16.6059L29.4378 16.5482ZM29.4564 16.4615L29.1876 16.3982L29.1864 16.4038L29.4564 16.4615ZM29.4564 16.4614L29.7251 16.5246L29.7263 16.519L29.4564 16.4614ZM29.9504 13.764L29.6758 13.7359V13.7359L29.9504 13.764ZM29.6333 11.4462L29.3858 11.5684L29.3859 11.5686L29.6333 11.4462ZM28.5152 10.063L28.6866 9.84663L28.6863 9.8464L28.5152 10.063ZM28.5136 10.0618L28.6847 9.84514L28.6846 9.84512L28.5136 10.0618ZM26.3137 9.27034L26.2839 9.54478L26.3137 9.27034ZM23.5725 9.19036L23.5725 8.91432H23.5723L23.5725 9.19036ZM9.32108 9.19913L9.04971 9.24972L9.09177 9.47531L9.32125 9.47517L9.32108 9.19913ZM9.14873 8.45028L9.41329 8.37147V8.37147L9.14873 8.45028ZM8.33114 7.12196L8.50986 6.91158L8.50949 6.91127L8.33114 7.12196ZM9.77467 11.9006L9.7745 11.6246L9.44893 11.6248L9.50238 11.9459L9.77467 11.9006ZM10.899 18.656L10.6267 18.7013L10.6651 18.932H10.899V18.656ZM23.4865 11.8921V11.6161L23.4863 11.6161L23.4865 11.8921ZM26.0223 11.9563L25.9925 12.2308L26.0223 11.9563ZM26.8391 12.1821L27.0107 11.9659L27.0099 11.9652L26.8391 12.1821ZM27.2108 12.6425L26.9633 12.7647L26.9634 12.7649L27.2108 12.6425ZM27.2117 12.6443L26.9643 12.7666L26.9643 12.7667L27.2117 12.6443ZM27.2626 13.4889L26.988 13.4608L27.2626 13.4889ZM26.7961 15.9817L27.066 16.0395L27.0661 16.0393L26.7961 15.9817ZM26.4002 17.6504L26.6637 17.7327L26.6637 17.7327L26.4002 17.6504ZM26.1443 18.1979L25.9374 18.0152L25.9372 18.0154L26.1443 18.1979ZM25.7914 18.4831L25.6563 18.2424L25.6563 18.2424L25.7914 18.4831ZM25.2027 18.6185L25.2281 18.8934H25.2281L25.2027 18.6185ZM13.8886 30.2206L13.6934 30.0254H13.6934L13.8886 30.2206ZM13.8886 27.3549L13.6934 27.5501H13.6934L13.8886 27.3549ZM11.0229 27.3549L11.2181 27.5501H11.2181L11.0229 27.3549ZM11.0229 30.2206L11.2181 30.0254H11.2181L11.0229 30.2206ZM6.84912 6.80483C7.28179 6.85886 7.7427 6.98554 8.15098 7.33112L8.50766 6.90973C7.98663 6.46871 7.40746 6.31818 6.91753 6.257L6.84912 6.80483ZM5.50377 6.75652C5.99902 6.75642 6.46417 6.75676 6.84912 6.80483L6.91753 6.257C6.49143 6.2038 5.98875 6.20434 5.50366 6.20444L5.50377 6.75652ZM5.43838 6.75653L5.50375 6.75652L5.50367 6.20444L5.43831 6.20444L5.43838 6.75653ZM4.35088 6.75653H5.43835V6.20444H4.35088V6.75653ZM3.27604 7.83137C3.27604 7.23775 3.75727 6.75653 4.35088 6.75653V6.20444C3.45236 6.20444 2.72396 6.93284 2.72396 7.83137H3.27604ZM4.35088 8.90621C3.75726 8.90621 3.27604 8.42499 3.27604 7.83137H2.72396C2.72396 8.7299 3.45236 9.4583 4.35088 9.4583V8.90621ZM5.43835 8.90621H4.35088V9.4583H5.43835V8.90621ZM6.58276 8.93795C6.3441 8.90815 6.01239 8.90621 5.43835 8.90621V9.4583C6.02796 9.4583 6.31812 9.46128 6.51436 9.48578L6.58276 8.93795ZM6.59167 8.93908L6.58344 8.93803L6.51369 9.48569L6.52192 9.48674L6.59167 8.93908ZM6.82374 9.14207L6.82114 9.13341L6.29245 9.29241L6.29505 9.30107L6.82374 9.14207ZM7.04342 10.2654C6.94926 9.70046 6.8926 9.37324 6.82395 9.14276L6.29484 9.30037C6.35129 9.48988 6.40217 9.77611 6.49885 10.3562L7.04342 10.2654ZM8.99298 21.979L7.04343 10.2655L6.49884 10.3561L8.44839 22.0696L8.99298 21.979ZM9.005 22.0507L8.99294 21.9787L8.44844 22.0699L8.4605 22.1419L9.005 22.0507ZM9.00666 22.0621L9.00666 22.0621L8.45884 22.1305L8.45884 22.1305L9.00666 22.0621ZM9.27306 23.3615C9.16306 22.992 9.08626 22.536 9.005 22.0507L8.4605 22.1419C8.54009 22.6172 8.62219 23.1101 8.74393 23.519L9.27306 23.3615ZM10.007 24.5598C9.59801 24.2136 9.39736 23.779 9.27306 23.3615L8.74392 23.519C8.88462 23.9916 9.12824 24.5393 9.65029 24.9812L10.007 24.5598ZM11.3088 25.0861C10.8762 25.0321 10.4153 24.9054 10.007 24.5598L9.65029 24.9812C10.1713 25.4222 10.7505 25.5727 11.2404 25.6339L11.3088 25.0861ZM12.6541 25.1344C12.1589 25.1345 11.6938 25.1341 11.3088 25.0861L11.2404 25.6339C11.6665 25.6871 12.1691 25.6866 12.6542 25.6865L12.6541 25.1344ZM12.6542 25.1344H12.6541V25.6865H12.6542V25.1344ZM12.7196 25.1344L12.6542 25.1344L12.6543 25.6865L12.7196 25.6865L12.7196 25.1344ZM26.6405 25.1344H12.7196V25.6865H26.6405V25.1344ZM27.7153 24.0595C27.7153 24.6532 27.2341 25.1344 26.6405 25.1344V25.6865C27.539 25.6865 28.2674 24.9581 28.2674 24.0595H27.7153ZM26.6405 22.9847C27.2341 22.9847 27.7153 23.4659 27.7153 24.0595H28.2674C28.2674 23.161 27.539 22.4326 26.6405 22.4326V22.9847ZM12.7196 22.9847H26.6405V22.4326H12.7196V22.9847ZM11.5752 22.953C11.8139 22.9828 12.1456 22.9847 12.7196 22.9847V22.4326C12.13 22.4326 11.8398 22.4296 11.6436 22.4051L11.5752 22.953ZM11.5655 22.9517L11.5744 22.9529L11.6444 22.4052L11.6355 22.4041L11.5655 22.9517ZM11.3336 22.7488L11.3362 22.7574L11.8649 22.5984L11.8623 22.5899L11.3336 22.7488ZM11.113 21.6231C11.208 22.1894 11.2646 22.5171 11.3334 22.7481L11.8625 22.5906C11.8059 22.4003 11.7551 22.1138 11.6575 21.5318L11.113 21.6231ZM11.0764 21.4031L11.1129 21.6227L11.6575 21.5321L11.621 21.3125L11.0764 21.4031ZM23.5461 21.0817L11.3487 21.0817V21.6338L23.5461 21.6338V21.0817ZM23.5462 21.0817H23.5461V21.6338H23.5462V21.0817ZM25.4257 21.034C24.9102 21.0815 24.2843 21.0818 23.5462 21.0817L23.5462 21.6338C24.2758 21.6338 24.9302 21.6341 25.4765 21.5837L25.4257 21.034ZM26.9785 20.5985C26.4887 20.8734 25.9733 20.9834 25.4257 21.034L25.4765 21.5837C26.0649 21.5294 26.6656 21.4072 27.2487 21.0799L26.9785 20.5985ZM27.9643 19.8016C27.683 20.1209 27.3497 20.3903 26.9786 20.5985L27.2487 21.08C27.6741 20.8413 28.056 20.5325 28.3785 20.1666L27.9643 19.8016ZM28.7155 18.374C28.5516 18.8985 28.3361 19.38 27.9644 19.8015L28.3784 20.1667C28.8212 19.6647 29.0663 19.1022 29.2425 18.5386L28.7155 18.374ZM29.1542 16.5545C29.0003 17.2723 28.8693 17.8818 28.7155 18.374L29.2425 18.5386C29.4055 18.0171 29.5418 17.3798 29.694 16.6703L29.1542 16.5545ZM29.1679 16.4903L29.1542 16.5545L29.694 16.6703L29.7077 16.6061L29.1679 16.4903ZM29.1864 16.4038L29.1679 16.4906L29.7078 16.6059L29.7263 16.5191L29.1864 16.4038ZM29.1877 16.3981L29.1877 16.3982L29.7251 16.5247L29.7251 16.5246L29.1877 16.3981ZM29.6758 13.7359C29.602 14.4564 29.4136 15.3403 29.1864 16.4037L29.7263 16.519C29.9512 15.4663 30.1475 14.5491 30.225 13.7921L29.6758 13.7359ZM29.3859 11.5686C29.7245 12.2529 29.753 12.9816 29.6758 13.7359L30.225 13.7921C30.3067 12.9935 30.2861 12.1431 29.8807 11.3237L29.3859 11.5686ZM28.3438 10.2795C28.7823 10.6266 29.1382 11.0669 29.3858 11.5684L29.8808 11.324C29.597 10.7492 29.1891 10.2446 28.6866 9.84663L28.3438 10.2795ZM28.3425 10.2784L28.3441 10.2797L28.6863 9.8464L28.6847 9.84514L28.3425 10.2784ZM26.2839 9.54478C27.0375 9.62654 27.744 9.80594 28.3426 10.2785L28.6846 9.84512C27.968 9.27944 27.1412 9.08247 26.3435 8.99591L26.2839 9.54478ZM23.5725 9.4664C24.6601 9.46634 25.5639 9.46666 26.2839 9.54478L26.3435 8.99591C25.5871 8.91385 24.6492 8.91426 23.5725 8.91432L23.5725 9.4664ZM9.32125 9.47517L23.5726 9.4664L23.5723 8.91432L9.32091 8.92309L9.32125 9.47517ZM8.88418 8.52908C8.94751 8.74171 9.00045 8.98549 9.04971 9.24972L9.59244 9.14854C9.5418 8.87687 9.48472 8.6113 9.41329 8.37147L8.88418 8.52908ZM8.15243 7.33235C8.55951 7.67815 8.75989 8.11184 8.88418 8.52908L9.41329 8.37147C9.27262 7.89924 9.02942 7.35293 8.50986 6.91158L8.15243 7.33235ZM8.15097 7.33111L8.15279 7.33265L8.50949 6.91127L8.50767 6.90973L8.15097 7.33111ZM9.50238 11.9459L10.6267 18.7013L11.1713 18.6107L10.047 11.8553L9.50238 11.9459ZM23.4863 11.6161L9.7745 11.6246L9.77485 12.1767L23.4866 12.1682L23.4863 11.6161ZM26.0521 11.6819C25.456 11.6173 24.6619 11.6161 23.4865 11.6161V12.1682C24.6752 12.1682 25.4334 12.1701 25.9925 12.2308L26.0521 11.6819ZM27.0099 11.9652C26.8707 11.8556 26.6326 11.7449 26.0521 11.6819L25.9925 12.2308C26.5293 12.289 26.6472 12.3823 26.6683 12.399L27.0099 11.9652ZM27.4584 12.5204C27.352 12.3047 27.1991 12.1153 27.0107 11.9659L26.6675 12.3983C26.792 12.4971 26.893 12.6222 26.9633 12.7647L27.4584 12.5204ZM27.4591 12.5219L27.4583 12.5202L26.9634 12.7649L26.9643 12.7666L27.4591 12.5219ZM27.5373 13.5171C27.5968 12.9353 27.5375 12.6802 27.4591 12.5218L26.9643 12.7667C26.9759 12.79 27.043 12.9234 26.988 13.4608L27.5373 13.5171ZM27.0661 16.0393C27.3116 14.8897 27.4762 14.1132 27.5373 13.5171L26.988 13.4608C26.9308 14.0199 26.7745 14.7614 26.5262 15.924L27.0661 16.0393ZM26.6637 17.7327C26.7859 17.3418 26.8977 16.8243 27.066 16.0395L26.5262 15.9238C26.3557 16.7191 26.2496 17.207 26.1367 17.568L26.6637 17.7327ZM26.3513 18.3805C26.4464 18.2728 26.547 18.106 26.6637 17.7327L26.1367 17.568C26.0324 17.902 25.9616 17.9878 25.9374 18.0152L26.3513 18.3805ZM25.9265 18.7239C26.0862 18.6342 26.2302 18.518 26.3514 18.3804L25.9372 18.0154C25.8572 18.1062 25.762 18.1831 25.6563 18.2424L25.9265 18.7239ZM25.2281 18.8934C25.6168 18.8575 25.8004 18.7946 25.9265 18.7238L25.6563 18.2424C25.6237 18.2607 25.5254 18.3115 25.1773 18.3436L25.2281 18.8934ZM23.4889 18.932C24.2913 18.932 24.8206 18.931 25.2281 18.8934L25.1773 18.3436C24.8012 18.3784 24.302 18.38 23.4889 18.38V18.932ZM10.899 18.932H23.4889V18.38H10.899V18.932ZM27.0394 28.7877C27.0394 29.2519 26.855 29.6971 26.5268 30.0254L26.9171 30.4158C27.3489 29.984 27.5915 29.3984 27.5915 28.7877H27.0394ZM26.5268 27.5501C26.855 27.8783 27.0394 28.3235 27.0394 28.7877H27.5915C27.5915 28.1771 27.3489 27.5915 26.9171 27.1597L26.5268 27.5501ZM25.2891 27.0375C25.7533 27.0375 26.1985 27.2219 26.5268 27.5501L26.9171 27.1597C26.4854 26.7279 25.8998 26.4854 25.2891 26.4854V27.0375ZM24.0515 27.5501C24.3797 27.2219 24.8249 27.0375 25.2891 27.0375V26.4854C24.6785 26.4854 24.0929 26.7279 23.6611 27.1597L24.0515 27.5501ZM23.5388 28.7877C23.5388 28.3235 23.7232 27.8783 24.0515 27.5501L23.6611 27.1597C23.2293 27.5915 22.9868 28.1771 22.9868 28.7877H23.5388ZM24.0515 30.0254C23.7232 29.6971 23.5388 29.2519 23.5388 28.7877H22.9868C22.9868 29.3984 23.2293 29.984 23.6611 30.4158L24.0515 30.0254ZM25.2891 30.538C24.8249 30.538 24.3797 30.3536 24.0515 30.0254L23.6611 30.4158C24.0929 30.8475 24.6785 31.0901 25.2891 31.0901V30.538ZM26.5268 30.0254C26.1985 30.3536 25.7533 30.538 25.2891 30.538V31.0901C25.8998 31.0901 26.4854 30.8475 26.9171 30.4158L26.5268 30.0254ZM14.206 28.7877C14.206 29.2519 14.0216 29.6971 13.6934 30.0254L14.0837 30.4158C14.5155 29.984 14.7581 29.3984 14.7581 28.7877H14.206ZM13.6934 27.5501C14.0216 27.8783 14.206 28.3235 14.206 28.7877H14.7581C14.7581 28.1771 14.5155 27.5915 14.0837 27.1597L13.6934 27.5501ZM12.4557 27.0375C12.9199 27.0375 13.3651 27.2219 13.6934 27.5501L14.0837 27.1597C13.652 26.7279 13.0664 26.4854 12.4557 26.4854V27.0375ZM11.2181 27.5501C11.5463 27.2219 11.9915 27.0375 12.4557 27.0375V26.4854C11.8451 26.4854 11.2595 26.7279 10.8277 27.1597L11.2181 27.5501ZM10.7054 28.7877C10.7054 28.3235 10.8898 27.8783 11.2181 27.5501L10.8277 27.1597C10.3959 27.5915 10.1534 28.1771 10.1534 28.7877H10.7054ZM11.2181 30.0254C10.8898 29.6971 10.7054 29.2519 10.7054 28.7877H10.1534C10.1534 29.3984 10.3959 29.984 10.8277 30.4158L11.2181 30.0254ZM12.4557 30.538C11.9915 30.538 11.5463 30.3536 11.2181 30.0254L10.8277 30.4158C11.2595 30.8475 11.8451 31.0901 12.4557 31.0901V30.538ZM13.6934 30.0254C13.3651 30.3536 12.9199 30.538 12.4557 30.538V31.0901C13.0664 31.0901 13.652 30.8475 14.0837 30.4158L13.6934 30.0254Z"
		mask="url(#path-1-inside-1_1977_7568)"/>
</svg>
