<?xml version="1.0" encoding="utf-8"?>
<!-- Generator: Adobe Illustrator 22.0.0, SVG Export Plug-In . SVG Version: 6.00 Build 0)  -->
<svg version="1.1" id="Слой_1" xmlns="http://www.w3.org/2000/svg" xmlns:xlink="http://www.w3.org/1999/xlink" x="0px" y="0px"
	 viewBox="0 0 464.7 328.8" style="enable-background:new 0 0 464.7 328.8;" xml:space="preserve">
<g>
	<path d="M232.5,328.7c-62.8,0-125.7-0.3-188.5,0.1C17.4,329-0.2,308.5,0,284.9c0.6-80.3,0.6-160.7,0-241C-0.2,20.4,17.2-0.1,44,0
		c125.8,0.3,251.6,0.1,377.5,0.1c26,0,43.2,17.2,43.2,43.3c0.1,81,0.1,162,0,243c0,24.7-17.8,42.3-42.7,42.3
		C358.8,328.7,295.6,328.7,232.5,328.7z M432.1,150.4c-133.3,0-266.3,0-399.6,0c0,1.7,0,3.1,0,4.4c0,43.3,0,86.6,0,130
		c0,8.6,2.7,11.2,11.4,11.2c125.8,0,251.6,0,377.4,0c8.3,0,11-2.8,11-11.1c0-43.2,0-86.3,0-129.5
		C432.4,153.8,432.2,152.2,432.1,150.4z M432.4,79.1c0-11.8,0-23.3,0-34.8c0-9.1-2.6-11.6-11.6-11.6c-75.3,0-150.7,0-226,0
		c-50.3,0-100.7,0-151,0c-8.6,0-11.3,2.7-11.3,11.4c0,4.2,0,8.3,0,12.5c0,7.4,0,14.9,0,22.5C166.1,79.1,299,79.1,432.4,79.1z"/>
	<path d="M315.5,227.6c18.8,0,37.6,0,56.4,0c1,0,2,0,3,0c4.3-0.1,7.2,1.6,7.5,6.2c0.3,3.9-2.7,6.7-7.5,6.8
		c-14.2,0.1-28.3,0.1-42.5,0.1c-24.6,0-49.3,0-73.9,0c-1.7,0-10.1,0.2-9.6-7.1c0.2-3.1,2.1-5.5,5.6-5.8c1.3-0.1,2.7-0.1,4-0.1
		C277.5,227.6,296.5,227.6,315.5,227.6z"/>
</g>
</svg>
