<svg width="80" height="55" viewBox="0 0 80 55" fill="none" xmlns="http://www.w3.org/2000/svg">
<path d="M7.1407 0.945312H73.3426C76.9837 0.945312 79.9628 3.94882 79.9628 7.61977V47.6665C79.9628 51.3374 76.9837 54.341 73.3426 54.341H7.1407C3.49959 54.341 0.520508 51.3374 0.520508 47.6665V7.61977C0.520508 3.94882 3.49959 0.945312 7.1407 0.945312Z" fill="#2A2C6B"/>
<path d="M40.0767 19.9665L36.7666 35.4846H32.7945L36.1046 19.9665H40.0767ZM56.6272 29.9782L58.7788 24.1381L59.9373 29.9782H56.6272ZM61.0959 35.4846H64.737L61.5924 19.9665H58.2823C57.6202 19.9665 56.9582 20.4671 56.6272 21.1346L50.669 35.4846H54.8067L55.6342 33.1486H60.5993L61.0959 35.4846ZM50.669 30.4788C50.669 26.3073 45.2074 25.9735 45.2074 24.3049C45.2074 23.8044 45.7039 23.1369 46.8624 22.97C48.1865 22.8032 49.5105 23.1369 50.8346 23.6375L51.4966 20.3003C50.338 19.7997 49.014 19.6328 47.8555 19.6328C43.8834 19.6328 41.2353 21.802 41.2353 24.8055C41.2353 26.9747 43.2213 28.3096 44.7109 28.9771C46.2004 29.6445 46.8624 30.3119 46.6969 30.9794C46.6969 31.9806 45.5384 32.4811 44.3799 32.4811C42.8903 32.4811 41.5663 32.1474 40.4077 31.48L39.7457 34.8172C41.0698 35.3178 42.7248 35.6515 44.2144 35.6515C48.021 35.6515 50.8346 33.4823 50.669 30.4788ZM34.4496 19.9665L27.9949 35.4846H23.6918L20.5472 23.1369C20.5472 22.4695 20.0507 21.9689 19.5541 21.802C18.2301 21.1346 17.0716 20.8008 15.582 20.4671L15.7475 19.9665H22.5332C23.5263 19.9665 24.1883 20.634 24.3538 21.4683L26.0088 30.4788L30.1465 19.9665H34.4496Z" fill="white"/>
</svg>
