<svg width="166" height="320" viewBox="0 0 166 320" fill="none" xmlns="http://www.w3.org/2000/svg">
<g clip-path="url(#clip0_301_6)">
<path d="M127.634 146.11L126.529 146.868L126.811 148.179L163.247 318H4.09619L38.1644 148.21L38.4247 146.913L37.3321 146.166C15.7078 131.384 2.83984 107.132 2.83984 81.041C2.83984 70.3587 4.94097 60.0225 9.0851 50.2869C13.0983 40.8677 18.8323 32.4095 26.1595 25.151L26.1614 25.1492C33.4716 17.8887 41.9715 12.1921 51.4576 8.20523C61.2635 4.08782 71.6943 2 82.4362 2C93.1784 2 103.609 4.0879 113.415 8.20547C122.903 12.1928 131.42 17.8892 138.729 25.1666L138.73 25.1684C146.041 32.429 151.775 40.8692 155.788 50.2875C159.932 60.0229 162.033 70.3778 162.033 81.041C162.033 107.075 149.202 131.309 127.634 146.11Z" fill="#D9D9D9"/>
<path d="M51.4576 8.20523C61.2635 4.08782 71.6943 2 82.4362 2C93.1784 2 103.609 4.0879 113.415 8.20547C122.903 12.1928 131.42 17.8892 138.729 25.1666L138.73 25.1684C146.041 32.429 151.775 40.8692 155.788 50.2875C159.932 60.0229 162.033 70.3778 162.033 81.041C162.033 107.075 149.202 131.309 127.634 146.11L126.529 146.868L126.811 148.179L163.247 318H4.09619L38.1644 148.21L38.4247 146.913L37.3321 146.166C15.7078 131.384 2.83984 107.132 2.83984 81.041C2.83984 70.3587 4.94097 60.0225 9.0851 50.2869M51.4576 8.20523C41.9715 12.1921 33.4716 17.8887 26.1614 25.1492M51.4576 8.20523L26.1614 25.1492M26.1614 25.1492L26.1595 25.151C18.8323 32.4095 13.0983 40.8677 9.0851 50.2869M26.1614 25.1492L9.0851 50.2869" stroke="#192C32" stroke-width="4"/>
</g>
<defs>
<clipPath id="clip0_301_6">
<rect width="166" height="320" fill="white"/>
</clipPath>
</defs>
</svg>
