<svg width="212" height="204" viewBox="0 0 212 204" fill="none" xmlns="http://www.w3.org/2000/svg">
<g clip-path="url(#clip0_303_40)">
<path d="M210 79.5376C210 81.165 210 82.7925 210 84.4199C208.865 89.1395 205.785 92.3943 202.381 95.6492C191.439 106.228 180.578 116.969 169.635 127.628C167.609 129.663 166.717 131.86 167.285 134.789C169.878 149.599 172.472 164.49 174.823 179.381C175.39 182.798 176.12 186.46 175.552 189.878C173.85 199.968 163.07 204.931 153.749 200.049C139.321 192.563 124.975 184.995 110.709 177.265C107.467 175.475 104.63 175.556 101.388 177.265C87.1228 184.914 72.7763 192.4 58.5109 199.968C52.9182 202.897 47.3255 202.734 42.2191 198.991C37.0317 195.248 35.4106 189.959 36.4643 183.693C39.2201 167.745 41.8949 151.714 44.7318 135.765C45.3802 132.185 44.4076 129.5 41.8138 127.059C30.0611 115.667 18.4704 104.275 6.87976 92.8826C2.42181 88.4885 0.881791 83.1993 2.82708 77.2592C4.77236 71.2377 9.14926 67.9014 15.3093 67.0063C31.52 64.6466 47.7308 62.2868 63.8604 60.0084C67.1026 59.5201 69.2099 58.0555 70.6689 55.0447C77.7206 40.4792 84.9343 25.9136 92.1481 11.4294C92.9586 9.88337 93.8502 8.25594 94.985 6.95399C102.037 -0.939069 114.6 0.85111 119.463 10.5343C126.839 25.4254 134.134 40.3164 141.429 55.2888C142.807 58.1368 144.914 59.6015 147.994 60.0084C164.286 62.2868 180.496 64.6466 196.788 67.0877C203.678 68.1455 207.974 72.1328 209.676 78.8866C209.757 79.0494 209.919 79.2935 210 79.5376Z" stroke="#192C32" stroke-width="4"/>
</g>
<defs>
<clipPath id="clip0_303_40">
<rect width="212" height="204" fill="white"/>
</clipPath>
</defs>
</svg>
