<svg width="236" height="204" viewBox="0 0 236 204" fill="none" xmlns="http://www.w3.org/2000/svg">
<g clip-path="url(#clip0_303_38)">
<path d="M2 75.7883C2 72.1744 2 68.5604 2 64.9464C2.12085 64.2838 2.36254 63.6213 2.42296 62.9587C3.99394 47.6595 9.61324 34.1071 19.9455 22.6628C33.4801 7.72503 50.3984 0.376596 70.64 2.30405C90.3982 4.23151 105.323 14.4109 116.319 30.6738C116.863 31.4568 117.347 32.2399 117.77 32.8422C121.093 28.7464 124.054 24.6505 127.498 20.9763C148.706 -1.4304 182.18 -4.32158 206.893 14.0495C229.793 31.0954 241.334 64.585 228.947 95.4243C222.905 110.422 213.841 123.493 203.086 135.419C179.582 161.62 151.787 182.461 121.939 200.772C119.22 202.458 116.501 202.398 113.842 200.651C101.214 192.098 88.3438 183.967 76.1384 174.932C56.8032 160.657 39.039 144.514 24.2959 125.42C15.8368 114.518 8.82775 102.773 4.90028 89.4612C3.63141 84.9438 2.96676 80.3661 2 75.7883Z" fill="#D9D9D9" stroke="#192C32" stroke-width="4"/>
</g>
<defs>
<clipPath id="clip0_303_38">
<rect width="236" height="204" fill="white"/>
</clipPath>
</defs>
</svg>
