<svg width="206" height="271" viewBox="0 0 206 271" fill="none" xmlns="http://www.w3.org/2000/svg">
<g filter="url(#filter0_i_294_2)">
<path d="M198.526 121.852C198.183 120.113 197.909 117.957 195.787 118.027C194.487 118.096 193.049 119.417 192.022 120.461C188.189 124.633 184.698 129.153 180.728 133.187C179.085 134.855 176.552 135.899 174.225 136.455C171.281 137.15 169.912 135.482 169.638 132.491C168.885 123.729 168.474 114.967 167.105 106.343C162.04 74.7716 148.829 47.3725 125.555 25.467C114.876 15.4531 103.034 7.3167 89.4114 2.03154C88.2478 1.6143 86.2627 1.6839 85.5093 2.44879C84.8247 3.21376 84.8247 5.16096 85.167 6.4127C86.0572 9.40301 87.3576 12.2541 88.3845 15.1749C92.9024 28.5268 91.8755 41.3225 84.4824 53.4227C81.676 58.0123 78.9385 62.6021 76.0633 67.1223C68.3967 79.0836 62.5096 91.8098 60.0455 105.996C59.4976 108.986 59.1553 112.046 58.6763 115.106C58.1972 114.967 58.0596 114.967 57.9228 114.897C50.4618 110.377 43.5479 105.162 38.1401 98.1378C36.155 95.6338 34.4437 95.6338 32.5955 98.1378C31.7056 99.3201 30.8841 100.502 30.0627 101.754C17.399 120.044 7.26785 139.654 3.70831 162.116C-0.330368 187.707 5.28274 210.864 21.9169 230.753C37.8664 249.877 58.6763 260.656 82.4974 265.802C88.0422 266.984 93.7926 267.61 99.4053 268.444C104.54 268.444 109.674 268.444 114.807 268.444C119.325 267.749 123.912 267.262 128.43 266.358C153.963 261.142 174.498 248.277 188.394 225.538C199.21 207.943 203.112 188.333 203.523 167.888C203.796 152.31 201.742 137.012 198.526 121.852Z" fill="#F2DECD" stroke="#192C32" stroke-width="2" stroke-linejoin="round"/>
</g>
<defs>
<filter id="filter0_i_294_2" x="1.45312" y="0.777832" width="204.094" height="269.667" filterUnits="userSpaceOnUse" color-interpolation-filters="sRGB">
<feFlood flood-opacity="0" result="BackgroundImageFix"/>
<feBlend mode="normal" in="SourceGraphic" in2="BackgroundImageFix" result="shape"/>
<feColorMatrix in="SourceAlpha" type="matrix" values="0 0 0 0 0 0 0 0 0 0 0 0 0 0 0 0 0 0 127 0" result="hardAlpha"/>
<feOffset dx="1" dy="1"/>
<feGaussianBlur stdDeviation="2"/>
<feComposite in2="hardAlpha" operator="arithmetic" k2="-1" k3="1"/>
<feColorMatrix type="matrix" values="0 0 0 0 0.0980392 0 0 0 0 0.172549 0 0 0 0 0.196078 0 0 0 1 0"/>
<feBlend mode="normal" in2="shape" result="effect1_innerShadow_294_2"/>
</filter>
</defs>
</svg>
