<svg width="100%" height="100%" viewBox="0 0 38 34" fill="none" xmlns="http://www.w3.org/2000/svg">
<path d="M31.6338 4.83993C27.592 1.61078 22.5282 2.08964 18.9891 4.91869C15.4455 2.09036 10.3289 1.56857 6.32673 4.85552C1.89269 8.4972 1.22328 14.6876 4.75817 19.06C6.06118 20.6717 8.58277 23.0703 10.98 25.2453C13.4134 27.4531 15.8403 29.5386 17.0368 30.5572C17.0447 30.5639 17.0529 30.5709 17.0614 30.5781C17.1715 30.6719 17.3225 30.8006 17.4692 30.9069C17.6498 31.0376 17.917 31.2055 18.2747 31.3081C18.7406 31.4417 19.2392 31.4417 19.7051 31.3081C20.0628 31.2055 20.33 31.0376 20.5106 30.9069C20.6574 30.8006 20.8084 30.6719 20.9185 30.578C20.9269 30.5709 20.9351 30.5639 20.943 30.5572C22.1395 29.5386 24.5664 27.4531 26.9998 25.2453C29.397 23.0703 31.9186 20.6717 33.2216 19.06C36.7394 14.7088 36.1758 8.46868 31.6338 4.83993Z" fill="#B5C2C8" stroke="#192C32" stroke-width="3.66759" stroke-linecap="round" stroke-linejoin="round"/>
</svg>
