<svg width="100%" height="100%" viewBox="0 0 56 50" fill="none" xmlns="http://www.w3.org/2000/svg">
<path d="M25.0384 45.45L26.8314 43.3437L25.0384 45.45C25.0504 45.4602 25.0627 45.4707 25.0754 45.4815C25.2415 45.6231 25.4693 45.8172 25.6907 45.9775C25.9631 46.1747 26.3661 46.428 26.9057 46.5827L26.9057 46.5827C27.6084 46.7842 28.3605 46.7842 29.0633 46.5827L29.0633 46.5827C29.6028 46.428 30.0059 46.1747 30.2783 45.9775C30.4997 45.8172 30.7275 45.6231 30.8935 45.4815C30.9062 45.4707 30.9186 45.4602 30.9305 45.45L29.1375 43.3437L30.9306 45.45C32.7353 43.9136 36.3962 40.7678 40.0668 37.4375C43.6828 34.1567 47.4864 30.5386 49.4519 28.1074C54.7582 21.544 53.9081 12.1313 47.0568 6.65767C40.96 1.78676 33.3218 2.50909 27.9833 6.77648C22.638 2.51017 14.92 1.72309 8.88313 6.68119C2.19475 12.1744 1.185 21.5121 6.51708 28.1074C8.48256 30.5386 12.2862 34.1567 15.9022 37.4375C19.5728 40.7678 23.2336 43.9136 25.0384 45.45Z" fill="#EBCAAF" stroke="#507178" stroke-width="5.53226" stroke-linecap="round" stroke-linejoin="round"/>
</svg>
