<svg width="15" height="14" viewBox="0 0 15 14" fill="none" xmlns="http://www.w3.org/2000/svg">
<path d="M7.50076 1.44721C9.30947 1.44721 9.52366 1.45398 10.2382 1.48656C10.6678 1.49182 11.0933 1.5707 11.4962 1.71979C11.7884 1.83248 12.0538 2.00511 12.2753 2.22656C12.4967 2.44802 12.6694 2.71339 12.782 3.00559C12.9311 3.40853 13.01 3.83406 13.0153 4.26366C13.0475 4.97817 13.0546 5.19237 13.0546 7.00108C13.0546 8.80979 13.0479 9.02398 13.0153 9.7385C13.01 10.1681 12.9311 10.5936 12.782 10.9966C12.6694 11.2888 12.4967 11.5541 12.2753 11.7756C12.0538 11.997 11.7884 12.1697 11.4962 12.2824C11.0933 12.4315 10.6678 12.5103 10.2382 12.5156C9.52398 12.5479 9.30979 12.5549 7.50076 12.5549C5.69172 12.5549 5.47753 12.5482 4.76334 12.5156C4.33373 12.5103 3.90821 12.4315 3.50527 12.2824C3.21307 12.1697 2.94769 11.997 2.72624 11.7756C2.50479 11.5541 2.33216 11.2888 2.21947 10.9966C2.07038 10.5936 1.9915 10.1681 1.98624 9.7385C1.95398 9.02398 1.94689 8.80979 1.94689 7.00108C1.94689 5.19237 1.95366 4.97817 1.98624 4.26366C1.9915 3.83406 2.07038 3.40853 2.21947 3.00559C2.33216 2.71339 2.50479 2.44802 2.72624 2.22656C2.94769 2.00511 3.21307 1.83248 3.50527 1.71979C3.90821 1.5707 4.33373 1.49182 4.76334 1.48656C5.47785 1.4543 5.69205 1.44721 7.50076 1.44721ZM7.50076 0.226562C5.66205 0.226562 5.43043 0.234304 4.70785 0.267208C4.14561 0.278391 3.58934 0.384847 3.06269 0.582046C2.61092 0.752261 2.20172 1.019 1.86366 1.36366C1.51869 1.70184 1.25172 2.11127 1.0814 2.56334C0.884201 3.08998 0.777746 3.64625 0.766563 4.2085C0.734304 4.93043 0.726562 5.16205 0.726562 7.00076C0.726562 8.83946 0.734304 9.07108 0.767208 9.79366C0.778391 10.3559 0.884847 10.9122 1.08205 11.4388C1.25218 11.8908 1.51892 12.3002 1.86366 12.6385C2.20191 12.9832 2.61133 13.25 3.06334 13.4201C3.58998 13.6173 4.14626 13.7238 4.7085 13.7349C5.43108 13.7672 5.66172 13.7756 7.5014 13.7756C9.34108 13.7756 9.57172 13.7679 10.2943 13.7349C10.8565 13.7238 11.4128 13.6173 11.9395 13.4201C12.3893 13.2457 12.7978 12.9794 13.1389 12.6381C13.48 12.2968 13.746 11.8882 13.9201 11.4382C14.1173 10.9115 14.2238 10.3553 14.235 9.79301C14.2672 9.07108 14.275 8.83946 14.275 7.00076C14.275 5.16205 14.2672 4.93043 14.2343 4.20785C14.2231 3.64561 14.1167 3.08934 13.9195 2.56269C13.7493 2.11068 13.4826 1.70126 13.1379 1.36301C12.7996 1.01828 12.3902 0.751533 11.9382 0.581401C11.4115 0.384201 10.8553 0.277746 10.293 0.266563C9.57108 0.234304 9.33947 0.226562 7.50076 0.226562Z" fill="#2A2F2D"/>
<path d="M7.50215 3.52344C6.81413 3.52344 6.14155 3.72746 5.56948 4.10971C4.99741 4.49195 4.55154 5.03525 4.28824 5.6709C4.02494 6.30655 3.95605 7.00601 4.09028 7.68081C4.22451 8.35561 4.55582 8.97546 5.04233 9.46197C5.52884 9.94847 6.14868 10.2798 6.82349 10.414C7.49829 10.5482 8.19774 10.4794 8.83339 10.2161C9.46904 9.95276 10.0123 9.50689 10.3946 8.93481C10.7768 8.36274 10.9809 7.69017 10.9809 7.00215C10.9809 6.07954 10.6144 5.19471 9.96197 4.54233C9.30958 3.88994 8.42476 3.52344 7.50215 3.52344ZM7.50215 9.26021C7.05555 9.26021 6.61897 9.12778 6.24764 8.87966C5.8763 8.63154 5.58688 8.27888 5.41597 7.86627C5.24506 7.45366 5.20034 6.99964 5.28747 6.56162C5.3746 6.1236 5.58966 5.72125 5.90546 5.40545C6.22125 5.08966 6.6236 4.8746 7.06162 4.78747C7.49964 4.70034 7.95367 4.74506 8.36627 4.91597C8.77888 5.08687 9.13154 5.3763 9.37966 5.74763C9.62778 6.11897 9.76021 6.55554 9.76021 7.00215C9.76021 7.60102 9.52231 8.17537 9.09884 8.59884C8.67537 9.02231 8.10102 9.26021 7.50215 9.26021Z" fill="#2A2F2D"/>
<path d="M11.1176 4.19807C11.5665 4.19807 11.9305 3.83412 11.9305 3.38517C11.9305 2.93621 11.5665 2.57227 11.1176 2.57227C10.6686 2.57227 10.3047 2.93621 10.3047 3.38517C10.3047 3.83412 10.6686 4.19807 11.1176 4.19807Z" fill="#2A2F2D"/>
</svg>
