<svg width="14" height="13" viewBox="0 0 14 13" fill="none" xmlns="http://www.w3.org/2000/svg">
<path fill-rule="evenodd" clip-rule="evenodd" d="M7.10685 0.226562C3.51591 0.226562 0.626953 3.11552 0.626953 6.70646C0.626953 9.56841 2.48992 11.9984 5.05488 12.8624C5.37888 12.9164 5.48688 12.7274 5.48688 12.5384C5.48688 12.3764 5.48688 11.9714 5.48688 11.4314C3.6779 11.8364 3.29991 10.5674 3.29991 10.5674C3.00291 9.81141 2.57092 9.62241 2.57092 9.62241C1.97693 9.21742 2.62492 9.21742 2.62492 9.21742C3.27291 9.27142 3.6239 9.89241 3.6239 9.89241C4.1909 10.8914 5.13588 10.5944 5.51387 10.4324C5.56787 10.0004 5.72987 9.73041 5.91887 9.56841C4.48789 9.40642 2.97592 8.83942 2.97592 6.35546C2.97592 5.65347 3.21891 5.05948 3.6509 4.62749C3.59691 4.46549 3.35391 3.8175 3.7049 2.89952C3.7049 2.89952 4.24489 2.73752 5.48688 3.57451C5.99987 3.43951 6.56686 3.35851 7.10685 3.35851C7.64684 3.35851 8.21383 3.43951 8.72682 3.57451C9.9688 2.73752 10.5088 2.89952 10.5088 2.89952C10.8598 3.79051 10.6438 4.43849 10.5628 4.62749C10.9678 5.08648 11.2378 5.65347 11.2378 6.35546C11.2378 8.83942 9.72581 9.37942 8.26783 9.54141C8.51083 9.73041 8.69982 10.1354 8.69982 10.7294C8.69982 11.5934 8.69982 12.2954 8.69982 12.5114C8.69982 12.6734 8.80782 12.8894 9.15882 12.8354C11.7238 11.9984 13.5867 9.56841 13.5867 6.70646C13.5867 3.11552 10.6978 0.226562 7.10685 0.226562Z" fill="#2A2F2D"/>
</svg>
