<svg width="12" height="10" viewBox="0 0 12 10" fill="none" xmlns="http://www.w3.org/2000/svg">
	<path
		d="M11.7071 1.9831C11.2881 2.16933 10.8458 2.28573 10.3802 2.35557C10.8458 2.07622 11.2183 1.63392 11.3812 1.0985C10.9389 1.35457 10.4501 1.5408 9.91465 1.6572C9.49562 1.2149 8.89037 0.935547 8.23856 0.935547C6.98149 0.935547 5.95721 1.95982 5.95721 3.21689C5.95721 3.40312 5.98049 3.56608 6.02705 3.72903C4.14145 3.63591 2.44208 2.72803 1.30141 1.33129C1.11518 1.68048 0.998783 2.05294 0.998783 2.47196C0.998783 3.26345 1.39453 3.96182 2.02306 4.38084C1.6506 4.35756 1.30141 4.26445 0.975504 4.10149V4.12477C0.975504 5.24216 1.76699 6.17333 2.81455 6.38284C2.62831 6.42939 2.4188 6.45267 2.20929 6.45267C2.06962 6.45267 1.90666 6.42939 1.76699 6.40612C2.06962 7.314 2.90766 7.98909 3.90866 7.98909C3.11717 8.59434 2.13945 8.96681 1.06862 8.96681C0.882388 8.96681 0.696156 8.96681 0.533203 8.94353C1.55748 9.59534 2.74471 9.96781 4.04833 9.96781C8.26184 9.96781 10.5665 6.47595 10.5665 3.44968C10.5665 3.35656 10.5665 3.24017 10.5665 3.14705C11.0088 2.84443 11.4045 2.44868 11.7071 1.9831Z"
		fill="#2A2F2D"/>
</svg>
